G04*
G04 #@! TF.GenerationSoftware,Altium Limited,Altium Designer,23.2.1 (34)*
G04*
G04 Layer_Physical_Order=1*
G04 Layer_Color=255*
%FSLAX44Y44*%
%MOMM*%
G71*
G04*
G04 #@! TF.SameCoordinates,8496A63A-E985-4FE9-BA7E-BC2AAF8C8172*
G04*
G04*
G04 #@! TF.FilePolarity,Positive*
G04*
G01*
G75*
%ADD11C,0.2540*%
%ADD19R,2.0000X2.0000*%
%ADD20R,2.0000X2.0000*%
%ADD21R,1.8000X1.8400*%
%ADD22R,0.3000X0.5500*%
%ADD23R,0.5500X0.3000*%
%ADD24R,1.0000X1.8000*%
%ADD25R,1.8000X1.0000*%
%ADD26R,1.4000X0.4500*%
%ADD27R,1.1500X0.3000*%
%ADD28R,1.1500X0.6000*%
%ADD29R,0.6250X0.8500*%
G04:AMPARAMS|DCode=30|XSize=1.1mm|YSize=1.73mm|CornerRadius=0.11mm|HoleSize=0mm|Usage=FLASHONLY|Rotation=0.000|XOffset=0mm|YOffset=0mm|HoleType=Round|Shape=RoundedRectangle|*
%AMROUNDEDRECTD30*
21,1,1.1000,1.5100,0,0,0.0*
21,1,0.8800,1.7300,0,0,0.0*
1,1,0.2200,0.4400,-0.7550*
1,1,0.2200,-0.4400,-0.7550*
1,1,0.2200,-0.4400,0.7550*
1,1,0.2200,0.4400,0.7550*
%
%ADD30ROUNDEDRECTD30*%
%ADD31R,1.8400X1.8000*%
%ADD32R,0.5588X1.3208*%
%ADD33R,0.3000X0.6000*%
%ADD34R,0.6000X0.3000*%
%ADD35R,0.7500X0.3500*%
%ADD36R,1.1500X0.6000*%
%ADD37R,0.3000X0.8000*%
G04:AMPARAMS|DCode=38|XSize=1.1mm|YSize=1.73mm|CornerRadius=0.11mm|HoleSize=0mm|Usage=FLASHONLY|Rotation=90.000|XOffset=0mm|YOffset=0mm|HoleType=Round|Shape=RoundedRectangle|*
%AMROUNDEDRECTD38*
21,1,1.1000,1.5100,0,0,90.0*
21,1,0.8800,1.7300,0,0,90.0*
1,1,0.2200,0.7550,0.4400*
1,1,0.2200,0.7550,-0.4400*
1,1,0.2200,-0.7550,-0.4400*
1,1,0.2200,-0.7550,0.4400*
%
%ADD38ROUNDEDRECTD38*%
%ADD39C,1.7397*%
%ADD40R,0.5800X1.7300*%
%ADD41R,1.0000X0.9000*%
%ADD42R,4.9000X0.9000*%
%ADD43R,4.9000X0.5000*%
%ADD44R,0.5000X5.0000*%
%ADD45R,2.6400X0.5000*%
%ADD46R,0.5000X2.0000*%
%ADD47R,0.5000X2.7000*%
%ADD48R,3.9400X0.5000*%
%ADD49R,1.4000X1.1000*%
%ADD50R,1.4000X0.9000*%
%ADD51R,0.8000X0.3000*%
%ADD52R,3.7500X3.7500*%
%ADD72R,1.7000X0.3000*%
%ADD101C,0.4000*%
%ADD102C,0.6000*%
%ADD103C,0.3810*%
%ADD104C,1.6000*%
%ADD105R,1.6000X1.6000*%
%ADD106C,1.5080*%
%ADD107R,1.5080X1.5080*%
%ADD108R,1.2000X1.2000*%
%ADD109C,1.2000*%
%ADD110O,2.1000X1.0000*%
%ADD111C,0.6500*%
%ADD112O,1.8000X1.0000*%
%ADD113C,1.0000*%
%ADD114R,1.0000X1.0000*%
%ADD115R,1.5500X1.5500*%
%ADD116C,1.5500*%
%ADD117C,0.8000*%
%ADD118C,1.2700*%
G36*
X831960Y1116960D02*
X837825D01*
Y1086660D01*
X818495D01*
Y1116960D01*
X824360D01*
Y1131960D01*
X831960D01*
Y1116960D01*
D02*
G37*
G36*
X735680Y1135500D02*
Y1113500D01*
X758080D01*
Y1119588D01*
X770170D01*
Y1118000D01*
X792170D01*
Y1118743D01*
X808260D01*
Y1112660D01*
X816330D01*
Y1086660D01*
X816964Y1085129D01*
X818495Y1084495D01*
X822748D01*
Y1072212D01*
X813400D01*
Y1078000D01*
X791400D01*
Y1055600D01*
X813400D01*
Y1061388D01*
X822748D01*
Y1046302D01*
X822718Y1046272D01*
X820960D01*
X819511Y1045672D01*
X711655D01*
X711655Y1045672D01*
X707828Y1044087D01*
X707828Y1044087D01*
X704313Y1040572D01*
X703321Y1038177D01*
X702728Y1036745D01*
X701140Y1032080D01*
X695403Y1029032D01*
X692909D01*
X687640Y1033210D01*
Y1057210D01*
X663640D01*
Y1034938D01*
X661579Y1031180D01*
X658668Y1028315D01*
X656573Y1027447D01*
Y1027447D01*
X593073Y963947D01*
X591488Y960120D01*
X591488Y960120D01*
Y951277D01*
X589821Y949610D01*
X589367Y948514D01*
X584651Y947538D01*
X582621Y947410D01*
X581951Y947508D01*
X580040Y949419D01*
X576971Y950690D01*
X574614D01*
X543203Y982101D01*
X543821Y982719D01*
X544455Y984250D01*
Y1011858D01*
X622300D01*
X622300Y1011858D01*
X626127Y1013443D01*
X632845Y1020162D01*
X632846Y1020162D01*
X634332Y1023751D01*
X634431Y1023989D01*
X636019Y1030052D01*
X636019Y1030052D01*
Y1044052D01*
X636019D01*
X636019Y1051145D01*
X634961Y1053698D01*
Y1098793D01*
X636862Y1100694D01*
X638080Y1103634D01*
Y1106817D01*
X636862Y1109757D01*
X634612Y1112008D01*
X634410Y1112092D01*
Y1121997D01*
X651083Y1138670D01*
X729993D01*
X735680Y1135500D01*
D02*
G37*
G36*
X1256864Y1169399D02*
X1259419D01*
X1264432Y1168402D01*
X1269153Y1166446D01*
X1273402Y1163607D01*
X1275209Y1161800D01*
X1305441Y1131569D01*
X1307619Y1129390D01*
X1311041Y1124268D01*
X1313399Y1118577D01*
X1314601Y1112535D01*
Y1109455D01*
Y983700D01*
X1313876Y983400D01*
X1313242Y981869D01*
Y957380D01*
X1300270D01*
Y957115D01*
X1196701D01*
Y957203D01*
X1186938Y955917D01*
X1177840Y952149D01*
X1170027Y946154D01*
X1170089Y946092D01*
X1095674Y871677D01*
X1095665Y871686D01*
X1091398Y868835D01*
X1086365Y867833D01*
Y867821D01*
X949910D01*
Y870586D01*
X911910D01*
Y870096D01*
X885140D01*
Y870586D01*
X858894D01*
X829310Y900171D01*
X831043Y907171D01*
X839590D01*
X842093Y908207D01*
X852805Y918920D01*
Y919210D01*
X855615Y922020D01*
X855906D01*
X858716Y924831D01*
X899160D01*
X901663Y925867D01*
X908288Y932492D01*
X909324Y934995D01*
Y937240D01*
X910910D01*
Y938268D01*
X919910D01*
Y936870D01*
X941910D01*
Y950870D01*
X946860Y955820D01*
X949408D01*
X961129Y944099D01*
X964190Y942830D01*
X996110D01*
Y940160D01*
X1018110D01*
Y945021D01*
X1030214D01*
X1036920Y944310D01*
Y936810D01*
X1030415Y935615D01*
X1028334D01*
X1025831Y934578D01*
X1024065Y932813D01*
X1018110Y930290D01*
Y930290D01*
X996110D01*
Y916290D01*
X1018110D01*
Y919751D01*
X1023402D01*
X1025905Y920787D01*
X1027393Y922275D01*
X1028429Y924778D01*
Y927166D01*
X1029800Y928536D01*
X1038702D01*
X1038712Y928541D01*
X1040190D01*
X1040841Y928810D01*
X1048420D01*
Y929021D01*
X1050230D01*
X1052733Y930057D01*
X1054221Y931545D01*
X1055161Y933815D01*
X1057351Y934954D01*
X1061641Y936810D01*
X1062257Y936810D01*
X1072420D01*
X1072420Y944310D01*
Y952310D01*
X1072420Y960310D01*
X1061724Y960310D01*
X1059241Y961032D01*
X1054978Y962864D01*
X1054221Y964692D01*
X1029054Y989859D01*
X1031954Y996859D01*
X1032225D01*
X1035286Y998127D01*
X1061248Y1024089D01*
X1071185D01*
X1071377Y1024168D01*
X1080185D01*
X1081041Y1017523D01*
Y933646D01*
X1078332Y930937D01*
X1072420Y928310D01*
X1060920D01*
Y920810D01*
X1060920D01*
Y920310D01*
X1060920D01*
X1060920Y912810D01*
X1060920Y904810D01*
X1072420D01*
X1072420Y912310D01*
X1079126Y913021D01*
X1081660D01*
X1084163Y914057D01*
X1093433Y923327D01*
X1094469Y925830D01*
Y973426D01*
X1101469Y976325D01*
X1107203Y970591D01*
X1106710Y969401D01*
Y966079D01*
X1107981Y963010D01*
X1110330Y960661D01*
X1113399Y959390D01*
X1116721D01*
X1119790Y960661D01*
X1122139Y963010D01*
X1123410Y966079D01*
Y969401D01*
X1122139Y972470D01*
X1122060Y972549D01*
X1121266Y978232D01*
X1122552Y981203D01*
X1123409Y982060D01*
X1124680Y985129D01*
Y988451D01*
X1123409Y991520D01*
X1121060Y993869D01*
X1117991Y995140D01*
X1114669D01*
X1113479Y994647D01*
X1107169Y1000956D01*
Y1017668D01*
X1114639D01*
X1115435Y1017339D01*
X1118392D01*
X1141604Y994127D01*
X1144665Y992859D01*
X1223155D01*
X1226217Y994127D01*
X1235947Y1003857D01*
X1237215Y1006918D01*
Y1010918D01*
X1245355D01*
Y1032918D01*
X1222955D01*
Y1010918D01*
X1222955D01*
X1223326Y1007704D01*
X1217697Y1001518D01*
X1212117D01*
X1208213Y1008518D01*
X1209696Y1010918D01*
X1212335D01*
Y1032918D01*
X1189935D01*
Y1012819D01*
X1184625Y1009790D01*
X1179315Y1012819D01*
Y1032918D01*
X1156915D01*
Y1032918D01*
X1149915Y1031861D01*
X1143796Y1037980D01*
X1145691Y1044546D01*
X1148040Y1047589D01*
X1148992D01*
X1151605Y1046506D01*
X1156915D01*
Y1040918D01*
X1179315D01*
Y1046506D01*
X1189935D01*
Y1040918D01*
X1212335D01*
Y1046506D01*
X1222955D01*
Y1040918D01*
X1245355D01*
Y1062918D01*
X1238557D01*
Y1075211D01*
X1240145D01*
Y1097211D01*
X1226145D01*
Y1075211D01*
X1227733D01*
Y1062918D01*
X1222955D01*
Y1057330D01*
X1212335D01*
Y1062918D01*
X1189935D01*
Y1057330D01*
X1179315D01*
Y1062918D01*
X1173527D01*
Y1092628D01*
X1173527Y1092628D01*
X1171942Y1096455D01*
X1171942Y1096455D01*
X1167122Y1101275D01*
X1164129Y1102514D01*
X1163295Y1102860D01*
X1157641Y1103750D01*
Y1103750D01*
X1135641D01*
Y1102162D01*
X1124821D01*
Y1108250D01*
X1102421D01*
Y1103278D01*
X1095421Y1102283D01*
X1093163Y1104542D01*
X1090101Y1105810D01*
X1088151D01*
Y1106480D01*
X1072651D01*
Y1096480D01*
X1088151D01*
X1091270Y1094189D01*
X1091270Y1094189D01*
X1094331Y1092921D01*
X1102421D01*
Y1086250D01*
X1124821D01*
Y1091338D01*
X1135641D01*
Y1089750D01*
X1157641D01*
X1162703Y1085071D01*
Y1073551D01*
X1156843Y1068402D01*
X1156843Y1068402D01*
X1125267D01*
X1124870Y1068799D01*
X1121801Y1070070D01*
X1118479D01*
X1115410Y1068799D01*
X1113061Y1066450D01*
X1111790Y1063381D01*
Y1060059D01*
X1113061Y1056990D01*
X1115410Y1054641D01*
X1118479Y1053370D01*
X1121801D01*
X1124684Y1054564D01*
X1124900Y1054637D01*
X1127643Y1054209D01*
X1130078Y1046744D01*
X1129082Y1045748D01*
X1115185D01*
X1114993Y1045668D01*
X1106185D01*
Y1038458D01*
X1102228D01*
X1099725Y1037421D01*
X1098678Y1036374D01*
X1094105Y1032973D01*
X1089532Y1036374D01*
X1088485Y1037421D01*
X1085982Y1038458D01*
X1080185D01*
Y1045668D01*
X1071377D01*
X1071185Y1045748D01*
X1059828D01*
X1050596Y1054980D01*
X1047535Y1056248D01*
X1035805D01*
Y1062918D01*
X1030017D01*
Y1089750D01*
X1035605D01*
Y1092421D01*
X1039701D01*
X1042763Y1093689D01*
X1047651Y1096480D01*
X1063151D01*
Y1106480D01*
X1047651D01*
Y1105810D01*
X1044431D01*
X1042144Y1104862D01*
X1035605Y1103750D01*
Y1103750D01*
X1013605D01*
Y1089750D01*
X1019193D01*
Y1062918D01*
X1013405D01*
Y1057330D01*
X1002785D01*
Y1062918D01*
X980385D01*
X978858Y1057830D01*
X968295D01*
Y1059418D01*
X946295D01*
Y1045418D01*
X968011D01*
Y1018087D01*
X969047Y1015584D01*
X993624Y991007D01*
X996127Y989971D01*
X1018931D01*
X1041592Y967310D01*
X1038692Y960310D01*
X1036920D01*
Y952810D01*
X1030214Y952099D01*
X1018110D01*
Y954160D01*
X996110D01*
Y951490D01*
X965983D01*
X954262Y963211D01*
X951201Y964479D01*
X907581D01*
X902292Y970002D01*
Y977060D01*
X903880D01*
Y981435D01*
X906061Y982590D01*
X910880Y983581D01*
X912210Y982251D01*
X915279Y980980D01*
X918601D01*
X921670Y982251D01*
X924019Y984600D01*
X925290Y987669D01*
Y990991D01*
X924019Y994060D01*
X921670Y996409D01*
X920479Y996902D01*
Y1011994D01*
X933413Y1024927D01*
X934449Y1027430D01*
Y1054100D01*
X933413Y1056603D01*
X920713Y1069303D01*
X918210Y1070339D01*
X894680D01*
Y1077975D01*
X895442Y1079158D01*
X898301Y1083500D01*
X920640D01*
Y1105500D01*
X898240D01*
Y1099412D01*
X886150D01*
Y1101000D01*
X864150D01*
Y1099412D01*
X839990D01*
Y1116960D01*
X839356Y1118491D01*
X837825Y1119125D01*
X834125D01*
Y1131960D01*
X833491Y1133491D01*
X831960Y1134125D01*
X824992D01*
X824360Y1134125D01*
X818060Y1133960D01*
Y1133960D01*
X808260D01*
Y1129567D01*
X792170D01*
Y1132000D01*
X770170D01*
Y1130412D01*
X758080D01*
Y1135500D01*
X751710D01*
Y1137300D01*
X750442Y1140361D01*
X744742Y1146061D01*
X741680Y1147330D01*
X649290D01*
X646228Y1146061D01*
X630080Y1129913D01*
X613932Y1146061D01*
X610870Y1147330D01*
X541770D01*
X538708Y1146061D01*
X533889Y1141242D01*
X532620Y1138180D01*
Y1128600D01*
X529950D01*
Y1121930D01*
X517460D01*
Y1129600D01*
X493460D01*
Y1105600D01*
X517460D01*
Y1113270D01*
X529950D01*
Y1106600D01*
X532496D01*
Y1080230D01*
X531908D01*
Y1069074D01*
X524908Y1066175D01*
X514871Y1076211D01*
X511810Y1077480D01*
X508600D01*
Y1084350D01*
X486600D01*
Y1061950D01*
X508600D01*
Y1061950D01*
X511244Y1062436D01*
X512628Y1060725D01*
X509286Y1053725D01*
X491490D01*
X489959Y1053091D01*
X484879Y1048011D01*
X484245Y1046480D01*
Y1028700D01*
X484879Y1027169D01*
X489959Y1022089D01*
X491490Y1021455D01*
X513453D01*
X519805Y1015103D01*
Y996200D01*
X459146D01*
X453353Y1001993D01*
X450850Y1003029D01*
X443868D01*
X441960Y1003820D01*
X433640D01*
Y1011490D01*
X409640D01*
Y987490D01*
X433640D01*
Y995160D01*
X441960D01*
X443868Y995951D01*
X446528D01*
X449459Y988981D01*
X410959Y950481D01*
X409690Y947420D01*
Y840740D01*
X410959Y837679D01*
X428739Y819899D01*
X431800Y818630D01*
X463550D01*
X466612Y819899D01*
X475502Y828789D01*
X476770Y831850D01*
Y843048D01*
X482000Y847320D01*
X504000D01*
Y869720D01*
X496207D01*
Y870042D01*
X495171Y872545D01*
X487363Y880353D01*
X487271Y880391D01*
X488664Y887391D01*
X526100D01*
Y884430D01*
X530873Y882220D01*
X532111Y879231D01*
X552001Y859341D01*
X552001Y859341D01*
X554990Y858103D01*
X554990Y858103D01*
X601980D01*
X603639Y858791D01*
X745490D01*
X747993Y859827D01*
X750191Y862025D01*
X757191Y859126D01*
Y838200D01*
X758227Y835697D01*
X761673Y832252D01*
X760709Y825437D01*
X759461Y824750D01*
X746760D01*
X743699Y823482D01*
X736035Y815818D01*
X734767Y812757D01*
Y811100D01*
X731880D01*
Y789100D01*
X745880D01*
Y811100D01*
X750732Y816090D01*
X765810D01*
X768872Y817358D01*
X774685Y823172D01*
X775953Y826233D01*
Y827890D01*
X779160D01*
Y838254D01*
X782810Y842420D01*
X785125Y843390D01*
X797660D01*
Y843390D01*
X798570Y843767D01*
X817620Y824717D01*
Y811100D01*
X814950D01*
Y809865D01*
X810205Y804830D01*
X805235D01*
X801720Y801315D01*
Y796345D01*
X805235Y792830D01*
X809666D01*
X814655Y787673D01*
X814634Y787573D01*
X810260Y782652D01*
X806433Y781067D01*
X806433Y781067D01*
X784860Y759494D01*
X765827Y778527D01*
X762000Y780112D01*
X762000Y780112D01*
X696932D01*
X694254Y782790D01*
X692588Y789100D01*
X692588D01*
Y811100D01*
X691240D01*
Y824922D01*
X692589D01*
Y846923D01*
X678588D01*
Y839462D01*
X664473D01*
X661970Y838425D01*
X658535Y834990D01*
X657498Y832487D01*
Y789801D01*
X649577D01*
Y803777D01*
X648540Y806280D01*
X637881Y816939D01*
X638374Y818130D01*
Y821452D01*
X637103Y824521D01*
X634754Y826870D01*
X631685Y828141D01*
X628363D01*
X625294Y826870D01*
X622945Y824521D01*
X622452Y823330D01*
X599929D01*
X597817Y827074D01*
X596636Y830330D01*
X597630Y832729D01*
Y836051D01*
X596359Y839120D01*
X594010Y841469D01*
X590941Y842740D01*
X587619D01*
X584550Y841469D01*
X582201Y839120D01*
X580930Y836051D01*
Y832729D01*
X582167Y829743D01*
X561475Y809051D01*
X558615Y806641D01*
X555094Y806820D01*
X518264D01*
X515761Y805784D01*
X507209Y797231D01*
X506172Y794728D01*
Y704301D01*
X497241D01*
Y682301D01*
X519641D01*
Y704301D01*
X513251D01*
Y788027D01*
X518818Y792785D01*
X522241Y790477D01*
Y742425D01*
X523277Y739922D01*
X539661Y723538D01*
Y704301D01*
X532001D01*
Y682301D01*
X554401D01*
Y704301D01*
X546740D01*
Y725004D01*
X545704Y727507D01*
X529319Y743891D01*
Y789011D01*
X533700Y793391D01*
X550439D01*
Y784807D01*
X547234Y781301D01*
X547234D01*
Y769301D01*
X547234D01*
X550484Y765551D01*
Y756051D01*
X577484D01*
X583337Y753283D01*
X584574Y752456D01*
Y698051D01*
X569784D01*
Y684051D01*
X564639Y679570D01*
X561323Y678197D01*
X561323Y678197D01*
X557839Y674713D01*
X549201D01*
X549201Y674713D01*
X548206Y674301D01*
X532001D01*
Y668713D01*
X519641D01*
Y674301D01*
X497241D01*
Y668713D01*
X487021D01*
X486742Y668992D01*
Y787698D01*
X522942Y823898D01*
X549863D01*
X550260Y823501D01*
X553329Y822230D01*
X556651D01*
X559720Y823501D01*
X562069Y825850D01*
X563340Y828919D01*
Y832241D01*
X562069Y835310D01*
X559720Y837659D01*
X556651Y838930D01*
X553329D01*
X550260Y837659D01*
X547911Y835310D01*
X547668Y834722D01*
X520700D01*
X520700Y834722D01*
X516873Y833137D01*
X477503Y793767D01*
X475918Y789940D01*
X475918Y789940D01*
Y666750D01*
X475918Y666750D01*
X477503Y662923D01*
X480952Y659474D01*
X480953Y659474D01*
X484779Y657889D01*
X497241D01*
Y652301D01*
X519641D01*
Y657889D01*
X532001D01*
Y652301D01*
X554401D01*
Y660422D01*
X560081Y663889D01*
X563907Y665474D01*
X567392Y668958D01*
X609600D01*
X609600Y668958D01*
X609600Y668958D01*
X642620D01*
X642620Y668958D01*
X642620Y668958D01*
X667048D01*
X676773Y659234D01*
X676773Y659234D01*
X680599Y657648D01*
X680600Y657649D01*
X694286D01*
Y652301D01*
X716686D01*
Y657649D01*
X736555D01*
Y652061D01*
X758955D01*
Y663649D01*
X768120D01*
X768121Y663649D01*
X771947Y665234D01*
X788687Y681973D01*
X790272Y685800D01*
X790272Y685800D01*
Y749598D01*
X807980Y767306D01*
X814980Y764407D01*
Y751324D01*
X814568Y750329D01*
X814568Y750329D01*
Y750271D01*
X811257Y746960D01*
X809672Y743133D01*
X809672Y743133D01*
Y724360D01*
X806996Y721684D01*
X805544Y718178D01*
Y714382D01*
X806996Y710876D01*
X809672Y708200D01*
Y660820D01*
X805544D01*
Y641740D01*
X824624D01*
Y643066D01*
X827226Y649534D01*
X831053Y651119D01*
X869717Y689783D01*
X876143Y691169D01*
X876143Y691169D01*
X876143Y691170D01*
X898143D01*
Y705169D01*
X876143D01*
Y702311D01*
X869180D01*
X869180Y702311D01*
X865353Y700726D01*
X865353Y700726D01*
X829815Y665188D01*
X827203Y662990D01*
X820496Y665769D01*
Y708200D01*
X823172Y710876D01*
X824624Y714382D01*
Y718178D01*
X823172Y721684D01*
X820496Y724360D01*
Y740892D01*
X823807Y744203D01*
X823807Y744203D01*
X824191Y745129D01*
X836980D01*
Y761945D01*
X840980Y764254D01*
X844980Y761945D01*
Y745129D01*
X866980D01*
Y750918D01*
X874439D01*
X874439Y750918D01*
X878266Y752503D01*
X897592Y771828D01*
X924061D01*
X929280Y767529D01*
X929280Y764828D01*
Y752783D01*
X925600Y749103D01*
X924015Y745276D01*
X924015Y745276D01*
Y724548D01*
X923579Y724368D01*
X920896Y721684D01*
X919443Y718178D01*
Y714382D01*
X920896Y710876D01*
X923579Y708192D01*
X924015Y708012D01*
Y660820D01*
X919443D01*
Y641740D01*
X938523D01*
Y642599D01*
X943671Y646598D01*
X947497Y648183D01*
X986988Y687674D01*
X992540Y691170D01*
X1014540D01*
Y705169D01*
X992540D01*
Y705170D01*
X986835Y702043D01*
X985494Y701487D01*
Y701487D01*
X945319Y661312D01*
X941839Y661060D01*
X934955Y666122D01*
X934839Y666294D01*
Y708644D01*
X937071Y710876D01*
X938523Y714382D01*
Y718178D01*
X937071Y721684D01*
X934839Y723916D01*
Y743034D01*
X936934Y745129D01*
X951280D01*
Y761945D01*
X955280Y764254D01*
X959280Y761945D01*
Y745129D01*
X981280D01*
Y758996D01*
X999507Y777223D01*
X999507Y777223D01*
X1001092Y781050D01*
Y794058D01*
X1001345Y794162D01*
X1004158Y796975D01*
X1005680Y800651D01*
Y804629D01*
X1004158Y808305D01*
X1001345Y811118D01*
X1000010Y811671D01*
Y818627D01*
X1001283Y819900D01*
X1089137D01*
X1090410Y818627D01*
Y811671D01*
X1089075Y811118D01*
X1086262Y808305D01*
X1084740Y804629D01*
Y800651D01*
X1086262Y796975D01*
X1089075Y794162D01*
X1092751Y792640D01*
X1096729D01*
X1100405Y794162D01*
X1103218Y796975D01*
X1103673Y798075D01*
X1111207D01*
X1111662Y796975D01*
X1114475Y794162D01*
X1118151Y792640D01*
X1122129D01*
X1125805Y794162D01*
X1128618Y796975D01*
X1129073Y798075D01*
X1136607D01*
X1137062Y796975D01*
X1139875Y794162D01*
X1143551Y792640D01*
X1147529D01*
X1151205Y794162D01*
X1154018Y796975D01*
X1155540Y800651D01*
Y804629D01*
X1154018Y808305D01*
X1151205Y811118D01*
X1149079Y811998D01*
Y829310D01*
X1148043Y831813D01*
X1136613Y843243D01*
X1134110Y844279D01*
X1111463D01*
X1109087Y851279D01*
X1113039Y854312D01*
X1112977Y854374D01*
X1187392Y928789D01*
X1187401Y928780D01*
X1191668Y931631D01*
X1196701Y932633D01*
Y932645D01*
X1300270D01*
Y932380D01*
X1313242D01*
Y839334D01*
X1310396D01*
Y814334D01*
X1313242D01*
Y802799D01*
X1313876Y801268D01*
X1314601Y800968D01*
Y740252D01*
X1313917Y733535D01*
X1313917Y733535D01*
X1313917Y733535D01*
Y678163D01*
Y675083D01*
X1312715Y669041D01*
X1310358Y663349D01*
X1308987Y661297D01*
X1304757Y656049D01*
X1304757D01*
X1304757Y656049D01*
X1274526Y625818D01*
X1272719Y624011D01*
X1268470Y621171D01*
X1263748Y619216D01*
X1258736Y618219D01*
X500244D01*
X494202Y619421D01*
X488511Y621778D01*
X483389Y625201D01*
X481211Y627379D01*
X455080Y653509D01*
X452902Y655687D01*
X449480Y660809D01*
X447122Y666501D01*
X445921Y672543D01*
Y675623D01*
Y691625D01*
X445770Y694690D01*
X444574Y700703D01*
X442228Y706367D01*
X438822Y711465D01*
X436761Y713739D01*
X436761Y713739D01*
X370555Y779945D01*
X368847Y781653D01*
X366162Y785670D01*
X364313Y790134D01*
X363371Y794873D01*
Y797289D01*
Y990329D01*
Y992745D01*
X364313Y997484D01*
X366162Y1001947D01*
X368847Y1005965D01*
X370555Y1007673D01*
X370555D01*
X436761Y1073879D01*
X438822Y1076153D01*
X442228Y1081251D01*
X444574Y1086915D01*
X445770Y1092927D01*
X445921Y1095993D01*
Y1111995D01*
Y1115075D01*
X447122Y1121117D01*
X449480Y1126808D01*
X452902Y1131931D01*
X455080Y1134109D01*
Y1134109D01*
X481211Y1160239D01*
X483389Y1162417D01*
X488511Y1165839D01*
X494202Y1168197D01*
X500244Y1169399D01*
X503325D01*
X1256864Y1169399D01*
D02*
G37*
G36*
X625750Y1121997D02*
Y1112092D01*
X625548Y1112008D01*
X623298Y1109757D01*
X622080Y1106817D01*
Y1103634D01*
X623298Y1100694D01*
X624137Y1099855D01*
Y1054771D01*
X623084Y1053718D01*
X622019Y1051145D01*
X622019Y1044052D01*
X622019D01*
Y1030052D01*
X622019D01*
X620894Y1023518D01*
X620058Y1022682D01*
X608169D01*
X604145Y1028700D01*
Y1051214D01*
X604145Y1052830D01*
X604145Y1052830D01*
X604008Y1053159D01*
X604034Y1053515D01*
X604034Y1053515D01*
X603703Y1053895D01*
X603511Y1054361D01*
X603182Y1054497D01*
X602948Y1054766D01*
X600408Y1056036D01*
X600408Y1056036D01*
X599906Y1056072D01*
X599440Y1056265D01*
X599440Y1056265D01*
X598178Y1056265D01*
X579120D01*
X577589Y1055631D01*
X575683Y1053725D01*
X563831D01*
X563309Y1054138D01*
X561920Y1056696D01*
X560292Y1063022D01*
X560292D01*
Y1080230D01*
X550704D01*
Y1069007D01*
X546100Y1066237D01*
X541496Y1069007D01*
Y1080230D01*
X541156D01*
Y1106600D01*
X543950D01*
Y1128600D01*
X541280D01*
Y1136387D01*
X543563Y1138670D01*
X609077D01*
X625750Y1121997D01*
D02*
G37*
G36*
X601980Y1052830D02*
Y1028700D01*
X596900Y1023620D01*
X553720D01*
X548640Y1028700D01*
Y1046480D01*
X553720Y1051560D01*
X576580D01*
X579120Y1054100D01*
X599440D01*
X601980Y1052830D01*
D02*
G37*
G36*
X732140Y1032080D02*
Y1010080D01*
X735601D01*
Y968962D01*
X734410Y968469D01*
X732061Y966120D01*
X730790Y963051D01*
Y959729D01*
X732061Y956660D01*
X734410Y954311D01*
X735321Y953934D01*
Y944554D01*
X728321Y941655D01*
X713703Y956273D01*
X711200Y957309D01*
X680720D01*
X678217Y956273D01*
X668177Y946233D01*
X667141Y943730D01*
Y930710D01*
X667180Y930615D01*
Y925710D01*
X682581D01*
X683297Y923981D01*
X697430Y909848D01*
X696015Y906430D01*
X692500Y902915D01*
Y902699D01*
X684449D01*
Y905480D01*
X684180Y906130D01*
Y910710D01*
X667180D01*
Y905805D01*
X667141Y905710D01*
Y890150D01*
X668177Y887647D01*
X671525Y884299D01*
X669245Y877299D01*
X637736D01*
X632326Y882709D01*
X631639Y884369D01*
X588459Y927549D01*
X586234Y928470D01*
X582309Y934771D01*
X583908Y938146D01*
X590802Y939170D01*
X592170Y937801D01*
X595239Y936530D01*
X598561D01*
X601630Y937801D01*
X603979Y940150D01*
X605250Y943219D01*
Y946541D01*
X603979Y949610D01*
X602312Y951277D01*
Y957878D01*
X662642Y1018208D01*
X701140D01*
Y1010080D01*
X715140D01*
Y1032080D01*
X720993Y1034848D01*
X726287D01*
X732140Y1032080D01*
D02*
G37*
G36*
X542290Y1049020D02*
Y984250D01*
X538480Y980440D01*
X525780D01*
X521970Y984250D01*
Y1016000D01*
X514350Y1023620D01*
X491490D01*
X486410Y1028700D01*
Y1046480D01*
X491490Y1051560D01*
X539750D01*
X542290Y1049020D01*
D02*
G37*
G36*
X470760Y981073D02*
X468108Y978421D01*
X466840Y975360D01*
Y930163D01*
X460357Y923680D01*
X445545D01*
Y924350D01*
X440076D01*
X439910Y924746D01*
X440276Y931956D01*
X442592Y933503D01*
X444139Y935819D01*
X444682Y938550D01*
X444139Y941281D01*
X442592Y943597D01*
X440276Y945144D01*
X437545Y945687D01*
X428310D01*
X425737Y949994D01*
X425260Y952537D01*
X460263Y987540D01*
X468082D01*
X470760Y981073D01*
D02*
G37*
G36*
X887807Y1022239D02*
X889088Y1021709D01*
X889618Y1020428D01*
X891208Y1018838D01*
Y999060D01*
X889880D01*
Y977060D01*
X883562Y975414D01*
X879832D01*
X876005Y973829D01*
X876005Y973829D01*
X862313Y960137D01*
X860728Y956310D01*
X857022Y950870D01*
X855140D01*
Y936870D01*
X855140Y936870D01*
X854153Y930279D01*
X845906Y922032D01*
X839972Y925997D01*
X840469Y927198D01*
Y953818D01*
X841660Y954311D01*
X844009Y956660D01*
X845280Y959729D01*
Y963051D01*
X844009Y966120D01*
X841660Y968469D01*
X838591Y969740D01*
X835269D01*
X832200Y968469D01*
X828040Y966832D01*
X823880Y968469D01*
X820811Y969740D01*
X817489D01*
X814420Y968469D01*
X809545Y973449D01*
X821435Y985339D01*
X822471Y987842D01*
Y988420D01*
X831420D01*
Y1002420D01*
X823973D01*
Y1004077D01*
X822705Y1007138D01*
X816890Y1012953D01*
X819569Y1019420D01*
X831420D01*
Y1022278D01*
X887768D01*
X887807Y1022239D01*
D02*
G37*
G36*
X519805Y984250D02*
X520439Y982719D01*
X524249Y978909D01*
X525780Y978275D01*
X532397D01*
X532875Y977121D01*
X566960Y943036D01*
Y940679D01*
X568231Y937610D01*
X570055Y935787D01*
X569796Y933354D01*
X567919Y928787D01*
X539750D01*
X536761Y927549D01*
X536761Y927549D01*
X532111Y922899D01*
X531266Y920858D01*
X526100Y916430D01*
X520148Y913899D01*
X498880D01*
X496377Y912863D01*
X489904Y906389D01*
X481121D01*
X478442Y912857D01*
X495149Y929564D01*
X496186Y932067D01*
Y935147D01*
X504000D01*
Y957547D01*
X482000D01*
Y957547D01*
X475500Y958753D01*
Y973567D01*
X489473Y987540D01*
X519805D01*
Y984250D01*
D02*
G37*
G36*
X625661Y878391D02*
X627321Y877704D01*
X632155Y872869D01*
X629875Y865869D01*
X603639D01*
X601980Y866557D01*
X556741D01*
X545350Y877948D01*
X544100Y884430D01*
X544100D01*
Y896430D01*
X546514Y903430D01*
X551100Y903430D01*
X566100D01*
X566100Y903430D01*
X572760Y902608D01*
X573649Y902240D01*
X576971D01*
X580040Y903511D01*
X582389Y905860D01*
X583660Y908929D01*
Y910493D01*
X588836Y913591D01*
X590127Y913925D01*
X625661Y878391D01*
D02*
G37*
G36*
X792430Y932210D02*
Y927210D01*
Y922210D01*
Y917210D01*
Y912210D01*
X784430D01*
Y899210D01*
X754430D01*
Y902210D01*
Y907210D01*
Y912210D01*
Y917210D01*
Y922210D01*
Y927210D01*
Y932210D01*
Y937210D01*
X792430D01*
Y932210D01*
D02*
G37*
G36*
X468110Y861807D02*
Y833643D01*
X461757Y827290D01*
X433593D01*
X421677Y839206D01*
X425577Y845205D01*
X426545Y845013D01*
X437545D01*
X440276Y845556D01*
X442592Y847103D01*
X444139Y849419D01*
X444682Y852150D01*
X444139Y854881D01*
X442592Y857197D01*
X440276Y858744D01*
X439910Y865954D01*
X440076Y866350D01*
X445545D01*
Y867020D01*
X462897D01*
X468110Y861807D01*
D02*
G37*
G36*
X690863Y770873D02*
X690863Y770873D01*
X694690Y769288D01*
X694690Y769288D01*
X759758D01*
X779448Y749598D01*
Y688042D01*
X765879Y674473D01*
X753755D01*
X753755Y674473D01*
X752760Y674061D01*
X736555D01*
Y668473D01*
X716686D01*
Y674301D01*
X694286D01*
Y668473D01*
X682841D01*
X673117Y678197D01*
X669290Y679782D01*
X669290Y679782D01*
X664851D01*
X659619Y684051D01*
Y698051D01*
X652158D01*
Y708486D01*
X651122Y710989D01*
X641130Y720981D01*
X644029Y727981D01*
X701865D01*
X702684Y727161D01*
Y704301D01*
X694286D01*
Y682301D01*
X716686D01*
Y704301D01*
X709763D01*
Y728627D01*
X708727Y731130D01*
X707446Y732411D01*
X709726Y739411D01*
X737005D01*
X744216Y732200D01*
Y704061D01*
X736555D01*
Y682061D01*
X758955D01*
Y704061D01*
X751294D01*
Y733666D01*
X750258Y736169D01*
X740974Y745453D01*
X738472Y746489D01*
X641415D01*
X639938Y748801D01*
X643772Y755801D01*
X651038Y755801D01*
X656038Y755801D01*
X664538Y755801D01*
Y764261D01*
X672551D01*
X675054Y765298D01*
X685746Y775990D01*
X690863Y770873D01*
D02*
G37*
%LPC*%
G36*
X758080Y1105500D02*
X735680D01*
Y1098542D01*
X725616D01*
X725053Y1099903D01*
X722680Y1100885D01*
X707580D01*
X705207Y1099903D01*
X704225Y1097530D01*
Y1088730D01*
X705207Y1086357D01*
X707580Y1085375D01*
X722680D01*
X725053Y1086357D01*
X725616Y1087718D01*
X735680D01*
Y1083500D01*
X751626D01*
X751999Y1083500D01*
X754221Y1083147D01*
X757631Y1081544D01*
X759863Y1079889D01*
X760556Y1078250D01*
X760802Y1076984D01*
X758193Y1070339D01*
X737822D01*
X737329Y1071530D01*
X734980Y1073879D01*
X731911Y1075150D01*
X728589D01*
X725520Y1073879D01*
X723171Y1071530D01*
X721900Y1068461D01*
Y1065139D01*
X723171Y1062070D01*
X725520Y1059721D01*
X728589Y1058450D01*
X731911D01*
X734980Y1059721D01*
X737329Y1062070D01*
X737822Y1063261D01*
X761400D01*
Y1055600D01*
X783400D01*
Y1078000D01*
X767854D01*
X767481Y1078000D01*
X765259Y1078354D01*
X761849Y1079956D01*
X759617Y1081611D01*
X758924Y1083250D01*
X758194Y1087010D01*
X758080Y1088986D01*
X758080Y1090143D01*
Y1105500D01*
D02*
G37*
G36*
X920640Y1135500D02*
X898240D01*
Y1113500D01*
X920640D01*
Y1119188D01*
X930704D01*
X931267Y1117827D01*
X933640Y1116845D01*
X948740D01*
X951113Y1117827D01*
X952095Y1120200D01*
Y1129000D01*
X951113Y1131373D01*
X948740Y1132355D01*
X933640D01*
X931267Y1131373D01*
X930704Y1130012D01*
X920640D01*
Y1135500D01*
D02*
G37*
G36*
X1124821Y1138250D02*
X1102421D01*
Y1131580D01*
X1098921D01*
X1095860Y1130312D01*
X1093944Y1128395D01*
X1088151Y1125480D01*
X1072651D01*
Y1115480D01*
X1088151D01*
Y1116151D01*
X1092151D01*
X1095213Y1117419D01*
X1095421Y1117627D01*
X1102421Y1116250D01*
Y1116250D01*
X1124821D01*
Y1138250D01*
D02*
G37*
G36*
X1063151Y1125480D02*
X1047651D01*
Y1115480D01*
X1063151D01*
Y1125480D01*
D02*
G37*
G36*
X478600Y1084350D02*
X456600D01*
Y1061950D01*
X462088D01*
Y1050616D01*
X460727Y1050053D01*
X459745Y1047680D01*
Y1032580D01*
X460727Y1030207D01*
X463100Y1029225D01*
X471900D01*
X474273Y1030207D01*
X475255Y1032580D01*
Y1047680D01*
X474273Y1050053D01*
X472912Y1050616D01*
Y1061950D01*
X478600D01*
Y1084350D01*
D02*
G37*
G36*
X394245Y945687D02*
X386245D01*
X383514Y945144D01*
X381198Y943597D01*
X379651Y941281D01*
X379108Y938550D01*
X379651Y935819D01*
X381198Y933503D01*
X383514Y931956D01*
X386245Y931413D01*
X394245D01*
X396976Y931956D01*
X399292Y933503D01*
X400839Y935819D01*
X401382Y938550D01*
X400839Y941281D01*
X399292Y943597D01*
X396976Y945144D01*
X394245Y945687D01*
D02*
G37*
G36*
X1048420Y920310D02*
X1036920D01*
X1036920Y912810D01*
X1036920Y904810D01*
X1048420D01*
X1048420Y912310D01*
X1048420Y919310D01*
Y920310D01*
D02*
G37*
G36*
X394245Y859287D02*
X386245D01*
X383514Y858744D01*
X381198Y857197D01*
X379651Y854881D01*
X379108Y852150D01*
X379651Y849419D01*
X381198Y847103D01*
X383514Y845556D01*
X386245Y845013D01*
X394245D01*
X396976Y845556D01*
X399292Y847103D01*
X400839Y849419D01*
X401382Y852150D01*
X400839Y854881D01*
X399292Y857197D01*
X396976Y858744D01*
X394245Y859287D01*
D02*
G37*
G36*
X1087980Y708250D02*
X1068480D01*
Y688750D01*
X1087980D01*
Y708250D01*
D02*
G37*
%LPD*%
D11*
X851898Y861332D02*
G03*
X858386Y857027I13865J13855D01*
G01*
X819959Y893270D02*
G03*
X801999Y900710I-17960J-17960D01*
G01*
X891907Y855586D02*
G03*
X892535Y855846I0J888D01*
G01*
X807720Y798830D02*
X820680D01*
X821950Y800100D01*
X542290Y768350D02*
X542839Y767801D01*
X551984D01*
X981710Y833120D02*
X1109980D01*
X970280Y821690D02*
X981710Y833120D01*
X1109980D02*
X1121410Y821690D01*
X1120140Y802640D02*
X1121410Y803910D01*
Y821690D01*
X970280Y802640D02*
Y821690D01*
X1134110Y840740D02*
X1145540Y829310D01*
Y802640D02*
Y829310D01*
X962660Y840740D02*
X1134110D01*
X944880Y822960D02*
X962660Y840740D01*
X944880Y802640D02*
Y822960D01*
X820680Y798830D02*
X821950Y800100D01*
X441960Y999490D02*
X450850D01*
X458470Y991870D01*
X640807Y785031D02*
Y789212D01*
X632460Y797560D02*
X640807Y789212D01*
Y785031D02*
X641038Y784801D01*
X883680Y1066800D02*
X918210D01*
X930910Y1027430D02*
Y1054100D01*
X918210Y1066800D02*
X930910Y1054100D01*
X916940Y1013460D02*
X930910Y1027430D01*
X916940Y989330D02*
Y1013460D01*
X730468Y1067018D02*
X732572D01*
X732790Y1066800D01*
X730250D02*
X730468Y1067018D01*
X732790Y1066800D02*
X772400D01*
X712470Y919480D02*
X713948D01*
X717757Y915670D01*
X748390D01*
X748430Y915710D01*
X656037Y753110D02*
Y760801D01*
X664516Y752393D02*
X672995D01*
X656037Y753110D02*
X663799D01*
X646430D02*
X656037D01*
X663799D02*
X664516Y752393D01*
X646038Y753503D02*
X646430Y753110D01*
X646038Y753503D02*
Y760801D01*
X677523Y756920D02*
X697230D01*
X672995Y752393D02*
X677523Y756920D01*
X568978Y796308D02*
X592461Y819791D01*
X568978Y784806D02*
Y796308D01*
X592461Y819791D02*
X630024D01*
X563978Y806548D02*
X589280Y831850D01*
Y834390D01*
X1058290Y932560D02*
X1066670D01*
X1050290Y924560D02*
X1058290Y932560D01*
X1042670Y924560D02*
X1050290D01*
X1028700Y892810D02*
X1029970Y894080D01*
Y919480D01*
X1035050Y924560D01*
X1042670D01*
X1028334Y932076D02*
X1038702D01*
X1024890Y928632D02*
X1028334Y932076D01*
X1038706Y932080D02*
X1040190D01*
X1038702Y932076D02*
X1038706Y932080D01*
X1040190D02*
X1040670Y932560D01*
X1050230D01*
X1024890Y924778D02*
Y928632D01*
X1007110Y923290D02*
X1023402D01*
X1024890Y924778D01*
X1008510Y948560D02*
X1042670D01*
X1007110Y947160D02*
X1008510Y948560D01*
X971550Y1018087D02*
Y1052418D01*
Y1018087D02*
X996127Y993510D01*
X1020397D01*
X1051718Y962189D01*
Y934048D02*
Y962189D01*
X1050230Y932560D02*
X1051718Y934048D01*
X905785Y934995D02*
Y943490D01*
X857250Y928370D02*
X899160D01*
X905785Y934995D01*
X839590Y910710D02*
X857250Y928370D01*
X811650Y910710D02*
X839590D01*
X835442Y925710D02*
X836930Y927198D01*
X798430Y925710D02*
X835442D01*
X836930Y927198D02*
Y961390D01*
X819150Y933450D02*
Y961390D01*
X816490Y930790D02*
X819150Y933450D01*
X816410Y930790D02*
X816490D01*
X803910Y972820D02*
X818932Y987842D01*
X780930Y960000D02*
X793750Y972820D01*
X803910D01*
X818932Y987842D02*
Y993932D01*
X820420Y995420D01*
X738860Y937470D02*
Y961390D01*
X780930Y943210D02*
Y960000D01*
X745490Y862330D02*
X761010Y877850D01*
X601980Y862330D02*
X745490D01*
X636270Y873760D02*
X748030D01*
X628650Y881380D02*
X636270Y873760D01*
X748030D02*
X755930Y881660D01*
X718568Y892810D02*
X727710D01*
X718378Y893000D02*
X718568Y892810D01*
X706631Y892620D02*
X707011Y893000D01*
X679640Y892620D02*
X706631D01*
X707011Y893000D02*
X718378D01*
X727710Y892810D02*
X735610Y900710D01*
X675640Y885190D02*
X712470D01*
X675680Y896580D02*
X679640Y892620D01*
X761010Y877850D02*
Y893130D01*
X755930Y881660D02*
Y893210D01*
X819959Y893270D02*
X851890Y861339D01*
X858410Y857027D02*
X865763Y855586D01*
X858386Y857027D02*
X858410D01*
X851890Y861339D02*
X851898Y861332D01*
X865763Y855586D02*
X891907D01*
X798430Y900710D02*
X801999D01*
X663037Y767801D02*
X672551D01*
X661038Y784801D02*
Y832487D01*
X664473Y835922D01*
X646038Y784801D02*
Y803777D01*
X630024Y819791D02*
X646038Y803777D01*
X614486Y783784D02*
Y801713D01*
Y783784D02*
X620469Y777801D01*
X639038D01*
X620401Y772801D02*
X639038D01*
X614784Y767184D02*
X620401Y772801D01*
X614784Y753751D02*
Y767184D01*
X622404Y757561D02*
Y763374D01*
X626831Y767801D02*
X639038D01*
X622404Y763374D02*
X626831Y767801D01*
X664473Y835922D02*
X685589D01*
X614486Y801713D02*
X614784Y802011D01*
Y753751D02*
X637015Y731520D01*
X703331D01*
X706224Y728627D01*
Y694038D02*
Y728627D01*
X705486Y693300D02*
X706224Y694038D01*
X622404Y757561D02*
X637015Y742950D01*
X738472D01*
X747755Y733666D01*
Y693061D02*
Y733666D01*
X685588Y780838D02*
Y783802D01*
X672551Y767801D02*
X685588Y780838D01*
X739140Y961390D02*
Y1021080D01*
X766010Y965400D02*
X778510Y977900D01*
X766010Y965320D02*
Y965400D01*
X798430Y930710D02*
X816410D01*
X787418Y877570D02*
X793750D01*
X790930Y880390D02*
X793750Y877570D01*
X738860Y937470D02*
X740620Y935710D01*
X748430D01*
X806650Y905710D02*
X811650Y910710D01*
X978858Y1052418D02*
X979170D01*
X730370Y925710D02*
X748430D01*
X683260Y948690D02*
X707390D01*
X730370Y925710D01*
X734260Y930710D02*
X748430D01*
X680720Y953770D02*
X711200D01*
X734260Y930710D01*
X685800Y942340D02*
X692150D01*
X697230Y922238D02*
Y937260D01*
X692150Y942340D02*
X697230Y937260D01*
X680680Y937220D02*
X685800Y942340D01*
X680680Y930710D02*
Y937220D01*
X697230Y922238D02*
X708758Y910710D01*
X675680Y941110D02*
X683260Y948690D01*
X670680Y943730D02*
X680720Y953770D01*
X706574Y905710D02*
X748430D01*
X685800Y926484D02*
X706574Y905710D01*
X670680Y930710D02*
Y943730D01*
X675680Y930710D02*
Y941110D01*
X670680Y890150D02*
X675640Y885190D01*
X670680Y890150D02*
Y905710D01*
X675680Y896580D02*
Y905710D01*
X1076960Y924560D02*
X1084580Y932180D01*
Y1025833D01*
X1066670Y924560D02*
X1076960D01*
X1103630Y999490D02*
Y1025001D01*
Y999490D02*
X1116330Y986790D01*
X1103630Y1025001D02*
X1106607Y1027978D01*
X1102228Y1034918D02*
X1115185D01*
X1097280Y1029970D02*
X1102228Y1034918D01*
X1097280Y985520D02*
Y1029970D01*
Y985520D02*
X1115060Y967740D01*
X1066670Y916560D02*
X1081660D01*
X1090930Y925830D01*
X1085982Y1034918D02*
X1090930Y1029970D01*
Y925830D02*
Y1029970D01*
X1071185Y1034918D02*
X1085982D01*
X1081995Y1028418D02*
X1084580Y1025833D01*
X1114745Y1027978D02*
X1115185Y1028418D01*
X1106607Y1027978D02*
X1114745D01*
X1071185Y1028418D02*
X1081995D01*
X760930Y983180D02*
X782320Y1004570D01*
X760930Y943210D02*
Y983180D01*
X452160Y892850D02*
X462160Y902850D01*
X437795Y892850D02*
X452160D01*
X462160Y902850D02*
X491370D01*
X437795D02*
X462160D01*
X498880Y910360D02*
X534670D01*
X491370Y902850D02*
X498880Y910360D01*
X459860Y887850D02*
X462940Y890930D01*
X437795Y877850D02*
X484860D01*
X492668Y858852D02*
X493000Y858520D01*
X492668Y858852D02*
Y870042D01*
X484860Y877850D02*
X492668Y870042D01*
X492647Y932067D02*
Y945993D01*
X493000Y946347D01*
X468510Y907930D02*
X492647Y932067D01*
X468430Y907930D02*
X468510D01*
X437795Y907850D02*
X468430D01*
X525780Y742425D02*
Y790477D01*
Y742425D02*
X543201Y725004D01*
X525780Y790477D02*
X532234Y796931D01*
X648619Y691051D02*
Y708486D01*
X605894Y751211D02*
X648619Y708486D01*
X599544Y733956D02*
Y762641D01*
Y733956D02*
X614997Y718503D01*
Y691051D02*
Y718503D01*
X605894Y751211D02*
Y785501D01*
X598274Y793121D02*
X605894Y785501D01*
X576684Y793121D02*
X598274D01*
X573978Y790415D02*
X576684Y793121D01*
X573978Y784806D02*
Y790415D01*
Y784806D02*
X573984Y784801D01*
X509711Y694571D02*
Y794728D01*
X508441Y693301D02*
X509711Y694571D01*
X558984Y784801D02*
Y799391D01*
X555094Y803281D02*
X558984Y799391D01*
X518264Y803281D02*
X555094D01*
X509711Y794728D02*
X518264Y803281D01*
X543201Y693300D02*
Y725004D01*
X553978Y784806D02*
X553984Y784801D01*
X553978Y784806D02*
Y795443D01*
X552490Y796931D02*
X553978Y795443D01*
X532234Y796931D02*
X552490D01*
X588114Y694781D02*
Y761371D01*
X584384Y691051D02*
X588114Y694781D01*
X580784Y691051D02*
X584384D01*
X581684Y767801D02*
X588114Y761371D01*
X575984Y767801D02*
X581684D01*
X563978Y784806D02*
Y806548D01*
X575984Y772801D02*
X589384D01*
X798430Y905710D02*
X806650D01*
X798430Y910710D02*
X811650D01*
X437795Y887850D02*
X459860D01*
X780930Y872610D02*
X790660Y862880D01*
Y849890D02*
Y862880D01*
X780930Y872610D02*
Y893210D01*
X785930Y879058D02*
X787418Y877570D01*
X785930Y879058D02*
Y893210D01*
X790930Y880390D02*
Y893210D01*
X462940Y890930D02*
X535100D01*
X599544Y762641D02*
Y768991D01*
X590654Y777881D02*
X599544Y768991D01*
X576064Y777881D02*
X590654D01*
X575984Y777801D02*
X576064Y777881D01*
X589384Y772801D02*
X599544Y762641D01*
X568978Y784806D02*
X568984Y784801D01*
X563978Y784806D02*
X563984Y784801D01*
X685588Y800100D02*
X685828Y800340D01*
X697230Y899160D02*
X698500Y900430D01*
X712470Y932180D02*
X723940Y920710D01*
X748430D01*
X708758Y910710D02*
X748430D01*
X765930Y943210D02*
Y965320D01*
X685800Y926484D02*
Y928980D01*
X685680Y929100D02*
X685800Y928980D01*
X685680Y929100D02*
Y930710D01*
Y905710D02*
Y917710D01*
X685180Y918210D02*
X685680Y917710D01*
X678180Y918210D02*
X685180D01*
X760730Y838200D02*
Y866140D01*
X775930Y881340D01*
Y893210D01*
X682398Y899160D02*
X697230D01*
X680910Y900648D02*
X682398Y899160D01*
X680910Y900648D02*
Y905480D01*
X680680Y905710D02*
X680910Y905480D01*
X735610Y900710D02*
X748430D01*
X770693Y834390D02*
X772160D01*
X764540D02*
X770693D01*
X760730Y838200D02*
X764540Y834390D01*
X430157Y897850D02*
X437795D01*
X430117Y897890D02*
X430157Y897850D01*
X426720Y897890D02*
X430117D01*
X424180Y895350D02*
X426720Y897890D01*
X424180Y890270D02*
Y895350D01*
X426600Y887850D02*
X437795D01*
X424180Y890270D02*
X426600Y887850D01*
D19*
X421640Y999490D02*
D03*
X505460Y1117600D02*
D03*
D20*
X675640Y1045210D02*
D03*
D21*
X883680Y1066800D02*
D03*
X853680D02*
D03*
X772400D02*
D03*
X802400D02*
D03*
X825980Y756329D02*
D03*
X855980D02*
D03*
X940280D02*
D03*
X970280D02*
D03*
X467600Y1073150D02*
D03*
X497600D02*
D03*
X493000Y946347D02*
D03*
X523000D02*
D03*
X493000Y858520D02*
D03*
X523000D02*
D03*
D22*
X573984Y784801D02*
D03*
X568984D02*
D03*
X563984D02*
D03*
X558984D02*
D03*
X553984D02*
D03*
Y760801D02*
D03*
X558984D02*
D03*
X563984D02*
D03*
X568984D02*
D03*
X573984D02*
D03*
D23*
X551984Y777801D02*
D03*
Y772801D02*
D03*
Y767801D02*
D03*
X575984D02*
D03*
Y772801D02*
D03*
Y777801D02*
D03*
D24*
X847020Y800100D02*
D03*
X878020D02*
D03*
X739140Y1021080D02*
D03*
X708140D02*
D03*
X865880Y988060D02*
D03*
X896880D02*
D03*
X847020Y829310D02*
D03*
X878020D02*
D03*
X536950Y1117600D02*
D03*
X567950D02*
D03*
X530600Y994410D02*
D03*
X561600D02*
D03*
X685589Y835922D02*
D03*
X716589D02*
D03*
X685588Y800100D02*
D03*
X716588D02*
D03*
X1233145Y1086211D02*
D03*
X1202145D02*
D03*
X738880Y800100D02*
D03*
X769880D02*
D03*
X821950D02*
D03*
X790950D02*
D03*
D25*
X820420Y995420D02*
D03*
Y1026420D02*
D03*
X930910Y912870D02*
D03*
Y943870D02*
D03*
X1003540Y698169D02*
D03*
Y667169D02*
D03*
X887143Y698169D02*
D03*
Y667169D02*
D03*
X866140Y943870D02*
D03*
Y912870D02*
D03*
X957295Y1052418D02*
D03*
Y1021418D02*
D03*
X1007110Y923290D02*
D03*
Y892290D02*
D03*
Y947160D02*
D03*
Y978160D02*
D03*
X648619Y691051D02*
D03*
Y660051D02*
D03*
X580784D02*
D03*
Y691051D02*
D03*
X614997D02*
D03*
Y660051D02*
D03*
X1024605Y1096750D02*
D03*
Y1127750D02*
D03*
X1146641Y1096750D02*
D03*
Y1127750D02*
D03*
X875150Y1094000D02*
D03*
Y1125000D02*
D03*
X781170D02*
D03*
Y1094000D02*
D03*
X866140Y855586D02*
D03*
Y886586D02*
D03*
X930910Y855586D02*
D03*
Y886586D02*
D03*
D26*
X1071185Y1041418D02*
D03*
Y1034918D02*
D03*
Y1028418D02*
D03*
Y1021918D02*
D03*
X1115185D02*
D03*
Y1028418D02*
D03*
Y1034918D02*
D03*
Y1041418D02*
D03*
D27*
X437795Y897850D02*
D03*
Y892850D02*
D03*
Y887850D02*
D03*
Y902850D02*
D03*
Y907850D02*
D03*
Y912850D02*
D03*
Y882850D02*
D03*
Y877850D02*
D03*
D28*
Y919350D02*
D03*
Y927350D02*
D03*
Y871350D02*
D03*
Y863350D02*
D03*
D29*
X892535Y943490D02*
D03*
X905785D02*
D03*
Y855846D02*
D03*
X892535D02*
D03*
D30*
X467500Y1040130D02*
D03*
X497700D02*
D03*
D31*
X586740Y1039100D02*
D03*
Y1069100D02*
D03*
X747755Y693061D02*
D03*
Y663061D02*
D03*
X705486Y693300D02*
D03*
Y663301D02*
D03*
X508441Y663301D02*
D03*
Y693301D02*
D03*
X543201Y663301D02*
D03*
Y693300D02*
D03*
X1113621Y1127250D02*
D03*
Y1097250D02*
D03*
X1168115Y1021918D02*
D03*
Y1051918D02*
D03*
X1201135Y1021918D02*
D03*
Y1051918D02*
D03*
X1234155Y1021918D02*
D03*
Y1051918D02*
D03*
X1024605Y1021918D02*
D03*
Y1051918D02*
D03*
X991585Y1021918D02*
D03*
Y1051918D02*
D03*
X909440Y1094500D02*
D03*
Y1124500D02*
D03*
X746880D02*
D03*
Y1094500D02*
D03*
D32*
X555498Y1044194D02*
D03*
X536702D02*
D03*
Y1071626D02*
D03*
X546100D02*
D03*
X555498D02*
D03*
D33*
X661038Y784801D02*
D03*
X656037D02*
D03*
X651038D02*
D03*
X646038D02*
D03*
X641038D02*
D03*
Y760801D02*
D03*
X646038D02*
D03*
X651038D02*
D03*
X656037D02*
D03*
X661038D02*
D03*
X670680Y930710D02*
D03*
X675680D02*
D03*
X680680D02*
D03*
X685680D02*
D03*
Y905710D02*
D03*
X680680D02*
D03*
X675680D02*
D03*
X670680D02*
D03*
D34*
X639038Y777801D02*
D03*
Y772801D02*
D03*
Y767801D02*
D03*
X663037D02*
D03*
Y772801D02*
D03*
Y777801D02*
D03*
D35*
X1066670Y908560D02*
D03*
Y916560D02*
D03*
Y924560D02*
D03*
Y932560D02*
D03*
Y940560D02*
D03*
Y948560D02*
D03*
Y956560D02*
D03*
X1042670D02*
D03*
Y948560D02*
D03*
Y940560D02*
D03*
Y932560D02*
D03*
Y924560D02*
D03*
Y916560D02*
D03*
Y908560D02*
D03*
D36*
X1055401Y1101480D02*
D03*
Y1120480D02*
D03*
X1080401D02*
D03*
Y1110980D02*
D03*
Y1101480D02*
D03*
D37*
X765930Y943210D02*
D03*
X790930D02*
D03*
X785930D02*
D03*
X780930D02*
D03*
X775930D02*
D03*
X770930D02*
D03*
X760930D02*
D03*
X755930D02*
D03*
Y893210D02*
D03*
X760930D02*
D03*
X765930D02*
D03*
X770930D02*
D03*
X775930D02*
D03*
X780930D02*
D03*
X785930D02*
D03*
X790930D02*
D03*
D38*
X941190Y1094400D02*
D03*
Y1124600D02*
D03*
X715130Y1123330D02*
D03*
Y1093130D02*
D03*
D39*
X828160Y1105500D02*
D03*
D40*
X813160Y1123310D02*
D03*
X843160D02*
D03*
D41*
X790660Y849890D02*
D03*
X772160D02*
D03*
Y834390D02*
D03*
X790660D02*
D03*
D42*
X1334828Y963504D02*
D03*
D43*
X1334770Y944880D02*
D03*
D44*
X1361680Y943006D02*
D03*
D45*
X1346279Y920530D02*
D03*
X1346267Y895737D02*
D03*
X1346401Y873711D02*
D03*
X1346429Y848837D02*
D03*
D46*
X1335563Y908139D02*
D03*
X1335735Y861267D02*
D03*
D47*
X1361861Y884729D02*
D03*
X1362049Y837838D02*
D03*
D48*
X1340096Y826834D02*
D03*
D49*
X557100Y892930D02*
D03*
D50*
Y909930D02*
D03*
X535100D02*
D03*
Y890930D02*
D03*
D51*
X798430Y900710D02*
D03*
Y905710D02*
D03*
Y910710D02*
D03*
Y915710D02*
D03*
Y920710D02*
D03*
Y925710D02*
D03*
Y930710D02*
D03*
Y935710D02*
D03*
X748430D02*
D03*
Y930710D02*
D03*
Y925710D02*
D03*
Y920710D02*
D03*
Y915710D02*
D03*
Y910710D02*
D03*
Y905710D02*
D03*
Y900710D02*
D03*
D52*
X773430Y918210D02*
D03*
D72*
X678180D02*
D03*
D101*
X1196701Y944880D02*
G03*
X1178740Y937440I0J-25400D01*
G01*
X1086365Y855586D02*
G03*
X1104326Y863026I0J25400D01*
G01*
X819643Y997296D02*
G03*
X820420Y995420I2652J0D01*
G01*
X930910Y855586D02*
G03*
X930282Y855846I-628J-628D01*
G01*
X1090930Y824230D02*
X1094740Y820420D01*
Y802640D02*
Y820420D01*
X999490Y824230D02*
X1090930D01*
X995680Y820420D02*
X999490Y824230D01*
X995680Y802640D02*
Y820420D01*
X505460Y1117600D02*
X536950D01*
X421640Y999490D02*
X441960D01*
X739140Y1020270D02*
X742140Y1017270D01*
X806450D01*
X819643Y1004077D01*
X739140Y1020270D02*
Y1021080D01*
X1196701Y944880D02*
X1334770D01*
X1104326Y863026D02*
X1178740Y937440D01*
X930910Y855586D02*
X1086365D01*
X979170Y965200D02*
Y975817D01*
X981513Y978160D01*
X1007110D01*
X892535Y952225D02*
X900459Y960149D01*
X964190Y947160D02*
X1007110D01*
X900459Y960149D02*
X951201D01*
X964190Y947160D01*
X892535Y943745D02*
Y952225D01*
X819643Y997296D02*
Y1004077D01*
X793750Y877570D02*
X838363Y832957D01*
X930720Y943680D02*
X930910Y943870D01*
X847020Y829310D02*
Y829957D01*
X844020Y832957D02*
X847020Y829957D01*
X838363Y832957D02*
X844020D01*
X1042670Y940560D02*
Y948560D01*
X1070413Y1111250D02*
X1080131D01*
X1068070Y1113593D02*
Y1141730D01*
X1080131Y1111250D02*
X1080401Y1110980D01*
X1068070Y1113593D02*
X1070413Y1111250D01*
X747380Y1125000D02*
Y1137300D01*
X741680Y1143000D02*
X747380Y1137300D01*
X649290Y1143000D02*
X741680D01*
X630080Y1123790D02*
X649290Y1143000D01*
X630080Y1105226D02*
Y1123790D01*
X610870Y1143000D02*
X630080Y1123790D01*
X536950Y1138180D02*
X541770Y1143000D01*
X610870D01*
X536950Y1117600D02*
Y1138180D01*
X1071185Y1007128D02*
Y1021918D01*
X905785Y855846D02*
X930282D01*
X1232885Y1006918D02*
Y1020648D01*
X1223155Y997188D02*
X1232885Y1006918D01*
X1144665Y997188D02*
X1223155D01*
X1120185Y1021668D02*
X1144665Y997188D01*
X1115435Y1021668D02*
X1120185D01*
X1098921Y1127250D02*
X1113621D01*
X1092151Y1120480D02*
X1098921Y1127250D01*
X1080401Y1120480D02*
X1092151D01*
X1115435Y1028168D02*
X1133515D01*
X1115185Y1034918D02*
X1140735D01*
X1053255D02*
X1071185D01*
X1115185Y1028418D02*
X1115435Y1028168D01*
X464690Y871350D02*
X472440Y863600D01*
X463550Y822960D02*
X472440Y831850D01*
Y863600D01*
X457200Y840740D02*
Y855980D01*
X449830Y863350D02*
X457200Y855980D01*
X437795Y863350D02*
X449830D01*
X437795Y927350D02*
X452317D01*
X454660Y929693D01*
Y955040D01*
X471170Y928370D02*
Y975360D01*
X437795Y919350D02*
X462150D01*
X471170Y928370D01*
Y975360D02*
X487680Y991870D01*
X528060D01*
X458470D02*
X487680D01*
X414020Y947420D02*
X458470Y991870D01*
X414020Y840740D02*
Y947420D01*
Y840740D02*
X431800Y822960D01*
X463550D01*
X437795Y871350D02*
X464690D01*
X528060Y991870D02*
X530600Y994410D01*
X1133515Y1028168D02*
X1157955Y1003728D01*
X1193515D02*
X1199048Y1009261D01*
X1157955Y1003728D02*
X1193515D01*
X1199048Y1009261D02*
Y1019831D01*
X1201135Y1021918D01*
X527050Y1057910D02*
X552450D01*
X555498Y1060958D01*
X511810Y1073150D02*
X527050Y1057910D01*
X555498Y1060958D02*
Y1071626D01*
X497600Y1073150D02*
X511810D01*
X536826Y1071750D02*
Y1117476D01*
X536950Y1117600D01*
X536702Y1071626D02*
X536826Y1071750D01*
X546100Y1071626D02*
Y1085850D01*
X552450Y1092200D01*
X565150D01*
X1094331Y1097250D02*
X1113621D01*
X1090101Y1101480D02*
X1094331Y1097250D01*
X1080401Y1101480D02*
X1090101D01*
X1024605Y1096750D02*
X1039701D01*
X1044431Y1101480D01*
X1055401D01*
X991585Y1006268D02*
X996665Y1001188D01*
X1032225D01*
X1059455Y1028418D01*
X1071185D01*
X1024605Y1051918D02*
X1047535D01*
X1058035Y1041418D02*
X1071185D01*
X1047535Y1051918D02*
X1058035Y1041418D01*
X1024605Y1021918D02*
X1040255D01*
X1053255Y1034918D01*
X991585Y1006268D02*
Y1021918D01*
X1140735Y1034918D02*
X1153735Y1021918D01*
X1168115D01*
X1141375Y1051918D02*
X1151605D01*
X1115185Y1021918D02*
X1115435Y1021668D01*
X1130875Y1041418D02*
X1141375Y1051918D01*
X1232885Y1020648D02*
X1234155Y1021918D01*
X1115185Y1041418D02*
X1130875D01*
X791407Y849143D02*
X799317D01*
X821950Y826510D01*
Y800100D02*
Y826510D01*
X790660Y849890D02*
X791407Y849143D01*
X765810Y820420D02*
X771623Y826233D01*
X746760Y820420D02*
X765810D01*
X739097Y812757D02*
X746760Y820420D01*
X738880Y800100D02*
X739097Y800317D01*
Y812757D01*
X771623Y826233D02*
Y833853D01*
X772160Y834390D01*
X785660Y836890D02*
X788160D01*
X790660Y834390D01*
X772160Y849890D02*
X772660D01*
X785660Y836890D01*
D102*
X928983Y651280D02*
X931110Y649153D01*
X929427Y716723D02*
Y745276D01*
X928983Y716280D02*
X929427Y716723D01*
X973983Y651280D02*
X975721Y653017D01*
Y658660D01*
X929427Y651280D02*
Y715837D01*
X928983Y651280D02*
X929427D01*
X928983Y716280D02*
X929427Y715837D01*
X984230Y667169D02*
X1003540D01*
X975721Y658660D02*
X984230Y667169D01*
X940280Y756130D02*
Y756329D01*
X929427Y745276D02*
X940280Y756130D01*
X1003031Y697661D02*
X1003540Y698169D01*
X989321Y697661D02*
X1003031D01*
X943671Y652010D02*
X989321Y697661D01*
X933967Y652010D02*
X943671D01*
X931110Y649153D02*
X933967Y652010D01*
X788950Y795020D02*
X790950Y797020D01*
Y800100D01*
X783590Y795020D02*
X788950D01*
X783590Y777240D02*
Y795020D01*
X810260Y777240D02*
X852465D01*
X784860Y751840D02*
X810260Y777240D01*
X762000Y774700D02*
X784860Y751840D01*
Y685800D02*
Y751840D01*
X694690Y774700D02*
X762000D01*
X675640Y1023620D02*
X706140D01*
X660400D02*
X675640D01*
Y1045210D01*
X596900Y944880D02*
Y960120D01*
X660400Y1023620D01*
X828160Y1066800D02*
X853680D01*
X828160D02*
Y1097515D01*
Y1044060D02*
Y1066800D01*
X802400D02*
X828160D01*
X711655Y1040260D02*
X820960D01*
X820420Y1026420D02*
Y1040260D01*
X820420Y1040260D02*
X820420Y1040260D01*
Y1026420D02*
X821690Y1027690D01*
X708140Y1021620D02*
Y1036745D01*
X820960Y1040860D02*
X824960D01*
X708140Y1036745D02*
X711655Y1040260D01*
X825384Y1041284D02*
X828160Y1044060D01*
X781050Y1093880D02*
X781170Y1094000D01*
X855980Y756329D02*
Y773725D01*
X1325077Y962193D02*
X1346180D01*
X1007110Y892290D02*
X1028700D01*
X970155Y757464D02*
X972094D01*
X685828Y800340D02*
Y835922D01*
X705486Y663061D02*
X747755D01*
X680599D02*
X705486D01*
X905910Y943680D02*
X930720D01*
X905785Y943555D02*
X905910Y943680D01*
X905785Y943490D02*
Y943555D01*
X892410Y943870D02*
X892535Y943745D01*
Y943490D02*
Y943745D01*
X866140Y943870D02*
X892410D01*
X879832Y970002D02*
X896880D01*
X866140Y956310D02*
X879832Y970002D01*
X866140Y943870D02*
Y956310D01*
X896880Y970002D02*
Y988060D01*
X1151605Y1051918D02*
X1167915D01*
X969346Y757464D02*
X970155D01*
Y771015D01*
Y756454D02*
Y757464D01*
X895069Y1025879D02*
X911860Y1042670D01*
X890010Y1027690D02*
X891634Y1026066D01*
X893445Y1024255D02*
X896620Y1021080D01*
X911860Y1042670D02*
X913130D01*
X896620Y988320D02*
Y1021080D01*
Y988320D02*
X896880Y988060D01*
X821690Y1027690D02*
X890010D01*
X520700Y829310D02*
X553720D01*
X554990Y830580D01*
X481330Y789940D02*
X520700Y829310D01*
X995680Y781050D02*
Y802640D01*
X972094Y757464D02*
X995680Y781050D01*
X860370Y651566D02*
Y662385D01*
X860084Y651280D02*
X860370Y651566D01*
X863885Y665900D02*
X885873D01*
X860370Y662385D02*
X863885Y665900D01*
X885873D02*
X887143Y667169D01*
X869180Y696899D02*
X885873D01*
X887143Y698169D01*
X827226Y654946D02*
X869180Y696899D01*
X818750Y654946D02*
X827226D01*
X815084Y651280D02*
X818750Y654946D01*
X706140Y1023620D02*
X708140Y1021620D01*
Y1021080D02*
Y1021620D01*
X1120140Y1061720D02*
X1121410Y1062990D01*
X1156843D01*
X963760Y1094570D02*
X963930Y1094740D01*
X941360Y1094570D02*
X963760D01*
X941190Y1094400D02*
X941360Y1094570D01*
X1156843Y1062990D02*
X1167915Y1051918D01*
X1168115D01*
Y1092628D01*
X878020Y800100D02*
Y829310D01*
X847020Y800100D02*
Y829310D01*
X875030Y777240D02*
X878545Y780755D01*
Y799575D01*
X878020Y800100D02*
X878545Y799575D01*
X705486Y663061D02*
Y663301D01*
X852465Y777240D02*
X875030D01*
X874439Y756329D02*
X895350Y777240D01*
X855980Y756329D02*
X874439D01*
X895350Y777240D02*
X963930D01*
X970155Y756454D02*
X970280Y756329D01*
X963930Y777240D02*
X970155Y771015D01*
X536702Y980948D02*
Y1020785D01*
Y980948D02*
X575310Y942340D01*
X574980Y910260D02*
X575310Y910590D01*
X557100Y909930D02*
X557430Y910260D01*
X574980D01*
X536702Y1020785D02*
Y1044194D01*
X540217Y1017270D02*
X622300D01*
X536702Y1020785D02*
X540217Y1017270D01*
X622300D02*
X629019Y1023989D01*
Y1037052D01*
X685588Y783802D02*
X694690Y774700D01*
X685588Y783802D02*
Y800100D01*
X852465Y777240D02*
X855980Y773725D01*
X768121Y669061D02*
X784860Y685800D01*
X753755Y669061D02*
X768121D01*
X747755Y663061D02*
X753755Y669061D01*
X669290Y674370D02*
X680599Y663061D01*
X642620Y674370D02*
X669290D01*
X648619Y680369D02*
Y691051D01*
X642620Y674370D02*
X648619Y680369D01*
X609600Y674370D02*
X642620D01*
X614680Y679450D02*
Y690734D01*
X614997Y691051D01*
X609600Y674370D02*
X614680Y679450D01*
X565150Y674370D02*
X609600D01*
X549201Y669301D02*
X560081D01*
X565150Y674370D01*
X543201Y663301D02*
X549201Y669301D01*
X508441Y663301D02*
X543201D01*
X543201Y663301D01*
X481330Y666750D02*
X484779Y663301D01*
X508441D01*
X481330Y666750D02*
Y789940D01*
X971550Y1052418D02*
X978858D01*
X957295D02*
X971550D01*
X979170D02*
X991085D01*
X629549Y1104695D02*
X630080Y1105226D01*
X629549Y1050283D02*
Y1104695D01*
X629019Y1049752D02*
X629549Y1050283D01*
X828160Y1097515D02*
Y1105500D01*
X714185Y1124275D02*
X715130Y1123330D01*
X691825Y1124275D02*
X714185D01*
X690880Y1125220D02*
X691825Y1124275D01*
X819980Y750329D02*
X825980Y756329D01*
X815084Y743133D02*
X819980Y748029D01*
Y750329D01*
X815084Y716280D02*
Y743133D01*
Y651280D02*
Y716280D01*
X467500Y1040130D02*
Y1073050D01*
X467600Y1073150D01*
X567950Y1117600D02*
X586740D01*
Y1069100D02*
Y1092200D01*
X561600Y994410D02*
X581660D01*
X651510Y897890D02*
X652792Y899172D01*
Y910322D01*
X660680Y918210D01*
X678180D01*
X1233145Y1052928D02*
Y1086211D01*
Y1052928D02*
X1234155Y1051918D01*
X991085Y1052418D02*
X991585Y1051918D01*
X1024605D01*
Y1096750D01*
X1147339Y1097448D02*
X1163295D01*
X1146641Y1096750D02*
X1147339Y1097448D01*
X1163295D02*
X1168115Y1092628D01*
X1114121Y1096750D02*
X1146641D01*
X1113621Y1097250D02*
X1114121Y1096750D01*
X1168115Y1051918D02*
X1201135D01*
X1234155D01*
X843260Y1125000D02*
X875150D01*
X909540Y1124600D02*
X941190D01*
X909440Y1124500D02*
X909540Y1124600D01*
X843160Y1124900D02*
X843260Y1125000D01*
X843160Y1123310D02*
Y1124900D01*
X715130Y1093130D02*
X745510D01*
X746880Y1094500D01*
X828160Y1097515D02*
X831675Y1094000D01*
X875150D01*
X908940D01*
X909440Y1094500D01*
X747380Y1125000D02*
X781170D01*
X782015Y1124155D01*
X813160Y1123310D02*
Y1124055D01*
X813060Y1124155D02*
X813160Y1124055D01*
X782015Y1124155D02*
X813060D01*
X772160Y849890D02*
Y863600D01*
D103*
X535100Y882220D02*
X554990Y862330D01*
X601980D01*
X539750Y924560D02*
X585470D01*
X628650Y881380D01*
X535100Y882220D02*
Y890930D01*
Y919910D02*
X539750Y924560D01*
X535100Y909930D02*
Y919910D01*
D104*
X1145540Y802640D02*
D03*
X1120140D02*
D03*
X1094740D02*
D03*
X944880D02*
D03*
X970280D02*
D03*
X995680D02*
D03*
D105*
X1069340D02*
D03*
X1021080D02*
D03*
D106*
X973983Y716280D02*
D03*
Y651280D02*
D03*
X928983Y716280D02*
D03*
X815084D02*
D03*
X860084Y651280D02*
D03*
Y716280D02*
D03*
D107*
X928983Y651280D02*
D03*
X815084D02*
D03*
D108*
X650080Y1105226D02*
D03*
D109*
X630080D02*
D03*
D110*
X432045Y852150D02*
D03*
Y938550D02*
D03*
D111*
X427045Y924250D02*
D03*
Y866450D02*
D03*
D112*
X390245Y938550D02*
D03*
Y852150D02*
D03*
D113*
X629019Y1049752D02*
D03*
X1080000Y720000D02*
D03*
X1280000Y1120000D02*
D03*
Y1040000D02*
D03*
Y880000D02*
D03*
X1300000Y680000D02*
D03*
X1240000Y1120000D02*
D03*
Y880000D02*
D03*
X1260000Y680000D02*
D03*
X1240000Y640000D02*
D03*
X1220000Y920000D02*
D03*
Y680000D02*
D03*
X1200000Y640000D02*
D03*
X1160000Y880000D02*
D03*
Y640000D02*
D03*
X1140000Y760000D02*
D03*
X1120000Y720000D02*
D03*
X1140000Y680000D02*
D03*
X1120000Y640000D02*
D03*
X1080000Y880000D02*
D03*
X1100000Y680000D02*
D03*
X1080000Y640000D02*
D03*
X1040000Y720000D02*
D03*
X1060000Y680000D02*
D03*
X1040000Y640000D02*
D03*
X1020000Y760000D02*
D03*
X980000Y920000D02*
D03*
X760000Y640000D02*
D03*
X720000D02*
D03*
X700000Y1080000D02*
D03*
X680000Y640000D02*
D03*
X520000D02*
D03*
X480000Y1120000D02*
D03*
X440000Y1040000D02*
D03*
Y800000D02*
D03*
X460000Y760000D02*
D03*
Y680000D02*
D03*
X400000Y880000D02*
D03*
X420000Y760000D02*
D03*
X772160Y863600D02*
D03*
D114*
X629019Y1037052D02*
D03*
D115*
X1078230Y698500D02*
D03*
D116*
X1154430D02*
D03*
D117*
X807720Y798830D02*
D03*
X1308100Y963930D02*
D03*
X712470Y919480D02*
D03*
Y885190D02*
D03*
X698500Y900430D02*
D03*
X712470Y932180D02*
D03*
D118*
X511810Y924560D02*
D03*
X916940Y989330D02*
D03*
X730250Y1066800D02*
D03*
X1219200Y896620D02*
D03*
X1205230Y1121410D02*
D03*
X1177290Y1117600D02*
D03*
X1231900Y974090D02*
D03*
X1202690D02*
D03*
X1281430Y1068070D02*
D03*
X648970Y844550D02*
D03*
X478790Y811530D02*
D03*
X565150Y726440D02*
D03*
X906780Y900430D02*
D03*
X889000D02*
D03*
X783590Y928370D02*
D03*
X1289050Y1026160D02*
D03*
Y999490D02*
D03*
X589280Y834390D02*
D03*
X547370Y848360D02*
D03*
X492760Y829310D02*
D03*
X565150Y876300D02*
D03*
X848360Y988060D02*
D03*
X783590Y777240D02*
D03*
X736600Y848360D02*
D03*
Y833120D02*
D03*
X754380Y755650D02*
D03*
X725170Y756920D02*
D03*
X697230D02*
D03*
X632460Y797560D02*
D03*
X979170Y965200D02*
D03*
X1028700Y892810D02*
D03*
X836930Y961390D02*
D03*
X819150D02*
D03*
X554990Y830580D02*
D03*
X778510Y977900D02*
D03*
X739140Y961390D02*
D03*
X801370Y872490D02*
D03*
X1120140Y1061720D02*
D03*
X963930Y1094740D02*
D03*
X913130Y1042670D02*
D03*
X575310Y942340D02*
D03*
Y910590D02*
D03*
X596900Y944880D02*
D03*
X1068070Y1141730D02*
D03*
X1115060Y967740D02*
D03*
X1116330Y986790D02*
D03*
X1071185Y1007128D02*
D03*
X782320Y1004570D02*
D03*
X690880Y1125220D02*
D03*
X457200Y840740D02*
D03*
X454660Y955040D02*
D03*
X586740Y1117600D02*
D03*
Y1092200D02*
D03*
X581660Y994410D02*
D03*
X565150Y1092200D02*
D03*
X614784Y802011D02*
D03*
X630024Y819791D02*
D03*
X651510Y897890D02*
D03*
M02*
