G04*
G04 #@! TF.GenerationSoftware,Altium Limited,Altium Designer,23.2.1 (34)*
G04*
G04 Layer_Color=16711935*
%FSLAX44Y44*%
%MOMM*%
G71*
G04*
G04 #@! TF.SameCoordinates,8496A63A-E985-4FE9-BA7E-BC2AAF8C8172*
G04*
G04*
G04 #@! TF.FilePolarity,Positive*
G04*
G01*
G75*
%ADD10C,0.2000*%
%ADD13C,0.1524*%
%ADD15C,0.1000*%
%ADD16C,0.1270*%
%ADD119C,0.1750*%
%ADD120C,0.1500*%
D10*
X912443Y651280D02*
G03*
X912443Y651280I-1000J0D01*
G01*
X798544D02*
G03*
X798544Y651280I-1000J0D01*
G01*
X578984Y757801D02*
Y787801D01*
X548984Y757801D02*
X578984D01*
X548984D02*
Y787801D01*
X578984D01*
X384020Y947850D02*
X446520D01*
Y842850D02*
Y947850D01*
X361520Y842850D02*
X446520D01*
X361520D02*
Y947850D01*
X384020D01*
X1038170Y904560D02*
X1071170D01*
X1038170D02*
Y960560D01*
X1071170D01*
Y904560D02*
Y960560D01*
D13*
X561594Y1060958D02*
G03*
X561594Y1054862I0J-3048D01*
G01*
X558038Y1041908D02*
Y1049020D01*
X552958Y1041908D02*
X558038D01*
X552958D02*
Y1049020D01*
X558038D01*
X561594D01*
X539242Y1041908D02*
Y1049020D01*
X534162Y1041908D02*
X539242D01*
X534162D02*
Y1049020D01*
Y1066800D02*
Y1073912D01*
X539242D01*
Y1066800D02*
Y1073912D01*
X534162Y1066800D02*
X539242D01*
X530606D02*
X534162D01*
X543560D02*
Y1073912D01*
X548640D01*
Y1066800D02*
Y1073912D01*
X552958Y1066800D02*
Y1073912D01*
X558038D01*
Y1066800D02*
Y1073912D01*
X539242Y1066800D02*
X543560D01*
X548640D01*
X552958D01*
X558038D01*
X561594D01*
Y1060958D02*
Y1066800D01*
Y1054862D02*
Y1060958D01*
Y1049020D02*
Y1054862D01*
X539242Y1049020D02*
X552958D01*
X534162D02*
X539242D01*
X530606D02*
X534162D01*
X530606D02*
Y1066800D01*
D15*
X1184830Y698500D02*
G03*
X1184830Y698500I-68500J0D01*
G01*
X1056640Y815340D02*
X1158240D01*
X1056640Y789940D02*
X1158240D01*
X1056640D02*
Y815340D01*
X1158240Y789940D02*
Y815340D01*
X610578Y1091723D02*
Y1167723D01*
X669578D01*
X669581Y1091723D02*
Y1167726D01*
X659583Y1091723D02*
X669578D01*
X659581Y1091725D02*
X659583Y1091723D01*
X659581Y1091725D02*
Y1107725D01*
X610580Y1091725D02*
X620580D01*
Y1107725D01*
X659581D01*
X1078185Y1046668D02*
X1108185D01*
Y1016668D02*
Y1046668D01*
X1078185Y1016668D02*
X1108185D01*
X1078185D02*
Y1046668D01*
Y1040168D02*
X1084685Y1046668D01*
X932180Y789940D02*
X1033780D01*
X932180Y815340D02*
X1033780D01*
Y789940D02*
Y815340D01*
X932180Y789940D02*
Y815340D01*
X636037Y757801D02*
Y787801D01*
Y757801D02*
X666038D01*
Y787801D01*
X636037D02*
X666038D01*
X1066401Y1096230D02*
X1075901Y1105730D01*
Y1096230D02*
Y1125730D01*
X1059901D02*
X1075901D01*
X1059901Y1096230D02*
Y1125730D01*
Y1096230D02*
X1075901D01*
X768910Y832140D02*
X793910D01*
X768910D02*
Y852140D01*
X793910D01*
Y832140D02*
Y852140D01*
X553100Y885230D02*
Y915630D01*
X539100Y885230D02*
Y915630D01*
Y885230D02*
X553100D01*
X539100Y915630D02*
X553100D01*
X748430Y893210D02*
X798430D01*
X748430D02*
Y943210D01*
X798430D01*
Y893210D02*
Y943210D01*
X793430Y893210D02*
X798430Y898210D01*
D16*
X921483Y653780D02*
X981483D01*
Y713780D01*
X921483D02*
X981483D01*
X921483Y653780D02*
Y713780D01*
X807584Y653780D02*
Y713780D01*
X867584D01*
Y653780D02*
Y713780D01*
X807584Y653780D02*
X867584D01*
X466100Y1031630D02*
Y1048630D01*
X499100D01*
Y1031630D02*
Y1048630D01*
X466100Y1031630D02*
X499100D01*
X932690Y1093000D02*
X949690D01*
X932690D02*
Y1126000D01*
X949690D01*
Y1093000D02*
Y1126000D01*
X706630Y1124730D02*
X723630D01*
Y1091730D02*
Y1124730D01*
X706630Y1091730D02*
X723630D01*
X706630D02*
Y1124730D01*
D119*
X841680Y1054800D02*
Y1078800D01*
X895680D01*
Y1054800D02*
Y1078800D01*
X841680Y1054800D02*
X895680D01*
X814400D02*
Y1078800D01*
X760400Y1054800D02*
X814400D01*
X760400D02*
Y1078800D01*
X814400D01*
X838270Y787350D02*
X886770D01*
Y812850D01*
X838270D02*
X886770D01*
X838270Y787350D02*
Y812850D01*
X699390Y1033830D02*
X747890D01*
X699390Y1008330D02*
Y1033830D01*
Y1008330D02*
X747890D01*
Y1033830D01*
X833170Y986670D02*
Y1035170D01*
X807670D02*
X833170D01*
X807670Y986670D02*
Y1035170D01*
Y986670D02*
X833170D01*
X857130Y975310D02*
X905630D01*
Y1000810D01*
X857130D02*
X905630D01*
X857130Y975310D02*
Y1000810D01*
X943660Y904120D02*
Y952620D01*
X918160D02*
X943660D01*
X918160Y904120D02*
Y952620D01*
Y904120D02*
X943660D01*
X838270Y816560D02*
X886770D01*
Y842060D01*
X838270D02*
X886770D01*
X838270Y816560D02*
Y842060D01*
X867980Y744329D02*
Y768329D01*
X813980Y744329D02*
X867980D01*
X813980D02*
Y768329D01*
X867980D01*
X982280Y744329D02*
Y768329D01*
X928280Y744329D02*
X982280D01*
X928280D02*
Y768329D01*
X982280D01*
X990790Y658419D02*
X1016290D01*
X990790D02*
Y706919D01*
X1016290D01*
Y658419D02*
Y706919D01*
X874393Y658419D02*
X899893D01*
X874393D02*
Y706919D01*
X899893D01*
Y658419D02*
Y706919D01*
X853390Y904120D02*
X878890D01*
X853390D02*
Y952620D01*
X878890D01*
Y904120D02*
Y952620D01*
X509600Y1061150D02*
Y1085150D01*
X455600Y1061150D02*
X509600D01*
X455600D02*
Y1085150D01*
X509600D01*
X576700Y1104850D02*
Y1130350D01*
X528200Y1104850D02*
X576700D01*
X528200D02*
Y1130350D01*
X576700D01*
X574740Y1081100D02*
X598740D01*
Y1027100D02*
Y1081100D01*
X574740Y1027100D02*
X598740D01*
X574740D02*
Y1081100D01*
X570350Y981660D02*
Y1007160D01*
X521850Y981660D02*
X570350D01*
X521850D02*
Y1007160D01*
X570350D01*
X725339Y823173D02*
Y848672D01*
X676839Y823173D02*
X725339D01*
X676839D02*
Y848672D01*
X725339D01*
X725338Y787350D02*
Y812850D01*
X676838Y787350D02*
X725338D01*
X676838D02*
Y812850D01*
X725338D01*
X944545Y1012668D02*
X970045D01*
X944545D02*
Y1061168D01*
X970045D01*
Y1012668D02*
Y1061168D01*
X994360Y883540D02*
X1019860D01*
X994360D02*
Y932040D01*
X1019860D01*
Y883540D02*
Y932040D01*
X994360Y986910D02*
X1019860D01*
Y938410D02*
Y986910D01*
X994360Y938410D02*
X1019860D01*
X994360D02*
Y986910D01*
X1193395Y1073461D02*
Y1098961D01*
X1241895D01*
Y1073461D02*
Y1098961D01*
X1193395Y1073461D02*
X1241895D01*
X735755Y651061D02*
X759755D01*
X735755D02*
Y705061D01*
X759755D01*
Y651061D02*
Y705061D01*
X693486Y651301D02*
X717486D01*
X693486D02*
Y705301D01*
X717486D01*
Y651301D02*
Y705301D01*
X496441Y705301D02*
X520441D01*
Y651301D02*
Y705301D01*
X496441Y651301D02*
X520441D01*
X496441D02*
Y705301D01*
X531201Y705301D02*
X555201D01*
Y651301D02*
Y705301D01*
X531201Y651301D02*
X555201D01*
X531201D02*
Y705301D01*
X635869Y651301D02*
X661369D01*
X635869D02*
Y699801D01*
X661369D01*
Y651301D02*
Y699801D01*
X568034D02*
X593534D01*
Y651301D02*
Y699801D01*
X568034Y651301D02*
X593534D01*
X568034D02*
Y699801D01*
X602247Y651301D02*
X627747D01*
X602247D02*
Y699801D01*
X627747D01*
Y651301D02*
Y699801D01*
X1011855Y1136500D02*
X1037355D01*
Y1088000D02*
Y1136500D01*
X1011855Y1088000D02*
X1037355D01*
X1011855D02*
Y1136500D01*
X1101621Y1085250D02*
X1125621D01*
X1101621D02*
Y1139250D01*
X1125621D01*
Y1085250D02*
Y1139250D01*
X1133891Y1136500D02*
X1159391D01*
Y1088000D02*
Y1136500D01*
X1133891Y1088000D02*
X1159391D01*
X1133891D02*
Y1136500D01*
X1156115Y1063918D02*
X1180115D01*
Y1009918D02*
Y1063918D01*
X1156115Y1009918D02*
X1180115D01*
X1156115D02*
Y1063918D01*
X1189135D02*
X1213135D01*
Y1009918D02*
Y1063918D01*
X1189135Y1009918D02*
X1213135D01*
X1189135D02*
Y1063918D01*
X1222155D02*
X1246155D01*
Y1009918D02*
Y1063918D01*
X1222155Y1009918D02*
X1246155D01*
X1222155D02*
Y1063918D01*
X1012605D02*
X1036605D01*
Y1009918D02*
Y1063918D01*
X1012605Y1009918D02*
X1036605D01*
X1012605D02*
Y1063918D01*
X979585D02*
X1003585D01*
Y1009918D02*
Y1063918D01*
X979585Y1009918D02*
X1003585D01*
X979585D02*
Y1063918D01*
X862400Y1133750D02*
X887900D01*
Y1085250D02*
Y1133750D01*
X862400Y1085250D02*
X887900D01*
X862400D02*
Y1133750D01*
X897440Y1136500D02*
X921440D01*
Y1082500D02*
Y1136500D01*
X897440Y1082500D02*
X921440D01*
X897440D02*
Y1136500D01*
X768420Y1085250D02*
X793920D01*
X768420D02*
Y1133750D01*
X793920D01*
Y1085250D02*
Y1133750D01*
X734880Y1082500D02*
X758880D01*
X734880D02*
Y1136500D01*
X758880D01*
Y1082500D02*
Y1136500D01*
X778630Y787350D02*
Y812850D01*
X730130Y787350D02*
X778630D01*
X730130D02*
Y812850D01*
X778630D01*
X782200Y787350D02*
Y812850D01*
X830700D01*
Y787350D02*
Y812850D01*
X782200Y787350D02*
X830700D01*
X853390Y895336D02*
X878890D01*
Y846836D02*
Y895336D01*
X853390Y846836D02*
X878890D01*
X853390D02*
Y895336D01*
X918160D02*
X943660D01*
Y846836D02*
Y895336D01*
X918160Y846836D02*
X943660D01*
X918160D02*
Y895336D01*
X535000Y934347D02*
Y958347D01*
X481000Y934347D02*
X535000D01*
X481000D02*
Y958347D01*
X535000D01*
X535000Y846520D02*
Y870520D01*
X481000Y846520D02*
X535000D01*
X481000D02*
Y870520D01*
X535000D01*
D120*
X860349Y1061802D02*
Y1071798D01*
X865348D01*
X867014Y1070132D01*
Y1066800D01*
X865348Y1065134D01*
X860349D01*
X863682D02*
X867014Y1061802D01*
X877011D02*
X870346D01*
X877011Y1068466D01*
Y1070132D01*
X875344Y1071798D01*
X872012D01*
X870346Y1070132D01*
X794064Y1071798D02*
Y1061802D01*
X789066D01*
X787400Y1063468D01*
Y1066800D01*
X789066Y1068466D01*
X794064D01*
X790732D02*
X787400Y1071798D01*
X784068D02*
X780735D01*
X782402D01*
Y1061802D01*
X784068Y1063468D01*
X860854Y803432D02*
X859188Y805098D01*
X855855D01*
X854189Y803432D01*
Y796768D01*
X855855Y795102D01*
X859188D01*
X860854Y796768D01*
X869184Y795102D02*
Y805098D01*
X864186Y800100D01*
X870851D01*
X725306Y1017748D02*
X726972Y1016082D01*
X730304D01*
X731971Y1017748D01*
Y1024412D01*
X730304Y1026078D01*
X726972D01*
X725306Y1024412D01*
X721974Y1017748D02*
X720308Y1016082D01*
X716975D01*
X715309Y1017748D01*
Y1019414D01*
X716975Y1021080D01*
X718642D01*
X716975D01*
X715309Y1022746D01*
Y1024412D01*
X716975Y1026078D01*
X720308D01*
X721974Y1024412D01*
X817088Y1009254D02*
X815422Y1007588D01*
Y1004256D01*
X817088Y1002589D01*
X823752D01*
X825418Y1004256D01*
Y1007588D01*
X823752Y1009254D01*
X825418Y1019251D02*
Y1012586D01*
X818754Y1019251D01*
X817088D01*
X815422Y1017585D01*
Y1014252D01*
X817088Y1012586D01*
X879714Y991392D02*
X878048Y993058D01*
X874715D01*
X873049Y991392D01*
Y984728D01*
X874715Y983062D01*
X878048D01*
X879714Y984728D01*
X883046Y993058D02*
X889711D01*
Y991392D01*
X883046Y984728D01*
Y983062D01*
X927578Y926704D02*
X925912Y925038D01*
Y921705D01*
X927578Y920039D01*
X934242D01*
X935908Y921705D01*
Y925038D01*
X934242Y926704D01*
X925912Y936701D02*
Y930036D01*
X930910D01*
X929244Y933368D01*
Y935034D01*
X930910Y936701D01*
X934242D01*
X935908Y935034D01*
Y931702D01*
X934242Y930036D01*
X862520Y832642D02*
X860854Y834308D01*
X857522D01*
X855855Y832642D01*
Y825978D01*
X857522Y824312D01*
X860854D01*
X862520Y825978D01*
X865852Y824312D02*
X869184D01*
X867518D01*
Y834308D01*
X865852Y832642D01*
X849311Y761328D02*
Y751331D01*
X844312D01*
X842646Y752997D01*
Y756329D01*
X844312Y757996D01*
X849311D01*
X845978D02*
X842646Y761328D01*
X839314Y759662D02*
X837648Y761328D01*
X834315D01*
X832649Y759662D01*
Y752997D01*
X834315Y751331D01*
X837648D01*
X839314Y752997D01*
Y754663D01*
X837648Y756329D01*
X832649D01*
X967776Y761328D02*
Y751331D01*
X962777D01*
X961111Y752997D01*
Y756329D01*
X962777Y757996D01*
X967776D01*
X964444D02*
X961111Y761328D01*
X957779D02*
X954447D01*
X956113D01*
Y751331D01*
X957779Y752997D01*
X949448D02*
X947782Y751331D01*
X944450D01*
X942784Y752997D01*
Y759662D01*
X944450Y761328D01*
X947782D01*
X949448Y759662D01*
Y752997D01*
X1000208Y676838D02*
X998541Y675172D01*
Y671840D01*
X1000208Y670173D01*
X1006872D01*
X1008538Y671840D01*
Y675172D01*
X1006872Y676838D01*
X1008538Y680170D02*
Y683503D01*
Y681836D01*
X998541D01*
X1000208Y680170D01*
X998541Y688501D02*
Y695165D01*
X1000208D01*
X1006872Y688501D01*
X1008538D01*
X883810Y676838D02*
X882144Y675172D01*
Y671840D01*
X883810Y670173D01*
X890475D01*
X892141Y671840D01*
Y675172D01*
X890475Y676838D01*
X892141Y680170D02*
Y683503D01*
Y681836D01*
X882144D01*
X883810Y680170D01*
X882144Y695165D02*
X883810Y691833D01*
X887143Y688501D01*
X890475D01*
X892141Y690167D01*
Y693499D01*
X890475Y695165D01*
X888809D01*
X887143Y693499D01*
Y688501D01*
X862808Y926704D02*
X861142Y925038D01*
Y921705D01*
X862808Y920039D01*
X869472D01*
X871138Y921705D01*
Y925038D01*
X869472Y926704D01*
X861142Y936701D02*
X862808Y933368D01*
X866140Y930036D01*
X869472D01*
X871138Y931702D01*
Y935034D01*
X869472Y936701D01*
X867806D01*
X866140Y935034D01*
Y930036D01*
X490931Y1078148D02*
Y1068152D01*
X485932D01*
X484266Y1069818D01*
Y1073150D01*
X485932Y1074816D01*
X490931D01*
X487598D02*
X484266Y1078148D01*
X474269Y1068152D02*
X477602Y1069818D01*
X480934Y1073150D01*
Y1076482D01*
X479268Y1078148D01*
X475936D01*
X474269Y1076482D01*
Y1074816D01*
X475936Y1073150D01*
X480934D01*
X558281Y1114268D02*
X559948Y1112602D01*
X563280D01*
X564946Y1114268D01*
Y1120932D01*
X563280Y1122598D01*
X559948D01*
X558281Y1120932D01*
X554949Y1122598D02*
X551617D01*
X553283D01*
Y1112602D01*
X554949Y1114268D01*
X546618D02*
X544952Y1112602D01*
X541620D01*
X539954Y1114268D01*
Y1120932D01*
X541620Y1122598D01*
X544952D01*
X546618Y1120932D01*
Y1114268D01*
X581742Y1062431D02*
X591738D01*
Y1057432D01*
X590072Y1055766D01*
X586740D01*
X585074Y1057432D01*
Y1062431D01*
Y1059098D02*
X581742Y1055766D01*
X591738Y1045769D02*
Y1052434D01*
X586740D01*
X588406Y1049102D01*
Y1047435D01*
X586740Y1045769D01*
X583408D01*
X581742Y1047435D01*
Y1050768D01*
X583408Y1052434D01*
X550265Y991078D02*
X551931Y989412D01*
X555264D01*
X556930Y991078D01*
Y997742D01*
X555264Y999408D01*
X551931D01*
X550265Y997742D01*
X546933Y999408D02*
X543601D01*
X545267D01*
Y989412D01*
X546933Y991078D01*
X538602Y999408D02*
X535270D01*
X536936D01*
Y989412D01*
X538602Y991078D01*
X707753Y832590D02*
X709419Y830924D01*
X712751D01*
X714417Y832590D01*
Y839255D01*
X712751Y840921D01*
X709419D01*
X707753Y839255D01*
X697756Y840921D02*
X704421D01*
X697756Y834256D01*
Y832590D01*
X699422Y830924D01*
X702755D01*
X704421Y832590D01*
X687759Y830924D02*
X691092Y832590D01*
X694424Y835922D01*
Y839255D01*
X692758Y840921D01*
X689426D01*
X687759Y839255D01*
Y837589D01*
X689426Y835922D01*
X694424D01*
X707753Y796768D02*
X709419Y795102D01*
X712751D01*
X714417Y796768D01*
Y803432D01*
X712751Y805098D01*
X709419D01*
X707753Y803432D01*
X697756Y805098D02*
X704421D01*
X697756Y798434D01*
Y796768D01*
X699422Y795102D01*
X702755D01*
X704421Y796768D01*
X687759Y795102D02*
X694424D01*
Y800100D01*
X691092Y798434D01*
X689425D01*
X687759Y800100D01*
Y803432D01*
X689425Y805098D01*
X692758D01*
X694424Y803432D01*
X953963Y1031087D02*
X952297Y1029420D01*
Y1026088D01*
X953963Y1024422D01*
X960627D01*
X962293Y1026088D01*
Y1029420D01*
X960627Y1031087D01*
X962293Y1034419D02*
Y1037751D01*
Y1036085D01*
X952297D01*
X953963Y1034419D01*
Y1042750D02*
X952297Y1044416D01*
Y1047748D01*
X953963Y1049414D01*
X955629D01*
X957295Y1047748D01*
X958961Y1049414D01*
X960627D01*
X962293Y1047748D01*
Y1044416D01*
X960627Y1042750D01*
X958961D01*
X957295Y1044416D01*
X955629Y1042750D01*
X953963D01*
X957295Y1044416D02*
Y1047748D01*
X1003778Y901125D02*
X1002112Y899459D01*
Y896127D01*
X1003778Y894461D01*
X1010442D01*
X1012108Y896127D01*
Y899459D01*
X1010442Y901125D01*
X1012108Y911122D02*
Y904458D01*
X1005444Y911122D01*
X1003778D01*
X1002112Y909456D01*
Y906124D01*
X1003778Y904458D01*
Y914454D02*
X1002112Y916121D01*
Y919453D01*
X1003778Y921119D01*
X1010442D01*
X1012108Y919453D01*
Y916121D01*
X1010442Y914454D01*
X1003778D01*
X1010442Y967658D02*
X1012108Y969324D01*
Y972657D01*
X1010442Y974323D01*
X1003778D01*
X1002112Y972657D01*
Y969324D01*
X1003778Y967658D01*
X1002112Y957662D02*
Y964326D01*
X1008776Y957662D01*
X1010442D01*
X1012108Y959328D01*
Y962660D01*
X1010442Y964326D01*
X1002112Y954329D02*
Y950997D01*
Y952663D01*
X1012108D01*
X1010442Y954329D01*
X1211814Y1089543D02*
X1210147Y1091209D01*
X1206815D01*
X1205149Y1089543D01*
Y1082879D01*
X1206815Y1081213D01*
X1210147D01*
X1211814Y1082879D01*
X1215146Y1081213D02*
X1218478D01*
X1216812D01*
Y1091209D01*
X1215146Y1089543D01*
X1223476Y1082879D02*
X1225143Y1081213D01*
X1228475D01*
X1230141Y1082879D01*
Y1089543D01*
X1228475Y1091209D01*
X1225143D01*
X1223476Y1089543D01*
Y1087877D01*
X1225143Y1086211D01*
X1230141D01*
X752754Y665565D02*
X742757D01*
Y670563D01*
X744423Y672229D01*
X747755D01*
X749421Y670563D01*
Y665565D01*
Y668897D02*
X752754Y672229D01*
Y675561D02*
Y678894D01*
Y677227D01*
X742757D01*
X744423Y675561D01*
X751087Y683892D02*
X752754Y685558D01*
Y688890D01*
X751087Y690556D01*
X744423D01*
X742757Y688890D01*
Y685558D01*
X744423Y683892D01*
X746089D01*
X747755Y685558D01*
Y690556D01*
X710484Y664971D02*
X700487D01*
Y669970D01*
X702153Y671636D01*
X705486D01*
X707152Y669970D01*
Y664971D01*
Y668304D02*
X710484Y671636D01*
Y681633D02*
Y674968D01*
X703820Y681633D01*
X702153D01*
X700487Y679967D01*
Y676634D01*
X702153Y674968D01*
Y684965D02*
X700487Y686631D01*
Y689964D01*
X702153Y691630D01*
X708818D01*
X710484Y689964D01*
Y686631D01*
X708818Y684965D01*
X702153D01*
X503443Y690797D02*
X513440D01*
Y685798D01*
X511774Y684132D01*
X508441D01*
X506775Y685798D01*
Y690797D01*
Y687464D02*
X503443Y684132D01*
Y680800D02*
Y677467D01*
Y679134D01*
X513440D01*
X511774Y680800D01*
X513440Y672469D02*
Y665805D01*
X511774D01*
X505109Y672469D01*
X503443D01*
X538202Y690797D02*
X548199D01*
Y685798D01*
X546533Y684132D01*
X543201D01*
X541535Y685798D01*
Y690797D01*
Y687464D02*
X538202Y684132D01*
Y680800D02*
Y677467D01*
Y679134D01*
X548199D01*
X546533Y680800D01*
Y672469D02*
X548199Y670803D01*
Y667471D01*
X546533Y665805D01*
X544867D01*
X543201Y667471D01*
X541535Y665805D01*
X539869D01*
X538202Y667471D01*
Y670803D01*
X539869Y672469D01*
X541535D01*
X543201Y670803D01*
X544867Y672469D01*
X546533D01*
X543201Y670803D02*
Y667471D01*
X645286Y668886D02*
X643620Y667220D01*
Y663888D01*
X645286Y662222D01*
X651951D01*
X653617Y663888D01*
Y667220D01*
X651951Y668886D01*
X653617Y678883D02*
Y672218D01*
X646953Y678883D01*
X645286D01*
X643620Y677217D01*
Y673885D01*
X645286Y672218D01*
Y682215D02*
X643620Y683881D01*
Y687214D01*
X645286Y688880D01*
X646953D01*
X648619Y687214D01*
X650285Y688880D01*
X651951D01*
X653617Y687214D01*
Y683881D01*
X651951Y682215D01*
X650285D01*
X648619Y683881D01*
X646953Y682215D01*
X645286D01*
X648619Y683881D02*
Y687214D01*
X584116Y682215D02*
X585782Y683881D01*
Y687213D01*
X584116Y688880D01*
X577451D01*
X575785Y687213D01*
Y683881D01*
X577451Y682215D01*
X575785Y672218D02*
Y678883D01*
X582450Y672218D01*
X584116D01*
X585782Y673884D01*
Y677217D01*
X584116Y678883D01*
X575785Y663888D02*
X585782D01*
X580784Y668886D01*
Y662222D01*
X611664Y668886D02*
X609998Y667220D01*
Y663888D01*
X611664Y662222D01*
X618329D01*
X619995Y663888D01*
Y667220D01*
X618329Y668886D01*
X619995Y678883D02*
Y672218D01*
X613330Y678883D01*
X611664D01*
X609998Y677217D01*
Y673885D01*
X611664Y672218D01*
X609998Y682215D02*
Y688880D01*
X611664D01*
X618329Y682215D01*
X619995D01*
X1027937Y1118915D02*
X1029603Y1120581D01*
Y1123913D01*
X1027937Y1125579D01*
X1021273D01*
X1019607Y1123913D01*
Y1120581D01*
X1021273Y1118915D01*
X1019607Y1108918D02*
Y1115582D01*
X1026271Y1108918D01*
X1027937D01*
X1029603Y1110584D01*
Y1113916D01*
X1027937Y1115582D01*
Y1105585D02*
X1029603Y1103919D01*
Y1100587D01*
X1027937Y1098921D01*
X1026271D01*
X1024605Y1100587D01*
Y1102253D01*
Y1100587D01*
X1022939Y1098921D01*
X1021273D01*
X1019607Y1100587D01*
Y1103919D01*
X1021273Y1105585D01*
X1118620Y1099754D02*
X1108623D01*
Y1104753D01*
X1110289Y1106419D01*
X1113621D01*
X1115287Y1104753D01*
Y1099754D01*
Y1103086D02*
X1118620Y1106419D01*
Y1109751D02*
Y1113083D01*
Y1111417D01*
X1108623D01*
X1110289Y1109751D01*
X1108623Y1124746D02*
X1110289Y1121414D01*
X1113621Y1118082D01*
X1116954D01*
X1118620Y1119748D01*
Y1123080D01*
X1116954Y1124746D01*
X1115287D01*
X1113621Y1123080D01*
Y1118082D01*
X1149974Y1118915D02*
X1151640Y1120581D01*
Y1123913D01*
X1149974Y1125579D01*
X1143309D01*
X1141643Y1123913D01*
Y1120581D01*
X1143309Y1118915D01*
X1141643Y1108918D02*
Y1115582D01*
X1148307Y1108918D01*
X1149974D01*
X1151640Y1110584D01*
Y1113916D01*
X1149974Y1115582D01*
X1141643Y1098921D02*
Y1105585D01*
X1148307Y1098921D01*
X1149974D01*
X1151640Y1100587D01*
Y1103919D01*
X1149974Y1105585D01*
X1163117Y1049414D02*
X1173113D01*
Y1044416D01*
X1171447Y1042749D01*
X1168115D01*
X1166449Y1044416D01*
Y1049414D01*
Y1046082D02*
X1163117Y1042749D01*
Y1039417D02*
Y1036085D01*
Y1037751D01*
X1173113D01*
X1171447Y1039417D01*
X1163117Y1026088D02*
X1173113D01*
X1168115Y1031087D01*
Y1024422D01*
X1196137Y1049414D02*
X1206133D01*
Y1044416D01*
X1204467Y1042749D01*
X1201135D01*
X1199469Y1044416D01*
Y1049414D01*
Y1046082D02*
X1196137Y1042749D01*
Y1039417D02*
Y1036085D01*
Y1037751D01*
X1206133D01*
X1204467Y1039417D01*
X1206133Y1024422D02*
Y1031087D01*
X1201135D01*
X1202801Y1027754D01*
Y1026088D01*
X1201135Y1024422D01*
X1197803D01*
X1196137Y1026088D01*
Y1029420D01*
X1197803Y1031087D01*
X1229157Y1049414D02*
X1239153D01*
Y1044416D01*
X1237487Y1042749D01*
X1234155D01*
X1232489Y1044416D01*
Y1049414D01*
Y1046082D02*
X1229157Y1042749D01*
Y1039417D02*
Y1036085D01*
Y1037751D01*
X1239153D01*
X1237487Y1039417D01*
Y1031087D02*
X1239153Y1029420D01*
Y1026088D01*
X1237487Y1024422D01*
X1235821D01*
X1234155Y1026088D01*
Y1027754D01*
Y1026088D01*
X1232489Y1024422D01*
X1230823D01*
X1229157Y1026088D01*
Y1029420D01*
X1230823Y1031087D01*
X1019607Y1049414D02*
X1029603D01*
Y1044416D01*
X1027937Y1042749D01*
X1024605D01*
X1022939Y1044416D01*
Y1049414D01*
Y1046082D02*
X1019607Y1042749D01*
Y1039417D02*
Y1036085D01*
Y1037751D01*
X1029603D01*
X1027937Y1039417D01*
X1019607Y1024422D02*
Y1031087D01*
X1026271Y1024422D01*
X1027937D01*
X1029603Y1026088D01*
Y1029420D01*
X1027937Y1031087D01*
X986587Y1047748D02*
X996583D01*
Y1042750D01*
X994917Y1041083D01*
X991585D01*
X989919Y1042750D01*
Y1047748D01*
Y1044416D02*
X986587Y1041083D01*
Y1037751D02*
Y1034419D01*
Y1036085D01*
X996583D01*
X994917Y1037751D01*
X986587Y1029420D02*
Y1026088D01*
Y1027754D01*
X996583D01*
X994917Y1029420D01*
X878482Y1115331D02*
X880148Y1116998D01*
Y1120330D01*
X878482Y1121996D01*
X871818D01*
X870152Y1120330D01*
Y1116998D01*
X871818Y1115331D01*
X870152Y1111999D02*
Y1108667D01*
Y1110333D01*
X880148D01*
X878482Y1111999D01*
X880148Y1097004D02*
Y1103669D01*
X875150D01*
X876816Y1100336D01*
Y1098670D01*
X875150Y1097004D01*
X871818D01*
X870152Y1098670D01*
Y1102002D01*
X871818Y1103669D01*
X904442Y1117831D02*
X914438D01*
Y1112832D01*
X912772Y1111166D01*
X909440D01*
X907774Y1112832D01*
Y1117831D01*
Y1114498D02*
X904442Y1111166D01*
X912772Y1107834D02*
X914438Y1106168D01*
Y1102835D01*
X912772Y1101169D01*
X911106D01*
X909440Y1102835D01*
X907774Y1101169D01*
X906108D01*
X904442Y1102835D01*
Y1106168D01*
X906108Y1107834D01*
X907774D01*
X909440Y1106168D01*
X911106Y1107834D01*
X912772D01*
X909440Y1106168D02*
Y1102835D01*
X777838Y1103669D02*
X776171Y1102002D01*
Y1098670D01*
X777838Y1097004D01*
X784502D01*
X786168Y1098670D01*
Y1102002D01*
X784502Y1103669D01*
X786168Y1107001D02*
Y1110333D01*
Y1108667D01*
X776171D01*
X777838Y1107001D01*
X786168Y1120330D02*
X776171D01*
X781170Y1115331D01*
Y1121996D01*
X751878Y1101169D02*
X741882D01*
Y1106168D01*
X743548Y1107834D01*
X746880D01*
X748546Y1106168D01*
Y1101169D01*
Y1104502D02*
X751878Y1107834D01*
X741882Y1111166D02*
Y1117831D01*
X743548D01*
X750212Y1111166D01*
X751878D01*
X760211Y796768D02*
X761878Y795102D01*
X765210D01*
X766876Y796768D01*
Y803432D01*
X765210Y805098D01*
X761878D01*
X760211Y803432D01*
X756879Y805098D02*
X753547D01*
X755213D01*
Y795102D01*
X756879Y796768D01*
X748549D02*
X746882Y795102D01*
X743550D01*
X741884Y796768D01*
Y798434D01*
X743550Y800100D01*
X745216D01*
X743550D01*
X741884Y801766D01*
Y803432D01*
X743550Y805098D01*
X746882D01*
X748549Y803432D01*
X800619Y803432D02*
X798952Y805098D01*
X795620D01*
X793954Y803432D01*
Y796768D01*
X795620Y795102D01*
X798952D01*
X800619Y796768D01*
X803951Y795102D02*
X807283D01*
X805617D01*
Y805098D01*
X803951Y803432D01*
X818946Y795102D02*
X812281D01*
X818946Y801766D01*
Y803432D01*
X817280Y805098D01*
X813948D01*
X812281Y803432D01*
X869472Y872752D02*
X871138Y874418D01*
Y877751D01*
X869472Y879417D01*
X862808D01*
X861142Y877751D01*
Y874418D01*
X862808Y872752D01*
X869472Y869420D02*
X871138Y867754D01*
Y864421D01*
X869472Y862755D01*
X867806D01*
X866140Y864421D01*
X864474Y862755D01*
X862808D01*
X861142Y864421D01*
Y867754D01*
X862808Y869420D01*
X864474D01*
X866140Y867754D01*
X867806Y869420D01*
X869472D01*
X866140Y867754D02*
Y864421D01*
X934242Y872752D02*
X935908Y874418D01*
Y877751D01*
X934242Y879417D01*
X927578D01*
X925912Y877751D01*
Y874418D01*
X927578Y872752D01*
Y869420D02*
X925912Y867754D01*
Y864421D01*
X927578Y862755D01*
X934242D01*
X935908Y864421D01*
Y867754D01*
X934242Y869420D01*
X932576D01*
X930910Y867754D01*
Y862755D01*
X516331Y951345D02*
Y941348D01*
X511332D01*
X509666Y943014D01*
Y946347D01*
X511332Y948013D01*
X516331D01*
X512998D02*
X509666Y951345D01*
X501335D02*
Y941348D01*
X506334Y946347D01*
X499669D01*
X516331Y863518D02*
Y853522D01*
X511332D01*
X509666Y855188D01*
Y858520D01*
X511332Y860186D01*
X516331D01*
X512998D02*
X509666Y863518D01*
X506334Y855188D02*
X504668Y853522D01*
X501335D01*
X499669Y855188D01*
Y856854D01*
X501335Y858520D01*
X503002D01*
X501335D01*
X499669Y860186D01*
Y861852D01*
X501335Y863518D01*
X504668D01*
X506334Y861852D01*
M02*
