G04*
G04 #@! TF.GenerationSoftware,Altium Limited,Altium Designer,23.4.1 (23)*
G04*
G04 Layer_Color=65535*
%FSLAX44Y44*%
%MOMM*%
G71*
G04*
G04 #@! TF.SameCoordinates,64D97932-1E9C-4803-83F2-7C732265FDC7*
G04*
G04*
G04 #@! TF.FilePolarity,Positive*
G04*
G01*
G75*
%ADD10C,0.2540*%
%ADD11C,0.2500*%
%ADD12C,0.4000*%
%ADD13C,0.2000*%
%ADD14C,0.1000*%
%ADD15C,0.1524*%
%ADD16C,0.1520*%
D10*
X181610Y105410D02*
G03*
X181610Y105410I-1270J0D01*
G01*
D11*
X153270Y344560D02*
G03*
X153270Y344560I-1250J0D01*
G01*
D12*
X133270Y355610D02*
G03*
X133270Y355610I-2000J0D01*
G01*
D13*
X267970Y216075D02*
G03*
X267970Y214475I0J-800D01*
G01*
D02*
G03*
X267970Y216075I0J800D01*
G01*
X199690Y343410D02*
Y375410D01*
X173690Y343410D02*
Y375410D01*
X139270Y347610D02*
Y396610D01*
X117270Y347610D02*
Y396610D01*
Y347610D02*
X139270D01*
X117270Y396610D02*
X139270D01*
X18300Y161060D02*
X70600D01*
Y291060D01*
X18300Y161060D02*
Y291060D01*
X70600D01*
X267500Y187720D02*
X279000D01*
X282500Y157970D02*
Y187470D01*
Y157970D02*
X289000D01*
Y187470D01*
X282500D02*
X289000D01*
X184360Y313950D02*
X198360D01*
X201860Y283450D02*
Y313450D01*
Y283450D02*
X224860D01*
Y313450D01*
X201860D02*
X224860D01*
X293130Y250030D02*
Y255030D01*
Y225030D02*
Y230030D01*
X263130Y250030D02*
Y255030D01*
Y225030D02*
Y230030D01*
X311750Y57232D02*
Y67228D01*
X316749D01*
X318415Y65562D01*
Y62230D01*
X316749Y60564D01*
X311750D01*
X315082D02*
X318415Y57232D01*
X321747D02*
X325079D01*
X323413D01*
Y67228D01*
X321747Y65562D01*
X330078Y57232D02*
X333410D01*
X331744D01*
Y67228D01*
X330078Y65562D01*
X251472Y265512D02*
Y272176D01*
X254804Y275508D01*
X258137Y272176D01*
Y265512D01*
Y270510D01*
X251472D01*
X268133Y272176D02*
X263135D01*
X261469Y270510D01*
Y267178D01*
X263135Y265512D01*
X268133D01*
X278130Y272176D02*
X273132D01*
X271465Y270510D01*
Y267178D01*
X273132Y265512D01*
X278130D01*
X281462D02*
Y272176D01*
X283128D01*
X284795Y270510D01*
Y265512D01*
Y270510D01*
X286461Y272176D01*
X288127Y270510D01*
Y265512D01*
X293125Y273842D02*
Y272176D01*
X291459D01*
X294791D01*
X293125D01*
Y267178D01*
X294791Y265512D01*
X299790Y272176D02*
Y265512D01*
Y268844D01*
X301456Y270510D01*
X303122Y272176D01*
X304788D01*
X100944Y224911D02*
X99278Y226577D01*
X95946D01*
X94279Y224911D01*
Y218247D01*
X95946Y216581D01*
X99278D01*
X100944Y218247D01*
X110941Y216581D02*
X104276D01*
X110941Y223245D01*
Y224911D01*
X109275Y226577D01*
X105942D01*
X104276Y224911D01*
X101204Y162082D02*
X99538Y163748D01*
X96206D01*
X94539Y162082D01*
Y155418D01*
X96206Y153752D01*
X99538D01*
X101204Y155418D01*
X104536Y162082D02*
X106202Y163748D01*
X109535D01*
X111201Y162082D01*
Y160416D01*
X109535Y158750D01*
X107868D01*
X109535D01*
X111201Y157084D01*
Y155418D01*
X109535Y153752D01*
X106202D01*
X104536Y155418D01*
X99934Y256062D02*
X98268Y257728D01*
X94936D01*
X93269Y256062D01*
Y249398D01*
X94936Y247732D01*
X98268D01*
X99934Y249398D01*
X109931Y257728D02*
X103266D01*
Y252730D01*
X106598Y254396D01*
X108265D01*
X109931Y252730D01*
Y249398D01*
X108265Y247732D01*
X104932D01*
X103266Y249398D01*
X101204Y194474D02*
X99538Y196140D01*
X96206D01*
X94539Y194474D01*
Y187810D01*
X96206Y186143D01*
X99538D01*
X101204Y187810D01*
X111201Y196140D02*
X107868Y194474D01*
X104536Y191142D01*
Y187810D01*
X106202Y186143D01*
X109535D01*
X111201Y187810D01*
Y189476D01*
X109535Y191142D01*
X104536D01*
X245984Y151922D02*
X244318Y153588D01*
X240986D01*
X239319Y151922D01*
Y145258D01*
X240986Y143592D01*
X244318D01*
X245984Y145258D01*
X249316Y153588D02*
X255981D01*
Y151922D01*
X249316Y145258D01*
Y143592D01*
X383144Y150579D02*
X381478Y152245D01*
X378145D01*
X376479Y150579D01*
Y143915D01*
X378145Y142248D01*
X381478D01*
X383144Y143915D01*
X386476Y150579D02*
X388142Y152245D01*
X391474D01*
X393141Y150579D01*
Y148913D01*
X391474Y147247D01*
X393141Y145581D01*
Y143915D01*
X391474Y142248D01*
X388142D01*
X386476Y143915D01*
Y145581D01*
X388142Y147247D01*
X386476Y148913D01*
Y150579D01*
X388142Y147247D02*
X391474D01*
X262494Y131602D02*
X260828Y133268D01*
X257495D01*
X255829Y131602D01*
Y124938D01*
X257495Y123272D01*
X260828D01*
X262494Y124938D01*
X265826D02*
X267492Y123272D01*
X270825D01*
X272491Y124938D01*
Y131602D01*
X270825Y133268D01*
X267492D01*
X265826Y131602D01*
Y129936D01*
X267492Y128270D01*
X272491D01*
X382789Y223042D02*
X381122Y224708D01*
X377790D01*
X376124Y223042D01*
Y216378D01*
X377790Y214712D01*
X381122D01*
X382789Y216378D01*
X386121Y214712D02*
X389453D01*
X387787D01*
Y224708D01*
X386121Y223042D01*
X394451D02*
X396118Y224708D01*
X399450D01*
X401116Y223042D01*
Y216378D01*
X399450Y214712D01*
X396118D01*
X394451Y216378D01*
Y223042D01*
X384195Y185692D02*
X382529Y187358D01*
X379196D01*
X377530Y185692D01*
Y179028D01*
X379196Y177362D01*
X382529D01*
X384195Y179028D01*
X387527Y177362D02*
X390859D01*
X389193D01*
Y187358D01*
X387527Y185692D01*
X395858Y177362D02*
X399190D01*
X397524D01*
Y187358D01*
X395858Y185692D01*
X130059Y55402D02*
X128392Y57068D01*
X125060D01*
X123394Y55402D01*
Y48738D01*
X125060Y47072D01*
X128392D01*
X130059Y48738D01*
X133391Y47072D02*
X136723D01*
X135057D01*
Y57068D01*
X133391Y55402D01*
X148386Y47072D02*
X141721D01*
X148386Y53736D01*
Y55402D01*
X146720Y57068D01*
X143387D01*
X141721Y55402D01*
X274839D02*
X273172Y57068D01*
X269840D01*
X268174Y55402D01*
Y48738D01*
X269840Y47072D01*
X273172D01*
X274839Y48738D01*
X278171Y47072D02*
X281503D01*
X279837D01*
Y57068D01*
X278171Y55402D01*
X286501D02*
X288167Y57068D01*
X291500D01*
X293166Y55402D01*
Y53736D01*
X291500Y52070D01*
X289834D01*
X291500D01*
X293166Y50404D01*
Y48738D01*
X291500Y47072D01*
X288167D01*
X286501Y48738D01*
X197887Y129458D02*
X196221Y131124D01*
X192889D01*
X191223Y129458D01*
Y122794D01*
X192889Y121128D01*
X196221D01*
X197887Y122794D01*
Y126126D01*
X194555D01*
X201219Y127792D02*
Y122794D01*
X202885Y121128D01*
X207884D01*
Y119462D01*
X206218Y117795D01*
X204552D01*
X207884Y121128D02*
Y127792D01*
X211216D02*
Y121128D01*
Y124460D01*
X212882Y126126D01*
X214548Y127792D01*
X216215D01*
X222879Y121128D02*
X226211D01*
X227877Y122794D01*
Y126126D01*
X226211Y127792D01*
X222879D01*
X221213Y126126D01*
Y122794D01*
X222879Y121128D01*
X202530Y330118D02*
X205863D01*
X204196D01*
Y320122D01*
X202530D01*
X205863D01*
X217525Y328452D02*
X215859Y330118D01*
X212527D01*
X210861Y328452D01*
Y321788D01*
X212527Y320122D01*
X215859D01*
X217525Y321788D01*
X220858Y320122D02*
X224190D01*
X222524D01*
Y330118D01*
X220858Y328452D01*
X274524Y151048D02*
X277856D01*
X276190D01*
Y141052D01*
X274524D01*
X277856D01*
X289519Y149382D02*
X287853Y151048D01*
X284521D01*
X282855Y149382D01*
Y142718D01*
X284521Y141052D01*
X287853D01*
X289519Y142718D01*
X299516Y141052D02*
X292851D01*
X299516Y147716D01*
Y149382D01*
X297850Y151048D01*
X294517D01*
X292851Y149382D01*
X93556Y281795D02*
Y291791D01*
X98554D01*
X100220Y290125D01*
Y286793D01*
X98554Y285127D01*
X93556D01*
X96888D02*
X100220Y281795D01*
X103553D02*
X106885D01*
X105219D01*
Y291791D01*
X103553Y290125D01*
X321869Y373462D02*
Y383458D01*
X326868D01*
X328534Y381792D01*
Y378460D01*
X326868Y376794D01*
X321869D01*
X325202D02*
X328534Y373462D01*
X331866Y381792D02*
X333532Y383458D01*
X336865D01*
X338531Y381792D01*
Y380126D01*
X336865Y378460D01*
X335198D01*
X336865D01*
X338531Y376794D01*
Y375128D01*
X336865Y373462D01*
X333532D01*
X331866Y375128D01*
X255829Y407752D02*
Y417748D01*
X260828D01*
X262494Y416082D01*
Y412750D01*
X260828Y411084D01*
X255829D01*
X259162D02*
X262494Y407752D01*
X270825D02*
Y417748D01*
X265826Y412750D01*
X272491D01*
X287579Y391242D02*
Y401238D01*
X292578D01*
X294244Y399572D01*
Y396240D01*
X292578Y394574D01*
X287579D01*
X290912D02*
X294244Y391242D01*
X304241Y401238D02*
X297576D01*
Y396240D01*
X300908Y397906D01*
X302575D01*
X304241Y396240D01*
Y392908D01*
X302575Y391242D01*
X299242D01*
X297576Y392908D01*
X240764Y174612D02*
Y184608D01*
X245763D01*
X247429Y182942D01*
Y179610D01*
X245763Y177944D01*
X240764D01*
X244096D02*
X247429Y174612D01*
X257425Y184608D02*
X254093Y182942D01*
X250761Y179610D01*
Y176278D01*
X252427Y174612D01*
X255759D01*
X257425Y176278D01*
Y177944D01*
X255759Y179610D01*
X250761D01*
X138989Y133432D02*
Y143428D01*
X143988D01*
X145654Y141762D01*
Y138430D01*
X143988Y136764D01*
X138989D01*
X142322D02*
X145654Y133432D01*
X148986Y143428D02*
X155651D01*
Y141762D01*
X148986Y135098D01*
Y133432D01*
X102159Y123272D02*
Y133268D01*
X107158D01*
X108824Y131602D01*
Y128270D01*
X107158Y126604D01*
X102159D01*
X105492D02*
X108824Y123272D01*
X112156Y131602D02*
X113822Y133268D01*
X117155D01*
X118821Y131602D01*
Y129936D01*
X117155Y128270D01*
X118821Y126604D01*
Y124938D01*
X117155Y123272D01*
X113822D01*
X112156Y124938D01*
Y126604D01*
X113822Y128270D01*
X112156Y129936D01*
Y131602D01*
X113822Y128270D02*
X117155D01*
X378809Y282856D02*
Y292853D01*
X383808D01*
X385474Y291186D01*
Y287854D01*
X383808Y286188D01*
X378809D01*
X382142D02*
X385474Y282856D01*
X388806Y284522D02*
X390472Y282856D01*
X393805D01*
X395471Y284522D01*
Y291186D01*
X393805Y292853D01*
X390472D01*
X388806Y291186D01*
Y289520D01*
X390472Y287854D01*
X395471D01*
X377184Y251425D02*
Y261421D01*
X382182D01*
X383849Y259755D01*
Y256423D01*
X382182Y254757D01*
X377184D01*
X380516D02*
X383849Y251425D01*
X387181D02*
X390513D01*
X388847D01*
Y261421D01*
X387181Y259755D01*
X395511D02*
X397178Y261421D01*
X400510D01*
X402176Y259755D01*
Y253091D01*
X400510Y251425D01*
X397178D01*
X395511Y253091D01*
Y259755D01*
D14*
X220740Y107750D02*
Y110250D01*
X218240D02*
X220740D01*
Y80250D02*
Y82750D01*
X218240Y80250D02*
X220740D01*
X190740D02*
X193240D01*
X190740D02*
Y82750D01*
Y110250D02*
X193240D01*
X190740Y107750D02*
Y110250D01*
D15*
X35450Y294160D02*
Y297546D01*
Y295853D01*
X25293D01*
X26986Y294160D01*
Y302624D02*
X25293Y304317D01*
Y307702D01*
X26986Y309395D01*
X33757D01*
X35450Y307702D01*
Y304317D01*
X33757Y302624D01*
X26986D01*
X60757Y294160D02*
X62450Y295853D01*
Y299238D01*
X60757Y300931D01*
X53986D01*
X52293Y299238D01*
Y295853D01*
X53986Y294160D01*
X55679D01*
X57372Y295853D01*
Y300931D01*
X62450Y153960D02*
Y157346D01*
Y155653D01*
X52293D01*
X53986Y153960D01*
X35450Y157731D02*
Y150960D01*
X28679Y157731D01*
X26986D01*
X25293Y156038D01*
Y152653D01*
X26986Y150960D01*
D16*
X90596Y311253D02*
Y321410D01*
X95674D01*
X97367Y319717D01*
Y316331D01*
X95674Y314639D01*
X90596D01*
X93982D02*
X97367Y311253D01*
X107524D02*
X100753D01*
X107524Y318024D01*
Y319717D01*
X105831Y321410D01*
X102446D01*
X100753Y319717D01*
X229242Y398566D02*
X227549Y400258D01*
X224163D01*
X222471Y398566D01*
Y391794D01*
X224163Y390102D01*
X227549D01*
X229242Y391794D01*
X232628Y390102D02*
X236013D01*
X234320D01*
Y400258D01*
X232628Y398566D01*
X155787Y412326D02*
X154094Y414018D01*
X150709D01*
X149016Y412326D01*
Y405554D01*
X150709Y403862D01*
X154094D01*
X155787Y405554D01*
X164251Y403862D02*
Y414018D01*
X159173Y408940D01*
X165944D01*
X40219Y304802D02*
Y314958D01*
X45297D01*
X46990Y313266D01*
Y309880D01*
X45297Y308187D01*
X40219D01*
X50376Y304802D02*
X53761D01*
X52068D01*
Y314958D01*
X50376Y313266D01*
X125309Y411478D02*
Y403014D01*
X127002Y401322D01*
X130387D01*
X132080Y403014D01*
Y411478D01*
X135466Y401322D02*
X138851D01*
X137158D01*
Y411478D01*
X135466Y409786D01*
X178649Y391358D02*
Y389666D01*
X182034Y386280D01*
X185420Y389666D01*
Y391358D01*
X182034Y386280D02*
Y381202D01*
X188806D02*
X192191D01*
X190498D01*
Y391358D01*
X188806Y389666D01*
M02*
