G04*
G04 #@! TF.GenerationSoftware,Altium Limited,Altium Designer,23.4.1 (23)*
G04*
G04 Layer_Color=16711935*
%FSLAX44Y44*%
%MOMM*%
G71*
G04*
G04 #@! TF.SameCoordinates,64D97932-1E9C-4803-83F2-7C732265FDC7*
G04*
G04*
G04 #@! TF.FilePolarity,Positive*
G04*
G01*
G75*
%ADD13C,0.2000*%
%ADD14C,0.1000*%
%ADD50C,0.1750*%
%ADD51C,0.1500*%
D13*
X190740Y80250D02*
Y110250D01*
Y80250D02*
X220740D01*
Y110250D01*
X190740D02*
X220740D01*
X195020Y262950D02*
X228020D01*
X195020Y206950D02*
Y262950D01*
Y206950D02*
X228020D01*
Y262950D01*
D14*
X143770Y356610D02*
G03*
X143770Y356610I-5000J0D01*
G01*
X147770Y347610D02*
Y396610D01*
X108770Y347610D02*
Y396610D01*
Y347610D02*
X147770D01*
X108770Y396610D02*
X147770D01*
X19050Y162560D02*
X69850D01*
Y289560D01*
X19050D02*
X69850D01*
X19050Y162560D02*
Y289560D01*
X277750Y177970D02*
X287250Y187470D01*
X277750Y157970D02*
Y187470D01*
Y157970D02*
X293750D01*
Y187470D01*
X277750D02*
X293750D01*
X198360Y306950D02*
X204860Y313450D01*
X198360Y283450D02*
Y313450D01*
Y283450D02*
X228360D01*
Y313450D01*
X198360D02*
X228360D01*
X263130Y225030D02*
X293130D01*
X263130D02*
Y255030D01*
X293130D01*
Y225030D02*
Y255030D01*
D50*
X358790Y91370D02*
Y114370D01*
X344790D02*
X358790D01*
X344790Y91370D02*
Y114370D01*
Y91370D02*
X358790D01*
X309310Y72060D02*
X333310D01*
X309310D02*
Y126060D01*
X333310D01*
Y72060D02*
Y126060D01*
X372230Y246963D02*
Y270963D01*
X318230Y246963D02*
X372230D01*
X318230D02*
Y270963D01*
X372230D01*
Y279664D02*
Y303664D01*
X318230Y279664D02*
X372230D01*
X318230D02*
Y303664D01*
X372230D01*
X98490Y64440D02*
X122490D01*
X98490D02*
Y118440D01*
X122490D01*
Y64440D02*
Y118440D01*
X135320Y77140D02*
X159320D01*
X135320D02*
Y131140D01*
X159320D01*
Y77140D02*
Y131140D01*
X183820Y169610D02*
Y193610D01*
X237820D01*
Y169610D02*
Y193610D01*
X183820Y169610D02*
X237820D01*
X285180Y386410D02*
X309180D01*
Y332410D02*
Y386410D01*
X285180Y332410D02*
X309180D01*
X285180D02*
Y386410D01*
X253430Y404190D02*
X277430D01*
Y350190D02*
Y404190D01*
X253430Y350190D02*
X277430D01*
X253430D02*
Y404190D01*
X318200Y368630D02*
X342200D01*
Y314630D02*
Y368630D01*
X318200Y314630D02*
X342200D01*
X318200D02*
Y368630D01*
X108890Y303061D02*
Y327061D01*
X162890D01*
Y303061D02*
Y327061D01*
X108890Y303061D02*
X162890D01*
X109020Y272253D02*
Y296253D01*
X163020D01*
Y272253D02*
Y296253D01*
X109020Y272253D02*
X163020D01*
X264540Y38050D02*
Y63550D01*
X216040Y38050D02*
X264540D01*
X216040D02*
Y63550D01*
X264540D01*
X152280Y38050D02*
Y63550D01*
X200780D01*
Y38050D02*
Y63550D01*
X152280Y38050D02*
X200780D01*
X323730Y169610D02*
Y195110D01*
X372230D01*
Y169610D02*
Y195110D01*
X323730Y169610D02*
X372230D01*
X323730Y206960D02*
Y232460D01*
X372230D01*
Y206960D02*
Y232460D01*
X323730Y206960D02*
X372230D01*
X250140Y118230D02*
X275640D01*
Y69730D02*
Y118230D01*
X250140Y69730D02*
X275640D01*
X250140D02*
Y118230D01*
X372230Y135767D02*
Y161267D01*
X323730Y135767D02*
X372230D01*
X323730D02*
Y161267D01*
X372230D01*
X235070Y137110D02*
Y162610D01*
X186570Y137110D02*
X235070D01*
X186570D02*
Y162610D01*
X235070D01*
X111640Y178392D02*
Y203892D01*
X160140D01*
Y178392D02*
Y203892D01*
X111640Y178392D02*
X160140D01*
Y241250D02*
Y266750D01*
X111640Y241250D02*
X160140D01*
X111640D02*
Y266750D01*
X160140D01*
X216020Y396190D02*
Y421690D01*
X167520Y396190D02*
X216020D01*
X167520D02*
Y421690D01*
X216020D01*
X111640Y147270D02*
Y172770D01*
X160140D01*
Y147270D02*
Y172770D01*
X111640Y147270D02*
X160140D01*
Y210099D02*
Y235599D01*
X111640Y210099D02*
X160140D01*
X111640D02*
Y235599D01*
X160140D01*
X211412Y337910D02*
X236912D01*
X211412D02*
Y386410D01*
X236912D01*
Y337910D02*
Y386410D01*
D51*
X345125Y91207D02*
Y87875D01*
Y89541D01*
X353456D01*
X355122Y87875D01*
Y86209D01*
X353456Y84543D01*
X348458Y94539D02*
X353456D01*
X355122Y96206D01*
Y101204D01*
X348458D01*
X355122Y104536D02*
X348458D01*
Y106202D01*
X350124Y107868D01*
X355122D01*
X350124D01*
X348458Y109535D01*
X350124Y111201D01*
X355122D01*
X358455Y114533D02*
X348458D01*
Y119531D01*
X350124Y121197D01*
X353456D01*
X355122Y119531D01*
Y114533D01*
X326308Y88230D02*
X316312D01*
Y93229D01*
X317978Y94895D01*
X321310D01*
X322976Y93229D01*
Y88230D01*
Y91562D02*
X326308Y94895D01*
Y98227D02*
Y101559D01*
Y99893D01*
X316312D01*
X317978Y98227D01*
X326308Y106558D02*
Y109890D01*
Y108224D01*
X316312D01*
X317978Y106558D01*
X357726Y263961D02*
Y253965D01*
X352728D01*
X351061Y255631D01*
Y258963D01*
X352728Y260629D01*
X357726D01*
X354394D02*
X351061Y263961D01*
X347729D02*
X344397D01*
X346063D01*
Y253965D01*
X347729Y255631D01*
X339398D02*
X337732Y253965D01*
X334400D01*
X332734Y255631D01*
Y262295D01*
X334400Y263961D01*
X337732D01*
X339398Y262295D01*
Y255631D01*
X353561Y296663D02*
Y286666D01*
X348562D01*
X346896Y288332D01*
Y291664D01*
X348562Y293330D01*
X353561D01*
X350228D02*
X346896Y296663D01*
X343564Y294996D02*
X341898Y296663D01*
X338565D01*
X336899Y294996D01*
Y288332D01*
X338565Y286666D01*
X341898D01*
X343564Y288332D01*
Y289998D01*
X341898Y291664D01*
X336899D01*
X115488Y83109D02*
X105492D01*
Y88108D01*
X107158Y89774D01*
X110490D01*
X112156Y88108D01*
Y83109D01*
Y86442D02*
X115488Y89774D01*
X107158Y93106D02*
X105492Y94772D01*
Y98105D01*
X107158Y99771D01*
X108824D01*
X110490Y98105D01*
X112156Y99771D01*
X113822D01*
X115488Y98105D01*
Y94772D01*
X113822Y93106D01*
X112156D01*
X110490Y94772D01*
X108824Y93106D01*
X107158D01*
X110490Y94772D02*
Y98105D01*
X152318Y95809D02*
X142322D01*
Y100808D01*
X143988Y102474D01*
X147320D01*
X148986Y100808D01*
Y95809D01*
Y99142D02*
X152318Y102474D01*
X142322Y105806D02*
Y112471D01*
X143988D01*
X150652Y105806D01*
X152318D01*
X202489Y176612D02*
Y186608D01*
X207488D01*
X209154Y184942D01*
Y181610D01*
X207488Y179944D01*
X202489D01*
X205822D02*
X209154Y176612D01*
X219151Y186608D02*
X215818Y184942D01*
X212486Y181610D01*
Y178278D01*
X214152Y176612D01*
X217484D01*
X219151Y178278D01*
Y179944D01*
X217484Y181610D01*
X212486D01*
X292182Y367741D02*
X302178D01*
Y362742D01*
X300512Y361076D01*
X297180D01*
X295514Y362742D01*
Y367741D01*
Y364408D02*
X292182Y361076D01*
X302178Y351079D02*
Y357744D01*
X297180D01*
X298846Y354412D01*
Y352745D01*
X297180Y351079D01*
X293848D01*
X292182Y352745D01*
Y356078D01*
X293848Y357744D01*
X260432Y385521D02*
X270428D01*
Y380522D01*
X268762Y378856D01*
X265430D01*
X263764Y380522D01*
Y385521D01*
Y382188D02*
X260432Y378856D01*
Y370525D02*
X270428D01*
X265430Y375524D01*
Y368859D01*
X325202Y349961D02*
X335198D01*
Y344962D01*
X333532Y343296D01*
X330200D01*
X328534Y344962D01*
Y349961D01*
Y346628D02*
X325202Y343296D01*
X333532Y339964D02*
X335198Y338298D01*
Y334965D01*
X333532Y333299D01*
X331866D01*
X330200Y334965D01*
Y336632D01*
Y334965D01*
X328534Y333299D01*
X326868D01*
X325202Y334965D01*
Y338298D01*
X326868Y339964D01*
X127559Y310063D02*
Y320060D01*
X132558D01*
X134224Y318393D01*
Y315061D01*
X132558Y313395D01*
X127559D01*
X130892D02*
X134224Y310063D01*
X144221D02*
X137556D01*
X144221Y316727D01*
Y318393D01*
X142555Y320060D01*
X139222D01*
X137556Y318393D01*
X129356Y279255D02*
Y289251D01*
X134354D01*
X136020Y287585D01*
Y284253D01*
X134354Y282587D01*
X129356D01*
X132688D02*
X136020Y279255D01*
X139353D02*
X142685D01*
X141019D01*
Y289251D01*
X139353Y287585D01*
X246121Y47468D02*
X247787Y45802D01*
X251120D01*
X252786Y47468D01*
Y54132D01*
X251120Y55798D01*
X247787D01*
X246121Y54132D01*
X242789Y55798D02*
X239457D01*
X241123D01*
Y45802D01*
X242789Y47468D01*
X234459D02*
X232792Y45802D01*
X229460D01*
X227794Y47468D01*
Y49134D01*
X229460Y50800D01*
X231126D01*
X229460D01*
X227794Y52466D01*
Y54132D01*
X229460Y55798D01*
X232792D01*
X234459Y54132D01*
X170699Y54132D02*
X169032Y55798D01*
X165700D01*
X164034Y54132D01*
Y47468D01*
X165700Y45802D01*
X169032D01*
X170699Y47468D01*
X174031Y45802D02*
X177363D01*
X175697D01*
Y55798D01*
X174031Y54132D01*
X189026Y45802D02*
X182362D01*
X189026Y52466D01*
Y54132D01*
X187360Y55798D01*
X184028D01*
X182362Y54132D01*
X343815Y185692D02*
X342149Y187358D01*
X338816D01*
X337150Y185692D01*
Y179028D01*
X338816Y177362D01*
X342149D01*
X343815Y179028D01*
X347147Y177362D02*
X350479D01*
X348813D01*
Y187358D01*
X347147Y185692D01*
X355478Y177362D02*
X358810D01*
X357144D01*
Y187358D01*
X355478Y185692D01*
X342149Y223042D02*
X340482Y224708D01*
X337150D01*
X335484Y223042D01*
Y216378D01*
X337150Y214712D01*
X340482D01*
X342149Y216378D01*
X345481Y214712D02*
X348813D01*
X347147D01*
Y224708D01*
X345481Y223042D01*
X353811D02*
X355478Y224708D01*
X358810D01*
X360476Y223042D01*
Y216378D01*
X358810Y214712D01*
X355478D01*
X353811Y216378D01*
Y223042D01*
X266222Y95646D02*
X267888Y97312D01*
Y100645D01*
X266222Y102311D01*
X259558D01*
X257892Y100645D01*
Y97312D01*
X259558Y95646D01*
Y92314D02*
X257892Y90648D01*
Y87315D01*
X259558Y85649D01*
X266222D01*
X267888Y87315D01*
Y90648D01*
X266222Y92314D01*
X264556D01*
X262890Y90648D01*
Y85649D01*
X349646Y145185D02*
X351312Y143518D01*
X354645D01*
X356311Y145185D01*
Y151849D01*
X354645Y153515D01*
X351312D01*
X349646Y151849D01*
X346314Y145185D02*
X344648Y143518D01*
X341315D01*
X339649Y145185D01*
Y146851D01*
X341315Y148517D01*
X339649Y150183D01*
Y151849D01*
X341315Y153515D01*
X344648D01*
X346314Y151849D01*
Y150183D01*
X344648Y148517D01*
X346314Y146851D01*
Y145185D01*
X344648Y148517D02*
X341315D01*
X212486Y146528D02*
X214152Y144862D01*
X217484D01*
X219151Y146528D01*
Y153192D01*
X217484Y154858D01*
X214152D01*
X212486Y153192D01*
X209154Y144862D02*
X202489D01*
Y146528D01*
X209154Y153192D01*
Y154858D01*
X134224Y194474D02*
X132558Y196140D01*
X129226D01*
X127559Y194474D01*
Y187810D01*
X129226Y186143D01*
X132558D01*
X134224Y187810D01*
X144221Y196140D02*
X140888Y194474D01*
X137556Y191142D01*
Y187810D01*
X139222Y186143D01*
X142555D01*
X144221Y187810D01*
Y189476D01*
X142555Y191142D01*
X137556D01*
Y250668D02*
X139222Y249002D01*
X142555D01*
X144221Y250668D01*
Y257332D01*
X142555Y258998D01*
X139222D01*
X137556Y257332D01*
X127559Y249002D02*
X134224D01*
Y254000D01*
X130892Y252334D01*
X129226D01*
X127559Y254000D01*
Y257332D01*
X129226Y258998D01*
X132558D01*
X134224Y257332D01*
X193436Y405608D02*
X195102Y403942D01*
X198435D01*
X200101Y405608D01*
Y412272D01*
X198435Y413938D01*
X195102D01*
X193436Y412272D01*
X185105Y413938D02*
Y403942D01*
X190104Y408940D01*
X183439D01*
X134224Y163352D02*
X132558Y165018D01*
X129226D01*
X127559Y163352D01*
Y156688D01*
X129226Y155022D01*
X132558D01*
X134224Y156688D01*
X137556Y163352D02*
X139222Y165018D01*
X142555D01*
X144221Y163352D01*
Y161686D01*
X142555Y160020D01*
X140888D01*
X142555D01*
X144221Y158354D01*
Y156688D01*
X142555Y155022D01*
X139222D01*
X137556Y156688D01*
Y219517D02*
X139222Y217851D01*
X142555D01*
X144221Y219517D01*
Y226181D01*
X142555Y227847D01*
X139222D01*
X137556Y226181D01*
X127559Y227847D02*
X134224D01*
X127559Y221183D01*
Y219517D01*
X129226Y217851D01*
X132558D01*
X134224Y219517D01*
X220830Y362160D02*
X219163Y360494D01*
Y357162D01*
X220830Y355495D01*
X227494D01*
X229160Y357162D01*
Y360494D01*
X227494Y362160D01*
X229160Y365492D02*
Y368825D01*
Y367158D01*
X219163D01*
X220830Y365492D01*
M02*
