G04*
G04 #@! TF.GenerationSoftware,Altium Limited,Altium Designer,23.4.1 (23)*
G04*
G04 Layer_Physical_Order=2*
G04 Layer_Color=16711680*
%FSLAX44Y44*%
%MOMM*%
G71*
G04*
G04 #@! TF.SameCoordinates,64D97932-1E9C-4803-83F2-7C732265FDC7*
G04*
G04*
G04 #@! TF.FilePolarity,Positive*
G04*
G01*
G75*
%ADD10C,0.2540*%
%ADD44C,0.3000*%
%ADD45C,1.6500*%
%ADD46R,1.6500X1.6500*%
%ADD47C,0.8000*%
%ADD48R,1.2500X0.3500*%
G36*
X242121Y432978D02*
X262357Y428952D01*
X282102Y422963D01*
X301165Y415067D01*
X319362Y405340D01*
X336518Y393877D01*
X352467Y380787D01*
X367057Y366198D01*
X380147Y350248D01*
X391610Y333092D01*
X401337Y314895D01*
X409233Y295832D01*
X415222Y276087D01*
X419248Y255851D01*
X421270Y235317D01*
Y225000D01*
X421270Y214683D01*
X419248Y194149D01*
X415222Y173913D01*
X409233Y154168D01*
X401337Y135105D01*
X391610Y116908D01*
X380147Y99752D01*
X367057Y83802D01*
X352467Y69213D01*
X336518Y56123D01*
X319362Y44660D01*
X301165Y34933D01*
X282102Y27037D01*
X262357Y21048D01*
X242121Y17022D01*
X221587Y15000D01*
X200953D01*
X180419Y17022D01*
X160183Y21048D01*
X140438Y27037D01*
X121375Y34933D01*
X103178Y44660D01*
X86022Y56123D01*
X70072Y69213D01*
X55483Y83802D01*
X42393Y99752D01*
X30930Y116908D01*
X21203Y135105D01*
X13307Y154168D01*
X7318Y173913D01*
X3292Y194149D01*
X1270Y214683D01*
Y225000D01*
Y235317D01*
X3292Y255851D01*
X7318Y276087D01*
X12511Y293206D01*
X15511Y292761D01*
Y243840D01*
X16547Y241337D01*
X21627Y236257D01*
X22746Y235794D01*
X23634Y232483D01*
X23624Y232430D01*
X23061Y231866D01*
X21500Y228099D01*
Y224021D01*
X23061Y220254D01*
X25944Y217370D01*
X29711Y215810D01*
X33789D01*
X37556Y217370D01*
X40440Y220254D01*
X42000Y224021D01*
Y228099D01*
X40440Y231866D01*
X39995Y232311D01*
X41238Y235311D01*
X44540D01*
X47043Y236347D01*
X52844Y242149D01*
X55111Y241210D01*
X59189D01*
X62956Y242771D01*
X65840Y245654D01*
X67400Y249421D01*
Y253499D01*
X65840Y257266D01*
X65734Y257372D01*
X66977Y260372D01*
X100330D01*
X100330Y260372D01*
X103009Y261481D01*
X105709Y264182D01*
X127971D01*
X132102Y260051D01*
Y243840D01*
X132102Y243840D01*
X133211Y241161D01*
X139561Y234811D01*
X139561Y234811D01*
X142240Y233702D01*
X154641D01*
X165473Y222870D01*
X165450Y222815D01*
Y220428D01*
X166363Y218223D01*
X168051Y216535D01*
X170257Y215622D01*
X172644D01*
X173600Y216018D01*
X175668Y215162D01*
X175668Y215162D01*
X185921D01*
X188730Y214700D01*
X188730Y212162D01*
Y207200D01*
X204509D01*
X205345Y207143D01*
X207716Y205959D01*
X208317Y204507D01*
X214667Y198157D01*
X217170Y197121D01*
X236231D01*
X242024Y191327D01*
X241650Y190424D01*
Y188036D01*
X242563Y185831D01*
X244251Y184144D01*
X244761Y180685D01*
X235255Y171179D01*
X184150D01*
X181647Y170143D01*
X166407Y154903D01*
X165371Y152400D01*
Y125596D01*
X163823Y124049D01*
X162910Y121844D01*
Y119457D01*
X163823Y117251D01*
X165511Y115563D01*
X167717Y114650D01*
X170103D01*
X170553Y114836D01*
X173894Y113244D01*
X173907Y113225D01*
X174165Y111861D01*
X169904Y107600D01*
X167717D01*
X165511Y106687D01*
X163823Y104999D01*
X162910Y102794D01*
Y100407D01*
X163823Y98201D01*
X165511Y96513D01*
X167717Y95600D01*
X170103D01*
X172309Y96513D01*
X173997Y98201D01*
X174910Y100407D01*
Y102594D01*
X181573Y109257D01*
X182609Y111760D01*
Y153474D01*
X187322Y158186D01*
X239196D01*
X241699Y159223D01*
X247770Y165294D01*
X251309Y164591D01*
X251453Y164241D01*
X253001Y162694D01*
Y154940D01*
X254037Y152437D01*
X274357Y132117D01*
X276860Y131081D01*
X312554D01*
X314101Y129533D01*
X316306Y128620D01*
X318694D01*
X320899Y129533D01*
X322587Y131221D01*
X323500Y133427D01*
Y135814D01*
X322587Y138019D01*
X320899Y139707D01*
X318694Y140620D01*
X316306D01*
X314101Y139707D01*
X312554Y138159D01*
X278326D01*
X260079Y156406D01*
Y162694D01*
X261627Y164241D01*
X262540Y166446D01*
Y168834D01*
X261627Y171039D01*
X259939Y172727D01*
X259589Y172871D01*
X258885Y176410D01*
X273246Y190771D01*
X295910D01*
X298413Y191807D01*
X303806Y197200D01*
X305993D01*
X308199Y198113D01*
X309887Y199801D01*
X310800Y202006D01*
Y204394D01*
X310739Y204541D01*
X311113Y204915D01*
X312149Y207418D01*
Y278130D01*
X311113Y280633D01*
X302223Y289523D01*
X299720Y290559D01*
X284346D01*
X282799Y292107D01*
X280593Y293020D01*
X278207D01*
X276001Y292107D01*
X274313Y290419D01*
X273400Y288214D01*
Y285826D01*
X274313Y283621D01*
X276001Y281933D01*
X278207Y281020D01*
X280593D01*
X282799Y281933D01*
X284346Y283481D01*
X298254D01*
X305071Y276664D01*
Y209200D01*
X303606D01*
X301401Y208287D01*
X299713Y206599D01*
X298800Y204394D01*
Y202206D01*
X294444Y197849D01*
X274281D01*
X271723Y198436D01*
X271509Y200621D01*
Y203334D01*
X273057Y204881D01*
X273970Y207087D01*
Y209473D01*
X273057Y211679D01*
X271369Y213367D01*
X269163Y214280D01*
X266975D01*
X261349Y219906D01*
Y271780D01*
X260313Y274283D01*
X251423Y283173D01*
X248920Y284209D01*
X228796D01*
X223249Y289756D01*
Y325391D01*
X253792D01*
X256295Y326427D01*
X258253Y328385D01*
X259156Y328010D01*
X261544D01*
X263749Y328923D01*
X265437Y330611D01*
X266350Y332817D01*
Y335204D01*
X265437Y337409D01*
X263749Y339097D01*
X261544Y340010D01*
X259156D01*
X256951Y339097D01*
X255263Y337409D01*
X254350Y335204D01*
Y334493D01*
X252326Y332469D01*
X195446D01*
X193899Y334017D01*
X191693Y334930D01*
X189307D01*
X187101Y334017D01*
X185413Y332329D01*
X184500Y330123D01*
Y327737D01*
X185413Y325531D01*
X187101Y323843D01*
X189307Y322930D01*
X191693D01*
X193899Y323843D01*
X195446Y325391D01*
X216171D01*
Y288290D01*
X217207Y285787D01*
X224675Y278319D01*
X224620Y277556D01*
X223863Y275319D01*
X181806D01*
X177295Y279831D01*
X177580Y280520D01*
Y282906D01*
X176667Y285112D01*
X174979Y286800D01*
X172774Y287713D01*
X170387D01*
X168182Y286800D01*
X166494Y285112D01*
X165580Y282906D01*
Y280520D01*
X166494Y278314D01*
X168182Y276626D01*
X170387Y275713D01*
X171236Y274303D01*
X170116Y270947D01*
X169321Y270618D01*
X167633Y268930D01*
X166720Y266725D01*
Y264338D01*
X167633Y262132D01*
X169321Y260445D01*
X171527Y259531D01*
X173913D01*
X176119Y260445D01*
X177666Y261992D01*
X188730D01*
Y255200D01*
X188730D01*
Y254700D01*
X188730D01*
Y247200D01*
X204995D01*
X207281Y244914D01*
Y240851D01*
X205230Y238700D01*
X204281Y238700D01*
X188730D01*
Y238489D01*
X181806D01*
X177537Y242758D01*
X177450Y242794D01*
Y243092D01*
X176537Y245298D01*
X174849Y246986D01*
X172644Y247899D01*
X170257D01*
X168051Y246986D01*
X166363Y245298D01*
X165450Y243092D01*
Y240706D01*
X166363Y238500D01*
X168051Y236812D01*
X170257Y235899D01*
X172644D01*
X173875Y236409D01*
X176546Y233738D01*
X176391Y232563D01*
X175551Y230490D01*
X173471Y229629D01*
X170899Y228159D01*
X158889Y240169D01*
X156210Y241278D01*
X156210Y241278D01*
X143809D01*
X139678Y245409D01*
Y261620D01*
X139678Y261620D01*
X138569Y264299D01*
X132219Y270649D01*
X129540Y271758D01*
X129540Y271758D01*
X104140D01*
X104140Y271758D01*
X101461Y270649D01*
X98761Y267948D01*
X46019D01*
X41164Y272803D01*
X42000Y274821D01*
Y278899D01*
X40440Y282666D01*
X37556Y285550D01*
X33789Y287110D01*
X29711D01*
X25944Y285550D01*
X25589Y285195D01*
X22589Y286438D01*
Y294444D01*
X43143Y314997D01*
X44179Y317500D01*
Y322714D01*
X45727Y324261D01*
X46640Y326466D01*
Y328853D01*
X45727Y331059D01*
X44039Y332747D01*
X41834Y333660D01*
X39446D01*
X37241Y332747D01*
X35553Y331059D01*
X34640Y328853D01*
Y326466D01*
X35553Y324261D01*
X37101Y322714D01*
Y318966D01*
X18384Y300250D01*
X15841Y301949D01*
X21203Y314895D01*
X30930Y333092D01*
X42393Y350248D01*
X55483Y366198D01*
X70072Y380787D01*
X86022Y393877D01*
X103178Y405340D01*
X121375Y415067D01*
X140438Y422963D01*
X160183Y428952D01*
X180419Y432978D01*
X200953Y435000D01*
X221587D01*
X242121Y432978D01*
D02*
G37*
G36*
X254271Y270314D02*
Y218440D01*
X255307Y215937D01*
X261970Y209275D01*
Y207087D01*
X262883Y204881D01*
X264431Y203334D01*
Y199951D01*
X256313Y191834D01*
X252774Y192538D01*
X252737Y192629D01*
X251049Y194317D01*
X248843Y195230D01*
X248133D01*
X240200Y203163D01*
X237698Y204199D01*
X221882D01*
X221882Y204200D01*
X223486Y207200D01*
X234310D01*
X234310Y214700D01*
X234310Y217700D01*
X234310Y222700D01*
X234310Y225700D01*
Y230700D01*
X217810D01*
X217810Y223200D01*
X217810Y220200D01*
X217810Y215200D01*
X217810Y212388D01*
X217439Y212025D01*
X214810Y210785D01*
X214359Y211086D01*
Y243457D01*
X216885Y244942D01*
X217810Y244426D01*
Y239200D01*
X234310D01*
Y239411D01*
X235330D01*
X237833Y240447D01*
X242533Y245147D01*
X243569Y247650D01*
Y266700D01*
X242533Y269203D01*
X237605Y274131D01*
X237660Y274894D01*
X238417Y277131D01*
X247454D01*
X254271Y270314D01*
D02*
G37*
%LPC*%
G36*
X59189Y236310D02*
X55111D01*
X51344Y234750D01*
X48460Y231866D01*
X46900Y228099D01*
Y224021D01*
X48460Y220254D01*
X51344Y217370D01*
X55111Y215810D01*
X59189D01*
X62956Y217370D01*
X65840Y220254D01*
X67400Y224021D01*
Y228099D01*
X65840Y231866D01*
X62956Y234750D01*
X59189Y236310D01*
D02*
G37*
G36*
Y210910D02*
X55111D01*
X51344Y209349D01*
X48460Y206466D01*
X46900Y202699D01*
Y198621D01*
X48460Y194854D01*
X51344Y191971D01*
X55111Y190410D01*
X59189D01*
X62956Y191971D01*
X65840Y194854D01*
X67400Y198621D01*
Y202699D01*
X65840Y206466D01*
X62956Y209349D01*
X59189Y210910D01*
D02*
G37*
G36*
X33789D02*
X29711D01*
X25944Y209349D01*
X23061Y206466D01*
X21500Y202699D01*
Y198621D01*
X23061Y194854D01*
X25944Y191971D01*
X29711Y190410D01*
X33789D01*
X37556Y191971D01*
X40440Y194854D01*
X42000Y198621D01*
Y202699D01*
X40440Y206466D01*
X37556Y209349D01*
X33789Y210910D01*
D02*
G37*
G36*
X67400Y185510D02*
X46900D01*
Y165010D01*
X67400D01*
Y185510D01*
D02*
G37*
G36*
X33789D02*
X29711D01*
X25944Y183950D01*
X23061Y181066D01*
X21500Y177299D01*
Y173221D01*
X23061Y169454D01*
X25944Y166570D01*
X29711Y165010D01*
X33789D01*
X37556Y166570D01*
X40440Y169454D01*
X42000Y173221D01*
Y177299D01*
X40440Y181066D01*
X37556Y183950D01*
X33789Y185510D01*
D02*
G37*
%LPD*%
D10*
X279400Y287020D02*
X299720D01*
X308610Y278130D01*
X220146Y328930D02*
X253792D01*
X258873Y334010D01*
X260350D01*
X213678Y251430D02*
X225580D01*
X210703Y265531D02*
X212190Y264043D01*
Y252918D02*
X213678Y251430D01*
X172720Y265531D02*
X210703D01*
X212190Y252918D02*
Y264043D01*
X256540Y154940D02*
X276860Y134620D01*
X317500D01*
X256540Y154940D02*
Y167640D01*
X217170Y200660D02*
X237698D01*
X247650Y190707D01*
Y189230D02*
Y190707D01*
X185856Y161726D02*
X239196D01*
X271780Y194310D02*
X295910D01*
X239196Y161726D02*
X271780Y194310D01*
X267970Y198485D02*
Y208280D01*
X248691Y179610D02*
X249095D01*
X267970Y198485D01*
X184150Y167640D02*
X236721D01*
X248691Y179610D01*
X179070Y111760D02*
Y154940D01*
X185856Y161726D01*
X257810Y218440D02*
X267970Y208280D01*
X210820Y207010D02*
X217170Y200660D01*
X210820Y207010D02*
Y246380D01*
X196980Y250950D02*
X206250D01*
X210820Y246380D01*
X181610Y250190D02*
X188748Y243052D01*
X199418D01*
X199520Y242950D01*
X40640Y317500D02*
Y327660D01*
X19050Y295910D02*
X40640Y317500D01*
X19050Y243840D02*
X24130Y238760D01*
X19050Y243840D02*
Y295910D01*
X44540Y238850D02*
X57150Y251460D01*
X35650Y238850D02*
X44540D01*
X35560Y238760D02*
X35650Y238850D01*
X24130Y238760D02*
X35560D01*
X235330Y242950D02*
X240030Y247650D01*
X234950Y271780D02*
X240030Y266700D01*
Y247650D02*
Y266700D01*
X223520Y242950D02*
X235330D01*
X225580Y251430D02*
X226060Y250950D01*
X174571Y240255D02*
X175035D01*
X172927Y241899D02*
X174571Y240255D01*
X171450Y241899D02*
X172927D01*
X180340Y234950D02*
X199520D01*
X175035Y240255D02*
X180340Y234950D01*
X171580Y280540D02*
X180340Y271780D01*
X171580Y280540D02*
Y281713D01*
X180340Y271780D02*
X234950D01*
X304849Y203249D02*
Y203657D01*
X308610Y207418D01*
Y278130D01*
X295910Y194310D02*
X304849Y203249D01*
X257810Y218440D02*
Y271780D01*
X248920Y280670D02*
X257810Y271780D01*
X227330Y280670D02*
X248920D01*
X219710Y288290D02*
X227330Y280670D01*
X219710Y328494D02*
X220146Y328930D01*
X219710Y288290D02*
Y328494D01*
X190500Y328930D02*
X220146D01*
X168910Y120650D02*
Y152400D01*
X184150Y167640D01*
X168910Y101600D02*
X179070Y111760D01*
D44*
X100330Y264160D02*
X104140Y267970D01*
X129540D01*
X135890Y261620D01*
Y243840D02*
Y261620D01*
X44450Y264160D02*
X100330D01*
X31750Y276860D02*
X44450Y264160D01*
X171450Y221622D02*
Y222250D01*
X156210Y237490D02*
X171450Y222250D01*
X142240Y237490D02*
X156210D01*
X135890Y243840D02*
X142240Y237490D01*
X176150Y226950D02*
X199520D01*
X171450Y222250D02*
X176150Y226950D01*
X175668Y218950D02*
X199520D01*
X172368Y222250D02*
X175668Y218950D01*
X171450Y222250D02*
X172368D01*
D45*
X31750Y200660D02*
D03*
X57150D02*
D03*
X31750Y175260D02*
D03*
X57150Y226060D02*
D03*
X31750D02*
D03*
X57150Y251460D02*
D03*
Y276860D02*
D03*
X31750Y251460D02*
D03*
Y276860D02*
D03*
D46*
X57150Y175260D02*
D03*
D47*
X267970Y278130D02*
D03*
X279400Y287020D02*
D03*
X260350Y334010D02*
D03*
X317500Y134620D02*
D03*
X256540Y167640D02*
D03*
X247650Y189230D02*
D03*
X40640Y327660D02*
D03*
X204470Y95250D02*
D03*
X278130Y240030D02*
D03*
X181610Y250190D02*
D03*
X232410Y417830D02*
D03*
X318770Y237490D02*
D03*
X383540Y127000D02*
D03*
X241300Y104140D02*
D03*
X242570Y68580D02*
D03*
X290830Y205740D02*
D03*
X304800Y203200D02*
D03*
X190500Y328930D02*
D03*
X171580Y281713D02*
D03*
X172720Y265531D02*
D03*
X171450Y241899D02*
D03*
Y221622D02*
D03*
X267970Y208280D02*
D03*
X168910Y101600D02*
D03*
Y120650D02*
D03*
D48*
X226060Y250950D02*
D03*
Y242950D02*
D03*
Y234950D02*
D03*
Y226950D02*
D03*
Y218950D02*
D03*
Y210950D02*
D03*
Y258950D02*
D03*
X196980Y210950D02*
D03*
Y218950D02*
D03*
Y226950D02*
D03*
Y234950D02*
D03*
Y242950D02*
D03*
Y250950D02*
D03*
Y258950D02*
D03*
M02*
