G04*
G04 #@! TF.GenerationSoftware,Altium Limited,Altium Designer,23.4.1 (23)*
G04*
G04 Layer_Color=2752767*
%FSLAX44Y44*%
%MOMM*%
G71*
G04*
G04 #@! TF.SameCoordinates,64D97932-1E9C-4803-83F2-7C732265FDC7*
G04*
G04*
G04 #@! TF.FilePolarity,Positive*
G04*
G01*
G75*
%ADD54C,0.1270*%
D54*
X26670Y195580D02*
Y205740D01*
X36830D01*
Y195580D01*
X26670D01*
X52070D02*
Y205740D01*
X62230D01*
Y195580D01*
X52070D01*
X26670Y170180D02*
Y180340D01*
X36830D01*
Y170180D01*
X26670D01*
X52070D02*
Y180340D01*
X62230D01*
Y170180D01*
X52070D01*
Y220980D02*
Y231140D01*
X62230D01*
Y220980D01*
X52070D01*
X26670D02*
Y231140D01*
X36830D01*
Y220980D01*
X26670D01*
X52070Y246380D02*
Y256540D01*
X62230D01*
Y246380D01*
X52070D01*
Y271780D02*
Y281940D01*
X62230D01*
Y271780D01*
X52070D01*
X26670Y246380D02*
Y256540D01*
X36830D01*
Y246380D01*
X26670D01*
Y271780D02*
Y281940D01*
X36830D01*
Y271780D01*
X26670D01*
X267970Y273050D02*
X262890Y283210D01*
X273050D01*
X267970Y273050D01*
X279400Y281940D02*
X274320Y292100D01*
X284480D01*
X279400Y281940D01*
X260350Y328930D02*
X255270Y339090D01*
X265430D01*
X260350Y328930D01*
X317500Y129540D02*
X312420Y139700D01*
X322580D01*
X317500Y129540D01*
X256540Y162560D02*
X251460Y172720D01*
X261620D01*
X256540Y162560D01*
X247650Y184150D02*
X242570Y194310D01*
X252730D01*
X247650Y184150D01*
X40640Y322580D02*
X35560Y332740D01*
X45720D01*
X40640Y322580D01*
X204470Y90170D02*
X199390Y100330D01*
X209550D01*
X204470Y90170D01*
X278130Y234950D02*
X273050Y245110D01*
X283210D01*
X278130Y234950D01*
X181610Y245110D02*
X176530Y255270D01*
X186690D01*
X181610Y245110D01*
X232410Y412750D02*
X227330Y422910D01*
X237490D01*
X232410Y412750D01*
X318770Y232410D02*
X313690Y242570D01*
X323850D01*
X318770Y232410D01*
X383540Y121920D02*
X378460Y132080D01*
X388620D01*
X383540Y121920D01*
X241300Y99060D02*
X236220Y109220D01*
X246380D01*
X241300Y99060D01*
X242570Y63500D02*
X237490Y73660D01*
X247650D01*
X242570Y63500D01*
X290830Y200660D02*
X285750Y210820D01*
X295910D01*
X290830Y200660D01*
X304800Y198120D02*
X299720Y208280D01*
X309880D01*
X304800Y198120D01*
X190500Y323850D02*
X185420Y334010D01*
X195580D01*
X190500Y323850D01*
X171580Y276633D02*
X166500Y286793D01*
X176660D01*
X171580Y276633D01*
X172720Y260451D02*
X167640Y270611D01*
X177800D01*
X172720Y260451D01*
X171450Y236819D02*
X166370Y246979D01*
X176530D01*
X171450Y236819D01*
Y216542D02*
X166370Y226702D01*
X176530D01*
X171450Y216542D01*
X267970Y203200D02*
X262890Y213360D01*
X273050D01*
X267970Y203200D01*
X168910Y96520D02*
X163830Y106680D01*
X173990D01*
X168910Y96520D01*
Y115570D02*
X163830Y125730D01*
X173990D01*
X168910Y115570D01*
M02*
