G04*
G04 #@! TF.GenerationSoftware,Altium Limited,Altium Designer,23.4.1 (23)*
G04*
G04 Layer_Color=32896*
%FSLAX44Y44*%
%MOMM*%
G71*
G04*
G04 #@! TF.SameCoordinates,64D97932-1E9C-4803-83F2-7C732265FDC7*
G04*
G04*
G04 #@! TF.FilePolarity,Positive*
G04*
G01*
G75*
%ADD13C,0.2000*%
D13*
X234307Y260980D02*
G03*
X234307Y260980I-597J0D01*
G01*
X195020Y262950D02*
X228020D01*
X195020Y206950D02*
X228020D01*
X323120Y121597D02*
X316455D01*
X319788D01*
Y111601D01*
X313123D02*
X309791D01*
X311457D01*
Y118265D01*
X313123D01*
X303126Y119931D02*
Y118265D01*
X304793D01*
X301460D01*
X303126D01*
Y113267D01*
X301460Y111601D01*
X296462D02*
X293130D01*
X294796D01*
Y121597D01*
X296462D01*
X283133Y111601D02*
X286465D01*
X288131Y113267D01*
Y116599D01*
X286465Y118265D01*
X283133D01*
X281467Y116599D01*
Y114933D01*
X288131D01*
X278134Y118265D02*
X276468D01*
Y116599D01*
X278134D01*
Y118265D01*
Y113267D02*
X276468D01*
Y111601D01*
X278134D01*
Y113267D01*
X253143Y119931D02*
X254809Y121597D01*
X258141D01*
X259807Y119931D01*
Y118265D01*
X258141Y116599D01*
X254809D01*
X253143Y114933D01*
Y113267D01*
X254809Y111601D01*
X258141D01*
X259807Y113267D01*
X244812Y111601D02*
X248144D01*
X249810Y113267D01*
Y116599D01*
X248144Y118265D01*
X244812D01*
X243146Y116599D01*
Y114933D01*
X249810D01*
X239813Y111601D02*
Y118265D01*
X234815D01*
X233149Y116599D01*
Y111601D01*
X229817D02*
X224818D01*
X223152Y113267D01*
X224818Y114933D01*
X228151D01*
X229817Y116599D01*
X228151Y118265D01*
X223152D01*
X218154Y111601D02*
X214822D01*
X213155Y113267D01*
Y116599D01*
X214822Y118265D01*
X218154D01*
X219820Y116599D01*
Y113267D01*
X218154Y111601D01*
X209823Y118265D02*
Y111601D01*
Y114933D01*
X208157Y116599D01*
X206491Y118265D01*
X204825D01*
X189830Y121597D02*
Y111601D01*
X184831D01*
X183165Y113267D01*
Y114933D01*
X184831Y116599D01*
X189830D01*
X184831D01*
X183165Y118265D01*
Y119931D01*
X184831Y121597D01*
X189830D01*
X178167Y111601D02*
X174834D01*
X173168Y113267D01*
Y116599D01*
X174834Y118265D01*
X178167D01*
X179833Y116599D01*
Y113267D01*
X178167Y111601D01*
X168170Y118265D02*
X164838D01*
X163172Y116599D01*
Y111601D01*
X168170D01*
X169836Y113267D01*
X168170Y114933D01*
X163172D01*
X159839Y118265D02*
Y111601D01*
Y114933D01*
X158173Y116599D01*
X156507Y118265D01*
X154841D01*
X143178Y121597D02*
Y111601D01*
X148176D01*
X149843Y113267D01*
Y116599D01*
X148176Y118265D01*
X143178D01*
X323120Y94804D02*
Y101469D01*
X319788Y104801D01*
X316455Y101469D01*
Y94804D01*
Y99803D01*
X323120D01*
X313123Y101469D02*
Y96471D01*
X311457Y94804D01*
X306459D01*
Y101469D01*
X301460Y103135D02*
Y101469D01*
X303126D01*
X299794D01*
X301460D01*
Y96471D01*
X299794Y94804D01*
X294796Y104801D02*
Y94804D01*
Y99803D01*
X293130Y101469D01*
X289797D01*
X288131Y99803D01*
Y94804D01*
X283133D02*
X279801D01*
X278134Y96471D01*
Y99803D01*
X279801Y101469D01*
X283133D01*
X284799Y99803D01*
Y96471D01*
X283133Y94804D01*
X274802Y101469D02*
Y94804D01*
Y98137D01*
X273136Y99803D01*
X271470Y101469D01*
X269804D01*
X264806D02*
X263139D01*
Y99803D01*
X264806D01*
Y101469D01*
Y96471D02*
X263139D01*
Y94804D01*
X264806D01*
Y96471D01*
X246478Y104801D02*
Y94804D01*
X241480D01*
X239813Y96471D01*
Y103135D01*
X241480Y104801D01*
X246478D01*
X234815Y101469D02*
X231483D01*
X229817Y99803D01*
Y94804D01*
X234815D01*
X236481Y96471D01*
X234815Y98137D01*
X229817D01*
X224818Y101469D02*
X221486D01*
X219820Y99803D01*
Y94804D01*
X224818D01*
X226485Y96471D01*
X224818Y98137D01*
X219820D01*
X216488Y94804D02*
Y101469D01*
X211489D01*
X209823Y99803D01*
Y94804D01*
X189830D02*
X191496Y96471D01*
X193162Y94804D01*
X194828D01*
X196494Y96471D01*
Y98137D01*
X194828Y99803D01*
X196494Y101469D01*
Y103135D01*
X194828Y104801D01*
X193162D01*
X191496Y103135D01*
Y101469D01*
X193162Y99803D01*
X191496Y98137D01*
Y96471D01*
X189830Y99803D02*
X191496Y98137D01*
X194828Y99803D02*
X193162D01*
X169836Y104801D02*
X176501D01*
Y94804D01*
X169836D01*
X176501Y99803D02*
X173168D01*
X166504Y94804D02*
Y101469D01*
X164838D01*
X163172Y99803D01*
Y94804D01*
Y99803D01*
X161505Y101469D01*
X159839Y99803D01*
Y94804D01*
X156507Y101469D02*
Y94804D01*
Y98137D01*
X154841Y99803D01*
X153175Y101469D01*
X151509D01*
X144844D02*
X141512D01*
X139846Y99803D01*
Y94804D01*
X144844D01*
X146510Y96471D01*
X144844Y98137D01*
X139846D01*
X136514Y94804D02*
Y101469D01*
X131515D01*
X129849Y99803D01*
Y94804D01*
X323120Y88005D02*
Y78008D01*
X318122D01*
X316455Y79675D01*
Y86339D01*
X318122Y88005D01*
X323120D01*
X311457Y84673D02*
X308125D01*
X306459Y83007D01*
Y78008D01*
X311457D01*
X313123Y79675D01*
X311457Y81341D01*
X306459D01*
X301460Y86339D02*
Y84673D01*
X303126D01*
X299794D01*
X301460D01*
Y79675D01*
X299794Y78008D01*
X289797D02*
X293130D01*
X294796Y79675D01*
Y83007D01*
X293130Y84673D01*
X289797D01*
X288131Y83007D01*
Y81341D01*
X294796D01*
X284799Y84673D02*
X283133D01*
Y83007D01*
X284799D01*
Y84673D01*
Y79675D02*
X283133D01*
Y78008D01*
X284799D01*
Y79675D01*
X266472Y86339D02*
X264806Y88005D01*
X261473D01*
X259807Y86339D01*
Y84673D01*
X261473Y83007D01*
X259807Y81341D01*
Y79675D01*
X261473Y78008D01*
X264806D01*
X266472Y79675D01*
Y81341D01*
X264806Y83007D01*
X266472Y84673D01*
Y86339D01*
X264806Y83007D02*
X261473D01*
X256475D02*
X249810D01*
X239813Y88005D02*
X246478D01*
Y83007D01*
X243146Y84673D01*
X241480D01*
X239813Y83007D01*
Y79675D01*
X241480Y78008D01*
X244812D01*
X246478Y79675D01*
X236481Y83007D02*
X229817D01*
X219820Y78008D02*
X226485D01*
X219820Y84673D01*
Y86339D01*
X221486Y88005D01*
X224818D01*
X226485Y86339D01*
X216488D02*
X214822Y88005D01*
X211489D01*
X209823Y86339D01*
Y84673D01*
X211489Y83007D01*
X213155D01*
X211489D01*
X209823Y81341D01*
Y79675D01*
X211489Y78008D01*
X214822D01*
X216488Y79675D01*
X316455Y69543D02*
X318122Y71209D01*
X321454D01*
X323120Y69543D01*
Y67877D01*
X321454Y66211D01*
X318122D01*
X316455Y64545D01*
Y62878D01*
X318122Y61212D01*
X321454D01*
X323120Y62878D01*
X311457Y67877D02*
X308125D01*
X306459Y66211D01*
Y61212D01*
X311457D01*
X313123Y62878D01*
X311457Y64545D01*
X306459D01*
X303126Y67877D02*
X296462Y61212D01*
X299794Y64545D01*
X296462Y67877D01*
X303126Y61212D01*
X293130D02*
X289797D01*
X291464D01*
Y67877D01*
X293130D01*
X283133Y61212D02*
X279801D01*
X278134Y62878D01*
Y66211D01*
X279801Y67877D01*
X283133D01*
X284799Y66211D01*
Y62878D01*
X283133Y61212D01*
X274802D02*
Y67877D01*
X269804D01*
X268138Y66211D01*
Y61212D01*
X254809Y71209D02*
Y62878D01*
X253143Y61212D01*
X249810D01*
X248144Y62878D01*
Y71209D01*
X244812Y61212D02*
Y67877D01*
X239813D01*
X238147Y66211D01*
Y61212D01*
X234815D02*
X231483D01*
X233149D01*
Y67877D01*
X234815D01*
X226485D02*
X223152Y61212D01*
X219820Y67877D01*
X211489Y61212D02*
X214822D01*
X216488Y62878D01*
Y66211D01*
X214822Y67877D01*
X211489D01*
X209823Y66211D01*
Y64545D01*
X216488D01*
X206491Y67877D02*
Y61212D01*
Y64545D01*
X204825Y66211D01*
X203159Y67877D01*
X201493D01*
X196494Y61212D02*
X191496D01*
X189830Y62878D01*
X191496Y64545D01*
X194828D01*
X196494Y66211D01*
X194828Y67877D01*
X189830D01*
X186497Y61212D02*
X183165D01*
X184831D01*
Y67877D01*
X186497D01*
X176501Y69543D02*
Y67877D01*
X178167D01*
X174834D01*
X176501D01*
Y62878D01*
X174834Y61212D01*
X169836Y67877D02*
Y62878D01*
X168170Y61212D01*
X163172D01*
Y59546D01*
X164838Y57880D01*
X166504D01*
X163172Y61212D02*
Y67877D01*
X146510Y61212D02*
X149843Y64545D01*
Y67877D01*
X146510Y71209D01*
X141512Y69543D02*
X139846Y71209D01*
X136514D01*
X134847Y69543D01*
Y67877D01*
X136514Y66211D01*
X138180D01*
X136514D01*
X134847Y64545D01*
Y62878D01*
X136514Y61212D01*
X139846D01*
X141512Y62878D01*
X131515Y61212D02*
X124851Y67877D01*
X121518Y69543D02*
X119852Y71209D01*
X116520D01*
X114854Y69543D01*
Y67877D01*
X116520Y66211D01*
X118186D01*
X116520D01*
X114854Y64545D01*
Y62878D01*
X116520Y61212D01*
X119852D01*
X121518Y62878D01*
X111522Y61212D02*
X108189Y64545D01*
Y67877D01*
X111522Y71209D01*
X251378Y205123D02*
X241382D01*
X246380D01*
Y211787D01*
X251378D01*
X241382D01*
Y220118D02*
Y216786D01*
X243048Y215120D01*
X246380D01*
X248046Y216786D01*
Y220118D01*
X246380Y221784D01*
X244714D01*
Y215120D01*
X248046Y226783D02*
Y230115D01*
X246380Y231781D01*
X241382D01*
Y226783D01*
X243048Y225117D01*
X244714Y226783D01*
Y231781D01*
X249712Y236779D02*
X248046D01*
Y235113D01*
Y238445D01*
Y236779D01*
X243048D01*
X241382Y238445D01*
X251378Y243444D02*
X241382D01*
Y248442D01*
X243048Y250108D01*
X244714D01*
X246380D01*
X248046Y248442D01*
Y243444D01*
X241382Y258439D02*
Y255107D01*
X243048Y253441D01*
X246380D01*
X248046Y255107D01*
Y258439D01*
X246380Y260105D01*
X244714D01*
Y253441D01*
X248046Y265103D02*
Y268436D01*
X246380Y270102D01*
X241382D01*
Y265103D01*
X243048Y263437D01*
X244714Y265103D01*
Y270102D01*
X249712Y275100D02*
X248046D01*
Y273434D01*
Y276766D01*
Y275100D01*
X243048D01*
X241382Y276766D01*
Y281765D02*
Y285097D01*
Y283431D01*
X251378D01*
X249712Y281765D01*
M02*
