M48
;Layer_Color=9474304
;FILE_FORMAT=4:4
METRIC,LZ
;TYPE=PLATED
T1F00S00C0.6000
T2F00S00C1.1000
%
T01
X0016891Y001016
Y0012065
X0020447Y0009525
X002413Y0010414
X0024257Y0006858
X0025654Y0016764
X0024765Y0018923
X0026797Y0020828
X0029083Y0020574
X003048Y002032
X0031877Y0023749
X0027813Y0024003
X0026797Y0027813
X002794Y0028702
X0026035Y0033401
X001905Y0032893
X0017158Y00281713
X0017272Y00265531
X0018161Y0025019
X0017145Y00241899
Y00221622
X003175Y0013462
X0038354Y00127
X0004064Y0032766
X0023241Y0041783
T02
X0003175Y0017526
Y0020066
X0005715
Y0017526
Y0022606
X0003175
Y0025146
X0005715
Y0027686
X0003175
M30
