G04*
G04 #@! TF.GenerationSoftware,Altium Limited,Altium Designer,23.2.1 (34)*
G04*
G04 Layer_Color=8421504*
%FSLAX44Y44*%
%MOMM*%
G71*
G04*
G04 #@! TF.SameCoordinates,75154B13-1296-4508-9C84-23632F313CF3*
G04*
G04*
G04 #@! TF.FilePolarity,Positive*
G04*
G01*
G75*
%ADD17R,1.1000X1.1000*%
%ADD18R,1.1000X1.1000*%
%ADD19R,1.1000X1.1000*%
%ADD20R,1.1000X1.1000*%
%ADD21R,1.8400X1.8000*%
%ADD22R,1.8000X1.0000*%
%ADD23R,0.7000X1.2000*%
%ADD24R,1.1500X0.6000*%
%ADD25R,1.1500X0.3000*%
%ADD26R,0.9000X0.9000*%
%ADD27R,0.9000X1.5000*%
%ADD28R,1.5000X0.9000*%
%ADD29R,1.3208X0.5588*%
%ADD30R,1.8000X1.8400*%
%ADD31R,3.3000X2.2000*%
%ADD32R,1.0000X2.2000*%
G04:AMPARAMS|DCode=33|XSize=1.1mm|YSize=1.73mm|CornerRadius=0.11mm|HoleSize=0mm|Usage=FLASHONLY|Rotation=270.000|XOffset=0mm|YOffset=0mm|HoleType=Round|Shape=RoundedRectangle|*
%AMROUNDEDRECTD33*
21,1,1.1000,1.5100,0,0,270.0*
21,1,0.8800,1.7300,0,0,270.0*
1,1,0.2200,-0.7550,-0.4400*
1,1,0.2200,-0.7550,0.4400*
1,1,0.2200,0.7550,0.4400*
1,1,0.2200,0.7550,-0.4400*
%
%ADD33ROUNDEDRECTD33*%
%ADD34R,1.0000X1.8000*%
%ADD35R,0.7000X0.2500*%
%ADD36R,0.2500X0.7000*%
%ADD37R,1.0000X0.8000*%
G04:AMPARAMS|DCode=38|XSize=1.8741mm|YSize=0.5434mm|CornerRadius=0.2717mm|HoleSize=0mm|Usage=FLASHONLY|Rotation=180.000|XOffset=0mm|YOffset=0mm|HoleType=Round|Shape=RoundedRectangle|*
%AMROUNDEDRECTD38*
21,1,1.8741,0.0000,0,0,180.0*
21,1,1.3307,0.5434,0,0,180.0*
1,1,0.5434,-0.6653,0.0000*
1,1,0.5434,0.6653,0.0000*
1,1,0.5434,0.6653,0.0000*
1,1,0.5434,-0.6653,0.0000*
%
%ADD38ROUNDEDRECTD38*%
%ADD39R,1.8741X0.5434*%
%ADD40R,2.0000X2.0000*%
%ADD41R,0.8000X0.6000*%
%ADD42O,2.6000X0.7000*%
%ADD43R,1.2000X1.4000*%
%ADD44R,0.6000X0.8000*%
%ADD45R,1.3500X0.6000*%
%ADD46R,0.6000X1.3500*%
%ADD47R,1.4000X1.1000*%
%ADD48R,1.4000X0.9000*%
%ADD49C,1.7397*%
%ADD50R,0.5800X1.7300*%
G36*
X889000Y871220D02*
X894865D01*
Y840920D01*
X875535D01*
Y871220D01*
X881400D01*
Y886220D01*
X889000D01*
Y871220D01*
D02*
G37*
D17*
X823110Y525930D02*
D03*
D18*
Y512930D02*
D03*
D19*
X810110Y525930D02*
D03*
D20*
Y512930D02*
D03*
D21*
X1277620Y680598D02*
D03*
Y650598D02*
D03*
X1310007Y650480D02*
D03*
Y680480D02*
D03*
X941349Y521730D02*
D03*
Y491730D02*
D03*
X1032407Y521730D02*
D03*
Y491730D02*
D03*
X973785Y521730D02*
D03*
Y491730D02*
D03*
X909320Y521730D02*
D03*
Y491730D02*
D03*
X876300Y521730D02*
D03*
Y491730D02*
D03*
X1332230Y834630D02*
D03*
Y864630D02*
D03*
X1362710D02*
D03*
Y834630D02*
D03*
X760730Y733030D02*
D03*
Y763030D02*
D03*
X1145540Y557770D02*
D03*
Y587770D02*
D03*
X1178560Y544590D02*
D03*
Y514590D02*
D03*
X1143000Y782080D02*
D03*
Y752080D02*
D03*
X1187450Y693660D02*
D03*
Y723660D02*
D03*
X900200Y905490D02*
D03*
Y935490D02*
D03*
X870990Y905490D02*
D03*
Y935490D02*
D03*
X1102068Y873940D02*
D03*
Y903940D02*
D03*
X753110Y938290D02*
D03*
Y908290D02*
D03*
X1416050Y502680D02*
D03*
Y472680D02*
D03*
D22*
X1559560Y478210D02*
D03*
Y447210D02*
D03*
X930680Y877570D02*
D03*
Y846570D02*
D03*
X726440Y763530D02*
D03*
Y732530D02*
D03*
X932180Y669111D02*
D03*
Y700111D02*
D03*
Y615690D02*
D03*
Y646690D02*
D03*
X795020Y884180D02*
D03*
Y853180D02*
D03*
X683260Y884180D02*
D03*
Y853180D02*
D03*
X840510Y877570D02*
D03*
Y846570D02*
D03*
D23*
X1595120Y463550D02*
D03*
X1583690D02*
D03*
X1595120Y483870D02*
D03*
X1583690D02*
D03*
D24*
X643535Y666500D02*
D03*
Y674500D02*
D03*
Y730500D02*
D03*
Y722500D02*
D03*
D25*
Y681000D02*
D03*
Y686000D02*
D03*
Y716000D02*
D03*
Y711000D02*
D03*
Y706000D02*
D03*
Y691000D02*
D03*
Y696000D02*
D03*
Y701000D02*
D03*
D26*
X1512570Y675640D02*
D03*
Y689640D02*
D03*
Y703640D02*
D03*
X1526570Y675640D02*
D03*
Y689640D02*
D03*
Y703640D02*
D03*
X1540570Y675640D02*
D03*
Y689640D02*
D03*
Y703640D02*
D03*
D27*
X1603770Y587140D02*
D03*
X1591070D02*
D03*
X1578370D02*
D03*
X1565670D02*
D03*
X1552970D02*
D03*
X1540270D02*
D03*
X1527570D02*
D03*
X1514870D02*
D03*
X1502170D02*
D03*
X1489470D02*
D03*
X1476770D02*
D03*
X1464070D02*
D03*
X1451370D02*
D03*
X1438670D02*
D03*
Y762140D02*
D03*
X1451370D02*
D03*
X1464070D02*
D03*
X1476770D02*
D03*
X1489470D02*
D03*
X1502170D02*
D03*
X1514870D02*
D03*
X1527570D02*
D03*
X1540270D02*
D03*
X1552970D02*
D03*
X1565670D02*
D03*
X1578370D02*
D03*
X1591070D02*
D03*
X1603770D02*
D03*
D28*
X1426170Y617490D02*
D03*
Y630190D02*
D03*
Y642890D02*
D03*
Y655590D02*
D03*
Y668290D02*
D03*
Y680990D02*
D03*
Y693690D02*
D03*
Y706390D02*
D03*
Y719090D02*
D03*
Y731790D02*
D03*
D29*
X747776Y859282D02*
D03*
Y868680D02*
D03*
Y878078D02*
D03*
X720344D02*
D03*
Y859282D02*
D03*
D30*
X689370Y797560D02*
D03*
X659370D02*
D03*
X742710Y511810D02*
D03*
X712710D02*
D03*
X1220710Y916676D02*
D03*
X1250710D02*
D03*
Y949960D02*
D03*
X1220710D02*
D03*
X719060Y822960D02*
D03*
X749060D02*
D03*
D31*
X1043648Y932910D02*
D03*
D32*
X1066648Y872910D02*
D03*
X1043648D02*
D03*
X1020648D02*
D03*
D33*
X1062990Y526970D02*
D03*
Y496770D02*
D03*
X1003300Y526970D02*
D03*
Y496770D02*
D03*
X836742Y905283D02*
D03*
Y935483D02*
D03*
X939800Y905490D02*
D03*
Y935690D02*
D03*
X1132548Y873940D02*
D03*
Y904140D02*
D03*
X717550Y938390D02*
D03*
Y908190D02*
D03*
D34*
X712210Y546100D02*
D03*
X743210D02*
D03*
X1282960Y565150D02*
D03*
X1251960D02*
D03*
X1369320D02*
D03*
X1338320D02*
D03*
X1088390Y841950D02*
D03*
X1057390D02*
D03*
X1000244Y841950D02*
D03*
X1031244D02*
D03*
D35*
X796860Y506930D02*
D03*
Y511930D02*
D03*
Y516930D02*
D03*
Y521930D02*
D03*
Y526930D02*
D03*
Y531930D02*
D03*
X836360D02*
D03*
Y526930D02*
D03*
Y521930D02*
D03*
Y516930D02*
D03*
Y511930D02*
D03*
Y506930D02*
D03*
D36*
X804110Y539180D02*
D03*
X809110D02*
D03*
X814110D02*
D03*
X819110D02*
D03*
X824110D02*
D03*
X829110D02*
D03*
Y499680D02*
D03*
X824110D02*
D03*
X819110D02*
D03*
X814110D02*
D03*
X809110D02*
D03*
X804110D02*
D03*
D37*
X1306516Y842130D02*
D03*
Y857130D02*
D03*
X1388582Y842130D02*
D03*
Y857130D02*
D03*
X1212850Y573920D02*
D03*
Y558920D02*
D03*
X1117600Y573920D02*
D03*
Y558920D02*
D03*
Y698620D02*
D03*
Y713620D02*
D03*
X1211580Y701160D02*
D03*
Y716160D02*
D03*
D38*
X1323039Y905510D02*
D03*
Y918210D02*
D03*
Y930910D02*
D03*
Y943610D02*
D03*
X1369361D02*
D03*
Y930910D02*
D03*
Y918210D02*
D03*
D39*
Y905510D02*
D03*
D40*
X1306516Y791210D02*
D03*
X1432560Y938530D02*
D03*
X1389380Y791210D02*
D03*
X888634Y797926D02*
D03*
X922020Y797926D02*
D03*
X857250D02*
D03*
D41*
X1131630Y521970D02*
D03*
X1151830Y531470D02*
D03*
Y512470D02*
D03*
D42*
X794740Y736600D02*
D03*
Y723900D02*
D03*
Y711200D02*
D03*
Y698500D02*
D03*
Y685800D02*
D03*
Y673100D02*
D03*
Y660400D02*
D03*
Y647700D02*
D03*
Y635000D02*
D03*
Y622300D02*
D03*
X886740Y736600D02*
D03*
Y723900D02*
D03*
Y711200D02*
D03*
Y698500D02*
D03*
Y685800D02*
D03*
Y673100D02*
D03*
Y660400D02*
D03*
Y647700D02*
D03*
Y635000D02*
D03*
Y622300D02*
D03*
D43*
X959240Y645590D02*
D03*
Y667590D02*
D03*
X976240D02*
D03*
Y645590D02*
D03*
D44*
X1178560Y590490D02*
D03*
X1188060Y570290D02*
D03*
X1169060D02*
D03*
D45*
X1199450Y762000D02*
D03*
X1175450Y752500D02*
D03*
Y771500D02*
D03*
D46*
X1150620Y692850D02*
D03*
X1141120Y716850D02*
D03*
X1160120D02*
D03*
D47*
X709090Y681870D02*
D03*
D48*
Y664870D02*
D03*
X731090D02*
D03*
Y683870D02*
D03*
D49*
X885200Y859760D02*
D03*
D50*
X870200Y877570D02*
D03*
X900200D02*
D03*
M02*
