G04*
G04 #@! TF.GenerationSoftware,Altium Limited,Altium Designer,23.2.1 (34)*
G04*
G04 Layer_Color=16711935*
%FSLAX44Y44*%
%MOMM*%
G71*
G04*
G04 #@! TF.SameCoordinates,75154B13-1296-4508-9C84-23632F313CF3*
G04*
G04*
G04 #@! TF.FilePolarity,Positive*
G04*
G01*
G75*
%ADD15C,0.1000*%
D15*
X666750Y994410D02*
G03*
X641350Y969010I0J-25400D01*
G01*
X615950Y791210D02*
G03*
X641350Y816610I0J25400D01*
G01*
X592660Y791210D02*
G03*
X567260Y765810I-0J-25400D01*
G01*
Y640080D02*
G03*
X592660Y614680I25399J-0D01*
G01*
X641350Y589280D02*
G03*
X615950Y614680I-25399J1D01*
G01*
X641350Y429260D02*
G03*
X673100Y397510I31749J-1D01*
G01*
X1598930D02*
G03*
X1624330Y422910I2J25398D01*
G01*
X1651000Y577850D02*
G03*
X1625600Y554990I-1272J-24128D01*
G01*
X1680210Y577850D02*
G03*
X1684020Y581660I2J3808D01*
G01*
X1684020Y769620D02*
G03*
X1682750Y770890I-1270J0D01*
G01*
X1625600Y796290D02*
G03*
X1651000Y770890I25400J0D01*
G01*
X1624330Y966470D02*
G03*
X1596390Y994410I-24083J3857D01*
G01*
X704850Y994410D02*
X1596390D01*
X666750D02*
X704850D01*
X641350Y816610D02*
Y969010D01*
X592660Y791210D02*
X615950D01*
X567260Y640080D02*
Y765810D01*
X592660Y614680D02*
X615950Y614680D01*
X641350Y429260D02*
X641350Y589280D01*
X673100Y397510D02*
X1598930D01*
X1624330Y422910D02*
X1625600Y554990D01*
X1651000Y577850D02*
X1680210D01*
X1684020Y581660D02*
Y769620D01*
X1651000Y770890D02*
X1682750D01*
X1624330Y966470D02*
X1625600Y796290D01*
M02*
