G04*
G04 #@! TF.GenerationSoftware,Altium Limited,Altium Designer,23.2.1 (34)*
G04*
G04 Layer_Physical_Order=1*
G04 Layer_Color=255*
%FSLAX44Y44*%
%MOMM*%
G71*
G04*
G04 #@! TF.SameCoordinates,75154B13-1296-4508-9C84-23632F313CF3*
G04*
G04*
G04 #@! TF.FilePolarity,Positive*
G04*
G01*
G75*
%ADD16C,0.2540*%
%ADD21R,1.8400X1.8000*%
%ADD22R,1.8000X1.0000*%
%ADD23R,0.7000X1.2000*%
%ADD24R,1.1500X0.6000*%
%ADD25R,1.1500X0.3000*%
%ADD26R,0.9000X0.9000*%
%ADD27R,0.9000X1.5000*%
%ADD28R,1.5000X0.9000*%
%ADD29R,1.3208X0.5588*%
%ADD30R,1.8000X1.8400*%
%ADD31R,3.3000X2.2000*%
%ADD32R,1.0000X2.2000*%
G04:AMPARAMS|DCode=33|XSize=1.1mm|YSize=1.73mm|CornerRadius=0.11mm|HoleSize=0mm|Usage=FLASHONLY|Rotation=270.000|XOffset=0mm|YOffset=0mm|HoleType=Round|Shape=RoundedRectangle|*
%AMROUNDEDRECTD33*
21,1,1.1000,1.5100,0,0,270.0*
21,1,0.8800,1.7300,0,0,270.0*
1,1,0.2200,-0.7550,-0.4400*
1,1,0.2200,-0.7550,0.4400*
1,1,0.2200,0.7550,0.4400*
1,1,0.2200,0.7550,-0.4400*
%
%ADD33ROUNDEDRECTD33*%
%ADD34R,1.0000X1.8000*%
%ADD35R,0.7000X0.2500*%
%ADD36R,0.2500X0.7000*%
%ADD37R,1.0000X0.8000*%
G04:AMPARAMS|DCode=38|XSize=1.8741mm|YSize=0.5434mm|CornerRadius=0.2717mm|HoleSize=0mm|Usage=FLASHONLY|Rotation=180.000|XOffset=0mm|YOffset=0mm|HoleType=Round|Shape=RoundedRectangle|*
%AMROUNDEDRECTD38*
21,1,1.8741,0.0000,0,0,180.0*
21,1,1.3307,0.5434,0,0,180.0*
1,1,0.5434,-0.6653,0.0000*
1,1,0.5434,0.6653,0.0000*
1,1,0.5434,0.6653,0.0000*
1,1,0.5434,-0.6653,0.0000*
%
%ADD38ROUNDEDRECTD38*%
%ADD39R,1.8741X0.5434*%
%ADD40R,2.0000X2.0000*%
%ADD41R,0.8000X0.6000*%
%ADD42O,2.6000X0.7000*%
%ADD43R,1.2000X1.4000*%
%ADD44R,0.6000X0.8000*%
%ADD45R,1.3500X0.6000*%
%ADD46R,0.6000X1.3500*%
%ADD47R,1.4000X1.1000*%
%ADD48R,1.4000X0.9000*%
%ADD49C,1.7397*%
%ADD50R,0.5800X1.7300*%
%ADD65R,2.7500X2.7500*%
%ADD83R,1.5700X1.5700*%
%ADD84C,1.5700*%
%ADD85R,1.5500X1.5500*%
%ADD86C,1.5500*%
%ADD89R,1.5700X1.5700*%
%ADD92C,0.8000*%
%ADD93C,0.5000*%
%ADD94C,1.6000*%
%ADD95R,1.6000X1.6000*%
%ADD96O,1.8000X1.0000*%
%ADD97C,0.6500*%
%ADD98O,2.1000X1.0000*%
%ADD99C,0.3000*%
%ADD100R,1.5000X1.5000*%
%ADD101C,1.5000*%
%ADD102C,1.5080*%
%ADD103R,1.5080X1.5080*%
%ADD104C,3.0000*%
%ADD105C,1.2100*%
%ADD106C,1.2700*%
G36*
X1613345Y991722D02*
X1621642Y983425D01*
X1625258Y972263D01*
X1624330Y966470D01*
X1624330D01*
X1624330Y966470D01*
X1625600Y796290D01*
X1626088Y791335D01*
X1629881Y782178D01*
X1636888Y775171D01*
X1643603Y772389D01*
X1642609Y767389D01*
X1616770D01*
X1614826Y766584D01*
X1614021Y764640D01*
Y584640D01*
X1614826Y582696D01*
X1616770Y581891D01*
X1643308D01*
X1644166Y576891D01*
X1637380Y574489D01*
X1630372Y568182D01*
X1626311Y559673D01*
X1625600Y554990D01*
X1625600D01*
X1625600Y554990D01*
X1624330Y422910D01*
X1624330Y417858D01*
X1620464Y408522D01*
X1613318Y401376D01*
X1603982Y397510D01*
X1598930Y397510D01*
X673100D01*
X666784Y397510D01*
X655115Y402343D01*
X646183Y411275D01*
X641350Y422944D01*
X641350Y429260D01*
X641350Y589280D01*
X640862Y594235D01*
X637070Y603392D01*
X630062Y610400D01*
X620905Y614192D01*
X615950Y614680D01*
X615950Y614680D01*
X615950Y614680D01*
X592660Y614680D01*
X587608Y614680D01*
X578272Y618547D01*
X571127Y625692D01*
X567260Y635028D01*
X567260Y640080D01*
Y765810D01*
X567260Y770862D01*
X571127Y780198D01*
X578272Y787343D01*
X587608Y791210D01*
X592660Y791210D01*
X592660Y791210D01*
X615950D01*
X620905Y791698D01*
X630061Y795491D01*
X637069Y802498D01*
X640862Y811655D01*
X641350Y816610D01*
Y969010D01*
Y974062D01*
X645217Y983398D01*
X652362Y990543D01*
X661698Y994410D01*
X666750D01*
X666750Y994410D01*
X704850D01*
X1596390Y994410D01*
X1602183Y995338D01*
X1613345Y991722D01*
D02*
G37*
%LPC*%
G36*
X1544772Y987534D02*
X1536248D01*
X1530347Y981634D01*
X1527810Y981568D01*
X1525273Y981634D01*
X1519372Y987534D01*
X1510848D01*
X1505000Y981686D01*
X1500000Y981941D01*
Y987534D01*
X1479420D01*
Y966954D01*
X1484255D01*
Y953770D01*
X1485853Y949913D01*
X1545855Y889910D01*
X1543784Y884910D01*
X1539195D01*
X1536194Y881909D01*
X1533482D01*
X1445186Y970206D01*
X1440180Y972279D01*
X1260396D01*
X1255391Y970206D01*
X1250704Y965519D01*
X1249122Y961700D01*
X1239170D01*
Y938220D01*
X1262250D01*
Y942048D01*
X1276792D01*
X1281971Y936868D01*
Y925882D01*
X1276971Y923811D01*
X1274952Y925830D01*
X1267588D01*
X1267250Y925492D01*
X1262250Y927563D01*
Y928416D01*
X1239170D01*
Y904936D01*
X1239170D01*
X1239175Y899936D01*
X1232839Y893599D01*
X1230765Y888594D01*
Y883339D01*
X1229254Y881828D01*
Y874712D01*
X1234286Y869680D01*
X1241402D01*
X1246434Y874712D01*
Y881828D01*
X1246816Y887555D01*
X1255715Y896454D01*
X1257789Y901460D01*
Y904936D01*
X1262250D01*
Y906678D01*
X1267250Y908388D01*
X1267588Y908050D01*
X1274952D01*
X1276971Y910069D01*
X1281971Y907998D01*
Y883920D01*
X1284044Y878914D01*
X1294571Y868388D01*
X1294148Y864152D01*
X1293398Y862490D01*
X1292541Y862135D01*
X1287854Y857449D01*
X1285781Y852444D01*
Y828655D01*
X1287854Y823649D01*
X1299437Y812067D01*
Y803750D01*
X1294050Y803750D01*
X1293976Y803750D01*
X1289050Y803929D01*
X1289050Y810132D01*
X1283842Y815340D01*
X1276478D01*
X1274667Y813529D01*
X1209431D01*
X1200075Y822886D01*
X1195069Y824959D01*
X1122680D01*
X1117674Y822886D01*
X1062598Y767809D01*
X898282D01*
X896079Y770012D01*
Y785386D01*
X901174D01*
Y810466D01*
X894077D01*
Y838171D01*
X894865D01*
X896809Y838976D01*
X897022Y839491D01*
X919140D01*
Y839030D01*
X942220D01*
Y854110D01*
X919140D01*
Y853649D01*
X897614D01*
Y870226D01*
X897455Y870385D01*
Y871220D01*
X897307Y871961D01*
X897116Y872423D01*
X896696Y873051D01*
X896620Y873102D01*
Y873242D01*
X894865Y873969D01*
X892279D01*
Y887758D01*
X898471Y893950D01*
X911940D01*
Y917030D01*
X888460D01*
X888460Y917030D01*
X886257Y917087D01*
X882393Y921676D01*
X882730Y923950D01*
X882730Y924741D01*
Y947030D01*
X859250D01*
Y942565D01*
X847121D01*
X847078Y942669D01*
X844292Y943823D01*
X829192D01*
X826406Y942669D01*
X825252Y939883D01*
Y931083D01*
X826406Y928297D01*
X829192Y927143D01*
X844292D01*
X847078Y928297D01*
X847123Y928408D01*
X855714D01*
X858733Y925389D01*
X859245Y923408D01*
X859202Y918970D01*
X857846Y917614D01*
X857041Y915670D01*
X857041Y915670D01*
Y900299D01*
X844681Y887939D01*
X830580D01*
X828636Y887134D01*
X828636Y887134D01*
X826151Y884649D01*
X820812D01*
X817275Y888186D01*
X812270Y890259D01*
X806560D01*
Y891720D01*
X802099D01*
Y934328D01*
X805031Y937260D01*
X810132D01*
X815340Y942468D01*
Y949832D01*
X814591Y950581D01*
X816662Y955581D01*
X945758D01*
X993165Y908174D01*
Y857004D01*
X992174Y856594D01*
X992174Y856594D01*
X990904Y855324D01*
X990099Y853380D01*
X990099Y853380D01*
X990099Y853380D01*
Y833060D01*
X990099Y833060D01*
X990904Y831116D01*
X994714Y827306D01*
X996658Y826501D01*
X996658Y826501D01*
X1005548D01*
X1007492Y827306D01*
X1007492Y827306D01*
X1013842Y833656D01*
X1014647Y835600D01*
X1014647Y835600D01*
Y844621D01*
X1030352Y860326D01*
X1031157Y862270D01*
X1031157Y862270D01*
Y885130D01*
X1031158Y885130D01*
X1031157Y885130D01*
X1030352Y887074D01*
X1030352Y887074D01*
X1029082Y888344D01*
X1029082Y888344D01*
X1027138Y889149D01*
X1027138Y889149D01*
X1015708D01*
X1013764Y888344D01*
X1013764Y888344D01*
X1012322Y886902D01*
X1007322Y888455D01*
Y911106D01*
X1005249Y916112D01*
X953696Y967665D01*
X948690Y969739D01*
X707390D01*
X702384Y967665D01*
X654364Y919645D01*
X652291Y914640D01*
Y883920D01*
Y809300D01*
X647830D01*
Y785820D01*
X661099D01*
X669831Y777088D01*
Y753865D01*
X671455Y749945D01*
Y729970D01*
X669440Y727955D01*
X651825D01*
Y728040D01*
X643704D01*
X643450Y728607D01*
X643431Y729165D01*
X646180Y734738D01*
X649056Y735929D01*
X651446Y741700D01*
X649056Y747471D01*
X643285Y749861D01*
X632285D01*
X630996Y749327D01*
X625677Y752279D01*
X625290Y754979D01*
X631582Y761271D01*
X647287D01*
X649098Y759460D01*
X656462D01*
X661670Y764668D01*
Y772032D01*
X656462Y777240D01*
X649098D01*
X647287Y775429D01*
X628650D01*
X623644Y773355D01*
X610945Y760656D01*
X608871Y755650D01*
Y750888D01*
X603871Y748251D01*
X599985Y749861D01*
X591985D01*
X586214Y747471D01*
X583824Y741700D01*
X586214Y735929D01*
X591985Y733539D01*
X593267D01*
X595338Y728539D01*
X594435Y727635D01*
X592361Y722630D01*
Y676910D01*
X594435Y671905D01*
X597878Y668461D01*
X595807Y663461D01*
X591985D01*
X586214Y661071D01*
X583824Y655300D01*
X586214Y649529D01*
X591985Y647139D01*
X599985D01*
X602601Y648222D01*
X607601Y644882D01*
Y641350D01*
X609674Y636344D01*
X618564Y627454D01*
X623570Y625381D01*
X668898D01*
X706131Y588148D01*
Y557640D01*
X704670D01*
Y534560D01*
X705381D01*
Y523550D01*
X701170D01*
Y500070D01*
X724250D01*
Y523550D01*
X719539D01*
Y534560D01*
X719750D01*
Y545799D01*
X720289Y547100D01*
Y591080D01*
X718215Y596086D01*
X676835Y637466D01*
X671830Y639539D01*
X626502D01*
X622802Y643239D01*
X623231Y646280D01*
X628250Y648810D01*
X632285Y647139D01*
X643285D01*
X649056Y649529D01*
X651446Y655300D01*
X649056Y661071D01*
X648990Y666500D01*
X653348Y669045D01*
X668170D01*
X674323Y662893D01*
X678180Y661295D01*
X699550D01*
Y657830D01*
X703635D01*
Y630760D01*
X705232Y626903D01*
X737870Y594265D01*
Y589408D01*
X743078Y584200D01*
X750442D01*
X755650Y589408D01*
Y596772D01*
X750442Y601980D01*
X745585D01*
X714545Y633020D01*
Y655620D01*
X716992Y656944D01*
X722741Y655564D01*
X723708Y653724D01*
X724078Y652830D01*
X722630Y651382D01*
Y644018D01*
X727838Y638810D01*
X735202D01*
X740410Y644018D01*
Y651382D01*
X738962Y652830D01*
X740630Y657830D01*
X744422Y660746D01*
X758362D01*
X771629Y647479D01*
X768147Y643890D01*
X760858D01*
X755650Y638682D01*
Y631318D01*
X760858Y626110D01*
X768222D01*
X772988Y630876D01*
X780411D01*
X780617Y630377D01*
X785240Y628462D01*
X804240D01*
X808863Y630377D01*
X810778Y635000D01*
X808863Y639623D01*
X808863Y643077D01*
X810778Y647700D01*
X809848Y649945D01*
X812774Y654945D01*
X818160D01*
X854663Y618443D01*
X858520Y616845D01*
X874627D01*
X877240Y615762D01*
X896240D01*
X900863Y617677D01*
X902778Y622300D01*
X902320Y623404D01*
X906559Y626236D01*
X918463Y614333D01*
X920640Y613431D01*
Y608150D01*
X920640D01*
X919641Y603564D01*
X797560D01*
X794644Y602356D01*
X762894Y570606D01*
X761686Y567690D01*
Y534670D01*
X762894Y531754D01*
X780378Y514270D01*
X778307Y509270D01*
X777368D01*
X772160Y504062D01*
Y496698D01*
X776926Y491932D01*
Y490220D01*
X778134Y487304D01*
X781944Y483494D01*
X784860Y482286D01*
X804731D01*
X805180Y481202D01*
Y473838D01*
X806282Y472735D01*
X804211Y467735D01*
X766800D01*
X749675Y484860D01*
Y500070D01*
X754250D01*
Y523550D01*
X731170D01*
Y500070D01*
X738765D01*
Y482600D01*
X740363Y478743D01*
X760683Y458423D01*
X764540Y456825D01*
X828040D01*
X830862Y457994D01*
X834950Y456905D01*
X836620Y456074D01*
X836791Y455480D01*
X836677Y454669D01*
X835285Y451306D01*
Y424387D01*
X830577Y419680D01*
X828040Y419614D01*
X825503Y419680D01*
X819602Y425580D01*
X811078D01*
X805050Y419552D01*
Y411028D01*
X811078Y405000D01*
X819602D01*
X825503Y410900D01*
X828040Y410966D01*
X830577Y410900D01*
X836478Y405000D01*
X845002D01*
X850903Y410900D01*
X853440Y410966D01*
X855977Y410900D01*
X861878Y405000D01*
X870402D01*
X876303Y410900D01*
X878840Y410966D01*
X881377Y410900D01*
X887278Y405000D01*
X895802D01*
X901703Y410900D01*
X904240Y410966D01*
X906777Y410900D01*
X912678Y405000D01*
X921202D01*
X927230Y411028D01*
Y419552D01*
X921202Y425580D01*
X912678D01*
X906777Y419680D01*
X904240Y419614D01*
X901703Y419680D01*
X898619Y422763D01*
Y432678D01*
X903362Y437421D01*
X1117600D01*
X1122606Y439495D01*
X1143392Y460281D01*
X1248018D01*
X1261651Y446648D01*
Y426720D01*
X1263725Y421715D01*
X1273885Y411554D01*
X1278890Y409481D01*
X1405660D01*
Y406170D01*
X1426440D01*
Y411339D01*
X1431440Y411876D01*
X1437146Y406170D01*
X1445754D01*
X1451571Y411988D01*
X1454150Y412129D01*
X1456729Y411988D01*
X1462546Y406170D01*
X1471154D01*
X1476971Y411988D01*
X1479550Y412129D01*
X1482129Y411988D01*
X1487946Y406170D01*
X1496554D01*
X1502371Y411988D01*
X1504950Y412129D01*
X1507529Y411988D01*
X1513346Y406170D01*
X1521954D01*
X1528040Y412256D01*
Y420864D01*
X1523105Y425798D01*
Y449593D01*
X1528105Y451664D01*
X1530099Y449670D01*
X1537464D01*
X1542671Y454878D01*
Y458711D01*
X1554092Y470131D01*
X1562560D01*
X1563861Y470670D01*
X1571100D01*
Y470670D01*
X1576040Y470525D01*
X1577650Y469340D01*
Y455010D01*
X1589730D01*
Y470330D01*
X1589730Y472090D01*
X1593388Y475330D01*
X1601160D01*
Y492410D01*
X1600575D01*
Y513583D01*
X1604010Y517018D01*
Y524382D01*
X1598802Y529590D01*
X1598799Y529596D01*
X1596814Y534590D01*
X1597959Y537354D01*
Y577100D01*
X1598110D01*
Y587046D01*
X1598149Y587140D01*
X1598110Y587234D01*
Y597180D01*
X1587103D01*
X1585032Y602180D01*
X1587500Y604648D01*
Y612012D01*
X1582292Y617220D01*
X1574928D01*
X1574413Y616706D01*
X1568586Y617836D01*
X1549776Y636646D01*
X1546860Y637854D01*
X1474470D01*
X1471554Y636646D01*
X1446252Y611344D01*
X1436210D01*
Y623150D01*
Y635850D01*
Y648550D01*
Y661250D01*
Y673950D01*
Y686650D01*
Y699350D01*
Y709497D01*
X1441210Y711568D01*
X1442848Y709930D01*
X1450212D01*
X1455420Y715138D01*
Y722502D01*
X1450212Y727710D01*
X1442848D01*
X1441210Y726072D01*
X1436210Y726130D01*
Y726130D01*
X1416130D01*
Y712050D01*
Y699350D01*
Y686650D01*
Y673950D01*
Y661250D01*
Y648550D01*
Y635850D01*
Y626118D01*
X1411130Y624552D01*
X1408302Y627380D01*
X1400938D01*
X1395730Y622172D01*
Y614808D01*
X1394295Y611344D01*
X1288058D01*
X1284346Y615056D01*
X1281430Y616264D01*
X1265594D01*
X1262380Y617595D01*
X1243050D01*
X1238645Y622000D01*
X1240716Y627000D01*
X1246672D01*
X1249952Y630280D01*
X1250524Y630043D01*
X1293695D01*
X1296611Y631251D01*
X1304299Y638940D01*
X1321747D01*
Y661356D01*
X1337110D01*
Y661176D01*
X1342927Y655359D01*
X1343069Y652780D01*
X1342927Y650201D01*
X1337110Y644384D01*
Y635776D01*
X1343196Y629690D01*
X1351803D01*
X1357890Y635776D01*
Y644384D01*
X1352072Y650201D01*
X1351930Y652780D01*
X1352072Y655359D01*
X1357621Y660908D01*
X1360200Y661049D01*
X1362778Y660908D01*
X1368596Y655090D01*
X1377203D01*
X1383290Y661176D01*
Y669784D01*
X1377472Y675601D01*
X1377330Y678180D01*
X1377472Y680759D01*
X1383290Y686576D01*
Y695184D01*
X1377472Y701001D01*
X1377330Y703580D01*
X1377472Y706159D01*
X1383290Y711976D01*
Y720584D01*
X1377203Y726670D01*
X1368596D01*
X1362510Y720584D01*
Y711976D01*
X1368327Y706159D01*
X1368469Y703580D01*
X1368327Y701001D01*
X1362778Y695452D01*
X1360200Y695311D01*
X1357621Y695452D01*
X1351803Y701270D01*
X1343196D01*
X1339640Y697714D01*
X1320698Y716656D01*
X1317782Y717864D01*
X1280160D01*
X1277244Y716656D01*
X1274704Y714116D01*
X1273496Y711200D01*
Y692138D01*
X1265880D01*
Y681308D01*
X1263182Y680190D01*
X1251572Y668580D01*
X1247153Y672999D01*
X1246889Y675640D01*
X1247153Y678281D01*
X1252846Y683974D01*
Y692706D01*
X1246672Y698880D01*
X1237941D01*
X1231766Y692706D01*
Y683974D01*
X1237460Y678281D01*
X1237724Y675640D01*
X1237460Y672999D01*
X1231766Y667306D01*
Y658574D01*
X1237460Y652881D01*
X1237724Y650240D01*
X1237460Y647599D01*
X1231766Y641906D01*
Y635950D01*
X1226767Y633878D01*
X1206547Y654097D01*
X1202690Y655695D01*
X1092967D01*
X1091305Y657357D01*
Y675640D01*
X1089707Y679497D01*
X1020554Y748651D01*
X1022625Y753651D01*
X1065530D01*
X1070536Y755724D01*
X1125612Y810801D01*
X1192137D01*
X1201494Y801444D01*
X1206499Y799371D01*
X1274667D01*
X1276478Y797560D01*
X1283842D01*
X1288976Y802693D01*
X1293976Y802589D01*
X1293976Y798781D01*
X1293976Y798750D01*
Y778670D01*
X1319056D01*
Y803750D01*
X1313595D01*
Y814999D01*
X1312129Y818538D01*
X1314078Y822522D01*
X1315073Y823501D01*
X1320490D01*
Y823090D01*
X1340833D01*
X1343970Y823090D01*
X1348470Y821882D01*
X1351876Y818476D01*
X1353820Y817671D01*
X1353820Y817671D01*
X1381902D01*
Y803750D01*
X1376840D01*
Y778670D01*
X1383925D01*
Y759460D01*
X1385523Y755603D01*
X1400763Y740363D01*
X1404620Y738765D01*
X1484630D01*
X1488487Y740363D01*
X1488520Y740395D01*
X1493520Y738324D01*
Y734188D01*
X1498728Y728980D01*
X1506092D01*
X1511300Y734188D01*
Y741552D01*
X1507625Y745227D01*
Y752100D01*
X1598110D01*
Y762046D01*
X1598149Y762140D01*
Y785100D01*
X1596075Y790106D01*
X1578610Y807571D01*
Y810132D01*
X1573402Y815340D01*
X1571980Y818775D01*
X1577387Y824183D01*
X1578985Y828040D01*
Y892810D01*
X1577387Y896667D01*
X1545965Y928090D01*
Y968147D01*
X1550800Y972982D01*
Y981506D01*
X1544772Y987534D01*
D02*
G37*
G36*
X1117949Y985400D02*
X1109631D01*
X1103750Y979519D01*
Y971201D01*
X1109631Y965320D01*
X1117949D01*
X1123830Y971201D01*
Y979519D01*
X1117949Y985400D01*
D02*
G37*
G36*
X911940Y947030D02*
X888460D01*
Y923950D01*
X911940D01*
Y928511D01*
X929461D01*
X929464Y928504D01*
X932250Y927350D01*
X947350D01*
X950136Y928504D01*
X951290Y931290D01*
Y940090D01*
X950136Y942876D01*
X947350Y944030D01*
X932250D01*
X929464Y942876D01*
X929378Y942669D01*
X911940D01*
Y947030D01*
D02*
G37*
G36*
X1224152Y980440D02*
X1216788D01*
X1211580Y975232D01*
Y967868D01*
X1212748Y966700D01*
X1211668Y961700D01*
X1209170D01*
Y938220D01*
X1213631D01*
Y928416D01*
X1209170D01*
Y923755D01*
X1198616D01*
X1193610Y921681D01*
X1177365Y905435D01*
X1175291Y900430D01*
Y861452D01*
X1162868Y849029D01*
X1105513D01*
X1103579Y853496D01*
X1106376Y856981D01*
X1110958D01*
X1110958Y856981D01*
X1112902Y857786D01*
X1116712Y861596D01*
X1117517Y863540D01*
X1117517Y863540D01*
Y883860D01*
X1116712Y885804D01*
X1116712Y885804D01*
X1114733Y887783D01*
X1113903Y891925D01*
X1113901Y891961D01*
X1117080Y896961D01*
X1122209D01*
X1122212Y896954D01*
X1124998Y895800D01*
X1140098D01*
X1142884Y896954D01*
X1144038Y899740D01*
Y908540D01*
X1142884Y911326D01*
X1140098Y912480D01*
X1124998D01*
X1122212Y911326D01*
X1122126Y911119D01*
X1113808D01*
Y915480D01*
X1090328D01*
Y894149D01*
X1090328Y892400D01*
X1086675Y889149D01*
X1060158D01*
X1060158Y889149D01*
X1060158Y889149D01*
X1058214Y888344D01*
X1058214Y888344D01*
X1056944Y887074D01*
X1056944Y887074D01*
X1056139Y885130D01*
X1056139Y885130D01*
Y862270D01*
X1056944Y860326D01*
X1056944Y860326D01*
X1059484Y857786D01*
X1061428Y856981D01*
X1061428Y856981D01*
X1069179D01*
X1077729Y848431D01*
Y833060D01*
X1078534Y831116D01*
X1078534Y831116D01*
X1081074Y828576D01*
X1081311Y828478D01*
Y814462D01*
X1070218Y803369D01*
X934560D01*
Y810466D01*
X909480D01*
Y785386D01*
X934560D01*
Y789211D01*
X1073150D01*
X1078156Y791284D01*
X1093395Y806525D01*
X1095469Y811530D01*
Y823151D01*
X1095718Y827771D01*
X1097662Y828576D01*
X1097662Y828576D01*
X1098932Y829846D01*
X1098932Y829846D01*
X1099296Y830725D01*
X1099737Y831790D01*
X1099737Y831790D01*
X1103189Y834871D01*
X1165800D01*
X1170805Y836944D01*
X1187375Y853514D01*
X1189449Y858520D01*
Y897498D01*
X1201548Y909597D01*
X1209170D01*
Y904936D01*
X1232250D01*
Y928416D01*
X1227789D01*
Y938220D01*
X1232250D01*
Y961700D01*
X1228933D01*
X1228192Y966700D01*
X1229360Y967868D01*
Y975232D01*
X1224152Y980440D01*
D02*
G37*
G36*
X1266802Y861460D02*
X1259686D01*
X1254654Y856428D01*
Y849312D01*
X1259686Y844280D01*
X1266802D01*
X1271834Y849312D01*
Y856428D01*
X1266802Y861460D01*
D02*
G37*
G36*
X1225422Y770890D02*
X1218058D01*
X1214623Y767455D01*
X1208740D01*
Y767540D01*
X1190160D01*
Y760617D01*
X1190160Y758836D01*
X1189584Y758417D01*
X1187880Y758284D01*
X1184740Y758040D01*
Y758040D01*
X1166160D01*
Y746960D01*
X1174948D01*
X1175950Y746545D01*
X1179950D01*
X1181995Y744500D01*
Y735200D01*
X1175710D01*
Y712120D01*
X1191733D01*
X1195150Y710705D01*
X1195639D01*
X1199344Y705705D01*
X1199190Y705200D01*
X1199040Y705200D01*
X1175710D01*
Y698875D01*
X1170660D01*
X1166590Y702945D01*
X1165660Y707560D01*
X1165660Y707560D01*
X1165660Y707560D01*
Y726140D01*
X1154580D01*
Y707560D01*
X1154665D01*
Y702471D01*
X1154665Y702140D01*
X1153677Y702140D01*
X1145080D01*
Y683560D01*
X1145165D01*
Y681990D01*
X1146763Y678133D01*
X1154430Y670465D01*
Y666878D01*
X1159638Y661670D01*
X1167002D01*
X1172210Y666878D01*
Y674242D01*
X1167002Y679450D01*
X1160875D01*
X1156160Y684165D01*
Y690874D01*
X1161160Y692945D01*
X1164543Y689563D01*
X1168400Y687965D01*
X1175710D01*
Y682120D01*
X1198217Y682120D01*
X1200697Y681415D01*
X1203378Y680160D01*
X1207898Y675640D01*
X1215262D01*
X1220470Y680848D01*
Y688212D01*
X1219062Y689620D01*
X1219120Y694620D01*
X1219120D01*
Y704620D01*
X1219120Y707700D01*
X1219120Y712700D01*
Y722700D01*
X1204040D01*
Y722700D01*
X1199190Y723062D01*
Y735200D01*
X1192905D01*
Y746760D01*
X1191307Y750617D01*
X1190465Y751460D01*
X1192536Y756460D01*
X1194122Y756460D01*
Y756460D01*
X1194176Y756460D01*
X1208740D01*
Y756545D01*
X1214623D01*
X1218058Y753110D01*
X1225422D01*
X1228857Y756545D01*
X1263930D01*
X1278843Y741633D01*
X1282700Y740035D01*
X1299713D01*
X1303148Y736600D01*
X1310512D01*
X1315720Y741808D01*
Y749172D01*
X1310512Y754380D01*
X1303148D01*
X1299713Y750945D01*
X1284960D01*
X1270047Y765857D01*
X1266190Y767455D01*
X1228857D01*
X1225422Y770890D01*
D02*
G37*
G36*
X1154740Y793620D02*
X1131260D01*
Y770540D01*
X1148497D01*
X1149500Y770125D01*
X1158910D01*
X1160892Y768143D01*
X1164750Y766545D01*
X1166160D01*
Y765960D01*
X1184740D01*
Y777040D01*
X1175953D01*
X1174950Y777455D01*
X1167010D01*
X1165027Y779437D01*
X1161170Y781035D01*
X1154740D01*
Y793620D01*
D02*
G37*
G36*
Y763620D02*
X1131260D01*
Y751822D01*
X1129907D01*
X1126049Y750224D01*
X1113783Y737957D01*
X1112185Y734100D01*
Y720160D01*
X1110060D01*
Y710160D01*
X1110060Y707080D01*
X1110060Y702080D01*
Y692080D01*
X1110060D01*
X1110118Y687080D01*
X1108710Y685672D01*
Y678308D01*
X1113918Y673100D01*
X1121282D01*
X1126490Y678308D01*
Y685672D01*
X1125082Y687080D01*
X1125140Y692080D01*
X1125140D01*
Y702080D01*
X1125140Y705160D01*
X1125140Y710160D01*
Y720160D01*
X1123095D01*
Y731840D01*
X1129747Y738492D01*
X1132476Y738018D01*
X1135665Y733450D01*
Y726140D01*
X1135580D01*
Y707560D01*
X1146660D01*
Y726140D01*
X1146575D01*
Y731190D01*
X1146857Y731473D01*
X1148455Y735330D01*
Y740540D01*
X1154740D01*
Y763620D01*
D02*
G37*
G36*
X1534374Y707680D02*
X1532766D01*
X1531281Y707065D01*
X1530145Y705928D01*
X1529530Y704444D01*
Y702836D01*
X1530145Y701351D01*
X1531281Y700215D01*
X1532766Y699600D01*
X1534374D01*
X1535858Y700215D01*
X1536995Y701351D01*
X1537610Y702836D01*
Y704444D01*
X1536995Y705928D01*
X1535858Y707065D01*
X1534374Y707680D01*
D02*
G37*
G36*
X1520374D02*
X1518766D01*
X1517281Y707065D01*
X1516145Y705928D01*
X1515530Y704444D01*
Y702836D01*
X1516145Y701351D01*
X1517281Y700215D01*
X1518766Y699600D01*
X1520374D01*
X1521859Y700215D01*
X1522995Y701351D01*
X1523610Y702836D01*
Y704444D01*
X1522995Y705928D01*
X1521859Y707065D01*
X1520374Y707680D01*
D02*
G37*
G36*
X1541374Y700680D02*
X1539766D01*
X1538282Y700065D01*
X1537145Y698929D01*
X1536530Y697444D01*
Y695836D01*
X1537145Y694352D01*
X1538282Y693215D01*
X1539766Y692600D01*
X1541374D01*
X1542858Y693215D01*
X1543995Y694352D01*
X1544610Y695836D01*
Y697444D01*
X1543995Y698929D01*
X1542858Y700065D01*
X1541374Y700680D01*
D02*
G37*
G36*
X1527374D02*
X1525766D01*
X1524281Y700065D01*
X1523145Y698929D01*
X1522530Y697444D01*
Y695836D01*
X1523145Y694352D01*
X1524281Y693215D01*
X1525766Y692600D01*
X1527374D01*
X1528858Y693215D01*
X1529995Y694352D01*
X1530610Y695836D01*
Y697444D01*
X1529995Y698929D01*
X1528858Y700065D01*
X1527374Y700680D01*
D02*
G37*
G36*
X1513374D02*
X1511766D01*
X1510282Y700065D01*
X1509145Y698929D01*
X1508530Y697444D01*
Y695836D01*
X1509145Y694352D01*
X1510282Y693215D01*
X1511766Y692600D01*
X1513374D01*
X1514859Y693215D01*
X1515995Y694352D01*
X1516610Y695836D01*
Y697444D01*
X1515995Y698929D01*
X1514859Y700065D01*
X1513374Y700680D01*
D02*
G37*
G36*
X1534374Y693680D02*
X1532766D01*
X1531281Y693065D01*
X1530145Y691928D01*
X1529530Y690444D01*
Y688836D01*
X1530145Y687352D01*
X1531281Y686215D01*
X1532766Y685600D01*
X1534374D01*
X1535858Y686215D01*
X1536995Y687352D01*
X1537610Y688836D01*
Y690444D01*
X1536995Y691928D01*
X1535858Y693065D01*
X1534374Y693680D01*
D02*
G37*
G36*
X1520374D02*
X1518766D01*
X1517281Y693065D01*
X1516145Y691928D01*
X1515530Y690444D01*
Y688836D01*
X1516145Y687352D01*
X1517281Y686215D01*
X1518766Y685600D01*
X1520374D01*
X1521859Y686215D01*
X1522995Y687352D01*
X1523610Y688836D01*
Y690444D01*
X1522995Y691928D01*
X1521859Y693065D01*
X1520374Y693680D01*
D02*
G37*
G36*
X1541374Y686680D02*
X1539766D01*
X1538282Y686065D01*
X1537145Y684929D01*
X1536530Y683444D01*
Y681836D01*
X1537145Y680351D01*
X1538282Y679215D01*
X1539766Y678600D01*
X1541374D01*
X1542858Y679215D01*
X1543995Y680351D01*
X1544610Y681836D01*
Y683444D01*
X1543995Y684929D01*
X1542858Y686065D01*
X1541374Y686680D01*
D02*
G37*
G36*
X1527374D02*
X1525766D01*
X1524281Y686065D01*
X1523145Y684929D01*
X1522530Y683444D01*
Y681836D01*
X1523145Y680351D01*
X1524281Y679215D01*
X1525766Y678600D01*
X1527374D01*
X1528858Y679215D01*
X1529995Y680351D01*
X1530610Y681836D01*
Y683444D01*
X1529995Y684929D01*
X1528858Y686065D01*
X1527374Y686680D01*
D02*
G37*
G36*
X1513374D02*
X1511766D01*
X1510282Y686065D01*
X1509145Y684929D01*
X1508530Y683444D01*
Y681836D01*
X1509145Y680351D01*
X1510282Y679215D01*
X1511766Y678600D01*
X1513374D01*
X1514859Y679215D01*
X1515995Y680351D01*
X1516610Y681836D01*
Y683444D01*
X1515995Y684929D01*
X1514859Y686065D01*
X1513374Y686680D01*
D02*
G37*
G36*
X1534374Y679680D02*
X1532766D01*
X1531281Y679065D01*
X1530145Y677928D01*
X1529530Y676444D01*
Y674836D01*
X1530145Y673352D01*
X1531281Y672215D01*
X1532766Y671600D01*
X1534374D01*
X1535858Y672215D01*
X1536995Y673352D01*
X1537610Y674836D01*
Y676444D01*
X1536995Y677928D01*
X1535858Y679065D01*
X1534374Y679680D01*
D02*
G37*
G36*
X1520374D02*
X1518766D01*
X1517281Y679065D01*
X1516145Y677928D01*
X1515530Y676444D01*
Y674836D01*
X1516145Y673352D01*
X1517281Y672215D01*
X1518766Y671600D01*
X1520374D01*
X1521859Y672215D01*
X1522995Y673352D01*
X1523610Y674836D01*
Y676444D01*
X1522995Y677928D01*
X1521859Y679065D01*
X1520374Y679680D01*
D02*
G37*
G36*
X1212032Y425580D02*
X1203508D01*
X1197607Y419680D01*
X1195070Y419614D01*
X1192533Y419680D01*
X1186632Y425580D01*
X1178108D01*
X1172260Y419732D01*
X1167260Y419987D01*
Y425580D01*
X1146680D01*
Y405000D01*
X1167260D01*
Y410593D01*
X1172260Y410848D01*
X1178108Y405000D01*
X1186632D01*
X1192533Y410900D01*
X1195070Y410966D01*
X1197607Y410900D01*
X1203508Y405000D01*
X1212032D01*
X1218060Y411028D01*
Y419552D01*
X1212032Y425580D01*
D02*
G37*
%LPD*%
G36*
X1530347Y972855D02*
X1535055Y968147D01*
Y925830D01*
X1536653Y921973D01*
X1564502Y894123D01*
X1564442Y893824D01*
X1559017Y892178D01*
X1495165Y956030D01*
Y966954D01*
X1500000D01*
Y972547D01*
X1505000Y972802D01*
X1510848Y966954D01*
X1519372D01*
X1525273Y972855D01*
X1527810Y972920D01*
X1530347Y972855D01*
D02*
G37*
G36*
X767080Y946150D02*
Y934720D01*
Y929640D01*
X763270Y925830D01*
X711200D01*
X704850Y932180D01*
Y946150D01*
X708660Y949960D01*
X763270D01*
X767080Y946150D01*
D02*
G37*
G36*
X702101Y940289D02*
Y932180D01*
X702906Y930236D01*
X702906Y930236D01*
X709088Y924054D01*
X709061Y923494D01*
X707390Y919054D01*
X705446Y918249D01*
X705446Y918249D01*
X683391Y896194D01*
X669290D01*
X666449Y900429D01*
Y911708D01*
X697101Y942360D01*
X702101Y940289D01*
D02*
G37*
G36*
X798309Y950581D02*
X797560Y949832D01*
Y949811D01*
X790014Y942265D01*
X787941Y937260D01*
Y891720D01*
X783480D01*
Y891259D01*
X778150D01*
X774230Y889635D01*
X771150D01*
X767292Y888037D01*
X762788Y883533D01*
X747776D01*
X747483Y883412D01*
X739515D01*
Y892518D01*
X741370Y896750D01*
X764850D01*
X764850Y919037D01*
X764945Y920305D01*
X765775Y924447D01*
X769024Y927696D01*
X769829Y929640D01*
X769829Y929640D01*
Y934720D01*
Y946150D01*
X769829Y946150D01*
X769024Y948094D01*
X766537Y950581D01*
X768408Y955581D01*
X796238D01*
X798309Y950581D01*
D02*
G37*
G36*
X778150Y877101D02*
X783480D01*
Y876640D01*
X794719D01*
X796020Y876101D01*
X809338D01*
X812875Y872564D01*
X817880Y870491D01*
X826151D01*
X828636Y868006D01*
X830580Y867201D01*
X830580Y867201D01*
X850171D01*
Y810466D01*
X844710D01*
Y785386D01*
X869790D01*
Y810466D01*
X864329D01*
Y861559D01*
X864760Y866380D01*
X872786D01*
Y840920D01*
X873591Y838976D01*
X875535Y838171D01*
X879919D01*
Y810466D01*
X876094D01*
Y785386D01*
X881921D01*
Y768742D01*
X880912Y767733D01*
X772470D01*
Y774570D01*
X748990D01*
Y770359D01*
X737980D01*
Y771070D01*
X714900D01*
Y770609D01*
X704984D01*
X704850Y770743D01*
Y772032D01*
X699642Y777240D01*
X692278D01*
X688989Y773951D01*
X683989Y776022D01*
Y780020D01*
X683658Y780820D01*
X686701Y785670D01*
X686998Y785820D01*
X700910D01*
Y787025D01*
X810540D01*
X812800Y784765D01*
Y779908D01*
X818008Y774700D01*
X825372D01*
X830580Y779908D01*
Y787272D01*
X825372Y792480D01*
X820515D01*
X816657Y796337D01*
X812800Y797935D01*
X700910D01*
Y803241D01*
X703629Y804761D01*
X705910Y805584D01*
X707390Y804971D01*
X707390Y804971D01*
X730250D01*
X730250Y804971D01*
X730250Y804971D01*
X732194Y805776D01*
X732194Y805776D01*
X733464Y807046D01*
X733464Y807046D01*
X734269Y808990D01*
X734269Y808990D01*
Y842010D01*
X733464Y843954D01*
X733464Y843954D01*
X731729Y845689D01*
Y850976D01*
X734104Y852810D01*
X738632Y853948D01*
X738632Y853948D01*
X738632Y853948D01*
X747483D01*
X747776Y853827D01*
X748069Y853948D01*
X756920D01*
Y864616D01*
X748484D01*
X747482Y865031D01*
X739515D01*
Y872744D01*
X747483D01*
X747776Y872623D01*
X765048D01*
X768905Y874221D01*
X773410Y878725D01*
X774230D01*
X778150Y877101D01*
D02*
G37*
G36*
X1437157Y956070D02*
X1434695Y951070D01*
X1420020D01*
Y925990D01*
X1421996D01*
X1424038Y920990D01*
X1423670Y920622D01*
Y913258D01*
X1428878Y908050D01*
X1436242D01*
X1441450Y913258D01*
Y920622D01*
X1441082Y920990D01*
X1443124Y925990D01*
X1445100D01*
Y943736D01*
X1449719Y945650D01*
X1525544Y869825D01*
X1530550Y867751D01*
X1536194D01*
X1539195Y864750D01*
X1547545D01*
X1551645Y868849D01*
X1556645Y866778D01*
Y840460D01*
X1549680Y833495D01*
X1479550D01*
X1475693Y831897D01*
X1470215Y826420D01*
X1465215Y828491D01*
Y832628D01*
X1460183Y837660D01*
X1453067D01*
X1448035Y832628D01*
Y825512D01*
X1453067Y820480D01*
X1457204D01*
X1459275Y815480D01*
X1434812Y791017D01*
X1433215Y787160D01*
Y772180D01*
X1431630D01*
Y752100D01*
X1427634Y749675D01*
X1406880D01*
X1394835Y761720D01*
Y778670D01*
X1401920D01*
Y803750D01*
X1396060D01*
Y825752D01*
X1400214Y829906D01*
X1401019Y831850D01*
X1401019Y831850D01*
Y845820D01*
X1400214Y847764D01*
X1400214Y847764D01*
X1397674Y850304D01*
X1395730Y851109D01*
X1395730Y851109D01*
X1378629D01*
X1374450Y853090D01*
X1374450Y856109D01*
Y874655D01*
X1379110D01*
X1383030Y873031D01*
X1391528D01*
X1414854Y849705D01*
X1419860Y847631D01*
X1425915D01*
X1427666Y845880D01*
X1434783D01*
X1439815Y850912D01*
Y858028D01*
X1434783Y863060D01*
X1427666D01*
X1426395Y861789D01*
X1422792D01*
X1399495Y885086D01*
X1399463Y885136D01*
X1398712Y890840D01*
X1402080Y894208D01*
Y898588D01*
X1407080Y900659D01*
X1432874Y874865D01*
X1437880Y872791D01*
X1451555D01*
X1453067Y871280D01*
X1460183D01*
X1465215Y876312D01*
Y883428D01*
X1460183Y888460D01*
X1453067D01*
X1451555Y886949D01*
X1440812D01*
X1408356Y919406D01*
X1404436Y921029D01*
X1390697Y934767D01*
X1386840Y936365D01*
X1376581D01*
X1376014Y936600D01*
X1362707D01*
X1362140Y936365D01*
X1348740D01*
X1344883Y934767D01*
X1340002Y929887D01*
X1334964Y931920D01*
X1333985Y934286D01*
X1333716Y934933D01*
Y939586D01*
X1333985Y940234D01*
X1335136Y943014D01*
X1335383Y943610D01*
X1333716Y947634D01*
X1329693Y949300D01*
X1316386D01*
X1312363Y947634D01*
X1310696Y943610D01*
X1312094Y940234D01*
X1312363Y939586D01*
Y934933D01*
X1312094Y934286D01*
X1310696Y930910D01*
X1312094Y927534D01*
X1312363Y926887D01*
Y925971D01*
X1307363Y923900D01*
X1306702Y924560D01*
X1299338D01*
X1296129Y925889D01*
Y939800D01*
X1294055Y944806D01*
X1285740Y953121D01*
X1287085Y957827D01*
X1287273Y958121D01*
X1435579D01*
X1437157Y956070D01*
D02*
G37*
G36*
X881380Y915670D02*
Y897890D01*
X876300Y892810D01*
Y877570D01*
X868680Y869950D01*
X830580D01*
X828040Y872490D01*
Y882650D01*
X830580Y885190D01*
X845820D01*
X859790Y899160D01*
Y915670D01*
X862330Y918210D01*
X878840D01*
X881380Y915670D01*
D02*
G37*
G36*
X728980Y915035D02*
Y900725D01*
X728921Y900430D01*
Y873066D01*
X725170Y869315D01*
X695960D01*
X690880Y874395D01*
X668020D01*
X666750Y875665D01*
Y890905D01*
X669290Y893445D01*
X684530D01*
X707390Y916305D01*
X727710D01*
X728980Y915035D01*
D02*
G37*
G36*
X889000Y871220D02*
X894865D01*
Y840920D01*
X875535D01*
Y871220D01*
X881400D01*
Y886220D01*
X889000D01*
Y871220D01*
D02*
G37*
G36*
X1304033Y901653D02*
X1307890Y900055D01*
X1315819D01*
X1316386Y899820D01*
X1329693D01*
X1333125Y897527D01*
Y876170D01*
X1320490D01*
Y853090D01*
X1339383D01*
X1343187Y848090D01*
X1342821Y846771D01*
X1341186Y846170D01*
X1339866Y846170D01*
X1320490D01*
Y837659D01*
X1315134D01*
X1314595Y838198D01*
Y842130D01*
X1314056Y843431D01*
X1314056Y848670D01*
X1314056D01*
Y850590D01*
X1314056D01*
Y863670D01*
X1313271D01*
Y866777D01*
X1311198Y871783D01*
X1296129Y886852D01*
Y903024D01*
X1298824Y904235D01*
X1301129Y904557D01*
X1304033Y901653D01*
D02*
G37*
G36*
X1028408Y885130D02*
Y862270D01*
X1011898Y845760D01*
Y835600D01*
X1005548Y829250D01*
X996658D01*
X992848Y833060D01*
Y853380D01*
X994118Y854650D01*
X1003008D01*
X1013168Y864810D01*
Y883860D01*
X1015708Y886400D01*
X1027138D01*
X1028408Y885130D01*
D02*
G37*
G36*
X1398270Y845820D02*
Y831850D01*
X1386840Y820420D01*
X1353820D01*
X1347470Y826770D01*
Y845820D01*
X1350010Y848360D01*
X1395730D01*
X1398270Y845820D01*
D02*
G37*
G36*
X728921Y863659D02*
Y862719D01*
X728980Y862424D01*
Y853440D01*
Y844550D01*
X731520Y842010D01*
Y808990D01*
X730250Y807720D01*
X707390D01*
X704850Y810260D01*
Y857250D01*
X712470Y864870D01*
X727710D01*
X728921Y863659D01*
D02*
G37*
G36*
X694016Y867371D02*
X695960Y866566D01*
X695960Y866566D01*
X703745D01*
X705658Y861946D01*
X702906Y859194D01*
X702101Y857250D01*
X702101Y857250D01*
Y813807D01*
X701109Y810054D01*
X697481Y809300D01*
X677830D01*
Y798976D01*
X672830Y796500D01*
X670910Y797962D01*
Y809300D01*
X666449D01*
Y870596D01*
X668020Y871646D01*
X689741D01*
X694016Y867371D01*
D02*
G37*
G36*
X1560830Y810132D02*
Y802768D01*
X1566038Y797560D01*
X1566919D01*
X1568601Y795315D01*
X1566100Y790315D01*
X1501907D01*
X1497202Y795020D01*
X1489838D01*
X1484630Y789812D01*
Y782448D01*
X1489838Y777240D01*
X1497202D01*
X1499367Y779405D01*
X1566167D01*
X1567853Y777180D01*
X1565368Y772180D01*
X1461336D01*
X1459265Y777180D01*
X1494510Y812425D01*
X1559880D01*
X1560830Y810132D01*
D02*
G37*
G36*
X692278Y759460D02*
X696111D01*
X697046Y758524D01*
X702052Y756451D01*
X714900D01*
Y755990D01*
X737980D01*
Y756201D01*
X748990D01*
Y751490D01*
X772470D01*
Y753575D01*
X836579D01*
X838650Y748575D01*
X819430Y729355D01*
X812774D01*
X809848Y734355D01*
X810778Y736600D01*
X808863Y741223D01*
X804240Y743138D01*
X785240D01*
X780617Y741223D01*
X778702Y736600D01*
X780617Y731977D01*
X780617Y728523D01*
X778702Y723900D01*
X780617Y719277D01*
X780617Y715823D01*
X778702Y711200D01*
X780617Y706577D01*
X780617Y703123D01*
X778702Y698500D01*
X780617Y693877D01*
X780617Y690423D01*
X778702Y685800D01*
X780617Y681177D01*
X780617Y677723D01*
X779257Y674439D01*
X774083Y672542D01*
X764915Y681710D01*
Y721490D01*
X772470D01*
Y744570D01*
X748990D01*
Y721490D01*
X754005D01*
Y679450D01*
X755603Y675593D01*
X757201Y673994D01*
X755130Y668994D01*
X744455D01*
X740630Y671910D01*
Y676830D01*
X740630Y676910D01*
Y690910D01*
X739763D01*
X737692Y695910D01*
X740410Y698628D01*
Y705992D01*
X735202Y711200D01*
X727838D01*
X722630Y705992D01*
Y698628D01*
X725348Y695910D01*
X723277Y690910D01*
X721550D01*
Y676910D01*
X721550Y676830D01*
Y675701D01*
X716550Y671910D01*
X707923D01*
X707210Y672205D01*
X684364D01*
X683518Y673002D01*
X681435Y677205D01*
X682365Y679450D01*
Y717550D01*
X680767Y721407D01*
X679545Y722630D01*
X680767Y723853D01*
X682365Y727710D01*
Y749945D01*
X683989Y753865D01*
Y760678D01*
X688989Y762749D01*
X692278Y759460D01*
D02*
G37*
G36*
X626536Y735783D02*
X627363Y730166D01*
X626995Y729798D01*
Y725002D01*
X630387Y721610D01*
X635183D01*
X635245Y716636D01*
Y710124D01*
X630138D01*
X627960Y709222D01*
X627252Y709930D01*
X619888D01*
X614680Y704722D01*
Y697358D01*
X619888Y692150D01*
X627252D01*
X627904Y692802D01*
X630138Y691876D01*
X635245D01*
Y680364D01*
X635183Y675390D01*
X630387D01*
X626995Y671998D01*
Y667202D01*
X625041Y664808D01*
X619686Y666675D01*
X606519Y679842D01*
Y719698D01*
X620956Y734135D01*
X621400Y735209D01*
X625993Y735856D01*
X626536Y735783D01*
D02*
G37*
G36*
X871632Y726145D02*
X870702Y723900D01*
X872617Y719277D01*
X872617Y715823D01*
X870702Y711200D01*
X872617Y706577D01*
X872617Y703123D01*
X870702Y698500D01*
X872617Y693877D01*
X872617Y690423D01*
X870702Y685800D01*
X872617Y681177D01*
X872617Y677723D01*
X870702Y673100D01*
X871555Y671041D01*
X867317Y668208D01*
X862705Y672820D01*
Y683763D01*
X866140Y687198D01*
Y694562D01*
X860932Y699770D01*
X853568D01*
X848360Y694562D01*
Y687198D01*
X851795Y683763D01*
Y670560D01*
X853393Y666703D01*
X863553Y656543D01*
X867410Y654945D01*
X868706D01*
X871632Y649945D01*
X870702Y647700D01*
X872617Y643077D01*
X872617Y639623D01*
X870702Y635000D01*
X871632Y632755D01*
X868706Y627755D01*
X860780D01*
X824277Y664257D01*
X820420Y665855D01*
X812774D01*
X809848Y670855D01*
X810778Y673100D01*
X808863Y677723D01*
X808863Y681177D01*
X810778Y685800D01*
X808863Y690423D01*
X808863Y693877D01*
X810778Y698500D01*
X809371Y701895D01*
X810596Y704964D01*
X816075Y705891D01*
X818386Y703580D01*
X825751D01*
X828053Y705882D01*
X831404Y708447D01*
X834755Y705882D01*
X837058Y703580D01*
X844422D01*
X849630Y708788D01*
Y716152D01*
X846195Y719587D01*
Y720370D01*
X856970Y731145D01*
X868706D01*
X871632Y726145D01*
D02*
G37*
G36*
X1335450Y690240D02*
X1337110Y689553D01*
Y686576D01*
X1342927Y680759D01*
X1343069Y678180D01*
X1342927Y675601D01*
X1337110Y669784D01*
Y669604D01*
X1321747D01*
Y692020D01*
X1308278D01*
X1299210Y701088D01*
Y705992D01*
X1300711Y709616D01*
X1316074D01*
X1335450Y690240D01*
D02*
G37*
G36*
X1080395Y673380D02*
Y657357D01*
X1076960Y653922D01*
Y646558D01*
X1077173Y646345D01*
X1075259Y641725D01*
X1070612D01*
X1058285Y654052D01*
Y675640D01*
X1056687Y679497D01*
X997340Y738845D01*
X999411Y743845D01*
X1009930D01*
X1080395Y673380D01*
D02*
G37*
G36*
X934170Y661231D02*
X950700D01*
Y658050D01*
X963910D01*
X967700Y655130D01*
X967700Y653083D01*
Y644891D01*
X967161Y643590D01*
Y636812D01*
X953118Y622769D01*
X943720D01*
Y623230D01*
X930683D01*
X929680Y623645D01*
X924580D01*
X909750Y638475D01*
X908707Y638907D01*
X908480Y644225D01*
X925411Y661156D01*
X929680D01*
X930683Y661571D01*
X933349D01*
X934170Y661231D01*
D02*
G37*
G36*
X1528974Y615716D02*
X1524000Y610742D01*
Y603378D01*
X1525198Y602180D01*
X1523127Y597180D01*
X1467333D01*
X1465262Y602180D01*
X1483798Y620716D01*
X1528643D01*
X1528974Y615716D01*
D02*
G37*
G36*
X1010920Y667925D02*
Y663068D01*
X1016128Y657860D01*
X1023492D01*
X1028700Y663068D01*
Y670432D01*
X1023492Y675640D01*
X1018635D01*
X1002045Y692230D01*
X1004116Y697230D01*
X1005712D01*
X1010920Y702438D01*
Y702764D01*
X1015920Y704835D01*
X1047375Y673380D01*
Y651792D01*
X1048973Y647935D01*
X1061579Y635329D01*
X1020924Y594674D01*
X1007627D01*
X1005556Y599674D01*
X1029452Y623570D01*
X1036192D01*
X1041400Y628778D01*
Y636142D01*
X1036192Y641350D01*
X1028828D01*
X1023620Y636142D01*
Y629402D01*
X997782Y603564D01*
X951091D01*
X948699Y608564D01*
X948737Y608611D01*
X956050D01*
X961056Y610685D01*
X979246Y628875D01*
X981319Y633880D01*
Y636050D01*
X984780D01*
Y655130D01*
X971571D01*
X967780Y658050D01*
X967780Y660097D01*
Y677130D01*
X950700D01*
Y675389D01*
X943720D01*
Y676651D01*
X923582D01*
X919980Y680584D01*
X919855Y681326D01*
Y705130D01*
X924280Y709555D01*
X969290D01*
X1010920Y667925D01*
D02*
G37*
G36*
X1206125Y607340D02*
Y596397D01*
X1203960Y594232D01*
Y586868D01*
X1205368Y585460D01*
X1205310Y580460D01*
X1205310D01*
Y570460D01*
X1205310Y567380D01*
X1205310Y562380D01*
Y552380D01*
X1201277Y550045D01*
X1195335D01*
X1191449Y550924D01*
X1190905Y555810D01*
X1191917Y556823D01*
X1193515Y560680D01*
Y563750D01*
X1193600D01*
Y576830D01*
X1182520D01*
Y563750D01*
X1181403Y561738D01*
X1181403Y561738D01*
X1179805Y557880D01*
Y556130D01*
X1166820D01*
Y533050D01*
X1190300D01*
Y539135D01*
X1206260D01*
X1210117Y540732D01*
X1215876Y546492D01*
X1217474Y550349D01*
Y552380D01*
X1220390D01*
Y562380D01*
X1220390Y565460D01*
X1220390Y570460D01*
Y580460D01*
X1220390D01*
X1220332Y585460D01*
X1221740Y586868D01*
Y594232D01*
X1217035Y598937D01*
Y605869D01*
X1222035Y607940D01*
X1232923Y597053D01*
X1236780Y595455D01*
X1274010D01*
X1277224Y596786D01*
X1285328D01*
X1286378Y592028D01*
X1286381Y591786D01*
X1279102Y584507D01*
X1277505Y580650D01*
Y576690D01*
X1275420D01*
Y553610D01*
X1275881D01*
Y534800D01*
X1277954Y529795D01*
X1282881Y524868D01*
Y516290D01*
X1279880D01*
Y503845D01*
X1272980Y496945D01*
X1126210D01*
X1116705Y506450D01*
Y514853D01*
X1118367Y516515D01*
X1125090D01*
Y516430D01*
X1138170D01*
Y527510D01*
X1125090D01*
Y527425D01*
X1118367D01*
X1114932Y530860D01*
X1107568D01*
X1102360Y525652D01*
Y518288D01*
X1105795Y514853D01*
Y504190D01*
X1107393Y500333D01*
X1120093Y487633D01*
X1123950Y486035D01*
X1275240D01*
X1277881Y487129D01*
X1282881Y484883D01*
Y450541D01*
X1280809Y448835D01*
X1279166Y449080D01*
X1275310Y450785D01*
X1273736Y454585D01*
X1255956Y472365D01*
X1250950Y474439D01*
X1140460D01*
X1135454Y472365D01*
X1114668Y451579D01*
X1018815D01*
X1016744Y456579D01*
X1035097Y474933D01*
X1036695Y478790D01*
Y480190D01*
X1044147D01*
Y503270D01*
X1020667D01*
Y480190D01*
X1020667D01*
X1021914Y477179D01*
X1007201Y462466D01*
X987099D01*
X979340Y470502D01*
Y471463D01*
X979241Y471702D01*
Y480190D01*
X985526D01*
Y503270D01*
X962046D01*
Y480190D01*
X968330D01*
Y471562D01*
X968429Y471322D01*
Y470760D01*
X960136Y462466D01*
X951139D01*
X946804Y466801D01*
Y480190D01*
X953089D01*
Y503270D01*
X929609D01*
Y480190D01*
X935893D01*
Y467358D01*
X931001Y462466D01*
X900430D01*
Y462609D01*
X895222Y467816D01*
X890701D01*
X883327Y475190D01*
X885398Y480190D01*
X888040D01*
Y503270D01*
X864560D01*
Y480190D01*
X869575D01*
Y475772D01*
X869960Y474843D01*
X866655Y469900D01*
X862458D01*
X857250Y464692D01*
X852042Y469900D01*
X844845D01*
X844714Y469900D01*
X841204Y473461D01*
X843954Y476211D01*
X844759Y478155D01*
X844759Y478155D01*
Y507365D01*
X844759Y507365D01*
X845855Y507806D01*
X845940D01*
X848856Y509014D01*
X852813Y512971D01*
X856027Y514303D01*
X859560Y517835D01*
X864560Y515764D01*
Y510190D01*
X888040D01*
Y518701D01*
X897580D01*
Y510190D01*
X921060D01*
Y533270D01*
X921060Y533270D01*
X921060D01*
X921459Y538105D01*
X929210D01*
X929609Y533270D01*
X929609D01*
Y510190D01*
X953089D01*
Y533270D01*
X946804D01*
Y538480D01*
X945206Y542337D01*
X947156Y547459D01*
X949638Y547820D01*
X951358Y546100D01*
X958722D01*
X962157Y549535D01*
X989610D01*
X996575Y542570D01*
Y535310D01*
X995750D01*
X992964Y534156D01*
X991810Y531370D01*
Y529571D01*
X986810Y526379D01*
X985526Y526975D01*
Y533270D01*
X962046D01*
Y510190D01*
X985525D01*
X985526Y510190D01*
Y510190D01*
X989278Y507177D01*
X992828Y503627D01*
X991810Y501170D01*
Y492370D01*
X992964Y489584D01*
X995750Y488430D01*
X1010850D01*
X1013636Y489584D01*
X1014790Y492370D01*
Y501170D01*
X1013636Y503956D01*
X1010850Y505110D01*
X1003749D01*
Y505876D01*
X1002151Y509734D01*
X998255Y513630D01*
X1000326Y518630D01*
X1010850D01*
X1013636Y519784D01*
X1014790Y522570D01*
Y531370D01*
X1013636Y534156D01*
X1010850Y535310D01*
X1007485D01*
Y544830D01*
X1005887Y548688D01*
X998549Y556026D01*
X1000620Y561026D01*
X1052830D01*
Y558928D01*
X1056265Y555493D01*
Y535310D01*
X1055440D01*
X1052654Y534156D01*
X1051500Y531370D01*
Y528676D01*
X1046595Y525625D01*
X1044147Y526927D01*
Y533270D01*
X1020667D01*
Y510190D01*
X1044147D01*
Y510190D01*
X1045079Y510576D01*
X1048973Y506683D01*
X1051500Y501170D01*
Y492370D01*
X1052654Y489584D01*
X1055440Y488430D01*
X1070540D01*
X1073326Y489584D01*
X1074480Y492370D01*
Y501170D01*
X1073326Y503956D01*
X1070540Y505110D01*
X1068445D01*
Y507611D01*
X1066847Y511469D01*
X1064686Y513630D01*
X1065473Y517259D01*
X1066219Y518630D01*
X1070540D01*
X1073326Y519784D01*
X1074480Y522570D01*
Y531370D01*
X1073326Y534156D01*
X1070540Y535310D01*
X1067175D01*
Y555493D01*
X1070610Y558928D01*
Y566292D01*
X1073489Y569854D01*
X1090266Y586631D01*
X1093480Y587963D01*
X1104714Y599197D01*
X1108710Y596121D01*
Y589408D01*
X1112145Y585973D01*
Y580460D01*
X1110060D01*
Y570460D01*
X1110060Y567380D01*
X1110060Y562380D01*
Y552380D01*
X1125140D01*
Y553465D01*
X1133800D01*
Y546230D01*
X1146375D01*
Y537010D01*
X1145290D01*
Y525930D01*
X1158370D01*
Y537010D01*
X1157285D01*
Y551480D01*
X1157280Y551493D01*
Y569310D01*
X1133800D01*
Y565045D01*
X1128934Y564467D01*
X1125140Y567696D01*
X1125140Y570460D01*
Y580460D01*
X1123055D01*
Y585973D01*
X1126490Y589408D01*
Y596772D01*
X1121282Y601980D01*
X1114568D01*
X1111493Y605976D01*
X1121092Y615575D01*
X1168701D01*
X1170772Y610575D01*
X1169670Y609472D01*
Y602108D01*
X1170706Y601072D01*
X1172636Y597701D01*
X1171814Y593514D01*
X1167096Y591157D01*
X1164590Y592195D01*
X1157280D01*
Y599310D01*
X1133800D01*
Y576230D01*
X1157280D01*
Y581285D01*
X1162204D01*
X1163520Y576830D01*
X1163520Y576830D01*
X1163520D01*
X1163520Y576830D01*
Y563750D01*
X1174600D01*
Y576830D01*
X1174600D01*
X1174557Y579398D01*
X1178631Y583950D01*
X1184100D01*
Y597030D01*
X1186414Y601072D01*
X1187450Y602108D01*
Y609472D01*
X1186348Y610575D01*
X1188419Y615575D01*
X1197890D01*
X1206125Y607340D01*
D02*
G37*
G36*
X1076960Y627252D02*
Y619888D01*
X1081726Y615122D01*
Y608768D01*
X1058742Y585784D01*
X1030769D01*
X1028698Y590784D01*
X1068729Y630815D01*
X1075484D01*
X1076960Y627252D01*
D02*
G37*
G36*
X1306830Y580262D02*
Y572898D01*
X1308641Y571087D01*
Y423639D01*
X1281822D01*
X1275809Y429652D01*
Y434792D01*
X1280809Y436106D01*
X1285785Y431130D01*
X1294135D01*
X1300040Y437035D01*
Y445385D01*
X1297039Y448386D01*
Y496130D01*
X1300040D01*
Y516290D01*
X1297039D01*
Y527800D01*
X1294966Y532805D01*
X1290039Y537732D01*
Y553610D01*
X1290500D01*
Y576690D01*
X1290500D01*
X1291359Y581334D01*
X1292540Y582515D01*
X1305897D01*
X1306830Y580262D01*
D02*
G37*
G36*
X1583801Y540286D02*
X1543354Y499839D01*
X1535844D01*
X1534032Y501650D01*
X1526668D01*
X1523105Y503126D01*
Y514350D01*
X1521507Y518207D01*
X1520325Y519390D01*
Y577100D01*
X1583801D01*
Y540286D01*
D02*
G37*
G36*
X1493392Y558800D02*
X1496715Y557424D01*
Y526530D01*
X1488393Y518207D01*
X1486795Y514350D01*
Y483759D01*
X1481795Y481688D01*
X1478152Y485330D01*
X1470788D01*
X1465580Y480122D01*
Y473181D01*
X1462993Y470594D01*
X1461395Y466736D01*
Y425798D01*
X1456729Y421132D01*
X1454150Y420991D01*
X1451571Y421132D01*
X1446905Y425798D01*
Y480340D01*
X1480627Y514062D01*
X1482225Y517920D01*
Y555909D01*
X1486573Y558800D01*
X1493392D01*
D02*
G37*
G36*
X836360Y508045D02*
X841330D01*
X842010Y507365D01*
Y478155D01*
X838200Y474345D01*
X829310D01*
X825500Y478155D01*
Y493395D01*
X822995Y495900D01*
Y499680D01*
X822900Y500156D01*
Y503140D01*
X832900D01*
Y505875D01*
X835165Y508140D01*
X835884D01*
X836360Y508045D01*
D02*
G37*
G36*
X1370511Y581690D02*
X1368596Y576690D01*
X1361780D01*
Y565451D01*
X1361241Y564150D01*
Y541760D01*
X1363315Y536755D01*
X1369241Y530828D01*
Y515020D01*
X1366240D01*
Y494860D01*
X1369241D01*
Y447116D01*
X1366240Y444115D01*
Y435765D01*
X1372145Y429860D01*
X1380495D01*
X1386400Y435765D01*
Y444115D01*
X1383399Y447116D01*
Y494860D01*
X1386400D01*
Y496731D01*
X1404310D01*
Y491140D01*
X1427790D01*
Y514220D01*
X1404310D01*
Y510889D01*
X1386400D01*
Y515020D01*
X1383399D01*
Y533760D01*
X1381326Y538765D01*
X1375399Y544692D01*
Y553610D01*
X1376860D01*
Y555061D01*
X1381860Y556288D01*
X1384428Y553720D01*
X1391792D01*
X1397000Y558928D01*
Y566292D01*
X1391792Y571500D01*
X1384428D01*
X1381860Y568932D01*
X1376860Y570159D01*
X1376860Y576685D01*
X1376870Y580769D01*
X1377862Y581685D01*
X1379246Y581685D01*
X1431630D01*
Y577100D01*
X1436421D01*
X1439737Y572100D01*
X1439644Y571879D01*
X1434436Y566671D01*
Y559306D01*
X1439644Y554099D01*
X1447008D01*
X1450434Y557524D01*
X1454475Y558045D01*
X1456277Y557039D01*
X1460388Y552928D01*
X1467752D01*
X1471315Y551453D01*
Y520180D01*
X1437593Y486457D01*
X1435995Y482600D01*
Y425798D01*
X1431440Y421244D01*
X1426440Y421781D01*
Y426950D01*
X1423129D01*
Y461140D01*
X1427790D01*
Y484220D01*
X1404310D01*
Y461140D01*
X1408971D01*
Y426950D01*
X1405660D01*
Y423639D01*
X1322799D01*
Y571087D01*
X1324610Y572898D01*
Y580262D01*
X1325543Y582515D01*
X1369592D01*
X1370511Y581690D01*
D02*
G37*
G36*
X1509415Y517130D02*
X1511013Y513273D01*
X1512195Y512090D01*
Y425798D01*
X1507529Y421132D01*
X1504950Y420991D01*
X1502371Y421132D01*
X1497705Y425798D01*
Y512090D01*
X1504415Y518800D01*
X1509415Y517130D01*
D02*
G37*
%LPC*%
G36*
X1190300Y526130D02*
X1166820D01*
Y517925D01*
X1158370D01*
Y518010D01*
X1145290D01*
Y506930D01*
X1158370D01*
Y507015D01*
X1166820D01*
Y503050D01*
X1190300D01*
Y526130D01*
D02*
G37*
%LPD*%
G36*
X1114768Y883860D02*
Y863540D01*
X1110958Y859730D01*
X1104608D01*
X1096988Y852110D01*
Y831790D01*
X1095718Y830520D01*
X1083018D01*
X1080478Y833060D01*
Y849570D01*
X1070318Y859730D01*
X1061428D01*
X1058888Y862270D01*
Y885130D01*
X1060158Y886400D01*
X1112228D01*
X1114768Y883860D01*
D02*
G37*
D16*
X1317782Y713740D02*
X1338366Y693156D01*
X1280160Y713740D02*
X1317782D01*
X1277620Y711200D02*
X1280160Y713740D01*
X1277620Y680598D02*
Y711200D01*
X1242306Y637540D02*
X1244882Y634964D01*
X1249727D01*
X1293695Y634167D02*
X1310007Y650480D01*
X1250524Y634167D02*
X1293695D01*
X1249727Y634964D02*
X1250524Y634167D01*
X1310007Y650480D02*
X1314560Y655033D01*
Y661802D02*
X1318238Y665480D01*
X1347500D01*
X1314560Y655033D02*
Y661802D01*
X1345224Y693156D02*
X1347500Y690880D01*
X1338366Y693156D02*
X1345224D01*
X1243171Y663805D02*
X1252628D01*
X1274297Y677274D02*
X1277620Y680598D01*
X1266098Y677274D02*
X1274297D01*
X1242306Y662940D02*
X1243171Y663805D01*
X1252628D02*
X1266098Y677274D01*
X1578610Y587380D02*
Y608330D01*
X1578370Y587140D02*
X1578610Y587380D01*
X1540270Y587140D02*
Y599680D01*
X1552970Y587140D02*
Y614920D01*
X1286350Y607220D02*
X1447960D01*
X1281430Y612140D02*
X1286350Y607220D01*
X1262380Y612140D02*
X1281430D01*
X1447960Y607220D02*
X1474470Y633730D01*
X1546860D01*
X1565670Y614920D01*
Y587140D02*
Y614920D01*
X1543050Y624840D02*
X1552970Y614920D01*
X1482090Y624840D02*
X1543050D01*
X1458160Y600910D02*
X1482090Y624840D01*
X1274010Y600910D02*
X1458160D01*
X1532890Y607060D02*
X1540270Y599680D01*
X890270Y543680D02*
X890390Y543560D01*
X921320D01*
X856450Y543680D02*
X890270D01*
X848360Y535590D02*
X856450Y543680D01*
X848360Y523280D02*
Y535590D01*
X842010Y516930D02*
X848360Y523280D01*
X836360Y516930D02*
X842010D01*
X1055748Y564554D02*
X1059776D01*
X1055152Y565150D02*
X1055748Y564554D01*
X834390Y565150D02*
X1055152D01*
X1059776Y564554D02*
X1061720Y562610D01*
X824110Y554870D02*
X834390Y565150D01*
X953770Y553720D02*
X955040Y554990D01*
X835660Y553720D02*
X953770D01*
X829110Y547170D02*
X835660Y553720D01*
X809110Y499680D02*
Y511930D01*
X816610Y519430D01*
X814070Y477520D02*
Y480269D01*
X819110Y485309D02*
Y499680D01*
X814070Y480269D02*
X819110Y485309D01*
X781050Y490220D02*
X784860Y486410D01*
X807720D02*
X814110Y492800D01*
X784860Y486410D02*
X807720D01*
X781050Y490220D02*
Y500380D01*
X814110Y492800D02*
Y499680D01*
X797560Y599440D02*
X999490D01*
X765810Y567690D02*
X797560Y599440D01*
X999490D02*
X1032510Y632460D01*
X623570Y701040D02*
X625098D01*
X625178D02*
X626319D01*
X1211580Y684530D02*
Y701160D01*
X801370Y590550D02*
X1022632D01*
X1068352Y636270D01*
X1060450Y581660D02*
X1085850Y607060D01*
Y623570D01*
X807720Y581660D02*
X1060450D01*
X777240Y647700D02*
X794740D01*
X760070Y664870D02*
X777240Y647700D01*
X731090Y664870D02*
X760070D01*
X764540Y635000D02*
X794740D01*
X731090Y664870D02*
X731520Y664440D01*
Y647700D02*
Y664440D01*
Y684300D02*
Y702310D01*
X731090Y683870D02*
X731520Y684300D01*
X625098Y701040D02*
X625178D01*
X661412Y695960D02*
X662940D01*
X661332D02*
X661412D01*
X630138Y696000D02*
X643535D01*
X625098Y701040D02*
X630138Y696000D01*
X625178Y701040D02*
X630138Y706000D01*
X643535D01*
X656372Y691000D02*
X661332Y695960D01*
X643535Y691000D02*
X656372D01*
X643535Y701000D02*
X656372D01*
X661412Y695960D01*
X773430Y534670D02*
X786170Y521930D01*
X773430Y562610D02*
X801370Y590550D01*
X773430Y534670D02*
Y562610D01*
X765810Y534670D02*
Y567690D01*
Y534670D02*
X788550Y511930D01*
X781050Y554990D02*
X807720Y581660D01*
X781050Y534670D02*
Y554990D01*
X824110Y539180D02*
Y554870D01*
X829110Y539180D02*
Y547170D01*
X811530Y572770D02*
X1070573D01*
X787400Y548640D02*
X811530Y572770D01*
X1070573D02*
X1089623Y591820D01*
X787400Y534670D02*
Y548640D01*
Y534670D02*
X790120Y531950D01*
X796840D01*
X786170Y521930D02*
X796860D01*
X788790Y526930D02*
X796860D01*
X781050Y534670D02*
X788790Y526930D01*
X845940Y511930D02*
X852170Y518160D01*
X836360Y511930D02*
X845940D01*
X796840Y531950D02*
X796860Y531930D01*
X788550Y511930D02*
X796860D01*
D21*
X1277620Y680598D02*
D03*
Y650598D02*
D03*
X1310007Y650480D02*
D03*
Y680480D02*
D03*
X941349Y521730D02*
D03*
Y491730D02*
D03*
X1032407Y521730D02*
D03*
Y491730D02*
D03*
X973785Y521730D02*
D03*
Y491730D02*
D03*
X909320Y521730D02*
D03*
Y491730D02*
D03*
X876300Y521730D02*
D03*
Y491730D02*
D03*
X1332230Y834630D02*
D03*
Y864630D02*
D03*
X1362710D02*
D03*
Y834630D02*
D03*
X760730Y733030D02*
D03*
Y763030D02*
D03*
X1145540Y557770D02*
D03*
Y587770D02*
D03*
X1178560Y544590D02*
D03*
Y514590D02*
D03*
X1143000Y782080D02*
D03*
Y752080D02*
D03*
X1187450Y693660D02*
D03*
Y723660D02*
D03*
X900200Y905490D02*
D03*
Y935490D02*
D03*
X870990Y905490D02*
D03*
Y935490D02*
D03*
X1102068Y873940D02*
D03*
Y903940D02*
D03*
X753110Y938290D02*
D03*
Y908290D02*
D03*
X1416050Y502680D02*
D03*
Y472680D02*
D03*
D22*
X1559560Y478210D02*
D03*
Y447210D02*
D03*
X930680Y877570D02*
D03*
Y846570D02*
D03*
X726440Y763530D02*
D03*
Y732530D02*
D03*
X932180Y669111D02*
D03*
Y700111D02*
D03*
Y615690D02*
D03*
Y646690D02*
D03*
X795020Y884180D02*
D03*
Y853180D02*
D03*
X683260Y884180D02*
D03*
Y853180D02*
D03*
X840510Y877570D02*
D03*
Y846570D02*
D03*
D23*
X1595120Y463550D02*
D03*
X1583690D02*
D03*
X1595120Y483870D02*
D03*
X1583690D02*
D03*
D24*
X643535Y666500D02*
D03*
Y674500D02*
D03*
Y730500D02*
D03*
Y722500D02*
D03*
D25*
Y681000D02*
D03*
Y686000D02*
D03*
Y716000D02*
D03*
Y711000D02*
D03*
Y706000D02*
D03*
Y691000D02*
D03*
Y696000D02*
D03*
Y701000D02*
D03*
D26*
X1512570Y675640D02*
D03*
Y689640D02*
D03*
Y703640D02*
D03*
X1526570Y675640D02*
D03*
Y689640D02*
D03*
Y703640D02*
D03*
X1540570Y675640D02*
D03*
Y689640D02*
D03*
Y703640D02*
D03*
D27*
X1603770Y587140D02*
D03*
X1591070D02*
D03*
X1578370D02*
D03*
X1565670D02*
D03*
X1552970D02*
D03*
X1540270D02*
D03*
X1527570D02*
D03*
X1514870D02*
D03*
X1502170D02*
D03*
X1489470D02*
D03*
X1476770D02*
D03*
X1464070D02*
D03*
X1451370D02*
D03*
X1438670D02*
D03*
Y762140D02*
D03*
X1451370D02*
D03*
X1464070D02*
D03*
X1476770D02*
D03*
X1489470D02*
D03*
X1502170D02*
D03*
X1514870D02*
D03*
X1527570D02*
D03*
X1540270D02*
D03*
X1552970D02*
D03*
X1565670D02*
D03*
X1578370D02*
D03*
X1591070D02*
D03*
X1603770D02*
D03*
D28*
X1426170Y617490D02*
D03*
Y630190D02*
D03*
Y642890D02*
D03*
Y655590D02*
D03*
Y668290D02*
D03*
Y680990D02*
D03*
Y693690D02*
D03*
Y706390D02*
D03*
Y719090D02*
D03*
Y731790D02*
D03*
D29*
X747776Y859282D02*
D03*
Y868680D02*
D03*
Y878078D02*
D03*
X720344D02*
D03*
Y859282D02*
D03*
D30*
X689370Y797560D02*
D03*
X659370D02*
D03*
X742710Y511810D02*
D03*
X712710D02*
D03*
X1220710Y916676D02*
D03*
X1250710D02*
D03*
Y949960D02*
D03*
X1220710D02*
D03*
X719060Y822960D02*
D03*
X749060D02*
D03*
D31*
X1043648Y932910D02*
D03*
D32*
X1066648Y872910D02*
D03*
X1043648D02*
D03*
X1020648D02*
D03*
D33*
X1062990Y526970D02*
D03*
Y496770D02*
D03*
X1003300Y526970D02*
D03*
Y496770D02*
D03*
X836742Y905283D02*
D03*
Y935483D02*
D03*
X939800Y905490D02*
D03*
Y935690D02*
D03*
X1132548Y873940D02*
D03*
Y904140D02*
D03*
X717550Y938390D02*
D03*
Y908190D02*
D03*
D34*
X712210Y546100D02*
D03*
X743210D02*
D03*
X1282960Y565150D02*
D03*
X1251960D02*
D03*
X1369320D02*
D03*
X1338320D02*
D03*
X1088390Y841950D02*
D03*
X1057390D02*
D03*
X1000244Y841950D02*
D03*
X1031244D02*
D03*
D35*
X796860Y506930D02*
D03*
Y511930D02*
D03*
Y516930D02*
D03*
Y521930D02*
D03*
Y526930D02*
D03*
Y531930D02*
D03*
X836360D02*
D03*
Y526930D02*
D03*
Y521930D02*
D03*
Y516930D02*
D03*
Y511930D02*
D03*
Y506930D02*
D03*
D36*
X804110Y539180D02*
D03*
X809110D02*
D03*
X814110D02*
D03*
X819110D02*
D03*
X824110D02*
D03*
X829110D02*
D03*
Y499680D02*
D03*
X824110D02*
D03*
X819110D02*
D03*
X814110D02*
D03*
X809110D02*
D03*
X804110D02*
D03*
D37*
X1306516Y842130D02*
D03*
Y857130D02*
D03*
X1388582Y842130D02*
D03*
Y857130D02*
D03*
X1212850Y573920D02*
D03*
Y558920D02*
D03*
X1117600Y573920D02*
D03*
Y558920D02*
D03*
Y698620D02*
D03*
Y713620D02*
D03*
X1211580Y701160D02*
D03*
Y716160D02*
D03*
D38*
X1323039Y905510D02*
D03*
Y918210D02*
D03*
Y930910D02*
D03*
Y943610D02*
D03*
X1369361D02*
D03*
Y930910D02*
D03*
Y918210D02*
D03*
D39*
Y905510D02*
D03*
D40*
X1306516Y791210D02*
D03*
X1432560Y938530D02*
D03*
X1389380Y791210D02*
D03*
X888634Y797926D02*
D03*
X922020Y797926D02*
D03*
X857250D02*
D03*
D41*
X1131630Y521970D02*
D03*
X1151830Y531470D02*
D03*
Y512470D02*
D03*
D42*
X794740Y736600D02*
D03*
Y723900D02*
D03*
Y711200D02*
D03*
Y698500D02*
D03*
Y685800D02*
D03*
Y673100D02*
D03*
Y660400D02*
D03*
Y647700D02*
D03*
Y635000D02*
D03*
Y622300D02*
D03*
X886740Y736600D02*
D03*
Y723900D02*
D03*
Y711200D02*
D03*
Y698500D02*
D03*
Y685800D02*
D03*
Y673100D02*
D03*
Y660400D02*
D03*
Y647700D02*
D03*
Y635000D02*
D03*
Y622300D02*
D03*
D43*
X959240Y645590D02*
D03*
Y667590D02*
D03*
X976240D02*
D03*
Y645590D02*
D03*
D44*
X1178560Y590490D02*
D03*
X1188060Y570290D02*
D03*
X1169060D02*
D03*
D45*
X1199450Y762000D02*
D03*
X1175450Y752500D02*
D03*
Y771500D02*
D03*
D46*
X1150620Y692850D02*
D03*
X1141120Y716850D02*
D03*
X1160120D02*
D03*
D47*
X709090Y681870D02*
D03*
D48*
Y664870D02*
D03*
X731090D02*
D03*
Y683870D02*
D03*
D49*
X885200Y859760D02*
D03*
D50*
X870200Y877570D02*
D03*
X900200D02*
D03*
D65*
X816610Y519430D02*
D03*
D83*
X1416050Y416560D02*
D03*
D84*
X1441450D02*
D03*
X1466850D02*
D03*
X1492250D02*
D03*
X1517650D02*
D03*
X1543050D02*
D03*
X1372900Y640080D02*
D03*
X1347500D02*
D03*
X1372900Y665480D02*
D03*
X1347500D02*
D03*
X1372900Y690880D02*
D03*
X1347500D02*
D03*
X1372900Y716280D02*
D03*
D85*
X1156970Y415290D02*
D03*
X942340D02*
D03*
X1489710Y977244D02*
D03*
D86*
X1182370Y415290D02*
D03*
X1207770D02*
D03*
X916940D02*
D03*
X891540D02*
D03*
X866140D02*
D03*
X840740D02*
D03*
X815340D02*
D03*
X1540510Y977244D02*
D03*
X1515110D02*
D03*
D89*
X1347500Y716280D02*
D03*
D92*
X1309807Y680480D02*
X1310007D01*
X1284925Y655598D02*
X1309807Y680480D01*
X1282620Y655598D02*
X1284925D01*
X1277620Y650598D02*
X1282620Y655598D01*
X1291219Y699068D02*
Y701411D01*
X1290320Y702310D02*
X1291219Y701411D01*
Y699068D02*
X1309807Y680480D01*
X1559560Y478210D02*
X1560560Y479210D01*
X1571322D01*
X1583190Y482135D02*
Y483370D01*
X1583690Y483870D01*
X1571322Y479210D02*
X1574247Y482135D01*
X1583190D01*
X1533781Y459832D02*
X1551160Y477210D01*
X1562560D01*
X1533781Y458560D02*
Y459832D01*
X1476270Y586640D02*
X1476770Y587140D01*
X1530350Y492760D02*
X1546286D01*
X1590880Y537354D02*
Y586950D01*
X1546286Y492760D02*
X1590880Y537354D01*
Y586950D02*
X1591070Y587140D01*
X1603770Y762380D02*
Y791019D01*
X1605280Y792529D02*
Y793800D01*
X1603770Y791019D02*
X1605280Y792529D01*
X1404620Y716280D02*
Y726440D01*
X1409970Y731790D02*
X1426170D01*
X1404620Y726440D02*
X1409970Y731790D01*
X1603770Y762140D02*
X1605280Y760630D01*
X1591070Y762140D02*
Y785100D01*
X1605280Y760140D02*
Y760630D01*
X1603770Y762140D02*
X1603890Y762260D01*
X1603770Y762380D02*
X1603890Y762260D01*
X1569720Y806450D02*
X1591070Y785100D01*
X932180Y633090D02*
Y646690D01*
Y685848D02*
Y700111D01*
X803910Y946150D02*
X806450D01*
X795020Y937260D02*
X803910Y946150D01*
X795020Y884180D02*
Y937260D01*
X840510Y877570D02*
X840510Y877570D01*
X817880Y877570D02*
X840510D01*
X796020Y883180D02*
X812270D01*
X795020Y884180D02*
X796020Y883180D01*
X812270D02*
X817880Y877570D01*
X778150Y884180D02*
X795020D01*
X713210Y547100D02*
Y591080D01*
X671830Y632460D02*
X713210Y591080D01*
X712210Y546100D02*
X713210Y547100D01*
X712210Y546100D02*
X712460Y545850D01*
X659370Y914640D02*
X707390Y962660D01*
X659370Y883920D02*
Y914640D01*
X707390Y962660D02*
X948690D01*
X873840Y524190D02*
X876300Y521730D01*
X871300Y526730D02*
X873840Y524190D01*
X876300Y521730D02*
X880350Y525780D01*
X905270D02*
X909320Y521730D01*
X880350Y525780D02*
X905270D01*
X860820Y526810D02*
X860900Y526730D01*
X871300D01*
X676910Y753865D02*
Y780020D01*
X659370Y797360D02*
X664370Y792360D01*
X664570D02*
X676910Y780020D01*
X659370Y883920D02*
X683000D01*
X659370Y797360D02*
Y883920D01*
X664370Y792360D02*
X664570D01*
X623570Y632460D02*
X671830D01*
X614680Y641350D02*
X623570Y632460D01*
X614680Y641350D02*
Y661670D01*
X1117600Y444500D02*
X1140460Y467360D01*
X1250950D01*
X1268730Y426720D02*
X1278890Y416560D01*
X1315720D01*
X1268730Y426720D02*
Y449580D01*
X1250950Y467360D02*
X1268730Y449580D01*
X900430Y444500D02*
X1117600D01*
X891540Y435610D02*
X900430Y444500D01*
X891540Y415290D02*
Y435610D01*
X712460Y512060D02*
Y545850D01*
Y512060D02*
X712710Y511810D01*
X628650Y768350D02*
X652780D01*
X615950Y755650D02*
X628650Y768350D01*
X615950Y739140D02*
Y755650D01*
X599440Y722630D02*
X615950Y739140D01*
X599440Y676910D02*
Y722630D01*
Y676910D02*
X614680Y661670D01*
X1315720Y416560D02*
X1416050D01*
X1315720D02*
Y576580D01*
X1206499Y806450D02*
X1280160D01*
X1195069Y817880D02*
X1206499Y806450D01*
X1122680Y817880D02*
X1195069D01*
X1065530Y760730D02*
X1122680Y817880D01*
X695960Y768350D02*
X697232D01*
X702052Y763530D02*
X726440D01*
X697232Y768350D02*
X702052Y763530D01*
X1388981Y791609D02*
Y842130D01*
X1388582D02*
X1388981D01*
Y791609D02*
X1389380Y791210D01*
X888634Y797926D02*
X889000Y797560D01*
X886998Y799562D02*
X888634Y797926D01*
X756670Y763280D02*
X760730Y759220D01*
X1250710Y949960D02*
X1255710Y954960D01*
X1260396Y965200D02*
X1440180D01*
X1255710Y954960D02*
Y960514D01*
X1260396Y965200D01*
X1440180D02*
X1530550Y874830D01*
X1279724Y949126D02*
X1289050Y939800D01*
Y883920D02*
Y939800D01*
Y883920D02*
X1306193Y866777D01*
Y857130D02*
X1306516D01*
X1220470Y971550D02*
X1220590Y971430D01*
Y950080D02*
X1220710Y949960D01*
X1220590Y950080D02*
Y971430D01*
X1251544Y949126D02*
X1279724D01*
X1306193Y857130D02*
Y866777D01*
X895350Y760730D02*
X1065530D01*
X923656Y796290D02*
X1073150D01*
X1088390Y811530D01*
X922020Y797926D02*
X923656Y796290D01*
X1088390Y811530D02*
Y841950D01*
X890270Y765810D02*
X895350Y760730D01*
X889000Y765810D02*
X890270D01*
X1376320Y439940D02*
Y504940D01*
X1289960Y441210D02*
Y506210D01*
X1416050Y416560D02*
Y472680D01*
X709510Y682290D02*
Y713320D01*
X709930Y713740D01*
X709090Y681870D02*
X709510Y682290D01*
X725675Y733295D02*
X726440Y732530D01*
X701805Y733295D02*
X725675D01*
X701040Y734060D02*
X701805Y733295D01*
X857250Y797926D02*
Y877002D01*
X889000Y765810D02*
Y797560D01*
X883844Y760654D02*
X889000Y765810D01*
X763106Y760654D02*
X883844D01*
X726440Y763530D02*
X726690Y763280D01*
X756670D01*
X886998Y799562D02*
Y857962D01*
X885200Y859760D02*
X886998Y857962D01*
X683000Y883920D02*
X683260Y884180D01*
X1000244Y841950D02*
Y911106D01*
X948690Y962660D02*
X1000244Y911106D01*
X1158150Y873850D02*
X1158240Y873760D01*
X1132548Y873940D02*
X1132638Y873850D01*
X1158150D01*
X1088390Y841950D02*
X1165800D01*
X1182370Y858520D01*
Y900430D01*
X1198616Y916676D01*
X1220710D01*
X889876Y846570D02*
X930680D01*
X836742Y935483D02*
X836745Y935486D01*
X870986D01*
X870990Y935490D01*
X1377450Y503810D02*
X1414920D01*
X1416050Y502680D01*
X1376320Y504940D02*
X1377450Y503810D01*
X1245870Y506210D02*
Y532980D01*
X1251960Y539070D01*
X1289960Y506210D02*
Y527800D01*
X1331320Y531881D02*
X1338320Y538881D01*
Y565150D01*
X1331320Y504940D02*
Y531881D01*
X1368320Y541760D02*
Y564150D01*
Y541760D02*
X1376320Y533760D01*
Y504940D02*
Y533760D01*
X1251960Y539070D02*
Y565150D01*
X1282960Y534800D02*
Y565150D01*
Y534800D02*
X1289960Y527800D01*
X964940Y700030D02*
X976240Y688730D01*
X933450Y700030D02*
X964940D01*
X976240Y667590D02*
Y688730D01*
X1530550Y874830D02*
X1543370D01*
X1237844Y888594D02*
X1250710Y901460D01*
X1237844Y878270D02*
Y888594D01*
X1432560Y916940D02*
Y938530D01*
X1220710Y916676D02*
Y949960D01*
X1250710D02*
X1251544Y949126D01*
X1250710Y916676D02*
X1271006D01*
X1271270Y916940D01*
X1250710Y901460D02*
Y916676D01*
X1430985Y854710D02*
X1431225Y854470D01*
X1403350Y914400D02*
X1437880Y879870D01*
X1456625D01*
X1419860Y854710D02*
X1430985D01*
X1394460Y880110D02*
X1419860Y854710D01*
X1328180Y830580D02*
X1332230Y834630D01*
X1383030Y880110D02*
X1394460D01*
X1312202Y830580D02*
X1328180D01*
X1306516Y791210D02*
Y814999D01*
X1292860Y828655D02*
X1306516Y814999D01*
X1292860Y828655D02*
Y852444D01*
X1297546Y857130D01*
X1307516Y835266D02*
X1312202Y830580D01*
X1306516Y842130D02*
X1307516D01*
X1297546Y857130D02*
X1306516D01*
X1307516Y835266D02*
Y842130D01*
X956050Y615690D02*
X974240Y633880D01*
X932180Y615690D02*
X956050D01*
X974240Y633880D02*
Y643590D01*
X976240Y645590D01*
X932180Y646690D02*
X936180D01*
X958520Y668310D02*
X959240Y667590D01*
X934170Y668310D02*
X958520D01*
X936180Y646690D02*
X937280Y645590D01*
X959240D01*
X900300Y935590D02*
X939700D01*
X900200Y935490D02*
X900300Y935590D01*
X939700D02*
X939800Y935690D01*
X885200Y890690D02*
X900000Y905490D01*
X900200D01*
X885200Y859760D02*
Y890690D01*
X1132448Y904040D02*
X1132548Y904140D01*
X1102068Y903940D02*
X1102168Y904040D01*
X1132448D01*
D93*
X1603890Y560190D02*
Y587020D01*
Y560190D02*
X1604010Y560070D01*
X1474470Y474356D02*
Y476440D01*
X1466850Y466736D02*
X1474470Y474356D01*
X1466850Y416560D02*
Y466736D01*
X1595120Y483870D02*
Y520700D01*
X1476770Y517920D02*
Y587140D01*
X1441450Y482600D02*
X1476770Y517920D01*
X1464070Y561818D02*
Y587140D01*
X1451490Y572140D02*
Y587020D01*
X1443326Y563976D02*
X1451490Y572140D01*
X1443326Y562989D02*
Y563976D01*
X1451370Y587140D02*
X1451490Y587020D01*
X1489470Y567930D02*
Y587140D01*
Y567930D02*
X1489710Y567690D01*
X1502170Y524270D02*
Y587140D01*
X1489710Y749300D02*
Y761900D01*
X1451370Y762140D02*
Y777000D01*
X1438670Y762140D02*
Y787160D01*
X1405120Y617990D02*
X1425670D01*
X1404620Y618490D02*
X1405120Y617990D01*
X1426305Y718955D02*
X1446395D01*
X1446530Y718820D01*
X1502170Y738110D02*
Y762140D01*
Y738110D02*
X1502410Y737870D01*
X1578370Y762140D02*
Y777000D01*
X1576370Y760140D02*
X1578370Y762140D01*
X1514870Y517130D02*
Y587140D01*
X1374251D02*
X1438670D01*
X1489470Y762140D02*
X1489710Y761900D01*
X1603770Y587140D02*
X1603890Y587020D01*
X1425670Y617990D02*
X1426170Y617490D01*
Y719090D02*
X1426305Y718955D01*
X1441450Y416560D02*
Y482600D01*
X1373421Y587970D02*
X1374251Y587140D01*
X1290280Y587970D02*
X1373421D01*
X1282960Y580650D02*
X1290280Y587970D01*
X1282960Y565150D02*
Y580650D01*
X1514870Y517130D02*
X1517650Y514350D01*
Y416560D02*
Y514350D01*
X1570510Y784860D02*
X1578370Y777000D01*
X1494790Y784860D02*
X1570510D01*
X1493520Y786130D02*
X1494790Y784860D01*
X1489710Y953770D02*
Y977244D01*
Y953770D02*
X1562100Y881380D01*
Y838200D02*
Y881380D01*
X1551940Y828040D02*
X1562100Y838200D01*
X1479550Y828040D02*
X1551940D01*
X1438670Y787160D02*
X1479550Y828040D01*
X1540510Y925830D02*
Y977244D01*
Y925830D02*
X1573530Y892810D01*
Y828040D02*
Y892810D01*
X1563370Y817880D02*
X1573530Y828040D01*
X1492250Y817880D02*
X1563370D01*
X1451370Y777000D02*
X1492250Y817880D01*
X1389380Y759460D02*
Y791210D01*
Y759460D02*
X1404620Y744220D01*
X1484630D01*
X1489710Y749300D01*
X1492250Y514350D02*
X1502170Y524270D01*
X1492250Y416560D02*
Y514350D01*
X771150Y884180D02*
X778150D01*
X743210Y546100D02*
Y575192D01*
X727635Y590767D02*
X743210Y575192D01*
X821690Y712849D02*
X822069Y712470D01*
X821690Y712849D02*
Y723900D01*
X670430Y674500D02*
X670560Y674370D01*
X643535Y674500D02*
X670430D01*
X643535Y722500D02*
X671700D01*
X671830Y722630D01*
X1032407Y521730D02*
X1036945Y517192D01*
X1046178D02*
X1052830Y510540D01*
X1036945Y517192D02*
X1046178D01*
X1052830Y510540D02*
X1060061D01*
X1062990Y507611D01*
Y496770D02*
Y507611D01*
X973785Y521730D02*
X978861Y516654D01*
X987516D02*
X998294Y505876D01*
Y499770D02*
X1001294Y496770D01*
X978861Y516654D02*
X987516D01*
X998294Y499770D02*
Y505876D01*
X1001294Y496770D02*
X1003300D01*
X875030Y475772D02*
Y490460D01*
Y475772D02*
X888368Y462434D01*
X875030Y490460D02*
X876300Y491730D01*
X941349Y465099D02*
Y491730D01*
X898319Y457011D02*
X933261D01*
X941070Y464820D02*
X948879Y457011D01*
Y457011D02*
X962395D01*
X933261D02*
X941070Y464820D01*
X973785Y468401D02*
X984784Y457011D01*
X1009461D01*
X1031240Y478790D01*
X962395Y457011D02*
X973885Y468500D01*
X897877Y457453D02*
X898319Y457011D01*
X891540Y458926D02*
X893013Y457453D01*
X897877D01*
X913426Y478378D02*
Y487624D01*
X921320Y468401D02*
Y470484D01*
X913426Y478378D02*
X921320Y470484D01*
X909320Y491730D02*
X913426Y487624D01*
X973885Y468500D02*
Y471463D01*
X973785Y471562D02*
X973885Y471463D01*
X973785Y471562D02*
Y491730D01*
X941349Y521730D02*
Y538480D01*
X936269Y543560D02*
X941349Y538480D01*
X921320Y543560D02*
X936269D01*
X1002030Y528240D02*
Y544830D01*
Y528240D02*
X1003300Y526970D01*
X991870Y554990D02*
X1002030Y544830D01*
X955040Y554990D02*
X991870D01*
X1061720Y528240D02*
Y562610D01*
Y528240D02*
X1062990Y526970D01*
X1031240Y478790D02*
Y490563D01*
X1032407Y491730D01*
X676910Y727710D02*
Y753865D01*
X857250Y670560D02*
Y690880D01*
Y670560D02*
X867410Y660400D01*
X886740D01*
X840740Y722630D02*
X854710Y736600D01*
X840740Y712470D02*
Y722630D01*
X854710Y736600D02*
X886740D01*
X689370Y797560D02*
X694450Y792480D01*
X812800D01*
X821690Y783590D01*
X769620Y844550D02*
Y864870D01*
X747776Y868680D02*
X765810D01*
X769620Y864870D01*
X822325Y622935D02*
X822960Y623570D01*
X794740Y622300D02*
X795375Y622935D01*
X822325D01*
X1410970Y842010D02*
Y843040D01*
X1388582Y857130D02*
X1389236Y856476D01*
X1397534D01*
X1410970Y843040D01*
X1393273Y943693D02*
X1394460Y944880D01*
X1369361Y943610D02*
X1369444Y943693D01*
X1393273D01*
X1057390Y824294D02*
X1061720Y819964D01*
Y817880D02*
Y819964D01*
X1057390Y824294D02*
Y841950D01*
X1043940Y817880D02*
Y838200D01*
X1026160Y817880D02*
Y819964D01*
X1031244Y825047D02*
Y841950D01*
X1026160Y819964D02*
X1031244Y825047D01*
X821690Y845820D02*
X822065Y846195D01*
X840135D02*
X840510Y846570D01*
X822065Y846195D02*
X840135D01*
X749060Y822960D02*
X749300Y822720D01*
Y803910D02*
Y822720D01*
X795020Y839470D02*
Y853180D01*
X683260Y836930D02*
Y853180D01*
X836515Y905510D02*
X836742Y905283D01*
X820420Y905510D02*
X836515D01*
X814070Y911860D02*
X820420Y905510D01*
X814070Y911860D02*
Y927100D01*
X709090Y630760D02*
Y664870D01*
Y630760D02*
X746760Y593090D01*
X744220Y482600D02*
X764540Y462280D01*
X742710Y511810D02*
X744220Y510300D01*
Y482600D02*
Y510300D01*
X764540Y462280D02*
X828040D01*
X834390Y468630D01*
Y482457D01*
X866140Y415290D02*
Y461010D01*
X840740Y415290D02*
Y451306D01*
X848360Y458926D01*
X659130Y645350D02*
Y660991D01*
X653661Y666460D02*
X659130Y660991D01*
X649235Y666460D02*
X653661D01*
X678180Y666750D02*
X707210D01*
X709090Y664870D01*
X670560Y674370D02*
X678180Y666750D01*
X637785Y655300D02*
X638350D01*
X640660Y657610D01*
X641160Y666500D02*
X643535D01*
X640660Y666000D02*
X641160Y666500D01*
X660400Y734060D02*
Y740410D01*
X643535Y730500D02*
X656840D01*
X660400Y734060D01*
X1282700Y745490D02*
X1306830D01*
X1266190Y762000D02*
X1282700Y745490D01*
X1221740Y762000D02*
X1266190D01*
X1199450D02*
X1221740D01*
X1304493Y908907D02*
Y914197D01*
X1303020Y915670D02*
X1304493Y914197D01*
X1307890Y905510D02*
X1323039D01*
X1304493Y908907D02*
X1307890Y905510D01*
X1368320Y564150D02*
X1369860Y562610D01*
X1388110D01*
X1178560Y590490D02*
Y605790D01*
X1089623Y591820D02*
X1118833Y621030D01*
X1200150D01*
X1211580Y590550D02*
Y609600D01*
X1200150Y621030D02*
X1211580Y609600D01*
X991870Y736600D02*
X1052830Y675640D01*
Y651792D02*
Y675640D01*
Y651792D02*
X1068352Y636270D01*
X886740Y736600D02*
X991870D01*
X1201420Y636270D02*
X1236780Y600910D01*
X1068432Y636270D02*
X1201420D01*
X1236780Y600910D02*
X1274010D01*
X1206260Y544590D02*
X1212019Y550349D01*
Y558089D01*
X1212850Y558920D01*
X1178760Y544590D02*
X1206260D01*
X1275240Y491490D02*
X1289960Y506210D01*
X1123950Y491490D02*
X1275240D01*
X1111250Y504190D02*
X1123950Y491490D01*
X1111250Y504190D02*
Y521970D01*
X981710Y726440D02*
X1002030Y706120D01*
X916940Y726440D02*
X981710D01*
X914400Y680720D02*
Y707390D01*
X906780Y673100D02*
X914400Y680720D01*
Y707390D02*
X922020Y715010D01*
X971550D02*
X1019810Y666750D01*
X922020Y715010D02*
X971550D01*
X906780Y690880D02*
Y716280D01*
X916940Y726440D01*
X901748Y685848D02*
X906780Y690880D01*
X886740Y685800D02*
X886788Y685848D01*
X901748D01*
X886740Y673100D02*
X906780D01*
X670560Y674370D02*
X671830D01*
X676910Y679450D01*
Y717550D01*
X671830Y722630D02*
X676910Y727710D01*
X671830Y722630D02*
X676910Y717550D01*
X759460Y679450D02*
Y731760D01*
X760730Y733030D01*
X759460Y679450D02*
X778127Y660783D01*
X797177D01*
X797560Y660400D01*
X1085850Y650240D02*
X1202690D01*
X1012190Y749300D02*
X1085850Y675640D01*
Y650240D02*
Y675640D01*
X1202690Y650240D02*
X1240790Y612140D01*
X1212850Y573920D02*
Y590550D01*
X852170Y518160D02*
X860820Y526810D01*
X1240790Y612140D02*
X1262380D01*
X1162050Y670560D02*
X1163320D01*
X1150620Y681990D02*
Y692850D01*
Y681990D02*
X1162050Y670560D01*
X1111250Y521970D02*
X1131630D01*
X797560Y660400D02*
X820420D01*
X1117640Y734100D02*
X1129907Y746367D01*
X1117640Y713660D02*
Y734100D01*
X1117600Y713620D02*
X1117640Y713660D01*
X1137287Y746367D02*
X1143000Y752080D01*
X1129907Y746367D02*
X1137287D01*
X847090Y749300D02*
X1012190D01*
X821690Y723900D02*
X847090Y749300D01*
X1386840Y930910D02*
X1403350Y914400D01*
X1338580Y920750D02*
X1348740Y930910D01*
X1393190Y897890D02*
Y908050D01*
X1383113Y918127D02*
X1393190Y908050D01*
X1369361Y930910D02*
X1386840D01*
X1369444Y918127D02*
X1383113D01*
X1369361Y918210D02*
X1369444Y918127D01*
X1348740Y930910D02*
X1369361D01*
X1338580Y870980D02*
Y920750D01*
X1332230Y864630D02*
X1338580Y870980D01*
X1352550Y886460D02*
X1360809Y878201D01*
X1368179Y880110D02*
X1383030D01*
X1365250Y877181D02*
X1368179Y880110D01*
X1360809Y866531D02*
X1362710Y864630D01*
X1355479Y905510D02*
X1369361D01*
X1362710Y864630D02*
X1365250Y867170D01*
X1360809Y866531D02*
Y878201D01*
X1365250Y867170D02*
Y877181D01*
X1352550Y886460D02*
Y902581D01*
X1355479Y905510D01*
X1145540Y587770D02*
X1146570Y586740D01*
X1164590D01*
X1169060Y582270D01*
Y570290D02*
Y582270D01*
X1178560Y544590D02*
X1178760D01*
X1185260Y557880D02*
X1188060Y560680D01*
X1178760Y544590D02*
X1185260Y551090D01*
Y557880D01*
X1188060Y560680D02*
Y570290D01*
X1176440Y512470D02*
X1178560Y514590D01*
X1151830Y512470D02*
X1176440D01*
X1151830Y531470D02*
Y551480D01*
X1145540Y557770D02*
X1151830Y551480D01*
X1117600Y558920D02*
X1144390D01*
X1145540Y557770D01*
X794740Y723900D02*
X821690D01*
X1117600Y681990D02*
Y698620D01*
Y573920D02*
Y593090D01*
X923151Y666611D02*
X929680D01*
X887123Y648083D02*
X904623D01*
X923151Y666611D01*
X905893Y634617D02*
X922320Y618190D01*
X887123Y634617D02*
X905893D01*
X922320Y618190D02*
X929680D01*
X886740Y647700D02*
X887123Y648083D01*
X929680Y666611D02*
X932180Y669111D01*
X929680Y618190D02*
X932180Y615690D01*
X886740Y635000D02*
X887123Y634617D01*
X820420Y660400D02*
X858520Y622300D01*
X886740D01*
X1187450Y723660D02*
X1187650D01*
X1195150Y716160D02*
X1211580D01*
X1187650Y723660D02*
X1195150Y716160D01*
X1143000Y735330D02*
Y752080D01*
X1141120Y733450D02*
X1143000Y735330D01*
X1141120Y716850D02*
Y733450D01*
X1164750Y772000D02*
X1174950D01*
X1175450Y771500D01*
X1161170Y775580D02*
X1164750Y772000D01*
X1143000Y782080D02*
X1149500Y775580D01*
X1161170D01*
X1175950Y752000D02*
X1182210D01*
X1175450Y752500D02*
X1175950Y752000D01*
X1182210D02*
X1187450Y746760D01*
Y723660D02*
Y746760D01*
X1187210Y693420D02*
X1187450Y693660D01*
X1168400Y693420D02*
X1187210D01*
X1160120Y701700D02*
Y716850D01*
Y701700D02*
X1168400Y693420D01*
X870200Y904700D02*
X870990Y905490D01*
X734060Y862719D02*
Y900430D01*
X747482Y859576D02*
X747776Y859282D01*
X737203Y859576D02*
X747482D01*
X734060Y862719D02*
X737203Y859576D01*
X734060Y900430D02*
X741680Y908050D01*
X752870D01*
X753110Y908290D01*
X747776Y878078D02*
X765048D01*
X771150Y884180D01*
D94*
X1242306Y637540D02*
D03*
Y662940D02*
D03*
Y688340D02*
D03*
D95*
Y713740D02*
D03*
D96*
X595985Y655300D02*
D03*
Y741700D02*
D03*
D97*
X632785Y669600D02*
D03*
Y727400D02*
D03*
D98*
X637785Y741700D02*
D03*
Y655300D02*
D03*
D99*
X1512570Y682640D02*
D03*
Y696640D02*
D03*
X1519570Y675640D02*
D03*
Y689640D02*
D03*
Y703640D02*
D03*
X1526570Y682640D02*
D03*
Y696640D02*
D03*
X1533570Y675640D02*
D03*
Y689640D02*
D03*
Y703640D02*
D03*
X1540570Y682640D02*
D03*
Y696640D02*
D03*
D100*
X1139190Y975360D02*
D03*
D101*
X1113790D02*
D03*
D102*
X1543370Y874830D02*
D03*
Y849830D02*
D03*
X1289960Y441210D02*
D03*
X1244960Y506210D02*
D03*
Y441210D02*
D03*
X1376320Y439940D02*
D03*
X1331320Y504940D02*
D03*
Y439940D02*
D03*
D103*
X1289960Y506210D02*
D03*
X1376320Y504940D02*
D03*
D104*
X1596390Y966470D02*
D03*
Y425450D02*
D03*
X673100Y429260D02*
D03*
X669290Y966470D02*
D03*
D105*
X1263244Y852870D02*
D03*
X1237844Y878270D02*
D03*
X1212444Y852870D02*
D03*
X1456625Y879870D02*
D03*
X1431225Y854470D02*
D03*
X1456625Y829070D02*
D03*
D106*
X1290320Y702310D02*
D03*
X1533781Y458560D02*
D03*
X1603770Y560070D02*
D03*
X1474470Y476440D02*
D03*
X1595120Y520700D02*
D03*
X1464070Y561818D02*
D03*
X1443326Y562989D02*
D03*
X1530350Y492760D02*
D03*
X1489710Y567690D02*
D03*
X928370Y888365D02*
D03*
X939800Y878720D02*
D03*
X932180Y633090D02*
D03*
Y685848D02*
D03*
X806450Y946150D02*
D03*
X727635Y590767D02*
D03*
X822069Y712470D02*
D03*
X891540Y458926D02*
D03*
X921320Y468401D02*
D03*
X955040Y554990D02*
D03*
X857250Y690880D02*
D03*
X840740Y712470D02*
D03*
X821690Y783590D02*
D03*
X1061720Y562610D02*
D03*
X1602740Y650730D02*
D03*
Y716085D02*
D03*
Y628945D02*
D03*
Y672515D02*
D03*
X1605280Y793800D02*
D03*
X1602740Y694300D02*
D03*
X769620Y844550D02*
D03*
X822960Y623570D02*
D03*
X816610Y519430D02*
D03*
X1410970Y842010D02*
D03*
X1394460Y944880D02*
D03*
X1061720Y817880D02*
D03*
X1043940D02*
D03*
X1026160D02*
D03*
X1016000Y935990D02*
D03*
X1071880D02*
D03*
X1056640Y955040D02*
D03*
X1028700D02*
D03*
X821690Y845820D02*
D03*
X683260Y836930D02*
D03*
X749300Y803910D02*
D03*
X795020Y839470D02*
D03*
X814070Y927100D02*
D03*
X746760Y593090D02*
D03*
X866140Y461010D02*
D03*
X848360D02*
D03*
X1315720Y576580D02*
D03*
X814070Y477520D02*
D03*
X781050Y500380D02*
D03*
X659130Y645350D02*
D03*
X660400Y745865D02*
D03*
X1569720Y806450D02*
D03*
X1532890Y607060D02*
D03*
X1280160Y806450D02*
D03*
X695960Y768350D02*
D03*
X652780D02*
D03*
X623570Y701040D02*
D03*
X1404620Y716280D02*
D03*
X1493520Y786130D02*
D03*
X1502410Y737870D02*
D03*
X1306830Y745490D02*
D03*
X1221740Y762000D02*
D03*
X1303020Y915670D02*
D03*
X1220470Y971550D02*
D03*
X1388110Y562610D02*
D03*
X1211580Y684530D02*
D03*
X1178560Y605790D02*
D03*
X1032510Y632460D02*
D03*
X1085850Y623570D02*
D03*
X1446530Y718820D02*
D03*
X1002030Y706120D02*
D03*
X764540Y635000D02*
D03*
X709930Y713740D02*
D03*
X731520Y702310D02*
D03*
Y647700D02*
D03*
X701040Y734060D02*
D03*
X662940Y695960D02*
D03*
X1085850Y650240D02*
D03*
X1019810Y666750D02*
D03*
X1212850Y590550D02*
D03*
X1163320Y670560D02*
D03*
X1111250Y521970D02*
D03*
X1404620Y618490D02*
D03*
X1578610Y608330D02*
D03*
X1158240Y873760D02*
D03*
X1271270Y916940D02*
D03*
X1393190Y897890D02*
D03*
X1432560Y916940D02*
D03*
X1117600Y681990D02*
D03*
Y593090D02*
D03*
M02*
