G04*
G04 #@! TF.GenerationSoftware,Altium Limited,Altium Designer,23.2.1 (34)*
G04*
G04 Layer_Color=32768*
%FSLAX44Y44*%
%MOMM*%
G71*
G04*
G04 #@! TF.SameCoordinates,75154B13-1296-4508-9C84-23632F313CF3*
G04*
G04*
G04 #@! TF.FilePolarity,Positive*
G04*
G01*
G75*
%ADD10C,0.2000*%
D10*
X1401100Y431260D02*
X1558000D01*
Y401860D02*
Y431260D01*
X1401100Y401860D02*
X1558000D01*
X1401100D02*
Y431260D01*
X1143270Y428990D02*
X1221470D01*
Y401590D02*
Y428990D01*
X1143270Y401590D02*
X1221470D01*
X1143270D02*
Y428990D01*
X792360Y495180D02*
X840860D01*
Y543680D01*
X792360D02*
X840860D01*
X792360Y495180D02*
Y543680D01*
X1476010Y963544D02*
Y990944D01*
Y963544D02*
X1554210D01*
Y990944D01*
X1476010D02*
X1554210D01*
X1333400Y730615D02*
X1387000D01*
X1333400Y625745D02*
Y730615D01*
Y625745D02*
X1387000D01*
Y730615D01*
X1379731Y899060D02*
Y950060D01*
X1312669D02*
X1379731D01*
X1312669Y899060D02*
Y950060D01*
Y899060D02*
X1379731D01*
X1156830Y505970D02*
Y537970D01*
X1126630D02*
X1156830D01*
X1126630Y505970D02*
Y537970D01*
Y505970D02*
X1156830D01*
X952240Y637590D02*
X983240D01*
Y675590D01*
X952240D02*
X983240D01*
X952240Y637590D02*
Y675590D01*
X1162560Y565290D02*
X1194560D01*
Y595490D01*
X1162560D02*
X1194560D01*
X1162560Y565290D02*
Y595490D01*
X909200Y839920D02*
Y887220D01*
X861200D02*
X909200D01*
X861200Y839920D02*
Y887220D01*
Y839920D02*
X909200D01*
M02*
