G04*
G04 #@! TF.GenerationSoftware,Altium Limited,Altium Designer,23.2.1 (34)*
G04*
G04 Layer_Physical_Order=2*
G04 Layer_Color=16711680*
%FSLAX44Y44*%
%MOMM*%
G71*
G04*
G04 #@! TF.SameCoordinates,75154B13-1296-4508-9C84-23632F313CF3*
G04*
G04*
G04 #@! TF.FilePolarity,Positive*
G04*
G01*
G75*
%ADD16C,0.2540*%
%ADD83R,1.5700X1.5700*%
%ADD84C,1.5700*%
%ADD85R,1.5500X1.5500*%
%ADD86C,1.5500*%
%ADD89R,1.5700X1.5700*%
%ADD92C,0.8000*%
%ADD93C,0.5000*%
%ADD94C,1.6000*%
%ADD95R,1.6000X1.6000*%
%ADD96O,1.8000X1.0000*%
%ADD97C,0.6500*%
%ADD98O,2.1000X1.0000*%
%ADD99C,0.3000*%
%ADD100R,1.5000X1.5000*%
%ADD101C,1.5000*%
%ADD102C,1.5080*%
%ADD103R,1.5080X1.5080*%
%ADD104C,3.0000*%
%ADD105C,1.2100*%
%ADD106C,1.2700*%
G36*
X1605934Y994122D02*
X1609593Y992937D01*
X1613021Y991193D01*
X1616134Y988933D01*
X1618853Y986214D01*
X1621113Y983101D01*
X1622857Y979673D01*
X1624042Y976014D01*
X1624639Y972215D01*
X1624634Y968369D01*
X1624330Y966470D01*
X1624330D01*
X1624330Y966470D01*
X1625600Y796290D01*
X1625722Y793800D01*
X1626694Y788917D01*
X1628599Y784316D01*
X1631366Y780176D01*
X1634886Y776656D01*
X1639026Y773889D01*
X1643627Y771984D01*
X1648510Y771012D01*
X1651000Y770890D01*
X1683003D01*
X1683469Y770697D01*
X1683827Y770339D01*
X1684020Y769873D01*
Y769620D01*
X1684020Y581660D01*
X1684020Y580902D01*
X1683440Y579501D01*
X1682368Y578429D01*
X1681405Y578031D01*
X1680210Y577850D01*
Y577850D01*
X1651000Y577850D01*
X1648629Y577858D01*
X1643941Y577180D01*
X1639475Y575600D01*
X1635403Y573179D01*
X1631882Y570010D01*
X1629047Y566215D01*
X1627007Y561940D01*
X1625840Y557349D01*
X1625600Y554990D01*
X1625600Y554990D01*
X1625600Y554990D01*
X1624330Y422910D01*
X1624330Y420408D01*
X1623354Y415501D01*
X1621440Y410878D01*
X1618660Y406718D01*
X1615122Y403180D01*
X1610962Y400400D01*
X1606339Y398486D01*
X1601432Y397510D01*
X1598930Y397510D01*
X673100D01*
X671019Y397510D01*
X666892Y398053D01*
X662872Y399130D01*
X659027Y400723D01*
X655422Y402804D01*
X652120Y405338D01*
X649177Y408281D01*
X646644Y411583D01*
X644563Y415187D01*
X642970Y419032D01*
X641893Y423052D01*
X641350Y427179D01*
X641350Y429260D01*
X641350Y589280D01*
X641228Y591770D01*
X640257Y596653D01*
X638351Y601254D01*
X635585Y605394D01*
X632064Y608915D01*
X627924Y611681D01*
X623323Y613586D01*
X618440Y614558D01*
X615950Y614680D01*
X615950Y614680D01*
X615950Y614680D01*
X592660Y614680D01*
X590158Y614680D01*
X585251Y615656D01*
X580629Y617571D01*
X576468Y620350D01*
X572930Y623888D01*
X570151Y628049D01*
X568236Y632671D01*
X567260Y637578D01*
X567260Y640080D01*
Y765810D01*
X567260Y768312D01*
X568236Y773219D01*
X570151Y777841D01*
X572930Y782001D01*
X576468Y785539D01*
X580629Y788319D01*
X585251Y790234D01*
X590158Y791210D01*
X592660Y791210D01*
X592660Y791210D01*
X615950D01*
X618440Y791332D01*
X623323Y792304D01*
X627924Y794209D01*
X632064Y796975D01*
X635584Y800496D01*
X638351Y804637D01*
X640256Y809237D01*
X641228Y814120D01*
X641350Y816610D01*
Y969010D01*
Y971512D01*
X642326Y976419D01*
X644241Y981041D01*
X647020Y985201D01*
X650558Y988739D01*
X654719Y991519D01*
X659341Y993434D01*
X664248Y994410D01*
X666750D01*
X666750Y994410D01*
X704850D01*
X1596390Y994410D01*
X1598289Y994714D01*
X1602135Y994720D01*
X1605934Y994122D01*
D02*
G37*
%LPC*%
G36*
X1541865Y987534D02*
X1539155D01*
X1536538Y986833D01*
X1534192Y985478D01*
X1532276Y983562D01*
X1530921Y981216D01*
X1530220Y978599D01*
Y975889D01*
X1530921Y973272D01*
X1532276Y970926D01*
X1534192Y969010D01*
X1536538Y967655D01*
X1539155Y966954D01*
X1541865D01*
X1544482Y967655D01*
X1546828Y969010D01*
X1548744Y970926D01*
X1550099Y973272D01*
X1550800Y975889D01*
Y978599D01*
X1550099Y981216D01*
X1548744Y983562D01*
X1546828Y985478D01*
X1544482Y986833D01*
X1541865Y987534D01*
D02*
G37*
G36*
X1500000D02*
X1479420D01*
Y966954D01*
X1500000D01*
Y987534D01*
D02*
G37*
G36*
X1115112Y985400D02*
X1112468D01*
X1109915Y984716D01*
X1107625Y983394D01*
X1106188Y981956D01*
X835660D01*
X833953Y981732D01*
X832362Y981073D01*
X830996Y980024D01*
X806011Y955040D01*
X805280D01*
X803019Y954434D01*
X800991Y953264D01*
X799336Y951609D01*
X798166Y949581D01*
X797560Y947320D01*
Y944980D01*
X798166Y942719D01*
X799336Y940691D01*
X800991Y939036D01*
X803019Y937866D01*
X805280Y937260D01*
X807620D01*
X809881Y937866D01*
X811909Y939036D01*
X813564Y940691D01*
X814734Y942719D01*
X815340Y944980D01*
Y945711D01*
X838392Y968764D01*
X1106188D01*
X1107625Y967326D01*
X1109915Y966004D01*
X1112468Y965320D01*
X1115112D01*
X1117665Y966004D01*
X1119955Y967326D01*
X1121824Y969195D01*
X1123146Y971485D01*
X1123830Y974038D01*
Y976682D01*
X1123146Y979235D01*
X1121824Y981525D01*
X1119955Y983394D01*
X1117665Y984716D01*
X1115112Y985400D01*
D02*
G37*
G36*
X1221640Y980440D02*
X1219300D01*
X1217039Y979834D01*
X1215011Y978664D01*
X1214494Y978146D01*
X1197610D01*
X1195903Y977922D01*
X1194312Y977263D01*
X1192946Y976214D01*
X1180246Y963514D01*
X1179197Y962148D01*
X1178538Y960557D01*
X1178314Y958850D01*
Y838200D01*
X1178538Y836493D01*
X1179197Y834902D01*
X1180246Y833536D01*
X1256042Y757739D01*
Y695954D01*
X1255024Y694936D01*
X1250616D01*
X1248778Y696774D01*
X1246375Y698162D01*
X1243694Y698880D01*
X1240919D01*
X1238238Y698162D01*
X1235835Y696774D01*
X1233872Y694812D01*
X1232485Y692408D01*
X1231766Y689728D01*
Y686952D01*
X1232485Y684272D01*
X1233872Y681868D01*
X1235835Y679906D01*
X1238238Y678518D01*
X1240919Y677800D01*
X1243694D01*
X1246375Y678518D01*
X1248778Y679906D01*
X1250616Y681744D01*
X1257756D01*
X1259464Y681968D01*
X1261055Y682627D01*
X1262421Y683676D01*
X1267303Y688558D01*
X1268351Y689924D01*
X1269010Y691515D01*
X1269235Y693222D01*
Y760472D01*
X1269010Y762179D01*
X1268351Y763770D01*
X1267303Y765136D01*
X1191506Y840932D01*
Y956118D01*
X1200342Y964954D01*
X1214494D01*
X1215011Y964436D01*
X1217039Y963266D01*
X1219300Y962660D01*
X1221640D01*
X1223901Y963266D01*
X1225929Y964436D01*
X1226446Y964954D01*
X1274888D01*
X1296424Y943418D01*
Y921646D01*
X1295906Y921129D01*
X1294736Y919101D01*
X1294130Y916840D01*
Y914500D01*
X1294736Y912239D01*
X1295906Y910211D01*
X1297561Y908556D01*
X1299589Y907386D01*
X1301850Y906780D01*
X1304190D01*
X1306451Y907386D01*
X1308479Y908556D01*
X1310134Y910211D01*
X1311304Y912239D01*
X1311910Y914500D01*
Y916840D01*
X1311304Y919101D01*
X1310134Y921129D01*
X1309616Y921646D01*
Y946150D01*
X1309392Y947857D01*
X1308733Y949448D01*
X1307684Y950814D01*
X1282284Y976214D01*
X1280918Y977263D01*
X1279327Y977922D01*
X1277620Y978146D01*
X1226446D01*
X1225929Y978664D01*
X1223901Y979834D01*
X1221640Y980440D01*
D02*
G37*
G36*
X1433730Y925830D02*
X1431390D01*
X1429129Y925224D01*
X1427101Y924054D01*
X1425446Y922399D01*
X1424276Y920371D01*
X1423670Y918110D01*
Y917379D01*
X1408238Y901946D01*
X1401113D01*
X1400304Y903349D01*
X1398649Y905004D01*
X1396621Y906174D01*
X1394360Y906780D01*
X1392020D01*
X1389759Y906174D01*
X1387731Y905004D01*
X1386076Y903349D01*
X1384906Y901321D01*
X1384498Y899798D01*
X1384106Y899406D01*
X1298132D01*
X1280160Y917379D01*
Y918110D01*
X1279554Y920371D01*
X1278384Y922399D01*
X1276729Y924054D01*
X1274701Y925224D01*
X1272440Y925830D01*
X1270100D01*
X1267839Y925224D01*
X1265811Y924054D01*
X1264156Y922399D01*
X1262986Y920371D01*
X1262380Y918110D01*
Y915770D01*
X1262986Y913509D01*
X1264156Y911481D01*
X1265811Y909826D01*
X1267839Y908656D01*
X1270100Y908050D01*
X1270831D01*
X1290736Y888146D01*
X1292102Y887097D01*
X1293693Y886438D01*
X1295400Y886214D01*
X1386838D01*
X1388546Y886438D01*
X1390136Y887097D01*
X1391503Y888146D01*
X1392357Y889000D01*
X1394360D01*
X1394896Y889144D01*
X1395294Y888978D01*
X1397002Y888754D01*
X1410970D01*
X1412677Y888978D01*
X1414268Y889637D01*
X1415634Y890686D01*
X1432999Y908050D01*
X1433730D01*
X1435991Y908656D01*
X1438019Y909826D01*
X1439674Y911481D01*
X1440844Y913509D01*
X1441450Y915770D01*
Y918110D01*
X1440844Y920371D01*
X1439674Y922399D01*
X1438019Y924054D01*
X1435991Y925224D01*
X1433730Y925830D01*
D02*
G37*
G36*
X1457755Y888460D02*
X1455494D01*
X1453309Y887875D01*
X1451350Y886744D01*
X1449751Y885144D01*
X1448620Y883186D01*
X1448035Y881001D01*
Y878739D01*
X1448620Y876554D01*
X1449751Y874596D01*
X1451350Y872996D01*
X1453309Y871865D01*
X1455494Y871280D01*
X1457755D01*
X1459940Y871865D01*
X1461899Y872996D01*
X1463498Y874596D01*
X1464629Y876554D01*
X1465215Y878739D01*
Y881001D01*
X1464629Y883186D01*
X1463498Y885144D01*
X1461899Y886744D01*
X1459940Y887875D01*
X1457755Y888460D01*
D02*
G37*
G36*
X1238975Y886860D02*
X1236713D01*
X1234528Y886275D01*
X1232570Y885144D01*
X1230970Y883544D01*
X1229839Y881586D01*
X1229254Y879401D01*
Y877139D01*
X1229839Y874954D01*
X1230970Y872996D01*
X1232570Y871396D01*
X1234528Y870265D01*
X1236713Y869680D01*
X1238975D01*
X1241160Y870265D01*
X1243118Y871396D01*
X1244718Y872996D01*
X1245849Y874954D01*
X1246434Y877139D01*
Y879401D01*
X1245849Y881586D01*
X1244718Y883544D01*
X1243118Y885144D01*
X1241160Y886275D01*
X1238975Y886860D01*
D02*
G37*
G36*
X1544697Y884910D02*
X1542043D01*
X1539479Y884223D01*
X1537181Y882896D01*
X1535304Y881019D01*
X1533977Y878721D01*
X1533290Y876157D01*
Y873503D01*
X1533977Y870939D01*
X1535304Y868641D01*
X1537181Y866764D01*
X1539479Y865437D01*
X1542043Y864750D01*
X1544697D01*
X1547261Y865437D01*
X1549559Y866764D01*
X1551436Y868641D01*
X1552763Y870939D01*
X1553450Y873503D01*
Y876157D01*
X1552763Y878721D01*
X1551436Y881019D01*
X1549559Y882896D01*
X1547261Y884223D01*
X1544697Y884910D01*
D02*
G37*
G36*
X1432355Y863060D02*
X1430094D01*
X1427909Y862475D01*
X1425950Y861344D01*
X1424351Y859744D01*
X1423220Y857786D01*
X1422635Y855601D01*
Y853339D01*
X1423220Y851154D01*
X1424351Y849196D01*
X1425950Y847596D01*
X1427909Y846465D01*
X1430094Y845880D01*
X1432355D01*
X1434540Y846465D01*
X1436499Y847596D01*
X1438098Y849196D01*
X1439229Y851154D01*
X1439815Y853339D01*
Y855601D01*
X1439229Y857786D01*
X1438098Y859744D01*
X1436499Y861344D01*
X1434540Y862475D01*
X1432355Y863060D01*
D02*
G37*
G36*
X1264375Y861460D02*
X1262113D01*
X1259928Y860875D01*
X1257970Y859744D01*
X1256370Y858144D01*
X1255239Y856186D01*
X1254654Y854001D01*
Y851739D01*
X1255239Y849554D01*
X1256370Y847596D01*
X1257970Y845996D01*
X1259928Y844865D01*
X1262113Y844280D01*
X1264375D01*
X1266560Y844865D01*
X1268518Y845996D01*
X1270118Y847596D01*
X1271249Y849554D01*
X1271834Y851739D01*
Y854001D01*
X1271249Y856186D01*
X1270118Y858144D01*
X1268518Y859744D01*
X1266560Y860875D01*
X1264375Y861460D01*
D02*
G37*
G36*
X1457755Y837660D02*
X1455494D01*
X1453309Y837075D01*
X1451350Y835944D01*
X1449751Y834344D01*
X1448620Y832386D01*
X1448035Y830201D01*
Y827939D01*
X1448620Y825754D01*
X1449751Y823796D01*
X1451350Y822196D01*
X1453309Y821065D01*
X1455494Y820480D01*
X1457755D01*
X1459940Y821065D01*
X1461899Y822196D01*
X1463498Y823796D01*
X1464629Y825754D01*
X1465215Y827939D01*
Y830201D01*
X1464629Y832386D01*
X1463498Y834344D01*
X1461899Y835944D01*
X1459940Y837075D01*
X1457755Y837660D01*
D02*
G37*
G36*
X1570890Y815340D02*
X1568550D01*
X1566289Y814734D01*
X1564261Y813564D01*
X1563744Y813046D01*
X1286136D01*
X1285619Y813564D01*
X1283591Y814734D01*
X1281330Y815340D01*
X1278990D01*
X1276729Y814734D01*
X1274701Y813564D01*
X1273046Y811909D01*
X1271876Y809881D01*
X1271270Y807620D01*
Y805280D01*
X1271876Y803019D01*
X1273046Y800991D01*
X1273564Y800474D01*
Y778510D01*
X1273788Y776803D01*
X1274447Y775212D01*
X1275496Y773846D01*
X1283724Y765618D01*
Y708286D01*
X1283206Y707769D01*
X1282036Y705741D01*
X1281430Y703480D01*
Y701140D01*
X1282036Y698879D01*
X1283206Y696851D01*
X1284763Y695294D01*
X1284848Y694653D01*
X1285507Y693062D01*
X1286555Y691696D01*
X1331874Y646376D01*
X1331388Y645203D01*
X1321867D01*
X1320159Y644978D01*
X1318569Y644319D01*
X1317202Y643271D01*
X1311056Y637124D01*
X1310007Y635758D01*
X1309348Y634167D01*
X1309124Y632460D01*
Y582556D01*
X1308606Y582039D01*
X1307436Y580011D01*
X1306830Y577750D01*
Y575410D01*
X1307436Y573149D01*
X1308606Y571121D01*
X1310261Y569466D01*
X1311037Y569019D01*
X1310696Y567749D01*
X1194659D01*
X1183699Y578708D01*
Y598492D01*
X1184019Y598676D01*
X1185674Y600331D01*
X1186844Y602359D01*
X1187450Y604620D01*
Y606960D01*
X1186844Y609221D01*
X1185674Y611249D01*
X1184019Y612904D01*
X1183699Y613088D01*
Y705262D01*
X1225374Y746936D01*
X1226488Y748604D01*
X1226879Y750570D01*
Y754702D01*
X1227199Y754886D01*
X1228854Y756541D01*
X1230024Y758569D01*
X1230630Y760830D01*
Y763170D01*
X1230024Y765431D01*
X1228854Y767459D01*
X1227199Y769114D01*
X1225171Y770284D01*
X1222910Y770890D01*
X1220570D01*
X1218309Y770284D01*
X1216281Y769114D01*
X1214626Y767459D01*
X1213456Y765431D01*
X1212850Y763170D01*
Y760830D01*
X1213456Y758569D01*
X1214626Y756541D01*
X1216281Y754886D01*
X1216601Y754702D01*
Y752699D01*
X1174926Y711024D01*
X1173812Y709357D01*
X1173421Y707390D01*
Y672117D01*
X1172151Y671950D01*
X1171604Y673991D01*
X1170434Y676019D01*
X1168779Y677674D01*
X1166751Y678844D01*
X1164490Y679450D01*
X1162150D01*
X1159889Y678844D01*
X1157861Y677674D01*
X1156206Y676019D01*
X1155036Y673991D01*
X1154430Y671730D01*
Y669390D01*
X1155036Y667129D01*
X1156206Y665101D01*
X1157861Y663446D01*
X1158181Y663261D01*
Y597758D01*
X1107616Y547194D01*
X1106502Y545527D01*
X1106111Y543560D01*
Y529268D01*
X1105791Y529084D01*
X1104136Y527429D01*
X1102966Y525401D01*
X1102360Y523140D01*
Y520800D01*
X1102966Y518539D01*
X1104136Y516511D01*
X1105791Y514856D01*
X1107819Y513686D01*
X1110080Y513080D01*
X1112420D01*
X1114681Y513686D01*
X1116709Y514856D01*
X1118364Y516511D01*
X1119534Y518539D01*
X1120140Y520800D01*
Y523140D01*
X1119534Y525401D01*
X1118364Y527429D01*
X1116709Y529084D01*
X1116389Y529268D01*
Y541432D01*
X1166954Y591996D01*
X1168068Y593663D01*
X1168459Y595630D01*
Y604233D01*
X1169729Y604400D01*
X1170276Y602359D01*
X1171446Y600331D01*
X1173101Y598676D01*
X1173421Y598492D01*
Y576580D01*
X1173812Y574613D01*
X1174926Y572946D01*
X1188896Y558976D01*
X1190564Y557862D01*
X1192530Y557471D01*
X1380811D01*
X1380996Y557151D01*
X1382651Y555496D01*
X1384679Y554326D01*
X1386940Y553720D01*
X1389280D01*
X1391541Y554326D01*
X1393569Y555496D01*
X1395224Y557151D01*
X1396394Y559179D01*
X1397000Y561440D01*
Y563780D01*
X1396394Y566041D01*
X1395224Y568069D01*
X1393569Y569724D01*
X1391541Y570894D01*
X1389280Y571500D01*
X1386940D01*
X1384679Y570894D01*
X1382651Y569724D01*
X1380996Y568069D01*
X1380811Y567749D01*
X1320744D01*
X1320403Y569019D01*
X1321179Y569466D01*
X1322834Y571121D01*
X1324004Y573149D01*
X1324610Y575410D01*
Y577750D01*
X1324004Y580011D01*
X1322834Y582039D01*
X1322316Y582556D01*
Y629728D01*
X1324599Y632010D01*
X1340876D01*
X1341120Y631766D01*
X1343489Y630398D01*
X1346132Y629690D01*
X1348867D01*
X1351510Y630398D01*
X1353879Y631766D01*
X1355814Y633700D01*
X1357182Y636070D01*
X1357890Y638712D01*
Y641448D01*
X1357182Y644090D01*
X1355814Y646460D01*
X1354648Y647625D01*
X1355174Y648895D01*
X1485561D01*
X1524470Y609986D01*
X1524000Y608230D01*
Y605890D01*
X1524606Y603629D01*
X1525776Y601601D01*
X1527431Y599946D01*
X1529459Y598776D01*
X1531720Y598170D01*
X1534060D01*
X1536321Y598776D01*
X1538349Y599946D01*
X1540004Y601601D01*
X1541174Y603629D01*
X1541780Y605890D01*
Y608230D01*
X1541174Y610491D01*
X1540004Y612519D01*
X1538349Y614174D01*
X1536321Y615344D01*
X1534060Y615950D01*
X1531720D01*
X1529964Y615480D01*
X1489917Y655527D01*
X1488657Y656369D01*
X1487170Y656665D01*
X1380574D01*
X1380048Y657935D01*
X1381214Y659100D01*
X1382582Y661470D01*
X1383290Y664112D01*
Y666848D01*
X1382582Y669490D01*
X1381214Y671860D01*
X1380048Y673025D01*
X1380574Y674295D01*
X1483021D01*
X1516173Y641143D01*
X1517433Y640301D01*
X1518920Y640005D01*
X1563031D01*
X1574725Y628311D01*
Y616353D01*
X1573151Y615444D01*
X1571496Y613789D01*
X1570326Y611761D01*
X1569720Y609500D01*
Y607160D01*
X1570326Y604899D01*
X1571496Y602871D01*
X1573151Y601216D01*
X1575179Y600046D01*
X1577440Y599440D01*
X1579780D01*
X1582041Y600046D01*
X1584069Y601216D01*
X1585724Y602871D01*
X1586894Y604899D01*
X1587500Y607160D01*
Y609500D01*
X1586894Y611761D01*
X1585724Y613789D01*
X1584069Y615444D01*
X1582495Y616353D01*
Y629920D01*
X1582199Y631407D01*
X1581357Y632667D01*
X1567387Y646637D01*
X1566127Y647479D01*
X1564640Y647775D01*
X1520529D01*
X1487377Y680927D01*
X1486117Y681769D01*
X1484630Y682065D01*
X1380574D01*
X1380048Y683335D01*
X1381214Y684500D01*
X1382582Y686870D01*
X1383290Y689512D01*
Y692248D01*
X1382582Y694890D01*
X1381214Y697260D01*
X1379279Y699194D01*
X1376910Y700562D01*
X1374267Y701270D01*
X1371532D01*
X1368889Y700562D01*
X1366520Y699194D01*
X1364586Y697260D01*
X1363218Y694890D01*
X1362510Y692248D01*
Y689512D01*
X1363218Y686870D01*
X1364586Y684500D01*
X1365751Y683335D01*
X1365225Y682065D01*
X1355429D01*
X1354404Y683090D01*
X1355814Y684500D01*
X1357182Y686870D01*
X1357890Y689512D01*
Y692248D01*
X1357182Y694890D01*
X1355814Y697260D01*
X1353879Y699194D01*
X1351510Y700562D01*
X1348867Y701270D01*
X1346132D01*
X1343489Y700562D01*
X1341120Y699194D01*
X1339185Y697260D01*
X1337818Y694890D01*
X1337110Y692248D01*
Y689512D01*
X1337818Y686870D01*
X1339185Y684500D01*
X1341120Y682566D01*
X1343489Y681198D01*
X1346132Y680490D01*
X1346433D01*
X1347271Y679236D01*
X1349488Y677019D01*
X1348903Y675935D01*
X1348840Y675870D01*
X1346132D01*
X1343489Y675162D01*
X1341120Y673794D01*
X1339185Y671860D01*
X1337818Y669490D01*
X1337110Y666848D01*
Y664112D01*
X1337818Y661470D01*
X1338614Y660091D01*
X1337598Y659311D01*
X1298394Y698514D01*
X1298604Y698879D01*
X1299210Y701140D01*
Y703480D01*
X1298604Y705741D01*
X1297434Y707769D01*
X1296916Y708286D01*
Y743233D01*
X1298186Y743400D01*
X1298546Y742059D01*
X1299716Y740031D01*
X1301371Y738376D01*
X1303399Y737206D01*
X1305660Y736600D01*
X1308000D01*
X1310261Y737206D01*
X1312289Y738376D01*
X1313944Y740031D01*
X1314129Y740351D01*
X1385570D01*
X1387536Y740742D01*
X1389204Y741856D01*
X1428338Y780991D01*
X1486221D01*
X1486406Y780671D01*
X1488061Y779016D01*
X1490089Y777846D01*
X1492350Y777240D01*
X1494690D01*
X1496951Y777846D01*
X1498979Y779016D01*
X1500634Y780671D01*
X1501804Y782699D01*
X1502410Y784960D01*
Y787300D01*
X1501804Y789561D01*
X1500634Y791589D01*
X1498979Y793244D01*
X1496951Y794414D01*
X1494690Y795020D01*
X1492350D01*
X1490089Y794414D01*
X1488061Y793244D01*
X1486406Y791589D01*
X1486221Y791269D01*
X1426210D01*
X1424243Y790878D01*
X1422576Y789764D01*
X1383441Y750629D01*
X1314129D01*
X1313944Y750949D01*
X1312289Y752604D01*
X1310261Y753774D01*
X1308000Y754380D01*
X1305660D01*
X1303399Y753774D01*
X1301371Y752604D01*
X1299716Y750949D01*
X1298546Y748921D01*
X1298186Y747580D01*
X1296916Y747747D01*
Y768350D01*
X1296692Y770057D01*
X1296033Y771648D01*
X1294984Y773014D01*
X1286756Y781242D01*
Y799854D01*
X1563744D01*
X1564261Y799336D01*
X1566289Y798166D01*
X1568550Y797560D01*
X1570890D01*
X1573151Y798166D01*
X1575179Y799336D01*
X1576834Y800991D01*
X1578004Y803019D01*
X1578610Y805280D01*
Y807620D01*
X1578004Y809881D01*
X1576834Y811909D01*
X1575179Y813564D01*
X1573151Y814734D01*
X1570890Y815340D01*
D02*
G37*
G36*
X697130Y777240D02*
X694790D01*
X692529Y776634D01*
X690501Y775464D01*
X689984Y774946D01*
X658756D01*
X658239Y775464D01*
X656211Y776634D01*
X653950Y777240D01*
X651610D01*
X649349Y776634D01*
X647321Y775464D01*
X645666Y773809D01*
X644496Y771781D01*
X643890Y769520D01*
Y767180D01*
X644496Y764919D01*
X645666Y762891D01*
X647321Y761236D01*
X649349Y760066D01*
X651610Y759460D01*
X653950D01*
X656211Y760066D01*
X658239Y761236D01*
X658756Y761754D01*
X689984D01*
X690501Y761236D01*
X692529Y760066D01*
X694790Y759460D01*
X697130D01*
X699391Y760066D01*
X701419Y761236D01*
X703074Y762891D01*
X704244Y764919D01*
X704850Y767180D01*
Y769520D01*
X704244Y771781D01*
X703074Y773809D01*
X701419Y775464D01*
X699391Y776634D01*
X697130Y777240D01*
D02*
G37*
G36*
X599985Y749305D02*
X591985D01*
X590017Y749046D01*
X588182Y748286D01*
X586607Y747078D01*
X585399Y745502D01*
X584639Y743668D01*
X584380Y741700D01*
X584639Y739732D01*
X585399Y737897D01*
X586607Y736322D01*
X588182Y735114D01*
X590017Y734354D01*
X591985Y734095D01*
X599985D01*
X601953Y734354D01*
X603787Y735114D01*
X605363Y736322D01*
X606571Y737897D01*
X607331Y739732D01*
X607590Y741700D01*
X607331Y743668D01*
X606571Y745502D01*
X605363Y747078D01*
X603787Y748286D01*
X601953Y749046D01*
X599985Y749305D01*
D02*
G37*
G36*
X1495631Y749359D02*
X1403350D01*
X1401384Y748968D01*
X1399716Y747854D01*
X1377490Y725627D01*
X1376910Y725962D01*
X1374267Y726670D01*
X1371532D01*
X1368889Y725962D01*
X1366520Y724594D01*
X1364586Y722660D01*
X1363218Y720290D01*
X1362510Y717648D01*
Y714912D01*
X1363218Y712270D01*
X1364586Y709900D01*
X1366520Y707966D01*
X1368889Y706598D01*
X1371532Y705890D01*
X1374267D01*
X1376910Y706598D01*
X1379279Y707966D01*
X1381214Y709900D01*
X1382582Y712270D01*
X1383290Y714912D01*
Y716892D01*
X1405479Y739081D01*
X1492331D01*
X1493520Y739040D01*
Y736700D01*
X1494126Y734439D01*
X1495296Y732411D01*
X1496951Y730756D01*
X1498979Y729586D01*
X1501240Y728980D01*
X1503580D01*
X1505841Y729586D01*
X1507869Y730756D01*
X1509524Y732411D01*
X1510694Y734439D01*
X1511300Y736700D01*
Y739040D01*
X1510694Y741301D01*
X1509524Y743329D01*
X1507869Y744984D01*
X1505841Y746154D01*
X1503580Y746760D01*
X1501240D01*
X1500544Y746574D01*
X1499265Y747854D01*
X1497598Y748968D01*
X1495631Y749359D01*
D02*
G37*
G36*
X1516465Y987534D02*
X1513755D01*
X1511138Y986833D01*
X1508792Y985478D01*
X1506876Y983562D01*
X1505521Y981216D01*
X1504820Y978599D01*
Y975889D01*
X1505521Y973272D01*
X1506876Y970926D01*
X1508792Y969010D01*
X1511138Y967655D01*
X1511980Y967430D01*
Y937791D01*
X1512372Y935824D01*
X1513485Y934157D01*
X1586171Y861471D01*
Y734214D01*
X1575916Y723959D01*
X1453828D01*
X1453644Y724279D01*
X1451989Y725934D01*
X1449961Y727104D01*
X1447700Y727710D01*
X1445360D01*
X1443099Y727104D01*
X1441071Y725934D01*
X1439416Y724279D01*
X1438246Y722251D01*
X1437640Y719990D01*
Y717650D01*
X1438246Y715389D01*
X1439416Y713361D01*
X1441071Y711706D01*
X1443099Y710536D01*
X1445360Y709930D01*
X1447700D01*
X1449961Y710536D01*
X1451989Y711706D01*
X1453644Y713361D01*
X1453828Y713681D01*
X1578045D01*
X1580011Y714072D01*
X1581678Y715186D01*
X1594944Y728452D01*
X1596058Y730119D01*
X1596449Y732085D01*
Y863600D01*
X1596058Y865566D01*
X1594944Y867234D01*
X1522258Y939920D01*
Y969840D01*
X1523344Y970926D01*
X1524699Y973272D01*
X1525400Y975889D01*
Y978599D01*
X1524699Y981216D01*
X1523344Y983562D01*
X1521428Y985478D01*
X1519082Y986833D01*
X1516465Y987534D01*
D02*
G37*
G36*
X643285Y749305D02*
X632285D01*
X630317Y749046D01*
X628483Y748286D01*
X626907Y747078D01*
X625699Y745502D01*
X624939Y743668D01*
X624680Y741700D01*
X624939Y739732D01*
X625699Y737897D01*
X626907Y736322D01*
X628483Y735114D01*
X630317Y734354D01*
X630930Y734273D01*
X631102Y732970D01*
X629505Y732309D01*
X627877Y730680D01*
X626995Y728552D01*
Y726248D01*
X627877Y724120D01*
X629505Y722491D01*
X631633Y721610D01*
X633937D01*
X636065Y722491D01*
X637693Y724120D01*
X638575Y726248D01*
Y728552D01*
X637693Y730680D01*
X636065Y732309D01*
X634818Y732825D01*
X635071Y734095D01*
X643285D01*
X645253Y734354D01*
X647088Y735114D01*
X648663Y736322D01*
X649871Y737897D01*
X650631Y739732D01*
X650890Y741700D01*
X650631Y743668D01*
X649871Y745502D01*
X648663Y747078D01*
X647088Y748286D01*
X645253Y749046D01*
X643285Y749305D01*
D02*
G37*
G36*
X841910Y721360D02*
X839570D01*
X837309Y720754D01*
X835281Y719584D01*
X833626Y717929D01*
X832456Y715901D01*
X832062Y714430D01*
X830747D01*
X830353Y715901D01*
X829182Y717929D01*
X827527Y719584D01*
X825500Y720754D01*
X823239Y721360D01*
X820898D01*
X818637Y720754D01*
X816610Y719584D01*
X814955Y717929D01*
X813784Y715901D01*
X813179Y713640D01*
Y711300D01*
X813784Y709039D01*
X814955Y707011D01*
X816610Y705356D01*
X816930Y705172D01*
Y672721D01*
X817321Y670755D01*
X818435Y669088D01*
X843221Y644302D01*
Y468308D01*
X842901Y468124D01*
X841246Y466469D01*
X840076Y464441D01*
X839470Y462180D01*
Y459840D01*
X840076Y457579D01*
X841246Y455551D01*
X842901Y453896D01*
X844929Y452726D01*
X847190Y452120D01*
X849530D01*
X851791Y452726D01*
X853819Y453896D01*
X855474Y455551D01*
X856574Y457457D01*
X857250Y457560D01*
X857926Y457457D01*
X859026Y455551D01*
X860681Y453896D01*
X862709Y452726D01*
X864970Y452120D01*
X867310D01*
X869571Y452726D01*
X871599Y453896D01*
X873254Y455551D01*
X874424Y457579D01*
X875030Y459840D01*
Y462180D01*
X874424Y464441D01*
X873254Y466469D01*
X871599Y468124D01*
X869805Y469159D01*
Y472483D01*
X869414Y474450D01*
X868300Y476117D01*
X862389Y482029D01*
Y654050D01*
X861998Y656016D01*
X860884Y657684D01*
X845879Y672689D01*
Y705172D01*
X846199Y705356D01*
X847854Y707011D01*
X849024Y709039D01*
X849630Y711300D01*
Y713640D01*
X849024Y715901D01*
X847854Y717929D01*
X846199Y719584D01*
X844171Y720754D01*
X841910Y721360D01*
D02*
G37*
G36*
X732690Y711200D02*
X730350D01*
X728089Y710594D01*
X726061Y709424D01*
X724406Y707769D01*
X723497Y706195D01*
X669290D01*
X667803Y705899D01*
X666543Y705057D01*
X665866Y704380D01*
X664110Y704850D01*
X661770D01*
X659509Y704244D01*
X657481Y703074D01*
X655826Y701419D01*
X654656Y699391D01*
X654050Y697130D01*
Y694790D01*
X654656Y692529D01*
X655826Y690501D01*
X657481Y688846D01*
X658229Y688415D01*
X657889Y687145D01*
X635339D01*
X628974Y693510D01*
X629029Y693926D01*
X630684Y695581D01*
X631854Y697609D01*
X632460Y699870D01*
Y702210D01*
X631854Y704471D01*
X630684Y706499D01*
X629029Y708154D01*
X627001Y709324D01*
X624740Y709930D01*
X622400D01*
X620139Y709324D01*
X618111Y708154D01*
X616456Y706499D01*
X615286Y704471D01*
X614680Y702210D01*
Y699870D01*
X615286Y697609D01*
X616456Y695581D01*
X618111Y693926D01*
X620139Y692756D01*
X620519Y692654D01*
Y692586D01*
X620815Y691099D01*
X621657Y689839D01*
X630983Y680513D01*
X632243Y679671D01*
X633730Y679375D01*
X710861D01*
X727635Y662601D01*
Y655723D01*
X726061Y654814D01*
X724406Y653159D01*
X723236Y651131D01*
X722630Y648870D01*
Y646530D01*
X723236Y644269D01*
X724406Y642241D01*
X726061Y640586D01*
X727635Y639678D01*
Y626110D01*
X727931Y624623D01*
X728773Y623363D01*
X749175Y602961D01*
X748518Y601823D01*
X747930Y601980D01*
X745590D01*
X743329Y601374D01*
X741301Y600204D01*
X739646Y598549D01*
X738476Y596521D01*
X737870Y594260D01*
Y591920D01*
X738476Y589659D01*
X739646Y587631D01*
X741301Y585976D01*
X743329Y584806D01*
X745590Y584200D01*
X747930D01*
X748287Y584296D01*
X753051Y579532D01*
Y485140D01*
X753442Y483173D01*
X754556Y481506D01*
X796466Y439596D01*
X798133Y438482D01*
X800100Y438091D01*
X877927D01*
X879894Y438482D01*
X881561Y439596D01*
X892001Y450036D01*
X892710D01*
X894971Y450642D01*
X896999Y451813D01*
X898654Y453468D01*
X899824Y455495D01*
X900430Y457756D01*
Y460097D01*
X899824Y462358D01*
X898654Y464385D01*
X896999Y466040D01*
X894971Y467211D01*
X892710Y467816D01*
X890370D01*
X888109Y467211D01*
X886081Y466040D01*
X884426Y464385D01*
X883256Y462358D01*
X882650Y460097D01*
Y457756D01*
X883186Y455756D01*
X875799Y448369D01*
X802228D01*
X763329Y487268D01*
Y489424D01*
X764599Y489549D01*
X764761Y488733D01*
X765603Y487473D01*
X778303Y474773D01*
X779563Y473931D01*
X781050Y473635D01*
X806048D01*
X806956Y472061D01*
X808611Y470406D01*
X810639Y469236D01*
X812900Y468630D01*
X815240D01*
X817501Y469236D01*
X819529Y470406D01*
X821184Y472061D01*
X822354Y474089D01*
X822960Y476350D01*
Y478690D01*
X822354Y480951D01*
X821184Y482979D01*
X819529Y484634D01*
X817501Y485804D01*
X815240Y486410D01*
X812900D01*
X810639Y485804D01*
X808611Y484634D01*
X806956Y482979D01*
X806048Y481405D01*
X782659D01*
X772235Y491829D01*
Y495329D01*
X773505Y495669D01*
X773936Y494921D01*
X775591Y493266D01*
X777619Y492096D01*
X779880Y491490D01*
X782220D01*
X784481Y492096D01*
X786509Y493266D01*
X788164Y494921D01*
X789334Y496949D01*
X789940Y499210D01*
Y501550D01*
X789334Y503811D01*
X788164Y505839D01*
X786509Y507494D01*
X784935Y508402D01*
Y594360D01*
X784639Y595847D01*
X783797Y597107D01*
X768425Y612479D01*
Y626978D01*
X769999Y627886D01*
X771654Y629541D01*
X772824Y631569D01*
X773430Y633830D01*
Y636170D01*
X772824Y638431D01*
X771654Y640459D01*
X769999Y642114D01*
X767971Y643284D01*
X765710Y643890D01*
X763370D01*
X761109Y643284D01*
X759081Y642114D01*
X757826Y640858D01*
X753185Y645499D01*
Y697230D01*
X752889Y698717D01*
X752047Y699977D01*
X746967Y705057D01*
X745707Y705899D01*
X744220Y706195D01*
X739542D01*
X738634Y707769D01*
X736979Y709424D01*
X734951Y710594D01*
X732690Y711200D01*
D02*
G37*
G36*
X1534374Y707680D02*
X1532766D01*
X1531281Y707065D01*
X1530145Y705928D01*
X1529530Y704444D01*
Y702836D01*
X1530145Y701351D01*
X1531281Y700215D01*
X1532766Y699600D01*
X1534374D01*
X1535858Y700215D01*
X1536995Y701351D01*
X1537610Y702836D01*
Y704444D01*
X1536995Y705928D01*
X1535858Y707065D01*
X1534374Y707680D01*
D02*
G37*
G36*
X1520374D02*
X1518766D01*
X1517281Y707065D01*
X1516145Y705928D01*
X1515530Y704444D01*
Y702836D01*
X1516145Y701351D01*
X1517281Y700215D01*
X1518766Y699600D01*
X1520374D01*
X1521859Y700215D01*
X1522995Y701351D01*
X1523610Y702836D01*
Y704444D01*
X1522995Y705928D01*
X1521859Y707065D01*
X1520374Y707680D01*
D02*
G37*
G36*
X1541374Y700680D02*
X1539766D01*
X1538282Y700065D01*
X1537145Y698929D01*
X1536530Y697444D01*
Y695836D01*
X1537145Y694352D01*
X1538282Y693215D01*
X1539766Y692600D01*
X1541374D01*
X1542858Y693215D01*
X1543995Y694352D01*
X1544610Y695836D01*
Y697444D01*
X1543995Y698929D01*
X1542858Y700065D01*
X1541374Y700680D01*
D02*
G37*
G36*
X1527374D02*
X1525766D01*
X1524281Y700065D01*
X1523145Y698929D01*
X1522530Y697444D01*
Y695836D01*
X1523145Y694352D01*
X1524281Y693215D01*
X1525766Y692600D01*
X1527374D01*
X1528858Y693215D01*
X1529995Y694352D01*
X1530610Y695836D01*
Y697444D01*
X1529995Y698929D01*
X1528858Y700065D01*
X1527374Y700680D01*
D02*
G37*
G36*
X1513374D02*
X1511766D01*
X1510282Y700065D01*
X1509145Y698929D01*
X1508530Y697444D01*
Y695836D01*
X1509145Y694352D01*
X1510282Y693215D01*
X1511766Y692600D01*
X1513374D01*
X1514859Y693215D01*
X1515995Y694352D01*
X1516610Y695836D01*
Y697444D01*
X1515995Y698929D01*
X1514859Y700065D01*
X1513374Y700680D01*
D02*
G37*
G36*
X1534374Y693680D02*
X1532766D01*
X1531281Y693065D01*
X1530145Y691928D01*
X1529530Y690444D01*
Y688836D01*
X1530145Y687352D01*
X1531281Y686215D01*
X1532766Y685600D01*
X1534374D01*
X1535858Y686215D01*
X1536995Y687352D01*
X1537610Y688836D01*
Y690444D01*
X1536995Y691928D01*
X1535858Y693065D01*
X1534374Y693680D01*
D02*
G37*
G36*
X1520374D02*
X1518766D01*
X1517281Y693065D01*
X1516145Y691928D01*
X1515530Y690444D01*
Y688836D01*
X1516145Y687352D01*
X1517281Y686215D01*
X1518766Y685600D01*
X1520374D01*
X1521859Y686215D01*
X1522995Y687352D01*
X1523610Y688836D01*
Y690444D01*
X1522995Y691928D01*
X1521859Y693065D01*
X1520374Y693680D01*
D02*
G37*
G36*
X822860Y792480D02*
X820520D01*
X818259Y791874D01*
X816231Y790704D01*
X814576Y789049D01*
X813406Y787021D01*
X812800Y784760D01*
Y782420D01*
X813406Y780159D01*
X814576Y778131D01*
X816231Y776476D01*
X818259Y775306D01*
X820520Y774700D01*
X822860D01*
X823217Y774796D01*
X852111Y745901D01*
Y698178D01*
X851791Y697994D01*
X850136Y696339D01*
X848966Y694311D01*
X848360Y692050D01*
Y689710D01*
X848966Y687449D01*
X850136Y685421D01*
X851791Y683766D01*
X853819Y682596D01*
X856080Y681990D01*
X858420D01*
X860681Y682596D01*
X862709Y683766D01*
X864364Y685421D01*
X865534Y687449D01*
X866140Y689710D01*
Y692050D01*
X865534Y694311D01*
X864364Y696339D01*
X862709Y697994D01*
X862389Y698178D01*
Y748030D01*
X861998Y749996D01*
X860884Y751664D01*
X830484Y782063D01*
X830580Y782420D01*
Y784760D01*
X829974Y787021D01*
X828804Y789049D01*
X827149Y790704D01*
X825121Y791874D01*
X822860Y792480D01*
D02*
G37*
G36*
X1541374Y686680D02*
X1539766D01*
X1538282Y686065D01*
X1537145Y684929D01*
X1536530Y683444D01*
Y681836D01*
X1537145Y680351D01*
X1538282Y679215D01*
X1539766Y678600D01*
X1541374D01*
X1542858Y679215D01*
X1543995Y680351D01*
X1544610Y681836D01*
Y683444D01*
X1543995Y684929D01*
X1542858Y686065D01*
X1541374Y686680D01*
D02*
G37*
G36*
X1527374D02*
X1525766D01*
X1524281Y686065D01*
X1523145Y684929D01*
X1522530Y683444D01*
Y681836D01*
X1523145Y680351D01*
X1524281Y679215D01*
X1525766Y678600D01*
X1527374D01*
X1528858Y679215D01*
X1529995Y680351D01*
X1530610Y681836D01*
Y683444D01*
X1529995Y684929D01*
X1528858Y686065D01*
X1527374Y686680D01*
D02*
G37*
G36*
X1513374D02*
X1511766D01*
X1510282Y686065D01*
X1509145Y684929D01*
X1508530Y683444D01*
Y681836D01*
X1509145Y680351D01*
X1510282Y679215D01*
X1511766Y678600D01*
X1513374D01*
X1514859Y679215D01*
X1515995Y680351D01*
X1516610Y681836D01*
Y683444D01*
X1515995Y684929D01*
X1514859Y686065D01*
X1513374Y686680D01*
D02*
G37*
G36*
X1534374Y679680D02*
X1532766D01*
X1531281Y679065D01*
X1530145Y677928D01*
X1529530Y676444D01*
Y674836D01*
X1530145Y673352D01*
X1531281Y672215D01*
X1532766Y671600D01*
X1534374D01*
X1535858Y672215D01*
X1536995Y673352D01*
X1537610Y674836D01*
Y676444D01*
X1536995Y677928D01*
X1535858Y679065D01*
X1534374Y679680D01*
D02*
G37*
G36*
X1520374D02*
X1518766D01*
X1517281Y679065D01*
X1516145Y677928D01*
X1515530Y676444D01*
Y674836D01*
X1516145Y673352D01*
X1517281Y672215D01*
X1518766Y671600D01*
X1520374D01*
X1521859Y672215D01*
X1522995Y673352D01*
X1523610Y674836D01*
Y676444D01*
X1522995Y677928D01*
X1521859Y679065D01*
X1520374Y679680D01*
D02*
G37*
G36*
X1243694Y673480D02*
X1240919D01*
X1238238Y672762D01*
X1235835Y671374D01*
X1233872Y669412D01*
X1232485Y667008D01*
X1231766Y664328D01*
Y661552D01*
X1232485Y658872D01*
X1233872Y656468D01*
X1235835Y654506D01*
X1238238Y653118D01*
X1240919Y652400D01*
X1243694D01*
X1246375Y653118D01*
X1248778Y654506D01*
X1250741Y656468D01*
X1252128Y658872D01*
X1252846Y661552D01*
Y664328D01*
X1252128Y667008D01*
X1250741Y669412D01*
X1248778Y671374D01*
X1246375Y672762D01*
X1243694Y673480D01*
D02*
G37*
G36*
X633937Y675390D02*
X631633D01*
X629505Y674509D01*
X627877Y672880D01*
X626995Y670752D01*
Y668448D01*
X627877Y666320D01*
X629505Y664691D01*
X631102Y664030D01*
X630930Y662727D01*
X630317Y662646D01*
X628483Y661886D01*
X626907Y660678D01*
X625699Y659102D01*
X624939Y657268D01*
X624680Y655300D01*
X624939Y653332D01*
X625699Y651497D01*
X626907Y649922D01*
X628483Y648714D01*
X630317Y647954D01*
X632285Y647695D01*
X643285D01*
X645253Y647954D01*
X647088Y648714D01*
X648663Y649922D01*
X649871Y651497D01*
X650631Y653332D01*
X650890Y655300D01*
X650631Y657268D01*
X649871Y659102D01*
X648663Y660678D01*
X647088Y661886D01*
X645253Y662646D01*
X643285Y662905D01*
X635071D01*
X634818Y664175D01*
X636065Y664691D01*
X637693Y666320D01*
X638575Y668448D01*
Y670752D01*
X637693Y672880D01*
X636065Y674509D01*
X633937Y675390D01*
D02*
G37*
G36*
X599985Y662905D02*
X591985D01*
X590017Y662646D01*
X588182Y661886D01*
X586607Y660678D01*
X585399Y659102D01*
X584639Y657268D01*
X584380Y655300D01*
X584639Y653332D01*
X585399Y651497D01*
X586607Y649922D01*
X588182Y648714D01*
X590017Y647954D01*
X591985Y647695D01*
X599985D01*
X601953Y647954D01*
X603787Y648714D01*
X605363Y649922D01*
X606571Y651497D01*
X607331Y653332D01*
X607590Y655300D01*
X607331Y657268D01*
X606571Y659102D01*
X605363Y660678D01*
X603787Y661886D01*
X601953Y662646D01*
X599985Y662905D01*
D02*
G37*
G36*
X1243694Y648080D02*
X1240919D01*
X1238238Y647362D01*
X1235835Y645974D01*
X1233872Y644012D01*
X1232485Y641608D01*
X1231766Y638928D01*
Y636152D01*
X1232485Y633472D01*
X1233872Y631068D01*
X1235835Y629106D01*
X1238238Y627718D01*
X1240919Y627000D01*
X1243694D01*
X1246375Y627718D01*
X1248778Y629106D01*
X1250741Y631068D01*
X1252128Y633472D01*
X1252846Y636152D01*
Y638928D01*
X1252128Y641608D01*
X1250741Y644012D01*
X1248778Y645974D01*
X1246375Y647362D01*
X1243694Y648080D01*
D02*
G37*
G36*
X1087020Y659130D02*
X1084680D01*
X1082419Y658524D01*
X1080391Y657354D01*
X1078736Y655699D01*
X1077566Y653671D01*
X1076960Y651410D01*
Y649070D01*
X1077566Y646809D01*
X1078736Y644781D01*
X1080391Y643126D01*
X1080711Y642942D01*
Y630868D01*
X1080391Y630684D01*
X1078736Y629029D01*
X1077566Y627001D01*
X1076960Y624740D01*
Y622400D01*
X1077566Y620139D01*
X1078736Y618111D01*
X1080391Y616456D01*
X1082419Y615286D01*
X1084680Y614680D01*
X1087020D01*
X1089281Y615286D01*
X1091309Y616456D01*
X1092964Y618111D01*
X1094134Y620139D01*
X1094740Y622400D01*
Y624740D01*
X1094134Y627001D01*
X1092964Y629029D01*
X1091309Y630684D01*
X1090989Y630868D01*
Y642942D01*
X1091309Y643126D01*
X1092964Y644781D01*
X1094134Y646809D01*
X1094740Y649070D01*
Y651410D01*
X1094134Y653671D01*
X1092964Y655699D01*
X1091309Y657354D01*
X1089281Y658524D01*
X1087020Y659130D01*
D02*
G37*
G36*
X1118770Y690880D02*
X1116430D01*
X1114169Y690274D01*
X1112141Y689104D01*
X1110486Y687449D01*
X1110302Y687129D01*
X1080770D01*
X1078803Y686738D01*
X1077136Y685624D01*
X1032863Y641350D01*
X1031340D01*
X1029079Y640744D01*
X1027051Y639574D01*
X1026219Y638741D01*
X1024949Y639267D01*
Y659452D01*
X1025269Y659636D01*
X1026924Y661291D01*
X1028094Y663319D01*
X1028700Y665580D01*
Y667920D01*
X1028094Y670181D01*
X1026924Y672209D01*
X1025269Y673864D01*
X1023241Y675034D01*
X1020980Y675640D01*
X1018640D01*
X1016379Y675034D01*
X1014351Y673864D01*
X1012696Y672209D01*
X1011526Y670181D01*
X1010920Y667920D01*
Y665580D01*
X1011526Y663319D01*
X1012696Y661291D01*
X1014351Y659636D01*
X1014671Y659452D01*
Y621030D01*
X1015062Y619063D01*
X1016176Y617396D01*
X1056581Y576992D01*
Y569908D01*
X1056261Y569724D01*
X1054606Y568069D01*
X1053436Y566041D01*
X1052830Y563780D01*
Y561440D01*
X1053436Y559179D01*
X1054606Y557151D01*
X1056261Y555496D01*
X1058289Y554326D01*
X1060550Y553720D01*
X1062890D01*
X1065151Y554326D01*
X1067179Y555496D01*
X1068834Y557151D01*
X1070004Y559179D01*
X1070610Y561440D01*
Y563780D01*
X1070004Y566041D01*
X1068834Y568069D01*
X1067179Y569724D01*
X1066859Y569908D01*
Y579120D01*
X1066468Y581087D01*
X1065354Y582754D01*
X1024949Y623158D01*
Y625653D01*
X1026219Y626179D01*
X1027051Y625346D01*
X1029079Y624176D01*
X1031340Y623570D01*
X1033680D01*
X1035941Y624176D01*
X1037969Y625346D01*
X1039624Y627001D01*
X1040794Y629029D01*
X1041400Y631290D01*
Y633630D01*
X1041036Y634989D01*
X1082898Y676851D01*
X1110302D01*
X1110486Y676531D01*
X1112141Y674876D01*
X1112461Y674691D01*
Y600388D01*
X1112141Y600204D01*
X1110486Y598549D01*
X1109316Y596521D01*
X1108710Y594260D01*
Y591920D01*
X1109316Y589659D01*
X1110486Y587631D01*
X1112141Y585976D01*
X1114169Y584806D01*
X1116430Y584200D01*
X1118770D01*
X1121031Y584806D01*
X1123059Y585976D01*
X1124714Y587631D01*
X1125884Y589659D01*
X1126490Y591920D01*
Y594260D01*
X1125884Y596521D01*
X1124714Y598549D01*
X1123059Y600204D01*
X1122739Y600388D01*
Y674691D01*
X1123059Y674876D01*
X1124714Y676531D01*
X1125884Y678559D01*
X1126490Y680820D01*
Y683160D01*
X1125884Y685421D01*
X1124714Y687449D01*
X1123059Y689104D01*
X1121031Y690274D01*
X1118770Y690880D01*
D02*
G37*
G36*
X1678670Y767230D02*
X1616770D01*
X1615779Y767033D01*
X1614939Y766471D01*
X1614377Y765631D01*
X1614180Y764640D01*
Y584640D01*
X1614377Y583649D01*
X1614939Y582809D01*
X1615779Y582247D01*
X1616770Y582050D01*
X1678670D01*
X1679661Y582247D01*
X1680501Y582809D01*
X1681063Y583649D01*
X1681260Y584640D01*
Y764640D01*
X1681063Y765631D01*
X1680501Y766471D01*
X1679661Y767033D01*
X1678670Y767230D01*
D02*
G37*
G36*
X1212750Y693420D02*
X1210410D01*
X1208149Y692814D01*
X1206121Y691644D01*
X1204466Y689989D01*
X1203296Y687961D01*
X1202690Y685700D01*
Y683360D01*
X1203296Y681099D01*
X1204466Y679071D01*
X1206121Y677416D01*
X1207076Y676865D01*
Y597349D01*
X1205736Y596009D01*
X1204566Y593981D01*
X1203960Y591720D01*
Y589380D01*
X1204566Y587119D01*
X1205736Y585091D01*
X1207391Y583436D01*
X1209419Y582266D01*
X1211680Y581660D01*
X1214020D01*
X1216281Y582266D01*
X1218309Y583436D01*
X1219964Y585091D01*
X1221134Y587119D01*
X1221740Y589380D01*
Y591720D01*
X1221134Y593981D01*
X1219964Y596009D01*
X1218309Y597664D01*
X1217354Y598215D01*
Y677731D01*
X1218694Y679071D01*
X1219864Y681099D01*
X1220470Y683360D01*
Y685700D01*
X1219864Y687961D01*
X1218694Y689989D01*
X1217039Y691644D01*
X1215011Y692814D01*
X1212750Y693420D01*
D02*
G37*
G36*
X1003200Y715010D02*
X1000860D01*
X998599Y714404D01*
X996571Y713234D01*
X994916Y711579D01*
X993746Y709551D01*
X993140Y707290D01*
Y704950D01*
X993746Y702689D01*
X994916Y700661D01*
X996571Y699006D01*
X996891Y698821D01*
Y569818D01*
X987202Y560129D01*
X962338D01*
X962154Y560449D01*
X960499Y562104D01*
X958471Y563274D01*
X956210Y563880D01*
X953870D01*
X951609Y563274D01*
X949581Y562104D01*
X947926Y560449D01*
X946756Y558421D01*
X946150Y556160D01*
Y553820D01*
X946756Y551559D01*
X947926Y549531D01*
X949581Y547876D01*
X951609Y546706D01*
X953870Y546100D01*
X956210D01*
X958471Y546706D01*
X960499Y547876D01*
X962154Y549531D01*
X962338Y549851D01*
X989330D01*
X991296Y550242D01*
X992964Y551356D01*
X1005664Y564056D01*
X1006778Y565723D01*
X1007169Y567690D01*
Y698821D01*
X1007489Y699006D01*
X1009144Y700661D01*
X1010314Y702689D01*
X1010920Y704950D01*
Y707290D01*
X1010314Y709551D01*
X1009144Y711579D01*
X1007489Y713234D01*
X1005461Y714404D01*
X1003200Y715010D01*
D02*
G37*
G36*
X1490880Y576580D02*
X1488540D01*
X1486279Y575974D01*
X1484251Y574804D01*
X1482596Y573149D01*
X1481426Y571121D01*
X1480820Y568860D01*
Y566520D01*
X1481426Y564259D01*
X1482596Y562231D01*
X1484251Y560576D01*
X1486279Y559406D01*
X1488540Y558800D01*
X1490880D01*
X1493141Y559406D01*
X1495169Y560576D01*
X1496824Y562231D01*
X1497009Y562551D01*
X1518062D01*
X1563546Y517066D01*
X1565213Y515952D01*
X1567180Y515561D01*
X1587822D01*
X1588006Y515241D01*
X1589661Y513586D01*
X1591689Y512416D01*
X1593950Y511810D01*
X1596290D01*
X1598551Y512416D01*
X1600579Y513586D01*
X1602234Y515241D01*
X1603404Y517269D01*
X1604010Y519530D01*
Y521870D01*
X1603404Y524131D01*
X1602234Y526159D01*
X1600579Y527814D01*
X1598551Y528984D01*
X1596290Y529590D01*
X1593950D01*
X1591689Y528984D01*
X1589661Y527814D01*
X1588006Y526159D01*
X1587822Y525839D01*
X1569308D01*
X1523824Y571324D01*
X1522157Y572438D01*
X1520190Y572829D01*
X1497009D01*
X1496824Y573149D01*
X1495169Y574804D01*
X1493141Y575974D01*
X1490880Y576580D01*
D02*
G37*
G36*
X1300040Y516290D02*
X1279880D01*
Y496130D01*
X1300040D01*
Y516290D01*
D02*
G37*
G36*
X1386400Y515020D02*
X1366240D01*
Y494860D01*
X1386400D01*
Y515020D01*
D02*
G37*
G36*
X1531520Y501650D02*
X1529180D01*
X1526919Y501044D01*
X1524891Y499874D01*
X1523236Y498219D01*
X1523051Y497899D01*
X1490980D01*
X1489014Y497508D01*
X1487346Y496394D01*
X1476147Y485194D01*
X1475640Y485330D01*
X1473300D01*
X1471039Y484724D01*
X1469011Y483554D01*
X1467356Y481899D01*
X1466186Y479871D01*
X1465580Y477610D01*
Y475270D01*
X1466186Y473009D01*
X1467356Y470981D01*
X1469011Y469326D01*
X1471039Y468156D01*
X1473300Y467550D01*
X1475640D01*
X1477901Y468156D01*
X1479929Y469326D01*
X1481584Y470981D01*
X1482754Y473009D01*
X1483360Y475270D01*
Y477610D01*
X1483305Y477817D01*
X1493109Y487621D01*
X1523051D01*
X1523236Y487301D01*
X1524891Y485646D01*
X1526919Y484476D01*
X1529180Y483870D01*
X1531520D01*
X1533781Y484476D01*
X1535809Y485646D01*
X1537464Y487301D01*
X1538634Y489329D01*
X1539240Y491590D01*
Y493930D01*
X1538634Y496191D01*
X1537464Y498219D01*
X1535809Y499874D01*
X1533781Y501044D01*
X1531520Y501650D01*
D02*
G37*
G36*
X1534952Y467450D02*
X1532611D01*
X1530350Y466844D01*
X1528323Y465674D01*
X1526906Y464257D01*
X1516972D01*
X1515265Y464032D01*
X1513674Y463373D01*
X1512308Y462325D01*
X1508699Y458716D01*
X1436370D01*
X1434663Y458492D01*
X1433072Y457833D01*
X1431706Y456784D01*
X1411386Y436464D01*
X1410337Y435098D01*
X1409678Y433507D01*
X1409454Y431800D01*
Y426950D01*
X1405660D01*
Y406170D01*
X1426440D01*
Y426950D01*
X1422646D01*
Y429068D01*
X1439102Y445524D01*
X1511431D01*
X1513139Y445748D01*
X1514730Y446407D01*
X1516096Y447456D01*
X1519704Y451064D01*
X1528984D01*
X1530350Y450276D01*
X1532611Y449670D01*
X1534952D01*
X1537213Y450276D01*
X1539240Y451446D01*
X1540895Y453101D01*
X1542066Y455129D01*
X1542671Y457390D01*
Y459730D01*
X1542066Y461991D01*
X1540895Y464019D01*
X1539240Y465674D01*
X1537213Y466844D01*
X1534952Y467450D01*
D02*
G37*
G36*
X1444496Y571879D02*
X1442155D01*
X1439894Y571273D01*
X1437867Y570102D01*
X1436212Y568447D01*
X1435042Y566420D01*
X1434436Y564159D01*
Y561818D01*
X1435042Y559557D01*
X1436212Y557530D01*
X1437867Y555875D01*
X1438187Y555690D01*
Y508014D01*
X1401402Y471229D01*
X1210310D01*
X1208344Y470838D01*
X1206676Y469724D01*
X1178736Y441784D01*
X1177622Y440117D01*
X1177231Y438150D01*
Y424205D01*
X1176052Y423524D01*
X1174136Y421608D01*
X1172781Y419262D01*
X1172080Y416645D01*
Y413935D01*
X1172781Y411318D01*
X1174136Y408972D01*
X1176052Y407056D01*
X1178398Y405701D01*
X1181015Y405000D01*
X1183725D01*
X1186342Y405701D01*
X1188688Y407056D01*
X1190604Y408972D01*
X1191959Y411318D01*
X1192660Y413935D01*
Y416645D01*
X1191959Y419262D01*
X1190604Y421608D01*
X1188688Y423524D01*
X1187509Y424205D01*
Y436021D01*
X1212439Y460951D01*
X1221024D01*
X1221150Y459681D01*
X1219773Y459408D01*
X1218106Y458294D01*
X1204136Y444324D01*
X1203022Y442657D01*
X1202631Y440690D01*
Y424205D01*
X1201452Y423524D01*
X1199536Y421608D01*
X1198181Y419262D01*
X1197480Y416645D01*
Y413935D01*
X1198181Y411318D01*
X1199536Y408972D01*
X1201452Y407056D01*
X1203798Y405701D01*
X1206415Y405000D01*
X1209125D01*
X1211742Y405701D01*
X1214088Y407056D01*
X1216004Y408972D01*
X1217359Y411318D01*
X1218060Y413935D01*
Y416645D01*
X1217359Y419262D01*
X1216004Y421608D01*
X1214088Y423524D01*
X1212909Y424205D01*
Y438562D01*
X1223868Y449521D01*
X1282220D01*
X1282746Y448251D01*
X1281894Y447399D01*
X1280567Y445101D01*
X1279880Y442537D01*
Y439883D01*
X1280567Y437319D01*
X1281894Y435021D01*
X1283771Y433144D01*
X1286069Y431817D01*
X1288633Y431130D01*
X1291287D01*
X1293851Y431817D01*
X1296149Y433144D01*
X1298026Y435021D01*
X1299353Y437319D01*
X1300040Y439883D01*
Y442537D01*
X1299353Y445101D01*
X1298026Y447399D01*
X1297174Y448251D01*
X1297700Y449521D01*
X1370215D01*
X1370556Y448251D01*
X1370131Y448006D01*
X1368254Y446129D01*
X1366927Y443831D01*
X1366240Y441267D01*
Y438613D01*
X1366927Y436049D01*
X1368254Y433751D01*
X1370131Y431874D01*
X1372429Y430547D01*
X1374993Y429860D01*
X1377647D01*
X1380211Y430547D01*
X1382509Y431874D01*
X1384386Y433751D01*
X1385713Y436049D01*
X1386400Y438613D01*
Y441267D01*
X1385713Y443831D01*
X1384386Y446129D01*
X1382509Y448006D01*
X1382084Y448251D01*
X1382425Y449521D01*
X1410365D01*
X1412331Y449912D01*
X1413998Y451026D01*
X1467704Y504732D01*
X1468818Y506399D01*
X1469209Y508365D01*
Y554520D01*
X1469529Y554704D01*
X1471184Y556360D01*
X1472354Y558387D01*
X1472960Y560648D01*
Y562989D01*
X1472354Y565250D01*
X1471184Y567277D01*
X1469529Y568932D01*
X1467501Y570102D01*
X1465240Y570708D01*
X1462900D01*
X1460639Y570102D01*
X1458611Y568932D01*
X1456956Y567277D01*
X1455786Y565250D01*
X1455180Y562989D01*
Y560648D01*
X1455786Y558387D01*
X1456956Y556360D01*
X1458611Y554704D01*
X1458931Y554520D01*
Y510494D01*
X1408236Y459799D01*
X1404246D01*
X1404121Y461069D01*
X1405497Y461342D01*
X1407164Y462456D01*
X1446960Y502252D01*
X1448073Y503919D01*
X1448465Y505885D01*
Y555690D01*
X1448784Y555875D01*
X1450440Y557530D01*
X1451610Y559557D01*
X1452216Y561818D01*
Y564159D01*
X1451610Y566420D01*
X1450440Y568447D01*
X1448784Y570102D01*
X1446757Y571273D01*
X1444496Y571879D01*
D02*
G37*
G36*
X1519018Y426950D02*
X1516282D01*
X1513640Y426242D01*
X1511270Y424874D01*
X1509336Y422940D01*
X1507968Y420570D01*
X1507260Y417928D01*
Y415192D01*
X1507968Y412550D01*
X1509336Y410180D01*
X1511270Y408246D01*
X1513640Y406878D01*
X1516282Y406170D01*
X1519018D01*
X1521660Y406878D01*
X1524030Y408246D01*
X1525964Y410180D01*
X1527332Y412550D01*
X1528040Y415192D01*
Y417928D01*
X1527332Y420570D01*
X1525964Y422940D01*
X1524030Y424874D01*
X1521660Y426242D01*
X1519018Y426950D01*
D02*
G37*
G36*
X1493618D02*
X1490882D01*
X1488240Y426242D01*
X1485870Y424874D01*
X1483936Y422940D01*
X1482568Y420570D01*
X1481860Y417928D01*
Y415192D01*
X1482568Y412550D01*
X1483936Y410180D01*
X1485870Y408246D01*
X1488240Y406878D01*
X1490882Y406170D01*
X1493618D01*
X1496260Y406878D01*
X1498630Y408246D01*
X1500564Y410180D01*
X1501932Y412550D01*
X1502640Y415192D01*
Y417928D01*
X1501932Y420570D01*
X1500564Y422940D01*
X1498630Y424874D01*
X1496260Y426242D01*
X1493618Y426950D01*
D02*
G37*
G36*
X1468218D02*
X1465482D01*
X1462840Y426242D01*
X1460470Y424874D01*
X1458536Y422940D01*
X1457168Y420570D01*
X1456460Y417928D01*
Y415192D01*
X1457168Y412550D01*
X1458536Y410180D01*
X1460470Y408246D01*
X1462840Y406878D01*
X1465482Y406170D01*
X1468218D01*
X1470860Y406878D01*
X1473230Y408246D01*
X1475164Y410180D01*
X1476532Y412550D01*
X1477240Y415192D01*
Y417928D01*
X1476532Y420570D01*
X1475164Y422940D01*
X1473230Y424874D01*
X1470860Y426242D01*
X1468218Y426950D01*
D02*
G37*
G36*
X1442818D02*
X1440082D01*
X1437440Y426242D01*
X1435070Y424874D01*
X1433136Y422940D01*
X1431768Y420570D01*
X1431060Y417928D01*
Y415192D01*
X1431768Y412550D01*
X1433136Y410180D01*
X1435070Y408246D01*
X1437440Y406878D01*
X1440082Y406170D01*
X1442818D01*
X1445460Y406878D01*
X1447830Y408246D01*
X1449764Y410180D01*
X1451132Y412550D01*
X1451840Y415192D01*
Y417928D01*
X1451132Y420570D01*
X1449764Y422940D01*
X1447830Y424874D01*
X1445460Y426242D01*
X1442818Y426950D01*
D02*
G37*
G36*
X1405790Y627380D02*
X1403450D01*
X1401189Y626774D01*
X1399161Y625604D01*
X1397506Y623949D01*
X1396336Y621921D01*
X1395730Y619660D01*
Y617320D01*
X1396336Y615059D01*
X1397506Y613031D01*
X1399161Y611376D01*
X1399481Y611191D01*
Y487268D01*
X1396142Y483929D01*
X1179830D01*
X1177863Y483538D01*
X1176196Y482424D01*
X1153336Y459564D01*
X1152222Y457896D01*
X1151831Y455930D01*
Y425580D01*
X1146680D01*
Y405000D01*
X1167260D01*
Y425580D01*
X1162109D01*
Y453801D01*
X1181958Y473651D01*
X1398270D01*
X1400237Y474042D01*
X1401904Y475156D01*
X1408254Y481506D01*
X1409368Y483173D01*
X1409759Y485140D01*
Y611191D01*
X1410079Y611376D01*
X1411734Y613031D01*
X1412904Y615059D01*
X1413510Y617320D01*
Y619660D01*
X1412904Y621921D01*
X1411734Y623949D01*
X1410079Y625604D01*
X1408051Y626774D01*
X1405790Y627380D01*
D02*
G37*
G36*
X918295Y425580D02*
X915585D01*
X912968Y424879D01*
X910622Y423524D01*
X908706Y421608D01*
X907351Y419262D01*
X906650Y416645D01*
Y413935D01*
X907351Y411318D01*
X908706Y408972D01*
X910622Y407056D01*
X912968Y405701D01*
X915585Y405000D01*
X918295D01*
X920912Y405701D01*
X923258Y407056D01*
X925174Y408972D01*
X926529Y411318D01*
X927230Y413935D01*
Y416645D01*
X926529Y419262D01*
X925174Y421608D01*
X923258Y423524D01*
X920912Y424879D01*
X918295Y425580D01*
D02*
G37*
G36*
X892895D02*
X890185D01*
X887568Y424879D01*
X885222Y423524D01*
X883306Y421608D01*
X881951Y419262D01*
X881250Y416645D01*
Y413935D01*
X881951Y411318D01*
X883306Y408972D01*
X885222Y407056D01*
X887568Y405701D01*
X890185Y405000D01*
X892895D01*
X895512Y405701D01*
X897858Y407056D01*
X899774Y408972D01*
X901129Y411318D01*
X901830Y413935D01*
Y416645D01*
X901129Y419262D01*
X899774Y421608D01*
X897858Y423524D01*
X895512Y424879D01*
X892895Y425580D01*
D02*
G37*
G36*
X867495D02*
X864785D01*
X862168Y424879D01*
X859822Y423524D01*
X857906Y421608D01*
X856551Y419262D01*
X855850Y416645D01*
Y413935D01*
X856551Y411318D01*
X857906Y408972D01*
X859822Y407056D01*
X862168Y405701D01*
X864785Y405000D01*
X867495D01*
X870112Y405701D01*
X872458Y407056D01*
X874374Y408972D01*
X875729Y411318D01*
X876430Y413935D01*
Y416645D01*
X875729Y419262D01*
X874374Y421608D01*
X872458Y423524D01*
X870112Y424879D01*
X867495Y425580D01*
D02*
G37*
G36*
X842095D02*
X839385D01*
X836768Y424879D01*
X834422Y423524D01*
X832506Y421608D01*
X831151Y419262D01*
X830450Y416645D01*
Y413935D01*
X831151Y411318D01*
X832506Y408972D01*
X834422Y407056D01*
X836768Y405701D01*
X839385Y405000D01*
X842095D01*
X844712Y405701D01*
X847058Y407056D01*
X848974Y408972D01*
X850329Y411318D01*
X851030Y413935D01*
Y416645D01*
X850329Y419262D01*
X848974Y421608D01*
X847058Y423524D01*
X844712Y424879D01*
X842095Y425580D01*
D02*
G37*
G36*
X816695D02*
X813985D01*
X811368Y424879D01*
X809022Y423524D01*
X807106Y421608D01*
X805751Y419262D01*
X805050Y416645D01*
Y413935D01*
X805751Y411318D01*
X807106Y408972D01*
X809022Y407056D01*
X811368Y405701D01*
X813985Y405000D01*
X816695D01*
X819312Y405701D01*
X821658Y407056D01*
X823574Y408972D01*
X824929Y411318D01*
X825630Y413935D01*
Y416645D01*
X824929Y419262D01*
X823574Y421608D01*
X821658Y423524D01*
X819312Y424879D01*
X816695Y425580D01*
D02*
G37*
%LPD*%
G36*
X1173421Y669003D02*
Y613088D01*
X1173101Y612904D01*
X1171446Y611249D01*
X1170276Y609221D01*
X1169729Y607180D01*
X1168459Y607347D01*
Y663261D01*
X1168779Y663446D01*
X1170434Y665101D01*
X1171604Y667129D01*
X1172151Y669170D01*
X1173421Y669003D01*
D02*
G37*
G36*
X832456Y709039D02*
X833626Y707011D01*
X835281Y705356D01*
X835601Y705172D01*
Y670560D01*
X835992Y668594D01*
X837106Y666926D01*
X851266Y652767D01*
X851236Y652617D01*
X849858Y652199D01*
X827207Y674850D01*
Y705172D01*
X827527Y705356D01*
X829182Y707011D01*
X830353Y709039D01*
X830747Y710509D01*
X832062D01*
X832456Y709039D01*
D02*
G37*
G36*
X745415Y695621D02*
Y643890D01*
X745711Y642403D01*
X746553Y641143D01*
X753974Y633722D01*
X755234Y632880D01*
X755942Y632739D01*
X756256Y631569D01*
X757426Y629541D01*
X759081Y627886D01*
X760655Y626978D01*
Y610870D01*
X760951Y609383D01*
X761793Y608123D01*
X777165Y592751D01*
Y508402D01*
X775591Y507494D01*
X773936Y505839D01*
X773505Y505091D01*
X772235Y505431D01*
Y589280D01*
X771939Y590767D01*
X771097Y592027D01*
X735405Y627719D01*
Y639678D01*
X736979Y640586D01*
X738634Y642241D01*
X739804Y644269D01*
X740410Y646530D01*
Y648870D01*
X739804Y651131D01*
X738634Y653159D01*
X736979Y654814D01*
X735405Y655723D01*
Y664210D01*
X735109Y665697D01*
X734267Y666957D01*
X715217Y686007D01*
X713957Y686849D01*
X712470Y687145D01*
X667991D01*
X667651Y688415D01*
X668399Y688846D01*
X670054Y690501D01*
X671224Y692529D01*
X671830Y694790D01*
Y697130D01*
X671753Y697418D01*
X672526Y698425D01*
X723497D01*
X724406Y696851D01*
X726061Y695196D01*
X728089Y694026D01*
X730350Y693420D01*
X732690D01*
X734951Y694026D01*
X736979Y695196D01*
X738634Y696851D01*
X739542Y698425D01*
X742611D01*
X745415Y695621D01*
D02*
G37*
D16*
X1350018Y681982D02*
X1353820Y678180D01*
X1350018Y681982D02*
Y688362D01*
X1347500Y690880D02*
X1350018Y688362D01*
X1578610Y608330D02*
Y629920D01*
X1564640Y643890D02*
X1578610Y629920D01*
X1518920Y643890D02*
X1564640D01*
X1484630Y678180D02*
X1518920Y643890D01*
X1353820Y678180D02*
X1484630D01*
X1350018Y656582D02*
X1353820Y652780D01*
X1350018Y656582D02*
Y662962D01*
X1347500Y665480D02*
X1350018Y662962D01*
X1487170Y652780D02*
X1532890Y607060D01*
X1353820Y652780D02*
X1487170D01*
X768350Y490220D02*
X781050Y477520D01*
X814070D01*
X768350Y490220D02*
Y589280D01*
X731520Y626110D02*
X768350Y589280D01*
X781050Y500380D02*
Y594360D01*
X764540Y610870D02*
X781050Y594360D01*
X624404Y692586D02*
Y700206D01*
X633730Y683260D02*
X712470D01*
X623570Y701040D02*
X624404Y700206D01*
Y692586D02*
X633730Y683260D01*
X712470D02*
X731520Y664210D01*
Y647700D02*
Y664210D01*
Y626110D02*
Y647700D01*
X764540Y610870D02*
Y635000D01*
X763071Y636469D02*
X764540Y635000D01*
X744220Y702310D02*
X749300Y697230D01*
X731520Y702310D02*
X744220D01*
X749300Y643890D02*
Y697230D01*
X669290Y702310D02*
X731520D01*
X756721Y636469D02*
X763071D01*
X749300Y643890D02*
X756721Y636469D01*
X662940Y695960D02*
X669290Y702310D01*
D83*
X1416050Y416560D02*
D03*
D84*
X1441450D02*
D03*
X1466850D02*
D03*
X1492250D02*
D03*
X1517650D02*
D03*
X1543050D02*
D03*
X1372900Y640080D02*
D03*
X1347500D02*
D03*
X1372900Y665480D02*
D03*
X1347500D02*
D03*
X1372900Y690880D02*
D03*
X1347500D02*
D03*
X1372900Y716280D02*
D03*
D85*
X1156970Y415290D02*
D03*
X942340D02*
D03*
X1489710Y977244D02*
D03*
D86*
X1182370Y415290D02*
D03*
X1207770D02*
D03*
X916940D02*
D03*
X891540D02*
D03*
X866140D02*
D03*
X840740D02*
D03*
X815340D02*
D03*
X1540510Y977244D02*
D03*
X1515110D02*
D03*
D89*
X1347500Y716280D02*
D03*
D92*
X1291219Y696360D02*
Y701411D01*
Y696360D02*
X1347500Y640080D01*
X1290320Y702310D02*
X1291219Y701411D01*
X1280160Y778510D02*
X1290320Y768350D01*
Y702310D02*
Y768350D01*
X1321867Y638607D02*
X1346026D01*
X1347500Y640080D01*
X1315720Y632460D02*
X1321867Y638607D01*
X1315720Y576580D02*
Y632460D01*
X1242306Y688340D02*
X1257756D01*
X1262638Y693222D02*
Y760472D01*
X1257756Y688340D02*
X1262638Y693222D01*
X1197610Y971550D02*
X1220470D01*
X1184910Y958850D02*
X1197610Y971550D01*
X1184910Y838200D02*
Y958850D01*
Y838200D02*
X1262638Y760472D01*
X1511431Y452120D02*
X1516972Y457661D01*
X1532882D02*
X1533781Y458560D01*
X1516972Y457661D02*
X1532882D01*
X1436370Y452120D02*
X1511431D01*
X1416050Y431800D02*
X1436370Y452120D01*
X1416050Y416560D02*
Y431800D01*
X835660Y975360D02*
X1113790D01*
X806450Y946150D02*
X835660Y975360D01*
X1280160Y806450D02*
X1569720D01*
X1280160Y778510D02*
Y806450D01*
X652780Y768350D02*
X695960D01*
X1303020Y915670D02*
Y946150D01*
X1220470Y971550D02*
X1277620D01*
X1303020Y946150D01*
X1397002Y895350D02*
X1410970D01*
X1393190Y897890D02*
X1394462D01*
X1397002Y895350D01*
X1410970D02*
X1432560Y916940D01*
X1386838Y892810D02*
X1391918Y897890D01*
X1295400Y892810D02*
X1386838D01*
X1271270Y916940D02*
X1295400Y892810D01*
D93*
X1375410Y716280D02*
X1403350Y744220D01*
X1372900Y716280D02*
X1375410D01*
X1501981Y737870D02*
X1502410D01*
X1495631Y744220D02*
X1501981Y737870D01*
X1403350Y744220D02*
X1495631D01*
X1474660Y476440D02*
X1490980Y492760D01*
X1474470Y476440D02*
X1474660D01*
X1489710Y567690D02*
X1520190D01*
X1567180Y520700D02*
X1595120D01*
X1520190Y567690D02*
X1567180Y520700D01*
X1221740Y454660D02*
X1410365D01*
X1464070Y508365D02*
Y561818D01*
X1410365Y454660D02*
X1464070Y508365D01*
X1443326Y505885D02*
Y562989D01*
X1403530Y466090D02*
X1443326Y505885D01*
X1490980Y492760D02*
X1530350D01*
X822069Y672721D02*
X848360Y646430D01*
X822069Y672721D02*
Y712470D01*
X1517119Y937791D02*
Y975235D01*
X1515110Y977244D02*
X1517119Y975235D01*
Y937791D02*
X1591310Y863600D01*
Y732085D02*
Y863600D01*
X1578045Y718820D02*
X1591310Y732085D01*
X1446530Y718820D02*
X1578045D01*
X877927Y443230D02*
X891540Y456843D01*
X800100Y443230D02*
X877927D01*
X758190Y485140D02*
X800100Y443230D01*
X891540Y456843D02*
Y458926D01*
X989330Y554990D02*
X1002030Y567690D01*
X955040Y554990D02*
X989330D01*
X821690Y783590D02*
X857250Y748030D01*
Y690880D02*
Y748030D01*
X848360Y458926D02*
Y646430D01*
X857250Y479900D02*
Y654050D01*
X840740Y670560D02*
Y712470D01*
Y670560D02*
X857250Y654050D01*
X1002030Y567690D02*
Y706120D01*
X1061720Y562610D02*
Y579120D01*
X1019810Y621030D02*
X1061720Y579120D01*
X746760Y593090D02*
X758190Y581660D01*
Y485140D02*
Y581660D01*
X857250Y479900D02*
X864667Y472483D01*
Y462483D02*
X866140Y461010D01*
X864667Y462483D02*
Y472483D01*
X1192530Y562610D02*
X1388110D01*
X1178560Y576580D02*
X1192530Y562610D01*
X1306830Y745490D02*
X1385570D01*
X1426210Y786130D01*
X1493520D01*
X1221740Y750570D02*
Y762000D01*
X1404620Y485140D02*
Y618490D01*
X1398270Y478790D02*
X1404620Y485140D01*
X1178560Y576580D02*
Y605790D01*
Y707390D02*
X1221740Y750570D01*
X1178560Y605790D02*
Y707390D01*
X1212215Y591185D02*
Y683895D01*
X1211580Y684530D02*
X1212215Y683895D01*
Y591185D02*
X1212850Y590550D01*
X1032510Y632460D02*
Y633730D01*
X1080770Y681990D01*
X1117600D01*
X1085850Y623570D02*
Y650240D01*
X1019810Y621030D02*
Y666321D01*
X1111250Y521970D02*
Y543560D01*
X1163320Y595630D02*
Y670560D01*
X1111250Y543560D02*
X1163320Y595630D01*
X1179830Y478790D02*
X1398270D01*
X1210310Y466090D02*
X1403530D01*
X1182370Y438150D02*
X1210310Y466090D01*
X1182370Y415290D02*
Y438150D01*
X1156970Y455930D02*
X1179830Y478790D01*
X1156970Y415290D02*
Y455930D01*
X1207770Y440690D02*
X1221740Y454660D01*
X1207770Y415290D02*
Y440690D01*
X1117600Y593090D02*
Y681990D01*
D94*
X1242306Y637540D02*
D03*
Y662940D02*
D03*
Y688340D02*
D03*
D95*
Y713740D02*
D03*
D96*
X595985Y655300D02*
D03*
Y741700D02*
D03*
D97*
X632785Y669600D02*
D03*
Y727400D02*
D03*
D98*
X637785Y741700D02*
D03*
Y655300D02*
D03*
D99*
X1512570Y682640D02*
D03*
Y696640D02*
D03*
X1519570Y675640D02*
D03*
Y689640D02*
D03*
Y703640D02*
D03*
X1526570Y682640D02*
D03*
Y696640D02*
D03*
X1533570Y675640D02*
D03*
Y689640D02*
D03*
Y703640D02*
D03*
X1540570Y682640D02*
D03*
Y696640D02*
D03*
D100*
X1139190Y975360D02*
D03*
D101*
X1113790D02*
D03*
D102*
X1543370Y874830D02*
D03*
Y849830D02*
D03*
X1289960Y441210D02*
D03*
X1244960Y506210D02*
D03*
Y441210D02*
D03*
X1376320Y439940D02*
D03*
X1331320Y504940D02*
D03*
Y439940D02*
D03*
D103*
X1289960Y506210D02*
D03*
X1376320Y504940D02*
D03*
D104*
X1596390Y966470D02*
D03*
Y425450D02*
D03*
X673100Y429260D02*
D03*
X669290Y966470D02*
D03*
D105*
X1263244Y852870D02*
D03*
X1237844Y878270D02*
D03*
X1212444Y852870D02*
D03*
X1456625Y879870D02*
D03*
X1431225Y854470D02*
D03*
X1456625Y829070D02*
D03*
D106*
X1290320Y702310D02*
D03*
X1533781Y458560D02*
D03*
X1603770Y560070D02*
D03*
X1474470Y476440D02*
D03*
X1595120Y520700D02*
D03*
X1464070Y561818D02*
D03*
X1443326Y562989D02*
D03*
X1530350Y492760D02*
D03*
X1489710Y567690D02*
D03*
X928370Y888365D02*
D03*
X939800Y878720D02*
D03*
X932180Y633090D02*
D03*
Y685848D02*
D03*
X806450Y946150D02*
D03*
X727635Y590767D02*
D03*
X822069Y712470D02*
D03*
X891540Y458926D02*
D03*
X921320Y468401D02*
D03*
X955040Y554990D02*
D03*
X857250Y690880D02*
D03*
X840740Y712470D02*
D03*
X821690Y783590D02*
D03*
X1061720Y562610D02*
D03*
X1602740Y650730D02*
D03*
Y716085D02*
D03*
Y628945D02*
D03*
Y672515D02*
D03*
X1605280Y793800D02*
D03*
X1602740Y694300D02*
D03*
X769620Y844550D02*
D03*
X822960Y623570D02*
D03*
X816610Y519430D02*
D03*
X1410970Y842010D02*
D03*
X1394460Y944880D02*
D03*
X1061720Y817880D02*
D03*
X1043940D02*
D03*
X1026160D02*
D03*
X1016000Y935990D02*
D03*
X1071880D02*
D03*
X1056640Y955040D02*
D03*
X1028700D02*
D03*
X821690Y845820D02*
D03*
X683260Y836930D02*
D03*
X749300Y803910D02*
D03*
X795020Y839470D02*
D03*
X814070Y927100D02*
D03*
X746760Y593090D02*
D03*
X866140Y461010D02*
D03*
X848360D02*
D03*
X1315720Y576580D02*
D03*
X814070Y477520D02*
D03*
X781050Y500380D02*
D03*
X659130Y645350D02*
D03*
X660400Y745865D02*
D03*
X1569720Y806450D02*
D03*
X1532890Y607060D02*
D03*
X1280160Y806450D02*
D03*
X695960Y768350D02*
D03*
X652780D02*
D03*
X623570Y701040D02*
D03*
X1404620Y716280D02*
D03*
X1493520Y786130D02*
D03*
X1502410Y737870D02*
D03*
X1306830Y745490D02*
D03*
X1221740Y762000D02*
D03*
X1303020Y915670D02*
D03*
X1220470Y971550D02*
D03*
X1388110Y562610D02*
D03*
X1211580Y684530D02*
D03*
X1178560Y605790D02*
D03*
X1032510Y632460D02*
D03*
X1085850Y623570D02*
D03*
X1446530Y718820D02*
D03*
X1002030Y706120D02*
D03*
X764540Y635000D02*
D03*
X709930Y713740D02*
D03*
X731520Y702310D02*
D03*
Y647700D02*
D03*
X701040Y734060D02*
D03*
X662940Y695960D02*
D03*
X1085850Y650240D02*
D03*
X1019810Y666750D02*
D03*
X1212850Y590550D02*
D03*
X1163320Y670560D02*
D03*
X1111250Y521970D02*
D03*
X1404620Y618490D02*
D03*
X1578610Y608330D02*
D03*
X1158240Y873760D02*
D03*
X1271270Y916940D02*
D03*
X1393190Y897890D02*
D03*
X1432560Y916940D02*
D03*
X1117600Y681990D02*
D03*
Y593090D02*
D03*
M02*
