G04*
G04 #@! TF.GenerationSoftware,Altium Limited,Altium Designer,23.2.1 (34)*
G04*
G04 Layer_Color=2752767*
%FSLAX44Y44*%
%MOMM*%
G71*
G04*
G04 #@! TF.SameCoordinates,75154B13-1296-4508-9C84-23632F313CF3*
G04*
G04*
G04 #@! TF.FilePolarity,Positive*
G04*
G01*
G75*
%ADD12C,0.1270*%
%ADD110C,0.1693*%
%ADD111C,0.1016*%
D12*
X1237226Y637540D02*
X1242306Y642620D01*
X1247386Y637540D01*
X1242306Y632460D01*
X1237226Y637540D01*
Y662940D02*
X1242306Y668020D01*
X1247386Y662940D01*
X1242306Y657860D01*
X1237226Y662940D01*
Y713740D02*
X1242306Y718820D01*
X1247386Y713740D01*
X1242306Y708660D01*
X1237226Y713740D01*
Y688340D02*
X1242306Y693420D01*
X1247386Y688340D01*
X1242306Y683260D01*
X1237226Y688340D01*
X595985Y650220D02*
X598525Y652760D01*
X601065D01*
X598525Y655300D01*
X601065Y657840D01*
X598525D01*
X595985Y660380D01*
X593445Y657840D01*
X590905D01*
X593445Y655300D01*
X590905Y652760D01*
X593445D01*
X595985Y650220D01*
Y736620D02*
X598525Y739160D01*
X601065D01*
X598525Y741700D01*
X601065Y744240D01*
X598525D01*
X595985Y746780D01*
X593445Y744240D01*
X590905D01*
X593445Y741700D01*
X590905Y739160D01*
X593445D01*
X595985Y736620D01*
X627705Y664520D02*
X630245Y669600D01*
X627705Y674680D01*
X632785Y672140D01*
X637865Y674680D01*
X635325Y669600D01*
X637865Y664520D01*
X632785Y667060D01*
X627705Y664520D01*
Y722320D02*
X630245Y727400D01*
X627705Y732480D01*
X632785Y729940D01*
X637865Y732480D01*
X635325Y727400D01*
X637865Y722320D01*
X632785Y724860D01*
X627705Y722320D01*
X635245Y739160D02*
Y736620D01*
X640325D01*
Y739160D01*
X642865D01*
Y744240D01*
X640325D01*
Y746780D01*
X635245D01*
Y744240D01*
X632705D01*
Y739160D01*
X635245D01*
Y652760D02*
Y650220D01*
X640325D01*
Y652760D01*
X642865D01*
Y657840D01*
X640325D01*
Y660380D01*
X635245D01*
Y657840D01*
X632705D01*
Y652760D01*
X635245D01*
X1512570Y677560D02*
X1507490Y687720D01*
X1517650D01*
X1512570Y677560D01*
Y691560D02*
X1507490Y701720D01*
X1517650D01*
X1512570Y691560D01*
X1519570Y670560D02*
X1514490Y680720D01*
X1524650D01*
X1519570Y670560D01*
Y684560D02*
X1514490Y694720D01*
X1524650D01*
X1519570Y684560D01*
Y698560D02*
X1514490Y708720D01*
X1524650D01*
X1519570Y698560D01*
X1526570Y677560D02*
X1521490Y687720D01*
X1531650D01*
X1526570Y677560D01*
Y691560D02*
X1521490Y701720D01*
X1531650D01*
X1526570Y691560D01*
X1533570Y670560D02*
X1528490Y680720D01*
X1538650D01*
X1533570Y670560D01*
Y684560D02*
X1528490Y694720D01*
X1538650D01*
X1533570Y684560D01*
Y698560D02*
X1528490Y708720D01*
X1538650D01*
X1533570Y698560D01*
X1540570Y677560D02*
X1535490Y687720D01*
X1545650D01*
X1540570Y677560D01*
Y691560D02*
X1535490Y701720D01*
X1545650D01*
X1540570Y691560D01*
X1139190Y970280D02*
X1141730Y972820D01*
X1144270D01*
X1141730Y975360D01*
X1144270Y977900D01*
X1141730D01*
X1139190Y980440D01*
X1136650Y977900D01*
X1134110D01*
X1136650Y975360D01*
X1134110Y972820D01*
X1136650D01*
X1139190Y970280D01*
Y972312D02*
X1140714Y973836D01*
X1142238D01*
X1140714Y975360D01*
X1142238Y976884D01*
X1140714D01*
X1139190Y978408D01*
X1137666Y976884D01*
X1136142D01*
X1137666Y975360D01*
X1136142Y973836D01*
X1137666D01*
X1139190Y972312D01*
X1113790Y970280D02*
X1116330Y972820D01*
X1118870D01*
X1116330Y975360D01*
X1118870Y977900D01*
X1116330D01*
X1113790Y980440D01*
X1111250Y977900D01*
X1108710D01*
X1111250Y975360D01*
X1108710Y972820D01*
X1111250D01*
X1113790Y970280D01*
Y972312D02*
X1115314Y973836D01*
X1116838D01*
X1115314Y975360D01*
X1116838Y976884D01*
X1115314D01*
X1113790Y978408D01*
X1112266Y976884D01*
X1110742D01*
X1112266Y975360D01*
X1110742Y973836D01*
X1112266D01*
X1113790Y972312D01*
X1596390Y961390D02*
X1591310Y971550D01*
X1601470D01*
X1596390Y961390D01*
Y963422D02*
X1593342Y969518D01*
X1599438D01*
X1596390Y963422D01*
Y420370D02*
X1591310Y430530D01*
X1601470D01*
X1596390Y420370D01*
Y422402D02*
X1593342Y428498D01*
X1599438D01*
X1596390Y422402D01*
X673100Y424180D02*
X668020Y434340D01*
X678180D01*
X673100Y424180D01*
Y426212D02*
X670052Y432308D01*
X676148D01*
X673100Y426212D01*
X669290Y961390D02*
X664210Y971550D01*
X674370D01*
X669290Y961390D01*
Y963422D02*
X666242Y969518D01*
X672338D01*
X669290Y963422D01*
X1410970Y411480D02*
X1413510D01*
X1416050Y414020D01*
X1418590Y411480D01*
X1421130D01*
Y414020D01*
X1418590Y416560D01*
X1421130Y419100D01*
Y421640D01*
X1418590D01*
X1416050Y419100D01*
X1413510Y421640D01*
X1410970D01*
Y419100D01*
X1413510Y416560D01*
X1410970Y414020D01*
Y411480D01*
X1436370D02*
X1438910D01*
X1441450Y414020D01*
X1443990Y411480D01*
X1446530D01*
Y414020D01*
X1443990Y416560D01*
X1446530Y419100D01*
Y421640D01*
X1443990D01*
X1441450Y419100D01*
X1438910Y421640D01*
X1436370D01*
Y419100D01*
X1438910Y416560D01*
X1436370Y414020D01*
Y411480D01*
X1461770D02*
X1464310D01*
X1466850Y414020D01*
X1469390Y411480D01*
X1471930D01*
Y414020D01*
X1469390Y416560D01*
X1471930Y419100D01*
Y421640D01*
X1469390D01*
X1466850Y419100D01*
X1464310Y421640D01*
X1461770D01*
Y419100D01*
X1464310Y416560D01*
X1461770Y414020D01*
Y411480D01*
X1487170D02*
X1489710D01*
X1492250Y414020D01*
X1494790Y411480D01*
X1497330D01*
Y414020D01*
X1494790Y416560D01*
X1497330Y419100D01*
Y421640D01*
X1494790D01*
X1492250Y419100D01*
X1489710Y421640D01*
X1487170D01*
Y419100D01*
X1489710Y416560D01*
X1487170Y414020D01*
Y411480D01*
X1512570D02*
X1515110D01*
X1517650Y414020D01*
X1520190Y411480D01*
X1522730D01*
Y414020D01*
X1520190Y416560D01*
X1522730Y419100D01*
Y421640D01*
X1520190D01*
X1517650Y419100D01*
X1515110Y421640D01*
X1512570D01*
Y419100D01*
X1515110Y416560D01*
X1512570Y414020D01*
Y411480D01*
X1537970D02*
X1540510D01*
X1543050Y414020D01*
X1545590Y411480D01*
X1548130D01*
Y414020D01*
X1545590Y416560D01*
X1548130Y419100D01*
Y421640D01*
X1545590D01*
X1543050Y419100D01*
X1540510Y421640D01*
X1537970D01*
Y419100D01*
X1540510Y416560D01*
X1537970Y414020D01*
Y411480D01*
X937260Y410210D02*
Y420370D01*
X947420D01*
Y410210D01*
X937260D01*
X939292Y412242D02*
Y418338D01*
X945388D01*
Y412242D01*
X939292D01*
X911860Y410210D02*
Y420370D01*
X922020D01*
Y410210D01*
X911860D01*
X913892Y412242D02*
Y418338D01*
X919988D01*
Y412242D01*
X913892D01*
X886460Y410210D02*
Y420370D01*
X896620D01*
Y410210D01*
X886460D01*
X888492Y412242D02*
Y418338D01*
X894588D01*
Y412242D01*
X888492D01*
X861060Y410210D02*
Y420370D01*
X871220D01*
Y410210D01*
X861060D01*
X863092Y412242D02*
Y418338D01*
X869188D01*
Y412242D01*
X863092D01*
X835660Y410210D02*
Y420370D01*
X845820D01*
Y410210D01*
X835660D01*
X837692Y412242D02*
Y418338D01*
X843788D01*
Y412242D01*
X837692D01*
X810260Y410210D02*
Y420370D01*
X820420D01*
Y410210D01*
X810260D01*
X812292Y412242D02*
Y418338D01*
X818388D01*
Y412242D01*
X812292D01*
X1367820Y635000D02*
X1370360D01*
X1372900Y637540D01*
X1375440Y635000D01*
X1377980D01*
Y637540D01*
X1375440Y640080D01*
X1377980Y642620D01*
Y645160D01*
X1375440D01*
X1372900Y642620D01*
X1370360Y645160D01*
X1367820D01*
Y642620D01*
X1370360Y640080D01*
X1367820Y637540D01*
Y635000D01*
X1342420D02*
X1344960D01*
X1347500Y637540D01*
X1350040Y635000D01*
X1352580D01*
Y637540D01*
X1350040Y640080D01*
X1352580Y642620D01*
Y645160D01*
X1350040D01*
X1347500Y642620D01*
X1344960Y645160D01*
X1342420D01*
Y642620D01*
X1344960Y640080D01*
X1342420Y637540D01*
Y635000D01*
X1367820Y660400D02*
X1370360D01*
X1372900Y662940D01*
X1375440Y660400D01*
X1377980D01*
Y662940D01*
X1375440Y665480D01*
X1377980Y668020D01*
Y670560D01*
X1375440D01*
X1372900Y668020D01*
X1370360Y670560D01*
X1367820D01*
Y668020D01*
X1370360Y665480D01*
X1367820Y662940D01*
Y660400D01*
X1342420D02*
X1344960D01*
X1347500Y662940D01*
X1350040Y660400D01*
X1352580D01*
Y662940D01*
X1350040Y665480D01*
X1352580Y668020D01*
Y670560D01*
X1350040D01*
X1347500Y668020D01*
X1344960Y670560D01*
X1342420D01*
Y668020D01*
X1344960Y665480D01*
X1342420Y662940D01*
Y660400D01*
X1367820Y685800D02*
X1370360D01*
X1372900Y688340D01*
X1375440Y685800D01*
X1377980D01*
Y688340D01*
X1375440Y690880D01*
X1377980Y693420D01*
Y695960D01*
X1375440D01*
X1372900Y693420D01*
X1370360Y695960D01*
X1367820D01*
Y693420D01*
X1370360Y690880D01*
X1367820Y688340D01*
Y685800D01*
X1342420D02*
X1344960D01*
X1347500Y688340D01*
X1350040Y685800D01*
X1352580D01*
Y688340D01*
X1350040Y690880D01*
X1352580Y693420D01*
Y695960D01*
X1350040D01*
X1347500Y693420D01*
X1344960Y695960D01*
X1342420D01*
Y693420D01*
X1344960Y690880D01*
X1342420Y688340D01*
Y685800D01*
X1367820Y711200D02*
X1370360D01*
X1372900Y713740D01*
X1375440Y711200D01*
X1377980D01*
Y713740D01*
X1375440Y716280D01*
X1377980Y718820D01*
Y721360D01*
X1375440D01*
X1372900Y718820D01*
X1370360Y721360D01*
X1367820D01*
Y718820D01*
X1370360Y716280D01*
X1367820Y713740D01*
Y711200D01*
X1342420D02*
X1344960D01*
X1347500Y713740D01*
X1350040Y711200D01*
X1352580D01*
Y713740D01*
X1350040Y716280D01*
X1352580Y718820D01*
Y721360D01*
X1350040D01*
X1347500Y718820D01*
X1344960Y721360D01*
X1342420D01*
Y718820D01*
X1344960Y716280D01*
X1342420Y713740D01*
Y711200D01*
X1258164Y847790D02*
Y857950D01*
X1268324D01*
Y847790D01*
X1258164D01*
X1232764Y873190D02*
Y883350D01*
X1242924D01*
Y873190D01*
X1232764D01*
X1207364Y847790D02*
Y857950D01*
X1217524D01*
Y847790D01*
X1207364D01*
X1451545Y874790D02*
Y884950D01*
X1461705D01*
Y874790D01*
X1451545D01*
X1426145Y849390D02*
Y859550D01*
X1436305D01*
Y849390D01*
X1426145D01*
X1451545Y823990D02*
Y834150D01*
X1461705D01*
Y823990D01*
X1451545D01*
D110*
X1548450Y874830D02*
G03*
X1548450Y874830I-5080J0D01*
G01*
Y849830D02*
G03*
X1548450Y849830I-5080J0D01*
G01*
X1295040Y506210D02*
G03*
X1295040Y506210I-5080J0D01*
G01*
Y441210D02*
G03*
X1295040Y441210I-5080J0D01*
G01*
X1250040Y506210D02*
G03*
X1250040Y506210I-5080J0D01*
G01*
Y441210D02*
G03*
X1250040Y441210I-5080J0D01*
G01*
X1381400Y504940D02*
G03*
X1381400Y504940I-5080J0D01*
G01*
Y439940D02*
G03*
X1381400Y439940I-5080J0D01*
G01*
X1336400Y504940D02*
G03*
X1336400Y504940I-5080J0D01*
G01*
Y439940D02*
G03*
X1336400Y439940I-5080J0D01*
G01*
X1162050Y415290D02*
G03*
X1162050Y415290I-5080J0D01*
G01*
X1187450D02*
G03*
X1187450Y415290I-5080J0D01*
G01*
X1212850D02*
G03*
X1212850Y415290I-5080J0D01*
G01*
X1545590Y977244D02*
G03*
X1545590Y977244I-5080J0D01*
G01*
X1520190D02*
G03*
X1520190Y977244I-5080J0D01*
G01*
X1494790D02*
G03*
X1494790Y977244I-5080J0D01*
G01*
X1295400Y702310D02*
G03*
X1295400Y702310I-5080J0D01*
G01*
X1538861Y458560D02*
G03*
X1538861Y458560I-5080J0D01*
G01*
X1608850Y560070D02*
G03*
X1608850Y560070I-5080J0D01*
G01*
X1479550Y476440D02*
G03*
X1479550Y476440I-5080J0D01*
G01*
X1600200Y520700D02*
G03*
X1600200Y520700I-5080J0D01*
G01*
X1469150Y561818D02*
G03*
X1469150Y561818I-5080J0D01*
G01*
X1448406Y562989D02*
G03*
X1448406Y562989I-5080J0D01*
G01*
X1535430Y492760D02*
G03*
X1535430Y492760I-5080J0D01*
G01*
X1494790Y567690D02*
G03*
X1494790Y567690I-5080J0D01*
G01*
X933450Y888365D02*
G03*
X933450Y888365I-5080J0D01*
G01*
X944880Y878720D02*
G03*
X944880Y878720I-5080J0D01*
G01*
X937260Y633090D02*
G03*
X937260Y633090I-5080J0D01*
G01*
Y685848D02*
G03*
X937260Y685848I-5080J0D01*
G01*
X811530Y946150D02*
G03*
X811530Y946150I-5080J0D01*
G01*
X732715Y590767D02*
G03*
X732715Y590767I-5080J0D01*
G01*
X827149Y712470D02*
G03*
X827149Y712470I-5080J0D01*
G01*
X896620Y458926D02*
G03*
X896620Y458926I-5080J0D01*
G01*
X926400Y468401D02*
G03*
X926400Y468401I-5080J0D01*
G01*
X960120Y554990D02*
G03*
X960120Y554990I-5080J0D01*
G01*
X862330Y690880D02*
G03*
X862330Y690880I-5080J0D01*
G01*
X845820Y712470D02*
G03*
X845820Y712470I-5080J0D01*
G01*
X826770Y783590D02*
G03*
X826770Y783590I-5080J0D01*
G01*
X1066800Y562610D02*
G03*
X1066800Y562610I-5080J0D01*
G01*
X1607820Y650730D02*
G03*
X1607820Y650730I-5080J0D01*
G01*
Y716085D02*
G03*
X1607820Y716085I-5080J0D01*
G01*
Y628945D02*
G03*
X1607820Y628945I-5080J0D01*
G01*
Y672515D02*
G03*
X1607820Y672515I-5080J0D01*
G01*
X1610360Y793800D02*
G03*
X1610360Y793800I-5080J0D01*
G01*
X1607820Y694300D02*
G03*
X1607820Y694300I-5080J0D01*
G01*
X774700Y844550D02*
G03*
X774700Y844550I-5080J0D01*
G01*
X828040Y623570D02*
G03*
X828040Y623570I-5080J0D01*
G01*
X821690Y519430D02*
G03*
X821690Y519430I-5080J0D01*
G01*
X1416050Y842010D02*
G03*
X1416050Y842010I-5080J0D01*
G01*
X1399540Y944880D02*
G03*
X1399540Y944880I-5080J0D01*
G01*
X1066800Y817880D02*
G03*
X1066800Y817880I-5080J0D01*
G01*
X1049020D02*
G03*
X1049020Y817880I-5080J0D01*
G01*
X1031240D02*
G03*
X1031240Y817880I-5080J0D01*
G01*
X1021080Y935990D02*
G03*
X1021080Y935990I-5080J0D01*
G01*
X1076960D02*
G03*
X1076960Y935990I-5080J0D01*
G01*
X1061720Y955040D02*
G03*
X1061720Y955040I-5080J0D01*
G01*
X1033780D02*
G03*
X1033780Y955040I-5080J0D01*
G01*
X826770Y845820D02*
G03*
X826770Y845820I-5080J0D01*
G01*
X688340Y836930D02*
G03*
X688340Y836930I-5080J0D01*
G01*
X754380Y803910D02*
G03*
X754380Y803910I-5080J0D01*
G01*
X800100Y839470D02*
G03*
X800100Y839470I-5080J0D01*
G01*
X819150Y927100D02*
G03*
X819150Y927100I-5080J0D01*
G01*
X751840Y593090D02*
G03*
X751840Y593090I-5080J0D01*
G01*
X871220Y461010D02*
G03*
X871220Y461010I-5080J0D01*
G01*
X853440D02*
G03*
X853440Y461010I-5080J0D01*
G01*
X1320800Y576580D02*
G03*
X1320800Y576580I-5080J0D01*
G01*
X819150Y477520D02*
G03*
X819150Y477520I-5080J0D01*
G01*
X786130Y500380D02*
G03*
X786130Y500380I-5080J0D01*
G01*
X664210Y645350D02*
G03*
X664210Y645350I-5080J0D01*
G01*
X665480Y745865D02*
G03*
X665480Y745865I-5080J0D01*
G01*
X1574800Y806450D02*
G03*
X1574800Y806450I-5080J0D01*
G01*
X1537970Y607060D02*
G03*
X1537970Y607060I-5080J0D01*
G01*
X1285240Y806450D02*
G03*
X1285240Y806450I-5080J0D01*
G01*
X701040Y768350D02*
G03*
X701040Y768350I-5080J0D01*
G01*
X657860D02*
G03*
X657860Y768350I-5080J0D01*
G01*
X628650Y701040D02*
G03*
X628650Y701040I-5080J0D01*
G01*
X1409700Y716280D02*
G03*
X1409700Y716280I-5080J0D01*
G01*
X1498600Y786130D02*
G03*
X1498600Y786130I-5080J0D01*
G01*
X1507490Y737870D02*
G03*
X1507490Y737870I-5080J0D01*
G01*
X1311910Y745490D02*
G03*
X1311910Y745490I-5080J0D01*
G01*
X1226820Y762000D02*
G03*
X1226820Y762000I-5080J0D01*
G01*
X1308100Y915670D02*
G03*
X1308100Y915670I-5080J0D01*
G01*
X1225550Y971550D02*
G03*
X1225550Y971550I-5080J0D01*
G01*
X1393190Y562610D02*
G03*
X1393190Y562610I-5080J0D01*
G01*
X1216660Y684530D02*
G03*
X1216660Y684530I-5080J0D01*
G01*
X1183640Y605790D02*
G03*
X1183640Y605790I-5080J0D01*
G01*
X1037590Y632460D02*
G03*
X1037590Y632460I-5080J0D01*
G01*
X1090930Y623570D02*
G03*
X1090930Y623570I-5080J0D01*
G01*
X1451610Y718820D02*
G03*
X1451610Y718820I-5080J0D01*
G01*
X1007110Y706120D02*
G03*
X1007110Y706120I-5080J0D01*
G01*
X769620Y635000D02*
G03*
X769620Y635000I-5080J0D01*
G01*
X715010Y713740D02*
G03*
X715010Y713740I-5080J0D01*
G01*
X736600Y702310D02*
G03*
X736600Y702310I-5080J0D01*
G01*
Y647700D02*
G03*
X736600Y647700I-5080J0D01*
G01*
X706120Y734060D02*
G03*
X706120Y734060I-5080J0D01*
G01*
X668020Y695960D02*
G03*
X668020Y695960I-5080J0D01*
G01*
X1090930Y650240D02*
G03*
X1090930Y650240I-5080J0D01*
G01*
X1024890Y666750D02*
G03*
X1024890Y666750I-5080J0D01*
G01*
X1217930Y590550D02*
G03*
X1217930Y590550I-5080J0D01*
G01*
X1168400Y670560D02*
G03*
X1168400Y670560I-5080J0D01*
G01*
X1116330Y521970D02*
G03*
X1116330Y521970I-5080J0D01*
G01*
X1409700Y618490D02*
G03*
X1409700Y618490I-5080J0D01*
G01*
X1583690Y608330D02*
G03*
X1583690Y608330I-5080J0D01*
G01*
X1163320Y873760D02*
G03*
X1163320Y873760I-5080J0D01*
G01*
X1276350Y916940D02*
G03*
X1276350Y916940I-5080J0D01*
G01*
X1398270Y897890D02*
G03*
X1398270Y897890I-5080J0D01*
G01*
X1437640Y916940D02*
G03*
X1437640Y916940I-5080J0D01*
G01*
X1122680Y681990D02*
G03*
X1122680Y681990I-5080J0D01*
G01*
Y593090D02*
G03*
X1122680Y593090I-5080J0D01*
G01*
D111*
X1293368Y702310D02*
G03*
X1293368Y702310I-3048J0D01*
G01*
X1536829Y458560D02*
G03*
X1536829Y458560I-3048J0D01*
G01*
X1606818Y560070D02*
G03*
X1606818Y560070I-3048J0D01*
G01*
X1477518Y476440D02*
G03*
X1477518Y476440I-3048J0D01*
G01*
X1598168Y520700D02*
G03*
X1598168Y520700I-3048J0D01*
G01*
X1467118Y561818D02*
G03*
X1467118Y561818I-3048J0D01*
G01*
X1446374Y562989D02*
G03*
X1446374Y562989I-3048J0D01*
G01*
X1533398Y492760D02*
G03*
X1533398Y492760I-3048J0D01*
G01*
X1492758Y567690D02*
G03*
X1492758Y567690I-3048J0D01*
G01*
X931418Y888365D02*
G03*
X931418Y888365I-3048J0D01*
G01*
X942848Y878720D02*
G03*
X942848Y878720I-3048J0D01*
G01*
X935228Y633090D02*
G03*
X935228Y633090I-3048J0D01*
G01*
Y685848D02*
G03*
X935228Y685848I-3048J0D01*
G01*
X809498Y946150D02*
G03*
X809498Y946150I-3048J0D01*
G01*
X730683Y590767D02*
G03*
X730683Y590767I-3048J0D01*
G01*
X825117Y712470D02*
G03*
X825117Y712470I-3048J0D01*
G01*
X894588Y458926D02*
G03*
X894588Y458926I-3048J0D01*
G01*
X924368Y468401D02*
G03*
X924368Y468401I-3048J0D01*
G01*
X958088Y554990D02*
G03*
X958088Y554990I-3048J0D01*
G01*
X860298Y690880D02*
G03*
X860298Y690880I-3048J0D01*
G01*
X843788Y712470D02*
G03*
X843788Y712470I-3048J0D01*
G01*
X824738Y783590D02*
G03*
X824738Y783590I-3048J0D01*
G01*
X1064768Y562610D02*
G03*
X1064768Y562610I-3048J0D01*
G01*
X1605788Y650730D02*
G03*
X1605788Y650730I-3048J0D01*
G01*
Y716085D02*
G03*
X1605788Y716085I-3048J0D01*
G01*
Y628945D02*
G03*
X1605788Y628945I-3048J0D01*
G01*
Y672515D02*
G03*
X1605788Y672515I-3048J0D01*
G01*
X1608328Y793800D02*
G03*
X1608328Y793800I-3048J0D01*
G01*
X1605788Y694300D02*
G03*
X1605788Y694300I-3048J0D01*
G01*
X772668Y844550D02*
G03*
X772668Y844550I-3048J0D01*
G01*
X826008Y623570D02*
G03*
X826008Y623570I-3048J0D01*
G01*
X819658Y519430D02*
G03*
X819658Y519430I-3048J0D01*
G01*
X1414018Y842010D02*
G03*
X1414018Y842010I-3048J0D01*
G01*
X1397508Y944880D02*
G03*
X1397508Y944880I-3048J0D01*
G01*
X1064768Y817880D02*
G03*
X1064768Y817880I-3048J0D01*
G01*
X1046988D02*
G03*
X1046988Y817880I-3048J0D01*
G01*
X1029208D02*
G03*
X1029208Y817880I-3048J0D01*
G01*
X1019048Y935990D02*
G03*
X1019048Y935990I-3048J0D01*
G01*
X1074928D02*
G03*
X1074928Y935990I-3048J0D01*
G01*
X1059688Y955040D02*
G03*
X1059688Y955040I-3048J0D01*
G01*
X1031748D02*
G03*
X1031748Y955040I-3048J0D01*
G01*
X824738Y845820D02*
G03*
X824738Y845820I-3048J0D01*
G01*
X686308Y836930D02*
G03*
X686308Y836930I-3048J0D01*
G01*
X752348Y803910D02*
G03*
X752348Y803910I-3048J0D01*
G01*
X798068Y839470D02*
G03*
X798068Y839470I-3048J0D01*
G01*
X817118Y927100D02*
G03*
X817118Y927100I-3048J0D01*
G01*
X749808Y593090D02*
G03*
X749808Y593090I-3048J0D01*
G01*
X869188Y461010D02*
G03*
X869188Y461010I-3048J0D01*
G01*
X851408D02*
G03*
X851408Y461010I-3048J0D01*
G01*
X1318768Y576580D02*
G03*
X1318768Y576580I-3048J0D01*
G01*
X817118Y477520D02*
G03*
X817118Y477520I-3048J0D01*
G01*
X784098Y500380D02*
G03*
X784098Y500380I-3048J0D01*
G01*
X662178Y645350D02*
G03*
X662178Y645350I-3048J0D01*
G01*
X663448Y745865D02*
G03*
X663448Y745865I-3048J0D01*
G01*
X1572768Y806450D02*
G03*
X1572768Y806450I-3048J0D01*
G01*
X1535938Y607060D02*
G03*
X1535938Y607060I-3048J0D01*
G01*
X1283208Y806450D02*
G03*
X1283208Y806450I-3048J0D01*
G01*
X699008Y768350D02*
G03*
X699008Y768350I-3048J0D01*
G01*
X655828D02*
G03*
X655828Y768350I-3048J0D01*
G01*
X626618Y701040D02*
G03*
X626618Y701040I-3048J0D01*
G01*
X1407668Y716280D02*
G03*
X1407668Y716280I-3048J0D01*
G01*
X1496568Y786130D02*
G03*
X1496568Y786130I-3048J0D01*
G01*
X1505458Y737870D02*
G03*
X1505458Y737870I-3048J0D01*
G01*
X1309878Y745490D02*
G03*
X1309878Y745490I-3048J0D01*
G01*
X1224788Y762000D02*
G03*
X1224788Y762000I-3048J0D01*
G01*
X1306068Y915670D02*
G03*
X1306068Y915670I-3048J0D01*
G01*
X1223518Y971550D02*
G03*
X1223518Y971550I-3048J0D01*
G01*
X1391158Y562610D02*
G03*
X1391158Y562610I-3048J0D01*
G01*
X1214628Y684530D02*
G03*
X1214628Y684530I-3048J0D01*
G01*
X1181608Y605790D02*
G03*
X1181608Y605790I-3048J0D01*
G01*
X1035558Y632460D02*
G03*
X1035558Y632460I-3048J0D01*
G01*
X1088898Y623570D02*
G03*
X1088898Y623570I-3048J0D01*
G01*
X1449578Y718820D02*
G03*
X1449578Y718820I-3048J0D01*
G01*
X1005078Y706120D02*
G03*
X1005078Y706120I-3048J0D01*
G01*
X767588Y635000D02*
G03*
X767588Y635000I-3048J0D01*
G01*
X712978Y713740D02*
G03*
X712978Y713740I-3048J0D01*
G01*
X734568Y702310D02*
G03*
X734568Y702310I-3048J0D01*
G01*
Y647700D02*
G03*
X734568Y647700I-3048J0D01*
G01*
X704088Y734060D02*
G03*
X704088Y734060I-3048J0D01*
G01*
X665988Y695960D02*
G03*
X665988Y695960I-3048J0D01*
G01*
X1088898Y650240D02*
G03*
X1088898Y650240I-3048J0D01*
G01*
X1022858Y666750D02*
G03*
X1022858Y666750I-3048J0D01*
G01*
X1215898Y590550D02*
G03*
X1215898Y590550I-3048J0D01*
G01*
X1166368Y670560D02*
G03*
X1166368Y670560I-3048J0D01*
G01*
X1114298Y521970D02*
G03*
X1114298Y521970I-3048J0D01*
G01*
X1407668Y618490D02*
G03*
X1407668Y618490I-3048J0D01*
G01*
X1581658Y608330D02*
G03*
X1581658Y608330I-3048J0D01*
G01*
X1161288Y873760D02*
G03*
X1161288Y873760I-3048J0D01*
G01*
X1274318Y916940D02*
G03*
X1274318Y916940I-3048J0D01*
G01*
X1396238Y897890D02*
G03*
X1396238Y897890I-3048J0D01*
G01*
X1435608Y916940D02*
G03*
X1435608Y916940I-3048J0D01*
G01*
X1120648Y681990D02*
G03*
X1120648Y681990I-3048J0D01*
G01*
Y593090D02*
G03*
X1120648Y593090I-3048J0D01*
G01*
M02*
