G04*
G04 #@! TF.GenerationSoftware,Altium Limited,Altium Designer,23.2.1 (34)*
G04*
G04 Layer_Color=128*
%FSLAX44Y44*%
%MOMM*%
G71*
G04*
G04 #@! TF.SameCoordinates,75154B13-1296-4508-9C84-23632F313CF3*
G04*
G04*
G04 #@! TF.FilePolarity,Positive*
G04*
G01*
G75*
%ADD12C,0.1270*%
D12*
X1236806Y637540D02*
X1247806D01*
X1242306Y632040D02*
Y643040D01*
X1236806Y662940D02*
X1247806D01*
X1242306Y657440D02*
Y668440D01*
X1236806Y713740D02*
X1247806D01*
X1242306Y708240D02*
Y719240D01*
X1236806Y688340D02*
X1247806D01*
X1242306Y682840D02*
Y693840D01*
X592985Y655300D02*
X598985D01*
X595985Y652300D02*
Y658300D01*
X592985Y741700D02*
X598985D01*
X595985Y738700D02*
Y744700D01*
X629535Y669600D02*
X636035D01*
X632785Y666350D02*
Y672850D01*
X629535Y727400D02*
X636035D01*
X632785Y724150D02*
Y730650D01*
X634785Y741700D02*
X640785D01*
X637785Y738700D02*
Y744700D01*
X634785Y655300D02*
X640785D01*
X637785Y652300D02*
Y658300D01*
X1511570Y682640D02*
X1513570D01*
X1512570Y681640D02*
Y683640D01*
X1511570Y696640D02*
X1513570D01*
X1512570Y695640D02*
Y697640D01*
X1518570Y675640D02*
X1520570D01*
X1519570Y674640D02*
Y676640D01*
X1518570Y689640D02*
X1520570D01*
X1519570Y688640D02*
Y690640D01*
X1518570Y703640D02*
X1520570D01*
X1519570Y702640D02*
Y704640D01*
X1525570Y682640D02*
X1527570D01*
X1526570Y681640D02*
Y683640D01*
X1525570Y696640D02*
X1527570D01*
X1526570Y695640D02*
Y697640D01*
X1532570Y675640D02*
X1534570D01*
X1533570Y674640D02*
Y676640D01*
X1532570Y689640D02*
X1534570D01*
X1533570Y688640D02*
Y690640D01*
X1532570Y703640D02*
X1534570D01*
X1533570Y702640D02*
Y704640D01*
X1539570Y682640D02*
X1541570D01*
X1540570Y681640D02*
Y683640D01*
X1539570Y696640D02*
X1541570D01*
X1540570Y695640D02*
Y697640D01*
X1134690Y975360D02*
X1143690D01*
X1139190Y970860D02*
Y979860D01*
X1109290Y975360D02*
X1118290D01*
X1113790Y970860D02*
Y979860D01*
X1538370Y874830D02*
X1548370D01*
X1543370Y869830D02*
Y879830D01*
X1538370Y849830D02*
X1548370D01*
X1543370Y844830D02*
Y854830D01*
X1284960Y506210D02*
X1294960D01*
X1289960Y501210D02*
Y511210D01*
X1284960Y441210D02*
X1294960D01*
X1289960Y436210D02*
Y446210D01*
X1239960Y506210D02*
X1249960D01*
X1244960Y501210D02*
Y511210D01*
X1239960Y441210D02*
X1249960D01*
X1244960Y436210D02*
Y446210D01*
X1371320Y504940D02*
X1381320D01*
X1376320Y499940D02*
Y509940D01*
X1371320Y439940D02*
X1381320D01*
X1376320Y434940D02*
Y444940D01*
X1326320Y504940D02*
X1336320D01*
X1331320Y499940D02*
Y509940D01*
X1326320Y439940D02*
X1336320D01*
X1331320Y434940D02*
Y444940D01*
X1584390Y966470D02*
X1608390D01*
X1596390Y954470D02*
Y978470D01*
X1584390Y425450D02*
X1608390D01*
X1596390Y413450D02*
Y437450D01*
X661100Y429260D02*
X685100D01*
X673100Y417260D02*
Y441260D01*
X657290Y966470D02*
X681290D01*
X669290Y954470D02*
Y978470D01*
X1410950Y416560D02*
X1421150D01*
X1416050Y411460D02*
Y421660D01*
X1436350Y416560D02*
X1446550D01*
X1441450Y411460D02*
Y421660D01*
X1461750Y416560D02*
X1471950D01*
X1466850Y411460D02*
Y421660D01*
X1487150Y416560D02*
X1497350D01*
X1492250Y411460D02*
Y421660D01*
X1512550Y416560D02*
X1522750D01*
X1517650Y411460D02*
Y421660D01*
X1537950Y416560D02*
X1548150D01*
X1543050Y411460D02*
Y421660D01*
X1151970Y415290D02*
X1161970D01*
X1156970Y410290D02*
Y420290D01*
X1177370Y415290D02*
X1187370D01*
X1182370Y410290D02*
Y420290D01*
X1202770Y415290D02*
X1212770D01*
X1207770Y410290D02*
Y420290D01*
X937140Y415290D02*
X947540D01*
X942340Y410090D02*
Y420490D01*
X911740Y415290D02*
X922140D01*
X916940Y410090D02*
Y420490D01*
X886340Y415290D02*
X896740D01*
X891540Y410090D02*
Y420490D01*
X860940Y415290D02*
X871340D01*
X866140Y410090D02*
Y420490D01*
X835540Y415290D02*
X845940D01*
X840740Y410090D02*
Y420490D01*
X810140Y415290D02*
X820540D01*
X815340Y410090D02*
Y420490D01*
X1535510Y977244D02*
X1545510D01*
X1540510Y972244D02*
Y982244D01*
X1510110Y977244D02*
X1520110D01*
X1515110Y972244D02*
Y982244D01*
X1484710Y977244D02*
X1494710D01*
X1489710Y972244D02*
Y982244D01*
X1367800Y640080D02*
X1378000D01*
X1372900Y634980D02*
Y645180D01*
X1342400Y640080D02*
X1352600D01*
X1347500Y634980D02*
Y645180D01*
X1367800Y665480D02*
X1378000D01*
X1372900Y660380D02*
Y670580D01*
X1342400Y665480D02*
X1352600D01*
X1347500Y660380D02*
Y670580D01*
X1367800Y690880D02*
X1378000D01*
X1372900Y685780D02*
Y695980D01*
X1342400Y690880D02*
X1352600D01*
X1347500Y685780D02*
Y695980D01*
X1367800Y716280D02*
X1378000D01*
X1372900Y711180D02*
Y721380D01*
X1342400Y716280D02*
X1352600D01*
X1347500Y711180D02*
Y721380D01*
X1259944Y852870D02*
X1266544D01*
X1263244Y849570D02*
Y856170D01*
X1234544Y878270D02*
X1241144D01*
X1237844Y874970D02*
Y881570D01*
X1209144Y852870D02*
X1215744D01*
X1212444Y849570D02*
Y856170D01*
X1453325Y879870D02*
X1459925D01*
X1456625Y876570D02*
Y883170D01*
X1427925Y854470D02*
X1434525D01*
X1431225Y851170D02*
Y857770D01*
X1453325Y829070D02*
X1459925D01*
X1456625Y825770D02*
Y832370D01*
X1286764Y702310D02*
X1293876D01*
X1290320Y698754D02*
Y705866D01*
X1530225Y458560D02*
X1537337D01*
X1533781Y455004D02*
Y462116D01*
X1600214Y560070D02*
X1607326D01*
X1603770Y556514D02*
Y563626D01*
X1470914Y476440D02*
X1478026D01*
X1474470Y472884D02*
Y479996D01*
X1591564Y520700D02*
X1598676D01*
X1595120Y517144D02*
Y524256D01*
X1460514Y561818D02*
X1467626D01*
X1464070Y558262D02*
Y565374D01*
X1439770Y562989D02*
X1446882D01*
X1443326Y559433D02*
Y566545D01*
X1526794Y492760D02*
X1533906D01*
X1530350Y489204D02*
Y496316D01*
X1486154Y567690D02*
X1493266D01*
X1489710Y564134D02*
Y571246D01*
X924814Y888365D02*
X931926D01*
X928370Y884809D02*
Y891921D01*
X936244Y878720D02*
X943356D01*
X939800Y875164D02*
Y882276D01*
X928624Y633090D02*
X935736D01*
X932180Y629534D02*
Y636646D01*
X928624Y685848D02*
X935736D01*
X932180Y682292D02*
Y689404D01*
X802894Y946150D02*
X810006D01*
X806450Y942594D02*
Y949706D01*
X724079Y590767D02*
X731191D01*
X727635Y587211D02*
Y594323D01*
X818513Y712470D02*
X825625D01*
X822069Y708914D02*
Y716026D01*
X887984Y458926D02*
X895096D01*
X891540Y455370D02*
Y462482D01*
X917764Y468401D02*
X924876D01*
X921320Y464845D02*
Y471957D01*
X951484Y554990D02*
X958596D01*
X955040Y551434D02*
Y558546D01*
X853694Y690880D02*
X860806D01*
X857250Y687324D02*
Y694436D01*
X837184Y712470D02*
X844296D01*
X840740Y708914D02*
Y716026D01*
X818134Y783590D02*
X825246D01*
X821690Y780034D02*
Y787146D01*
X1058164Y562610D02*
X1065276D01*
X1061720Y559054D02*
Y566166D01*
X1599184Y650730D02*
X1606296D01*
X1602740Y647174D02*
Y654286D01*
X1599184Y716085D02*
X1606296D01*
X1602740Y712529D02*
Y719641D01*
X1599184Y628945D02*
X1606296D01*
X1602740Y625389D02*
Y632501D01*
X1599184Y672515D02*
X1606296D01*
X1602740Y668959D02*
Y676071D01*
X1601724Y793800D02*
X1608836D01*
X1605280Y790244D02*
Y797356D01*
X1599184Y694300D02*
X1606296D01*
X1602740Y690744D02*
Y697856D01*
X766064Y844550D02*
X773176D01*
X769620Y840994D02*
Y848106D01*
X819404Y623570D02*
X826516D01*
X822960Y620014D02*
Y627126D01*
X813054Y519430D02*
X820166D01*
X816610Y515874D02*
Y522986D01*
X1407414Y842010D02*
X1414526D01*
X1410970Y838454D02*
Y845566D01*
X1390904Y944880D02*
X1398016D01*
X1394460Y941324D02*
Y948436D01*
X1058164Y817880D02*
X1065276D01*
X1061720Y814324D02*
Y821436D01*
X1040384Y817880D02*
X1047496D01*
X1043940Y814324D02*
Y821436D01*
X1022604Y817880D02*
X1029716D01*
X1026160Y814324D02*
Y821436D01*
X1012444Y935990D02*
X1019556D01*
X1016000Y932434D02*
Y939546D01*
X1068324Y935990D02*
X1075436D01*
X1071880Y932434D02*
Y939546D01*
X1053084Y955040D02*
X1060196D01*
X1056640Y951484D02*
Y958596D01*
X1025144Y955040D02*
X1032256D01*
X1028700Y951484D02*
Y958596D01*
X818134Y845820D02*
X825246D01*
X821690Y842264D02*
Y849376D01*
X679704Y836930D02*
X686816D01*
X683260Y833374D02*
Y840486D01*
X745744Y803910D02*
X752856D01*
X749300Y800354D02*
Y807466D01*
X791464Y839470D02*
X798576D01*
X795020Y835914D02*
Y843026D01*
X810514Y927100D02*
X817626D01*
X814070Y923544D02*
Y930656D01*
X743204Y593090D02*
X750316D01*
X746760Y589534D02*
Y596646D01*
X862584Y461010D02*
X869696D01*
X866140Y457454D02*
Y464566D01*
X844804Y461010D02*
X851916D01*
X848360Y457454D02*
Y464566D01*
X1312164Y576580D02*
X1319276D01*
X1315720Y573024D02*
Y580136D01*
X810514Y477520D02*
X817626D01*
X814070Y473964D02*
Y481076D01*
X777494Y500380D02*
X784606D01*
X781050Y496824D02*
Y503936D01*
X655574Y645350D02*
X662686D01*
X659130Y641794D02*
Y648906D01*
X656844Y745865D02*
X663956D01*
X660400Y742309D02*
Y749421D01*
X1566164Y806450D02*
X1573276D01*
X1569720Y802894D02*
Y810006D01*
X1529334Y607060D02*
X1536446D01*
X1532890Y603504D02*
Y610616D01*
X1276604Y806450D02*
X1283716D01*
X1280160Y802894D02*
Y810006D01*
X692404Y768350D02*
X699516D01*
X695960Y764794D02*
Y771906D01*
X649224Y768350D02*
X656336D01*
X652780Y764794D02*
Y771906D01*
X620014Y701040D02*
X627126D01*
X623570Y697484D02*
Y704596D01*
X1401064Y716280D02*
X1408176D01*
X1404620Y712724D02*
Y719836D01*
X1489964Y786130D02*
X1497076D01*
X1493520Y782574D02*
Y789686D01*
X1498854Y737870D02*
X1505966D01*
X1502410Y734314D02*
Y741426D01*
X1303274Y745490D02*
X1310386D01*
X1306830Y741934D02*
Y749046D01*
X1218184Y762000D02*
X1225296D01*
X1221740Y758444D02*
Y765556D01*
X1299464Y915670D02*
X1306576D01*
X1303020Y912114D02*
Y919226D01*
X1216914Y971550D02*
X1224026D01*
X1220470Y967994D02*
Y975106D01*
X1384554Y562610D02*
X1391666D01*
X1388110Y559054D02*
Y566166D01*
X1208024Y684530D02*
X1215136D01*
X1211580Y680974D02*
Y688086D01*
X1175004Y605790D02*
X1182116D01*
X1178560Y602234D02*
Y609346D01*
X1028954Y632460D02*
X1036066D01*
X1032510Y628904D02*
Y636016D01*
X1082294Y623570D02*
X1089406D01*
X1085850Y620014D02*
Y627126D01*
X1442974Y718820D02*
X1450086D01*
X1446530Y715264D02*
Y722376D01*
X998474Y706120D02*
X1005586D01*
X1002030Y702564D02*
Y709676D01*
X760984Y635000D02*
X768096D01*
X764540Y631444D02*
Y638556D01*
X706374Y713740D02*
X713486D01*
X709930Y710184D02*
Y717296D01*
X727964Y702310D02*
X735076D01*
X731520Y698754D02*
Y705866D01*
X727964Y647700D02*
X735076D01*
X731520Y644144D02*
Y651256D01*
X697484Y734060D02*
X704596D01*
X701040Y730504D02*
Y737616D01*
X659384Y695960D02*
X666496D01*
X662940Y692404D02*
Y699516D01*
X1082294Y650240D02*
X1089406D01*
X1085850Y646684D02*
Y653796D01*
X1016254Y666750D02*
X1023366D01*
X1019810Y663194D02*
Y670306D01*
X1209294Y590550D02*
X1216406D01*
X1212850Y586994D02*
Y594106D01*
X1159764Y670560D02*
X1166876D01*
X1163320Y667004D02*
Y674116D01*
X1107694Y521970D02*
X1114806D01*
X1111250Y518414D02*
Y525526D01*
X1401064Y618490D02*
X1408176D01*
X1404620Y614934D02*
Y622046D01*
X1575054Y608330D02*
X1582166D01*
X1578610Y604774D02*
Y611886D01*
X1154684Y873760D02*
X1161796D01*
X1158240Y870204D02*
Y877316D01*
X1267714Y916940D02*
X1274826D01*
X1271270Y913384D02*
Y920496D01*
X1389634Y897890D02*
X1396746D01*
X1393190Y894334D02*
Y901446D01*
X1429004Y916940D02*
X1436116D01*
X1432560Y913384D02*
Y920496D01*
X1114044Y681990D02*
X1121156D01*
X1117600Y678434D02*
Y685546D01*
X1114044Y593090D02*
X1121156D01*
X1117600Y589534D02*
Y596646D01*
M02*
