G04*
G04 #@! TF.GenerationSoftware,Altium Limited,Altium Designer,23.2.1 (34)*
G04*
G04 Layer_Color=8388736*
%FSLAX44Y44*%
%MOMM*%
G71*
G04*
G04 #@! TF.SameCoordinates,75154B13-1296-4508-9C84-23632F313CF3*
G04*
G04*
G04 #@! TF.FilePolarity,Positive*
G04*
G01*
G75*
%ADD10C,0.2000*%
D10*
X1402100Y430260D02*
X1557000D01*
Y402860D02*
Y430260D01*
X1402100Y402860D02*
X1557000D01*
X1402100D02*
Y430260D01*
X1144270Y427990D02*
X1220470D01*
Y402590D02*
Y427990D01*
X1144270Y402590D02*
X1220470D01*
X1144270D02*
Y427990D01*
X795860Y498680D02*
X837360D01*
Y540180D01*
X795860D02*
X837360D01*
X795860Y498680D02*
Y540180D01*
X1477010Y964544D02*
Y989944D01*
Y964544D02*
X1553210D01*
Y989944D01*
X1477010D02*
X1553210D01*
X1334400Y729615D02*
X1386000D01*
X1334400Y626745D02*
Y729615D01*
Y626745D02*
X1386000D01*
Y729615D01*
X1365700Y900060D02*
Y949060D01*
X1326700D02*
X1365700D01*
X1326700Y900060D02*
Y949060D01*
Y900060D02*
X1365700D01*
X1134730Y506970D02*
X1148730D01*
Y536970D01*
X1134730D02*
X1148730D01*
X1134730Y506970D02*
Y536970D01*
X954740Y640090D02*
X980740D01*
Y673090D01*
X954740D02*
X980740D01*
X954740Y640090D02*
Y673090D01*
X1163560Y573390D02*
Y587390D01*
Y573390D02*
X1193560D01*
Y587390D01*
X1163560D02*
X1193560D01*
X908200Y848220D02*
Y874220D01*
X862200D02*
X908200D01*
X862200Y848220D02*
Y874220D01*
Y848220D02*
X908200D01*
M02*
