<svg width="42.00000236mm" height="42.00000236mm" viewBox="0 0 16535434 16535434"  version="1.1" xmlns="http://www.w3.org/2000/svg" xmlns:xlink="http://www.w3.org/1999/xlink">
<desc>
Origin 0 0 Bound 50000 590551 16535434 16535434
</desc>
<g fill-rule="evenodd" fill="rgb(255, 255, 0)" stroke="black" stroke-width="1" transform="translate(0, 16535434) scale(1, -1) translate(-50000, -590551)">
<path id="N" d="M 4000002.41 10320592.00 L 4131191.00 10320592.00 L 4161324.71 10308109.29 L 4226919.00 10242515.00 L 4239400.00 10212382.00 L 4239400.00 10081191.00 L 4226919.00 10051058.00 L 4161324.00 9985464.00 L 4131191.00 9972982.00 L 4101059.00 9985464.00 L 4088577.00 10015596.00 L 4101059.00 10045729.00 L 4154172.00 10098842.81 L 4154172.00 10194731.19 L 4113539.81 10235364.00 L 4017651.19 10235364.00 L 3977018.00 10194730.19 L 3977018.00 10156846.14 L 4038115.00 10034654.00 L 4038818.44 10024759.67 L 4042614.00 10015596.00 L 4039930.53 10009117.27 L 4040428.00 10002120.00 L 4033928.30 9994626.03 L 4030133.00 9985463.00 L 4023653.13 9982779.06 L 4019058.00 9977481.00 L 4009163.67 9976777.56 L 4000000.00 9972982.00 L 3803213.00 9972982.00 L 3773080.00 9985463.00 L 3760599.00 10015596.00 L 3760599.00 10277978.00 L 3773080.00 10308111.00 L 3803213.00 10320592.00 L 3833346.00 10308111.00 L 3845827.00 10277978.00 L 3845827.00 10058210.00 L 3931048.76 10058210.00 L 3896289.00 10127729.00 L 3895585.56 10137623.33 L 3891790.00 10146787.00 L 3891790.00 10212382.00 L 3904271.00 10242515.00 L 3969867.00 10308111.00 L 3978693.21 10311766.79 L 4000002.41 10320592.00  z"/>
<path id="N" d="M 12008111.00 15826920.00 L 12020592.00 15796787.00 L 12008111.00 15766654.00 L 11977978.00 15754173.00 L 11758210.00 15754173.00 L 11758210.00 15668951.24 L 11827729.00 15703711.00 L 11837623.33 15704414.44 L 11846787.00 15708210.00 L 11912382.00 15708210.00 L 11942515.00 15695729.00 L 12008111.00 15630133.00 L 12020592.00 15599997.59 L 12020592.00 15468809.00 L 12008109.29 15438675.29 L 11942515.00 15373081.00 L 11912382.00 15360600.00 L 11781191.00 15360600.00 L 11751058.00 15373081.00 L 11685464.00 15438676.00 L 11672982.00 15468809.00 L 11685464.00 15498941.00 L 11715596.00 15511423.00 L 11745729.00 15498941.00 L 11798842.81 15445828.00 L 11894731.19 15445828.00 L 11935364.00 15486460.19 L 11935364.00 15582348.81 L 11894730.19 15622982.00 L 11856846.14 15622982.00 L 11734654.00 15561885.00 L 11724759.67 15561181.56 L 11715596.00 15557386.00 L 11709117.27 15560069.47 L 11702120.00 15559572.00 L 11694626.03 15566071.70 L 11685463.00 15569867.00 L 11682779.06 15576346.87 L 11677481.00 15580942.00 L 11676777.56 15590836.33 L 11672982.00 15600000.00 L 11672982.00 15796787.00 L 11685463.00 15826920.00 L 11715596.00 15839401.00 L 11977978.00 15839401.00 L 12008111.00 15826920.00  z"/>
<path id="N" d="M 14868811.41 6170592.00 L 14934404.00 6170592.00 L 14964537.00 6158111.00 L 15000000.00 6122647.46 L 15035462.00 6158111.00 L 15065595.00 6170592.00 L 15131191.00 6170592.00 L 15161324.71 6158109.29 L 15226919.00 6092515.00 L 15239400.00 6062382.00 L 15239400.00 5931191.00 L 15226919.00 5901058.00 L 15161324.00 5835463.00 L 15131191.00 5822982.00 L 15065595.00 5822982.00 L 15035462.00 5835463.00 L 14999999.54 5870926.00 L 14964537.00 5835463.00 L 14934404.00 5822982.00 L 14868809.00 5822982.00 L 14838675.29 5835464.71 L 14773080.00 5901058.00 L 14760599.00 5931191.00 L 14760599.00 6062382.00 L 14773080.00 6092515.00 L 14838676.00 6158111.00 L 14847502.21 6161766.79 L 14868811.41 6170592.00  zM 14916752.19 6085364.00 L 14886460.19 6085364.00 L 14845827.00 6044730.19 L 14845827.00 5948842.19 L 14886459.81 5908210.00 L 14916753.19 5908210.00 L 14957386.00 5948842.19 L 14957386.00 6044730.81 L 14916752.19 6085364.00  zM 15113539.81 6085364.00 L 15083246.19 6085364.00 L 15042614.00 6044731.19 L 15042614.00 5948842.19 L 15083246.81 5908210.00 L 15113539.81 5908210.00 L 15154172.00 5948842.81 L 15154172.00 6044731.19 L 15113539.81 6085364.00  z"/>
<path id="N" d="M 13292515.00 15126920.00 L 13358111.00 15061324.00 L 13370592.00 15031188.59 L 13370592.00 14965596.00 L 13358111.00 14935463.00 L 13322647.46 14900000.00 L 13358111.00 14864538.00 L 13370592.00 14834405.00 L 13370592.00 14768809.00 L 13358109.29 14738675.29 L 13292515.00 14673081.00 L 13262382.00 14660600.00 L 13131191.00 14660600.00 L 13101058.00 14673081.00 L 13035464.00 14738676.00 L 13022982.00 14768809.00 L 13035464.00 14798941.00 L 13065596.00 14811423.00 L 13095729.00 14798941.00 L 13148842.81 14745828.00 L 13244731.19 14745828.00 L 13285364.00 14786460.19 L 13285364.00 14816753.81 L 13244731.19 14857386.00 L 13196787.00 14857386.00 L 13166654.00 14869867.00 L 13154173.00 14900000.00 L 13166654.00 14930133.00 L 13196787.00 14942614.00 L 13244730.81 14942614.00 L 13285364.00 14983247.81 L 13285364.00 15013539.81 L 13244730.19 15054173.00 L 13148842.19 15054173.00 L 13095729.00 15001059.00 L 13065596.00 14988577.00 L 13035464.00 15001058.00 L 13022982.00 15031191.00 L 13035463.00 15061323.00 L 13101058.00 15126920.00 L 13131191.00 15139401.00 L 13262382.00 15139401.00 L 13292515.00 15126920.00  z"/>
<path id="N" d="M 4692515.00 5276920.00 L 4758111.00 5211324.00 L 4770592.00 5181188.59 L 4770592.00 5115596.00 L 4758111.00 5085463.00 L 4722647.46 5050000.00 L 4758111.00 5014538.00 L 4770592.00 4984405.00 L 4770592.00 4918809.00 L 4758109.29 4888675.29 L 4692515.00 4823081.00 L 4662382.00 4810600.00 L 4531191.00 4810600.00 L 4501058.00 4823081.00 L 4435463.00 4888676.00 L 4422982.00 4918809.00 L 4422982.00 4984405.00 L 4435463.00 5014538.00 L 4470926.00 5050000.46 L 4435463.00 5085463.00 L 4422982.00 5115596.00 L 4422982.00 5181191.00 L 4435464.71 5211324.71 L 4501058.00 5276920.00 L 4531191.00 5289401.00 L 4662382.00 5289401.00 L 4692515.00 5276920.00  zM 4644730.19 5204173.00 L 4548842.19 5204173.00 L 4508210.00 5163540.19 L 4508210.00 5133246.81 L 4548842.19 5092614.00 L 4644730.81 5092614.00 L 4685364.00 5133247.81 L 4685364.00 5163539.81 L 4644730.19 5204173.00  zM 4644731.19 5007386.00 L 4548842.19 5007386.00 L 4508210.00 4966753.19 L 4508210.00 4936460.19 L 4548842.81 4895828.00 L 4644731.19 4895828.00 L 4685364.00 4936460.19 L 4685364.00 4966753.81 L 4644731.19 5007386.00  z"/>
<path id="N" d="M 4261323.00 6214537.00 L 4326920.00 6148942.00 L 4339401.00 6118809.00 L 4339401.00 5987618.00 L 4326920.00 5957485.00 L 4261324.00 5891889.00 L 4231188.59 5879408.00 L 4165596.00 5879408.00 L 4135463.00 5891889.00 L 4100000.00 5927352.54 L 4064538.00 5891889.00 L 4034405.00 5879408.00 L 3968809.00 5879408.00 L 3938675.29 5891890.71 L 3873081.00 5957485.00 L 3860600.00 5987618.00 L 3860600.00 6118809.00 L 3873081.00 6148942.00 L 3938676.00 6214536.00 L 3968809.00 6227018.00 L 3998941.00 6214536.00 L 4011423.00 6184404.00 L 3998941.00 6154271.00 L 3945828.00 6101157.19 L 3945828.00 6005268.81 L 3986460.19 5964636.00 L 4016753.81 5964636.00 L 4057386.00 6005268.81 L 4057386.00 6053213.00 L 4069867.00 6083346.00 L 4100000.00 6095827.00 L 4130133.00 6083346.00 L 4142614.00 6053213.00 L 4142614.00 6005269.19 L 4183247.81 5964636.00 L 4213539.81 5964636.00 L 4254173.00 6005269.81 L 4254173.00 6101157.81 L 4201059.00 6154271.00 L 4188577.00 6184404.00 L 4201058.00 6214536.00 L 4231191.00 6227018.00 L 4261323.00 6214537.00  z"/>
<path id="N" d="M 11071558.00 1850548.00 L 11137155.00 1784953.00 L 11149636.00 1754820.00 L 11149636.00 1623629.00 L 11137155.00 1593496.00 L 11071559.00 1527900.00 L 11041423.59 1515419.00 L 10975831.00 1515419.00 L 10945698.00 1527900.00 L 10910235.00 1563363.54 L 10874773.00 1527900.00 L 10844640.00 1515419.00 L 10779044.00 1515419.00 L 10748910.29 1527901.71 L 10683316.00 1593496.00 L 10670835.00 1623629.00 L 10670835.00 1754820.00 L 10683316.00 1784953.00 L 10748911.00 1850547.00 L 10779044.00 1863029.00 L 10809176.00 1850547.00 L 10821658.00 1820415.00 L 10809176.00 1790282.00 L 10756063.00 1737168.19 L 10756063.00 1641279.81 L 10796695.19 1600647.00 L 10826988.81 1600647.00 L 10867621.00 1641279.81 L 10867621.00 1689224.00 L 10880102.00 1719357.00 L 10910235.00 1731838.00 L 10940368.00 1719357.00 L 10952849.00 1689224.00 L 10952849.00 1641280.19 L 10993482.81 1600647.00 L 11023774.81 1600647.00 L 11064408.00 1641280.81 L 11064408.00 1737168.81 L 11011294.00 1790282.00 L 10998812.00 1820415.00 L 11011293.00 1850547.00 L 11041426.00 1863029.00 L 11071558.00 1850548.00  z"/>
<path id="N" d="M 7624178.71 5192513.29 L 7689774.00 5126919.00 L 7702255.00 5096786.00 L 7689774.00 5066653.00 L 7659641.00 5054172.00 L 7629508.00 5066653.00 L 7576393.81 5119768.00 L 7480505.19 5119768.00 L 7439873.00 5079135.19 L 7439873.00 4852055.81 L 7480505.19 4811423.00 L 7576394.19 4811423.00 L 7617027.00 4852055.19 L 7617027.00 4922981.00 L 7528450.00 4922981.00 L 7498317.00 4935462.00 L 7485836.00 4965595.00 L 7498317.00 4995728.00 L 7528450.00 5008209.00 L 7659641.00 5008209.00 L 7689774.00 4995728.00 L 7702255.00 4965595.00 L 7702255.00 4834404.00 L 7689772.29 4804270.29 L 7624178.00 4738676.00 L 7594045.00 4726195.00 L 7462854.00 4726195.00 L 7432720.29 4738677.71 L 7367126.00 4804271.00 L 7354645.00 4834404.00 L 7354645.00 5096786.00 L 7367127.71 5126919.71 L 7432721.00 5192515.00 L 7462854.00 5204996.00 L 7594045.00 5204997.00 L 7624178.71 5192513.29  z"/>
<path id="N" d="M 10692515.71 5276918.29 L 10758111.00 5211324.00 L 10770592.00 5181191.00 L 10770592.00 4918809.00 L 10758109.29 4888675.29 L 10692515.00 4823081.00 L 10662382.00 4810600.00 L 10531191.00 4810600.00 L 10501057.29 4823082.71 L 10435463.00 4888676.00 L 10422982.00 4918809.00 L 10435463.00 4948942.00 L 10465596.00 4961423.00 L 10495729.00 4948942.00 L 10548842.19 4895828.00 L 10644731.19 4895828.00 L 10685364.00 4936460.19 L 10685364.00 5007386.00 L 10531191.00 5007386.00 L 10501057.29 5019868.71 L 10435463.00 5085463.00 L 10422982.00 5115596.00 L 10422982.00 5181191.00 L 10435464.71 5211324.71 L 10501058.00 5276920.00 L 10531191.00 5289401.00 L 10662382.00 5289402.00 L 10692515.71 5276918.29  zM 10644730.81 5204173.00 L 10548842.19 5204173.00 L 10508210.00 5163540.19 L 10508210.00 5133246.81 L 10548842.19 5092614.00 L 10685364.00 5092614.00 L 10685364.00 5163539.19 L 10644730.81 5204173.00  z"/>
<path id="N" d="M 15120773.71 11264535.29 L 15186369.00 11198942.00 L 15198850.00 11168809.00 L 15198851.00 11037618.00 L 15186367.29 11007484.29 L 15120773.00 10941889.00 L 15090640.00 10929408.00 L 14828258.00 10929408.00 L 14798124.29 10941890.71 L 14732530.00 11007485.00 L 14720049.00 11037618.00 L 14720049.00 11168809.00 L 14732531.71 11198942.71 L 14798125.00 11264537.00 L 14828258.00 11277018.00 L 14858391.00 11264537.00 L 14870872.00 11234404.00 L 14858391.00 11204271.00 L 14805277.00 11151157.81 L 14805277.00 11055268.81 L 14845909.19 11014636.00 L 14916835.00 11014636.00 L 14916835.00 11168809.00 L 14929317.71 11198942.71 L 14994912.00 11264537.00 L 15025045.00 11277018.00 L 15090640.00 11277018.00 L 15120773.71 11264535.29  zM 15072989.19 11191790.00 L 15042695.81 11191790.00 L 15002063.00 11151157.81 L 15002063.00 11014636.00 L 15072988.19 11014636.00 L 15113622.00 11055269.19 L 15113622.00 11151157.81 L 15072989.19 11191790.00  z"/>
<path id="N" d="M 2414977.00 11870643.00 L 2481622.00 11803998.00 L 2491133.00 11781037.00 L 2491133.00 11647747.00 L 2481622.00 11624786.00 L 2414977.00 11558141.00 L 2392016.00 11548630.00 L 2369055.00 11558141.00 L 2359544.00 11581102.00 L 2369055.00 11604063.00 L 2426189.00 11661197.00 L 2426189.00 11767587.00 L 2378566.00 11815210.00 L 2291198.00 11815210.00 L 2291198.00 11647747.00 L 2281687.00 11624786.00 L 2215042.00 11558141.00 L 2192081.00 11548630.00 L 2125435.00 11548630.00 L 2102474.00 11558141.00 L 2035829.00 11624786.00 L 2026318.00 11647747.00 L 2026318.00 11781037.00 L 2035829.00 11803998.00 L 2102474.00 11870643.00 L 2125435.00 11880154.00 L 2392016.00 11880154.00 L 2414977.00 11870643.00  zM 2226254.00 11815210.00 L 2138885.00 11815210.00 L 2091262.00 11767587.00 L 2091262.00 11661197.00 L 2138885.00 11613574.00 L 2178631.00 11613574.00 L 2226254.00 11661197.00 L 2226254.00 11815210.00  z"/>
<path id="N" d="M 11258111.00 10895729.00 L 11323707.00 10830133.00 L 11336188.00 10799997.59 L 11336188.00 10603214.00 L 11323707.00 10573081.00 L 11293574.00 10560600.00 L 11263441.00 10573081.00 L 11250960.00 10603214.00 L 11250960.00 10782348.81 L 11227977.96 10805330.50 L 11204997.00 10782349.19 L 11204997.00 10603214.00 L 11192516.00 10573081.00 L 11162383.00 10560600.00 L 11132250.00 10573081.00 L 11119769.00 10603214.00 L 11119769.00 10782348.81 L 11079135.19 10822982.00 L 11073806.00 10822982.00 L 11073806.00 10603214.00 L 11061325.00 10573081.00 L 11031192.00 10560600.00 L 11001059.00 10573081.00 L 10988578.00 10603214.00 L 10988578.00 10865596.00 L 11001059.00 10895729.00 L 11031192.00 10908210.00 L 11096787.00 10908210.00 L 11126920.00 10895729.00 L 11162383.00 10860265.46 L 11197845.00 10895729.00 L 11227978.00 10908210.00 L 11258111.00 10895729.00  z"/>
<path id="N" d="M 9730133.00 7114537.00 L 9861324.00 6983346.00 L 9864008.45 6976864.91 L 9869306.00 6972270.00 L 9934902.00 6841080.00 L 9937215.00 6808546.00 L 9915845.00 6783907.00 L 9883311.00 6781594.00 L 9858672.00 6802964.00 L 9796169.05 6927968.95 L 9742614.00 6981524.00 L 9742614.00 6887618.00 L 9730131.29 6857484.29 L 9664538.00 6791889.00 L 9634405.00 6779408.00 L 9568809.00 6779408.00 L 9538675.29 6791890.71 L 9473081.00 6857485.00 L 9460600.00 6887618.00 L 9460600.00 7018809.00 L 9473082.71 7048942.71 L 9538676.00 7114537.00 L 9568809.00 7127018.00 L 9700000.00 7127018.00 L 9730133.00 7114537.00  zM 9657386.00 7041790.00 L 9586460.81 7041790.00 L 9545828.00 7001157.81 L 9545828.00 6905268.81 L 9586460.19 6864636.00 L 9616753.81 6864636.00 L 9657386.00 6905268.81 L 9657386.00 7041790.00  z"/>
<path id="N" d="M 4211324.71 7883379.29 L 4276919.00 7817785.00 L 4289400.00 7787652.00 L 4289400.00 7656461.00 L 4276917.29 7626327.29 L 4211324.00 7560733.00 L 4181191.00 7548252.00 L 4050000.00 7548252.00 L 4019867.00 7560733.00 L 3888676.00 7691924.00 L 3885991.55 7698405.09 L 3880694.00 7703000.00 L 3815098.00 7834190.00 L 3812785.00 7866724.00 L 3834155.00 7891363.00 L 3866689.00 7893676.00 L 3891328.00 7872306.00 L 3953830.95 7747301.05 L 4007386.00 7693746.00 L 4007386.00 7787652.00 L 4019868.71 7817785.71 L 4085462.00 7883381.00 L 4115595.00 7895862.00 L 4181191.00 7895862.00 L 4211324.71 7883379.29  zM 4163539.81 7810634.00 L 4133246.19 7810634.00 L 4092614.00 7770001.19 L 4092614.00 7633480.00 L 4163539.19 7633480.00 L 4204172.00 7674112.19 L 4204172.00 7770001.19 L 4163539.81 7810634.00  z"/>
<path id="N" d="M 3814490.41 11333676.00 L 3945679.00 11333676.00 L 3975812.71 11321193.29 L 4041407.00 11255599.00 L 4042967.78 11251830.78 L 4112332.00 11321195.00 L 4142465.00 11333676.00 L 4172598.00 11321195.00 L 4185079.00 11291062.00 L 4172598.00 11260929.00 L 4053888.00 11142219.00 L 4053888.00 11071294.00 L 4142465.00 11071294.00 L 4172598.00 11058813.00 L 4185079.00 11028680.00 L 4172598.00 10998547.00 L 4142465.00 10986066.00 L 3748892.00 10986066.00 L 3718759.00 10998547.00 L 3706278.00 11028680.00 L 3706278.00 11225466.00 L 3718759.00 11255599.00 L 3784355.00 11321195.00 L 3793181.21 11324850.79 L 3814490.41 11333676.00  zM 3928027.81 11248448.00 L 3832139.19 11248448.00 L 3791506.00 11207814.19 L 3791506.00 11071294.00 L 3968660.00 11071294.00 L 3968660.00 11207815.19 L 3928027.81 11248448.00  z"/>
<path id="N" d="M 15186369.00 11658110.00 L 15198850.00 11627977.00 L 15198850.00 11431191.00 L 15186369.00 11401058.00 L 15120773.00 11335462.00 L 15090637.59 11322981.00 L 14959449.00 11322981.00 L 14929315.29 11335463.71 L 14863721.00 11401058.00 L 14862160.22 11404826.22 L 14792796.00 11335462.00 L 14762663.00 11322981.00 L 14732530.00 11335462.00 L 14720049.00 11365595.00 L 14732530.00 11395728.00 L 14851240.00 11514438.00 L 14851240.00 11585363.00 L 14762663.00 11585363.00 L 14732530.00 11597844.00 L 14720049.00 11627977.00 L 14732530.00 11658110.00 L 14762663.00 11670591.00 L 15156236.00 11670591.00 L 15186369.00 11658110.00  zM 15113622.00 11585363.00 L 14936468.00 11585363.00 L 14936468.00 11448841.81 L 14977100.19 11408209.00 L 15072988.81 11408209.00 L 15113622.00 11448842.81 L 15113622.00 11585363.00  z"/>
<path id="N" d="M 5648942.00 5726920.00 L 5714538.00 5661324.00 L 5727019.00 5631188.59 L 5727019.00 5500000.00 L 5714536.29 5469866.29 L 5648942.00 5404272.00 L 5645173.78 5402711.22 L 5714538.00 5333347.00 L 5727019.00 5303214.00 L 5714538.00 5273081.00 L 5684405.00 5260600.00 L 5654272.00 5273081.00 L 5535562.00 5391791.00 L 5464637.00 5391791.00 L 5464637.00 5303214.00 L 5452156.00 5273081.00 L 5422023.00 5260600.00 L 5391890.00 5273081.00 L 5379409.00 5303214.00 L 5379409.00 5696787.00 L 5391890.00 5726920.00 L 5422023.00 5739401.00 L 5618809.00 5739401.00 L 5648942.00 5726920.00  zM 5601157.19 5654173.00 L 5464637.00 5654173.00 L 5464637.00 5477019.00 L 5601158.19 5477019.00 L 5641791.00 5517651.19 L 5641791.00 5613539.81 L 5601157.19 5654173.00  z"/>
<path id="N" d="M 8083347.00 5061324.00 L 8095828.00 5031191.00 L 8095828.00 4703214.00 L 8083347.00 4673081.00 L 8017751.00 4607485.00 L 7987615.59 4595004.00 L 7922023.00 4595004.00 L 7891890.00 4607485.00 L 7879409.00 4637618.00 L 7891890.00 4667751.00 L 7922023.00 4680232.00 L 7969966.81 4680232.00 L 8010600.00 4720865.81 L 8010600.00 4726195.00 L 7856427.00 4726195.00 L 7826293.29 4738677.71 L 7760699.00 4804271.00 L 7748218.00 4834404.00 L 7748218.00 5031191.00 L 7760699.00 5061324.00 L 7790832.00 5073805.00 L 7820965.00 5061324.00 L 7833446.00 5031191.00 L 7833446.00 4852055.81 L 7874078.19 4811423.00 L 8010600.00 4811423.00 L 8010600.00 5031191.00 L 8023081.00 5061324.00 L 8053214.00 5073805.00 L 8083347.00 5061324.00  z"/>
<path id="N" d="M 4298942.00 5276920.00 L 4364538.00 5211324.00 L 4377019.00 5181188.59 L 4377019.00 5050000.00 L 4364536.29 5019866.29 L 4298942.00 4954272.00 L 4295173.78 4952711.22 L 4364538.00 4883347.00 L 4377019.00 4853214.00 L 4364538.00 4823081.00 L 4334405.00 4810600.00 L 4304272.00 4823081.00 L 4185562.00 4941791.00 L 4114637.00 4941791.00 L 4114637.00 4853214.00 L 4102156.00 4823081.00 L 4072023.00 4810600.00 L 4041890.00 4823081.00 L 4029409.00 4853214.00 L 4029409.00 5246787.00 L 4041890.00 5276920.00 L 4072023.00 5289401.00 L 4268809.00 5289401.00 L 4298942.00 5276920.00  zM 4251157.19 5204173.00 L 4114637.00 5204173.00 L 4114637.00 5027019.00 L 4251158.19 5027019.00 L 4291791.00 5067651.19 L 4291791.00 5163539.81 L 4251157.19 5204173.00  z"/>
<path id="N" d="M 4122836.00 12410242.00 L 4132321.00 12387341.00 L 4122836.00 12364441.00 L 3999031.00 12240636.93 L 3999031.00 12153147.00 L 4099935.00 12153147.00 L 4122835.00 12143661.00 L 4132321.00 12120761.00 L 4122835.00 12097861.00 L 4099935.00 12088375.00 L 3700064.00 12088375.00 L 3677164.00 12097861.00 L 3667678.00 12120761.00 L 3667678.00 12320696.00 L 3677164.00 12343596.00 L 3743808.00 12410241.00 L 3766709.00 12419727.00 L 3900000.00 12419727.00 L 3922900.00 12410241.00 L 3989545.00 12343597.00 L 3995650.48 12328856.87 L 4077035.00 12410242.00 L 4099935.00 12419727.00 L 4122836.00 12410242.00  zM 3886585.86 12354955.00 L 3780123.86 12354955.00 L 3732450.00 12307281.86 L 3732450.00 12153147.00 L 3934259.00 12153147.00 L 3934259.00 12307281.14 L 3886585.86 12354955.00  z"/>
<path id="N" d="M 11548942.00 15826920.00 L 11614538.00 15761324.00 L 11627019.00 15731188.59 L 11627019.00 15600000.00 L 11614536.29 15569866.29 L 11548942.00 15504272.00 L 11545173.78 15502711.22 L 11614538.00 15433347.00 L 11627019.00 15403214.00 L 11614538.00 15373081.00 L 11584405.00 15360600.00 L 11554272.00 15373081.00 L 11435562.00 15491791.00 L 11364637.00 15491791.00 L 11364637.00 15403214.00 L 11352156.00 15373081.00 L 11322023.00 15360600.00 L 11291890.00 15373081.00 L 11279409.00 15403214.00 L 11279409.00 15796787.00 L 11291890.00 15826920.00 L 11322023.00 15839401.00 L 11518809.00 15839401.00 L 11548942.00 15826920.00  zM 11501157.19 15754173.00 L 11364637.00 15754173.00 L 11364637.00 15577019.00 L 11501158.19 15577019.00 L 11541791.00 15617651.19 L 11541791.00 15713539.81 L 11501157.19 15754173.00  z"/>
<path id="N" d="M 9926920.00 7508110.00 L 9939401.00 7477977.00 L 9939401.00 7281191.00 L 9926920.00 7251058.00 L 9861324.00 7185462.00 L 9831188.59 7172981.00 L 9700000.00 7172981.00 L 9669866.29 7185463.71 L 9604272.00 7251058.00 L 9602711.22 7254826.22 L 9533347.00 7185462.00 L 9503214.00 7172981.00 L 9473081.00 7185462.00 L 9460600.00 7215595.00 L 9473081.00 7245728.00 L 9591791.00 7364438.00 L 9591791.00 7435363.00 L 9503214.00 7435363.00 L 9473081.00 7447844.00 L 9460600.00 7477977.00 L 9473081.00 7508110.00 L 9503214.00 7520591.00 L 9896787.00 7520591.00 L 9926920.00 7508110.00  zM 9854173.00 7435363.00 L 9677019.00 7435363.00 L 9677019.00 7298841.81 L 9717651.19 7258209.00 L 9813539.81 7258209.00 L 9854173.00 7298842.81 L 9854173.00 7435363.00  z"/>
<path id="N" d="M 15276919.00 10572098.00 L 15289400.00 10541965.00 L 15289400.00 10345179.00 L 15276919.00 10315046.00 L 15211323.00 10249450.00 L 15181187.59 10236969.00 L 15049999.00 10236969.00 L 15019865.29 10249451.71 L 14954271.00 10315046.00 L 14952710.22 10318814.22 L 14883346.00 10249450.00 L 14853213.00 10236969.00 L 14823080.00 10249450.00 L 14810599.00 10279583.00 L 14823080.00 10309716.00 L 14941790.00 10428426.00 L 14941790.00 10499351.00 L 14853213.00 10499351.00 L 14823080.00 10511832.00 L 14810599.00 10541965.00 L 14823080.00 10572098.00 L 14853213.00 10584579.00 L 15246786.00 10584579.00 L 15276919.00 10572098.00  zM 15204172.00 10499351.00 L 15027018.00 10499351.00 L 15027018.00 10362829.81 L 15067650.19 10322197.00 L 15163538.81 10322197.00 L 15204172.00 10362830.81 L 15204172.00 10499351.00  z"/>
<path id="N" d="M 10298942.00 16476920.00 L 10364538.00 16411324.00 L 10377019.00 16381188.59 L 10377019.00 16250000.00 L 10364536.29 16219866.29 L 10298942.00 16154272.00 L 10295173.78 16152711.22 L 10364538.00 16083347.00 L 10377019.00 16053214.00 L 10364538.00 16023081.00 L 10334405.00 16010600.00 L 10304272.00 16023081.00 L 10185562.00 16141791.00 L 10114637.00 16141791.00 L 10114637.00 16053214.00 L 10102156.00 16023081.00 L 10072023.00 16010600.00 L 10041890.00 16023081.00 L 10029409.00 16053214.00 L 10029409.00 16446787.00 L 10041890.00 16476920.00 L 10072023.00 16489401.00 L 10268809.00 16489401.00 L 10298942.00 16476920.00  zM 10251157.19 16404173.00 L 10114637.00 16404173.00 L 10114637.00 16227019.00 L 10251158.19 16227019.00 L 10291791.00 16267651.19 L 10291791.00 16363539.81 L 10251157.19 16404173.00  z"/>
<path id="N" d="M 12898942.00 15126920.00 L 12964538.00 15061324.00 L 12977019.00 15031188.59 L 12977019.00 14900000.00 L 12964536.29 14869866.29 L 12898942.00 14804272.00 L 12895173.78 14802711.22 L 12964538.00 14733347.00 L 12977019.00 14703214.00 L 12964538.00 14673081.00 L 12934405.00 14660600.00 L 12904272.00 14673081.00 L 12785562.00 14791791.00 L 12714637.00 14791791.00 L 12714637.00 14703214.00 L 12702156.00 14673081.00 L 12672023.00 14660600.00 L 12641890.00 14673081.00 L 12629409.00 14703214.00 L 12629409.00 15096787.00 L 12641890.00 15126920.00 L 12672023.00 15139401.00 L 12868809.00 15139401.00 L 12898942.00 15126920.00  zM 12851157.19 15054173.00 L 12714637.00 15054173.00 L 12714637.00 14877019.00 L 12851158.19 14877019.00 L 12891791.00 14917651.19 L 12891791.00 15013539.81 L 12851157.19 15054173.00  z"/>
<path id="N" d="M 11071559.71 2572096.29 L 11137155.00 2506503.00 L 11149636.00 2476370.00 L 11149637.00 2345179.00 L 11137153.29 2315045.29 L 11071559.00 2249450.00 L 11041426.00 2236969.00 L 11011293.00 2249450.00 L 10998812.00 2279583.00 L 11011293.00 2309716.00 L 11064408.00 2362830.19 L 11064408.00 2458718.81 L 11023775.19 2499351.00 L 10796695.81 2499351.00 L 10756063.00 2458718.81 L 10756063.00 2362829.81 L 10809177.00 2309715.00 L 10821658.00 2279583.00 L 10809176.00 2249450.00 L 10779044.00 2236969.00 L 10748911.00 2249451.00 L 10683316.00 2315046.00 L 10670835.00 2345179.00 L 10670835.00 2476370.00 L 10683317.71 2506503.71 L 10748911.00 2572098.00 L 10779044.00 2584579.00 L 11041426.00 2584579.00 L 11071559.71 2572096.29  z"/>
<path id="N" d="M 5611323.00 1850549.00 L 5676918.00 1784954.00 L 5689399.00 1754821.00 L 5689399.00 1623630.00 L 5676916.29 1593496.29 L 5611323.00 1527902.00 L 5581190.00 1515421.00 L 5318808.00 1515421.00 L 5288674.29 1527903.71 L 5223079.00 1593497.00 L 5210598.00 1623630.00 L 5210597.00 1754821.00 L 5223080.71 1784954.71 L 5288675.00 1850550.00 L 5318808.00 1863031.00 L 5348941.00 1850550.00 L 5361422.00 1820417.00 L 5348941.00 1790284.00 L 5295826.00 1737169.81 L 5295826.00 1641281.19 L 5336458.81 1600649.00 L 5563538.19 1600649.00 L 5604171.00 1641281.19 L 5604171.00 1737170.19 L 5551057.00 1790285.00 L 5538576.00 1820417.00 L 5551058.00 1850550.00 L 5581190.00 1863031.00 L 5611323.00 1850549.00  z"/>
<path id="N" d="M 15161324.00 5764537.00 L 15226919.00 5698942.00 L 15239400.00 5668809.00 L 15239400.00 5537618.00 L 15226917.29 5507484.29 L 15161324.00 5441890.00 L 15131191.00 5429409.00 L 14868809.00 5429409.00 L 14838675.29 5441891.71 L 14773080.00 5507485.00 L 14760599.00 5537618.00 L 14760598.00 5668809.00 L 14773081.71 5698942.71 L 14838676.00 5764538.00 L 14868809.00 5777019.00 L 14898942.00 5764538.00 L 14911423.00 5734405.00 L 14898942.00 5704272.00 L 14845827.00 5651157.81 L 14845827.00 5555269.19 L 14886459.81 5514637.00 L 15113539.19 5514637.00 L 15154172.00 5555269.19 L 15154172.00 5651158.19 L 15101058.00 5704273.00 L 15088577.00 5734405.00 L 15101059.00 5764538.00 L 15131191.00 5777019.00 L 15161324.00 5764537.00  z"/>
<path id="N" d="M 15321560.71 7656501.29 L 15387156.00 7590908.00 L 15399637.00 7560775.00 L 15399638.00 7429584.00 L 15387154.29 7399450.29 L 15321560.00 7333855.00 L 15291427.00 7321374.00 L 15261294.00 7333855.00 L 15248813.00 7363988.00 L 15261294.00 7394121.00 L 15314409.00 7447235.19 L 15314409.00 7543123.81 L 15273776.19 7583756.00 L 15046696.81 7583756.00 L 15006064.00 7543123.81 L 15006064.00 7447234.81 L 15059178.00 7394120.00 L 15071659.00 7363988.00 L 15059177.00 7333855.00 L 15029045.00 7321374.00 L 14998912.00 7333856.00 L 14933317.00 7399451.00 L 14920836.00 7429584.00 L 14920836.00 7560775.00 L 14933318.71 7590908.71 L 14998912.00 7656503.00 L 15029045.00 7668984.00 L 15291427.00 7668984.00 L 15321560.71 7656501.29  z"/>
<path id="N" d="M 4211324.00 7489807.00 L 4276919.00 7424212.00 L 4289400.00 7394079.00 L 4289400.00 7262888.00 L 4276917.29 7232754.29 L 4211324.00 7167160.00 L 4181191.00 7154679.00 L 3918809.00 7154679.00 L 3888675.29 7167161.71 L 3823080.00 7232755.00 L 3810599.00 7262888.00 L 3810598.00 7394079.00 L 3823081.71 7424212.71 L 3888676.00 7489808.00 L 3918809.00 7502289.00 L 3948942.00 7489808.00 L 3961423.00 7459675.00 L 3948942.00 7429542.00 L 3895827.00 7376427.81 L 3895827.00 7280539.19 L 3936459.81 7239907.00 L 4163539.19 7239907.00 L 4204172.00 7280539.19 L 4204172.00 7376428.19 L 4151058.00 7429543.00 L 4138577.00 7459675.00 L 4151059.00 7489808.00 L 4181191.00 7502289.00 L 4211324.00 7489807.00  z"/>
<path id="N" d="M 10298942.71 5276918.29 L 10364538.00 5211324.00 L 10377019.00 5181191.00 L 10364538.00 5151058.00 L 10334405.00 5138577.00 L 10304272.00 5151058.00 L 10251157.81 5204173.00 L 10155269.19 5204173.00 L 10114637.00 5163540.19 L 10114637.00 4936460.81 L 10155269.19 4895828.00 L 10251158.19 4895828.00 L 10304273.00 4948942.00 L 10334405.00 4961423.00 L 10364538.00 4948941.00 L 10377019.00 4918809.00 L 10364537.00 4888676.00 L 10298942.00 4823081.00 L 10268809.00 4810600.00 L 10137618.00 4810600.00 L 10107484.29 4823082.71 L 10041890.00 4888676.00 L 10029409.00 4918809.00 L 10029409.00 5181191.00 L 10041891.71 5211324.71 L 10107485.00 5276920.00 L 10137618.00 5289401.00 L 10268809.00 5289402.00 L 10298942.71 5276918.29  z"/>
<path id="N" d="M 4261324.71 6608108.29 L 4326920.00 6542515.00 L 4339401.00 6512382.00 L 4339402.00 6381191.00 L 4326918.29 6351057.29 L 4261324.00 6285462.00 L 4231191.00 6272981.00 L 4201058.00 6285462.00 L 4188577.00 6315595.00 L 4201058.00 6345728.00 L 4254173.00 6398842.19 L 4254173.00 6494730.81 L 4213540.19 6535363.00 L 3986460.81 6535363.00 L 3945828.00 6494730.81 L 3945828.00 6398841.81 L 3998942.00 6345727.00 L 4011423.00 6315595.00 L 3998941.00 6285462.00 L 3968809.00 6272981.00 L 3938676.00 6285463.00 L 3873081.00 6351058.00 L 3860600.00 6381191.00 L 3860600.00 6512382.00 L 3873082.71 6542515.71 L 3938676.00 6608110.00 L 3968809.00 6620591.00 L 4231191.00 6620591.00 L 4261324.71 6608108.29  z"/>
<path id="N" d="M 4161324.00 9914537.00 L 4226919.00 9848942.00 L 4239400.00 9818809.00 L 4239400.00 9687618.00 L 4226917.29 9657484.29 L 4161324.00 9591890.00 L 4131191.00 9579409.00 L 3868809.00 9579409.00 L 3838675.29 9591891.71 L 3773080.00 9657485.00 L 3760599.00 9687618.00 L 3760598.00 9818809.00 L 3773081.71 9848942.71 L 3838676.00 9914538.00 L 3868809.00 9927019.00 L 3898942.00 9914538.00 L 3911423.00 9884405.00 L 3898942.00 9854272.00 L 3845827.00 9801157.81 L 3845827.00 9705269.19 L 3886459.81 9664637.00 L 4113539.19 9664637.00 L 4154172.00 9705269.19 L 4154172.00 9801158.19 L 4101058.00 9854273.00 L 4088577.00 9884405.00 L 4101059.00 9914538.00 L 4131191.00 9927019.00 L 4161324.00 9914537.00  z"/>
<path id="N" d="M 4201088.00 8688120.00 L 4266683.00 8622525.00 L 4279164.00 8592392.00 L 4279164.00 8461201.00 L 4266681.29 8431067.29 L 4201088.00 8365473.00 L 4170955.00 8352992.00 L 3908573.00 8352992.00 L 3878439.29 8365474.71 L 3812844.00 8431068.00 L 3800363.00 8461201.00 L 3800362.00 8592392.00 L 3812845.71 8622525.71 L 3878440.00 8688121.00 L 3908573.00 8700602.00 L 3938706.00 8688121.00 L 3951187.00 8657988.00 L 3938706.00 8627855.00 L 3885591.00 8574740.81 L 3885591.00 8478852.19 L 3926223.81 8438220.00 L 4153303.19 8438220.00 L 4193936.00 8478852.19 L 4193936.00 8574741.19 L 4140822.00 8627856.00 L 4128341.00 8657988.00 L 4140823.00 8688121.00 L 4170955.00 8700602.00 L 4201088.00 8688120.00  z"/>
<path id="N" d="M 8528526.71 13026918.29 L 8594122.00 12961324.00 L 8606603.00 12931191.00 L 8594122.00 12901058.00 L 8563989.00 12888577.00 L 8533856.00 12901058.00 L 8480741.81 12954173.00 L 8384853.19 12954173.00 L 8344221.00 12913540.19 L 8344221.00 12686460.81 L 8384853.19 12645828.00 L 8480742.19 12645828.00 L 8533857.00 12698942.00 L 8563989.00 12711423.00 L 8594122.00 12698941.00 L 8606603.00 12668809.00 L 8594121.00 12638676.00 L 8528526.00 12573081.00 L 8498393.00 12560600.00 L 8367202.00 12560600.00 L 8337068.29 12573082.71 L 8271474.00 12638676.00 L 8258993.00 12668809.00 L 8258993.00 12931191.00 L 8271475.71 12961324.71 L 8337069.00 13026920.00 L 8367202.00 13039401.00 L 8498393.00 13039402.00 L 8528526.71 13026918.29  z"/>
<path id="N" d="M 9648942.71 6076918.29 L 9714538.00 6011324.00 L 9727019.00 5981191.00 L 9714538.00 5951058.00 L 9684405.00 5938577.00 L 9654272.00 5951058.00 L 9601157.81 6004173.00 L 9505269.19 6004173.00 L 9464637.00 5963540.19 L 9464637.00 5736460.81 L 9505269.19 5695828.00 L 9601158.19 5695828.00 L 9654273.00 5748942.00 L 9684405.00 5761423.00 L 9714538.00 5748941.00 L 9727019.00 5718809.00 L 9714537.00 5688676.00 L 9648942.00 5623081.00 L 9618809.00 5610600.00 L 9487618.00 5610600.00 L 9457484.29 5623082.71 L 9391890.00 5688676.00 L 9379409.00 5718809.00 L 9379409.00 5981191.00 L 9391891.71 6011324.71 L 9457485.00 6076920.00 L 9487618.00 6089401.00 L 9618809.00 6089402.00 L 9648942.71 6076918.29  z"/>
<path id="N" d="M 11478527.71 5976917.29 L 11544122.00 5911324.00 L 11556603.00 5881191.00 L 11556603.00 5618809.00 L 11544120.29 5588675.29 L 11478527.00 5523080.00 L 11448394.00 5510599.00 L 11317203.00 5510598.00 L 11287069.29 5523081.71 L 11221474.00 5588676.00 L 11208993.00 5618809.00 L 11221474.00 5648942.00 L 11251607.00 5661423.00 L 11281740.00 5648942.00 L 11334854.19 5595827.00 L 11430742.81 5595827.00 L 11471375.00 5636459.81 L 11471375.00 5863539.19 L 11430742.81 5904172.00 L 11334853.81 5904172.00 L 11281739.00 5851058.00 L 11251607.00 5838577.00 L 11221474.00 5851059.00 L 11208993.00 5881191.00 L 11221475.00 5911324.00 L 11287070.00 5976919.00 L 11317203.00 5989400.00 L 11448394.00 5989400.00 L 11478527.71 5976917.29  z"/>
<path id="N" d="M 15211323.71 9172096.29 L 15276919.00 9106503.00 L 15289400.00 9076370.00 L 15289401.00 8945179.00 L 15276917.29 8915045.29 L 15211323.00 8849450.00 L 15181190.00 8836969.00 L 15151057.00 8849450.00 L 15138576.00 8879583.00 L 15151057.00 8909716.00 L 15204172.00 8962830.19 L 15204172.00 9058718.81 L 15163539.19 9099351.00 L 14936459.81 9099351.00 L 14895827.00 9058718.81 L 14895827.00 8962829.81 L 14948941.00 8909715.00 L 14961422.00 8879583.00 L 14948940.00 8849450.00 L 14918808.00 8836969.00 L 14888675.00 8849451.00 L 14823080.00 8915046.00 L 14810599.00 8945179.00 L 14810599.00 9076370.00 L 14823081.71 9106503.71 L 14888675.00 9172098.00 L 14918808.00 9184579.00 L 15181190.00 9184579.00 L 15211323.71 9172096.29  z"/>
<path id="N" d="M 6089611.00 16322836.00 L 6156255.00 16256191.00 L 6165740.00 16233291.00 L 6156255.00 16210391.00 L 6133355.00 16200906.00 L 6110455.00 16210391.00 L 6053295.14 16267550.00 L 5946834.14 16267550.00 L 5899161.00 16219876.14 L 5899161.00 15980124.14 L 5946834.86 15932451.00 L 6053295.86 15932451.00 L 6110454.00 15989610.00 L 6133355.00 15999095.00 L 6156255.00 15989610.00 L 6165740.00 15966710.00 L 6156255.00 15943809.00 L 6089610.00 15877165.00 L 6066710.00 15867679.00 L 5933420.00 15867679.00 L 5910519.00 15877165.00 L 5843875.00 15943810.00 L 5834389.00 15966710.00 L 5834389.00 16233291.00 L 5843875.00 16256192.00 L 5910520.00 16322836.00 L 5933420.00 16332322.00 L 6066710.00 16332322.00 L 6089611.00 16322836.00  z"/>
<path id="N" d="M 8981527.00 15781104.00 L 9048171.00 15714459.00 L 9057656.00 15691559.00 L 9048171.00 15668659.00 L 9025271.00 15659174.00 L 9002371.00 15668659.00 L 8945211.14 15725818.00 L 8838750.14 15725818.00 L 8791077.00 15678144.14 L 8791077.00 15438392.14 L 8838750.86 15390719.00 L 8945211.86 15390719.00 L 9002370.00 15447878.00 L 9025271.00 15457363.00 L 9048171.00 15447878.00 L 9057656.00 15424978.00 L 9048171.00 15402077.00 L 8981526.00 15335433.00 L 8958626.00 15325947.00 L 8825336.00 15325947.00 L 8802435.00 15335433.00 L 8735791.00 15402078.00 L 8726305.00 15424978.00 L 8726305.00 15691559.00 L 8735791.00 15714460.00 L 8802436.00 15781104.00 L 8825336.00 15790590.00 L 8958626.00 15790590.00 L 8981527.00 15781104.00  z"/>
<path id="N" d="M 4266683.00 9081694.00 L 4279164.00 9051561.00 L 4279164.00 8789179.00 L 4266683.00 8759046.00 L 4236550.00 8746565.00 L 4206417.00 8759046.00 L 3956516.00 9008947.00 L 3926224.81 9008947.00 L 3885591.00 8968313.81 L 3885591.00 8872425.19 L 3938705.00 8819312.00 L 3951187.00 8789179.00 L 3938706.00 8759047.00 L 3908573.00 8746565.00 L 3878441.00 8759046.00 L 3812844.00 8824641.00 L 3800363.00 8854774.00 L 3800362.00 8985965.00 L 3812845.71 9016098.71 L 3878440.00 9081694.00 L 3908573.00 9094175.00 L 3974168.00 9094175.00 L 4004301.00 9081694.00 L 4193936.00 8892059.00 L 4193936.00 9051561.00 L 4206417.00 9081694.00 L 4236550.00 9094175.00 L 4266683.00 9081694.00  z"/>
<path id="N" d="M 11520493.00 10961324.00 L 11532974.00 10931191.00 L 11532974.00 10908210.00 L 11555956.00 10908210.00 L 11586089.00 10895729.00 L 11598570.00 10865596.00 L 11586089.00 10835463.00 L 11555956.00 10822982.00 L 11532974.00 10822982.00 L 11532974.00 10686460.19 L 11586088.00 10633347.00 L 11598570.00 10603214.00 L 11586089.00 10573082.00 L 11555956.00 10560600.00 L 11525824.00 10573081.00 L 11460227.00 10638676.00 L 11447746.00 10668809.00 L 11447746.00 10822982.00 L 11424765.00 10822982.00 L 11394632.00 10835463.00 L 11382151.00 10865596.00 L 11394632.00 10895729.00 L 11424765.00 10908210.00 L 11447746.00 10908210.00 L 11447746.00 10931191.00 L 11460227.00 10961324.00 L 11490360.00 10973805.00 L 11520493.00 10961324.00  z"/>
<path id="N" d="M 11150549.00 5976919.00 L 11163030.00 5946786.00 L 11150549.00 5916653.00 L 10900648.00 5666752.00 L 10900648.00 5636460.81 L 10941281.19 5595827.00 L 11037169.81 5595827.00 L 11090283.00 5648941.00 L 11120416.00 5661423.00 L 11150548.00 5648942.00 L 11163030.00 5618809.00 L 11150549.00 5588677.00 L 11084954.00 5523080.00 L 11054821.00 5510599.00 L 10923630.00 5510598.00 L 10893496.29 5523081.71 L 10827901.00 5588676.00 L 10815420.00 5618809.00 L 10815420.00 5684404.00 L 10827901.00 5714537.00 L 11017536.00 5904172.00 L 10858034.00 5904172.00 L 10827901.00 5916653.00 L 10815420.00 5946786.00 L 10827901.00 5976919.00 L 10858034.00 5989400.00 L 11120416.00 5989400.00 L 11150549.00 5976919.00  z"/>
<path id="N" d="M 5676918.00 2572100.00 L 5689399.00 2541967.00 L 5689399.00 2279585.00 L 5676918.00 2249452.00 L 5646785.00 2236971.00 L 5616652.00 2249452.00 L 5366751.00 2499353.00 L 5336459.81 2499353.00 L 5295826.00 2458719.81 L 5295826.00 2362831.19 L 5348940.00 2309718.00 L 5361422.00 2279585.00 L 5348941.00 2249453.00 L 5318808.00 2236971.00 L 5288676.00 2249452.00 L 5223079.00 2315047.00 L 5210598.00 2345180.00 L 5210597.00 2476371.00 L 5223080.71 2506504.71 L 5288675.00 2572100.00 L 5318808.00 2584581.00 L 5384403.00 2584581.00 L 5414536.00 2572100.00 L 5604171.00 2382465.00 L 5604171.00 2541967.00 L 5616652.00 2572100.00 L 5646785.00 2584581.00 L 5676918.00 2572100.00  z"/>
<path id="N" d="M 1418630.00 6232848.00 L 1428141.00 6209887.00 L 1428141.00 5943307.00 L 1418630.00 5920346.00 L 1395669.00 5910835.00 L 1372708.00 5920346.00 L 1115639.00 6177415.00 L 1075893.00 6177415.00 L 1028270.00 6129792.00 L 1028270.00 6023402.00 L 1085404.00 5966268.00 L 1094915.00 5943307.00 L 1085404.00 5920346.00 L 1062443.00 5910835.00 L 1039482.00 5920346.00 L 972837.00 5986991.00 L 963326.00 6009952.00 L 963326.00 6143242.00 L 972837.00 6166203.00 L 1039482.00 6232848.00 L 1062443.00 6242359.00 L 1129089.00 6242359.00 L 1152050.00 6232848.00 L 1363197.00 6021701.00 L 1363197.00 6209887.00 L 1372708.00 6232848.00 L 1395669.00 6242359.00 L 1418630.00 6232848.00  z"/>
<path id="N" d="M 4122835.00 12810112.00 L 4132321.00 12787212.00 L 4132321.00 12520632.00 L 4122835.00 12497732.00 L 4099935.00 12488246.00 L 4077035.00 12497732.00 L 3819941.00 12754826.00 L 3780123.14 12754826.00 L 3732450.00 12707152.14 L 3732450.00 12600691.14 L 3789609.00 12543533.00 L 3799094.00 12520632.00 L 3789609.00 12497732.00 L 3766709.00 12488247.00 L 3743808.00 12497732.00 L 3677164.00 12564377.00 L 3667678.00 12587277.00 L 3667678.00 12720567.00 L 3677164.00 12743468.00 L 3743809.00 12810112.00 L 3766709.00 12819598.00 L 3833355.00 12819598.00 L 3856255.00 12810112.00 L 4067549.00 12598818.00 L 4067549.00 12787212.00 L 4077035.00 12810112.00 L 4099935.00 12819598.00 L 4122835.00 12810112.00  z"/>
<path id="N" d="M 7322900.00 15430710.00 L 7332386.00 15407810.00 L 7332386.00 15341165.00 L 7322900.00 15318265.00 L 7199096.00 15194460.07 L 7199096.00 15007939.00 L 7189610.00 14985039.00 L 7166710.00 14975553.00 L 7143810.00 14985039.00 L 7134324.00 15007939.00 L 7134324.00 15194459.14 L 7010520.00 15318265.00 L 7001034.00 15341165.00 L 7001034.00 15407810.00 L 7010520.00 15430710.00 L 7033420.00 15440196.00 L 7056320.00 15430710.00 L 7065806.00 15407810.00 L 7065806.00 15354578.93 L 7166709.91 15253674.26 L 7267614.00 15354579.86 L 7267614.00 15407810.00 L 7277100.00 15430710.00 L 7300000.00 15440196.00 L 7322900.00 15430710.00  z"/>
<path id="N" d="M 15211323.71 9850546.29 L 15276919.00 9784953.00 L 15289400.00 9754820.00 L 15289400.00 9623629.00 L 15276919.00 9593496.00 L 15211323.00 9527900.00 L 15181187.59 9515419.00 L 14918808.00 9515419.00 L 14888674.29 9527901.71 L 14823080.00 9593496.00 L 14810599.00 9623629.00 L 14810599.00 9754820.00 L 14823080.00 9784953.00 L 14888675.00 9850548.00 L 14918808.00 9863029.00 L 15181190.00 9863029.00 L 15211323.71 9850546.29  zM 15163539.19 9777801.00 L 14936459.19 9777801.00 L 14895827.00 9737168.19 L 14895827.00 9641279.81 L 14936459.19 9600647.00 L 15163538.81 9600647.00 L 15204172.00 9641280.81 L 15204172.00 9737168.81 L 15163539.19 9777801.00  z"/>
<path id="N" d="M 15211323.71 8450546.29 L 15276919.00 8384953.00 L 15289400.00 8354820.00 L 15289400.00 8223629.00 L 15276919.00 8193496.00 L 15211323.00 8127900.00 L 15181187.59 8115419.00 L 14918808.00 8115419.00 L 14888674.29 8127901.71 L 14823080.00 8193496.00 L 14810599.00 8223629.00 L 14810599.00 8354820.00 L 14823080.00 8384953.00 L 14888675.00 8450548.00 L 14918808.00 8463029.00 L 15181190.00 8463029.00 L 15211323.71 8450546.29  zM 15163539.19 8377801.00 L 14936459.19 8377801.00 L 14895827.00 8337168.19 L 14895827.00 8241279.81 L 14936459.19 8200647.00 L 15163538.81 8200647.00 L 15204172.00 8241280.81 L 15204172.00 8337168.81 L 15163539.19 8377801.00  z"/>
<path id="N" d="M 1351985.00 12203869.00 L 1418630.00 12137224.00 L 1428141.00 12114263.00 L 1428141.00 11980973.00 L 1418630.00 11958012.00 L 1351985.00 11891367.00 L 1329024.00 11881856.00 L 1062443.00 11881856.00 L 1039482.00 11891367.00 L 972837.00 11958012.00 L 963326.00 11980973.00 L 963326.00 12114263.00 L 972837.00 12137224.00 L 1039482.00 12203869.00 L 1062443.00 12213380.00 L 1329024.00 12213380.00 L 1351985.00 12203869.00  zM 1315574.00 12148436.00 L 1075893.00 12148436.00 L 1028270.00 12100813.00 L 1028270.00 11994423.00 L 1075893.00 11946800.00 L 1315574.00 11946800.00 L 1363197.00 11994423.00 L 1363197.00 12100813.00 L 1315574.00 12148436.00  z"/>
<path id="N" d="M 8804897.71 5061322.29 L 8870493.00 4995728.00 L 8882974.00 4965595.00 L 8882974.00 4834404.00 L 8870491.29 4804270.29 L 8804897.00 4738676.00 L 8774764.00 4726195.00 L 8643573.00 4726195.00 L 8613439.29 4738677.71 L 8547845.00 4804271.00 L 8535364.00 4834404.00 L 8535364.00 4965595.00 L 8547846.71 4995728.71 L 8613440.00 5061324.00 L 8643573.00 5073805.00 L 8774764.00 5073806.00 L 8804897.71 5061322.29  zM 8757112.81 4988577.00 L 8661224.19 4988577.00 L 8620592.00 4947944.19 L 8620592.00 4852055.81 L 8661224.19 4811423.00 L 8757113.19 4811423.00 L 8797746.00 4852055.19 L 8797746.00 4947943.19 L 8757112.81 4988577.00  z"/>
<path id="N" d="M 10011797.00 11026920.00 L 10142988.00 10895729.00 L 10155469.00 10865596.00 L 10155469.00 10603214.00 L 10142988.00 10573081.00 L 10112855.00 10560600.00 L 10082722.00 10573081.00 L 10070241.00 10603214.00 L 10070241.00 10757386.00 L 9893087.00 10757386.00 L 9893087.00 10603214.00 L 9880606.00 10573081.00 L 9850473.00 10560600.00 L 9820340.00 10573081.00 L 9807859.00 10603214.00 L 9807859.00 10865596.00 L 9820340.00 10895729.00 L 9951531.00 11026920.00 L 9981664.00 11039401.00 L 10011797.00 11026920.00  zM 9981664.00 10936521.00 L 9893087.00 10847944.00 L 9893087.00 10842614.00 L 10070241.00 10842614.00 L 10070241.00 10847944.00 L 9981664.00 10936521.00  z"/>
<path id="N" d="M 11872099.00 5976919.00 L 11884580.00 5946786.00 L 11872099.00 5916653.00 L 11841966.00 5904172.00 L 11818985.00 5904172.00 L 11818985.00 5595827.00 L 11841966.00 5595827.00 L 11872099.00 5583346.00 L 11884580.00 5553213.00 L 11872099.00 5523080.00 L 11841966.00 5510599.00 L 11710775.00 5510599.00 L 11680642.00 5523080.00 L 11668161.00 5553213.00 L 11680642.00 5583346.00 L 11710775.00 5595827.00 L 11733757.00 5595827.00 L 11733757.00 5904172.00 L 11710775.00 5904172.00 L 11680642.00 5916653.00 L 11668161.00 5946786.00 L 11680642.00 5976919.00 L 11710775.00 5989400.00 L 11841966.00 5989400.00 L 11872099.00 5976919.00  z"/>
<path id="N" d="M 8134954.00 13026920.00 L 8147435.00 12996787.00 L 8134954.00 12966654.00 L 8104821.00 12954173.00 L 8081839.00 12954173.00 L 8081839.00 12645828.00 L 8104821.00 12645828.00 L 8134954.00 12633347.00 L 8147435.00 12603214.00 L 8134954.00 12573081.00 L 8104821.00 12560600.00 L 7973630.00 12560600.00 L 7943497.00 12573081.00 L 7931016.00 12603214.00 L 7943497.00 12633347.00 L 7973630.00 12645828.00 L 7996611.00 12645828.00 L 7996611.00 12954173.00 L 7973630.00 12954173.00 L 7943497.00 12966654.00 L 7931016.00 12996787.00 L 7943497.00 13026920.00 L 7973630.00 13039401.00 L 8104821.00 13039401.00 L 8134954.00 13026920.00  z"/>
<path id="N" d="M 10692515.00 16476920.00 L 10704996.00 16446787.00 L 10704996.00 16292614.00 L 10727978.00 16292614.00 L 10758111.00 16280133.00 L 10770592.00 16250000.00 L 10758111.00 16219867.00 L 10727978.00 16207386.00 L 10704996.00 16207386.00 L 10704996.00 16053214.00 L 10692515.00 16023081.00 L 10662382.00 16010600.00 L 10632249.00 16023081.00 L 10619768.00 16053214.00 L 10619768.00 16207386.00 L 10465596.00 16207386.00 L 10435463.00 16219867.00 L 10422982.00 16250000.00 L 10435463.00 16280133.00 L 10632249.00 16476920.00 L 10662382.00 16489401.00 L 10692515.00 16476920.00  zM 10619768.00 16343907.00 L 10568475.00 16292614.00 L 10619768.00 16292614.00 L 10619768.00 16343907.00  z"/>
<path id="N" d="M 6489481.00 16322836.00 L 6498967.00 16299936.00 L 6498967.00 16132386.00 L 6533226.00 16132386.00 L 6556126.00 16122900.00 L 6565612.00 16100000.00 L 6556126.00 16077100.00 L 6533226.00 16067614.00 L 6498967.00 16067614.00 L 6498967.00 15900065.00 L 6489481.00 15877165.00 L 6466581.00 15867679.00 L 6443681.00 15877165.00 L 6434195.00 15900065.00 L 6434195.00 16067614.00 L 6266646.00 16067614.00 L 6243746.00 16077100.00 L 6234260.00 16100000.00 L 6243746.00 16122901.00 L 6443681.00 16322836.00 L 6466581.00 16332322.00 L 6489481.00 16322836.00  zM 6434195.00 16221749.45 L 6344832.45 16132386.00 L 6434195.00 16132386.00 L 6434195.00 16221749.45  z"/>
<path id="N" d="M 1806255.00 12422836.00 L 1872900.00 12356192.00 L 1882386.00 12333291.00 L 1882386.00 12200000.00 L 1872900.00 12177100.00 L 1806256.00 12110455.00 L 1783355.00 12100969.00 L 1615806.00 12100969.00 L 1615806.00 12000065.00 L 1606320.00 11977165.00 L 1583420.00 11967679.00 L 1560520.00 11977165.00 L 1551034.00 12000065.00 L 1551034.00 12399936.00 L 1560520.00 12422836.00 L 1583420.00 12432322.00 L 1783355.00 12432322.00 L 1806255.00 12422836.00  zM 1769940.86 12367550.00 L 1615806.00 12367550.00 L 1615806.00 12165741.00 L 1769940.14 12165741.00 L 1817614.00 12213414.14 L 1817614.00 12319876.14 L 1769940.86 12367550.00  z"/>
<path id="N" d="M 2481622.00 6217668.00 L 2491133.00 6194707.00 L 2491133.00 6061417.00 L 2481622.00 6038456.00 L 2458661.00 6028945.00 L 2435700.00 6038456.00 L 2426189.00 6061417.00 L 2426189.00 6095590.00 L 2137184.00 6095590.00 L 2148396.00 6084378.00 L 2157907.00 6061417.00 L 2148396.00 6038456.00 L 2125435.00 6028945.00 L 2102474.00 6038456.00 L 2035829.00 6105101.00 L 2026318.00 6128062.00 L 2035829.00 6151023.00 L 2058790.00 6160534.00 L 2426189.00 6160534.00 L 2426189.00 6194707.00 L 2435700.00 6217668.00 L 2458661.00 6227179.00 L 2481622.00 6217668.00  z"/>
<path id="N" d="M 1418630.00 11737353.00 L 1428141.00 11714392.00 L 1428141.00 11581102.00 L 1418630.00 11558141.00 L 1395669.00 11548630.00 L 1372708.00 11558141.00 L 1363197.00 11581102.00 L 1363197.00 11615275.00 L 1074192.00 11615275.00 L 1085404.00 11604063.00 L 1094915.00 11581102.00 L 1085404.00 11558141.00 L 1062443.00 11548630.00 L 1039482.00 11558141.00 L 972837.00 11624786.00 L 963326.00 11647747.00 L 972837.00 11670708.00 L 995798.00 11680219.00 L 1363197.00 11680219.00 L 1363197.00 11714392.00 L 1372708.00 11737353.00 L 1395669.00 11746864.00 L 1418630.00 11737353.00  z"/>
<path id="N" d="M 2072836.00 12422836.00 L 2082322.00 12399936.00 L 2082322.00 12032451.00 L 2116581.00 12032451.00 L 2139481.00 12022965.00 L 2148967.00 12000065.00 L 2139481.00 11977165.00 L 2116581.00 11967679.00 L 1983291.00 11967679.00 L 1960391.00 11977165.00 L 1950905.00 12000065.00 L 1960391.00 12022965.00 L 1983291.00 12032451.00 L 2017550.00 12032451.00 L 2017550.00 12321749.17 L 2006192.00 12310391.00 L 1983291.00 12300906.00 L 1960391.00 12310391.00 L 1950906.00 12333291.00 L 1960391.00 12356192.00 L 2027036.00 12422836.00 L 2049936.00 12432322.00 L 2072836.00 12422836.00  z"/>
<path id="N" d="M 5222900.00 16222836.00 L 5232386.00 16199936.00 L 5232386.00 15866710.00 L 5222900.00 15843809.00 L 5156255.00 15777165.00 L 5133355.00 15767679.00 L 5000065.00 15767679.00 L 4977164.00 15777165.00 L 4910520.00 15843810.00 L 4901034.00 15866710.00 L 4901034.00 16199936.00 L 4910520.00 16222836.00 L 4933420.00 16232322.00 L 4956320.00 16222836.00 L 4965806.00 16199936.00 L 4965806.00 15880124.14 L 5013479.86 15832451.00 L 5119940.86 15832451.00 L 5167614.00 15880124.86 L 5167614.00 16199936.00 L 5177100.00 16222836.00 L 5200000.00 16232322.00 L 5222900.00 16222836.00  z"/>
<path id="N" d="M 10930134.00 10895729.00 L 10942615.00 10865596.00 L 10930134.00 10835463.00 L 10900001.00 10822982.00 L 10720865.19 10822982.00 L 10680233.00 10782349.19 L 10680233.00 10686460.81 L 10720865.19 10645828.00 L 10900001.00 10645828.00 L 10930134.00 10633347.00 L 10942615.00 10603214.00 L 10930134.00 10573081.00 L 10900001.00 10560600.00 L 10703214.00 10560600.00 L 10673080.29 10573082.71 L 10607486.00 10638676.00 L 10595005.00 10668809.00 L 10595005.00 10800000.00 L 10607487.71 10830133.71 L 10673081.00 10895729.00 L 10703214.00 10908210.00 L 10900001.00 10908210.00 L 10930134.00 10895729.00  z"/>
<path id="N" d="M 7522836.00 15430710.00 L 7532322.00 15407810.00 L 7532322.00 15040325.00 L 7566581.00 15040325.00 L 7589481.00 15030839.00 L 7598967.00 15007939.00 L 7589481.00 14985039.00 L 7566581.00 14975553.00 L 7433291.00 14975553.00 L 7410391.00 14985039.00 L 7400905.00 15007939.00 L 7410391.00 15030839.00 L 7433291.00 15040325.00 L 7467550.00 15040325.00 L 7467550.00 15329623.17 L 7456192.00 15318265.00 L 7433291.00 15308780.00 L 7410391.00 15318265.00 L 7400906.00 15341165.00 L 7410391.00 15364066.00 L 7477036.00 15430710.00 L 7499936.00 15440196.00 L 7522836.00 15430710.00  z"/>
<path id="N" d="M 9248107.00 15781104.00 L 9257593.00 15758204.00 L 9257593.00 15390719.00 L 9291852.00 15390719.00 L 9314752.00 15381233.00 L 9324238.00 15358333.00 L 9314752.00 15335433.00 L 9291852.00 15325947.00 L 9158562.00 15325947.00 L 9135662.00 15335433.00 L 9126176.00 15358333.00 L 9135662.00 15381233.00 L 9158562.00 15390719.00 L 9192821.00 15390719.00 L 9192821.00 15680017.17 L 9181463.00 15668659.00 L 9158562.00 15659174.00 L 9135662.00 15668659.00 L 9126177.00 15691559.00 L 9135662.00 15714460.00 L 9202307.00 15781104.00 L 9225207.00 15790590.00 L 9248107.00 15781104.00  z"/>
<path id="N" d="M 5422836.00 16222836.00 L 5432322.00 16199936.00 L 5432322.00 15832451.00 L 5466581.00 15832451.00 L 5489481.00 15822965.00 L 5498967.00 15800065.00 L 5489481.00 15777165.00 L 5466581.00 15767679.00 L 5333291.00 15767679.00 L 5310391.00 15777165.00 L 5300905.00 15800065.00 L 5310391.00 15822965.00 L 5333291.00 15832451.00 L 5367550.00 15832451.00 L 5367550.00 16121749.17 L 5356192.00 16110391.00 L 5333291.00 16100906.00 L 5310391.00 16110391.00 L 5300906.00 16133291.00 L 5310391.00 16156192.00 L 5377036.00 16222836.00 L 5399936.00 16232322.00 L 5422836.00 16222836.00  z"/>
<path id="N" d="M 10536561.00 10895729.00 L 10549042.00 10865596.00 L 10536561.00 10835463.00 L 10506428.00 10822982.00 L 10327292.19 10822982.00 L 10286660.00 10782349.19 L 10286660.00 10686460.81 L 10327292.19 10645828.00 L 10506428.00 10645828.00 L 10536561.00 10633347.00 L 10549042.00 10603214.00 L 10536561.00 10573081.00 L 10506428.00 10560600.00 L 10309641.00 10560600.00 L 10279507.29 10573082.71 L 10213913.00 10638676.00 L 10201432.00 10668809.00 L 10201432.00 10800000.00 L 10213914.71 10830133.71 L 10279508.00 10895729.00 L 10309641.00 10908210.00 L 10506428.00 10908210.00 L 10536561.00 10895729.00  z"/>
<path id="N" d="M 9067279.00 5192515.00 L 9079760.00 5162382.00 L 9079760.00 4811423.00 L 9102742.00 4811423.00 L 9132875.00 4798942.00 L 9145356.00 4768809.00 L 9132875.00 4738676.00 L 9102742.00 4726195.00 L 8971551.00 4726195.00 L 8941418.00 4738676.00 L 8928937.00 4768809.00 L 8941418.00 4798942.00 L 8971551.00 4811423.00 L 8994532.00 4811423.00 L 8994532.00 5063691.43 L 8971551.00 5054172.00 L 8941419.00 5066653.00 L 8928937.00 5096786.00 L 8941418.00 5126918.00 L 9007013.00 5192515.00 L 9037146.00 5204996.00 L 9067279.00 5192515.00  z"/>
<path id="N" d="M 15211322.00 10178525.00 L 15276919.00 10112930.00 L 15289400.00 10082797.00 L 15276919.00 10052664.00 L 15246786.00 10040183.00 L 14895827.00 10040183.00 L 14895827.00 10017201.00 L 14883346.00 9987068.00 L 14853213.00 9974587.00 L 14823080.00 9987068.00 L 14810599.00 10017201.00 L 14810599.00 10148392.00 L 14823080.00 10178525.00 L 14853213.00 10191006.00 L 14883346.00 10178525.00 L 14895827.00 10148392.00 L 14895827.00 10125411.00 L 15148095.43 10125411.00 L 15138576.00 10148392.00 L 15151057.00 10178524.00 L 15181190.00 10191006.00 L 15211322.00 10178525.00  z"/>
<path id="N" d="M 4172598.00 11583577.00 L 4185079.00 11553444.00 L 4185079.00 11422253.00 L 4172598.00 11392120.00 L 4142465.00 11379639.00 L 4112332.00 11392120.00 L 4099851.00 11422253.00 L 4099851.00 11445234.00 L 3847582.57 11445234.00 L 3857102.00 11422253.00 L 3844621.00 11392121.00 L 3814488.00 11379639.00 L 3784356.00 11392120.00 L 3718759.00 11457715.00 L 3706278.00 11487848.00 L 3718759.00 11517981.00 L 3748892.00 11530462.00 L 4099851.00 11530462.00 L 4099851.00 11553444.00 L 4112332.00 11583577.00 L 4142465.00 11596058.00 L 4172598.00 11583577.00  z"/>
<path id="N" d="M 15211322.00 8778525.00 L 15276919.00 8712930.00 L 15289400.00 8682797.00 L 15276919.00 8652664.00 L 15246786.00 8640183.00 L 14895827.00 8640183.00 L 14895827.00 8617201.00 L 14883346.00 8587068.00 L 14853213.00 8574587.00 L 14823080.00 8587068.00 L 14810599.00 8617201.00 L 14810599.00 8748392.00 L 14823080.00 8778525.00 L 14853213.00 8791006.00 L 14883346.00 8778525.00 L 14895827.00 8748392.00 L 14895827.00 8725411.00 L 15148095.43 8725411.00 L 15138576.00 8748392.00 L 15151057.00 8778524.00 L 15181190.00 8791006.00 L 15211322.00 8778525.00  z"/>
<path id="N" d="M 5676918.00 2112932.00 L 5689399.00 2082799.00 L 5689399.00 1951608.00 L 5676918.00 1921475.00 L 5646785.00 1908994.00 L 5616652.00 1921475.00 L 5604171.00 1951608.00 L 5604171.00 1974589.00 L 5351902.57 1974589.00 L 5361422.00 1951608.00 L 5348941.00 1921476.00 L 5318808.00 1908994.00 L 5288676.00 1921475.00 L 5223079.00 1987070.00 L 5210598.00 2017203.00 L 5223079.00 2047336.00 L 5253212.00 2059817.00 L 5604171.00 2059817.00 L 5604171.00 2082799.00 L 5616652.00 2112932.00 L 5646785.00 2125413.00 L 5676918.00 2112932.00  z"/>
<path id="N" d="M 11071558.00 2178525.00 L 11137155.00 2112930.00 L 11149636.00 2082797.00 L 11137155.00 2052664.00 L 11107022.00 2040183.00 L 10756063.00 2040183.00 L 10756063.00 2017201.00 L 10743582.00 1987068.00 L 10713449.00 1974587.00 L 10683316.00 1987068.00 L 10670835.00 2017201.00 L 10670835.00 2148392.00 L 10683316.00 2178525.00 L 10713449.00 2191006.00 L 10743582.00 2178525.00 L 10756063.00 2148392.00 L 10756063.00 2125411.00 L 11008331.43 2125411.00 L 10998812.00 2148392.00 L 11011293.00 2178524.00 L 11041426.00 2191006.00 L 11071558.00 2178525.00  z"/>
<path id="N" d="M 8790908.00 13026920.00 L 8803389.00 12996787.00 L 8803389.00 12645828.00 L 8826371.00 12645828.00 L 8856504.00 12633347.00 L 8868985.00 12603214.00 L 8856504.00 12573081.00 L 8826371.00 12560600.00 L 8695180.00 12560600.00 L 8665047.00 12573081.00 L 8652566.00 12603214.00 L 8665047.00 12633347.00 L 8695180.00 12645828.00 L 8718161.00 12645828.00 L 8718161.00 12898096.43 L 8695180.00 12888577.00 L 8665048.00 12901058.00 L 8652566.00 12931191.00 L 8665047.00 12961323.00 L 8730642.00 13026920.00 L 8760775.00 13039401.00 L 8790908.00 13026920.00  z"/>
<path id="N" d="M 15321559.00 6934953.00 L 15387156.00 6869358.00 L 15399637.00 6839225.00 L 15387156.00 6809092.00 L 15357023.00 6796611.00 L 15006064.00 6796611.00 L 15006064.00 6773629.00 L 14993583.00 6743496.00 L 14963450.00 6731015.00 L 14933317.00 6743496.00 L 14920836.00 6773629.00 L 14920836.00 6904820.00 L 14933317.00 6934953.00 L 14963450.00 6947434.00 L 14993583.00 6934953.00 L 15006064.00 6904820.00 L 15006064.00 6881839.00 L 15258332.43 6881839.00 L 15248813.00 6904820.00 L 15261294.00 6934952.00 L 15291427.00 6947434.00 L 15321559.00 6934953.00  z"/>
<path id="N" d="M 11883935.41 10908210.00 L 11949528.00 10908210.00 L 11979661.00 10895729.00 L 11992142.00 10865596.00 L 11979661.00 10835463.00 L 11949528.00 10822982.00 L 11901584.19 10822982.00 L 11795356.00 10716753.19 L 11795356.00 10603214.00 L 11782875.00 10573081.00 L 11752742.00 10560600.00 L 11722609.00 10573081.00 L 11710128.00 10603214.00 L 11710128.00 10865596.00 L 11722609.00 10895729.00 L 11752742.00 10908210.00 L 11782875.00 10895729.00 L 11795356.00 10865596.00 L 11795356.00 10837284.89 L 11853800.00 10895729.00 L 11862626.21 10899384.79 L 11883935.41 10908210.00  z"/>
<path id="N" d="M 8315598.41 5073805.00 L 8381191.00 5073805.00 L 8411324.00 5061324.00 L 8423805.00 5031191.00 L 8411324.00 5001058.00 L 8381191.00 4988577.00 L 8333247.19 4988577.00 L 8227019.00 4882348.19 L 8227019.00 4768809.00 L 8214538.00 4738676.00 L 8184405.00 4726195.00 L 8154272.00 4738676.00 L 8141791.00 4768809.00 L 8141791.00 5031191.00 L 8154272.00 5061324.00 L 8184405.00 5073805.00 L 8214538.00 5061324.00 L 8227019.00 5031191.00 L 8227019.00 5002879.89 L 8285463.00 5061324.00 L 8294289.21 5064979.79 L 8315598.41 5073805.00  z"/>
<path id="N" d="M 15321559.00 7262930.00 L 15387156.00 7197335.00 L 15399637.00 7167202.00 L 15387156.00 7137069.00 L 15357023.00 7124588.00 L 15006064.00 7124588.00 L 15006064.00 7101606.00 L 14993583.00 7071473.00 L 14963450.00 7058992.00 L 14933317.00 7071473.00 L 14920836.00 7101606.00 L 14920836.00 7232797.00 L 14933317.00 7262930.00 L 14963450.00 7275411.00 L 14993583.00 7262930.00 L 15006064.00 7232797.00 L 15006064.00 7209816.00 L 15258332.43 7209816.00 L 15248813.00 7232797.00 L 15261294.00 7262929.00 L 15291427.00 7275411.00 L 15321559.00 7262930.00  z"/>
<path id="N" d="M 6108111.00 5726920.00 L 6120592.00 5696787.00 L 6120592.00 5631191.00 L 6108111.00 5601058.00 L 5858210.00 5351157.00 L 5858210.00 5303214.00 L 5845729.00 5273081.00 L 5815596.00 5260600.00 L 5785463.00 5273081.00 L 5772982.00 5303214.00 L 5772982.00 5368809.00 L 5785463.00 5398942.00 L 6035364.00 5648843.00 L 6035364.00 5654173.00 L 5815596.00 5654173.00 L 5785463.00 5666654.00 L 5772982.00 5696787.00 L 5785463.00 5726920.00 L 5815596.00 5739401.00 L 6077978.00 5739401.00 L 6108111.00 5726920.00  z"/>
<path id="N" d="M 10558621.25 8545933.10 L 10577650.00 8542148.00 A 72257.08 72257.08 0 0 0 10577650.00 8408640.00 L 10558621.25 8404854.90 L 10550000.00 8401284.00 L 10541378.75 8404854.90 L 10522350.00 8408640.00 A 72257.08 72257.08 0 0 0 10522350.00 8542148.00 L 10541378.75 8545933.10 L 10550000.00 8549504.00 L 10558621.25 8545933.10  z"/>
<path id="N" d="M 10108111.00 6076920.00 L 10120592.00 6046787.00 L 10120592.00 5981191.00 L 10108111.00 5951058.00 L 9858210.00 5701157.00 L 9858210.00 5653214.00 L 9845729.00 5623081.00 L 9815596.00 5610600.00 L 9785463.00 5623081.00 L 9772982.00 5653214.00 L 9772982.00 5718809.00 L 9785463.00 5748942.00 L 10035364.00 5998843.00 L 10035364.00 6004173.00 L 9815596.00 6004173.00 L 9785463.00 6016654.00 L 9772982.00 6046787.00 L 9785463.00 6076920.00 L 9815596.00 6089401.00 L 10077978.00 6089401.00 L 10108111.00 6076920.00  z"/>
<path id="N" d="M 11408086.00 7410842.00 L 11420567.00 7380709.00 L 11420567.00 6219291.00 L 11408086.00 6189158.00 L 11377953.00 6176677.00 L 11122047.00 6176677.00 L 11091914.00 6189158.00 L 11079433.00 6219291.00 L 11079433.00 7380709.00 L 11091914.00 7410842.00 L 11122047.00 7423323.00 L 11377953.00 7423323.00 L 11408086.00 7410842.00  zM 11335339.00 7338095.00 L 11164661.00 7338095.00 L 11164661.00 6261905.00 L 11335339.00 6261905.00 L 11335339.00 7338095.00  z"/>
<path id="N" d="M 8882889.00 12370684.00 L 8895370.00 12340551.00 L 8895370.00 11159449.00 L 8882889.00 11129316.00 L 8852756.00 11116835.00 L 7947244.00 11116835.00 L 7917111.00 11129316.00 L 7904630.00 11159449.00 L 7904630.00 12340551.00 L 7917111.00 12370684.00 L 7947244.00 12383165.00 L 8852756.00 12383165.00 L 8882889.00 12370684.00  zM 8810142.00 12297937.00 L 7989858.00 12297937.00 L 7989858.00 11202063.00 L 8810142.00 11202063.00 L 8810142.00 12297937.00  z"/>
<path id="N" d="M 2809661.00 11489188.00 L 2822142.00 11459055.00 L 2822142.00 6340945.00 L 2809661.00 6310812.00 L 2779528.00 6298331.00 L 720472.00 6298331.00 L 690339.00 6310812.00 L 677858.00 6340945.00 L 677858.00 11459055.00 L 690339.00 11489188.00 L 720472.00 11501669.00 L 2779528.00 11501669.00 L 2809661.00 11489188.00  zM 2736914.00 11416441.00 L 763086.00 11416441.00 L 763086.00 6383559.00 L 2736914.00 6383559.00 L 2736914.00 11416441.00  z"/>
<path id="N" d="M 5513203.00 15644700.00 L 5525684.00 15614567.00 L 5525684.00 13685433.00 L 5513203.00 13655300.00 L 5483070.00 13642819.00 L 4616929.00 13642819.00 L 4586796.00 13655300.00 L 4574315.00 13685433.00 L 4574315.00 15614567.00 L 4586796.00 15644700.00 L 4616929.00 15657181.00 L 5483070.00 15657181.00 L 5513203.00 15644700.00  zM 5440456.00 15571953.00 L 4659543.00 15571953.00 L 4659543.00 13728047.00 L 5440456.00 13728047.00 L 5440456.00 15571953.00  z"/>
<path id="N" d="M 5985037.47 13565352.47 m -100354.75 0 a 100354.75 100354.75 0 1 1 200709.51 0a 100354.75 100354.75 0 1 1 -200709.51 0"/>
<path id="N" d="M 7099999.95 4149999.95 m -101959.21 0 a 101959.21 101959.21 0 1 1 203918.42 0a 101959.21 101959.21 0 1 1 -203918.42 0"/>
<path id="N" d="M 5168111.28 14000395.28 m -160563.76 0 a 160563.76 160563.76 0 1 1 321127.52 0a 160563.76 160563.76 0 1 1 -321127.52 0"/>
<path id="N" d="M 7524515.00 3272940.00 L 7530756.00 3257874.00 L 7530756.00 3180756.00 L 7607874.00 3180756.00 L 7622940.00 3174515.00 L 7629181.00 3159449.00 L 7622940.00 3144383.00 L 7607874.00 3138142.00 L 7509449.00 3138142.00 L 7494383.00 3144383.00 L 7488142.00 3159449.00 L 7488142.00 3257874.00 L 7494383.00 3272940.00 L 7509449.00 3279181.00 L 7524515.00 3272940.00  z"/>
<path id="N" d="M 8705617.00 3272940.00 L 8711858.00 3257874.00 L 8711858.00 3159449.00 L 8705617.00 3144383.00 L 8690551.00 3138142.00 L 8592126.00 3138142.00 L 8577060.00 3144383.00 L 8570819.00 3159449.00 L 8577060.00 3174515.00 L 8592126.00 3180756.00 L 8669244.00 3180756.00 L 8669244.00 3257874.00 L 8675485.00 3272940.00 L 8690551.00 3279181.00 L 8705617.00 3272940.00  z"/>
<path id="N" d="M 8705617.00 4355617.00 L 8711858.00 4340551.00 L 8711858.00 4242126.00 L 8705617.00 4227060.00 L 8690551.00 4220819.00 L 8675485.00 4227060.00 L 8669244.00 4242126.00 L 8669244.00 4319244.00 L 8592126.00 4319244.00 L 8577060.00 4325485.00 L 8570819.00 4340551.00 L 8577060.00 4355617.00 L 8592126.00 4361858.00 L 8690551.00 4361858.00 L 8705617.00 4355617.00  z"/>
<path id="N" d="M 7622940.00 4355617.00 L 7629181.00 4340551.00 L 7622940.00 4325485.00 L 7607874.00 4319244.00 L 7530756.00 4319244.00 L 7530756.00 4242126.00 L 7524515.00 4227060.00 L 7509449.00 4220819.00 L 7494383.00 4227060.00 L 7488142.00 4242126.00 L 7488142.00 4340551.00 L 7494383.00 4355617.00 L 7509449.00 4361858.00 L 7607874.00 4361858.00 L 7622940.00 4355617.00  z"/>
<path id="N" d="M 11014385.00 7420684.00 L 11026866.00 7390551.00 L 11014385.00 7360418.00 L 10984252.00 7347937.00 L 10531496.00 7347937.00 L 10501363.00 7360418.00 L 10488882.00 7390551.00 L 10501363.00 7420684.00 L 10531496.00 7433165.00 L 10984252.00 7433165.00 L 11014385.00 7420684.00  z"/>
<path id="N" d="M 7891944.00 14810054.00 L 7904425.00 14779921.00 L 7904425.00 13520079.00 L 7891944.00 13489946.00 L 7861811.00 13477465.00 L 7831678.00 13489946.00 L 7819197.00 13520079.00 L 7819197.00 14779921.00 L 7831678.00 14810054.00 L 7861811.00 14822535.00 L 7891944.00 14810054.00  z"/>
<path id="N" d="M 10389582.00 9086432.00 L 10402063.00 9056299.00 L 10402063.00 8859449.00 L 10389582.00 8829316.00 L 10359449.00 8816835.00 L 10329316.00 8829316.00 L 10316835.00 8859449.00 L 10316835.00 9056299.00 L 10329316.00 9086432.00 L 10359449.00 9098913.00 L 10389582.00 9086432.00  z"/>
<path id="N" d="M 7839582.00 12390369.00 L 7852063.00 12360236.00 L 7839582.00 12330103.00 L 7809449.00 12317622.00 L 7258268.00 12317622.00 L 7228135.00 12330103.00 L 7215654.00 12360236.00 L 7228135.00 12390369.00 L 7258268.00 12402850.00 L 7809449.00 12402850.00 L 7839582.00 12390369.00  z"/>
<path id="N" d="M 11570684.00 10070684.00 L 11583165.00 10040551.00 L 11583165.00 9843701.00 L 11570684.00 9813568.00 L 11540551.00 9801087.00 L 11510418.00 9813568.00 L 11497937.00 9843701.00 L 11497937.00 10040551.00 L 11510418.00 10070684.00 L 11540551.00 10083165.00 L 11570684.00 10070684.00  z"/>
<path id="N" d="M 11570684.00 9086432.00 L 11583165.00 9056299.00 L 11583165.00 8859449.00 L 11570684.00 8829316.00 L 11540551.00 8816835.00 L 11510418.00 8829316.00 L 11497937.00 8859449.00 L 11497937.00 9056299.00 L 11510418.00 9086432.00 L 11540551.00 9098913.00 L 11570684.00 9086432.00  z"/>
<path id="N" d="M 6868322.00 14810054.00 L 6880803.00 14779921.00 L 6880803.00 13520079.00 L 6868322.00 13489946.00 L 6838189.00 13477465.00 L 6808056.00 13489946.00 L 6795575.00 13520079.00 L 6795575.00 14779921.00 L 6808056.00 14810054.00 L 6838189.00 14822535.00 L 6868322.00 14810054.00  z"/>
<path id="N" d="M 10389582.00 10070684.00 L 10402063.00 10040551.00 L 10402063.00 9843701.00 L 10389582.00 9813568.00 L 10359449.00 9801087.00 L 10329316.00 9813568.00 L 10316835.00 9843701.00 L 10316835.00 10040551.00 L 10329316.00 10070684.00 L 10359449.00 10083165.00 L 10389582.00 10070684.00  z"/>
</g>
</svg>
