<svg width="42.00000236mm" height="42.00000236mm" viewBox="0 0 16535434 16535434"  version="1.1" xmlns="http://www.w3.org/2000/svg" xmlns:xlink="http://www.w3.org/1999/xlink">
<desc>
Origin 0 0 Bound 50000 590551 16535434 16535434
</desc>
<g fill-rule="evenodd" fill="rgb(255, 0, 255)" stroke="black" stroke-width="1" transform="translate(0, 16535434) scale(1, -1) translate(-50000, -590551)">
<path id="N" d="M 8317696.44 8858151.95 m -8272263.15 0 a 8272263.15 8272263.15 0 1 1 16544526.29 0a 8272263.15 8272263.15 0 1 1 -16544526.29 0M 1250002.83 6899987.00 m -367964.00 0 a 367964.00 367964.00 0 1 1 735927.99 0a 367964.00 367964.00 0 1 1 -735927.99 0M 2614803.00 7264803.00 L 1885197.00 7264803.00 L 1885197.00 6535197.00 L 2614803.00 6535197.00 L 2614803.00 7264803.00  zM 1250002.83 7899987.00 m -367964.00 0 a 367964.00 367964.00 0 1 1 735927.99 0a 367964.00 367964.00 0 1 1 -735927.99 0M 1250002.83 8899987.00 m -367964.00 0 a 367964.00 367964.00 0 1 1 735927.99 0a 367964.00 367964.00 0 1 1 -735927.99 0M 2250002.83 8899987.00 m -367964.00 0 a 367964.00 367964.00 0 1 1 735927.99 0a 367964.00 367964.00 0 1 1 -735927.99 0M 2250002.83 7899987.00 m -367964.00 0 a 367964.00 367964.00 0 1 1 735927.99 0a 367964.00 367964.00 0 1 1 -735927.99 0M 6650000.43 4000000.13 m -201348.87 0 a 201348.87 201348.87 0 1 1 402697.73 0a 201348.87 201348.87 0 1 1 -402697.73 0M 6650000.43 4750000.13 m -201348.87 0 a 201348.87 201348.87 0 1 1 402697.73 0a 201348.87 201348.87 0 1 1 -402697.73 0M 8041181.00 8414015.00 L 7469055.00 8414015.00 L 7469055.00 8196221.00 L 8041181.00 8196221.00 L 8041181.00 8414015.00  zM 6750000.43 8725270.13 m -201348.87 0 a 201348.87 201348.87 0 1 1 402697.73 0a 201348.87 201348.87 0 1 1 -402697.73 0M 8041181.00 8728976.00 L 7469055.00 8728976.00 L 7469055.00 8511182.00 L 8041181.00 8511182.00 L 8041181.00 8728976.00  zM 8041181.00 9043936.00 L 7469055.00 9043936.00 L 7469055.00 8826142.00 L 8041181.00 8826142.00 L 8041181.00 9043936.00  zM 1250002.83 9899987.00 m -367964.00 0 a 367964.00 367964.00 0 1 1 735927.99 0a 367964.00 367964.00 0 1 1 -735927.99 0M 1250002.83 10899987.00 m -367964.00 0 a 367964.00 367964.00 0 1 1 735927.99 0a 367964.00 367964.00 0 1 1 -735927.99 0M 1600000.43 12900000.13 m -201348.87 0 a 201348.87 201348.87 0 1 1 402697.73 0a 201348.87 201348.87 0 1 1 -402697.73 0M 2250002.83 9899987.00 m -367964.00 0 a 367964.00 367964.00 0 1 1 735927.99 0a 367964.00 367964.00 0 1 1 -735927.99 0M 2250002.83 10899987.00 m -367964.00 0 a 367964.00 367964.00 0 1 1 735927.99 0a 367964.00 367964.00 0 1 1 -735927.99 0M 6750000.43 9523583.13 m -201348.87 0 a 201348.87 201348.87 0 1 1 402697.73 0a 201348.87 201348.87 0 1 1 -402697.73 0M 7150000.43 9850000.13 m -201348.87 0 a 201348.87 201348.87 0 1 1 402697.73 0a 201348.87 201348.87 0 1 1 -402697.73 0M 8041181.00 9358897.00 L 7469055.00 9358897.00 L 7469055.00 9141103.00 L 8041181.00 9141103.00 L 8041181.00 9358897.00  zM 6800000.43 10453986.13 m -201348.87 0 a 201348.87 201348.87 0 1 1 402697.73 0a 201348.87 201348.87 0 1 1 -402697.73 0M 6755129.43 11091061.13 m -201348.87 0 a 201348.87 201348.87 0 1 1 402697.73 0a 201348.87 201348.87 0 1 1 -402697.73 0M 7500000.43 12950000.13 m -201348.87 0 a 201348.87 201348.87 0 1 1 402697.73 0a 201348.87 201348.87 0 1 1 -402697.73 0M 8050000.43 3750000.13 m -201348.87 0 a 201348.87 201348.87 0 1 1 402697.73 0a 201348.87 201348.87 0 1 1 -402697.73 0M 9500000.43 4100000.13 m -201348.87 0 a 201348.87 201348.87 0 1 1 402697.73 0a 201348.87 201348.87 0 1 1 -402697.73 0M 9186063.00 8414015.00 L 8613937.00 8414015.00 L 8613937.00 8196221.00 L 9186063.00 8196221.00 L 9186063.00 8414015.00  zM 9186063.00 8728976.00 L 8613937.00 8728976.00 L 8613937.00 8511182.00 L 9186063.00 8511182.00 L 9186063.00 8728976.00  zM 9186063.00 9043936.00 L 8613937.00 9043936.00 L 8613937.00 8826142.00 L 9186063.00 8826142.00 L 9186063.00 9043936.00  zM 9186063.00 9358897.00 L 8613937.00 9358897.00 L 8613937.00 9141103.00 L 9186063.00 9141103.00 L 9186063.00 9358897.00  zM 9550000.43 2700000.13 m -201348.87 0 a 201348.87 201348.87 0 1 1 402697.73 0a 201348.87 201348.87 0 1 1 -402697.73 0M 12000000.43 8000000.13 m -201348.87 0 a 201348.87 201348.87 0 1 1 402697.73 0a 201348.87 201348.87 0 1 1 -402697.73 0M 15450000.43 5800000.13 m -201348.87 0 a 201348.87 201348.87 0 1 1 402697.73 0a 201348.87 201348.87 0 1 1 -402697.73 0M 10550000.43 8200000.13 m -201348.87 0 a 201348.87 201348.87 0 1 1 402697.73 0a 201348.87 201348.87 0 1 1 -402697.73 0M 11450000.43 8100000.13 m -201348.87 0 a 201348.87 201348.87 0 1 1 402697.73 0a 201348.87 201348.87 0 1 1 -402697.73 0M 12550000.43 9350000.13 m -201348.87 0 a 201348.87 201348.87 0 1 1 402697.73 0a 201348.87 201348.87 0 1 1 -402697.73 0M 8041181.00 9673858.00 L 7469055.00 9673858.00 L 7469055.00 9456064.00 L 8041181.00 9456064.00 L 8041181.00 9673858.00  zM 8041181.00 9988818.00 L 7469055.00 9988818.00 L 7469055.00 9771024.00 L 8041181.00 9771024.00 L 8041181.00 9988818.00  zM 8041181.00 10303779.00 L 7469055.00 10303779.00 L 7469055.00 10085985.00 L 8041181.00 10085985.00 L 8041181.00 10303779.00  zM 9186063.00 9988818.00 L 8613937.00 9988818.00 L 8613937.00 9771024.00 L 9186063.00 9771024.00 L 9186063.00 9988818.00  zM 9186063.00 9673858.00 L 8613937.00 9673858.00 L 8613937.00 9456064.00 L 9186063.00 9456064.00 L 9186063.00 9673858.00  zM 10950000.43 9450000.13 m -201348.87 0 a 201348.87 201348.87 0 1 1 402697.73 0a 201348.87 201348.87 0 1 1 -402697.73 0M 9186063.00 10303779.00 L 8613937.00 10303779.00 L 8613937.00 10085985.00 L 9186063.00 10085985.00 L 9186063.00 10303779.00  zM 10300000.43 11150000.13 m -201348.87 0 a 201348.87 201348.87 0 1 1 402697.73 0a 201348.87 201348.87 0 1 1 -402697.73 0M 11562164.43 10413302.13 m -201348.87 0 a 201348.87 201348.87 0 1 1 402697.73 0a 201348.87 201348.87 0 1 1 -402697.73 0M 10150000.43 13200000.13 m -201348.87 0 a 201348.87 201348.87 0 1 1 402697.73 0a 201348.87 201348.87 0 1 1 -402697.73 0M 9150000.43 16450000.13 m -201348.87 0 a 201348.87 201348.87 0 1 1 402697.73 0a 201348.87 201348.87 0 1 1 -402697.73 0"/>
</g>
</svg>
