<svg width="42.00000236mm" height="42.00000236mm" viewBox="0 0 16535434 16535434"  version="1.1" xmlns="http://www.w3.org/2000/svg" xmlns:xlink="http://www.w3.org/1999/xlink">
<desc>
Origin 0 0 Bound 50000 590551 16535434 16535434
</desc>
<g fill-rule="evenodd" fill="rgb(0, 0, 255)" stroke="black" stroke-width="1" transform="translate(0, 16535434) scale(1, -1) translate(-50000, -590551)">
<path id="N" d="M 6910565.00 9523583.00 L 6907139.23 9506359.98 L 6929400.00 9497139.00 L 7122418.08 9304120.00 L 7509055.00 9304120.00 L 7509055.00 9318897.00 L 8001181.00 9318897.00 L 8001181.00 9181103.00 L 7509055.00 9181103.00 L 7509055.00 9195880.00 L 7100001.00 9195879.00 L 7061731.29 9211732.71 L 6865766.74 9407696.32 L 6862219.50 9409165.68 A 158533.54 158533.54 0 1 0 6910565.00 9523583.00  z"/>
<path id="N" d="M 1533715.00 10736197.00 L 1520900.71 10719497.29 L 1776477.00 10463921.00 L 4561769.00 10463921.00 L 4643047.00 10545199.00 L 4688246.00 10563921.00 L 5000000.00 10563921.00 L 5045199.00 10545199.00 L 5395199.00 10195199.00 L 5413921.00 10150000.00 L 5413921.00 9626477.00 L 5626477.00 9413921.00 L 6150000.00 9413921.00 L 6195199.00 9395199.00 L 6712101.29 8878296.71 L 6750000.00 8885835.00 L 6787898.71 8878296.71 L 6889840.00 8980238.00 L 6935039.00 8998960.00 L 7509055.00 8998960.00 L 7509055.00 9003936.00 L 8001181.00 9003936.00 L 8001181.00 8866142.00 L 7509055.00 8866142.00 L 7509055.00 8871118.00 L 6961516.00 8871118.00 L 6889839.87 8799441.87 L 6898343.00 8786716.00 L 6910565.00 8725270.00 L 6909022.40 8717514.60 L 6942537.00 8684000.00 L 7509055.00 8684000.00 L 7509055.00 8688976.00 L 8001181.00 8688976.00 L 8001181.00 8551182.00 L 7509055.00 8551182.00 L 7509055.00 8556158.00 L 6916060.00 8556158.00 L 6870861.00 8574880.00 L 6845835.64 8599905.36 L 6811446.00 8576927.00 A 160570.62 160570.62 0 0 0 6601657.00 8786716.00 L 6610160.13 8799441.87 L 6123523.00 9286079.00 L 5600000.00 9286079.00 L 5554801.00 9304801.00 L 5304801.00 9554801.00 L 5286079.00 9600000.00 L 5286079.00 10123523.00 L 4973523.00 10436079.00 L 4714723.00 10436079.00 L 4633445.00 10354801.00 L 4588246.00 10336079.00 L 1750000.00 10336079.00 L 1704801.00 10354801.00 L 1430502.71 10629099.29 L 1413803.00 10616285.00 A 327604.72 327604.72 0 1 0 1533715.00 10736197.00  zM 1250001.22 10899996.65 m -220780.35 0 a 220780.35 220780.35 0 1 1 441560.70 0a 220780.35 220780.35 0 1 1 -441560.70 0"/>
<path id="N" d="M 6960565.00 10453986.00 L 6955625.30 10429151.70 L 7030657.00 10354120.00 L 7177582.08 10354120.00 L 7361731.00 10538269.00 L 7400002.41 10554120.00 L 8221342.00 10554121.00 L 8259611.00 10538269.00 L 8318190.00 10479690.00 L 8334041.00 10441421.00 L 8334041.00 9979815.73 L 8360917.27 9952939.00 L 8881102.00 9952940.00 L 8891053.10 9948818.00 L 9146063.00 9948818.00 L 9146063.00 9811024.00 L 8653937.00 9811024.00 L 8653937.00 9844699.00 L 8338500.00 9844699.00 L 8300230.29 9860551.71 L 8241652.00 9919129.00 L 8225801.00 9957400.41 L 8225801.00 10419003.73 L 8198924.27 10445880.00 L 7422417.08 10445880.00 L 7238269.00 10261731.00 L 7199997.59 10245880.00 L 7008239.00 10245880.00 L 6969970.00 10261731.00 L 6900178.10 10331522.90 L 6861446.00 10305643.00 A 160570.62 160570.62 0 1 0 6960565.00 10453986.00  z"/>
<path id="N" d="M 1250001.97 8900005.69 m -327599.99 0 a 327599.99 327599.99 0 1 1 655199.97 0a 327599.99 327599.99 0 1 1 -655199.97 0M 1250001.22 8899996.65 m -220780.35 0 a 220780.35 220780.35 0 1 1 441560.70 0a 220780.35 220780.35 0 1 1 -441560.70 0"/>
<path id="N" d="M 2250001.97 10900005.69 m -327599.99 0 a 327599.99 327599.99 0 1 1 655199.97 0a 327599.99 327599.99 0 1 1 -655199.97 0M 2250001.22 10899996.65 m -220780.35 0 a 220780.35 220780.35 0 1 1 441560.70 0a 220780.35 220780.35 0 1 1 -441560.70 0"/>
<path id="N" d="M 7310565.00 9850000.00 L 7306274.94 9828431.74 L 7413138.09 9721568.00 L 7475466.00 9721569.00 L 7513735.00 9705717.00 L 7585593.30 9633858.00 L 8001181.00 9633858.00 L 8001181.00 9496064.00 L 7509055.00 9496064.00 L 7509055.00 9557321.70 L 7453048.15 9613328.00 L 7390721.00 9613327.00 L 7352451.29 9629180.71 L 7252525.85 9729105.60 L 7211446.00 9701657.00 A 160570.62 160570.62 0 1 0 7310565.00 9850000.00  z"/>
<path id="N" d="M 15450001.28 5800001.28 m -160563.76 0 a 160563.76 160563.76 0 1 1 321127.52 0a 160563.76 160563.76 0 1 1 -321127.52 0"/>
<path id="N" d="M 11562165.28 10413303.28 m -160563.76 0 a 160563.76 160563.76 0 1 1 321127.52 0a 160563.76 160563.76 0 1 1 -321127.52 0"/>
<path id="N" d="M 9550001.28 2700001.28 m -160563.76 0 a 160563.76 160563.76 0 1 1 321127.52 0a 160563.76 160563.76 0 1 1 -321127.52 0"/>
<path id="N" d="M 11450001.28 8100001.28 m -160563.76 0 a 160563.76 160563.76 0 1 1 321127.52 0a 160563.76 160563.76 0 1 1 -321127.52 0"/>
<path id="N" d="M 9150001.28 16450001.28 m -160563.76 0 a 160563.76 160563.76 0 1 1 321127.52 0a 160563.76 160563.76 0 1 1 -321127.52 0"/>
<path id="N" d="M 8050001.28 3750001.28 m -160563.76 0 a 160563.76 160563.76 0 1 1 321127.52 0a 160563.76 160563.76 0 1 1 -321127.52 0"/>
<path id="N" d="M 9500001.28 4100001.28 m -160563.76 0 a 160563.76 160563.76 0 1 1 321127.52 0a 160563.76 160563.76 0 1 1 -321127.52 0"/>
<path id="N" d="M 10950001.28 9450001.28 m -160563.76 0 a 160563.76 160563.76 0 1 1 321127.52 0a 160563.76 160563.76 0 1 1 -321127.52 0"/>
<path id="N" d="M 12550001.28 9350001.28 m -160563.76 0 a 160563.76 160563.76 0 1 1 321127.52 0a 160563.76 160563.76 0 1 1 -321127.52 0"/>
<path id="N" d="M 9146063.00 9181103.00 L 8653937.00 9181103.00 L 8653937.00 9318897.00 L 9146063.00 9318897.00 L 9146063.00 9181103.00  z"/>
<path id="N" d="M 1661446.00 12751657.00 L 1654120.00 12750199.81 L 1654121.00 12500000.00 L 1638267.29 12461730.29 L 804120.00 11627582.02 L 804120.00 9622417.92 L 972417.08 9454120.00 L 1394987.50 9454120.00 L 1403545.41 9457663.00 L 1731125.03 9457663.00 L 1985117.22 9711654.67 L 1966285.00 9736197.00 A 327604.72 327604.72 0 1 0 2086197.00 9616285.00 L 2061654.67 9635117.22 L 1791812.00 9365274.00 L 1753540.59 9349423.00 L 1408555.72 9349423.00 L 1399997.59 9345880.00 L 950000.00 9345879.00 L 911730.29 9361732.71 L 711731.00 9561731.00 L 695880.00 9600002.41 L 695879.00 11650000.00 L 711731.00 11688269.00 L 1545880.00 12522417.02 L 1545880.00 12750199.81 L 1538554.00 12751657.00 A 160563.76 160563.76 0 1 0 1661446.00 12751657.00  zM 2250001.22 9899996.65 m -220780.35 0 a 220780.35 220780.35 0 1 1 441560.70 0a 220780.35 220780.35 0 1 1 -441560.70 0"/>
<path id="N" d="M 10088554.00 13051657.00 L 10082343.88 13055806.46 L 9938269.00 12911731.00 L 9899997.59 12895880.00 L 8704120.00 12895880.00 L 8704120.00 11372418.00 L 8972418.00 11104120.00 L 9800000.00 11104121.00 L 9838269.00 11088269.00 L 10188269.00 10738269.00 L 10204120.00 10699997.59 L 10204120.00 8622417.96 L 10482343.79 8344193.48 L 10488554.00 8348343.00 A 160570.62 160570.62 0 0 0 10611446.00 8051657.00 L 10604120.00 8050199.81 L 10604121.00 7900000.00 L 10588267.29 7861730.29 L 9288269.00 6561731.00 L 9249997.59 6545880.00 L 7272418.00 6545880.00 L 6704120.00 5977582.00 L 6704120.00 4899800.19 L 6711446.00 4898343.00 A 160563.76 160563.76 0 1 0 6588554.00 4898343.00 L 6595880.00 4899800.19 L 6595879.00 6000000.00 L 6611731.00 6038269.00 L 7211731.00 6638269.00 L 7250000.00 6654120.00 L 9227582.01 6654120.00 L 10495880.00 7922417.01 L 10495880.00 8050199.81 L 10488554.00 8051657.00 A 160563.76 160563.76 0 0 0 10401657.00 8261446.00 L 10405806.52 8267656.21 L 10111731.00 8561731.00 L 10095880.00 8600002.41 L 10095880.00 10677582.95 L 9777582.05 10995880.00 L 8950000.00 10995880.00 L 8911731.00 11011731.00 L 8611731.00 11311731.00 L 8595880.00 11350002.41 L 8595880.00 12895880.00 L 7649800.19 12895880.00 L 7648343.00 12888554.00 A 160563.76 160563.76 0 1 0 7648343.00 13011446.00 L 7649800.19 13004120.00 L 9877582.06 13004120.00 L 10005806.46 13132343.88 L 10001657.00 13138554.00 A 160570.62 160570.62 0 1 0 10088554.00 13051657.00  z"/>
<path id="N" d="M 1250001.97 9900005.69 m -327599.99 0 a 327599.99 327599.99 0 1 1 655199.97 0a 327599.99 327599.99 0 1 1 -655199.97 0M 1250001.22 9899996.65 m -220780.35 0 a 220780.35 220780.35 0 1 1 441560.70 0a 220780.35 220780.35 0 1 1 -441560.70 0"/>
<path id="N" d="M 1250001.97 6900005.69 m -327599.99 0 a 327599.99 327599.99 0 1 1 655199.97 0a 327599.99 327599.99 0 1 1 -655199.97 0M 1250001.22 6899996.65 m -220780.35 0 a 220780.35 220780.35 0 1 1 441560.70 0a 220780.35 220780.35 0 1 1 -441560.70 0"/>
<path id="N" d="M 2250001.97 7900005.69 m -327599.99 0 a 327599.99 327599.99 0 1 1 655199.97 0a 327599.99 327599.99 0 1 1 -655199.97 0M 2250001.22 7899996.65 m -220780.35 0 a 220780.35 220780.35 0 1 1 441560.70 0a 220780.35 220780.35 0 1 1 -441560.70 0"/>
<path id="N" d="M 8001181.00 8236221.00 L 7509055.00 8236221.00 L 7509055.00 8374015.00 L 8001181.00 8374015.00 L 8001181.00 8236221.00  z"/>
<path id="N" d="M 9146063.00 8236221.00 L 8653937.00 8236221.00 L 8653937.00 8374015.00 L 9146063.00 8374015.00 L 9146063.00 8236221.00  z"/>
<path id="N" d="M 9146063.00 8551182.00 L 8653937.00 8551182.00 L 8653937.00 8688976.00 L 9146063.00 8688976.00 L 9146063.00 8551182.00  z"/>
<path id="N" d="M 9146063.00 8866142.00 L 8653937.00 8866142.00 L 8653937.00 9003936.00 L 9146063.00 9003936.00 L 9146063.00 8866142.00  z"/>
<path id="N" d="M 8001181.00 9811024.00 L 7509055.00 9811024.00 L 7509055.00 9948818.00 L 8001181.00 9948818.00 L 8001181.00 9811024.00  z"/>
<path id="N" d="M 8001181.00 10125985.00 L 7509055.00 10125985.00 L 7509055.00 10263779.00 L 8001181.00 10263779.00 L 8001181.00 10125985.00  z"/>
<path id="N" d="M 9146063.00 10125985.00 L 8653937.00 10125985.00 L 8653937.00 10263779.00 L 9146063.00 10263779.00 L 9146063.00 10125985.00  z"/>
<path id="N" d="M 6903472.00 11029615.00 L 6880821.58 10995716.16 L 7122417.05 10754120.00 L 9250000.00 10754121.00 L 9288269.00 10738269.00 L 9488269.00 10538269.00 L 9504120.00 10499997.59 L 9504121.00 9750000.00 L 9488267.29 9711730.29 L 9303230.00 9526692.00 L 9264958.59 9510841.00 L 9146063.00 9510841.00 L 9146063.00 9496064.00 L 8653937.00 9496064.00 L 8653937.00 9633858.00 L 9146063.00 9633858.00 L 9146063.00 9619081.00 L 9242543.09 9619081.00 L 9395880.00 9772417.09 L 9395880.00 10477582.92 L 9227582.08 10645880.00 L 7100000.00 10645880.00 L 7061730.29 10661732.71 L 6786688.76 10936773.44 L 6755129.00 10930496.00 A 160563.52 160563.52 0 1 0 6903472.00 11029615.00  z"/>
<path id="N" d="M 1250001.97 7900005.69 m -327599.99 0 a 327599.99 327599.99 0 1 1 655199.97 0a 327599.99 327599.99 0 1 1 -655199.97 0M 1250001.22 7899996.65 m -220780.35 0 a 220780.35 220780.35 0 1 1 441560.70 0a 220780.35 220780.35 0 1 1 -441560.70 0"/>
<path id="N" d="M 2250001.97 8900005.69 m -327599.99 0 a 327599.99 327599.99 0 1 1 655199.97 0a 327599.99 327599.99 0 1 1 -655199.97 0M 2250001.22 8899996.65 m -220780.35 0 a 220780.35 220780.35 0 1 1 441560.70 0a 220780.35 220780.35 0 1 1 -441560.70 0"/>
<path id="N" d="M 2574803.00 6575197.00 L 1925197.00 6575197.00 L 1925197.00 7224803.00 L 2574803.00 7224803.00 L 2574803.00 6575197.00  zM 2250001.22 6899996.65 m -220780.35 0 a 220780.35 220780.35 0 1 1 441560.70 0a 220780.35 220780.35 0 1 1 -441560.70 0"/>
<path id="N" d="M 10448343.00 11211446.00 L 10449800.19 11204120.00 L 11950000.00 11204121.00 L 11988269.00 11188269.00 L 12188269.00 10988269.00 L 12204120.00 10949997.59 L 12204121.00 8166060.00 L 12188267.29 8127790.29 L 12137760.79 8077283.44 L 12148343.00 8061446.00 A 160570.62 160570.62 0 0 0 11938554.00 7851657.00 L 11932344.23 7855806.23 L 11688269.00 7611731.00 L 11649997.59 7595880.00 L 10605259.01 7595880.00 L 9338269.00 6328889.00 L 9299997.59 6313038.00 L 7339575.06 6313038.00 L 7104120.00 6077582.06 L 7104120.00 4400000.00 L 7088267.29 4361730.29 L 6794193.67 4067655.93 L 6798343.00 4061446.00 A 160570.62 160570.62 0 1 0 6711446.00 4148343.00 L 6717655.93 4144193.67 L 6995880.00 4422417.04 L 6995879.00 6100000.00 L 7011731.00 6138269.00 L 7278889.00 6405427.00 L 7317158.00 6421278.00 L 9277582.01 6421278.00 L 10544573.00 7688269.00 L 10582844.41 7704120.00 L 11627582.00 7704120.00 L 11855806.23 7932344.23 L 11851657.00 7938554.00 A 160570.62 160570.62 0 0 0 12056691.36 8149288.73 L 12095880.00 8188477.11 L 12095880.00 10927582.92 L 11927582.08 11095880.00 L 10449800.19 11095880.00 L 10448343.00 11088554.00 A 160563.76 160563.76 0 1 0 10448343.00 11211446.00  z"/>
</g>
</svg>
