<svg width="42.00000236mm" height="42.00000236mm" viewBox="0 0 16535434 16535434"  version="1.1" xmlns="http://www.w3.org/2000/svg" xmlns:xlink="http://www.w3.org/1999/xlink">
<desc>
Origin 0 0 Bound 50000 590551 16535434 16535434
</desc>
<g fill-rule="evenodd" fill="rgb(255, 0, 0)" stroke="black" stroke-width="1" transform="translate(0, 16535434) scale(1, -1) translate(-50000, -590551)">
<path id="N" d="M 7724409.00 3297244.00 L 7330709.00 3297244.00 L 7330709.00 3302179.00 L 6881865.02 3302179.00 L 6341418.00 2761731.00 L 6303146.59 2745880.00 L 4712204.00 2745880.00 L 4712204.00 2655119.00 L 3987796.00 2655119.00 L 3987796.00 3363779.00 L 4712204.00 3363779.00 L 4712204.00 2854120.00 L 6280731.03 2854120.00 L 6821179.00 3394568.00 L 6859448.00 3410419.00 L 7330709.00 3410419.00 L 7330709.00 3415354.00 L 7724409.00 3415354.00 L 7724409.00 3297244.00  z"/>
<path id="N" d="M 6162204.00 3607270.00 L 7330709.00 3607270.00 L 7330709.00 3612205.00 L 7724409.00 3612205.00 L 7724409.00 3494095.00 L 7330709.00 3494095.00 L 7330709.00 3499030.00 L 6162204.00 3499030.00 L 6162204.00 3155119.00 L 5437796.00 3155119.00 L 5437796.00 3863779.00 L 6162204.00 3863779.00 L 6162204.00 3607270.00  z"/>
<path id="N" d="M 8357086.00 15745670.00 L 8254120.00 15745670.00 L 8254121.00 15590158.00 L 8238267.29 15551888.29 L 7708451.00 15022071.03 L 7708452.00 14788977.00 L 7704330.00 14779026.16 L 7704330.00 14445276.00 L 6995670.00 14445276.00 L 6995670.00 14588006.00 L 6914544.00 14588006.00 L 6662205.00 14335667.00 L 6623933.59 14319816.00 L 6299890.04 14319816.00 L 6296570.00 14314847.00 L 6257501.00 14288743.00 L 6211417.00 14279576.00 L 5758661.00 14279576.00 A 120431.73 120431.73 0 1 0 5758661.00 14520424.00 L 6211417.00 14520424.00 A 120431.73 120431.73 0 0 0 6322674.00 14446084.00 L 6326260.12 14428056.00 L 6601518.00 14428056.00 L 6853857.00 14680395.00 L 6892128.41 14696246.00 L 6995670.00 14696246.00 L 6995670.00 14838976.00 L 7600211.00 14838976.00 L 7600210.00 15044489.00 L 7616062.00 15082758.00 L 8145880.00 15612575.03 L 8145880.00 15745670.00 L 7963386.00 15745670.00 L 7963386.00 16454330.00 L 8357086.00 16454330.00 L 8357086.00 15745670.00  z"/>
<path id="N" d="M 6438270.00 13088269.00 L 7299978.00 12226561.00 L 7495275.00 12226562.00 L 7505226.10 12222440.00 L 7809448.00 12222440.00 L 7809448.00 12045276.00 L 7258268.00 12045276.00 L 7258268.00 12126311.24 L 7239291.00 12134172.00 L 6377583.00 12995880.00 L 4822417.18 12995880.00 L 4763569.00 12937031.18 L 4763569.00 12766190.00 L 5113779.00 12766190.00 L 5113779.00 12041782.00 L 4763569.00 12041782.00 L 4763569.00 11553265.00 L 5118908.00 11553265.00 L 5118908.00 10828857.00 L 4793884.00 10828857.00 L 4793884.00 10354330.00 L 4936614.00 10354330.00 L 4936614.00 9645670.00 L 4793884.00 9645670.00 L 4793884.00 9127913.00 L 4860076.27 9127913.00 L 5280623.00 9548460.00 L 5318894.41 9564311.00 L 6597536.06 9564311.00 L 6601657.00 9585029.00 A 160563.76 160563.76 0 1 0 6636463.00 9410046.00 L 6605710.16 9456071.00 L 5341309.03 9456071.00 L 4936614.00 9051375.27 L 4936614.00 8419253.00 L 4542914.00 8419253.00 L 4542914.00 8695880.00 L 4472418.00 8695880.00 L 3554120.00 7777582.00 L 3554120.00 2572418.00 L 3822418.00 2304120.00 L 5300000.00 2304121.00 L 5338269.00 2288269.00 L 5688269.00 1938269.00 L 5704120.00 1899997.59 L 5704120.00 1572417.95 L 6022417.05 1254120.00 L 10377582.00 1254120.00 L 11295880.00 2172418.00 L 11295879.00 4700000.00 L 11311731.00 4738269.00 L 12423462.48 5849999.52 L 12311731.00 5961731.00 L 12295880.00 6000002.41 L 12295880.00 7069003.73 L 12269003.27 7095880.00 L 11968504.00 7095880.00 L 11968504.00 7055906.00 L 11515748.00 7055906.00 L 11515748.00 7292126.00 L 11968504.00 7292126.00 L 11968504.00 7204120.00 L 12291421.00 7204121.00 L 12329690.00 7188269.00 L 12388269.00 7129690.00 L 12404120.00 7091421.00 L 12404120.00 6022418.00 L 12522418.00 5904120.00 L 12842914.00 5904120.00 L 12842914.00 6204330.00 L 13236614.00 6204330.00 L 13236614.00 5495670.00 L 12842914.00 5495670.00 L 12842914.00 5795880.00 L 12522417.01 5795880.00 L 11404120.00 4677582.01 L 11404121.00 2150000.00 L 11388269.00 2111731.00 L 10438269.00 1161731.00 L 10399997.59 1145880.00 L 6000000.00 1145879.00 L 5961730.29 1161732.71 L 5611731.00 1511731.00 L 5595880.00 1550002.41 L 5595880.00 1877582.95 L 5277582.05 2195880.00 L 3800000.00 2195880.00 L 3761731.00 2211731.00 L 3461731.00 2511731.00 L 3445880.00 2550002.41 L 3445879.00 7800000.00 L 3461731.00 7838269.00 L 4411731.00 8788269.00 L 4450002.41 8804120.00 L 4542914.00 8804120.00 L 4542914.00 9127913.00 L 4685644.00 9127913.00 L 4685644.00 9645670.00 L 4542914.00 9645670.00 L 4542914.00 10354330.00 L 4685644.00 10354330.00 L 4685644.00 10828857.00 L 4410248.00 10828857.00 L 4410248.00 11553265.00 L 4655329.00 11553265.00 L 4655329.00 12041782.00 L 4405119.00 12041782.00 L 4405119.00 12766190.00 L 4655329.00 12766190.00 L 4655328.00 12959449.00 L 4671180.00 12997718.00 L 4761731.00 13088269.00 L 4800000.00 13104120.00 L 6400001.00 13104121.00 L 6438270.00 13088269.00  z"/>
<path id="N" d="M 10812204.00 15504472.00 L 10992126.00 15504472.00 L 11037325.00 15485750.00 L 11428194.00 15094881.00 L 12062204.00 15094881.00 L 12062204.00 14476619.00 L 12434351.00 14104472.00 L 12637796.00 14104472.00 L 12637796.00 14394881.00 L 13362204.00 14394881.00 L 13362204.00 13769830.75 L 14135750.00 12995199.00 L 14154472.00 12950000.00 L 14154472.00 11812204.00 L 14444881.00 11812204.00 L 14444881.00 11087796.00 L 14154472.00 11087796.00 L 14154472.00 10562204.00 L 14494881.00 10562204.00 L 14494881.00 9837796.00 L 14204472.00 9837796.00 L 14204472.00 9585926.00 L 14355435.00 9434963.00 L 14374157.00 9389764.00 L 14374157.00 9004330.00 L 14507086.00 9004330.00 L 14507086.00 8295670.00 L 14374157.00 8295670.00 L 14374157.00 8016241.00 L 14415671.00 7974727.00 L 14434393.00 7929528.00 L 14434393.00 7554330.00 L 14567322.00 7554330.00 L 14567322.00 6845670.00 L 14173622.00 6845670.00 L 14173622.00 7554330.00 L 14306551.00 7554330.00 L 14306551.00 7903051.00 L 14265037.00 7944565.00 L 14246315.00 7989764.00 L 14246315.00 8295670.00 L 14113386.00 8295670.00 L 14113386.00 9004330.00 L 14246315.00 9004330.00 L 14246315.00 9363287.00 L 14095352.00 9514250.00 L 14076630.00 9559449.00 L 14076630.00 9837796.00 L 13786221.00 9837796.00 L 13786221.00 10562204.00 L 14026630.00 10562204.00 L 14026630.00 11087796.00 L 13736221.00 11087796.00 L 13736221.00 11812204.00 L 14026630.00 11812204.00 L 14026630.00 12923523.00 L 13267006.00 13683147.00 L 13265732.71 13686221.00 L 12637796.00 13686221.00 L 12637796.00 13976630.00 L 12407874.00 13976630.00 L 12362675.00 13995352.00 L 11971806.00 14386221.00 L 11337796.00 14386221.00 L 11337796.00 15004483.00 L 10965649.00 15376630.00 L 10812204.00 15376630.00 L 10812204.00 15086221.00 L 10184267.29 15086221.00 L 10182994.00 15083147.00 L 9713921.00 14614074.00 L 9713921.00 13228150.00 L 9695199.00 13182951.00 L 9330063.00 12817815.00 L 9330063.00 12222440.00 L 9541732.00 12222440.00 L 9541732.00 12045276.00 L 8990552.00 12045276.00 L 8990552.00 12052615.00 L 8643013.00 12052615.00 L 8463921.00 11873523.00 L 8463921.00 11176478.00 L 8726478.00 10913921.00 L 9541421.00 10913921.00 L 9586620.00 10895199.00 L 9645199.00 10836620.00 L 9663921.00 10791421.00 L 9663921.00 9976477.00 L 9929627.00 9710771.00 L 10477559.00 9710771.00 L 10489306.59 9705905.00 L 10594094.00 9705905.00 L 10594094.00 9587795.00 L 10489306.59 9587795.00 L 10477559.00 9582929.00 L 9954866.00 9582929.00 L 9954866.00 8672977.00 L 10161319.00 8672977.00 L 10497244.00 9008902.00 L 10497244.00 9094094.00 L 10615354.00 9094094.00 L 10615354.00 8989306.59 L 10620220.00 8977559.00 L 10615354.00 8965811.41 L 10615354.00 8661024.00 L 10497244.00 8661024.00 L 10497244.00 8828106.00 L 10232995.00 8563857.00 L 10187796.00 8545135.00 L 9954866.00 8545135.00 L 9954866.00 7585533.00 L 10302462.00 7237937.00 L 10531496.00 7237937.00 L 10531496.00 7292126.00 L 10984252.00 7292126.00 L 10984252.00 7055906.00 L 10531496.00 7055906.00 L 10531496.00 7110095.00 L 10275985.00 7110095.00 L 10230786.00 7128817.00 L 9845746.00 7513857.00 L 9827024.00 7559056.00 L 9827024.00 7786079.00 L 7650000.00 7786079.00 L 7604801.00 7804801.00 L 6824171.87 8585430.13 L 6811446.00 8576927.00 L 6750000.00 8564705.00 L 6691474.16 8576346.16 L 6076229.00 7961101.00 L 6076229.00 7879600.00 L 6157086.00 7879600.00 L 6157086.00 7613921.00 L 7317323.00 7613921.00 L 7362522.00 7595199.00 L 7445517.00 7512204.00 L 8063779.00 7512204.00 L 8063779.00 6787796.00 L 7753685.00 6787796.00 L 7753685.00 6254330.00 L 7886614.00 6254330.00 L 7886614.00 5545670.00 L 7793613.00 5545670.00 L 7793613.00 4675357.00 L 7825357.00 4643613.00 L 8070373.00 4643613.00 L 8371959.00 4945199.00 L 8417158.00 4963921.00 L 10950000.00 4963921.00 L 10995199.00 4945199.00 L 11145199.00 4795199.00 L 11163921.00 4750000.00 L 11163921.00 3850000.00 L 11145199.00 3804801.00 L 10995199.00 3654801.00 L 10950000.00 3636079.00 L 9976477.00 3636079.00 L 8995199.00 2654801.00 L 8950000.00 2636079.00 L 7676477.00 2636079.00 L 7624157.00 2583759.00 L 7624157.00 2354330.00 L 7757086.00 2354330.00 L 7757086.00 2063921.00 L 8653150.00 2063921.00 L 8653150.00 2354330.00 L 9046850.00 2354330.00 L 9046850.00 1645670.00 L 8653150.00 1645670.00 L 8653150.00 1936079.00 L 7757086.00 1936079.00 L 7757086.00 1645670.00 L 7363386.00 1645670.00 L 7363386.00 2354330.00 L 7496315.00 2354330.00 L 7496315.00 2610236.00 L 7515037.00 2655435.00 L 7604801.00 2745199.00 L 7650000.00 2763921.00 L 8923523.00 2763921.00 L 9904801.00 3745199.00 L 9950000.00 3763921.00 L 10923523.00 3763921.00 L 11036079.00 3876477.00 L 11036079.00 4723523.00 L 10923523.00 4836079.00 L 8443635.00 4836079.00 L 8163921.00 4556365.00 L 8163921.00 4322441.00 L 8159055.00 4310693.41 L 8159055.00 4234188.59 L 8163921.00 4222441.00 L 8159055.00 4210693.41 L 8159055.00 4125591.00 L 8040945.00 4125591.00 L 8040945.00 4158520.00 L 7962205.00 4158520.00 L 7962205.00 4125591.00 L 7844095.00 4125591.00 L 7844095.00 4158520.00 L 7732776.00 4158520.00 L 7724409.00 4150153.00 L 7724409.00 4084646.00 L 7639306.59 4084646.00 L 7627559.00 4079780.00 L 7615811.41 4084646.00 L 7330709.00 4084646.00 L 7330709.00 4202756.00 L 7596216.00 4202756.00 L 7661100.00 4267640.00 L 7706299.00 4286362.00 L 7839229.00 4286362.00 L 7839229.00 4470373.00 L 7790260.83 4519341.17 L 7753681.00 4534493.00 L 7684493.00 4603681.00 L 7665771.00 4648880.00 L 7665771.00 5545670.00 L 7492914.00 5545670.00 L 7492914.00 6254330.00 L 7625843.00 6254330.00 L 7625843.00 6787796.00 L 7355119.00 6787796.00 L 7355119.00 7421806.00 L 7290846.00 7486079.00 L 6157086.00 7486079.00 L 6157086.00 7170940.00 L 6024157.00 7170940.00 L 6024157.00 6654330.00 L 6157086.00 6654330.00 L 6157086.00 5945670.00 L 6024157.00 5945670.00 L 6024157.00 5310236.00 L 6005435.00 5265037.00 L 5863921.00 5123523.00 L 5863921.00 5044881.00 L 6162204.00 5044881.00 L 6162204.00 4336221.00 L 5437796.00 4336221.00 L 5437796.00 4626630.00 L 5317028.00 4626630.00 L 5140081.00 4449683.00 L 5094882.00 4430961.00 L 4712204.00 4430961.00 L 4712204.00 3836221.00 L 3987796.00 3836221.00 L 3987796.00 4544881.00 L 4620720.25 4544881.00 L 4654331.00 4558803.00 L 5068405.00 4558803.00 L 5245352.00 4735750.00 L 5290551.00 4754472.00 L 5437796.00 4754472.00 L 5437796.00 5044881.00 L 5736079.00 5044881.00 L 5736079.00 5150000.00 L 5754801.00 5195199.00 L 5896315.00 5336713.00 L 5896315.00 5945670.00 L 5763386.00 5945670.00 L 5763386.00 6654330.00 L 5896315.00 6654330.00 L 5896315.00 7170940.00 L 5763386.00 7170940.00 L 5763386.00 7879600.00 L 5948387.00 7879600.00 L 5948387.00 7987578.00 L 5967109.00 8032777.00 L 6601076.16 8666744.16 A 156756.97 156756.97 0 0 0 6811446.00 8873613.00 A 160563.76 160563.76 0 0 0 6910565.00 8725270.00 L 6903026.71 8687371.29 L 7676477.00 7913921.00 L 9827024.00 7913921.00 L 9827024.00 9632578.00 L 9554801.00 9904801.00 L 9536079.00 9950000.00 L 9536079.00 10764944.00 L 9514944.00 10786079.00 L 8700001.00 10786079.00 L 8654802.00 10804801.00 L 8354801.00 11104802.00 L 8336079.00 11150001.00 L 8336079.00 11900000.00 L 8354801.00 11945199.00 L 8571337.00 12161735.00 L 8616536.00 12180457.00 L 8990552.00 12180457.00 L 8990552.00 12222440.00 L 9202221.00 12222440.00 L 9202221.00 12844292.00 L 9220943.00 12889491.00 L 9586079.00 13254627.00 L 9586079.00 14640551.00 L 9604801.00 14685750.00 L 10087028.26 15167977.26 L 10087796.00 15794881.00 L 10812204.00 15794881.00 L 10812204.00 15504472.00  zM 8036079.00 4515771.00 L 7962205.00 4515771.00 L 7962205.00 4508597.59 L 7967071.00 4496850.00 L 7967071.00 4286362.00 L 8040945.00 4286362.00 L 8040945.00 4310693.41 L 8036079.00 4322441.00 L 8036079.00 4515771.00  z"/>
<path id="N" d="M 4341338.00 13779576.00 L 3888582.00 13779576.00 L 3842498.00 13788743.00 L 3803878.00 13813480.00 L 1415618.00 11425220.00 L 1415618.00 11182322.28 A 323238.50 323238.50 0 0 0 1566443.00 10815209.00 A 327599.99 327599.99 0 1 0 1250000.00 11227606.00 L 1287776.00 11222632.67 L 1287776.00 11451697.00 L 1306498.00 11496896.00 L 3732202.00 13922600.00 L 3776285.86 13940860.10 L 3777325.00 13946084.00 A 120412.98 120412.98 0 0 0 3888582.00 14020424.00 L 4341338.00 14020424.00 A 120412.98 120412.98 0 0 0 4341338.00 13779576.00  zM 1250001.22 10899996.65 m -220780.35 0 a 220780.35 220780.35 0 1 1 441560.70 0a 220780.35 220780.35 0 1 1 -441560.70 0"/>
<path id="N" d="M 6294881.00 12064333.30 L 6427141.03 11932073.00 L 7258268.00 11932073.00 L 7258268.00 11966535.00 L 7809448.00 11966535.00 L 7809448.00 11789371.00 L 7258268.00 11789371.00 L 7258268.00 11823833.00 L 6404724.00 11823833.00 L 6366454.29 11839685.71 L 6164357.59 12041782.00 L 5586221.00 12041782.00 L 5586221.00 12349866.00 L 5430996.27 12349866.00 L 5404120.00 12322989.27 L 5404120.00 10888286.94 L 5638286.06 10654120.00 L 6619144.00 10654121.00 L 6657413.00 10638269.00 L 6711457.95 10584224.05 L 6738554.00 10602329.00 A 160570.62 160570.62 0 1 0 6639435.00 10453986.00 L 6647595.11 10495010.89 L 6596726.00 10545880.00 L 5615869.00 10545879.00 L 5577599.29 10561732.71 L 5311731.00 10827600.00 L 5295880.00 10865871.41 L 5295879.00 12345407.00 L 5311731.00 12383676.00 L 5370310.00 12442255.00 L 5408579.00 12458106.00 L 5586221.00 12458106.00 L 5586221.00 12766190.00 L 6294881.00 12766190.00 L 6294881.00 12064333.30  z"/>
<path id="N" d="M 1250001.97 8900005.69 m -327599.99 0 a 327599.99 327599.99 0 1 1 655199.97 0a 327599.99 327599.99 0 1 1 -655199.97 0M 1250001.22 8899996.65 m -220780.35 0 a 220780.35 220780.35 0 1 1 441560.70 0a 220780.35 220780.35 0 1 1 -441560.70 0"/>
<path id="N" d="M 2250001.97 10900005.69 m -327599.99 0 a 327599.99 327599.99 0 1 1 655199.97 0a 327599.99 327599.99 0 1 1 -655199.97 0M 2250001.22 10899996.65 m -220780.35 0 a 220780.35 220780.35 0 1 1 441560.70 0a 220780.35 220780.35 0 1 1 -441560.70 0"/>
<path id="N" d="M 11413821.00 10351856.00 L 11412363.81 10359182.00 L 11221818.00 10359182.00 L 11200970.00 10338334.00 L 11200970.00 10238976.00 L 11205905.00 10238976.00 L 11205905.00 9805906.00 L 11087795.00 9805906.00 L 11087795.00 10238976.00 L 11092730.00 10238976.00 L 11092730.00 10359182.00 L 10905623.00 10359182.00 L 10816325.00 10269884.00 L 10816326.00 9931496.00 L 10812205.00 9921547.58 L 10812205.00 9805906.00 L 10694095.00 9805906.00 L 10694095.00 10238976.00 L 10708085.00 10238976.00 L 10708084.00 10292302.00 L 10723936.00 10330571.00 L 10844936.00 10451571.00 L 10883207.41 10467422.00 L 11412363.81 10467422.00 L 11413821.00 10474748.00 A 160563.76 160563.76 0 1 0 11413821.00 10351856.00  z"/>
<path id="N" d="M 11382166.74 9094094.00 L 11402756.00 9094094.00 L 11402756.00 8661024.00 L 11397821.00 8661024.00 L 11397821.00 8479901.00 L 11447139.00 8430583.00 L 11462990.00 8392311.59 L 11462990.00 8257981.21 L 11511446.00 8248343.00 A 160563.76 160563.76 0 1 0 11336463.00 8213537.00 L 11354750.00 8225755.95 L 11354750.00 8369896.00 L 11305432.00 8419214.00 L 11289581.00 8457485.41 L 11289581.00 8661024.00 L 11284646.00 8661024.00 L 11284646.00 9094094.00 L 11305432.00 9094569.00 L 11343701.00 9110420.00 L 11382166.74 9094094.00  z"/>
<path id="N" d="M 6211417.00 15279576.00 L 5758661.00 15279576.00 A 120431.73 120431.73 0 0 0 5758661.00 15520424.00 L 6211417.00 15520424.00 A 120412.98 120412.98 0 0 0 6211417.00 15279576.00  z"/>
<path id="N" d="M 9500001.28 4100001.28 m -160563.76 0 a 160563.76 160563.76 0 1 1 321127.52 0a 160563.76 160563.76 0 1 1 -321127.52 0"/>
<path id="N" d="M 15450001.28 5800001.28 m -160563.76 0 a 160563.76 160563.76 0 1 1 321127.52 0a 160563.76 160563.76 0 1 1 -321127.52 0"/>
<path id="N" d="M 12550001.28 9350001.28 m -160563.76 0 a 160563.76 160563.76 0 1 1 321127.52 0a 160563.76 160563.76 0 1 1 -321127.52 0"/>
<path id="N" d="M 10950001.28 9450001.28 m -160563.76 0 a 160563.76 160563.76 0 1 1 321127.52 0a 160563.76 160563.76 0 1 1 -321127.52 0"/>
<path id="N" d="M 9550001.28 2700001.28 m -160563.76 0 a 160563.76 160563.76 0 1 1 321127.52 0a 160563.76 160563.76 0 1 1 -321127.52 0"/>
<path id="N" d="M 7150001.28 9850001.28 m -160563.76 0 a 160563.76 160563.76 0 1 1 321127.52 0a 160563.76 160563.76 0 1 1 -321127.52 0"/>
<path id="N" d="M 8050001.28 3750001.28 m -160563.76 0 a 160563.76 160563.76 0 1 1 321127.52 0a 160563.76 160563.76 0 1 1 -321127.52 0"/>
<path id="N" d="M 9150001.28 16450001.28 m -160563.76 0 a 160563.76 160563.76 0 1 1 321127.52 0a 160563.76 160563.76 0 1 1 -321127.52 0"/>
<path id="N" d="M 9179601.00 14671654.00 L 8470941.00 14671654.00 L 8470941.00 15065354.00 L 9179601.00 15065354.00 L 9179601.00 14671654.00  z"/>
<path id="N" d="M 10984252.00 6681890.00 L 10531496.00 6681890.00 L 10531496.00 6918110.00 L 10984252.00 6918110.00 L 10984252.00 6681890.00  z"/>
<path id="N" d="M 7809448.00 11277560.00 L 7258268.00 11277560.00 L 7258268.00 11454724.00 L 7809448.00 11454724.00 L 7809448.00 11277560.00  z"/>
<path id="N" d="M 10704330.00 2892914.00 L 9995670.00 2892914.00 L 9995670.00 3286614.00 L 10704330.00 3286614.00 L 10704330.00 2892914.00  z"/>
<path id="N" d="M 6536614.00 1645670.00 L 6142914.00 1645670.00 L 6142914.00 2354330.00 L 6536614.00 2354330.00 L 6536614.00 1645670.00  z"/>
<path id="N" d="M 10267322.00 1645670.00 L 9873622.00 1645670.00 L 9873622.00 2354330.00 L 10267322.00 2354330.00 L 10267322.00 1645670.00  z"/>
<path id="N" d="M 8869291.00 3887795.00 L 8475591.00 3887795.00 L 8475591.00 4005905.00 L 8869291.00 4005905.00 L 8869291.00 3887795.00  z"/>
<path id="N" d="M 8869291.00 3494095.00 L 8475591.00 3494095.00 L 8475591.00 3612205.00 L 8869291.00 3612205.00 L 8869291.00 3494095.00  z"/>
<path id="N" d="M 8869291.00 3297244.00 L 8475591.00 3297244.00 L 8475591.00 3415354.00 L 8869291.00 3415354.00 L 8869291.00 3297244.00  z"/>
<path id="N" d="M 8355905.00 2980709.00 L 8237795.00 2980709.00 L 8237795.00 3374409.00 L 8355905.00 3374409.00 L 8355905.00 2980709.00  z"/>
<path id="N" d="M 8869291.00 3690945.00 L 8475591.00 3690945.00 L 8475591.00 3809055.00 L 8869291.00 3809055.00 L 8869291.00 3690945.00  z"/>
<path id="N" d="M 8869291.00 4084646.00 L 8475591.00 4084646.00 L 8475591.00 4202756.00 L 8869291.00 4202756.00 L 8869291.00 4084646.00  z"/>
<path id="N" d="M 7136614.00 15745670.00 L 6742914.00 15745670.00 L 6742914.00 16454330.00 L 7136614.00 16454330.00 L 7136614.00 15745670.00  z"/>
<path id="N" d="M 14457086.00 5495670.00 L 14063386.00 5495670.00 L 14063386.00 6204330.00 L 14457086.00 6204330.00 L 14457086.00 5495670.00  z"/>
<path id="N" d="M 13286614.00 8295670.00 L 12892914.00 8295670.00 L 12892914.00 9004330.00 L 13286614.00 9004330.00 L 13286614.00 8295670.00  z"/>
<path id="N" d="M 9107086.00 5545670.00 L 8713386.00 5545670.00 L 8713386.00 6254330.00 L 9107086.00 6254330.00 L 9107086.00 5545670.00  z"/>
<path id="N" d="M 4936614.00 7170940.00 L 4542914.00 7170940.00 L 4542914.00 7879600.00 L 4936614.00 7879600.00 L 4936614.00 7170940.00  z"/>
<path id="N" d="M 6157086.00 9645670.00 L 5763386.00 9645670.00 L 5763386.00 10354330.00 L 6157086.00 10354330.00 L 6157086.00 9645670.00  z"/>
<path id="N" d="M 6157086.00 8419253.00 L 5763386.00 8419253.00 L 5763386.00 9127913.00 L 6157086.00 9127913.00 L 6157086.00 8419253.00  z"/>
<path id="N" d="M 4936614.00 5945670.00 L 4542914.00 5945670.00 L 4542914.00 6654330.00 L 4936614.00 6654330.00 L 4936614.00 5945670.00  z"/>
<path id="N" d="M 13346850.00 6845670.00 L 12953150.00 6845670.00 L 12953150.00 7554330.00 L 13346850.00 7554330.00 L 13346850.00 6845670.00  z"/>
<path id="N" d="M 2250001.97 7900005.69 m -327599.99 0 a 327599.99 327599.99 0 1 1 655199.97 0a 327599.99 327599.99 0 1 1 -655199.97 0M 2250001.22 7899996.65 m -220780.35 0 a 220780.35 220780.35 0 1 1 441560.70 0a 220780.35 220780.35 0 1 1 -441560.70 0"/>
<path id="N" d="M 4426491.00 14985153.00 L 4447225.74 14954120.00 L 4609450.00 14954121.00 L 4647719.00 14938269.00 L 4681867.32 14904120.00 L 4800000.00 14904121.00 L 4838269.00 14888269.00 L 5288269.00 14438269.00 L 5304120.00 14400000.00 L 5304120.00 13472417.92 L 5472417.08 13304120.00 L 7200000.00 13304121.00 L 7238269.00 13288269.00 L 7432344.23 13094193.77 L 7438554.00 13098343.00 A 160570.62 160570.62 0 1 0 7351657.00 13011446.00 L 7355806.23 13017655.77 L 7177582.00 13195880.00 L 5450000.00 13195879.00 L 5411730.29 13211732.71 L 5211731.00 13411731.00 L 5195880.00 13450002.41 L 5195880.00 14377582.00 L 4777582.00 14795880.00 L 4659450.00 14795879.00 L 4621180.29 14811732.71 L 4587032.32 14845880.00 L 4447225.74 14845880.00 L 4426491.00 14814847.00 L 4387422.00 14788743.00 L 4341338.00 14779576.00 L 3888582.00 14779576.00 L 3842498.00 14788743.00 L 3803429.00 14814847.00 L 3782694.26 14845880.00 L 3722418.00 14845880.00 L 2354120.00 13477582.00 L 2354121.00 12800000.00 L 2338269.00 12761731.00 L 850577.00 11274039.00 L 850577.00 10475960.97 L 1126237.12 10200300.24 L 1165209.00 10216443.00 A 327605.76 327605.76 0 1 0 1018348.00 10131652.00 L 1031623.69 10141838.92 L 758188.00 10415274.00 L 742337.00 10453545.41 L 742336.00 11296457.00 L 758188.00 11334726.00 L 2245880.00 12822418.00 L 2245879.00 13500000.00 L 2261731.00 13538269.00 L 3661731.00 14938269.00 L 3700002.41 14954120.00 L 3782694.26 14954120.00 L 3803429.00 14985153.00 L 3842498.00 15011257.00 L 3888582.00 15020424.00 L 4341338.00 15020424.00 L 4387422.00 15011257.00 L 4426491.00 14985153.00  zM 1250001.22 9899996.65 m -220780.35 0 a 220780.35 220780.35 0 1 1 441560.70 0a 220780.35 220780.35 0 1 1 -441560.70 0"/>
<path id="N" d="M 10812204.00 13905119.00 L 10704120.00 13905119.00 L 10704120.00 12941410.00 L 10688267.29 12903140.29 L 9642134.00 11857006.00 L 9603862.59 11841155.00 L 9541732.00 11841155.00 L 9541732.00 11789371.00 L 8990552.00 11789371.00 L 8990552.00 11966535.00 L 9541732.00 11966535.00 L 9541732.00 11949395.00 L 9581447.02 11949395.00 L 10595880.00 12963827.02 L 10595880.00 13905119.00 L 10204120.00 13905119.00 L 10204120.00 13349800.19 L 10211446.00 13348343.00 A 160563.76 160563.76 0 1 0 10088554.00 13348343.00 L 10095880.00 13349800.19 L 10095880.00 13905119.00 L 10087796.00 13905119.00 L 10087796.00 14613779.00 L 10812204.00 14613779.00 L 10812204.00 13905119.00  z"/>
<path id="N" d="M 11205905.00 8661024.00 L 11200970.00 8661024.00 L 11200971.00 8396850.00 L 11185119.00 8358581.00 L 10988269.00 8161731.00 L 10949997.59 8145880.00 L 10699800.19 8145880.00 L 10698343.00 8138554.00 A 160563.76 160563.76 0 1 0 10698343.00 8261446.00 L 10699800.19 8254120.00 L 10927582.00 8254120.00 L 11092730.00 8419268.00 L 11092730.00 8661024.00 L 11087795.00 8661024.00 L 11087795.00 9094094.00 L 11205905.00 9094094.00 L 11205905.00 8661024.00  z"/>
<path id="N" d="M 6763537.00 4636463.00 L 6745250.00 4624244.05 L 6745250.00 4481287.97 L 7225567.03 4000970.00 L 7330709.00 4000970.00 L 7330709.00 4005905.00 L 7724409.00 4005905.00 L 7724409.00 3887795.00 L 7330709.00 3887795.00 L 7330709.00 3892730.00 L 7203150.00 3892729.00 L 7164880.29 3908582.71 L 6652861.00 4420601.00 L 6637010.00 4458872.41 L 6637010.00 4592018.79 L 6588554.00 4601657.00 A 160563.76 160563.76 0 1 0 6763537.00 4636463.00  z"/>
<path id="N" d="M 8317722.98 8858328.88 m -8322112.26 0 a 8322112.26 8322112.26 0 1 1 16644224.51 0a 8322112.26 8322112.26 0 1 1 -16644224.51 0M 8317699.54 8858583.55 m -8216801.45 0 a 8216801.45 8216801.45 0 1 1 16433602.90 0a 8216801.45 8216801.45 0 1 1 -16433602.90 0"/>
<path id="N" d="M 6211417.00 14779576.00 L 5758661.00 14779576.00 A 120431.73 120431.73 0 0 0 5758661.00 15020424.00 L 6211417.00 15020424.00 A 120412.98 120412.98 0 0 0 6211417.00 14779576.00  z"/>
<path id="N" d="M 4341338.00 14279576.00 L 3888582.00 14279576.00 A 120431.73 120431.73 0 1 0 3888582.00 14520424.00 L 4341338.00 14520424.00 A 120412.98 120412.98 0 1 0 4341338.00 14279576.00  z"/>
<path id="N" d="M 11402756.00 9805906.00 L 11284646.00 9805906.00 L 11284646.00 10238976.00 L 11402756.00 10238976.00 L 11402756.00 9805906.00  z"/>
<path id="N" d="M 10594094.00 9390945.00 L 10161024.00 9390945.00 L 10161024.00 9509055.00 L 10594094.00 9509055.00 L 10594094.00 9390945.00  z"/>
<path id="N" d="M 10812205.00 8661024.00 L 10694095.00 8661024.00 L 10694095.00 9094094.00 L 10812205.00 9094094.00 L 10812205.00 8661024.00  z"/>
<path id="N" d="M 10615354.00 9805906.00 L 10497244.00 9805906.00 L 10497244.00 10238976.00 L 10615354.00 10238976.00 L 10615354.00 9805906.00  z"/>
<path id="N" d="M 11968504.00 6307874.00 L 11515748.00 6307874.00 L 11515748.00 6544094.00 L 11968504.00 6544094.00 L 11968504.00 6307874.00  z"/>
<path id="N" d="M 11009055.00 9805906.00 L 10890945.00 9805906.00 L 10890945.00 10238976.00 L 11009055.00 10238976.00 L 11009055.00 9805906.00  z"/>
<path id="N" d="M 8159055.00 2980709.00 L 8040945.00 2980709.00 L 8040945.00 3374409.00 L 8159055.00 3374409.00 L 8159055.00 2980709.00  z"/>
<path id="N" d="M 11009055.00 8661024.00 L 10890945.00 8661024.00 L 10890945.00 9094094.00 L 11009055.00 9094094.00 L 11009055.00 8661024.00  z"/>
<path id="N" d="M 10594094.00 9194095.00 L 10161024.00 9194095.00 L 10161024.00 9312205.00 L 10594094.00 9312205.00 L 10594094.00 9194095.00  z"/>
<path id="N" d="M 7962205.00 2980709.00 L 7844095.00 2980709.00 L 7844095.00 3374409.00 L 7962205.00 3374409.00 L 7962205.00 2980709.00  z"/>
<path id="N" d="M 4341338.00 15279576.00 L 3888582.00 15279576.00 L 3842498.00 15288743.00 L 3803429.00 15314847.00 L 3782694.26 15345880.00 L 3722417.01 15345880.00 L 1654120.00 13277582.01 L 1654120.00 13049800.19 L 1661446.00 13048343.00 A 160563.76 160563.76 0 1 0 1538554.00 13048343.00 L 1545880.00 13049800.19 L 1545879.00 13300000.00 L 1561731.00 13338269.00 L 3661731.00 15438269.00 L 3700000.00 15454120.00 L 3782694.26 15454120.00 L 3803429.00 15485153.00 L 3842498.00 15511257.00 L 3888582.00 15520424.00 L 4341338.00 15520424.00 A 120412.98 120412.98 0 0 0 4341338.00 15279576.00  z"/>
<path id="N" d="M 2250001.97 9900005.69 m -327599.99 0 a 327599.99 327599.99 0 1 1 655199.97 0a 327599.99 327599.99 0 1 1 -655199.97 0M 2250001.22 9899996.65 m -220780.35 0 a 220780.35 220780.35 0 1 1 441560.70 0a 220780.35 220780.35 0 1 1 -441560.70 0"/>
<path id="N" d="M 1250001.97 6900005.69 m -327599.99 0 a 327599.99 327599.99 0 1 1 655199.97 0a 327599.99 327599.99 0 1 1 -655199.97 0M 1250001.22 6899996.65 m -220780.35 0 a 220780.35 220780.35 0 1 1 441560.70 0a 220780.35 220780.35 0 1 1 -441560.70 0"/>
<path id="N" d="M 13313779.00 9837796.00 L 12605119.00 9837796.00 L 12605119.00 10145880.00 L 12180996.27 10145880.00 L 12154120.00 10119003.27 L 12154121.00 9747224.00 L 12138267.29 9708954.29 L 11850100.00 9420786.00 L 11811828.59 9404935.00 L 11738976.00 9404935.00 L 11738976.00 9390945.00 L 11305906.00 9390945.00 L 11305906.00 9509055.00 L 11421547.58 9509055.00 L 11431498.41 9513175.00 L 11789413.06 9513175.00 L 12045880.00 9769641.06 L 12045879.00 10141421.00 L 12061731.00 10179690.00 L 12120310.00 10238269.00 L 12158579.00 10254120.00 L 12605119.00 10254120.00 L 12605119.00 10562204.00 L 13313779.00 10562204.00 L 13313779.00 9837796.00  z"/>
<path id="N" d="M 7809448.00 11533465.00 L 7258268.00 11533465.00 L 7258268.00 11567927.00 L 6331007.27 11567927.00 L 6304131.00 11541050.27 L 6304132.00 11495392.00 L 6300010.00 11485440.90 L 6300010.00 11145181.00 L 6605328.81 11145181.00 L 6606786.00 11152507.00 A 160563.76 160563.76 0 1 0 6606786.00 11029615.00 L 6605328.81 11036941.00 L 6300010.00 11036941.00 L 6300010.00 10828857.00 L 5591350.00 10828857.00 L 5591350.00 11553265.00 L 6195891.00 11553265.00 L 6195890.00 11563468.00 L 6211742.00 11601737.00 L 6270321.00 11660316.00 L 6308590.00 11676167.00 L 7258268.00 11676167.00 L 7258268.00 11710629.00 L 7809448.00 11710629.00 L 7809448.00 11533465.00  z"/>
<path id="N" d="M 1250001.97 7900005.69 m -327599.99 0 a 327599.99 327599.99 0 1 1 655199.97 0a 327599.99 327599.99 0 1 1 -655199.97 0M 1250001.22 7899996.65 m -220780.35 0 a 220780.35 220780.35 0 1 1 441560.70 0a 220780.35 220780.35 0 1 1 -441560.70 0"/>
<path id="N" d="M 13362204.00 12505119.00 L 12637796.00 12505119.00 L 12637796.00 12805329.00 L 11381867.00 12805329.00 L 9904411.00 11327873.00 L 9866139.59 11312022.00 L 9541732.00 11312022.00 L 9541732.00 11277560.00 L 8990552.00 11277560.00 L 8990552.00 11454724.00 L 9541732.00 11454724.00 L 9541732.00 11420262.00 L 9843724.00 11420262.00 L 11321180.00 12897718.00 L 11359451.41 12913569.00 L 12637796.00 12913569.00 L 12637796.00 13213779.00 L 13362204.00 13213779.00 L 13362204.00 12505119.00  z"/>
<path id="N" d="M 2250001.97 8900005.69 m -327599.99 0 a 327599.99 327599.99 0 1 1 655199.97 0a 327599.99 327599.99 0 1 1 -655199.97 0M 2250001.22 8899996.65 m -220780.35 0 a 220780.35 220780.35 0 1 1 441560.70 0a 220780.35 220780.35 0 1 1 -441560.70 0"/>
<path id="N" d="M 13263779.00 11087796.00 L 12555119.00 11087796.00 L 12555119.00 11395880.00 L 12172418.00 11395880.00 L 11904120.00 11127582.00 L 11904120.00 9750000.00 L 11888267.29 9711730.29 L 11794174.00 9617636.00 L 11755902.59 9601785.00 L 11738976.00 9601785.00 L 11738976.00 9587795.00 L 11305906.00 9587795.00 L 11305906.00 9705905.00 L 11421547.58 9705905.00 L 11431498.41 9710025.00 L 11733487.17 9710025.00 L 11795880.00 9772417.17 L 11795879.00 11150000.00 L 11811731.00 11188269.00 L 12111731.00 11488269.00 L 12150000.00 11504120.00 L 12555119.00 11504120.00 L 12555119.00 11812204.00 L 13263779.00 11812204.00 L 13263779.00 11087796.00  z"/>
<path id="N" d="M 12062204.00 13205119.00 L 11414333.16 13205119.00 L 9792993.00 11583778.00 L 9754721.59 11567927.00 L 9541732.00 11567927.00 L 9541732.00 11533465.00 L 8990552.00 11533465.00 L 8990552.00 11567927.00 L 8844464.13 11567927.00 L 8754120.00 11477582.13 L 8754120.00 11272419.00 L 8922419.00 11104120.00 L 9727582.16 11104120.00 L 9811731.00 11188269.00 L 9850000.00 11204120.00 L 10150199.81 11204120.00 L 10151657.00 11211446.00 A 160563.76 160563.76 0 1 0 10151657.00 11088554.00 L 10150199.81 11095880.00 L 9872417.16 11095880.00 L 9788269.00 11011731.00 L 9749997.59 10995880.00 L 8900001.00 10995880.00 L 8861732.00 11011731.00 L 8661731.00 11211732.00 L 8645880.00 11250003.41 L 8645879.00 11500000.00 L 8661731.00 11538269.00 L 8783778.00 11660316.00 L 8822049.41 11676167.00 L 8990552.00 11676167.00 L 8990552.00 11710629.00 L 9541732.00 11710629.00 L 9541732.00 11676167.00 L 9732306.01 11676167.00 L 11337796.00 13281656.16 L 11337796.00 13913779.00 L 12062204.00 13913779.00 L 12062204.00 13205119.00  z"/>
<path id="N" d="M 6798343.00 3938554.00 L 6794193.60 3932343.97 L 6919267.06 3807270.00 L 7228173.00 3807270.00 L 7235778.03 3804120.00 L 7330709.00 3804120.00 L 7330709.00 3809055.00 L 7724409.00 3809055.00 L 7724409.00 3690945.00 L 7330709.00 3690945.00 L 7330709.00 3695880.00 L 7228173.00 3695880.00 L 7220567.97 3699030.00 L 6896850.00 3699029.00 L 6858580.29 3714882.71 L 6717656.03 3855806.40 L 6711446.00 3851657.00 A 160570.62 160570.62 0 1 0 6798343.00 3938554.00  z"/>
<path id="N" d="M 11738976.00 9254719.89 L 12038269.00 8955427.00 L 12054120.00 8917158.00 L 12054120.00 8149800.19 L 12061446.00 8148343.00 A 160563.76 160563.76 0 1 0 11938554.00 8148343.00 L 11945880.00 8149800.19 L 11945880.00 8894740.95 L 11646525.06 9194095.00 L 11305906.00 9194095.00 L 11305906.00 9312205.00 L 11738976.00 9312205.00 L 11738976.00 9254719.89  z"/>
<path id="N" d="M 6296570.00 13985153.00 L 6317304.74 13954120.00 L 6550000.00 13954121.00 L 6588269.00 13938269.00 L 6822417.06 13704120.00 L 6995670.00 13704120.00 L 6995670.00 13854724.00 L 7704330.00 13854724.00 L 7704330.00 13804120.00 L 8470941.00 13804120.00 L 8470941.00 13844882.00 L 9179601.00 13844882.00 L 9179601.00 13451182.00 L 8470941.00 13451182.00 L 8470941.00 13695880.00 L 7704330.00 13695880.00 L 7704330.00 13461024.00 L 6995670.00 13461024.00 L 6995670.00 13595880.00 L 6800000.00 13595880.00 L 6761730.29 13611732.71 L 6527582.06 13845880.00 L 6317304.74 13845880.00 L 6296570.00 13814847.00 L 6257501.00 13788743.00 L 6211417.00 13779576.00 L 5758661.00 13779576.00 A 120431.73 120431.73 0 0 0 5758661.00 14020424.00 L 6211417.00 14020424.00 L 6257501.00 14011257.00 L 6296570.00 13985153.00  z"/>
<path id="N" d="M 2574803.00 6575197.00 L 1925197.00 6575197.00 L 1925197.00 7224803.00 L 2574803.00 7224803.00 L 2574803.00 6575197.00  zM 2250001.22 6899996.65 m -220780.35 0 a 220780.35 220780.35 0 1 1 441560.70 0a 220780.35 220780.35 0 1 1 -441560.70 0"/>
<path id="N" d="M 9891025.00 4688269.00 L 10072208.00 4507086.00 L 10704330.00 4507086.00 L 10704330.00 4113386.00 L 9995670.00 4113386.00 L 9995670.00 4430548.00 L 9830338.00 4595880.00 L 8472417.10 4595880.00 L 8355905.00 4479367.14 L 8355905.00 4125591.00 L 8237795.00 4125591.00 L 8237795.00 4519291.00 L 8252024.64 4519291.00 L 8258581.00 4535119.00 L 8411731.00 4688269.00 L 8450002.41 4704120.00 L 9852756.00 4704121.00 L 9891025.00 4688269.00  z"/>
<path id="N" d="M 9244881.00 6872207.99 L 9636984.04 6480104.00 L 10531496.00 6480104.00 L 10531496.00 6544094.00 L 10984252.00 6544094.00 L 10984252.00 6307874.00 L 10531496.00 6307874.00 L 10531496.00 6371864.00 L 9614567.00 6371863.00 L 9576297.29 6387716.71 L 9176217.03 6787796.00 L 8536221.00 6787796.00 L 8536221.00 7512204.00 L 9244881.00 7512204.00 L 9244881.00 6872207.99  z"/>
</g>
</svg>
