<svg width="42.00000236mm" height="42.00000236mm" viewBox="0 0 16535434 16535434"  version="1.1" xmlns="http://www.w3.org/2000/svg" xmlns:xlink="http://www.w3.org/1999/xlink">
<desc>
Origin 0 0 Bound 50000 590551 16535434 16535434
</desc>
<g fill-rule="evenodd" fill="rgb(128, 128, 0)" stroke="black" stroke-width="1" transform="translate(0, 16535434) scale(1, -1) translate(-50000, -590551)">
<path id="N" d="M 9501166.71 10420491.29 L 9566762.00 10354897.00 L 9579243.00 10324764.00 L 9579243.00 10193573.00 L 9566760.29 10163439.29 L 9501166.00 10097845.00 L 9471033.00 10085364.00 L 9339842.00 10085364.00 L 9309708.29 10097846.71 L 9244114.00 10163440.00 L 9231633.00 10193573.00 L 9231633.00 10219546.45 L 9225709.00 10215588.00 A 64093.81 64093.81 0 1 0 9225709.00 10334018.00 L 9233350.93 10328911.62 L 9244114.00 10354897.00 L 9274247.00 10367378.00 L 9304380.00 10354897.00 L 9316861.00 10324764.00 L 9316861.00 10211224.81 L 9357493.19 10170592.00 L 9362824.00 10170592.00 L 9362824.00 10390360.00 L 9375305.00 10420493.00 L 9405438.00 10432974.00 L 9471033.00 10432975.00 L 9501166.71 10420491.29  zM 9453381.81 10347746.00 L 9448052.00 10347746.00 L 9448052.00 10170592.00 L 9453382.19 10170592.00 L 9494015.00 10211224.19 L 9494015.00 10307112.19 L 9453381.81 10347746.00  z"/>
<path id="N" d="M 9501166.71 8911795.29 L 9566762.00 8846201.00 L 9579243.00 8816068.00 L 9579243.00 8684877.00 L 9566760.29 8654743.29 L 9501166.00 8589149.00 L 9471033.00 8576668.00 L 9339842.00 8576668.00 L 9309708.29 8589150.71 L 9244114.00 8654744.00 L 9231633.00 8684877.00 L 9231633.00 8816068.00 L 9244114.00 8846201.00 L 9274247.00 8858682.00 L 9304380.00 8846201.00 L 9316861.00 8816068.00 L 9316861.00 8702528.81 L 9357493.19 8661896.00 L 9362824.00 8661896.00 L 9362824.00 8881664.00 L 9375305.00 8911797.00 L 9405438.00 8924278.00 L 9471033.00 8924279.00 L 9501166.71 8911795.29  zM 9453381.81 8839050.00 L 9448052.00 8839050.00 L 9448052.00 8661896.00 L 9453382.19 8661896.00 L 9494015.00 8702528.19 L 9494015.00 8798416.19 L 9453381.81 8839050.00  z"/>
<path id="N" d="M 9501166.71 9305368.29 L 9566762.00 9239774.00 L 9579243.00 9209641.00 L 9579243.00 9078450.00 L 9566762.00 9048317.00 L 9536629.00 9035836.00 L 9506496.00 9048317.00 L 9494015.00 9078450.00 L 9494015.00 9191989.19 L 9453381.81 9232623.00 L 9448052.00 9232623.00 L 9448052.00 9078450.00 L 9435569.29 9048316.29 L 9369974.00 8982722.00 L 9339842.00 8970241.00 L 9309709.00 8982723.00 L 9244114.00 9048317.00 L 9231633.00 9078450.00 L 9231633.00 9275237.00 L 9244114.00 9305370.00 L 9274247.00 9317851.00 L 9471033.00 9317852.00 L 9501166.71 9305368.29  zM 9362824.00 9232623.00 L 9316861.00 9232623.00 L 9316861.00 9096101.81 L 9339842.46 9073120.00 L 9362824.00 9096101.19 L 9362824.00 9232623.00  z"/>
<path id="N" d="M 9501166.71 10814064.29 L 9566762.00 10748470.00 L 9579243.00 10718337.00 L 9579243.00 10587146.00 L 9566762.00 10557013.00 L 9536629.00 10544532.00 L 9506496.00 10557013.00 L 9494015.00 10587146.00 L 9494015.00 10700685.19 L 9453381.81 10741319.00 L 9448052.00 10741319.00 L 9448052.00 10587146.00 L 9435569.29 10557012.29 L 9369974.00 10491418.00 L 9339842.00 10478937.00 L 9309709.00 10491419.00 L 9244114.00 10557013.00 L 9231633.00 10587146.00 L 9231633.00 10783933.00 L 9244114.00 10814066.00 L 9274247.00 10826547.00 L 9471033.00 10826548.00 L 9501166.71 10814064.29  zM 9362824.00 10741319.00 L 9316861.00 10741319.00 L 9316861.00 10604797.81 L 9339842.46 10581816.00 L 9362824.00 10604797.19 L 9362824.00 10741319.00  z"/>
<path id="N" d="M 9566762.00 9567752.00 L 9579243.00 9537619.00 L 9579243.00 9514637.00 L 9602224.00 9514637.00 L 9632357.00 9502156.00 L 9644838.00 9472023.00 L 9632357.00 9441890.00 L 9602224.00 9429409.00 L 9579243.00 9429409.00 L 9579243.00 9406428.00 L 9566762.00 9376295.00 L 9536629.00 9363814.00 L 9506496.00 9376295.00 L 9494015.00 9406428.00 L 9494015.00 9429409.00 L 9339842.00 9429409.00 L 9309708.29 9441891.71 L 9244114.00 9507487.00 L 9231633.00 9537619.00 L 9244115.00 9567752.00 L 9274247.00 9580233.00 L 9304380.00 9567751.00 L 9357493.19 9514637.00 L 9494015.00 9514637.00 L 9494015.00 9537619.00 L 9506496.00 9567752.00 L 9536629.00 9580233.00 L 9566762.00 9567752.00  z"/>
<path id="N" d="M 9566762.00 11076448.00 L 9579243.00 11046315.00 L 9579243.00 11023333.00 L 9602224.00 11023333.00 L 9632357.00 11010852.00 L 9644838.00 10980719.00 L 9632357.00 10950586.00 L 9602224.00 10938105.00 L 9579243.00 10938105.00 L 9579243.00 10915124.00 L 9566762.00 10884991.00 L 9536629.00 10872510.00 L 9506496.00 10884991.00 L 9494015.00 10915124.00 L 9494015.00 10938105.00 L 9339842.00 10938105.00 L 9309708.29 10950587.71 L 9244114.00 11016183.00 L 9231633.00 11046315.00 L 9244115.00 11076448.00 L 9274247.00 11088929.00 L 9304380.00 11076447.00 L 9357493.19 11023333.00 L 9494015.00 11023333.00 L 9494015.00 11046315.00 L 9506496.00 11076448.00 L 9536629.00 11088929.00 L 9566762.00 11076448.00  z"/>
<path id="N" d="M 9697953.00 8518224.00 L 9710434.00 8488091.00 L 9697953.00 8457958.00 L 9667820.00 8445477.00 L 9513647.00 8445477.00 L 9513647.00 8268323.00 L 9667820.00 8268323.00 L 9697953.00 8255842.00 L 9710434.00 8225709.00 L 9697953.00 8195576.00 L 9667820.00 8183095.00 L 9274247.00 8183095.00 L 9244114.00 8195576.00 L 9231633.00 8225709.00 L 9244114.00 8255842.00 L 9274247.00 8268323.00 L 9428419.00 8268323.00 L 9428419.00 8445477.00 L 9274247.00 8445477.00 L 9244114.00 8457958.00 L 9231633.00 8488091.00 L 9244114.00 8518224.00 L 9274247.00 8530705.00 L 9667820.00 8530705.00 L 9697953.00 8518224.00  z"/>
<path id="N" d="M 9501166.00 10026920.00 L 9566762.00 9961324.00 L 9579243.00 9931188.59 L 9579243.00 9777019.00 L 9667820.00 9777019.00 L 9697953.00 9764538.00 L 9710434.00 9734405.00 L 9697953.00 9704272.00 L 9667820.00 9691791.00 L 9274247.00 9691791.00 L 9244114.00 9704272.00 L 9231633.00 9734405.00 L 9231633.00 9931191.00 L 9244115.71 9961324.71 L 9309709.00 10026920.00 L 9339842.00 10039401.00 L 9471033.00 10039401.00 L 9501166.00 10026920.00  zM 9453381.19 9954173.00 L 9357493.19 9954173.00 L 9316861.00 9913540.19 L 9316861.00 9777019.00 L 9494015.00 9777019.00 L 9494015.00 9913539.81 L 9453381.19 9954173.00  z"/>
<path id="N" d="M 9304380.00 11404425.00 L 9316861.00 11374292.00 L 9316861.00 11351310.00 L 9667820.00 11351310.00 L 9697953.00 11338829.00 L 9710434.00 11308696.00 L 9697951.29 11278562.29 L 9632356.00 11212968.00 L 9602224.00 11200487.00 L 9572091.00 11212969.00 L 9559610.00 11243101.00 L 9569129.43 11266082.00 L 9316861.00 11266082.00 L 9316861.00 11243101.00 L 9304380.00 11212968.00 L 9274247.00 11200487.00 L 9244114.00 11212968.00 L 9231633.00 11243101.00 L 9231633.00 11374292.00 L 9244114.00 11404425.00 L 9274247.00 11416906.00 L 9304380.00 11404425.00  z"/>
<path id="N" d="M 9007298.00 8177771.00 L 9019779.00 8147638.00 L 9007298.00 8117505.00 L 8977165.00 8105024.00 L 7677953.00 8105024.00 L 7647820.00 8117505.00 L 7635339.00 8147638.00 L 7647820.00 8177771.00 L 7677953.00 8190252.00 L 8977165.00 8190252.00 L 9007298.00 8177771.00  z"/>
<path id="N" d="M 9007298.00 10382495.00 L 9019779.00 10352362.00 L 9007298.00 10322229.00 L 8977165.00 10309748.00 L 7677953.00 10309748.00 L 7647820.00 10322229.00 L 7635339.00 10352362.00 L 7647820.00 10382495.00 L 7677953.00 10394976.00 L 8977165.00 10394976.00 L 9007298.00 10382495.00  z"/>
</g>
</svg>
