<svg width="42.00000236mm" height="42.00000236mm" viewBox="0 0 16535434 16535434"  version="1.1" xmlns="http://www.w3.org/2000/svg" xmlns:xlink="http://www.w3.org/1999/xlink">
<desc>
Origin 0 0 Bound 50000 590551 16535434 16535434
</desc>
<g fill-rule="evenodd" fill="rgb(128, 0, 128)" stroke="black" stroke-width="1" transform="translate(0, 16535434) scale(1, -1) translate(-50000, -590551)">
<path id="N" d="M 8317696.44 8858151.95 m -8272263.15 0 a 8272263.15 8272263.15 0 1 1 16544526.29 0a 8272263.15 8272263.15 0 1 1 -16544526.29 0M 4752204.00 3403779.00 L 3947796.00 3403779.00 L 3947796.00 2615119.00 L 4752204.00 2615119.00 L 4752204.00 3403779.00  zM 6202204.00 3903779.00 L 5397796.00 3903779.00 L 5397796.00 3115119.00 L 6202204.00 3115119.00 L 6202204.00 3903779.00  zM 6576614.00 2394330.00 L 6102914.00 2394330.00 L 6102914.00 1605670.00 L 6576614.00 1605670.00 L 6576614.00 2394330.00  zM 7764409.00 4242756.00 L 7290709.00 4242756.00 L 7290709.00 3257244.00 L 7764409.00 3257244.00 L 7764409.00 4242756.00  zM 7797086.00 2394330.00 L 7323386.00 2394330.00 L 7323386.00 1605670.00 L 7797086.00 1605670.00 L 7797086.00 2394330.00  zM 8395905.00 3414409.00 L 7804095.00 3414409.00 L 7804095.00 2940709.00 L 8395905.00 2940709.00 L 8395905.00 3414409.00  zM 8050000.43 3750000.13 m -201348.87 0 a 201348.87 201348.87 0 1 1 402697.73 0a 201348.87 201348.87 0 1 1 -402697.73 0M 4752204.00 4584881.00 L 3947796.00 4584881.00 L 3947796.00 3796221.00 L 4752204.00 3796221.00 L 4752204.00 4584881.00  zM 6202204.00 5084881.00 L 5397796.00 5084881.00 L 5397796.00 4296221.00 L 6202204.00 4296221.00 L 6202204.00 5084881.00  zM 6650000.43 4000000.13 m -201348.87 0 a 201348.87 201348.87 0 1 1 402697.73 0a 201348.87 201348.87 0 1 1 -402697.73 0M 6650000.43 4750000.13 m -201348.87 0 a 201348.87 201348.87 0 1 1 402697.73 0a 201348.87 201348.87 0 1 1 -402697.73 0M 8395905.00 4559291.00 L 7804095.00 4559291.00 L 7804095.00 4085591.00 L 8395905.00 4085591.00 L 8395905.00 4559291.00  zM 7926614.00 6294330.00 L 7452914.00 6294330.00 L 7452914.00 5505670.00 L 7926614.00 5505670.00 L 7926614.00 6294330.00  zM 1250002.83 6899987.00 m -367964.00 0 a 367964.00 367964.00 0 1 1 735927.99 0a 367964.00 367964.00 0 1 1 -735927.99 0M 2250002.83 7899987.00 m -367964.00 0 a 367964.00 367964.00 0 1 1 735927.99 0a 367964.00 367964.00 0 1 1 -735927.99 0M 1250002.83 7899987.00 m -367964.00 0 a 367964.00 367964.00 0 1 1 735927.99 0a 367964.00 367964.00 0 1 1 -735927.99 0M 1250002.83 8899987.00 m -367964.00 0 a 367964.00 367964.00 0 1 1 735927.99 0a 367964.00 367964.00 0 1 1 -735927.99 0M 2614803.00 7264803.00 L 1885197.00 7264803.00 L 1885197.00 6535197.00 L 2614803.00 6535197.00 L 2614803.00 7264803.00  zM 4976614.00 6694330.00 L 4502914.00 6694330.00 L 4502914.00 5905670.00 L 4976614.00 5905670.00 L 4976614.00 6694330.00  zM 4976614.00 7919600.00 L 4502914.00 7919600.00 L 4502914.00 7130940.00 L 4976614.00 7130940.00 L 4976614.00 7919600.00  zM 6197086.00 6694330.00 L 5723386.00 6694330.00 L 5723386.00 5905670.00 L 6197086.00 5905670.00 L 6197086.00 6694330.00  zM 6197086.00 7919600.00 L 5723386.00 7919600.00 L 5723386.00 7130940.00 L 6197086.00 7130940.00 L 6197086.00 7919600.00  zM 4976614.00 9167913.00 L 4502914.00 9167913.00 L 4502914.00 8379253.00 L 4976614.00 8379253.00 L 4976614.00 9167913.00  zM 8103779.00 7552204.00 L 7315119.00 7552204.00 L 7315119.00 6747796.00 L 8103779.00 6747796.00 L 8103779.00 7552204.00  zM 6750000.43 8725270.13 m -201348.87 0 a 201348.87 201348.87 0 1 1 402697.73 0a 201348.87 201348.87 0 1 1 -402697.73 0M 6197086.00 9167913.00 L 5723386.00 9167913.00 L 5723386.00 8379253.00 L 6197086.00 8379253.00 L 6197086.00 9167913.00  zM 9086850.00 2394330.00 L 8613150.00 2394330.00 L 8613150.00 1605670.00 L 9086850.00 1605670.00 L 9086850.00 2394330.00  zM 10307322.00 2394330.00 L 9833622.00 2394330.00 L 9833622.00 1605670.00 L 10307322.00 1605670.00 L 10307322.00 2394330.00  zM 9550000.43 2700000.13 m -201348.87 0 a 201348.87 201348.87 0 1 1 402697.73 0a 201348.87 201348.87 0 1 1 -402697.73 0M 8909291.00 4242756.00 L 8435591.00 4242756.00 L 8435591.00 3257244.00 L 8909291.00 3257244.00 L 8909291.00 4242756.00  zM 9500000.43 4100000.13 m -201348.87 0 a 201348.87 201348.87 0 1 1 402697.73 0a 201348.87 201348.87 0 1 1 -402697.73 0M 10744330.00 4547086.00 L 9955670.00 4547086.00 L 9955670.00 4073386.00 L 10744330.00 4073386.00 L 10744330.00 4547086.00  zM 9147086.00 6294330.00 L 8673386.00 6294330.00 L 8673386.00 5505670.00 L 9147086.00 5505670.00 L 9147086.00 6294330.00  zM 10744330.00 3326614.00 L 9955670.00 3326614.00 L 9955670.00 2852914.00 L 10744330.00 2852914.00 L 10744330.00 3326614.00  zM 11024252.00 6584094.00 L 10491496.00 6584094.00 L 10491496.00 6267874.00 L 11024252.00 6267874.00 L 11024252.00 6584094.00  zM 12008504.00 6584094.00 L 11475748.00 6584094.00 L 11475748.00 6267874.00 L 12008504.00 6267874.00 L 12008504.00 6584094.00  zM 13276614.00 6244330.00 L 12802914.00 6244330.00 L 12802914.00 5455670.00 L 13276614.00 5455670.00 L 13276614.00 6244330.00  zM 14497086.00 6244330.00 L 14023386.00 6244330.00 L 14023386.00 5455670.00 L 14497086.00 5455670.00 L 14497086.00 6244330.00  zM 15450000.43 5800000.13 m -201348.87 0 a 201348.87 201348.87 0 1 1 402697.73 0a 201348.87 201348.87 0 1 1 -402697.73 0M 9284881.00 7552204.00 L 8496221.00 7552204.00 L 8496221.00 6747796.00 L 9284881.00 6747796.00 L 9284881.00 7552204.00  zM 10550000.43 8200000.13 m -201348.87 0 a 201348.87 201348.87 0 1 1 402697.73 0a 201348.87 201348.87 0 1 1 -402697.73 0M 11024252.00 7332126.00 L 10491496.00 7332126.00 L 10491496.00 7015906.00 L 11024252.00 7015906.00 L 11024252.00 7332126.00  zM 11024252.00 6958110.00 L 10491496.00 6958110.00 L 10491496.00 6641890.00 L 11024252.00 6641890.00 L 11024252.00 6958110.00  zM 11450000.43 8100000.13 m -201348.87 0 a 201348.87 201348.87 0 1 1 402697.73 0a 201348.87 201348.87 0 1 1 -402697.73 0M 11442756.00 9134094.00 L 10457244.00 9134094.00 L 10457244.00 8621024.00 L 11442756.00 8621024.00 L 11442756.00 9134094.00  zM 12008504.00 7332126.00 L 11475748.00 7332126.00 L 11475748.00 7015906.00 L 12008504.00 7015906.00 L 12008504.00 7332126.00  zM 12000000.43 8000000.13 m -201348.87 0 a 201348.87 201348.87 0 1 1 402697.73 0a 201348.87 201348.87 0 1 1 -402697.73 0M 13326614.00 9044330.00 L 12852914.00 9044330.00 L 12852914.00 8255670.00 L 13326614.00 8255670.00 L 13326614.00 9044330.00  zM 13386850.00 7594330.00 L 12913150.00 7594330.00 L 12913150.00 6805670.00 L 13386850.00 6805670.00 L 13386850.00 7594330.00  zM 14607322.00 7594330.00 L 14133622.00 7594330.00 L 14133622.00 6805670.00 L 14607322.00 6805670.00 L 14607322.00 7594330.00  zM 14547086.00 9044330.00 L 14073386.00 9044330.00 L 14073386.00 8255670.00 L 14547086.00 8255670.00 L 14547086.00 9044330.00  zM 1250002.83 9899987.00 m -367964.00 0 a 367964.00 367964.00 0 1 1 735927.99 0a 367964.00 367964.00 0 1 1 -735927.99 0M 2250002.83 8899987.00 m -367964.00 0 a 367964.00 367964.00 0 1 1 735927.99 0a 367964.00 367964.00 0 1 1 -735927.99 0M 1250002.83 10899987.00 m -367964.00 0 a 367964.00 367964.00 0 1 1 735927.99 0a 367964.00 367964.00 0 1 1 -735927.99 0M 2250002.83 10899987.00 m -367964.00 0 a 367964.00 367964.00 0 1 1 735927.99 0a 367964.00 367964.00 0 1 1 -735927.99 0M 2250002.83 9899987.00 m -367964.00 0 a 367964.00 367964.00 0 1 1 735927.99 0a 367964.00 367964.00 0 1 1 -735927.99 0M 4976614.00 10394330.00 L 4502914.00 10394330.00 L 4502914.00 9605670.00 L 4976614.00 9605670.00 L 4976614.00 10394330.00  zM 5158908.00 11593265.00 L 4370248.00 11593265.00 L 4370248.00 10788857.00 L 5158908.00 10788857.00 L 5158908.00 11593265.00  zM 6197086.00 10394330.00 L 5723386.00 10394330.00 L 5723386.00 9605670.00 L 6197086.00 9605670.00 L 6197086.00 10394330.00  zM 6750000.43 9523583.13 m -201348.87 0 a 201348.87 201348.87 0 1 1 402697.73 0a 201348.87 201348.87 0 1 1 -402697.73 0M 7150000.43 9850000.13 m -201348.87 0 a 201348.87 201348.87 0 1 1 402697.73 0a 201348.87 201348.87 0 1 1 -402697.73 0M 6340010.00 11593265.00 L 5551350.00 11593265.00 L 5551350.00 10788857.00 L 6340010.00 10788857.00 L 6340010.00 11593265.00  zM 6755129.43 11091061.13 m -201348.87 0 a 201348.87 201348.87 0 1 1 402697.73 0a 201348.87 201348.87 0 1 1 -402697.73 0M 6800000.43 10453986.13 m -201348.87 0 a 201348.87 201348.87 0 1 1 402697.73 0a 201348.87 201348.87 0 1 1 -402697.73 0M 1600000.43 12900000.13 m -201348.87 0 a 201348.87 201348.87 0 1 1 402697.73 0a 201348.87 201348.87 0 1 1 -402697.73 0M 4341338.00 14061208.00 L 3888582.00 14061208.00 A 161201.22 161201.22 0 0 1 3888582.00 13738792.00 L 4341338.00 13738792.00 A 161201.22 161201.22 0 0 1 4341338.00 14061208.00  zM 4341338.00 15061208.00 L 3888582.00 15061208.00 A 161201.22 161201.22 0 0 1 3888582.00 14738792.00 L 4341338.00 14738792.00 A 161201.22 161201.22 0 0 1 4341338.00 15061208.00  zM 4341338.00 15561208.00 L 3888582.00 15561208.00 A 161201.22 161201.22 0 0 1 3888582.00 15238792.00 L 4341338.00 15238792.00 A 161201.22 161201.22 0 0 1 4341338.00 15561208.00  zM 5153779.00 12806190.00 L 4365119.00 12806190.00 L 4365119.00 12001782.00 L 5153779.00 12001782.00 L 5153779.00 12806190.00  zM 4341338.00 14561208.00 L 3888582.00 14561208.00 A 161201.22 161201.22 0 1 1 3888582.00 14238792.00 L 4341338.00 14238792.00 A 161201.22 161201.22 0 1 1 4341338.00 14561208.00  zM 6334881.00 12806190.00 L 5546221.00 12806190.00 L 5546221.00 12001782.00 L 6334881.00 12001782.00 L 6334881.00 12806190.00  zM 6211417.00 14061208.00 L 5758661.00 14061208.00 A 161201.22 161201.22 0 0 1 5758661.00 13738792.00 L 6211417.00 13738792.00 A 161201.22 161201.22 0 0 1 6211417.00 14061208.00  zM 6211417.00 14561208.00 L 5758661.00 14561208.00 A 161201.22 161201.22 0 1 1 5758661.00 14238792.00 L 6211417.00 14238792.00 A 161201.22 161201.22 0 1 1 6211417.00 14561208.00  zM 7704330.00 14838976.00 L 6995670.00 14838976.00 L 6995670.00 14445276.00 L 7704330.00 14445276.00 L 7704330.00 14838976.00  zM 6211417.00 15061208.00 L 5758661.00 15061208.00 A 161201.22 161201.22 0 0 1 5758661.00 14738792.00 L 6211417.00 14738792.00 A 161201.22 161201.22 0 0 1 6211417.00 15061208.00  zM 6211417.00 15561208.00 L 5758661.00 15561208.00 A 161201.22 161201.22 0 0 1 5758661.00 15238792.00 L 6211417.00 15238792.00 A 161201.22 161201.22 0 0 1 6211417.00 15561208.00  zM 7176614.00 16494330.00 L 6702914.00 16494330.00 L 6702914.00 15705670.00 L 7176614.00 15705670.00 L 7176614.00 16494330.00  zM 7849448.00 12262440.00 L 7218268.00 12262440.00 L 7218268.00 11237560.00 L 7849448.00 11237560.00 L 7849448.00 12262440.00  zM 9581732.00 12262440.00 L 8950552.00 12262440.00 L 8950552.00 11237560.00 L 9581732.00 11237560.00 L 9581732.00 12262440.00  zM 10634094.00 9745905.00 L 10121024.00 9745905.00 L 10121024.00 9154095.00 L 10634094.00 9154095.00 L 10634094.00 9745905.00  zM 10300000.43 11150000.13 m -201348.87 0 a 201348.87 201348.87 0 1 1 402697.73 0a 201348.87 201348.87 0 1 1 -402697.73 0M 10950000.43 9450000.13 m -201348.87 0 a 201348.87 201348.87 0 1 1 402697.73 0a 201348.87 201348.87 0 1 1 -402697.73 0M 11778976.00 9745905.00 L 11265906.00 9745905.00 L 11265906.00 9154095.00 L 11778976.00 9154095.00 L 11778976.00 9745905.00  zM 11376142.00 10336249.00 L 11414410.80 10278976.00 L 10457244.00 10278976.00 L 10457244.00 9765906.00 L 11442756.00 9765906.00 L 11442756.00 10255580.86 L 11485111.00 10227280.00 A 201346.70 201346.70 0 1 1 11376142.00 10336249.00  zM 12550000.43 9350000.13 m -201348.87 0 a 201348.87 201348.87 0 1 1 402697.73 0a 201348.87 201348.87 0 1 1 -402697.73 0M 13353779.00 10602204.00 L 12565119.00 10602204.00 L 12565119.00 9797796.00 L 13353779.00 9797796.00 L 13353779.00 10602204.00  zM 14534881.00 10602204.00 L 13746221.00 10602204.00 L 13746221.00 9797796.00 L 14534881.00 9797796.00 L 14534881.00 10602204.00  zM 13303779.00 11852204.00 L 12515119.00 11852204.00 L 12515119.00 11047796.00 L 13303779.00 11047796.00 L 13303779.00 11852204.00  zM 14484881.00 11852204.00 L 13696221.00 11852204.00 L 13696221.00 11047796.00 L 14484881.00 11047796.00 L 14484881.00 11852204.00  zM 13402204.00 13253779.00 L 12597796.00 13253779.00 L 12597796.00 12465119.00 L 13402204.00 12465119.00 L 13402204.00 13253779.00  zM 7500000.43 12950000.13 m -201348.87 0 a 201348.87 201348.87 0 1 1 402697.73 0a 201348.87 201348.87 0 1 1 -402697.73 0M 7704330.00 13854724.00 L 6995670.00 13854724.00 L 6995670.00 13461024.00 L 7704330.00 13461024.00 L 7704330.00 13854724.00  zM 9219601.00 13884882.00 L 8430941.00 13884882.00 L 8430941.00 13411182.00 L 9219601.00 13411182.00 L 9219601.00 13884882.00  zM 9219601.00 15105354.00 L 8430941.00 15105354.00 L 8430941.00 14631654.00 L 9219601.00 14631654.00 L 9219601.00 15105354.00  zM 8397086.00 16494330.00 L 7923386.00 16494330.00 L 7923386.00 15705670.00 L 8397086.00 15705670.00 L 8397086.00 16494330.00  zM 9150000.43 16450000.13 m -201348.87 0 a 201348.87 201348.87 0 1 1 402697.73 0a 201348.87 201348.87 0 1 1 -402697.73 0M 10150000.43 13200000.13 m -201348.87 0 a 201348.87 201348.87 0 1 1 402697.73 0a 201348.87 201348.87 0 1 1 -402697.73 0M 10852204.00 14653779.00 L 10047796.00 14653779.00 L 10047796.00 13865119.00 L 10852204.00 13865119.00 L 10852204.00 14653779.00  zM 10852204.00 15834881.00 L 10047796.00 15834881.00 L 10047796.00 15046221.00 L 10852204.00 15046221.00 L 10852204.00 15834881.00  zM 12102204.00 13953779.00 L 11297796.00 13953779.00 L 11297796.00 13165119.00 L 12102204.00 13165119.00 L 12102204.00 13953779.00  zM 12102204.00 15134881.00 L 11297796.00 15134881.00 L 11297796.00 14346221.00 L 12102204.00 14346221.00 L 12102204.00 15134881.00  zM 13402204.00 14434881.00 L 12597796.00 14434881.00 L 12597796.00 13646221.00 L 13402204.00 13646221.00 L 13402204.00 14434881.00  z"/>
</g>
</svg>
