<svg width="42.00000236mm" height="42.00000236mm" viewBox="0 0 16535434 16535434"  version="1.1" xmlns="http://www.w3.org/2000/svg" xmlns:xlink="http://www.w3.org/1999/xlink">
<desc>
Origin 0 0 Bound 286220 50000 16535434 16535434
</desc>
<g fill-rule="evenodd" fill="rgb(255, 0, 0)" stroke="black" stroke-width="1" transform="translate(0, 16535434) scale(1, -1) translate(-286220, -50000)">
<path id="N" d="M 12677162.35 13937001.57 m -297829.90 0 a 297829.90 297829.90 0 1 1 595659.80 0a 297829.90 297829.90 0 1 1 -595659.80 0M 12677165.36 13937008.47 m -200706.53 0 a 200706.53 200706.53 0 1 1 401413.05 0a 200706.53 200706.53 0 1 1 -401413.05 0"/>
<path id="N" d="M 9330709.00 3209646.00 L 9325774.00 3209646.00 L 9325775.00 2575455.00 L 9312793.88 2544116.72 L 9324632.00 2526399.00 A 120419.38 120419.38 0 1 0 9213375.00 2600739.00 L 9217534.00 2599911.69 L 9217534.00 3209646.00 L 9212599.00 3209646.00 L 9212599.00 3662402.00 L 9330709.00 3662402.00 L 9330709.00 3209646.00  z"/>
<path id="N" d="M 5708669.16 9291347.16 m -120412.98 0 a 120412.98 120412.98 0 1 1 240825.96 0a 120412.98 120412.98 0 1 1 -240825.96 0"/>
<path id="N" d="M 14448819.00 6960631.00 L 13863134.00 6960631.00 L 13863134.00 6870079.00 L 13844412.00 6824880.00 L 13775515.00 6755983.00 L 13751854.53 6746182.53 L 13654281.00 6648609.00 L 13681103.00 6648610.00 L 13719372.00 6632758.00 L 13801066.12 6551063.05 L 13824728.00 6541262.00 L 14267932.00 6098058.00 L 14286654.00 6052859.00 L 14286654.00 5944881.00 L 14771653.00 5944881.00 L 14771653.00 5236221.00 L 14047245.00 5236221.00 L 14047245.00 5944881.00 L 14158812.00 5944881.00 L 14158812.00 6026382.00 L 13734330.00 6450864.00 L 13724528.95 6474525.88 L 13658685.16 6540369.00 L 13179134.00 6540369.00 L 13167284.64 6545277.00 L 13041339.00 6545277.00 L 13041339.00 6643701.00 L 13167284.64 6643701.00 L 13179134.00 6648609.00 L 13501205.00 6648609.00 L 13675316.53 6822720.53 L 13685117.00 6846381.00 L 13735292.00 6896556.00 L 13735292.00 7027559.00 L 13740159.00 7039309.00 L 13740159.00 7685039.00 L 14448819.00 7685039.00 L 14448819.00 6960631.00  z"/>
<path id="N" d="M 1496064.97 8322840.69 m -327599.99 0 a 327599.99 327599.99 0 1 1 655199.97 0a 327599.99 327599.99 0 1 1 -655199.97 0M 1496064.22 8322831.65 m -220780.35 0 a 220780.35 220780.35 0 1 1 441560.70 0a 220780.35 220780.35 0 1 1 -441560.70 0"/>
<path id="N" d="M 8706374.00 12653225.00 L 8720103.00 12620079.00 L 8720103.00 12144921.00 L 8942623.00 12144921.00 L 8987822.00 12126199.00 L 9355478.00 11758543.00 L 9374200.00 11713344.00 L 9374200.00 11582676.00 L 9921259.00 11582676.00 L 9921259.00 10858268.00 L 9212599.00 10858268.00 L 9212599.00 11582676.00 L 9246358.00 11582676.00 L 9246358.00 11686867.00 L 8916146.00 12017079.00 L 8716577.35 12017079.00 L 8706374.00 11992445.00 L 8673228.00 11978716.00 L 8326772.00 11978716.00 L 8293626.00 11992445.00 L 8279897.00 12025591.00 L 8279897.00 12620079.00 L 8293626.00 12653225.00 L 8326772.00 12666954.00 L 8673228.00 12666954.00 L 8706374.00 12653225.00  z"/>
<path id="N" d="M 12352362.00 6124055.36 L 12357270.00 6112206.00 L 12357271.00 5807087.00 L 12341419.00 5768818.00 L 11770552.00 5197951.00 L 11732280.59 5182100.00 L 9133858.00 5182100.00 L 9133858.00 4803150.00 L 8932074.00 4803150.00 L 8932074.00 3662402.00 L 8937009.00 3662402.00 L 8937009.00 3209646.00 L 8932074.00 3209646.00 L 8932074.00 2971043.00 L 8916221.29 2932773.29 L 8858566.00 2875117.00 L 8820294.59 2859266.00 L 8582677.00 2859265.00 L 8544407.29 2875118.71 L 8445984.00 2973541.00 L 8430133.00 3011812.41 L 8430133.00 3209646.00 L 8425198.00 3209646.00 L 8425198.00 3662402.00 L 8543308.00 3662402.00 L 8543308.00 3209646.00 L 8538373.00 3209646.00 L 8538373.00 3034227.84 L 8605094.16 2967506.00 L 8797879.27 2967506.00 L 8823834.00 2993460.27 L 8823834.00 3209646.00 L 8818899.00 3209646.00 L 8818899.00 3662402.00 L 8823834.00 3662402.00 L 8823834.00 4803150.00 L 8779528.00 4803150.00 L 8779528.00 5354330.00 L 9133858.00 5354330.00 L 9133858.00 5290340.00 L 11709865.00 5290340.00 L 12249030.00 5829505.00 L 12249030.00 6112206.00 L 12253938.00 6124055.36 L 12253938.00 6250001.00 L 12352362.00 6250001.00 L 12352362.00 6124055.36  z"/>
<path id="N" d="M 10360744.00 8497524.00 L 10329711.00 8476789.26 L 10329712.00 7595534.00 L 10313858.29 7557264.29 L 10093781.00 7337186.00 L 10055509.59 7321335.00 L 9909079.00 7321335.00 L 9909079.00 6828740.00 L 9895350.00 6795594.00 L 9862204.00 6781865.00 L 9515748.00 6781865.00 L 9482602.00 6795594.00 L 9468873.00 6828740.00 L 9468873.00 7423228.00 L 9482602.00 7456374.00 L 9515748.00 7470103.00 L 9862204.00 7470103.00 L 9895350.00 7456374.00 L 9906450.09 7429575.00 L 10033094.07 7429575.00 L 10221471.00 7617951.07 L 10221471.00 8476789.26 L 10190438.00 8497524.00 A 120431.73 120431.73 0 1 0 10360744.00 8497524.00  z"/>
<path id="N" d="M 11305625.00 8628460.00 L 11326359.74 8597427.00 L 12440945.00 8597428.00 L 12479214.00 8581576.00 L 12734333.00 8326457.00 L 12750184.00 8288185.59 L 12750972.00 7667324.00 L 12746063.00 7655472.97 L 12746063.00 7529529.00 L 12647639.00 7529529.00 L 12647639.00 7654360.04 L 12641944.00 7668113.41 L 12641944.00 8265770.94 L 12418527.06 8489187.00 L 11326359.74 8489187.00 L 11305625.00 8458154.00 A 120431.73 120431.73 0 1 0 11305625.00 8628460.00  z"/>
<path id="N" d="M 15629921.00 8284275.52 L 15631850.00 8274578.00 L 15631850.00 7578741.00 L 15629921.00 7569043.48 L 15629921.00 7076626.52 L 15631850.00 7066929.00 L 15631850.00 4429135.00 L 15624211.00 4390732.00 L 15602458.00 4358175.00 L 13574647.93 2330365.59 L 13594762.00 2281806.00 A 297823.05 297823.05 0 0 0 13230005.00 1917049.00 L 13181445.52 1937163.30 L 12511905.00 1267623.00 L 12479349.00 1245869.00 L 12440945.00 1238230.00 L 11299212.00 1238230.00 L 11260809.00 1245869.00 L 11228252.00 1267622.00 L 10992032.00 1503843.00 L 10970278.00 1536399.00 L 10962639.00 1574803.00 L 10962639.00 2513631.31 L 10582771.00 2133764.00 L 10550215.00 2112010.00 L 10511811.00 2104371.00 L 10181880.00 2104371.00 L 9935683.00 1858174.00 L 9903127.00 1836420.00 L 9864723.00 1828781.00 L 7416930.00 1828781.00 L 7378526.00 1836420.00 L 7345970.00 1858174.00 L 6366048.00 2838096.00 L 6344294.00 2870652.00 L 6336655.00 2909056.00 L 6336655.00 4019944.00 L 6344294.00 4058348.00 L 6366048.00 4090904.00 L 6598073.00 4322929.00 L 6630629.00 4344683.00 L 6669033.00 4352322.00 L 7222481.00 4352322.00 L 7222481.00 5708661.00 L 7230120.00 5747065.00 L 7251874.00 5779621.00 L 7488095.00 6015842.00 L 7520651.00 6037596.00 L 7559055.00 6045235.00 L 8031497.00 6045235.00 L 8031497.00 6220472.00 L 8385827.00 6220472.00 L 8385827.00 5669292.00 L 8031497.00 5669292.00 L 8031497.00 5844529.00 L 7600622.00 5844529.00 L 7423187.00 5667094.00 L 7423187.00 4293536.09 L 7708757.00 4007967.00 L 7730510.00 3975410.00 L 7738149.00 3937007.00 L 7738149.00 3662402.00 L 7755906.00 3662402.00 L 7755906.00 3209646.00 L 7519686.00 3209646.00 L 7519686.00 3662402.00 L 7537443.00 3662402.00 L 7537443.00 3895439.09 L 7281266.91 4151616.00 L 6710600.00 4151616.00 L 6537361.00 3978377.00 L 6537361.00 2950623.00 L 7458497.00 2029487.00 L 9823156.00 2029487.00 L 10069353.00 2275684.00 L 10101909.00 2297438.00 L 10140313.00 2305077.00 L 10470243.95 2305077.00 L 10962639.00 2797472.95 L 10962639.00 3895441.00 L 10667094.00 4190986.00 L 9844717.00 4190986.00 L 9627913.00 3974182.00 L 9627913.00 3662402.00 L 9645670.00 3662402.00 L 9645670.00 3209646.00 L 9409450.00 3209646.00 L 9409450.00 3662402.00 L 9427207.00 3662402.00 L 9427207.00 4015749.00 L 9434846.00 4054153.00 L 9456600.00 4086709.00 L 9732190.00 4362299.00 L 9764746.00 4384053.00 L 9803150.00 4391692.00 L 10708661.00 4391692.00 L 10747065.00 4384053.00 L 10779621.00 4362299.00 L 11133952.00 4007968.00 L 11155706.00 3975411.00 L 11163345.00 3937008.00 L 11163345.00 1616370.12 L 11340779.88 1438936.00 L 12399377.99 1438936.00 L 13039525.52 2079083.74 L 13019412.00 2127642.00 A 297823.05 297823.05 0 0 0 13384169.00 2492399.00 L 13432726.98 2472285.32 L 15431144.00 4470702.99 L 15431144.00 6960631.00 L 14921261.00 6960631.00 L 14921261.00 7685039.00 L 15431144.00 7685039.00 L 15431144.00 8168280.00 L 14921261.00 8168280.00 L 14921261.00 8892688.00 L 15629921.00 8892688.00 L 15629921.00 8284275.52  z"/>
<path id="N" d="M 12389677.00 15493881.00 L 13074594.00 15083358.00 L 13715974.00 14607678.00 L 13942890.00 14402013.00 L 13878757.00 14300737.00 L 13853924.00 14311023.00 L 13705132.00 14311023.00 L 13567666.00 14254082.00 L 13462454.00 14148870.00 L 13405513.00 14011404.00 L 13405513.00 13862612.00 L 13462454.00 13725146.00 L 13567666.00 13619934.00 L 13705132.00 13562993.00 L 13853924.00 13562993.00 L 13991390.00 13619934.00 L 14096602.00 13725146.00 L 14153543.00 13862612.00 L 14153543.00 14011404.00 L 14126828.00 14075898.00 L 14225798.00 14145601.00 L 14307642.00 14071422.00 L 14843898.00 13479754.00 L 14857254.00 13461746.00 L 14783464.00 13367193.00 L 14783464.00 13259054.59 A 157763.70 157763.70 0 0 0 14783464.00 12961417.41 L 14783464.00 12856003.00 L 14870260.00 12891955.00 L 14942690.00 12964385.00 L 14981889.00 13059020.00 L 14981889.00 13095423.00 L 15099999.00 13134441.00 L 15319578.00 12838374.00 L 15730101.00 12153457.00 L 16071514.00 11431599.00 L 16340529.00 10679754.00 L 16534554.00 9905161.00 L 16651722.00 9115279.00 L 16659214.00 8962783.00 L 16542251.00 8936518.00 L 16523488.00 8981817.00 L 16462132.00 9043173.00 L 16397638.00 9069887.00 L 16397638.00 8960858.41 L 16423736.00 8943421.00 A 120431.73 120431.73 0 0 0 16423736.00 8773115.00 L 16397638.00 8755677.59 L 16397638.00 8646649.00 L 16462132.00 8673363.00 L 16523487.00 8734718.00 L 16653478.00 8739904.00 L 16670638.00 8730239.00 L 16690904.00 8317717.00 L 16669887.00 7889901.00 L 16556693.00 7878032.00 L 16523488.00 7958195.00 L 16462132.00 8019551.00 L 16397638.00 8046265.00 L 16397638.00 7937236.41 L 16423736.00 7919799.00 A 120431.73 120431.73 0 0 0 16423736.00 7749493.00 L 16397638.00 7732055.59 L 16397638.00 7623027.00 L 16462132.00 7649741.00 L 16523488.00 7711097.00 L 16545455.00 7764130.00 L 16662418.00 7737866.00 L 16651722.00 7520155.00 L 16534554.00 6730273.00 L 16340529.00 5955680.00 L 16071514.00 5203835.00 L 15830243.00 4693710.00 L 15712133.00 4720233.00 L 15712133.00 7066929.00 L 15708661.00 7084384.00 L 15708661.00 7561286.00 L 15712133.00 7578741.00 L 15712133.00 8274578.00 L 15708661.00 8292033.00 L 15708661.00 8971428.00 L 14842521.00 8971428.00 L 14842521.00 8089540.00 L 15350861.00 8089540.00 L 15350861.00 7763779.00 L 14842521.00 7763779.00 L 14842521.00 6881891.00 L 15350861.00 6881891.00 L 15350861.00 4503957.00 L 14980773.00 4133869.00 L 14871653.00 4179068.00 L 14871653.00 4350394.00 L 14771653.00 4350394.00 L 14771653.00 4055119.00 L 14468504.00 4055119.00 L 14468504.00 3955119.00 L 14647704.00 3955119.00 L 14692903.00 3845999.00 L 13412709.00 2565805.00 L 13381483.00 2578739.00 L 13232691.00 2578739.00 L 13095225.00 2521798.00 L 12990013.00 2416586.00 L 12933072.00 2279120.00 L 12933072.00 2130328.00 L 12946006.00 2099102.00 L 12366123.00 1519219.00 L 11885901.00 1519219.00 L 11853888.00 1568874.00 L 11827282.00 1637329.00 L 11850393.00 1693127.00 L 11850393.00 1771439.00 L 11834179.00 1810584.00 L 11834179.00 3862185.00 L 12889783.00 4917789.00 L 13090551.00 4917789.00 L 13108006.00 4921261.00 L 13622047.00 4921261.00 L 13622047.00 5303579.00 L 13663399.00 5410877.00 L 13682136.00 5424557.00 L 13703571.00 5433436.00 L 13707592.00 5443144.00 L 13716080.00 5449341.00 L 13773562.00 5543642.00 L 13777138.00 5566568.00 L 13786016.00 5588002.00 L 13786016.00 6102363.00 L 13779473.00 6118158.00 L 13879602.00 6185062.00 L 13989751.00 6074914.00 L 13968505.00 6023620.00 L 13968505.00 5157481.00 L 14850393.00 5157481.00 L 14850393.00 6023621.00 L 14481001.00 6023621.00 L 14371883.00 6052860.00 L 14328195.00 6158324.00 L 13890450.00 6596069.00 L 13883514.00 6608713.00 L 13860511.00 6720449.00 L 13904677.00 6764615.00 L 13948362.00 6870078.00 L 14057482.00 6881891.00 L 14527559.00 6881891.00 L 14527559.00 7763779.00 L 13710499.00 7763779.00 L 13710499.00 7941554.00 L 13858485.00 8089540.00 L 14527559.00 8089540.00 L 14527559.00 8971428.00 L 13661419.00 8971428.00 L 13661419.00 8286606.00 L 13472619.00 8097806.00 L 13431805.00 7999273.00 L 13431805.00 7612985.00 L 13395668.00 7509843.00 L 13152218.00 7509843.00 L 13042914.00 7531103.00 L 13025546.00 7649213.00 L 13033048.00 7667324.00 L 13033048.00 8641733.00 L 12992234.00 8740266.00 L 12884925.00 8847575.00 L 12903238.00 8996296.00 L 12919990.00 9006346.00 A 200707.77 200707.77 0 0 1 13228346.00 9212384.00 L 13208499.00 9260300.00 L 13243715.00 9342630.00 L 13271735.00 9378411.00 L 14921260.00 9378410.00 L 15026724.00 9422095.00 L 15144835.00 9540206.00 L 15188519.00 9645670.00 L 15188519.00 9803150.00 L 15480315.00 9803150.00 L 15480315.00 10669290.00 L 14598427.00 10669290.00 L 14598427.00 9803150.00 L 14695893.00 9803150.00 L 14754152.00 9685040.00 L 14747760.00 9676707.00 L 13221228.00 9676707.00 L 13061024.00 9836912.00 L 13061024.00 10019684.00 L 12372048.00 10019684.00 L 12372048.00 9763706.00 L 12253938.00 9714783.00 L 12126749.00 9841971.00 L 12126749.00 10128740.00 L 12116142.00 10154347.00 L 12116142.00 10362662.00 L 12657481.00 10362661.00 L 12684892.00 10374015.00 L 13061024.00 10374015.00 L 13061024.00 10421717.00 L 13417325.00 10421717.00 L 13417325.00 9803150.00 L 14299213.00 9803150.00 L 14299213.00 10669290.00 L 13628253.00 10669290.00 L 13621214.00 10676329.00 L 13515748.00 10720013.00 L 13061024.00 10720013.00 L 13061024.00 10767715.00 L 12372048.00 10767715.00 L 12372048.00 10660958.00 L 11447141.00 10660958.00 L 11341676.00 10617272.00 L 11220472.00 10496069.00 L 11102362.00 10544992.00 L 11102362.00 10550967.00 L 11072394.00 10623318.00 L 11054678.00 10641034.00 L 11054678.00 10645151.00 L 11244630.00 10835104.00 L 11889764.00 10835103.00 L 11995228.00 10878788.00 L 12349558.00 11233118.00 L 12393242.00 11338582.00 L 12393242.00 11437008.00 L 13061024.00 11437008.00 L 13061024.00 11484710.00 L 13417325.00 11484710.00 L 13417325.00 10984252.00 L 14299213.00 10984252.00 L 14299213.00 11850392.00 L 13417325.00 11850392.00 L 13417325.00 11783006.00 L 13061024.00 11783006.00 L 13061024.00 11830708.00 L 12393242.00 11830708.00 L 12393242.00 12172180.00 L 12406101.00 12185039.00 L 13061024.00 12185039.00 L 13061024.00 12232741.00 L 14642945.00 12232741.00 L 14890223.00 11985464.00 L 14890223.00 11850392.00 L 14598427.00 11850392.00 L 14598427.00 10984252.00 L 15480315.00 10984252.00 L 15480315.00 11850392.00 L 15188519.00 11850392.00 L 15188521.00 12047243.00 L 15144833.00 12152708.00 L 14810189.00 12487353.00 L 14704723.00 12531037.00 L 13466199.00 12531126.00 L 13397144.00 12649148.00 L 13400595.00 12657480.00 L 13291566.41 12657480.00 L 13274129.00 12631382.00 A 120431.73 120431.73 0 0 0 13103823.00 12631382.00 L 13086385.59 12657480.00 L 12956137.00 12657480.00 L 12882130.00 12578739.00 L 12372048.00 12578739.00 L 12372048.00 12522763.00 L 12286558.00 12487351.00 L 12138630.00 12339424.00 L 12094945.00 12233961.00 L 11985825.00 12204724.00 L 11427166.00 12204724.00 L 11427166.00 12147221.00 L 11417323.00 12147221.00 L 11318790.00 12106408.00 L 11141516.00 11929133.00 L 11102576.00 11929133.00 A 200702.40 200702.40 0 1 1 11338582.00 11693127.00 L 11338582.00 11732067.00 L 11427168.00 11811024.00 L 12094946.00 11811024.00 L 12094946.00 11400361.00 L 11827984.00 11133400.00 L 11182850.00 11133402.00 L 11077385.00 11089714.00 L 10800066.00 10812395.00 L 10756382.00 10706929.00 L 10756382.00 10641070.00 L 10738630.00 10623318.00 A 200711.42 200711.42 0 0 1 10866356.00 10314961.00 L 10872331.00 10314961.00 L 10921254.00 10196851.00 L 10485087.00 9760683.00 L 10441403.00 9655217.00 L 10441403.00 8849572.00 L 10323292.00 8775987.00 L 10314747.00 8779527.00 A 200711.42 200711.42 0 0 1 10108709.00 8471170.00 L 10136244.00 8443635.00 L 10136244.00 7653253.00 L 10054782.00 7571791.00 L 9955614.00 7516639.00 L 9862204.00 7555331.00 L 9515748.00 7555331.00 L 9492255.00 7545600.00 L 9374144.00 7622765.00 L 9374144.00 7738867.00 L 9948571.00 7738867.00 L 9948571.00 8620755.00 L 9082431.00 8620755.00 L 9082431.00 7738867.00 L 9105678.00 7738867.00 L 9105678.00 7461791.00 L 8923441.00 7279554.00 L 8805331.00 7319863.00 L 8805331.00 7423228.00 L 8766639.00 7516639.00 L 8673228.00 7555331.00 L 8326772.00 7555331.00 L 8233361.00 7516639.00 L 8194669.00 7423228.00 L 8194669.00 6828740.00 L 8233361.00 6735329.00 L 8326772.00 6696637.00 L 8673228.00 6696637.00 L 8766639.00 6735329.00 L 8805331.00 6828740.00 L 8805331.00 6982586.00 L 8950540.00 6982586.00 L 9045457.00 7021902.00 L 9265535.00 7241980.00 L 9383645.00 7193057.00 L 9383645.00 6828740.00 L 9422337.00 6735329.00 L 9515748.00 6696637.00 L 9862204.00 6696637.00 L 9955615.00 6735329.00 L 9994307.00 6828740.00 L 9994307.00 7236108.00 L 10055512.00 7236108.00 L 10154045.00 7276922.00 L 10323293.00 7446170.00 L 10441403.00 7397247.00 L 10441402.00 6811024.00 L 10485087.00 6705560.00 L 10701621.00 6489024.00 L 10807089.00 6445341.00 L 11279527.00 6445341.00 L 11289371.00 6449418.00 L 11407481.00 6405115.00 L 11407481.00 6269687.00 L 11760237.00 6269687.00 L 11760237.00 6248427.00 L 11781497.00 6248427.00 L 11781497.00 5895671.00 L 11957087.00 5895671.00 L 11957087.00 5874411.00 L 11964190.32 5874411.00 L 12051392.00 5961612.10 L 12052179.00 6348427.00 L 11860237.00 6348427.00 L 11860237.00 7431103.00 L 12942913.00 7431103.00 L 12942913.00 6348427.00 L 12160419.00 6348427.00 L 12159633.00 5939195.00 L 12143779.29 5900925.29 L 12038854.24 5795999.55 L 12055298.00 5756301.00 L 11727317.00 5428320.00 L 11647250.00 5435764.00 L 11576394.00 5492126.00 L 11441173.41 5492126.00 L 11423736.00 5466028.00 A 120431.73 120431.73 0 0 0 11253430.00 5466028.00 L 11235992.59 5492126.00 L 11125337.00 5492126.00 L 11051424.00 5375567.00 L 9212598.00 5375567.00 L 9212598.00 5433070.00 L 8700788.00 5433070.00 L 8700788.00 4724410.00 L 8738607.00 4724410.00 L 8738607.00 4171833.00 L 8629487.00 4126634.00 L 8426749.00 4329372.00 L 8426749.00 4724410.00 L 8464567.00 4724410.00 L 8464567.00 5433070.00 L 7952757.00 5433070.00 L 7952757.00 5268617.00 L 7834647.00 5239017.00 L 7828042.00 5245622.00 L 7755691.00 5275590.00 L 7677379.00 5275590.00 L 7621580.00 5252478.00 L 7553127.00 5279083.00 L 7503470.00 5311097.00 L 7503470.00 5633839.00 L 7633877.00 5764246.00 L 7952757.00 5764246.00 L 7952757.00 5590552.00 L 8452116.00 5590551.00 L 8561418.00 5569291.00 L 8818898.00 5569292.00 L 8818898.00 5669292.00 L 8661418.00 5669292.00 L 8661418.00 6220472.00 L 8818898.00 6220472.00 L 8818898.00 6320472.00 L 8561418.00 6320473.00 L 8452116.00 6299213.00 L 7952757.00 6299212.00 L 7952757.00 6125518.00 L 7559055.00 6125518.00 L 7489928.00 6111768.00 L 7431326.00 6072611.00 L 7195105.00 5836390.00 L 7155948.00 5777788.00 L 7142198.00 5708661.00 L 7142198.00 4432605.00 L 6669033.00 4432605.00 L 6599906.00 4418855.00 L 6541304.00 4379698.00 L 6322368.00 4160762.00 L 6268465.00 4169210.00 L 6204258.00 4203091.00 L 6204258.00 4441033.00 L 6366949.00 4441033.00 L 6366949.00 5322921.00 L 5590155.00 5322921.00 L 5590155.00 5747419.00 L 7244311.00 7401575.00 L 7283250.00 7401575.00 A 200702.40 200702.40 0 1 1 7047244.00 7637581.00 L 7047244.00 7598640.00 L 5352275.00 5903671.00 L 5311461.00 5805138.00 L 5311461.00 5310796.00 L 5303957.00 5305783.00 L 5185846.00 5322921.00 L 4319707.00 5322921.00 L 4319707.00 5021237.00 L 4074802.00 5021237.00 L 4074802.00 5314960.00 L 3523622.00 5314960.00 L 3523622.00 5021237.00 L 3464567.00 5021237.00 L 3366034.00 4980423.00 L 3208554.00 4822943.00 L 3167740.00 4724410.00 L 3167740.00 4173225.00 L 2913381.00 4173225.00 L 2913379.00 3622047.00 L 2892120.00 3525194.00 L 2892121.00 3287401.00 L 2992121.00 3287401.00 L 2992121.00 3425196.00 L 3464561.00 3425196.00 L 3464561.00 3328699.00 L 3775291.76 3328699.00 L 3784101.00 3341883.00 L 3838583.00 3377164.59 L 3838583.00 3482579.00 L 3751787.00 3446627.00 L 3682671.00 3377511.00 L 3664676.00 3378226.00 L 3564561.00 3405692.00 L 3564564.00 3525195.00 L 3543301.00 3622048.00 L 3543301.00 4173225.00 L 3446434.00 4173225.00 L 3446434.00 4362682.00 L 3523623.00 4448820.00 L 4074802.00 4448820.00 L 4074802.00 4742543.00 L 4319707.00 4742543.00 L 4319707.00 4441033.00 L 5185846.00 4441033.00 L 5214984.00 4334991.00 L 5214984.00 4173225.00 L 5118111.00 4173225.00 L 5118110.00 3634498.00 L 5096850.00 3525196.00 L 5096851.00 3405706.00 L 4996766.00 3378234.00 L 4978741.00 3377517.00 L 4909631.00 3446627.00 L 4822835.00 3482579.00 L 4822835.00 3377164.59 L 4877317.00 3341883.00 L 4886126.24 3328699.00 L 5196851.00 3328699.00 L 5196851.00 3425196.00 L 5669291.00 3425196.00 L 5669291.00 3031496.00 L 5492126.00 3031496.00 L 5492126.00 2931496.00 L 5769291.00 2931495.00 L 5842986.00 2843911.00 L 5842986.00 2751987.00 L 5318879.00 2227880.00 L 3696869.00 2227880.00 L 3102373.00 2822376.00 L 3147572.00 2931496.00 L 3169286.00 2931496.00 L 3169286.00 3031496.00 L 2992121.00 3031496.00 L 2992121.00 3169291.00 L 2849496.00 3169291.00 L 2783001.00 3141748.00 L 2604089.00 3320660.00 L 1880142.00 4554660.00 L 1897819.00 4597545.00 L 1909449.00 4611490.00 L 1909449.00 4779299.59 L 1883351.00 4796737.00 A 120431.73 120431.73 0 0 0 1883351.00 4967043.00 L 1909449.00 4984480.41 L 1909449.00 5093509.00 L 1844955.00 5066795.00 L 1783599.00 5005439.00 L 1770779.00 4974488.00 L 1641274.00 4961821.00 L 1094166.00 5894393.00 L 1048233.00 6045650.00 L 1153957.00 6094245.00 L 1267474.00 5980728.00 L 1415793.00 5919292.00 L 1576333.00 5919292.00 L 1724652.00 5980728.00 L 1838170.00 6094246.00 L 1899606.00 6242565.00 L 1899606.00 6403105.00 L 1838170.00 6551424.00 L 1724652.00 6664942.00 L 1576333.00 6726378.00 L 1415793.00 6726378.00 L 1267474.00 6664942.00 L 1153956.00 6551424.00 L 1092520.00 6403105.00 L 1092520.00 6306291.00 L 974410.00 6288753.00 L 902388.00 6525923.00 L 902388.00 9938268.00 L 1035560.00 10071440.00 L 1153957.00 10094245.00 L 1267474.00 9980728.00 L 1415793.00 9919292.00 L 1576333.00 9919292.00 L 1724652.00 9980728.00 L 1838170.00 10094246.00 L 1899606.00 10242565.00 L 1899606.00 10403105.00 L 1838170.00 10551424.00 L 1724652.00 10664942.00 L 1590068.00 10720689.00 L 1590068.00 11649571.00 L 2830727.00 12890230.00 L 3943685.00 12890230.00 L 4018320.00 12814961.00 L 4149378.59 12814961.00 L 4166816.00 12841059.00 A 120431.73 120431.73 0 0 0 4337122.00 12841059.00 L 4354559.41 12814961.00 L 4485618.00 12814961.00 L 4560253.00 12890230.00 L 7051162.00 12890230.00 L 7110534.00 12830858.00 L 7110534.00 12370078.00 L 6614174.00 12370078.00 L 6614174.00 11488190.00 L 7102829.00 11488190.00 L 7102829.00 10462018.00 L 6614174.00 10462018.00 L 6614174.00 9580130.00 L 7102829.00 9580130.00 L 7102829.00 8543307.00 L 7116579.00 8474180.00 L 7155736.00 8415578.00 L 7519232.00 8052082.00 L 7577834.00 8012925.00 L 7646961.00 7999175.00 L 7901329.00 7999175.00 L 7901329.00 7738867.00 L 8767469.00 7738867.00 L 8767469.00 8620755.00 L 7901329.00 8620755.00 L 7901329.00 8360447.00 L 7721783.00 8360447.00 L 7464101.00 8618129.00 L 7464101.00 9580130.00 L 7480314.00 9580130.00 L 7480314.00 10462018.00 L 7464101.00 10462018.00 L 7464101.00 11102500.00 L 7573221.00 11147699.00 L 7628177.00 11092743.00 L 7686779.00 11053586.00 L 7755906.00 11039836.00 L 7952757.00 11039836.00 L 7952757.00 10779528.00 L 8818897.00 10779528.00 L 8818897.00 11661416.00 L 7952757.00 11661416.00 L 7952757.00 11401108.00 L 7830728.00 11401108.00 L 7480314.00 11751522.00 L 7480314.00 12370078.00 L 7471806.00 12370078.00 L 7471806.00 12806899.00 L 7555137.00 12890230.00 L 10712580.00 12890230.00 L 10840526.00 12762284.00 L 10856740.00 12723139.00 A 200702.40 200702.40 0 1 1 11135130.00 13001527.00 L 11116210.00 13048629.00 L 11196051.00 13166740.00 L 12005905.00 13166740.00 L 12066170.00 13191703.00 L 12091133.00 13251968.00 L 12091133.00 15524697.00 L 12190919.00 15587886.00 L 12389677.00 15493881.00  zM 3775291.76 3127993.00 L 3464561.00 3127993.00 L 3464561.00 3031496.00 L 3287396.00 3031496.00 L 3287396.00 2931496.00 L 3564561.00 2931496.00 L 3564561.00 3051000.00 L 3664676.00 3078466.00 L 3682671.00 3079181.00 L 3751787.00 3010065.00 L 3838583.00 2974113.00 L 3838583.00 3079527.41 L 3784101.00 3114809.00 L 3775291.76 3127993.00  zM 3956693.00 3482578.99 L 3956693.00 3377164.59 L 4011175.00 3341883.00 L 4046456.59 3287401.00 L 4151870.99 3287401.00 L 4115919.00 3374197.00 L 4043489.00 3446627.00 L 3956693.00 3482578.99  zM 4151870.99 3169291.00 L 4046456.59 3169291.00 L 4011175.00 3114809.00 L 3956693.00 3079527.41 L 3956693.00 2974113.01 L 4043489.00 3010065.00 L 4115919.00 3082495.00 L 4151870.99 3169291.00  zM 4614961.41 3169291.00 L 4509547.01 3169291.00 L 4545499.00 3082495.00 L 4617929.00 3010065.00 L 4704725.00 2974113.01 L 4704725.00 3079527.41 L 4650243.00 3114809.00 L 4615437.00 3166900.00 L 4614961.41 3169291.00  zM 5196851.00 3127993.00 L 4886126.24 3127993.00 L 4877317.00 3114809.00 L 4822835.00 3079527.41 L 4822835.00 2974113.00 L 4909631.00 3010065.00 L 4978741.00 3079175.00 L 4996766.00 3078458.00 L 5096851.00 3050986.00 L 5096851.00 2931496.00 L 5374016.00 2931496.00 L 5374016.00 3031496.00 L 5196851.00 3031496.00 L 5196851.00 3127993.00  zM 2163017.09 4781537.00 L 2030907.66 4781537.00 L 2027559.00 4779299.59 L 2027559.00 4670270.72 L 2092053.00 4696985.00 L 2153409.00 4758341.00 L 2163017.09 4781537.00  zM 2381890.00 4781537.00 L 2173036.21 4781537.00 L 2281890.00 4759884.64 L 2281890.00 4427560.00 L 2519685.00 4427560.00 L 2519685.00 4527560.00 L 2381890.00 4527560.00 L 2381890.00 4781537.00  zM 2875590.00 4822835.00 L 2775590.00 4822835.00 L 2775590.00 4527560.00 L 2637795.00 4527560.00 L 2637795.00 4427560.00 L 2875590.00 4427560.00 L 2875590.00 4822835.00  zM 4704725.00 3482578.99 L 4617929.00 3446627.00 L 4545499.00 3374197.00 L 4509547.01 3287401.00 L 4614961.41 3287401.00 L 4650243.00 3341883.00 L 4704725.00 3377164.59 L 4704725.00 3482578.99  zM 2027559.00 5093509.28 L 2027559.00 4984480.41 L 2030907.66 4982243.00 L 2163017.09 4982243.00 L 2153409.00 5005439.00 L 2092053.00 5066795.00 L 2027559.00 5093509.28  zM 2875590.00 5336220.00 L 2637795.00 5336220.00 L 2637795.00 5236220.00 L 2775590.00 5236220.00 L 2775590.00 4940945.00 L 2875590.00 4940945.00 L 2875590.00 5336220.00  zM 2519685.00 5336220.00 L 2281890.00 5336220.00 L 2281890.00 5003895.36 L 2173036.21 4982243.00 L 2381890.00 4982243.00 L 2381890.00 5236220.00 L 2519685.00 5236220.00 L 2519685.00 5336220.00  zM 2899606.00 6726378.00 L 2092520.00 6726378.00 L 2092520.00 5919292.00 L 2899606.00 5919292.00 L 2899606.00 6726378.00  zM 1576333.00 7726378.00 L 1415793.00 7726378.00 L 1267474.00 7664942.00 L 1153956.00 7551424.00 L 1092520.00 7403105.00 L 1092520.00 7242565.00 L 1153956.00 7094246.00 L 1267474.00 6980728.00 L 1415793.00 6919292.00 L 1576333.00 6919292.00 L 1724652.00 6980728.00 L 1838170.00 7094246.00 L 1899606.00 7242565.00 L 1899606.00 7403105.00 L 1838170.00 7551424.00 L 1724652.00 7664942.00 L 1576333.00 7726378.00  zM 2576333.00 7726378.00 L 2415793.00 7726378.00 L 2267474.00 7664942.00 L 2153956.00 7551424.00 L 2092520.00 7403105.00 L 2092520.00 7242565.00 L 2153956.00 7094246.00 L 2267474.00 6980728.00 L 2415793.00 6919292.00 L 2576333.00 6919292.00 L 2724652.00 6980728.00 L 2838170.00 7094246.00 L 2899606.00 7242565.00 L 2899606.00 7403105.00 L 2838170.00 7551424.00 L 2724652.00 7664942.00 L 2576333.00 7726378.00  zM 1576333.00 8726378.00 L 1415793.00 8726378.00 L 1267474.00 8664942.00 L 1153956.00 8551424.00 L 1092520.00 8403105.00 L 1092520.00 8242565.00 L 1153956.00 8094246.00 L 1267474.00 7980728.00 L 1415793.00 7919292.00 L 1576333.00 7919292.00 L 1724652.00 7980728.00 L 1838170.00 8094246.00 L 1899606.00 8242565.00 L 1899606.00 8403105.00 L 1838170.00 8551424.00 L 1724652.00 8664942.00 L 1576333.00 8726378.00  zM 1576333.00 9726378.00 L 1415793.00 9726378.00 L 1267474.00 9664942.00 L 1153956.00 9551424.00 L 1092520.00 9403105.00 L 1092520.00 9242565.00 L 1153956.00 9094246.00 L 1267474.00 8980728.00 L 1415793.00 8919292.00 L 1576333.00 8919292.00 L 1724652.00 8980728.00 L 1838170.00 9094246.00 L 1899606.00 9242565.00 L 1899606.00 9403105.00 L 1838170.00 9551424.00 L 1724652.00 9664942.00 L 1576333.00 9726378.00  zM 2576333.00 8726378.00 L 2415793.00 8726378.00 L 2267474.00 8664942.00 L 2153956.00 8551424.00 L 2092520.00 8403105.00 L 2092520.00 8242565.00 L 2153956.00 8094246.00 L 2267474.00 7980728.00 L 2415793.00 7919292.00 L 2576333.00 7919292.00 L 2724652.00 7980728.00 L 2838170.00 8094246.00 L 2899606.00 8242565.00 L 2899606.00 8403105.00 L 2838170.00 8551424.00 L 2724652.00 8664942.00 L 2576333.00 8726378.00  zM 2576333.00 9726378.00 L 2415793.00 9726378.00 L 2267474.00 9664942.00 L 2153956.00 9551424.00 L 2092520.00 9403105.00 L 2092520.00 9242565.00 L 2153956.00 9094246.00 L 2267474.00 8980728.00 L 2415793.00 8919292.00 L 2576333.00 8919292.00 L 2724652.00 8980728.00 L 2838170.00 9094246.00 L 2899606.00 9242565.00 L 2899606.00 9403105.00 L 2838170.00 9551424.00 L 2724652.00 9664942.00 L 2576333.00 9726378.00  zM 6231103.00 8850651.00 L 6249799.03 8805514.25 L 6157116.27 8720632.34 L 6109979.00 8740157.00 A 240850.27 240850.27 0 1 1 6299212.00 8550924.00 L 6280515.97 8596060.75 L 6373198.73 8680942.66 L 6420336.00 8661418.00 A 240850.27 240850.27 0 1 1 6231103.00 8850651.00  zM 6299212.00 10462018.00 L 5433072.00 10462018.00 L 5433072.00 9580130.00 L 5582832.20 9580130.00 L 5606325.23 9462019.75 L 5597154.00 9458221.00 A 200702.40 200702.40 0 1 1 5820168.00 9458221.00 L 5810996.77 9462019.75 L 5834489.80 9580130.00 L 6299212.00 9580130.00 L 6299212.00 10462018.00  zM 2176231.78 10263779.99 L 2071260.00 10263779.98 L 2071260.00 10238337.00 L 2135933.00 10082204.00 L 2255432.00 9962705.00 L 2411565.00 9898032.00 L 2437008.02 9898032.00 L 2437008.01 10003003.77 L 2411272.00 10006392.00 A 327599.99 327599.99 0 0 0 2179620.00 10238044.00 L 2176231.78 10263779.99  zM 2437007.98 10747638.00 L 2411565.00 10747638.00 L 2255432.00 10682965.00 L 2135933.00 10563466.00 L 2071260.00 10407333.00 L 2071260.00 10381889.98 L 2176231.77 10381889.99 L 2179620.00 10407626.00 A 327599.99 327599.99 0 0 0 2411272.00 10639278.00 L 2437007.99 10642666.22 L 2437007.98 10747638.00  zM 2496064.22 10322831.65 m -220780.35 0 a 220780.35 220780.35 0 1 1 441560.70 0a 220780.35 220780.35 0 1 1 -441560.70 0M 2580561.00 10747638.00 L 2555117.98 10747638.00 L 2555117.99 10642666.23 L 2580854.00 10639278.00 A 327599.99 327599.99 0 0 0 2812506.00 10407626.00 L 2815894.22 10381890.01 L 2920866.00 10381890.02 L 2920866.00 10407333.00 L 2856193.00 10563466.00 L 2736694.00 10682965.00 L 2580561.00 10747638.00  zM 2920866.00 10263780.02 L 2815894.23 10263780.01 L 2812506.00 10238044.00 A 327599.99 327599.99 0 0 0 2580854.00 10006392.00 L 2555118.01 10003003.78 L 2555118.02 9898032.00 L 2580561.00 9898032.00 L 2736694.00 9962705.00 L 2856193.00 10082204.00 L 2920866.00 10238337.00 L 2920866.00 10263780.02  zM 4149378.59 12696851.00 L 4040349.72 12696851.00 L 4067064.00 12632357.00 L 4128420.00 12571001.00 L 4192914.00 12544286.72 L 4192914.00 12653315.59 L 4166816.00 12670753.00 L 4149378.59 12696851.00  zM 4463588.28 12696851.00 L 4354559.41 12696851.00 L 4337122.00 12670753.00 L 4311024.00 12653315.59 L 4311024.00 12544286.72 L 4375518.00 12571001.00 L 4436874.00 12632357.00 L 4463588.28 12696851.00  zM 6299212.00 12370078.00 L 5433072.00 12370078.00 L 5433072.00 11488190.00 L 6299212.00 11488190.00 L 6299212.00 12370078.00  zM 11397638.00 5762800.28 L 11397638.00 5653771.41 L 11423736.00 5636334.00 L 11441173.41 5610236.00 L 11550202.28 5610236.00 L 11523488.00 5674730.00 L 11462132.00 5736086.00 L 11397638.00 5762800.28  zM 9194488.00 5885827.00 L 9094488.00 5885827.00 L 9094488.00 5669292.00 L 8937008.00 5669292.00 L 8937008.00 5569292.00 L 9194488.00 5569292.00 L 9194488.00 5885827.00  zM 11279528.00 5762800.28 L 11215034.00 5736086.00 L 11153678.00 5674730.00 L 11126963.72 5610236.00 L 11235992.59 5610236.00 L 11253430.00 5636334.00 L 11279528.00 5653771.41 L 11279528.00 5762800.28  zM 13040157.41 3248032.00 L 12934743.01 3248032.00 L 12970695.00 3161236.00 L 13043125.00 3088806.00 L 13129921.00 3052854.01 L 13129921.00 3158268.41 L 13075439.00 3193550.00 L 13040633.00 3245641.00 L 13040157.41 3248032.00  zM 13443208.99 3248032.00 L 13337794.59 3248032.00 L 13302513.00 3193550.00 L 13248031.00 3158268.41 L 13248031.00 3052854.01 L 13334827.00 3088806.00 L 13407257.00 3161236.00 L 13443208.99 3248032.00  zM 13129921.99 4273229.00 L 12734647.00 4273229.00 L 12734647.00 4035433.98 L 12834647.00 4035433.98 L 12834647.00 4173229.00 L 13129921.99 4173229.00 L 13129921.99 4273229.00  zM 13643307.00 3917324.02 L 13543307.00 3917324.02 L 13543307.00 3779529.00 L 12834647.00 3779529.00 L 12834647.00 3917323.98 L 12734647.00 3917323.98 L 12734647.00 3679529.00 L 13130158.00 3679529.00 L 13137757.70 3564568.21 L 13043125.00 3525368.00 L 12970695.00 3452938.00 L 12934743.01 3366142.00 L 13040157.41 3366142.00 A 157763.70 157763.70 0 0 0 13337794.59 3366142.00 L 13443208.99 3366142.00 L 13407257.00 3452938.00 L 13334827.00 3525368.00 L 13240194.30 3564568.21 L 13247794.00 3679529.00 L 13643307.00 3679529.00 L 13643307.00 3917324.02  zM 13643307.00 4273229.00 L 13248031.99 4273229.00 L 13248031.99 4173229.00 L 13543307.00 4173229.00 L 13543307.00 4035434.02 L 13643307.00 4035434.02 L 13643307.00 4273229.00  zM 14350393.98 4863779.00 L 13947245.00 4863779.00 L 13947245.00 4468503.98 L 14047245.00 4468503.98 L 14047245.00 4763779.00 L 14350393.98 4763779.00 L 14350393.98 4863779.00  zM 14047245.00 4350393.98 L 13947245.00 4350393.98 L 13947245.00 3955119.00 L 14350394.02 3955119.00 L 14350394.02 4055119.00 L 14047245.00 4055119.00 L 14047245.00 4350393.98  zM 14871653.00 4863779.00 L 14468503.98 4863779.00 L 14468503.98 4763779.00 L 14771653.00 4763779.00 L 14771653.00 4468504.02 L 14871653.00 4468504.02 L 14871653.00 4863779.00  zM 8937008.00 6320472.09 L 8937008.00 6220472.00 L 9094488.00 6220472.00 L 9094488.00 6003937.00 L 9194488.00 6003937.00 L 9194488.00 6320472.00 L 8937008.00 6320472.09  zM 9385816.00 10389763.00 L 9271664.00 10389763.00 L 9190945.00 10309044.00 L 9190945.00 10198848.22 L 9149613.68 10155494.45 L 9106269.37 10114173.00 L 9000029.63 10114173.00 L 8956680.29 10155499.25 L 8915354.00 10198848.63 L 8915354.00 10309044.00 L 8834635.00 10389763.00 L 8720483.00 10389763.00 L 8639764.00 10309044.00 L 8639764.00 10198848.22 L 8598432.68 10155494.45 L 8555088.37 10114173.00 L 8444892.00 10114173.00 L 8364173.00 10033454.00 L 8364173.00 9919302.00 L 8444892.00 9838583.00 L 8555088.78 9838583.00 L 8598437.55 9797256.59 L 8639764.00 9753907.78 L 8639764.00 9647667.22 L 8598432.68 9604313.45 L 8555088.37 9562992.00 L 8444892.00 9562992.00 L 8364173.00 9482273.00 L 8364173.00 9368121.00 L 8444892.00 9287402.00 L 8555088.78 9287402.00 L 8598437.55 9246075.59 L 8639764.00 9202726.78 L 8639764.00 9092530.00 L 8720483.00 9011811.00 L 8834635.00 9011811.00 L 8915354.00 9092530.00 L 8915354.00 9202726.37 L 8956675.41 9246070.64 L 9000029.22 9287402.00 L 9106269.78 9287402.00 L 9149618.55 9246075.59 L 9190945.00 9202726.78 L 9190945.00 9092530.00 L 9271664.00 9011811.00 L 9385816.00 9011811.00 L 9466535.00 9092530.00 L 9466535.00 9202726.37 L 9507856.41 9246070.64 L 9551210.22 9287402.00 L 9661406.00 9287402.00 L 9742125.00 9368121.00 L 9742125.00 9482273.00 L 9661406.00 9562992.00 L 9551210.63 9562992.00 L 9507861.29 9604318.25 L 9466535.00 9647667.63 L 9466535.00 9753907.37 L 9507856.41 9797251.64 L 9551210.22 9838583.00 L 9661406.00 9838583.00 L 9742125.00 9919302.00 L 9742125.00 10033454.00 L 9661406.00 10114173.00 L 9551210.63 10114173.00 L 9507861.29 10155499.25 L 9466535.00 10198848.63 L 9466535.00 10309044.00 L 9385816.00 10389763.00  zM 9862204.00 12752182.00 L 9515748.00 12752182.00 L 9422337.00 12713490.00 L 9383645.00 12620079.00 L 9383645.00 12025591.00 L 9389056.17 12012527.24 L 9288927.07 11945623.28 L 9048087.00 12186464.00 L 8942620.59 12230148.00 L 8805331.00 12230148.00 L 8805331.00 12620079.00 L 8766639.00 12713490.00 L 8673228.00 12752182.00 L 8326772.00 12752182.00 L 8233361.00 12713490.00 L 8194669.00 12620079.00 L 8194669.00 12025591.00 L 8233361.00 11932180.00 L 8326772.00 11893488.00 L 8673228.00 11893488.00 L 8765847.14 11931852.00 L 8880843.12 11931852.00 L 9065697.95 11746997.67 L 9133859.00 11661413.95 L 9133859.00 10779528.00 L 9999999.00 10779528.00 L 9999999.00 11661416.00 L 9561820.81 11661416.00 L 9472981.48 11706471.08 L 9439361.48 11806484.29 L 9518087.32 11893488.00 L 9747010.46 11893488.00 L 9756979.00 11869422.00 L 9784291.00 11842110.00 L 9882824.00 11801296.00 L 10048882.00 11801296.00 L 10293724.00 11556454.00 L 10293724.00 10296522.00 L 10266189.00 10268987.00 A 200711.42 200711.42 0 1 1 10599953.00 10268987.00 L 10572418.00 10296522.00 L 10572418.00 11614173.00 L 10531604.00 11712706.00 L 10205134.00 12039176.00 L 10106601.00 12079990.00 L 9994859.00 12079990.00 L 9994307.00 12620079.00 L 9955615.00 12713490.00 L 9862204.00 12752182.00  zM 13248031.00 12928154.28 L 13248031.00 12819125.41 L 13274129.00 12801688.00 L 13291566.41 12775590.00 L 13400595.28 12775590.00 L 13373881.00 12840084.00 L 13312525.00 12901440.00 L 13248031.00 12928154.28  zM 16235992.59 7775591.00 L 16126963.72 7775591.00 L 16153678.00 7711097.00 L 16215034.00 7649741.00 L 16279528.00 7623026.72 L 16279528.00 7732055.59 L 16253430.00 7749493.00 L 16235992.59 7775591.00  zM 16279528.00 8046265.28 L 16215034.00 8019551.00 L 16153678.00 7958195.00 L 16126963.72 7893701.00 L 16235992.59 7893701.00 L 16253430.00 7919799.00 L 16279528.00 7937236.41 L 16279528.00 8046265.28  zM 16235992.59 8799213.00 L 16126963.72 8799213.00 L 16153678.00 8734719.00 L 16215034.00 8673363.00 L 16279528.00 8646648.72 L 16279528.00 8755677.59 L 16253430.00 8773115.00 L 16235992.59 8799213.00  zM 16279528.00 9069887.28 L 16215034.00 9043173.00 L 16153678.00 8981817.00 L 16126963.72 8917323.00 L 16235992.59 8917323.00 L 16253430.00 8943421.00 L 16279528.00 8960858.41 L 16279528.00 9069887.28  zM 12528346.41 13051181.00 L 12422932.01 13051181.00 L 12458884.00 12964385.00 L 12531314.00 12891955.00 L 12618110.00 12856003.01 L 12618110.00 12961417.41 L 12563628.00 12996699.00 L 12528822.00 13048790.00 L 12528346.41 13051181.00  zM 12736220.00 13364468.99 L 12736220.00 13259054.59 L 12790702.00 13223773.00 L 12825983.59 13169291.00 L 12931397.99 13169291.00 L 12895446.00 13256087.00 L 12823016.00 13328517.00 L 12736220.00 13364468.99  zM 12618110.00 13364468.99 L 12531314.00 13328517.00 L 12458884.00 13256087.00 L 12422932.01 13169291.00 L 12528346.41 13169291.00 L 12563628.00 13223773.00 L 12618110.00 13259054.59 L 12618110.00 13364468.99  zM 12751561.00 14311023.00 L 12602769.00 14311023.00 L 12465303.00 14254082.00 L 12360091.00 14148870.00 L 12303150.00 14011404.00 L 12303150.00 13862612.00 L 12360091.00 13725146.00 L 12465303.00 13619934.00 L 12602769.00 13562993.00 L 12751561.00 13562993.00 L 12889027.00 13619934.00 L 12994239.00 13725146.00 L 13051180.00 13862612.00 L 13051180.00 14011404.00 L 12994239.00 14148870.00 L 12889027.00 14254082.00 L 12751561.00 14311023.00  zM 12931397.99 13051181.00 L 12825983.59 13051181.00 L 12790702.00 12996699.00 L 12736220.00 12961417.41 L 12736220.00 12856003.01 L 12823016.00 12891955.00 L 12895446.00 12964385.00 L 12931397.99 13051181.00  zM 13129921.00 12928154.28 L 13065427.00 12901440.00 L 13004071.00 12840084.00 L 12977356.72 12775590.00 L 13086385.59 12775590.00 L 13103823.00 12801688.00 L 13129921.00 12819125.41 L 13129921.00 12928154.28  zM 14575590.41 13051181.00 L 14470176.01 13051181.00 L 14506128.00 12964385.00 L 14578558.00 12891955.00 L 14665354.00 12856003.01 L 14665354.00 12961417.41 L 14610872.00 12996699.00 L 14576066.00 13048790.00 L 14575590.41 13051181.00  zM 14665354.00 13364468.99 L 14578558.00 13328517.00 L 14506128.00 13256087.00 L 14470176.01 13169291.00 L 14575590.41 13169291.00 L 14610872.00 13223773.00 L 14665354.00 13259054.59 L 14665354.00 13364468.99  z"/>
<path id="N" d="M 6961992.00 2128614.00 L 6903810.00 2019763.00 L 6881891.00 2024123.00 L 6766066.00 2001084.00 L 6667874.00 1935474.00 L 6602264.00 1837282.00 L 6579225.00 1721457.00 L 6579225.00 1623032.00 L 6681184.00 1623032.00 L 6681184.00 1721457.00 A 200706.53 200706.53 0 0 0 7082598.00 1721457.00 L 7082598.00 1623032.00 L 7184557.00 1623032.00 L 7184557.00 1721457.00 L 7180197.00 1743376.00 L 7289201.00 1801405.00 L 7347803.00 1762248.00 L 7416930.00 1748498.00 L 9864723.00 1748498.00 L 9881261.00 1745046.00 L 9979268.00 1663652.00 L 9980799.00 1660329.00 L 9980799.00 1623032.00 L 10082758.00 1623032.00 L 10082758.00 1721457.00 A 200706.53 200706.53 0 1 0 10484172.00 1721457.00 L 10484172.00 1623032.00 L 10586131.00 1623032.00 L 10586131.00 1721457.00 L 10563092.00 1837282.00 L 10516025.00 1907723.00 L 10515523.00 1921571.00 L 10540120.00 2000287.00 L 10562396.00 2034150.00 L 10580938.00 2037838.00 L 10639540.00 2076995.00 L 10773236.00 2210691.00 L 10882356.00 2165492.00 L 10882356.00 1574803.00 L 10896106.00 1505676.00 L 10935263.00 1447074.00 L 11088822.00 1293515.00 L 11090075.00 1283269.00 L 11054228.00 1161076.00 L 11030225.00 1151134.00 L 10974850.00 1095759.00 L 10958636.00 1056614.00 L 10712579.00 810557.00 L 6885846.00 810557.00 L 5649159.00 2047244.00 L 6151351.00 2549436.00 L 6190508.00 2608038.00 L 6204258.00 2677165.00 L 6204258.00 2725909.00 L 6268465.00 2759790.00 L 6322368.00 2768238.00 L 6961992.00 2128614.00  zM 6681184.00 1504922.00 L 6579225.00 1504922.00 L 6579225.00 1406497.00 L 6602264.00 1290672.00 L 6667874.00 1192480.00 L 6766066.00 1126870.00 L 6822836.01 1115577.76 L 6822836.00 1217536.87 L 6805084.00 1221068.00 A 200709.51 200709.51 0 0 0 6681184.00 1406497.00 L 6681184.00 1504922.00  zM 7184557.00 1504922.00 L 7082598.00 1504922.00 L 7082598.00 1406497.00 A 200706.53 200706.53 0 0 0 6958698.00 1221068.00 L 6940946.00 1217536.88 L 6940946.01 1115577.76 L 6997716.00 1126870.00 L 7095908.00 1192480.00 L 7161518.00 1290672.00 L 7184557.00 1406497.00 L 7184557.00 1504922.00  zM 6761467.00 1721457.00 L 6761467.00 1406497.00 A 120431.73 120431.73 0 0 1 7002315.00 1406497.00 L 7002315.00 1721457.00 A 120431.73 120431.73 0 1 1 6761467.00 1721457.00  zM 10082758.00 1504922.00 L 9980799.00 1504922.00 L 9980799.00 1406497.00 L 10003838.00 1290672.00 L 10069448.00 1192480.00 L 10167640.00 1126870.00 L 10224410.01 1115577.76 L 10224410.00 1217536.87 L 10206658.00 1221068.00 A 200709.51 200709.51 0 0 0 10082758.00 1406497.00 L 10082758.00 1504922.00  zM 10586131.00 1504922.00 L 10484172.00 1504922.00 L 10484172.00 1406497.00 A 200706.53 200706.53 0 0 0 10360272.00 1221068.00 L 10342520.00 1217536.88 L 10342520.01 1115577.76 L 10399290.00 1126870.00 L 10497482.00 1192480.00 L 10563092.00 1290672.00 L 10586131.00 1406497.00 L 10586131.00 1504922.00  zM 10163041.00 1721457.00 L 10163041.00 1406497.00 A 120431.73 120431.73 0 0 1 10403889.00 1406497.00 L 10403889.00 1721457.00 A 120431.73 120431.73 0 1 1 10163041.00 1721457.00  z"/>
<path id="N" d="M 10882356.00 3792367.00 L 10882356.00 2830727.00 L 10436989.00 2385360.00 L 10140313.00 2385360.00 L 10071186.00 2371610.00 L 10012584.00 2332453.00 L 9789901.00 2109770.00 L 7491752.00 2109770.00 L 6999034.00 2602488.00 L 7032099.00 2736457.00 L 7095908.00 2779093.00 L 7154067.00 2866134.00 L 7204773.00 2879110.00 L 7282962.00 2882409.00 L 7327801.00 2837570.00 A 210742.22 210742.22 0 0 1 7651576.00 3053909.00 L 7747525.00 3130906.00 L 7951205.00 3130906.00 L 7951205.00 2678413.00 L 7903984.00 2631192.00 A 200711.42 200711.42 0 1 1 8237748.00 2631192.00 L 8229899.00 2639041.00 L 8229899.00 3004318.00 L 8344906.00 3011809.00 L 8385720.00 2913277.00 L 8484144.00 2814852.00 L 8582677.00 2774039.00 L 8820297.00 2774039.00 L 8918830.00 2814853.00 L 8976487.00 2872510.00 L 9017301.00 2971042.00 L 9132307.00 2963549.00 L 9132307.00 2659805.00 L 9101868.00 2647197.00 A 200702.40 200702.40 0 1 1 9410225.00 2519471.00 L 9399018.00 2546527.00 L 9411001.00 2575455.00 L 9411001.00 2911176.00 L 9529111.00 2934669.00 L 9545247.00 2895714.00 A 210742.55 210742.55 0 0 1 9837555.00 2837570.00 L 9882394.00 2882409.00 L 9960583.00 2879110.00 L 10011289.00 2866134.00 L 10069448.00 2779093.00 L 10167640.00 2713483.00 L 10224410.00 2702191.00 L 10224410.00 2804149.88 L 10206658.00 2807681.00 A 200709.51 200709.51 0 0 0 10082758.00 2993110.00 L 10082758.00 3426182.00 A 200706.53 200706.53 0 1 0 10484172.00 3426182.00 L 10484172.00 3268701.00 L 10586131.00 3268701.00 L 10586131.00 3426182.00 L 10563092.00 3542007.00 L 10523816.00 3600788.00 L 10539045.00 3658108.00 L 10565809.00 3719016.00 L 10571596.00 3725691.00 L 10635360.00 3752103.00 L 10696715.00 3813458.00 L 10825557.00 3847836.00 L 10858560.00 3827185.00 L 10882356.00 3792367.00  zM 10586131.00 3150591.00 L 10484172.00 3150591.00 L 10484172.00 2993110.00 A 200706.53 200706.53 0 0 0 10360272.00 2807681.00 L 10342520.00 2804149.88 L 10342520.01 2702190.76 L 10399290.00 2713483.00 L 10497482.00 2779093.00 L 10563092.00 2877285.00 L 10586131.00 2993110.00 L 10586131.00 3150591.00  zM 10163041.00 3426181.00 L 10163041.00 2993111.00 A 120431.73 120431.73 0 1 1 10403889.00 2993111.00 L 10403889.00 3426181.00 A 120431.73 120431.73 0 1 1 10163041.00 3426181.00  z"/>
<path id="N" d="M 12694741.00 5418393.00 L 12715440.00 5416429.00 L 12734648.00 5408473.00 L 12755907.00 5408473.00 L 12755907.00 5267315.00 L 12745834.00 5265311.00 L 12687232.00 5226154.00 L 11525814.00 4064736.00 L 11486657.00 4006134.00 L 11472907.00 3937007.00 L 11472907.00 1810584.00 L 11456693.00 1771439.00 L 11456693.00 1693128.00 L 11415625.00 1597798.00 L 11391967.00 1570848.00 L 11320088.00 1573165.00 L 11243628.00 1649625.00 L 11243628.00 3937008.00 L 11229878.00 4006135.00 L 11190721.00 4064737.00 L 10836390.00 4419068.00 L 10777788.00 4458225.00 L 10708661.00 4471975.00 L 9803150.00 4471975.00 L 9734023.00 4458225.00 L 9675421.00 4419068.00 L 9399831.00 4143478.00 L 9360674.00 4084876.00 L 9346924.00 4015749.00 L 9346924.00 3741142.00 L 9017301.00 3741142.00 L 9017301.00 4724410.00 L 9212598.00 4724410.00 L 9212598.00 5096873.00 L 9794262.00 5096873.00 L 9881890.00 4999785.00 A 200710.14 200710.14 0 0 1 10190247.00 4793748.00 L 10217782.00 4821283.00 L 11825560.00 4821283.00 L 11924093.00 4862097.00 L 12484984.00 5422988.00 L 12498015.00 5431686.00 L 12597889.00 5469718.00 L 12694741.00 5418393.00  z"/>
<path id="N" d="M 7082598.00 3426182.00 L 7082598.00 2993110.00 A 200706.53 200706.53 0 0 0 6681184.00 2993110.00 L 6681184.00 3426182.00 A 200706.53 200706.53 0 1 0 7082598.00 3426182.00  zM 6761467.00 3426181.00 L 6761467.00 2993111.00 A 120431.73 120431.73 0 1 1 7002315.00 2993111.00 L 7002315.00 3426181.00 A 120431.73 120431.73 0 1 1 6761467.00 3426181.00  z"/>
<path id="N" d="M 6778367.00 4008895.00 L 6794686.66 3997991.00 L 7187837.00 3997991.00 L 7226241.00 3990352.00 L 7258797.00 3968598.00 L 7374110.00 3853285.00 L 7395864.00 3820729.00 L 7403503.00 3782325.00 L 7403503.00 3662402.00 L 7440945.00 3662402.00 L 7440945.00 3209646.00 L 7204725.00 3209646.00 L 7204725.00 3446016.25 L 7202797.00 3455709.00 L 7202797.00 3740758.00 L 7146270.00 3797285.00 L 6794686.66 3797285.00 L 6778367.00 3786381.00 A 120419.38 120419.38 0 1 0 6778367.00 4008895.00  z"/>
<path id="N" d="M 10465727.00 3825751.00 L 10449407.34 3836655.00 L 10019086.00 3836655.00 L 9962559.00 3780128.00 L 9962559.00 3455709.00 L 9960631.00 3446016.25 L 9960631.00 3209646.00 L 9724411.00 3209646.00 L 9724411.00 3662402.00 L 9761853.00 3662402.00 L 9761853.00 3821695.00 L 9769492.00 3860099.00 L 9791246.00 3892655.00 L 9906559.00 4007968.00 L 9939115.00 4029722.00 L 9977519.00 4037361.00 L 10449407.34 4037361.00 L 10465727.00 4048265.00 A 120419.38 120419.38 0 1 0 10465727.00 3825751.00  z"/>
<path id="N" d="M 11427166.00 10126589.00 L 11427166.00 10000000.00 L 11848055.00 10000000.00 L 11848055.00 9784252.00 L 11888869.00 9685719.00 L 12389112.00 9185475.00 L 12343913.00 9076355.00 L 11359514.00 9076355.00 L 11331979.00 9103890.00 L 11259628.00 9133858.00 L 11181316.00 9133858.00 L 11162970.00 9126259.00 L 11046434.00 9193198.00 L 11044859.00 9195447.00 L 11044859.00 9309777.00 L 11072394.00 9337312.00 A 200711.42 200711.42 0 0 1 11017019.00 9615701.00 L 10954775.00 9641483.00 L 10931511.00 9690544.00 L 10910039.00 9763779.00 L 11318046.00 10171788.00 L 11427166.00 10126589.00  z"/>
<path id="N" d="M 12556717.00 8230469.00 L 12556717.00 7883859.00 L 11781497.00 7883859.00 L 11781497.00 7640408.00 L 11760237.00 7531104.00 L 11642127.00 7513736.00 L 11624016.00 7521238.00 L 11410753.00 7521238.00 L 11044859.00 7887132.00 L 11044859.00 8284868.00 L 11046434.00 8287117.00 L 11162970.00 8354056.00 L 11181316.00 8346457.00 L 11259628.00 8346457.00 L 11331979.00 8376425.00 L 11359514.00 8403960.00 L 12383226.00 8403960.00 L 12556717.00 8230469.00  z"/>
<path id="N" d="M 7952757.00 4888863.00 L 7952757.00 4724410.00 L 8148055.00 4724410.00 L 8148055.00 3741142.00 L 7818432.00 3741142.00 L 7818432.00 3937007.00 L 7804682.00 4006133.00 L 7765525.00 4064736.00 L 7503470.00 4326791.00 L 7503470.00 4846383.00 L 7553127.00 4878397.00 L 7621580.00 4905002.00 L 7677379.00 4881890.00 L 7755691.00 4881890.00 L 7828042.00 4911858.00 L 7834647.00 4918463.00 L 7952757.00 4888863.00  z"/>
<path id="N" d="M 4834063.00 15438297.00 L 4833751.00 13251502.00 L 2755905.00 13251502.00 L 2686779.00 13237752.00 L 2628176.00 13198595.00 L 1441472.00 12011891.00 L 1343464.00 12080916.00 L 1377773.00 12153457.00 L 1788296.00 12838374.00 L 2263976.00 13479754.00 L 2800232.00 14071422.00 L 3391900.00 14607678.00 L 4033280.00 15083358.00 L 4718197.00 15493881.00 L 4734277.00 15501486.00 L 4834063.00 15438297.00  z"/>
<path id="N" d="M 9351499.00 16415502.00 L 10141381.00 16298334.00 L 10915974.00 16104309.00 L 11508458.00 15892314.00 L 11487964.00 15774204.00 L 5619910.00 15774204.00 L 5599416.00 15892314.00 L 6191900.00 16104309.00 L 6966493.00 16298334.00 L 7756375.00 16415502.00 L 8553937.00 16454684.00 L 9351499.00 16415502.00  z"/>
<path id="N" d="M 6646465.00 539022.00 L 6586061.00 432393.00 L 6191900.00 531125.00 L 5440055.00 800140.00 L 4718197.00 1141553.00 L 4033280.00 1552076.00 L 3768436.00 1748498.00 L 3807455.00 1866608.00 L 5318879.00 1866608.00 L 6646465.00 539022.00  z"/>
<path id="N" d="M 15312875.00 3788022.00 L 14843898.00 3155680.00 L 14307642.00 2564012.00 L 13790222.00 2095050.00 L 13750687.00 2107832.00 L 13681102.00 2155554.00 L 13681102.00 2279120.00 L 13668167.00 2310347.00 L 15223198.00 3865378.00 L 15312875.00 3788022.00  z"/>
<path id="N" d="M 10101437.00 331175.00 L 9351499.00 219932.00 L 8553937.00 180750.00 L 7756375.00 219932.00 L 7006437.00 331175.00 L 7015149.00 449285.00 L 10092725.00 449285.00 L 10101437.00 331175.00  z"/>
<path id="N" d="M 1496064.97 6322840.69 m -327599.99 0 a 327599.99 327599.99 0 1 1 655199.97 0a 327599.99 327599.99 0 1 1 -655199.97 0M 1496064.22 6322831.65 m -220780.35 0 a 220780.35 220780.35 0 1 1 441560.70 0a 220780.35 220780.35 0 1 1 -441560.70 0"/>
<path id="N" d="M 2496064.97 9322840.69 m -327599.99 0 a 327599.99 327599.99 0 1 1 655199.97 0a 327599.99 327599.99 0 1 1 -655199.97 0M 2496064.22 9322831.65 m -220780.35 0 a 220780.35 220780.35 0 1 1 441560.70 0a 220780.35 220780.35 0 1 1 -441560.70 0"/>
<path id="N" d="M 6220472.00 9658870.00 L 5511812.00 9658870.00 L 5511812.00 10383278.00 L 6220472.00 10383278.00 L 6220472.00 9658870.00  z"/>
<path id="N" d="M 13779525.35 13937001.57 m -297829.90 0 a 297829.90 297829.90 0 1 1 595659.80 0a 297829.90 297829.90 0 1 1 -595659.80 0M 13779528.36 13937008.47 m -200706.53 0 a 200706.53 200706.53 0 1 1 401413.05 0a 200706.53 200706.53 0 1 1 -401413.05 0"/>
<path id="N" d="M 9869831.00 7817607.00 L 9288916.00 7817607.00 L 9288916.00 7406190.00 L 9274561.29 7371537.29 L 8985192.00 7082167.00 L 8950540.00 7067814.00 L 8720103.00 7067814.00 L 8720103.00 6828740.00 L 8706374.00 6795594.00 L 8673228.00 6781865.00 L 8326772.00 6781865.00 L 8293626.00 6795594.00 L 8279897.00 6828740.00 L 8279897.00 7423228.00 L 8293626.00 7456374.00 L 8326772.00 7470103.00 L 8673228.00 7470103.00 L 8706374.00 7456374.00 L 8720103.00 7423228.00 L 8720103.00 7165824.00 L 8930241.05 7165824.00 L 9190906.00 7426488.05 L 9190906.00 7817607.00 L 9161171.00 7817607.00 L 9161171.00 8542015.00 L 9869831.00 8542015.00 L 9869831.00 7817607.00  z"/>
<path id="N" d="M 8149607.00 3209646.00 L 8144672.00 3209646.00 L 8144672.00 2612419.51 L 8156019.00 2604838.00 A 120431.73 120431.73 0 1 0 8024782.00 2630942.00 L 8036432.00 2633259.41 L 8036432.00 3209646.00 L 8031497.00 3209646.00 L 8031497.00 3662402.00 L 8149607.00 3662402.00 L 8149607.00 3209646.00  z"/>
<path id="N" d="M 9895350.00 12653225.00 L 9909079.00 12620079.00 L 9909632.00 11994763.00 L 10106601.00 11994764.00 L 10144870.00 11978912.00 L 10471340.00 11652442.00 L 10487191.00 11614173.00 L 10487191.00 10263367.74 L 10518224.00 10242633.00 A 120431.73 120431.73 0 1 0 10347918.00 10242633.00 L 10378951.00 10263367.74 L 10378951.00 11591755.95 L 10084183.05 11886523.00 L 9882824.00 11886522.00 A 102582.29 102582.29 0 0 0 9801392.00 11967957.41 L 9801392.00 11978716.00 L 9515748.00 11978716.00 L 9482602.00 11992445.00 L 9468873.00 12025591.00 L 9468873.00 12620079.00 L 9482602.00 12653225.00 L 9515748.00 12666954.00 L 9862204.00 12666954.00 L 9895350.00 12653225.00  z"/>
<path id="N" d="M 11305625.00 9022161.00 L 11326359.74 8991128.00 L 12598426.00 8991129.00 L 12636695.00 8975277.00 L 12931970.00 8680002.00 L 12947821.00 8641730.59 L 12947821.00 7667324.00 L 12942913.00 7655474.64 L 12942913.00 7529529.00 L 12844489.00 7529529.00 L 12844489.00 7655474.64 L 12839581.00 7667324.00 L 12839581.00 8619315.00 L 12576008.00 8882888.00 L 11326359.74 8882888.00 L 11305625.00 8851855.00 A 120431.73 120431.73 0 1 0 11305625.00 9022161.00  z"/>
<path id="N" d="M 2496064.97 8322840.69 m -327599.99 0 a 327599.99 327599.99 0 1 1 655199.97 0a 327599.99 327599.99 0 1 1 -655199.97 0M 2496064.22 8322831.65 m -220780.35 0 a 220780.35 220780.35 0 1 1 441560.70 0a 220780.35 220780.35 0 1 1 -441560.70 0"/>
<path id="N" d="M 11144046.00 7283465.00 L 11142880.37 7277605.18 L 11181324.16 7239161.00 L 11624016.00 7239161.00 L 11635865.36 7234253.00 L 11761811.00 7234253.00 L 11761811.00 7135829.00 L 11635865.36 7135829.00 L 11624016.00 7130921.00 L 11158907.00 7130920.00 L 11120637.29 7146773.71 L 11084990.37 7182420.27 L 11069706.00 7172208.00 A 120419.38 120419.38 0 1 0 11144046.00 7283465.00  z"/>
<path id="N" d="M 6467324.28 8897639.28 m -160563.76 0 a 160563.76 160563.76 0 1 1 321127.52 0a 160563.76 160563.76 0 1 1 -321127.52 0"/>
<path id="N" d="M 2820866.00 5998032.00 L 2171260.00 5998032.00 L 2171260.00 6647638.00 L 2820866.00 6647638.00 L 2820866.00 5998032.00  zM 2496064.22 6322831.65 m -220780.35 0 a 220780.35 220780.35 0 1 1 441560.70 0a 220780.35 220780.35 0 1 1 -441560.70 0"/>
<path id="N" d="M 7244094.00 7478001.00 L 7207489.40 7485282.36 L 5504928.00 5782720.01 L 5504928.00 5135847.00 L 5489077.00 5097578.00 L 5403789.61 5012290.61 L 5392598.29 4985276.29 L 5289299.73 4881977.00 L 5392600.00 4778677.00 L 5408451.00 4740405.59 L 5408451.00 4094485.00 L 5669291.00 4094485.00 L 5669291.00 3700785.00 L 5196851.00 3700785.00 L 5196851.00 4094485.00 L 5300211.00 4094485.00 L 5300211.00 4717990.89 L 5190344.11 4827857.00 L 5107107.00 4827857.00 L 5107107.00 4519773.00 L 4398447.00 4519773.00 L 4398447.00 4827770.00 L 3996062.00 4827770.00 L 3996062.00 4527560.00 L 3602362.00 4527560.00 L 3602362.00 4827770.00 L 3486984.10 4827770.00 L 3361207.00 4701992.10 L 3361207.00 4094485.00 L 3464561.00 4094485.00 L 3464561.00 3700785.00 L 2992121.00 3700785.00 L 2992121.00 4094485.00 L 3252967.00 4094485.00 L 3252966.00 4724410.00 L 3268818.00 4762679.00 L 3426298.00 4920159.00 L 3464567.00 4936010.00 L 3602362.00 4936010.00 L 3602362.00 5236220.00 L 3996062.00 5236220.00 L 3996062.00 4936010.00 L 4398447.00 4936010.00 L 4398447.00 5244181.00 L 5107107.00 5244181.00 L 5107107.00 4936097.00 L 5190344.11 4936097.00 L 5304871.54 5050623.61 L 5316062.00 5077639.00 L 5396688.00 5158265.00 L 5396687.00 5805138.00 L 5412539.00 5843407.00 L 7130951.69 7561818.74 L 7123670.00 7598425.00 A 120431.73 120431.73 0 1 0 7244094.00 7478001.00  z"/>
<path id="N" d="M 12037402.00 11889764.00 L 11505906.00 11889764.00 L 11505906.00 11953754.00 L 11439740.06 11953754.00 L 11254874.59 11768887.86 L 11262156.00 11732283.00 A 120431.73 120431.73 0 1 0 11141732.00 11852707.00 L 11178336.86 11845425.59 L 11379054.00 12046143.00 L 11417325.41 12061994.00 L 11505906.00 12061994.00 L 11505906.00 12125984.00 L 12037402.00 12125984.00 L 12037402.00 11889764.00  z"/>
<path id="N" d="M 12037402.00 10138686.90 L 12041522.00 10128740.00 L 12041522.00 9806669.97 L 12620843.03 9227348.00 L 12925608.26 9227348.00 L 12946343.00 9258381.00 A 120431.73 120431.73 0 1 0 12946343.00 9088075.00 L 12925608.26 9119108.00 L 12598426.00 9119108.00 L 12560156.29 9134960.71 L 11949133.00 9745983.00 L 11933282.00 9784254.41 L 11933282.00 10078740.00 L 11505906.00 10078740.00 L 11505906.00 10314960.00 L 12037402.00 10314960.00 L 12037402.00 10138686.90  z"/>
<path id="N" d="M 14220473.00 11062992.00 L 13496065.00 11062992.00 L 13496065.00 11569937.00 L 12982284.00 11569937.00 L 12982284.00 11515748.00 L 12450788.00 11515748.00 L 12450788.00 11751968.00 L 12982284.00 11751968.00 L 12982284.00 11697779.00 L 13496065.00 11697779.00 L 13496065.00 11771652.00 L 14220473.00 11771652.00 L 14220473.00 11062992.00  z"/>
<path id="N" d="M 10858362.00 13141826.00 L 11050456.77 12949732.04 L 11069706.00 12945903.00 A 120412.98 120412.98 0 1 0 10912365.00 12788562.00 L 10908535.96 12807811.23 L 10745834.88 12970513.00 L 7521882.84 12970513.00 L 7391523.00 12840153.84 L 7391523.00 12291338.00 L 7401574.00 12291338.00 L 7401574.00 11716724.00 L 7797473.00 11320825.00 L 8031497.00 11320825.00 L 8031497.00 11582676.00 L 8740157.00 11582676.00 L 8740157.00 10858268.00 L 8031497.00 10858268.00 L 8031497.00 11120119.00 L 7755906.00 11120119.00 L 7717502.00 11127758.00 L 7684946.00 11149512.00 L 7383818.00 11450640.00 L 7383818.00 10383278.00 L 7401574.00 10383278.00 L 7401574.00 9658870.00 L 7383818.00 9658870.00 L 7383818.00 8584874.00 L 7688528.00 8280164.00 L 7980069.00 8280164.00 L 7980069.00 8542015.00 L 8688729.00 8542015.00 L 8688729.00 7817607.00 L 7980069.00 7817607.00 L 7980069.00 8079458.00 L 7646961.00 8079458.00 L 7608557.00 8087097.00 L 7576001.00 8108851.00 L 7212505.00 8472347.00 L 7190751.00 8504903.00 L 7183112.00 8543307.00 L 7183112.00 9658870.00 L 6692914.00 9658870.00 L 6692914.00 10383278.00 L 7183112.00 10383278.00 L 7183112.00 11566930.00 L 6692914.00 11566930.00 L 6692914.00 12291338.00 L 7190817.00 12291338.00 L 7190817.00 12864113.00 L 7084417.00 12970513.00 L 2797472.98 12970513.00 L 1509785.00 11682825.98 L 1509785.00 10648634.46 L 1580854.00 10639278.00 A 327599.99 327599.99 0 1 0 1212348.00 10159032.00 L 1189929.41 10213155.00 L 1063737.00 10213155.00 L 822105.00 9971523.00 L 822105.00 6514002.15 L 1020108.55 5861969.33 L 2540047.68 3271163.32 L 3663614.00 2147597.00 L 5352134.00 2147597.00 L 5923269.00 2718732.00 L 5923269.00 4519773.00 L 5579549.00 4519773.00 L 5579549.00 5244181.00 L 6288209.00 5244181.00 L 6288209.00 4519773.00 L 6123975.00 4519773.00 L 6123975.00 2677165.00 L 6116336.00 2638761.00 L 6094582.00 2606205.00 L 5535621.03 2047244.03 L 6852591.98 730274.00 L 10745834.00 730274.00 L 11026645.75 1011085.75 L 11030475.00 1030336.00 A 120412.98 120412.98 0 1 0 11187816.00 872995.00 L 11168565.75 869165.75 L 10858361.00 558961.00 L 10825805.00 537207.00 L 10787401.00 529568.00 L 6811024.00 529568.00 L 6772621.00 537207.00 L 6740063.00 558961.00 L 5352133.98 1946891.00 L 3622047.00 1946891.00 L 3583643.00 1954530.00 L 3551087.00 1976284.00 L 2389037.00 3138334.00 L 2373440.00 3158513.00 L 840982.00 5770658.00 L 831516.00 5792278.00 L 625729.00 6469943.00 L 621399.00 6499102.00 L 621399.00 10013090.00 L 629038.00 10051494.00 L 650792.00 10084050.00 L 951210.00 10384468.00 L 983766.00 10406222.00 L 1022170.00 10413861.00 L 1182202.63 10413861.00 L 1212348.00 10486638.00 L 1264411.00 10554487.00 L 1309079.00 10588762.38 L 1309079.00 11724393.00 L 1316718.00 11762797.00 L 1338472.00 11795353.00 L 2684944.00 13141826.00 L 2717502.00 13163580.00 L 2755905.00 13171219.00 L 10787402.00 13171219.00 L 10825806.00 13163580.00 L 10858362.00 13141826.00  zM 1496064.22 10322831.65 m -220780.35 0 a 220780.35 220780.35 0 1 1 441560.70 0a 220780.35 220780.35 0 1 1 -441560.70 0"/>
<path id="N" d="M 13316929.00 6348427.00 L 13238189.00 6348427.00 L 13238189.00 6248427.00 L 13416928.00 6248426.00 L 13514365.00 6288786.00 L 13700788.00 6102363.00 L 13700788.00 5588002.00 L 13643306.00 5493701.00 L 13248032.00 5493701.00 L 13248032.00 5393701.00 L 13543307.00 5393701.00 L 13543307.00 5000001.00 L 13100248.78 5000001.00 L 13090551.00 4998072.00 L 12856528.00 4998072.00 L 11753896.00 3895440.00 L 11753896.00 1794686.66 L 11764800.00 1778367.00 A 120419.38 120419.38 0 1 0 11542286.00 1778367.00 L 11553190.00 1794686.66 L 11553190.00 3937007.00 L 11560829.00 3975411.00 L 11582583.00 4007967.00 L 12744001.00 5169385.00 L 12776557.00 5191139.00 L 12814961.00 5198778.00 L 12834647.00 5198778.00 L 12834647.00 5393701.00 L 13129922.00 5393701.00 L 13129922.00 5493701.00 L 12734648.00 5493701.00 L 12637796.00 5545025.00 L 12637796.00 5631326.00 L 12639347.00 5635070.00 L 12639347.00 5874411.00 L 12834646.00 5874411.00 L 12834646.00 6112206.00 L 12844489.00 6112206.00 L 12844489.00 6250001.00 L 12942913.00 6250001.00 L 12942913.00 6171261.00 L 13042913.00 6171261.00 L 13042913.00 6248427.00 L 13120079.00 6248427.00 L 13120079.00 6348427.00 L 13041339.00 6348427.00 L 13041339.00 6446851.00 L 13316929.00 6446851.00 L 13316929.00 6348427.00  zM 13042913.00 6053151.01 L 12952756.00 6053151.00 L 12952756.01 5874411.00 L 13042913.00 5874411.00 L 13042913.00 6053151.01  z"/>
<path id="N" d="M 12746063.00 5974411.00 L 12647639.00 5974411.00 L 12647639.00 6250001.00 L 12746063.00 6250001.00 L 12746063.00 5974411.00  z"/>
<path id="N" d="M 15401575.00 9881890.00 L 15103292.00 9881890.00 L 15103292.00 9645670.00 L 15084570.00 9600471.00 L 14966459.00 9482360.00 L 14921260.00 9463638.00 L 13159449.00 9463638.00 L 13114250.00 9482360.00 L 12891886.00 9704724.00 L 12450788.00 9704724.00 L 12450788.00 9940944.00 L 12982284.00 9940944.00 L 12982284.00 9795122.00 L 13185926.00 9591480.00 L 14894783.00 9591480.00 L 14975450.00 9672147.00 L 14975450.00 9881890.00 L 14677167.00 9881890.00 L 14677167.00 10590550.00 L 15401575.00 10590550.00 L 15401575.00 9881890.00  z"/>
<path id="N" d="M 12982284.00 10634786.00 L 13515750.00 10634786.00 L 13560949.00 10616064.00 L 13586463.00 10590550.00 L 14220473.00 10590550.00 L 14220473.00 9881890.00 L 13496065.00 9881890.00 L 13496065.00 10500152.00 L 13489273.00 10506944.00 L 12982284.00 10506944.00 L 12982284.00 10452755.00 L 12669228.59 10452755.00 L 12657481.00 10447889.00 L 11473618.00 10447889.00 L 10654472.00 9628742.00 L 10654472.00 6837501.00 L 10833563.00 6658410.00 L 11279527.00 6658410.00 L 11303188.76 6648609.00 L 11624016.00 6648609.00 L 11635865.36 6643701.00 L 11761811.00 6643701.00 L 11761811.00 6545277.00 L 11635865.36 6545277.00 L 11624016.00 6540369.00 L 11303188.76 6540369.00 L 11279527.00 6530568.00 L 10807086.00 6530568.00 L 10761887.00 6549290.00 L 10545352.00 6765825.00 L 10526630.00 6811024.00 L 10526630.00 9655219.00 L 10545352.00 9700418.00 L 11401942.00 10557009.00 L 11447141.00 10575731.00 L 12450788.00 10575731.00 L 12450788.00 10688975.00 L 12982284.00 10688975.00 L 12982284.00 10634786.00  z"/>
<path id="N" d="M 14448819.00 8168280.00 L 13816696.60 8168280.00 L 13625272.00 7976855.03 L 13625273.00 7011134.00 L 13609419.29 6972864.29 L 13390414.00 6753858.00 L 13352142.59 6738007.00 L 13179134.00 6737219.00 L 13167282.97 6742128.00 L 13041339.00 6742128.00 L 13041339.00 6840552.00 L 13166170.04 6840552.00 L 13179923.41 6846247.00 L 13329727.07 6846247.00 L 13517032.00 7033551.07 L 13517031.00 7999273.00 L 13532883.00 8037542.00 L 13740159.00 8244817.60 L 13740159.00 8892688.00 L 14448819.00 8892688.00 L 14448819.00 8168280.00  z"/>
<path id="N" d="M 12982284.00 12445810.00 L 14704725.00 12445810.00 L 14749924.00 12427088.00 L 15084570.00 12092442.00 L 15103292.00 12047243.00 L 15103292.00 11771652.00 L 15401575.00 11771652.00 L 15401575.00 11062992.00 L 14677167.00 11062992.00 L 14677167.00 11771652.00 L 14975450.00 11771652.00 L 14975450.00 12020766.00 L 14678248.00 12317968.00 L 12982284.00 12317968.00 L 12982284.00 12263779.00 L 12450788.00 12263779.00 L 12450788.00 12317968.00 L 12418500.00 12317968.00 L 12308015.00 12207483.00 L 12308015.00 11338582.00 L 12289293.00 11293383.00 L 11934963.00 10939053.00 L 11889764.00 10920331.00 L 11209327.00 10920331.00 L 10969451.00 10680454.00 L 10969451.00 10611138.16 L 10990665.00 10596964.00 A 120431.73 120431.73 0 1 0 10820359.00 10596964.00 L 10841609.00 10611162.21 L 10841609.00 10706931.00 L 10860331.00 10752130.00 L 11137651.00 11029451.00 L 11182850.00 11048173.00 L 11863287.00 11048173.00 L 12180173.00 11365059.00 L 12180173.00 12233960.00 L 12198895.00 12279159.00 L 12346824.00 12427088.00 L 12392023.00 12445810.00 L 12450788.00 12445810.00 L 12450788.00 12499999.00 L 12982284.00 12499999.00 L 12982284.00 12445810.00  z"/>
<path id="N" d="M 10990665.00 9363666.00 L 10959632.00 9342931.26 L 10959632.00 7851830.96 L 11375451.04 7436011.00 L 11624016.00 7436011.00 L 11635865.36 7431103.00 L 11761811.00 7431103.00 L 11761811.00 7332679.00 L 11635865.36 7332679.00 L 11624016.00 7327771.00 L 11353034.00 7327770.00 L 11314764.29 7343623.71 L 10867243.00 7791144.00 L 10851392.00 7829415.41 L 10851392.00 9342931.26 L 10820359.00 9363666.00 A 120431.73 120431.73 0 1 0 10990665.00 9363666.00  z"/>
<path id="N" d="M 8385827.00 4803150.00 L 8341522.00 4803150.00 L 8341522.00 4294070.96 L 8719372.00 3916221.00 L 8735223.00 3877952.00 L 8735223.00 3662402.00 L 8740158.00 3662402.00 L 8740158.00 3209646.00 L 8622048.00 3209646.00 L 8622048.00 3662402.00 L 8626983.00 3662402.00 L 8626983.00 3855534.96 L 8341522.00 4140995.23 L 8341522.00 3662402.00 L 8346457.00 3662402.00 L 8346457.00 3209646.00 L 8228347.00 3209646.00 L 8228347.00 3662402.00 L 8233282.00 3662402.00 L 8233282.00 4803150.00 L 8031497.00 4803150.00 L 8031497.00 5024620.00 L 7822422.74 5024620.00 L 7801688.00 4993587.00 A 120431.73 120431.73 0 1 0 7801688.00 5163893.00 L 7822422.74 5132860.00 L 8031497.00 5132860.00 L 8031497.00 5354330.00 L 8385827.00 5354330.00 L 8385827.00 4803150.00  z"/>
<path id="N" d="M 12549212.00 6124055.36 L 12554120.00 6112206.00 L 12554120.00 5635070.00 L 12538267.29 5596800.29 L 11863829.00 4922361.00 L 11825557.59 4906510.00 L 10184627.74 4906510.00 L 10163893.00 4875477.00 A 120431.73 120431.73 0 1 0 10163893.00 5045783.00 L 10184627.74 5014750.00 L 11803142.02 5014750.00 L 12445880.00 5657487.02 L 12445880.00 6112206.00 L 12450788.00 6124055.36 L 12450788.00 6250001.00 L 12549212.00 6250001.00 L 12549212.00 6124055.36  z"/>
<path id="N" d="M 2496064.97 7322840.69 m -327599.99 0 a 327599.99 327599.99 0 1 1 655199.97 0a 327599.99 327599.99 0 1 1 -655199.97 0M 2496064.22 7322831.65 m -220780.35 0 a 220780.35 220780.35 0 1 1 441560.70 0a 220780.35 220780.35 0 1 1 -441560.70 0"/>
<path id="N" d="M 1496064.97 9322840.69 m -327599.99 0 a 327599.99 327599.99 0 1 1 655199.97 0a 327599.99 327599.99 0 1 1 -655199.97 0M 1496064.22 9322831.65 m -220780.35 0 a 220780.35 220780.35 0 1 1 441560.70 0a 220780.35 220780.35 0 1 1 -441560.70 0"/>
<path id="N" d="M 6220472.00 11566930.00 L 5511812.00 11566930.00 L 5511812.00 12291338.00 L 6220472.00 12291338.00 L 6220472.00 11566930.00  z"/>
<path id="N" d="M 8553942.98 8317777.88 m -8322112.26 0 a 8322112.26 8322112.26 0 1 1 16644224.51 0a 8322112.26 8322112.26 0 1 1 -16644224.51 0M 8553919.54 8318032.55 m -8216801.45 0 a 8216801.45 8216801.45 0 1 1 16433602.90 0a 8216801.45 8216801.45 0 1 1 -16433602.90 0"/>
<path id="N" d="M 9053148.87 9976378.00 m -63921.13 0 a 63921.13 63921.13 0 1 1 127842.26 0a 63921.13 63921.13 0 1 1 -127842.26 0M 9053149.00 10018992.00 L 9023016.00 10006511.00 L 9010535.00 9976378.00 L 9023016.00 9946245.00 L 9053149.00 9933764.00 L 9083282.00 9946245.00 L 9095763.00 9976378.00 L 9083282.00 10006511.00 L 9053149.00 10018992.00  z"/>
<path id="N" d="M 8501967.87 9425197.00 m -63921.13 0 a 63921.13 63921.13 0 1 1 127842.26 0a 63921.13 63921.13 0 1 1 -127842.26 0M 8501968.00 9467811.00 L 8471835.00 9455330.00 L 8459354.00 9425197.00 L 8471835.00 9395064.00 L 8501968.00 9382583.00 L 8532101.00 9395064.00 L 8544582.00 9425197.00 L 8532101.00 9455330.00 L 8501968.00 9467811.00  z"/>
<path id="N" d="M 8777558.87 9149606.00 m -63921.13 0 a 63921.13 63921.13 0 1 1 127842.26 0a 63921.13 63921.13 0 1 1 -127842.26 0M 8777559.00 9192220.00 L 8747426.00 9179739.00 L 8734945.00 9149606.00 L 8747426.00 9119473.00 L 8777559.00 9106992.00 L 8807692.00 9119473.00 L 8820173.00 9149606.00 L 8807692.00 9179739.00 L 8777559.00 9192220.00  z"/>
<path id="N" d="M 9328739.87 9149606.00 m -63921.13 0 a 63921.13 63921.13 0 1 1 127842.26 0a 63921.13 63921.13 0 1 1 -127842.26 0M 9328740.00 9192220.00 L 9298607.00 9179739.00 L 9286126.00 9149606.00 L 9298607.00 9119473.00 L 9328740.00 9106992.00 L 9358873.00 9119473.00 L 9371354.00 9149606.00 L 9358873.00 9179739.00 L 9328740.00 9192220.00  z"/>
<path id="N" d="M 9328739.87 9700787.00 m -63921.13 0 a 63921.13 63921.13 0 1 1 127842.26 0a 63921.13 63921.13 0 1 1 -127842.26 0M 9328740.00 9743401.00 L 9298607.00 9730920.00 L 9286126.00 9700787.00 L 9298607.00 9670654.00 L 9328740.00 9658173.00 L 9358873.00 9670654.00 L 9371354.00 9700787.00 L 9358873.00 9730920.00 L 9328740.00 9743401.00  z"/>
<path id="N" d="M 9328739.87 10251968.00 m -63921.13 0 a 63921.13 63921.13 0 1 1 127842.26 0a 63921.13 63921.13 0 1 1 -127842.26 0M 9328740.00 10294582.00 L 9298607.00 10282101.00 L 9286126.00 10251968.00 L 9298607.00 10221835.00 L 9328740.00 10209354.00 L 9358873.00 10221835.00 L 9371354.00 10251968.00 L 9358873.00 10282101.00 L 9328740.00 10294582.00  z"/>
<path id="N" d="M 8777558.87 10251968.00 m -63921.13 0 a 63921.13 63921.13 0 1 1 127842.26 0a 63921.13 63921.13 0 1 1 -127842.26 0M 8777559.00 10294582.00 L 8747426.00 10282101.00 L 8734945.00 10251968.00 L 8747426.00 10221835.00 L 8777559.00 10209354.00 L 8807692.00 10221835.00 L 8820173.00 10251968.00 L 8807692.00 10282101.00 L 8777559.00 10294582.00  z"/>
<path id="N" d="M 8501967.87 9976378.00 m -63921.13 0 a 63921.13 63921.13 0 1 1 127842.26 0a 63921.13 63921.13 0 1 1 -127842.26 0M 8501968.00 10018992.00 L 8471835.00 10006511.00 L 8459354.00 9976378.00 L 8471835.00 9946245.00 L 8501968.00 9933764.00 L 8532101.00 9946245.00 L 8544582.00 9976378.00 L 8532101.00 10006511.00 L 8501968.00 10018992.00  z"/>
<path id="N" d="M 9604329.87 9976378.00 m -63921.13 0 a 63921.13 63921.13 0 1 1 127842.26 0a 63921.13 63921.13 0 1 1 -127842.26 0M 9604330.00 10018992.00 L 9574197.00 10006511.00 L 9561716.00 9976378.00 L 9574197.00 9946245.00 L 9604330.00 9933764.00 L 9634463.00 9946245.00 L 9646944.00 9976378.00 L 9634463.00 10006511.00 L 9604330.00 10018992.00  z"/>
<path id="N" d="M 8777558.87 9700787.00 m -63921.13 0 a 63921.13 63921.13 0 1 1 127842.26 0a 63921.13 63921.13 0 1 1 -127842.26 0M 8777559.00 9743401.00 L 8747426.00 9730920.00 L 8734945.00 9700787.00 L 8747426.00 9670654.00 L 8777559.00 9658173.00 L 8807692.00 9670654.00 L 8820173.00 9700787.00 L 8807692.00 9730920.00 L 8777559.00 9743401.00  z"/>
<path id="N" d="M 9604329.87 9425197.00 m -63921.13 0 a 63921.13 63921.13 0 1 1 127842.26 0a 63921.13 63921.13 0 1 1 -127842.26 0M 9604330.00 9467811.00 L 9574197.00 9455330.00 L 9561716.00 9425197.00 L 9574197.00 9395064.00 L 9604330.00 9382583.00 L 9634463.00 9395064.00 L 9646944.00 9425197.00 L 9634463.00 9455330.00 L 9604330.00 9467811.00  z"/>
<path id="N" d="M 9053148.87 9425197.00 m -63921.13 0 a 63921.13 63921.13 0 1 1 127842.26 0a 63921.13 63921.13 0 1 1 -127842.26 0M 9053149.00 9467811.00 L 9023016.00 9455330.00 L 9010535.00 9425197.00 L 9023016.00 9395064.00 L 9053149.00 9382583.00 L 9083282.00 9395064.00 L 9095763.00 9425197.00 L 9083282.00 9455330.00 L 9053149.00 9467811.00  z"/>
<path id="N" d="M 11958661.00 7529529.00 L 11860237.00 7529529.00 L 11860237.00 7805119.00 L 11958661.00 7805119.00 L 11958661.00 7529529.00  z"/>
<path id="N" d="M 13316929.00 7332679.00 L 13041339.00 7332679.00 L 13041339.00 7431103.00 L 13316929.00 7431103.00 L 13316929.00 7332679.00  z"/>
<path id="N" d="M 12155511.00 7529529.00 L 12057087.00 7529529.00 L 12057087.00 7805119.00 L 12155511.00 7805119.00 L 12155511.00 7529529.00  z"/>
<path id="N" d="M 9133859.00 3209646.00 L 9015749.00 3209646.00 L 9015749.00 3662402.00 L 9133859.00 3662402.00 L 9133859.00 3209646.00  z"/>
<path id="N" d="M 7952757.00 3209646.00 L 7834647.00 3209646.00 L 7834647.00 3662402.00 L 7952757.00 3662402.00 L 7952757.00 3209646.00  z"/>
<path id="N" d="M 13316929.00 6938978.00 L 13041339.00 6938978.00 L 13041339.00 7037402.00 L 13316929.00 7037402.00 L 13316929.00 6938978.00  z"/>
<path id="N" d="M 13316929.00 7135829.00 L 13041339.00 7135829.00 L 13041339.00 7234253.00 L 13316929.00 7234253.00 L 13316929.00 7135829.00  z"/>
<path id="N" d="M 11761811.00 6742128.00 L 11486221.00 6742128.00 L 11486221.00 6840552.00 L 11761811.00 6840552.00 L 11761811.00 6742128.00  z"/>
<path id="N" d="M 12352362.00 7529529.00 L 12253938.00 7529529.00 L 12253938.00 7805119.00 L 12352362.00 7805119.00 L 12352362.00 7529529.00  z"/>
<path id="N" d="M 12549212.00 7529529.00 L 12450788.00 7529529.00 L 12450788.00 7805119.00 L 12549212.00 7805119.00 L 12549212.00 7529529.00  z"/>
<path id="N" d="M 11958661.00 5974411.00 L 11860237.00 5974411.00 L 11860237.00 6250001.00 L 11958661.00 6250001.00 L 11958661.00 5974411.00  z"/>
<path id="N" d="M 11761811.00 6348427.00 L 11486221.00 6348427.00 L 11486221.00 6446851.00 L 11761811.00 6446851.00 L 11761811.00 6348427.00  z"/>
<path id="N" d="M 1496064.97 7322840.69 m -327599.99 0 a 327599.99 327599.99 0 1 1 655199.97 0a 327599.99 327599.99 0 1 1 -655199.97 0M 1496064.22 7322831.65 m -220780.35 0 a 220780.35 220780.35 0 1 1 441560.70 0a 220780.35 220780.35 0 1 1 -441560.70 0"/>
<path id="N" d="M 11635865.36 7037402.00 L 11761811.00 7037402.00 L 11761811.00 6938978.00 L 11635865.36 6938978.00 L 11624016.00 6934070.00 L 11181326.16 6934070.00 L 11142880.37 6895623.82 L 11144046.00 6889764.00 A 120431.73 120431.73 0 1 0 11069706.00 7001021.00 L 11084990.37 6990808.73 L 11120640.00 7026459.00 L 11158909.00 7042310.00 L 11624016.00 7042310.00 L 11635865.36 7037402.00  z"/>
<path id="N" d="M 6062993.28 8503938.28 m -160563.76 0 a 160563.76 160563.76 0 1 1 321127.52 0a 160563.76 160563.76 0 1 1 -321127.52 0"/>
</g>
</svg>
