<svg width="42.00000236mm" height="42.00000236mm" viewBox="0 0 16535434 16535434"  version="1.1" xmlns="http://www.w3.org/2000/svg" xmlns:xlink="http://www.w3.org/1999/xlink">
<desc>
Origin 0 0 Bound 286220 50000 16535434 16535434
</desc>
<g fill-rule="evenodd" fill="rgb(255, 255, 0)" stroke="black" stroke-width="1" transform="translate(0, 16535434) scale(1, -1) translate(-286220, -50000)">
<path id="N" d="M 13779531.51 13937015.26 m -544016.30 0 a 544016.30 544016.30 0 1 1 1088032.60 0a 544016.30 544016.30 0 1 1 -1088032.60 0M 13779526.74 13937015.09 m -459554.91 0 a 459554.91 459554.91 0 1 1 919109.82 0a 459554.91 459554.91 0 1 1 -919109.82 0"/>
<path id="N" d="M 12677168.51 13937015.26 m -544016.30 0 a 544016.30 544016.30 0 1 1 1088032.60 0a 544016.30 544016.30 0 1 1 -1088032.60 0M 12677163.74 13937015.09 m -459554.91 0 a 459554.91 459554.91 0 1 1 919109.82 0a 459554.91 459554.91 0 1 1 -919109.82 0"/>
<path id="N" d="M 10766576.00 7314006.00 L 10779057.00 7283873.00 L 10766576.00 7253740.00 L 10736443.00 7241259.00 L 10516675.00 7241259.00 L 10516675.00 7156036.26 L 10586195.00 7190796.00 L 10596088.19 7191499.38 L 10605252.00 7195295.00 L 10670848.00 7195295.00 L 10700981.00 7182814.00 L 10766576.00 7117219.00 L 10779057.00 7087086.00 L 10779057.00 6955895.00 L 10766574.29 6925761.29 L 10700981.00 6860166.00 L 10670848.00 6847685.00 L 10539657.00 6847685.00 L 10509524.00 6860166.00 L 10443928.00 6925763.00 L 10431446.00 6955895.00 L 10443928.00 6986028.00 L 10474061.00 6998510.00 L 10504193.00 6986028.00 L 10557308.81 6932913.00 L 10653196.81 6932913.00 L 10693829.00 6973545.81 L 10693829.00 7069434.81 L 10653196.19 7110067.00 L 10615311.86 7110067.00 L 10493118.00 7048971.00 L 10483224.81 7048267.62 L 10474061.00 7044472.00 L 10467582.24 7047155.48 L 10460585.00 7046658.00 L 10453091.70 7053157.42 L 10443928.00 7056953.00 L 10441243.55 7063434.09 L 10435946.00 7068029.00 L 10435242.62 7077922.19 L 10431447.00 7087086.00 L 10431447.00 7283873.00 L 10443928.00 7314006.00 L 10474061.00 7326487.00 L 10736443.00 7326487.00 L 10766576.00 7314006.00  z"/>
<path id="N" d="M 14931549.00 3848967.00 L 14944030.00 3818834.00 L 14931549.00 3788701.00 L 14901416.00 3776220.00 L 14681648.00 3776220.00 L 14681648.00 3690997.26 L 14751168.00 3725757.00 L 14761061.19 3726460.38 L 14770225.00 3730256.00 L 14835821.00 3730256.00 L 14865954.00 3717775.00 L 14931549.00 3652180.00 L 14944030.00 3622047.00 L 14944030.00 3490856.00 L 14931547.29 3460722.29 L 14865954.00 3395127.00 L 14835821.00 3382646.00 L 14704630.00 3382646.00 L 14674497.00 3395127.00 L 14608901.00 3460724.00 L 14596419.00 3490856.00 L 14608901.00 3520989.00 L 14639034.00 3533471.00 L 14669166.00 3520989.00 L 14722281.81 3467874.00 L 14818169.81 3467874.00 L 14858802.00 3508506.81 L 14858802.00 3604395.81 L 14818169.19 3645028.00 L 14780284.86 3645028.00 L 14658091.00 3583932.00 L 14648197.81 3583228.62 L 14639034.00 3579433.00 L 14632555.24 3582116.48 L 14625558.00 3581619.00 L 14618064.70 3588118.42 L 14608901.00 3591914.00 L 14606216.55 3598395.09 L 14600919.00 3602990.00 L 14600215.62 3612883.19 L 14596420.00 3622047.00 L 14596420.00 3818834.00 L 14608901.00 3848967.00 L 14639034.00 3861448.00 L 14901416.00 3861448.00 L 14931549.00 3848967.00  z"/>
<path id="N" d="M 14371149.00 13283023.00 L 14380510.00 13260424.00 L 14371149.00 13237825.00 L 14348550.00 13228464.00 L 14170604.00 13228464.00 L 14170604.00 13154707.28 L 14229304.00 13184057.00 L 14236724.74 13184584.36 L 14243597.00 13187431.00 L 14296074.00 13187431.00 L 14318673.00 13178070.00 L 14371149.00 13125594.00 L 14380510.00 13102995.00 L 14380510.00 12998042.00 L 14371149.00 12975443.00 L 14318673.00 12922966.00 L 14296074.00 12913605.00 L 14191121.00 12913605.00 L 14168522.00 12922966.00 L 14116045.00 12975443.00 L 14106684.00 12998042.00 L 14116045.00 13020641.00 L 14138644.00 13030002.00 L 14161243.00 13020641.00 L 14204359.00 12977525.00 L 14282835.82 12977525.00 L 14316590.00 13011279.82 L 14316590.00 13089757.00 L 14282836.00 13123511.00 L 14251141.94 13123511.00 L 14152937.00 13074409.00 L 14145516.26 13073881.64 L 14138644.00 13071035.00 L 14133784.49 13073047.92 L 14128537.00 13072675.00 L 14122916.58 13077549.64 L 14116045.00 13080396.00 L 14114032.26 13085255.09 L 14110058.00 13088702.00 L 14109530.64 13096122.74 L 14106684.00 13102995.00 L 14106684.00 13260424.00 L 14116045.00 13283023.00 L 14138644.00 13292384.00 L 14348550.00 13292384.00 L 14371149.00 13283023.00  z"/>
<path id="N" d="M 10964474.41 11437183.00 L 11095663.00 11437183.00 L 11125796.71 11424700.29 L 11191391.00 11359106.00 L 11203872.00 11328973.00 L 11203872.00 11263377.00 L 11191391.00 11233244.00 L 11155928.00 11197781.54 L 11191391.00 11162319.00 L 11203872.00 11132186.00 L 11203872.00 11066591.00 L 11191389.29 11036457.29 L 11125796.00 10970862.00 L 11095663.00 10958381.00 L 10964472.00 10958381.00 L 10934339.00 10970862.00 L 10868743.00 11036458.00 L 10856262.00 11066593.41 L 10856262.00 11132186.00 L 10868743.00 11162319.00 L 10904206.54 11197782.00 L 10868743.00 11233244.00 L 10856262.00 11263377.00 L 10856262.00 11328973.00 L 10868743.00 11359106.00 L 10934339.00 11424702.00 L 10943165.21 11428357.79 L 10964474.41 11437183.00  zM 11078011.81 11155168.00 L 10982123.19 11155168.00 L 10941490.00 11114534.19 L 10941490.00 11084242.19 L 10982123.81 11043609.00 L 11078011.81 11043609.00 L 11118644.00 11084241.81 L 11118644.00 11114535.19 L 11078011.81 11155168.00  zM 11078011.81 11351955.00 L 10982123.19 11351955.00 L 10941490.00 11311321.19 L 10941490.00 11281028.19 L 10982122.81 11240396.00 L 11078011.81 11240396.00 L 11118644.00 11281028.81 L 11118644.00 11311322.19 L 11078011.81 11351955.00  z"/>
<path id="N" d="M 14980222.41 6814204.00 L 15111411.00 6814204.00 L 15141544.71 6801721.29 L 15207139.00 6736127.00 L 15219620.00 6705994.00 L 15219620.00 6640398.00 L 15207139.00 6610265.00 L 15171676.00 6574802.54 L 15207139.00 6539340.00 L 15219620.00 6509207.00 L 15219620.00 6443612.00 L 15207137.29 6413478.29 L 15141544.00 6347883.00 L 15111411.00 6335402.00 L 14980220.00 6335402.00 L 14950087.00 6347883.00 L 14884491.00 6413480.00 L 14872009.00 6443612.00 L 14884491.00 6473745.00 L 14914624.00 6486227.00 L 14944756.00 6473745.00 L 14997871.81 6420630.00 L 15093759.81 6420630.00 L 15134392.00 6461262.81 L 15134392.00 6491556.19 L 15093759.81 6532189.00 L 15045815.00 6532189.00 L 15015682.00 6544670.00 L 15003201.00 6574803.00 L 15015682.00 6604936.00 L 15045815.00 6617417.00 L 15093759.81 6617417.00 L 15134392.00 6658049.81 L 15134392.00 6688343.19 L 15093759.81 6728976.00 L 14997871.19 6728976.00 L 14944757.00 6675861.00 L 14914624.00 6663380.00 L 14884491.00 6675861.00 L 14872010.00 6705994.00 L 14884491.00 6736127.00 L 14950087.00 6801723.00 L 14958913.21 6805378.79 L 14980222.41 6814204.00  z"/>
<path id="N" d="M 5279181.00 2392274.00 L 5291662.00 2362141.00 L 5291662.00 1968567.00 L 5289983.29 1964514.08 L 5290835.00 1960209.00 L 5283929.25 1949897.75 L 5279181.00 1938434.00 L 5275127.08 1936754.88 L 5272686.00 1933110.00 L 5260512.46 1930701.55 L 5249048.00 1925953.00 L 5244995.36 1927631.59 L 5240691.00 1926780.00 L 5230380.37 1933685.08 L 5218915.00 1938434.00 L 5217235.83 1942488.04 L 5213591.00 1944929.00 L 5029280.00 2221396.20 L 5029280.00 1968567.00 L 5016799.00 1938434.00 L 4986666.00 1925953.00 L 4956533.00 1938434.00 L 4944052.00 1968567.00 L 4944052.00 2362141.00 L 4945730.59 2366193.64 L 4944879.00 2370498.00 L 4951784.08 2380808.63 L 4956533.00 2392274.00 L 4960587.04 2393953.17 L 4963028.00 2397598.00 L 4975201.54 2400006.45 L 4986666.00 2404755.00 L 4990718.64 2403076.41 L 4995023.00 2403928.00 L 5005333.63 2397022.92 L 5016799.00 2392274.00 L 5018478.17 2388219.96 L 5022123.00 2385779.00 L 5206434.00 2109311.80 L 5206434.00 2362141.00 L 5218915.00 2392274.00 L 5249048.00 2404755.00 L 5279181.00 2392274.00  z"/>
<path id="N" d="M 3755045.00 10448035.00 L 3794402.00 10408677.00 L 3800642.00 10393611.00 L 3800642.00 10354254.00 L 3794401.00 10339188.00 L 3770110.00 10314897.00 L 3794401.00 10290606.00 L 3800642.00 10275540.00 L 3800642.00 10236182.00 L 3794401.00 10221116.00 L 3755044.00 10181759.00 L 3739978.00 10175518.00 L 3661263.00 10175518.00 L 3646197.00 10181759.00 L 3606840.00 10221116.00 L 3600600.00 10236182.00 L 3606840.00 10251248.00 L 3621906.00 10257488.00 L 3636972.00 10251248.00 L 3670088.00 10218132.00 L 3731153.00 10218132.00 L 3758028.00 10245007.00 L 3758028.00 10266715.00 L 3731153.00 10293590.00 L 3700621.00 10293590.00 L 3685555.00 10299831.00 L 3679314.00 10314897.00 L 3685555.00 10329963.00 L 3700621.00 10336204.00 L 3731153.00 10336204.00 L 3758028.00 10363079.00 L 3758028.00 10384786.00 L 3731152.00 10411662.00 L 3670089.16 10411662.00 L 3636973.00 10378545.00 L 3621906.00 10372304.00 L 3606840.00 10378544.00 L 3600599.00 10393611.00 L 3606839.00 10408677.00 L 3646197.00 10448035.00 L 3661263.00 10454276.00 L 3739978.00 10454276.00 L 3755045.00 10448035.00  z"/>
<path id="N" d="M 3322115.00 10448035.00 L 3361472.00 10408677.00 L 3367712.00 10393611.00 L 3367712.00 10354254.00 L 3361471.00 10339188.00 L 3337180.00 10314897.00 L 3361471.00 10290606.00 L 3367712.00 10275540.00 L 3367712.00 10236182.00 L 3361471.00 10221116.00 L 3322114.00 10181759.00 L 3307048.00 10175518.00 L 3228333.00 10175518.00 L 3213267.00 10181759.00 L 3173910.00 10221116.00 L 3167670.00 10236182.00 L 3173910.00 10251248.00 L 3188976.00 10257488.00 L 3204042.00 10251248.00 L 3237158.00 10218132.00 L 3298223.00 10218132.00 L 3325098.00 10245007.00 L 3325098.00 10266715.00 L 3298223.00 10293590.00 L 3267691.00 10293590.00 L 3252625.00 10299831.00 L 3246384.00 10314897.00 L 3252625.00 10329963.00 L 3267691.00 10336204.00 L 3298223.00 10336204.00 L 3325098.00 10363079.00 L 3325098.00 10384786.00 L 3298222.00 10411662.00 L 3237159.16 10411662.00 L 3204043.00 10378545.00 L 3188976.00 10372304.00 L 3173910.00 10378544.00 L 3167669.00 10393611.00 L 3173909.00 10408677.00 L 3213267.00 10448035.00 L 3228333.00 10454276.00 L 3307048.00 10454276.00 L 3322115.00 10448035.00  z"/>
<path id="N" d="M 14003814.00 13283023.00 L 14056290.00 13230547.00 L 14065651.00 13207948.00 L 14065651.00 13155471.00 L 14056290.00 13132872.00 L 14026412.78 13102994.78 L 14056290.00 13073117.00 L 14065651.00 13050518.00 L 14065651.00 12998042.00 L 14056290.00 12975443.00 L 14003814.00 12922966.00 L 13981215.00 12913605.00 L 13876262.00 12913605.00 L 13853663.00 12922966.00 L 13801186.00 12975443.00 L 13791825.00 12998042.00 L 13801186.00 13020641.00 L 13823785.00 13030002.00 L 13846384.00 13020641.00 L 13889500.00 12977525.00 L 13967976.82 12977525.00 L 14001731.00 13011279.82 L 14001731.00 13037280.18 L 13967976.82 13071035.00 L 13928738.00 13071035.00 L 13906139.00 13080396.00 L 13896778.00 13102995.00 L 13906139.00 13125594.00 L 13928738.00 13134955.00 L 13967977.00 13134955.00 L 14001731.00 13168709.00 L 14001731.00 13194710.00 L 13967977.00 13228464.00 L 13889499.82 13228464.00 L 13846384.00 13185349.00 L 13823785.00 13175988.00 L 13801186.00 13185349.00 L 13791825.00 13207948.00 L 13801186.00 13230547.00 L 13853663.00 13283023.00 L 13876262.00 13292384.00 L 13981215.00 13292384.00 L 14003814.00 13283023.00  z"/>
<path id="N" d="M 12942309.00 14924071.00 L 12994785.00 14871595.00 L 13004146.00 14848996.00 L 13004146.00 14796519.00 L 12994785.00 14773920.00 L 12964907.78 14744042.78 L 12994785.00 14714165.00 L 13004146.00 14691566.00 L 13004146.00 14639090.00 L 12994785.00 14616491.00 L 12942309.00 14564014.00 L 12919710.00 14554653.00 L 12814757.00 14554653.00 L 12792158.00 14564014.00 L 12739681.00 14616491.00 L 12730320.00 14639090.00 L 12739681.00 14661689.00 L 12762280.00 14671050.00 L 12784879.00 14661689.00 L 12827995.00 14618573.00 L 12906471.82 14618573.00 L 12940226.00 14652327.82 L 12940226.00 14678328.18 L 12906471.82 14712083.00 L 12867233.00 14712083.00 L 12844634.00 14721444.00 L 12835273.00 14744043.00 L 12844634.00 14766642.00 L 12867233.00 14776003.00 L 12906472.00 14776003.00 L 12940226.00 14809757.00 L 12940226.00 14835758.00 L 12906472.00 14869512.00 L 12827994.82 14869512.00 L 12784879.00 14826397.00 L 12762280.00 14817036.00 L 12739681.00 14826397.00 L 12730320.00 14848996.00 L 12739681.00 14871595.00 L 12792158.00 14924071.00 L 12814757.00 14933432.00 L 12919710.00 14933432.00 L 12942309.00 14924071.00  z"/>
<path id="N" d="M 4502834.00 9463783.00 L 4542192.00 9424425.00 L 4548432.00 9409359.00 L 4542191.00 9394292.00 L 4527125.00 9388052.00 L 4512058.00 9394293.00 L 4478941.84 9427410.00 L 4417879.00 9427410.00 L 4391003.00 9400534.00 L 4391003.00 9378827.00 L 4417878.00 9351952.00 L 4487768.00 9351952.00 L 4502834.00 9345711.00 L 4542191.00 9306354.00 L 4548432.00 9291288.00 L 4548432.00 9251930.00 L 4542191.00 9236864.00 L 4502834.00 9197507.00 L 4487768.00 9191266.00 L 4409053.00 9191266.00 L 4393987.00 9197507.00 L 4354630.00 9236864.00 L 4348390.00 9251930.00 L 4354630.00 9266996.00 L 4369696.00 9273236.00 L 4384762.00 9266996.00 L 4417878.00 9233880.00 L 4478943.00 9233880.00 L 4505818.00 9260755.00 L 4505818.00 9282463.00 L 4478943.00 9309338.00 L 4409053.00 9309338.00 L 4393987.00 9315579.00 L 4354630.00 9354936.00 L 4348389.00 9370002.00 L 4348389.00 9409359.00 L 4354629.00 9424425.00 L 4393986.00 9463783.00 L 4409053.00 9470024.00 L 4487768.00 9470024.00 L 4502834.00 9463783.00  z"/>
<path id="N" d="M 3322114.00 9463783.00 L 3361472.00 9424425.00 L 3367712.00 9409359.00 L 3361471.00 9394292.00 L 3346405.00 9388052.00 L 3331338.00 9394293.00 L 3298221.84 9427410.00 L 3237159.00 9427410.00 L 3210283.00 9400534.00 L 3210283.00 9378827.00 L 3237158.00 9351952.00 L 3307048.00 9351952.00 L 3322114.00 9345711.00 L 3361471.00 9306354.00 L 3367712.00 9291288.00 L 3367712.00 9251930.00 L 3361471.00 9236864.00 L 3322114.00 9197507.00 L 3307048.00 9191266.00 L 3228333.00 9191266.00 L 3213267.00 9197507.00 L 3173910.00 9236864.00 L 3167670.00 9251930.00 L 3173910.00 9266996.00 L 3188976.00 9273236.00 L 3204042.00 9266996.00 L 3237158.00 9233880.00 L 3298223.00 9233880.00 L 3325098.00 9260755.00 L 3325098.00 9282463.00 L 3298223.00 9309338.00 L 3228333.00 9309338.00 L 3213267.00 9315579.00 L 3173910.00 9354936.00 L 3167669.00 9370002.00 L 3167669.00 9409359.00 L 3173909.00 9424425.00 L 3213266.00 9463783.00 L 3228333.00 9470024.00 L 3307048.00 9470024.00 L 3322114.00 9463783.00  z"/>
<path id="N" d="M 3794402.00 8479532.00 L 3833760.00 8440174.00 L 3840000.00 8425108.00 L 3833759.00 8410041.00 L 3818693.00 8403801.00 L 3803626.00 8410042.00 L 3770509.84 8443159.00 L 3709447.00 8443159.00 L 3682571.00 8416283.00 L 3682571.00 8394576.00 L 3709446.00 8367701.00 L 3779336.00 8367701.00 L 3794402.00 8361460.00 L 3833759.00 8322103.00 L 3840000.00 8307037.00 L 3840000.00 8267679.00 L 3833759.00 8252613.00 L 3794402.00 8213256.00 L 3779336.00 8207015.00 L 3700621.00 8207015.00 L 3685555.00 8213256.00 L 3646198.00 8252613.00 L 3639958.00 8267679.00 L 3646198.00 8282745.00 L 3661264.00 8288985.00 L 3676330.00 8282745.00 L 3709446.00 8249629.00 L 3770511.00 8249629.00 L 3797386.00 8276504.00 L 3797386.00 8298212.00 L 3770511.00 8325087.00 L 3700621.00 8325087.00 L 3685555.00 8331328.00 L 3646198.00 8370685.00 L 3639957.00 8385751.00 L 3639957.00 8425108.00 L 3646197.00 8440174.00 L 3685554.00 8479532.00 L 3700621.00 8485773.00 L 3779336.00 8485773.00 L 3794402.00 8479532.00  z"/>
<path id="N" d="M 13966697.71 3061500.29 L 14032292.00 2995905.00 L 14044773.00 2965773.00 L 14032291.00 2935640.00 L 14002159.00 2923159.00 L 13972026.00 2935641.00 L 13918912.81 2988755.00 L 13823024.81 2988755.00 L 13782391.00 2948121.81 L 13782391.00 2917828.19 L 13823023.81 2877196.00 L 13936564.00 2877196.00 L 13966697.71 2864713.29 L 14032292.00 2799119.00 L 14044773.00 2768986.00 L 14044773.00 2703391.00 L 14032290.29 2673257.29 L 13966697.00 2607662.00 L 13936564.00 2595181.00 L 13805373.00 2595181.00 L 13775240.00 2607662.00 L 13709644.00 2673259.00 L 13697162.00 2703391.00 L 13709644.00 2733524.00 L 13739777.00 2746006.00 L 13769909.00 2733524.00 L 13823024.81 2680409.00 L 13918912.81 2680409.00 L 13959545.00 2721041.81 L 13959545.00 2751335.19 L 13918912.81 2791968.00 L 13805373.00 2791968.00 L 13775239.29 2804450.71 L 13709644.00 2870044.00 L 13697163.00 2900177.00 L 13697162.00 2965773.00 L 13709645.71 2995906.71 L 13775240.00 3061502.00 L 13805373.00 3073983.00 L 13936564.00 3073983.00 L 13966697.71 3061500.29  z"/>
<path id="N" d="M 3639290.71 2392272.29 L 3704885.00 2326677.00 L 3717366.00 2296545.00 L 3704884.00 2266412.00 L 3674752.00 2253931.00 L 3644619.00 2266413.00 L 3591505.81 2319527.00 L 3495617.81 2319527.00 L 3454984.00 2278893.81 L 3454984.00 2248600.19 L 3495616.81 2207968.00 L 3609157.00 2207968.00 L 3639290.71 2195485.29 L 3704885.00 2129891.00 L 3717366.00 2099758.00 L 3717366.00 2034163.00 L 3704883.29 2004029.29 L 3639290.00 1938434.00 L 3609157.00 1925953.00 L 3477966.00 1925953.00 L 3447833.00 1938434.00 L 3382237.00 2004031.00 L 3369755.00 2034163.00 L 3382237.00 2064296.00 L 3412370.00 2076778.00 L 3442502.00 2064296.00 L 3495617.81 2011181.00 L 3591505.81 2011181.00 L 3632138.00 2051813.81 L 3632138.00 2082107.19 L 3591505.81 2122740.00 L 3477966.00 2122740.00 L 3447832.29 2135222.71 L 3382237.00 2200816.00 L 3369756.00 2230949.00 L 3369755.00 2296545.00 L 3382238.71 2326678.71 L 3447833.00 2392274.00 L 3477966.00 2404755.00 L 3609157.00 2404755.00 L 3639290.71 2392272.29  z"/>
<path id="N" d="M 3558258.00 6392916.00 L 3597616.00 6353558.00 L 3603856.00 6338492.00 L 3597615.00 6323425.00 L 3582549.00 6317185.00 L 3567482.00 6323426.00 L 3534365.84 6356543.00 L 3473303.00 6356543.00 L 3446427.00 6329667.00 L 3446427.00 6307960.00 L 3473302.00 6281085.00 L 3543192.00 6281085.00 L 3558258.00 6274844.00 L 3597615.00 6235487.00 L 3603856.00 6220421.00 L 3603856.00 6181063.00 L 3597615.00 6165997.00 L 3558258.00 6126640.00 L 3543192.00 6120399.00 L 3464477.00 6120399.00 L 3449411.00 6126640.00 L 3410054.00 6165997.00 L 3403814.00 6181063.00 L 3410054.00 6196129.00 L 3425120.00 6202369.00 L 3440186.00 6196129.00 L 3473302.00 6163013.00 L 3534367.00 6163013.00 L 3561242.00 6189888.00 L 3561242.00 6211596.00 L 3534367.00 6238471.00 L 3464477.00 6238471.00 L 3449411.00 6244712.00 L 3410054.00 6284069.00 L 3403813.00 6299135.00 L 3403813.00 6338492.00 L 3410053.00 6353558.00 L 3449410.00 6392916.00 L 3464477.00 6399157.00 L 3543192.00 6399157.00 L 3558258.00 6392916.00  z"/>
<path id="N" d="M 3558258.00 7455909.00 L 3597616.00 7416551.00 L 3603856.00 7401485.00 L 3597615.00 7386418.00 L 3582549.00 7380178.00 L 3567482.00 7386419.00 L 3534365.84 7419536.00 L 3473303.00 7419536.00 L 3446427.00 7392660.00 L 3446427.00 7370953.00 L 3473302.00 7344078.00 L 3543192.00 7344078.00 L 3558258.00 7337837.00 L 3597615.00 7298480.00 L 3603856.00 7283414.00 L 3603856.00 7244056.00 L 3597615.00 7228990.00 L 3558258.00 7189633.00 L 3543192.00 7183392.00 L 3464477.00 7183392.00 L 3449411.00 7189633.00 L 3410054.00 7228990.00 L 3403814.00 7244056.00 L 3410054.00 7259122.00 L 3425120.00 7265362.00 L 3440186.00 7259122.00 L 3473302.00 7226006.00 L 3534367.00 7226006.00 L 3561242.00 7252881.00 L 3561242.00 7274589.00 L 3534367.00 7301464.00 L 3464477.00 7301464.00 L 3449411.00 7307705.00 L 3410054.00 7347062.00 L 3403813.00 7362128.00 L 3403813.00 7401485.00 L 3410053.00 7416551.00 L 3449410.00 7455909.00 L 3464477.00 7462150.00 L 3543192.00 7462150.00 L 3558258.00 7455909.00  z"/>
<path id="N" d="M 12143036.71 13376524.29 L 12208631.00 13310930.00 L 12221112.00 13280797.00 L 12221112.00 13018415.00 L 12208629.29 12988281.29 L 12205965.52 12985617.48 L 12208631.00 12982952.00 L 12221112.00 12952819.00 L 12208631.00 12922686.00 L 12178498.00 12910205.00 L 12148365.00 12922686.00 L 12145699.98 12925351.02 L 12143036.00 12922686.00 L 12112903.00 12910205.00 L 11981712.00 12910204.00 L 11951578.29 12922687.71 L 11885983.00 12988282.00 L 11873502.00 13018415.00 L 11873501.00 13280797.00 L 11885984.71 13310930.71 L 11951579.00 13376526.00 L 11981712.00 13389007.00 L 12112903.00 13389007.00 L 12143036.71 13376524.29  zM 12095251.81 13303779.00 L 11999363.81 13303779.00 L 11958730.00 13263145.81 L 11958730.00 13036066.81 L 11999363.19 12995433.00 L 12075618.00 12995433.00 L 12017174.00 13053877.00 L 12004693.00 13084010.00 L 12017174.00 13114143.00 L 12047307.00 13126624.00 L 12077440.00 13114143.00 L 12135884.00 13055699.00 L 12135884.00 13263146.19 L 12095251.81 13303779.00  z"/>
<path id="N" d="M 12208632.71 9360776.29 L 12274227.00 9295182.00 L 12286708.00 9265049.00 L 12286708.00 9002667.00 L 12274225.29 8972533.29 L 12271561.52 8969869.48 L 12274227.00 8967204.00 L 12286708.00 8937071.00 L 12274227.00 8906938.00 L 12244094.00 8894457.00 L 12213961.00 8906938.00 L 12211295.98 8909603.02 L 12208632.00 8906938.00 L 12178499.00 8894457.00 L 12047308.00 8894456.00 L 12017174.29 8906939.71 L 11951579.00 8972534.00 L 11939098.00 9002667.00 L 11939097.00 9265049.00 L 11951580.71 9295182.71 L 12017175.00 9360778.00 L 12047308.00 9373259.00 L 12178499.00 9373259.00 L 12208632.71 9360776.29  zM 12160847.81 9288031.00 L 12064959.81 9288031.00 L 12024326.00 9247397.81 L 12024326.00 9020318.81 L 12064959.19 8979685.00 L 12141214.00 8979685.00 L 12082770.00 9038129.00 L 12070289.00 9068262.00 L 12082770.00 9098395.00 L 12112903.00 9110876.00 L 12143036.00 9098395.00 L 12201480.00 9039951.00 L 12201480.00 9247398.19 L 12160847.81 9288031.00  z"/>
<path id="N" d="M 4699620.00 10448035.00 L 4738978.00 10408677.00 L 4745218.00 10393611.00 L 4738977.00 10378544.00 L 4723911.00 10372304.00 L 4708844.00 10378545.00 L 4675727.84 10411662.00 L 4614665.00 10411662.00 L 4587789.00 10384786.00 L 4587789.00 10245007.00 L 4614664.00 10218132.00 L 4675729.00 10218132.00 L 4702604.00 10245007.00 L 4702604.00 10293590.00 L 4645197.00 10293590.00 L 4630131.00 10299831.00 L 4623890.00 10314897.00 L 4630131.00 10329963.00 L 4645197.00 10336204.00 L 4723911.00 10336204.00 L 4738977.00 10329963.00 L 4745218.00 10314897.00 L 4745218.00 10236182.00 L 4738977.00 10221116.00 L 4699620.00 10181759.00 L 4684554.00 10175518.00 L 4605839.00 10175518.00 L 4590773.00 10181759.00 L 4551416.00 10221116.00 L 4545175.00 10236182.00 L 4545175.00 10393611.00 L 4551415.00 10408677.00 L 4590772.00 10448035.00 L 4605839.00 10454276.00 L 4684554.00 10454276.00 L 4699620.00 10448035.00  z"/>
<path id="N" d="M 2661040.00 11293478.00 L 2727685.00 11226833.00 L 2737196.00 11203872.00 L 2737196.00 11070582.00 L 2727685.00 11047621.00 L 2661040.00 10980976.00 L 2638079.00 10971465.00 L 2615118.00 10980976.00 L 2605607.00 11003937.00 L 2615118.00 11026898.00 L 2672252.00 11084032.00 L 2672252.00 11190422.00 L 2624629.00 11238045.00 L 2537261.00 11238045.00 L 2537261.00 11070582.00 L 2527750.00 11047621.00 L 2461105.00 10980976.00 L 2438144.00 10971465.00 L 2371498.00 10971465.00 L 2348537.00 10980976.00 L 2281892.00 11047621.00 L 2272381.00 11070582.00 L 2272381.00 11203872.00 L 2281892.00 11226833.00 L 2348537.00 11293478.00 L 2371498.00 11302989.00 L 2638079.00 11302989.00 L 2661040.00 11293478.00  zM 2472317.00 11238045.00 L 2384948.00 11238045.00 L 2337325.00 11190422.00 L 2337325.00 11084032.00 L 2384948.00 11036409.00 L 2424694.00 11036409.00 L 2472317.00 11084032.00 L 2472317.00 11238045.00  z"/>
<path id="N" d="M 5686217.71 5935579.29 L 5751812.00 5869985.00 L 5764293.00 5839852.00 L 5764293.00 5577470.00 L 5751810.29 5547336.29 L 5686217.00 5481741.00 L 5656084.00 5469260.00 L 5524893.00 5469259.00 L 5494759.29 5481742.71 L 5429164.00 5547337.00 L 5416683.00 5577470.00 L 5429164.00 5607603.00 L 5459297.00 5620084.00 L 5489430.00 5607603.00 L 5542544.19 5554488.00 L 5638432.81 5554488.00 L 5679065.00 5595120.81 L 5679065.00 5666047.00 L 5524893.00 5666047.00 L 5494759.29 5678529.71 L 5429164.00 5744123.00 L 5416683.00 5774256.00 L 5416682.00 5839852.00 L 5429165.71 5869985.71 L 5494760.00 5935581.00 L 5524893.00 5948062.00 L 5656084.00 5948062.00 L 5686217.71 5935579.29  zM 5638432.81 5862834.00 L 5542544.81 5862834.00 L 5501911.00 5822200.81 L 5501911.00 5791907.19 L 5542543.81 5751275.00 L 5679065.00 5751275.00 L 5679065.00 5822201.19 L 5638432.81 5862834.00  z"/>
<path id="N" d="M 14388350.00 12420569.00 L 14390663.00 12388035.00 L 14369293.00 12363396.00 L 14244288.05 12300893.05 L 14190733.00 12247338.00 L 14284640.00 12247338.00 L 14314773.71 12234855.29 L 14380368.00 12169261.00 L 14392849.00 12139128.00 L 14392849.00 12073533.00 L 14380366.29 12043399.29 L 14314773.00 11977804.00 L 14284640.00 11965323.00 L 14153449.00 11965322.00 L 14123315.29 11977805.71 L 14057720.00 12043400.00 L 14045239.00 12073533.00 L 14045239.00 12204724.00 L 14057720.00 12234857.00 L 14188911.00 12366048.00 L 14195392.09 12368732.45 L 14199987.00 12374030.00 L 14331177.00 12439626.00 L 14363711.00 12441939.00 L 14388350.00 12420569.00  zM 14266988.81 12162110.00 L 14130467.00 12162110.00 L 14130467.00 12091184.81 L 14171100.19 12050551.00 L 14266988.81 12050551.00 L 14307621.00 12091183.81 L 14307621.00 12121477.19 L 14266988.81 12162110.00  z"/>
<path id="N" d="M 4502834.00 6392916.00 L 4542192.00 6353558.00 L 4548432.00 6338492.00 L 4548432.00 6299135.00 L 4542191.00 6284069.00 L 4517900.00 6259778.00 L 4542191.00 6235487.00 L 4548432.00 6220421.00 L 4548432.00 6181063.00 L 4542191.00 6165997.00 L 4502834.00 6126640.00 L 4487768.00 6120399.00 L 4369696.00 6120399.00 L 4354630.00 6126640.00 L 4348389.00 6141706.00 L 4348389.00 6377850.00 L 4354630.00 6392916.00 L 4369696.00 6399157.00 L 4487768.00 6399157.00 L 4502834.00 6392916.00  zM 4478943.00 6238471.00 L 4391003.00 6238471.00 L 4391003.00 6163013.00 L 4478943.00 6163013.00 L 4505818.00 6189888.00 L 4505818.00 6211596.00 L 4478943.00 6238471.00  zM 4478941.84 6356543.00 L 4391003.00 6356543.00 L 4391003.00 6281085.00 L 4478943.00 6281085.00 L 4505818.00 6307960.00 L 4505818.00 6329666.16 L 4478941.84 6356543.00  z"/>
<path id="N" d="M 13179549.71 3061500.29 L 13245144.00 2995906.00 L 13257625.00 2965773.00 L 13257625.00 2900177.00 L 13245142.29 2870043.29 L 13209681.04 2834581.50 L 13245144.00 2799119.00 L 13257625.00 2768986.00 L 13257625.00 2703391.00 L 13245142.29 2673257.29 L 13179549.00 2607662.00 L 13149416.00 2595181.00 L 12952629.00 2595181.00 L 12922496.00 2607662.00 L 12910015.00 2637795.00 L 12910015.00 3031369.00 L 12922496.00 3061502.00 L 12952629.00 3073983.00 L 13149416.00 3073983.00 L 13179549.71 3061500.29  zM 13131764.81 2791968.00 L 12995243.00 2791968.00 L 12995243.00 2680409.00 L 13131764.81 2680409.00 L 13172397.00 2721041.81 L 13172397.00 2751335.19 L 13131764.81 2791968.00  zM 13131764.81 2988755.00 L 12995243.00 2988755.00 L 12995243.00 2877196.00 L 13131764.19 2877196.00 L 13172397.00 2917828.19 L 13172397.00 2948122.19 L 13131764.81 2988755.00  z"/>
<path id="N" d="M 10850592.00 12476777.00 L 10852905.00 12444243.00 L 10831535.00 12419604.00 L 10706530.05 12357101.05 L 10652975.00 12303546.00 L 10746882.00 12303546.00 L 10777015.71 12291063.29 L 10842610.00 12225469.00 L 10855091.00 12195336.00 L 10855091.00 12129741.00 L 10842608.29 12099607.29 L 10777015.00 12034012.00 L 10746882.00 12021531.00 L 10615691.00 12021530.00 L 10585557.29 12034013.71 L 10519962.00 12099608.00 L 10507481.00 12129741.00 L 10507481.00 12260932.00 L 10519962.00 12291065.00 L 10651153.00 12422256.00 L 10657634.09 12424940.45 L 10662229.00 12430238.00 L 10793419.00 12495834.00 L 10825953.00 12498147.00 L 10850592.00 12476777.00  zM 10729230.81 12218318.00 L 10592709.00 12218318.00 L 10592709.00 12147392.81 L 10633342.19 12106759.00 L 10729230.81 12106759.00 L 10769863.00 12147391.81 L 10769863.00 12177685.19 L 10729230.81 12218318.00  z"/>
<path id="N" d="M 10325504.71 8376524.29 L 10391099.00 8310930.00 L 10403580.00 8280797.00 L 10403580.00 8149606.00 L 10391097.29 8119472.29 L 10325504.00 8053877.00 L 10321735.08 8052315.92 L 10391099.00 7982952.00 L 10403580.00 7952819.00 L 10391099.00 7922686.00 L 10360966.00 7910205.00 L 10330833.00 7922686.00 L 10212123.00 8041396.00 L 10141198.00 8041396.00 L 10141198.00 7952819.00 L 10128717.00 7922686.00 L 10098584.00 7910205.00 L 10068451.00 7922686.00 L 10055970.00 7952819.00 L 10055970.00 8346393.00 L 10068451.00 8376526.00 L 10098584.00 8389007.00 L 10295371.00 8389007.00 L 10325504.71 8376524.29  zM 10277719.81 8303779.00 L 10141198.00 8303779.00 L 10141198.00 8126624.00 L 10277719.81 8126624.00 L 10318352.00 8167256.81 L 10318352.00 8263146.19 L 10277719.81 8303779.00  z"/>
<path id="N" d="M 13593221.71 12431642.29 L 13658816.00 12366048.00 L 13671297.00 12335915.00 L 13671297.00 12204724.00 L 13658814.29 12174590.29 L 13593221.00 12108995.00 L 13589452.08 12107433.92 L 13658816.00 12038070.00 L 13671297.00 12007937.00 L 13658816.00 11977804.00 L 13628683.00 11965323.00 L 13598550.00 11977804.00 L 13479840.00 12096514.00 L 13408915.00 12096514.00 L 13408915.00 12007937.00 L 13396434.00 11977804.00 L 13366301.00 11965323.00 L 13336168.00 11977804.00 L 13323687.00 12007937.00 L 13323687.00 12401511.00 L 13336168.00 12431644.00 L 13366301.00 12444125.00 L 13563088.00 12444125.00 L 13593221.71 12431642.29  zM 13545436.81 12358897.00 L 13408915.00 12358897.00 L 13408915.00 12181742.00 L 13545436.81 12181742.00 L 13586069.00 12222374.81 L 13586069.00 12318264.19 L 13545436.81 12358897.00  z"/>
<path id="N" d="M 6342491.71 11093060.29 L 6408086.00 11027466.00 L 6420567.00 10997333.00 L 6420567.00 10866142.00 L 6408084.29 10836008.29 L 6342491.00 10770413.00 L 6338722.08 10768851.92 L 6408086.00 10699488.00 L 6420567.00 10669355.00 L 6408086.00 10639222.00 L 6377953.00 10626741.00 L 6347820.00 10639222.00 L 6229110.00 10757932.00 L 6158185.00 10757932.00 L 6158185.00 10669355.00 L 6145704.00 10639222.00 L 6115571.00 10626741.00 L 6085438.00 10639222.00 L 6072957.00 10669355.00 L 6072957.00 11062929.00 L 6085438.00 11093062.00 L 6115571.00 11105543.00 L 6312358.00 11105543.00 L 6342491.71 11093060.29  zM 6294706.81 11020315.00 L 6158185.00 11020315.00 L 6158185.00 10843160.00 L 6294706.81 10843160.00 L 6335339.00 10883792.81 L 6335339.00 10979682.19 L 6294706.81 11020315.00  z"/>
<path id="N" d="M 14774323.71 12431642.29 L 14839918.00 12366048.00 L 14852399.00 12335915.00 L 14852399.00 12204724.00 L 14839916.29 12174590.29 L 14774323.00 12108995.00 L 14770554.08 12107433.92 L 14839918.00 12038070.00 L 14852399.00 12007937.00 L 14839918.00 11977804.00 L 14809785.00 11965323.00 L 14779652.00 11977804.00 L 14660942.00 12096514.00 L 14590017.00 12096514.00 L 14590017.00 12007937.00 L 14577536.00 11977804.00 L 14547403.00 11965323.00 L 14517270.00 11977804.00 L 14504789.00 12007937.00 L 14504789.00 12401511.00 L 14517270.00 12431644.00 L 14547403.00 12444125.00 L 14744190.00 12444125.00 L 14774323.71 12431642.29  zM 14726538.81 12358897.00 L 14590017.00 12358897.00 L 14590017.00 12181742.00 L 14726538.81 12181742.00 L 14767171.00 12222374.81 L 14767171.00 12318264.19 L 14726538.81 12358897.00  z"/>
<path id="N" d="M 3322115.00 6392916.00 L 3361472.00 6353558.00 L 3367712.00 6338492.00 L 3367712.00 6259778.00 L 3361471.00 6244712.00 L 3322114.00 6205355.00 L 3315590.79 6202652.80 L 3361471.00 6156772.00 L 3367711.00 6141706.00 L 3361471.00 6126640.00 L 3346405.00 6120400.00 L 3331338.00 6126640.00 L 3258865.84 6199114.00 L 3210283.00 6199114.00 L 3210283.00 6141706.00 L 3204042.00 6126640.00 L 3188976.00 6120399.00 L 3173910.00 6126640.00 L 3167669.00 6141706.00 L 3167669.00 6377850.00 L 3173910.00 6392916.00 L 3188976.00 6399157.00 L 3307048.00 6399157.00 L 3322115.00 6392916.00  zM 3298222.00 6356543.00 L 3210283.00 6356543.00 L 3210283.00 6241728.00 L 3298223.00 6241728.00 L 3325098.00 6268603.00 L 3325098.00 6329667.00 L 3298222.00 6356543.00  z"/>
<path id="N" d="M 6276895.71 12982824.29 L 6342490.00 12917230.00 L 6354971.00 12887097.00 L 6354971.00 12755906.00 L 6342488.29 12725772.29 L 6276895.00 12660177.00 L 6273126.08 12658615.92 L 6342490.00 12589252.00 L 6354971.00 12559119.00 L 6342490.00 12528986.00 L 6312357.00 12516505.00 L 6282224.00 12528986.00 L 6163514.00 12647696.00 L 6092589.00 12647696.00 L 6092589.00 12559119.00 L 6080108.00 12528986.00 L 6049975.00 12516505.00 L 6019842.00 12528986.00 L 6007361.00 12559119.00 L 6007361.00 12952693.00 L 6019842.00 12982826.00 L 6049975.00 12995307.00 L 6246762.00 12995307.00 L 6276895.71 12982824.29  zM 6229110.81 12910079.00 L 6092589.00 12910079.00 L 6092589.00 12732924.00 L 6229110.81 12732924.00 L 6269743.00 12773556.81 L 6269743.00 12869446.19 L 6229110.81 12910079.00  z"/>
<path id="N" d="M 10404244.71 11424700.29 L 10469839.00 11359106.00 L 10482320.00 11328973.00 L 10482320.00 11197782.00 L 10469837.29 11167648.29 L 10404244.00 11102053.00 L 10400475.08 11100491.92 L 10469839.00 11031128.00 L 10482320.00 11000995.00 L 10469839.00 10970862.00 L 10439706.00 10958381.00 L 10409573.00 10970862.00 L 10290863.00 11089572.00 L 10219938.00 11089572.00 L 10219938.00 11000995.00 L 10207457.00 10970862.00 L 10177324.00 10958381.00 L 10147191.00 10970862.00 L 10134710.00 11000995.00 L 10134710.00 11394569.00 L 10147191.00 11424702.00 L 10177324.00 11437183.00 L 10374111.00 11437183.00 L 10404244.71 11424700.29  zM 10356459.81 11351955.00 L 10219938.00 11351955.00 L 10219938.00 11174800.00 L 10356459.81 11174800.00 L 10397092.00 11215432.81 L 10397092.00 11311322.19 L 10356459.81 11351955.00  z"/>
<path id="N" d="M 14144402.71 3848965.29 L 14209997.00 3783371.00 L 14222478.00 3753238.00 L 14222478.00 3622047.00 L 14209995.29 3591913.29 L 14144402.00 3526318.00 L 14140633.08 3524756.92 L 14209997.00 3455393.00 L 14222478.00 3425260.00 L 14209997.00 3395127.00 L 14179864.00 3382646.00 L 14149731.00 3395127.00 L 14031021.00 3513837.00 L 13960096.00 3513837.00 L 13960096.00 3425260.00 L 13947615.00 3395127.00 L 13917482.00 3382646.00 L 13887349.00 3395127.00 L 13874868.00 3425260.00 L 13874868.00 3818834.00 L 13887349.00 3848967.00 L 13917482.00 3861448.00 L 14114269.00 3861448.00 L 14144402.71 3848965.29  zM 14096617.81 3776220.00 L 13960096.00 3776220.00 L 13960096.00 3599065.00 L 14096617.81 3599065.00 L 14137250.00 3639697.81 L 14137250.00 3735587.19 L 14096617.81 3776220.00  z"/>
<path id="N" d="M 5292643.71 5935579.29 L 5358238.00 5869985.00 L 5370719.00 5839852.00 L 5370719.00 5708661.00 L 5358236.29 5678527.29 L 5292643.00 5612932.00 L 5288874.08 5611370.92 L 5358238.00 5542007.00 L 5370719.00 5511874.00 L 5358238.00 5481741.00 L 5328105.00 5469260.00 L 5297972.00 5481741.00 L 5179262.00 5600451.00 L 5108337.00 5600451.00 L 5108337.00 5511874.00 L 5095856.00 5481741.00 L 5065723.00 5469260.00 L 5035590.00 5481741.00 L 5023109.00 5511874.00 L 5023109.00 5905448.00 L 5035590.00 5935581.00 L 5065723.00 5948062.00 L 5262510.00 5948062.00 L 5292643.71 5935579.29  zM 5244858.81 5862834.00 L 5108337.00 5862834.00 L 5108337.00 5685679.00 L 5244858.81 5685679.00 L 5285491.00 5726311.81 L 5285491.00 5822201.19 L 5244858.81 5862834.00  z"/>
<path id="N" d="M 14419992.71 6801721.29 L 14485587.00 6736127.00 L 14498068.00 6705994.00 L 14498068.00 6574803.00 L 14485585.29 6544669.29 L 14419992.00 6479074.00 L 14416223.08 6477512.92 L 14485587.00 6408149.00 L 14498068.00 6378016.00 L 14485587.00 6347883.00 L 14455454.00 6335402.00 L 14425321.00 6347883.00 L 14306611.00 6466593.00 L 14235686.00 6466593.00 L 14235686.00 6378016.00 L 14223205.00 6347883.00 L 14193072.00 6335402.00 L 14162939.00 6347883.00 L 14150458.00 6378016.00 L 14150458.00 6771590.00 L 14162939.00 6801723.00 L 14193072.00 6814204.00 L 14389859.00 6814204.00 L 14419992.71 6801721.29  zM 14372207.81 6728976.00 L 14235686.00 6728976.00 L 14235686.00 6551821.00 L 14372207.81 6551821.00 L 14412840.00 6592453.81 L 14412840.00 6688343.19 L 14372207.81 6728976.00  z"/>
<path id="N" d="M 14380622.71 9557627.29 L 14446217.00 9492033.00 L 14458698.00 9461900.00 L 14458698.00 9330709.00 L 14446215.29 9300575.29 L 14380622.00 9234980.00 L 14376853.08 9233418.92 L 14446217.00 9164055.00 L 14458698.00 9133922.00 L 14446217.00 9103789.00 L 14416084.00 9091308.00 L 14385951.00 9103789.00 L 14267241.00 9222499.00 L 14196316.00 9222499.00 L 14196316.00 9133922.00 L 14183835.00 9103789.00 L 14153702.00 9091308.00 L 14123569.00 9103789.00 L 14111088.00 9133922.00 L 14111088.00 9527496.00 L 14123569.00 9557629.00 L 14153702.00 9570110.00 L 14350489.00 9570110.00 L 14380622.71 9557627.29  zM 14332837.81 9484882.00 L 14196316.00 9484882.00 L 14196316.00 9307727.00 L 14332837.81 9307727.00 L 14373470.00 9348359.81 L 14373470.00 9444249.19 L 14332837.81 9484882.00  z"/>
<path id="N" d="M 12103666.71 4124556.29 L 12169261.00 4058961.00 L 12181742.00 4028829.00 L 12169260.00 3998696.00 L 12139128.00 3986215.00 L 12108995.00 3998697.00 L 12055881.81 4051811.00 L 11959993.81 4051811.00 L 11919360.00 4011177.81 L 11919360.00 3784098.81 L 11959993.19 3743465.00 L 12055881.81 3743465.00 L 12108995.00 3796579.00 L 12139128.00 3809061.00 L 12169260.00 3796580.00 L 12181742.00 3766447.00 L 12169261.00 3736315.00 L 12103666.00 3670718.00 L 12073533.00 3658237.00 L 11942342.00 3658236.00 L 11912208.29 3670719.71 L 11846613.00 3736314.00 L 11834132.00 3766447.00 L 11834131.00 4028829.00 L 11846614.71 4058962.71 L 11912209.00 4124558.00 L 11942342.00 4137039.00 L 12073533.00 4137039.00 L 12103666.71 4124556.29  z"/>
<path id="N" d="M 3442249.71 5974949.29 L 3507844.00 5909354.00 L 3520325.00 5879222.00 L 3507843.00 5849089.00 L 3477711.00 5836608.00 L 3447578.00 5849090.00 L 3394464.81 5902204.00 L 3298576.81 5902204.00 L 3257943.00 5861570.81 L 3257943.00 5634491.81 L 3298576.19 5593858.00 L 3394464.81 5593858.00 L 3447578.00 5646972.00 L 3477711.00 5659454.00 L 3507843.00 5646973.00 L 3520325.00 5616840.00 L 3507844.00 5586708.00 L 3442249.00 5521111.00 L 3412116.00 5508630.00 L 3280925.00 5508629.00 L 3250791.29 5521112.71 L 3185196.00 5586707.00 L 3172715.00 5616840.00 L 3172714.00 5879222.00 L 3185197.71 5909355.71 L 3250792.00 5974951.00 L 3280925.00 5987432.00 L 3412116.00 5987432.00 L 3442249.71 5974949.29  z"/>
<path id="N" d="M 3558258.00 9463783.00 L 3597616.00 9424425.00 L 3603856.00 9409359.00 L 3597615.00 9394292.00 L 3582549.00 9388052.00 L 3567482.00 9394293.00 L 3534365.84 9427410.00 L 3473303.00 9427410.00 L 3446427.00 9400534.00 L 3446427.00 9260755.00 L 3473302.00 9233880.00 L 3534367.00 9233880.00 L 3567483.00 9266996.00 L 3582549.00 9273236.00 L 3597615.00 9266996.00 L 3603855.00 9251930.00 L 3597615.00 9236864.00 L 3558258.00 9197507.00 L 3543192.00 9191266.00 L 3464477.00 9191266.00 L 3449411.00 9197507.00 L 3410054.00 9236864.00 L 3403813.00 9251930.00 L 3403813.00 9409359.00 L 3410053.00 9424425.00 L 3449410.00 9463783.00 L 3464477.00 9470024.00 L 3543192.00 9470024.00 L 3558258.00 9463783.00  z"/>
<path id="N" d="M 4699620.00 8479532.00 L 4738978.00 8440174.00 L 4745218.00 8425108.00 L 4738977.00 8410041.00 L 4723911.00 8403801.00 L 4708844.00 8410042.00 L 4675727.84 8443159.00 L 4614665.00 8443159.00 L 4587789.00 8416283.00 L 4587789.00 8276504.00 L 4614664.00 8249629.00 L 4675729.00 8249629.00 L 4708845.00 8282745.00 L 4723911.00 8288985.00 L 4738977.00 8282745.00 L 4745217.00 8267679.00 L 4738977.00 8252613.00 L 4699620.00 8213256.00 L 4684554.00 8207015.00 L 4605839.00 8207015.00 L 4590773.00 8213256.00 L 4551416.00 8252613.00 L 4545175.00 8267679.00 L 4545175.00 8425108.00 L 4551415.00 8440174.00 L 4590772.00 8479532.00 L 4605839.00 8485773.00 L 4684554.00 8485773.00 L 4699620.00 8479532.00  z"/>
<path id="N" d="M 5609746.00 9113631.00 L 5662222.00 9061155.00 L 5673455.00 9034036.00 L 5673455.00 8929083.00 L 5662222.00 8901964.00 L 5610626.49 8850367.51 L 5662222.00 8798772.00 L 5673455.00 8771653.00 L 5662222.00 8744534.00 L 5635103.00 8733301.00 L 5607984.00 8744534.00 L 5514264.00 8838254.00 L 5463549.00 8838254.00 L 5463549.00 8771653.00 L 5452316.00 8744534.00 L 5425197.00 8733301.00 L 5398078.00 8744534.00 L 5386845.00 8771653.00 L 5386845.00 9086512.00 L 5398078.00 9113631.00 L 5425197.00 9124864.00 L 5582627.00 9124864.00 L 5609746.00 9113631.00  zM 5566741.00 9048160.00 L 5463549.00 9048160.00 L 5463549.00 8914958.00 L 5566740.79 8914958.00 L 5596751.00 8944968.79 L 5596751.00 9018150.00 L 5566741.00 9048160.00  z"/>
<path id="N" d="M 5275035.00 4271099.00 L 5282961.00 4251965.00 L 5282961.00 2874015.00 L 5275035.00 2854881.00 L 5255901.00 2846955.00 L 4771151.00 2846955.00 L 4771151.00 2480313.00 L 4763225.00 2461179.00 L 4744091.00 2453253.00 L 3917321.00 2453253.00 L 3898187.00 2461179.00 L 3890261.00 2480313.00 L 3890261.00 2846955.00 L 3405511.00 2846955.00 L 3386377.00 2854881.00 L 3378451.00 2874015.00 L 3378451.00 4251965.00 L 3386377.00 4271099.00 L 3405511.00 4279025.00 L 5255901.00 4279025.00 L 5275035.00 4271099.00  zM 4717031.00 2846955.00 L 3944381.00 2846955.00 L 3944381.00 2507373.00 L 4717031.00 2507373.00 L 4717031.00 2846955.00  zM 5228841.00 4224905.00 L 3432571.00 4224905.00 L 3432571.00 2901075.00 L 5228841.00 2901075.00 L 5228841.00 4224905.00  z"/>
<path id="N" d="M 3322114.00 7455909.00 L 3361472.00 7416551.00 L 3367712.00 7401485.00 L 3361471.00 7386418.00 L 3346405.00 7380178.00 L 3331338.00 7386419.00 L 3298221.84 7419536.00 L 3237159.00 7419536.00 L 3210283.00 7392660.00 L 3210283.00 7252881.00 L 3237158.00 7226006.00 L 3298223.00 7226006.00 L 3331339.00 7259122.00 L 3346405.00 7265362.00 L 3361471.00 7259122.00 L 3367711.00 7244056.00 L 3361471.00 7228990.00 L 3322114.00 7189633.00 L 3307048.00 7183392.00 L 3228333.00 7183392.00 L 3213267.00 7189633.00 L 3173910.00 7228990.00 L 3167669.00 7244056.00 L 3167669.00 7401485.00 L 3173909.00 7416551.00 L 3213266.00 7455909.00 L 3228333.00 7462150.00 L 3307048.00 7462150.00 L 3322114.00 7455909.00  z"/>
<path id="N" d="M 1664693.00 5655683.00 L 1674204.00 5632722.00 L 1674204.00 5366142.00 L 1664693.00 5343181.00 L 1641732.00 5333670.00 L 1618771.00 5343181.00 L 1361702.00 5600250.00 L 1321956.00 5600250.00 L 1274333.00 5552627.00 L 1274333.00 5446237.00 L 1331467.00 5389103.00 L 1340978.00 5366142.00 L 1331467.00 5343181.00 L 1308506.00 5333670.00 L 1285545.00 5343181.00 L 1218900.00 5409826.00 L 1209389.00 5432787.00 L 1209389.00 5566077.00 L 1218900.00 5589038.00 L 1285545.00 5655683.00 L 1308506.00 5665194.00 L 1375152.00 5665194.00 L 1398113.00 5655683.00 L 1609260.00 5444536.00 L 1609260.00 5632722.00 L 1618771.00 5655683.00 L 1641732.00 5665194.00 L 1664693.00 5655683.00  z"/>
<path id="N" d="M 15102174.71 9557627.29 L 15167769.00 9492033.00 L 15180250.00 9461900.00 L 15180250.00 9396304.00 L 15167769.00 9366171.00 L 14978134.00 9176536.00 L 15137636.00 9176536.00 L 15167769.00 9164055.00 L 15180250.00 9133922.00 L 15167769.00 9103789.00 L 15137636.00 9091308.00 L 14875254.00 9091308.00 L 14845121.00 9103789.00 L 14832640.00 9133922.00 L 14845121.00 9164055.00 L 15095022.00 9413956.00 L 15095022.00 9444249.19 L 15054389.81 9484882.00 L 14958501.81 9484882.00 L 14905386.00 9431767.00 L 14875254.00 9419285.00 L 14845121.00 9431767.00 L 14832639.00 9461900.00 L 14845121.00 9492032.00 L 14910717.00 9557629.00 L 14940850.00 9570110.00 L 15072041.00 9570110.00 L 15102174.71 9557627.29  z"/>
<path id="N" d="M 6670469.71 12982824.29 L 6736064.00 12917230.00 L 6748545.00 12887097.00 L 6748545.00 12821501.00 L 6736064.00 12791368.00 L 6546429.00 12601733.00 L 6705931.00 12601733.00 L 6736064.00 12589252.00 L 6748545.00 12559119.00 L 6736064.00 12528986.00 L 6705931.00 12516505.00 L 6443549.00 12516505.00 L 6413416.00 12528986.00 L 6400935.00 12559119.00 L 6413416.00 12589252.00 L 6663317.00 12839153.00 L 6663317.00 12869446.19 L 6622684.81 12910079.00 L 6526796.81 12910079.00 L 6473681.00 12856964.00 L 6443549.00 12844482.00 L 6413416.00 12856964.00 L 6400934.00 12887097.00 L 6413416.00 12917229.00 L 6479012.00 12982826.00 L 6509145.00 12995307.00 L 6640336.00 12995307.00 L 6670469.71 12982824.29  z"/>
<path id="N" d="M 12536610.71 13376524.29 L 12602205.00 13310930.00 L 12614686.00 13280797.00 L 12614686.00 13215201.00 L 12602205.00 13185068.00 L 12412570.00 12995433.00 L 12572072.00 12995433.00 L 12602205.00 12982952.00 L 12614686.00 12952819.00 L 12602205.00 12922686.00 L 12572072.00 12910205.00 L 12309690.00 12910205.00 L 12279557.00 12922686.00 L 12267076.00 12952819.00 L 12279557.00 12982952.00 L 12529458.00 13232853.00 L 12529458.00 13263146.19 L 12488825.81 13303779.00 L 12392937.81 13303779.00 L 12339822.00 13250664.00 L 12309690.00 13238182.00 L 12279557.00 13250664.00 L 12267075.00 13280797.00 L 12279557.00 13310929.00 L 12345153.00 13376526.00 L 12375286.00 13389007.00 L 12506477.00 13389007.00 L 12536610.71 13376524.29  z"/>
<path id="N" d="M 6211235.00 2274164.00 L 6223716.00 2244031.00 L 6211235.00 2213898.00 L 6181102.00 2201417.00 L 6158121.00 2201417.00 L 6158121.00 1916053.00 L 6145640.00 1885920.00 L 6080044.00 1820324.00 L 6049908.59 1807843.00 L 5984316.00 1807843.00 L 5954183.00 1820324.00 L 5888587.00 1885921.00 L 5876105.00 1916053.00 L 5888587.00 1946186.00 L 5918720.00 1958668.00 L 5948852.00 1946186.00 L 6001967.81 1893071.00 L 6032259.81 1893071.00 L 6072893.00 1933704.81 L 6072893.00 2201417.00 L 6049911.00 2201417.00 L 6019778.00 2213898.00 L 6007297.00 2244031.00 L 6019778.00 2274164.00 L 6049911.00 2286645.00 L 6181102.00 2286645.00 L 6211235.00 2274164.00  z"/>
<path id="N" d="M 4885607.00 2392274.00 L 4898088.00 2362141.00 L 4885607.00 2332008.00 L 4855474.00 2319527.00 L 4635706.00 2319527.00 L 4635706.00 2207968.00 L 4724283.00 2207968.00 L 4754416.00 2195487.00 L 4766897.00 2165354.00 L 4754416.00 2135221.00 L 4724283.00 2122740.00 L 4635706.00 2122740.00 L 4635706.00 2011181.00 L 4855474.00 2011181.00 L 4885607.00 1998700.00 L 4898088.00 1968567.00 L 4885607.00 1938434.00 L 4855474.00 1925953.00 L 4593092.00 1925953.00 L 4562959.00 1938434.00 L 4550478.00 1968567.00 L 4550478.00 2362141.00 L 4562959.00 2392274.00 L 4593092.00 2404755.00 L 4855474.00 2404755.00 L 4885607.00 2392274.00  z"/>
<path id="N" d="M 5971236.00 9118423.00 L 5987569.00 9094033.00 L 5981873.00 9065238.00 L 5891102.67 8929082.50 L 5981873.00 8792927.00 L 5987569.00 8764132.00 L 5971236.00 8739743.00 L 5942440.00 8734046.00 L 5918051.00 8750379.00 L 5845009.00 8859942.00 L 5771967.00 8750379.00 L 5747578.00 8734046.00 L 5718782.00 8739743.00 L 5702449.00 8764132.00 L 5708145.00 8792927.00 L 5798915.33 8929082.50 L 5708145.00 9065238.00 L 5702449.00 9094033.00 L 5718782.00 9118423.00 L 5747577.00 9124119.00 L 5771967.00 9107786.00 L 5845009.00 8998223.00 L 5918051.00 9107786.00 L 5942441.00 9124119.00 L 5971236.00 9118423.00  z"/>
<path id="N" d="M 15495875.00 12431644.00 L 15508356.00 12401511.00 L 15508356.00 12247338.00 L 15531337.00 12247338.00 L 15561470.00 12234857.00 L 15573951.00 12204724.00 L 15561470.00 12174591.00 L 15531337.00 12162110.00 L 15508356.00 12162110.00 L 15508356.00 12007937.00 L 15495875.00 11977804.00 L 15465742.00 11965323.00 L 15435609.00 11977804.00 L 15423128.00 12007937.00 L 15423128.00 12162110.00 L 15268955.00 12162109.00 L 15238822.00 12174591.00 L 15226340.00 12204724.00 L 15238822.00 12234857.00 L 15435609.00 12431644.00 L 15465742.00 12444125.00 L 15495875.00 12431644.00  zM 15423128.00 12298631.00 L 15371835.00 12247338.00 L 15423128.00 12247338.00 L 15423128.00 12298631.00  z"/>
<path id="N" d="M 12110494.00 8583707.00 L 12122975.00 8553574.00 L 12122975.00 8399401.00 L 12145956.00 8399401.00 L 12176089.00 8386920.00 L 12188570.00 8356787.00 L 12176089.00 8326654.00 L 12145956.00 8314173.00 L 12122975.00 8314173.00 L 12122975.00 8160000.00 L 12110494.00 8129867.00 L 12080361.00 8117386.00 L 12050228.00 8129867.00 L 12037747.00 8160000.00 L 12037747.00 8314173.00 L 11883574.00 8314172.00 L 11853441.00 8326654.00 L 11840959.00 8356787.00 L 11853441.00 8386920.00 L 12050228.00 8583707.00 L 12080361.00 8596188.00 L 12110494.00 8583707.00  zM 12037747.00 8450694.00 L 11986454.00 8399401.00 L 12037747.00 8399401.00 L 12037747.00 8450694.00  z"/>
<path id="N" d="M 7309818.00 9118423.00 L 7326151.00 9094033.00 L 7320455.00 9065238.00 L 7229684.67 8929082.50 L 7320455.00 8792927.00 L 7326151.00 8764132.00 L 7309818.00 8739743.00 L 7281022.00 8734046.00 L 7256633.00 8750379.00 L 7183591.00 8859942.00 L 7110549.00 8750379.00 L 7086160.00 8734046.00 L 7057364.00 8739743.00 L 7041031.00 8764132.00 L 7046727.00 8792927.00 L 7137497.33 8929082.50 L 7046727.00 9065238.00 L 7041031.00 9094033.00 L 7057364.00 9118423.00 L 7086159.00 9124119.00 L 7110549.00 9107786.00 L 7183591.00 8998223.00 L 7256633.00 9107786.00 L 7281023.00 9124119.00 L 7309818.00 9118423.00  z"/>
<path id="N" d="M 3835823.00 5974951.00 L 3848304.00 5944818.00 L 3848304.00 5790645.00 L 3871285.00 5790645.00 L 3901418.00 5778164.00 L 3913899.00 5748031.00 L 3901418.00 5717898.00 L 3871285.00 5705417.00 L 3848304.00 5705417.00 L 3848304.00 5551244.00 L 3835823.00 5521111.00 L 3805690.00 5508630.00 L 3775557.00 5521111.00 L 3763076.00 5551244.00 L 3763076.00 5705417.00 L 3608903.00 5705416.00 L 3578770.00 5717898.00 L 3566288.00 5748031.00 L 3578770.00 5778164.00 L 3775557.00 5974951.00 L 3805690.00 5987432.00 L 3835823.00 5974951.00  zM 3763076.00 5841938.00 L 3711783.00 5790645.00 L 3763076.00 5790645.00 L 3763076.00 5841938.00  z"/>
<path id="N" d="M 4935765.00 9463783.00 L 5014479.00 9385068.00 L 5020720.00 9370002.00 L 5020720.00 9212573.00 L 5014479.00 9197507.00 L 4999413.00 9191266.00 L 4984347.00 9197507.00 L 4978106.00 9212573.00 L 4978106.00 9309338.00 L 4863291.00 9309338.00 L 4863291.00 9212573.00 L 4857050.00 9197507.00 L 4841984.00 9191266.00 L 4826918.00 9197507.00 L 4820677.00 9212573.00 L 4820677.00 9370002.00 L 4826918.00 9385068.00 L 4905633.00 9463783.00 L 4920699.00 9470024.00 L 4935765.00 9463783.00  zM 4920698.81 9418584.81 L 4863291.00 9361177.00 L 4863291.00 9351952.00 L 4978106.00 9351952.00 L 4978106.00 9361176.16 L 4920698.81 9418584.81  z"/>
<path id="N" d="M 4975121.00 10448035.00 L 4981362.00 10432969.00 L 4980948.00 10192646.00 L 4975121.00 10181759.00 L 4971874.00 10179096.00 L 4960055.00 10175518.00 L 4955877.00 10175932.00 L 4944989.00 10181759.00 L 4823933.00 10362596.25 L 4823933.00 10196825.00 L 4817692.00 10181759.00 L 4802626.00 10175518.00 L 4787560.00 10181759.00 L 4781319.00 10196825.00 L 4781733.00 10437148.00 L 4787560.00 10448035.00 L 4790807.00 10450698.00 L 4802626.00 10454276.00 L 4806805.00 10453862.00 L 4817692.00 10448035.00 L 4938748.00 10267198.12 L 4938748.00 10432969.00 L 4944989.00 10448035.00 L 4960055.00 10454276.00 L 4975121.00 10448035.00  z"/>
<path id="N" d="M 12312590.00 14924071.00 L 12321951.00 14901472.00 L 12312590.00 14878873.00 L 12289991.00 14869512.00 L 12269475.00 14869512.00 L 12269475.00 14618573.00 L 12289991.00 14618573.00 L 12312590.00 14609212.00 L 12321951.00 14586613.00 L 12312590.00 14564014.00 L 12289991.00 14554653.00 L 12185038.00 14554653.00 L 12162439.00 14564014.00 L 12153078.00 14586613.00 L 12162439.00 14609212.00 L 12185038.00 14618573.00 L 12205555.00 14618573.00 L 12205555.00 14869512.00 L 12185038.00 14869512.00 L 12162439.00 14878873.00 L 12153078.00 14901472.00 L 12162439.00 14924071.00 L 12185038.00 14933432.00 L 12289991.00 14933432.00 L 12312590.00 14924071.00  z"/>
<path id="N" d="M 13374095.00 13283023.00 L 13383456.00 13260424.00 L 13374095.00 13237825.00 L 13351496.00 13228464.00 L 13330980.00 13228464.00 L 13330980.00 12977525.00 L 13351496.00 12977525.00 L 13374095.00 12968164.00 L 13383456.00 12945565.00 L 13374095.00 12922966.00 L 13351496.00 12913605.00 L 13246543.00 12913605.00 L 13223944.00 12922966.00 L 13214583.00 12945565.00 L 13223944.00 12968164.00 L 13246543.00 12977525.00 L 13267060.00 12977525.00 L 13267060.00 13228464.00 L 13246543.00 13228464.00 L 13223944.00 13237825.00 L 13214583.00 13260424.00 L 13223944.00 13283023.00 L 13246543.00 13292384.00 L 13351496.00 13292384.00 L 13374095.00 13283023.00  z"/>
<path id="N" d="M 4778335.00 7455909.00 L 4784576.00 7440843.00 L 4784576.00 7204699.00 L 4778335.00 7189633.00 L 4763269.00 7183392.00 L 4748203.00 7189633.00 L 4741962.00 7204699.00 L 4741962.00 7389403.54 L 4699621.00 7347062.00 L 4684555.00 7340821.00 L 4669489.00 7347062.00 L 4627147.00 7389404.00 L 4627147.00 7204699.00 L 4620906.00 7189633.00 L 4605840.00 7183392.00 L 4590774.00 7189633.00 L 4584533.00 7204699.00 L 4584533.00 7440843.00 L 4590774.00 7455909.00 L 4605840.00 7462150.00 L 4620906.00 7455909.00 L 4684554.81 7392260.19 L 4748202.00 7455909.00 L 4763269.00 7462150.00 L 4778335.00 7455909.00  z"/>
<path id="N" d="M 3991189.00 8479532.00 L 3997430.00 8464466.00 L 3991189.00 8449400.00 L 3976123.00 8443159.00 L 3958072.00 8443159.00 L 3958072.00 8249629.00 L 3976123.00 8249629.00 L 3991189.00 8243388.00 L 3997430.00 8228322.00 L 3991189.00 8213256.00 L 3976123.00 8207015.00 L 3897408.00 8207015.00 L 3882342.00 8213256.00 L 3876101.00 8228322.00 L 3882342.00 8243388.00 L 3897408.00 8249629.00 L 3915458.00 8249629.00 L 3915458.00 8443159.00 L 3897408.00 8443159.00 L 3882342.00 8449400.00 L 3876101.00 8464466.00 L 3882342.00 8479532.00 L 3897408.00 8485773.00 L 3976123.00 8485773.00 L 3991189.00 8479532.00  z"/>
<path id="N" d="M 1598048.00 11626704.00 L 1664693.00 11560059.00 L 1674204.00 11537098.00 L 1674204.00 11403808.00 L 1664693.00 11380847.00 L 1598048.00 11314202.00 L 1575087.00 11304691.00 L 1308506.00 11304691.00 L 1285545.00 11314202.00 L 1218900.00 11380847.00 L 1209389.00 11403808.00 L 1209389.00 11537098.00 L 1218900.00 11560059.00 L 1285545.00 11626704.00 L 1308506.00 11636215.00 L 1575087.00 11636215.00 L 1598048.00 11626704.00  zM 1561637.00 11571271.00 L 1321956.00 11571271.00 L 1274333.00 11523648.00 L 1274333.00 11417258.00 L 1321956.00 11369635.00 L 1561637.00 11369635.00 L 1609260.00 11417258.00 L 1609260.00 11523648.00 L 1561637.00 11571271.00  z"/>
<path id="N" d="M 3361471.00 8479532.00 L 3367712.00 8464466.00 L 3367712.00 8228322.00 L 3361471.00 8213256.00 L 3346405.00 8207015.00 L 3331339.00 8213256.00 L 3325098.00 8228322.00 L 3325098.00 8413026.54 L 3282757.00 8370685.00 L 3267691.00 8364444.00 L 3252625.00 8370685.00 L 3210283.00 8413027.00 L 3210283.00 8228322.00 L 3204042.00 8213256.00 L 3188976.00 8207015.00 L 3173910.00 8213256.00 L 3167669.00 8228322.00 L 3167669.00 8464466.00 L 3173910.00 8479532.00 L 3188976.00 8485773.00 L 3204042.00 8479532.00 L 3267690.81 8415883.19 L 3331338.00 8479532.00 L 3346405.00 8485773.00 L 3361471.00 8479532.00  z"/>
<path id="N" d="M 5211265.00 8479532.00 L 5217506.00 8464466.00 L 5211265.00 8449400.00 L 5108259.00 8346394.00 L 5211265.00 8243388.00 L 5217506.00 8228322.00 L 5211265.00 8213256.00 L 5196199.00 8207015.00 L 5181133.00 8213256.00 L 5078127.00 8316262.00 L 5060077.00 8298212.00 L 5060077.00 8228322.00 L 5053836.00 8213256.00 L 5038770.00 8207015.00 L 5023704.00 8213256.00 L 5017463.00 8228322.00 L 5017463.00 8464466.00 L 5023704.00 8479532.00 L 5038770.00 8485773.00 L 5053836.00 8479532.00 L 5060077.00 8464466.00 L 5060077.00 8358476.00 L 5181133.00 8479532.00 L 5196199.00 8485773.00 L 5211265.00 8479532.00  z"/>
<path id="N" d="M 3558258.00 8479532.00 L 3597616.00 8440174.00 L 3603856.00 8425108.00 L 3603856.00 8267679.00 L 3597615.00 8252613.00 L 3558258.00 8213256.00 L 3543192.00 8207015.00 L 3464477.00 8207015.00 L 3449411.00 8213256.00 L 3410054.00 8252613.00 L 3403813.00 8267679.00 L 3403813.00 8425108.00 L 3410053.00 8440174.00 L 3449410.00 8479532.00 L 3464477.00 8485773.00 L 3543192.00 8485773.00 L 3558258.00 8479532.00  zM 3534365.84 8443159.00 L 3473303.00 8443159.00 L 3446427.00 8416283.00 L 3446427.00 8276504.00 L 3473302.00 8249629.00 L 3534367.00 8249629.00 L 3561242.00 8276504.00 L 3561242.00 8416282.16 L 3534365.84 8443159.00  z"/>
<path id="N" d="M 4098459.00 2392274.00 L 4110940.00 2362141.00 L 4110940.00 1968567.00 L 4098459.00 1938434.00 L 4068326.00 1925953.00 L 4038193.00 1938434.00 L 3937135.00 2039492.00 L 3836077.00 1938434.00 L 3805944.00 1925953.00 L 3775811.00 1938434.00 L 3763330.00 1968567.00 L 3763330.00 2362141.00 L 3775811.00 2392274.00 L 3805944.00 2404755.00 L 3836077.00 2392274.00 L 3848558.00 2362141.00 L 3848558.00 2071447.00 L 3907002.00 2129891.00 L 3937135.00 2142372.00 L 3967268.00 2129891.00 L 4025712.00 2071447.00 L 4025712.00 2362141.00 L 4038193.00 2392274.00 L 4068326.00 2404755.00 L 4098459.00 2392274.00  z"/>
<path id="N" d="M 12627450.00 14924071.00 L 12679926.00 14871595.00 L 12689287.00 14848996.00 L 12689287.00 14639090.00 L 12679926.00 14616491.00 L 12627450.00 14564014.00 L 12604851.00 14554653.00 L 12499898.00 14554653.00 L 12477299.00 14564014.00 L 12424822.00 14616491.00 L 12415461.00 14639090.00 L 12415461.00 14848996.00 L 12424822.00 14871595.00 L 12477299.00 14924071.00 L 12499898.00 14933432.00 L 12604851.00 14933432.00 L 12627450.00 14924071.00  zM 12591613.00 14869512.00 L 12513135.82 14869512.00 L 12479381.00 14835757.82 L 12479381.00 14652328.00 L 12513136.00 14618573.00 L 12591612.82 14618573.00 L 12625367.00 14652327.82 L 12625367.00 14835758.00 L 12591613.00 14869512.00  z"/>
<path id="N" d="M 13688955.00 13283023.00 L 13741431.00 13230547.00 L 13750792.00 13207948.00 L 13750792.00 12998042.00 L 13741431.00 12975443.00 L 13688955.00 12922966.00 L 13666356.00 12913605.00 L 13561403.00 12913605.00 L 13538804.00 12922966.00 L 13486327.00 12975443.00 L 13476966.00 12998042.00 L 13476966.00 13207948.00 L 13486327.00 13230547.00 L 13538804.00 13283023.00 L 13561403.00 13292384.00 L 13666356.00 13292384.00 L 13688955.00 13283023.00  zM 13653118.00 13228464.00 L 13574640.82 13228464.00 L 13540886.00 13194709.82 L 13540886.00 13011280.00 L 13574641.00 12977525.00 L 13653117.82 12977525.00 L 13686872.00 13011279.82 L 13686872.00 13194710.00 L 13653118.00 13228464.00  z"/>
<path id="N" d="M 13257168.00 14924071.00 L 13266529.00 14901472.00 L 13266529.00 14776003.00 L 13287045.00 14776003.00 L 13309644.00 14766642.00 L 13319005.00 14744043.00 L 13309644.00 14721444.00 L 13287045.00 14712083.00 L 13266529.00 14712083.00 L 13266529.00 14586613.00 L 13257168.00 14564014.00 L 13234569.00 14554653.00 L 13211970.00 14564014.00 L 13202609.00 14586613.00 L 13202609.00 14712083.00 L 13077139.00 14712083.00 L 13054540.00 14721444.00 L 13045179.00 14744043.00 L 13054540.00 14766642.00 L 13211970.00 14924071.00 L 13234569.00 14933432.00 L 13257168.00 14924071.00  zM 13202609.00 14824314.35 L 13154297.35 14776003.00 L 13202609.00 14776003.00 L 13202609.00 14824314.35  z"/>
<path id="N" d="M 2523593.71 11880461.29 L 2589188.00 11814867.00 L 2601669.00 11784734.00 L 2601669.00 11653543.00 L 2589186.29 11623409.29 L 2523593.00 11557814.00 L 2493460.00 11545333.00 L 2339287.00 11545333.00 L 2339287.00 11456756.00 L 2326806.00 11426623.00 L 2296673.00 11414142.00 L 2266540.00 11426623.00 L 2254059.00 11456756.00 L 2254059.00 11850330.00 L 2266540.00 11880463.00 L 2296673.00 11892944.00 L 2493460.00 11892944.00 L 2523593.71 11880461.29  zM 2475808.81 11807716.00 L 2339287.00 11807716.00 L 2339287.00 11630561.00 L 2475808.81 11630561.00 L 2516441.00 11671193.81 L 2516441.00 11767083.19 L 2475808.81 11807716.00  z"/>
<path id="N" d="M 11782515.00 8583707.00 L 11794996.00 8553574.00 L 11794996.00 8225596.00 L 11782513.29 8195462.29 L 11716920.00 8129867.00 L 11686787.00 8117386.00 L 11555596.00 8117385.00 L 11525462.29 8129868.71 L 11459867.00 8195463.00 L 11447386.00 8225596.00 L 11447386.00 8553574.00 L 11459867.00 8583707.00 L 11490000.00 8596188.00 L 11520133.00 8583707.00 L 11532614.00 8553574.00 L 11532614.00 8243247.81 L 11573247.19 8202614.00 L 11669135.81 8202614.00 L 11709768.00 8243246.81 L 11709768.00 8553574.00 L 11722249.00 8583707.00 L 11752382.00 8596188.00 L 11782515.00 8583707.00  z"/>
<path id="N" d="M 13638718.00 3061502.00 L 13651199.00 3031369.00 L 13651199.00 2703391.00 L 13638716.29 2673257.29 L 13573123.00 2607662.00 L 13542990.00 2595181.00 L 13411799.00 2595180.00 L 13381665.29 2607663.71 L 13316070.00 2673258.00 L 13303589.00 2703391.00 L 13303589.00 3031369.00 L 13316070.00 3061502.00 L 13346203.00 3073983.00 L 13376336.00 3061502.00 L 13388817.00 3031369.00 L 13388817.00 2721042.81 L 13429450.19 2680409.00 L 13525338.81 2680409.00 L 13565971.00 2721041.81 L 13565971.00 3031369.00 L 13578452.00 3061502.00 L 13608585.00 3073983.00 L 13638718.00 3061502.00  z"/>
<path id="N" d="M 1664693.00 11160188.00 L 1674204.00 11137227.00 L 1674204.00 11003937.00 L 1664693.00 10980976.00 L 1641732.00 10971465.00 L 1618771.00 10980976.00 L 1609260.00 11003937.00 L 1609260.00 11038110.00 L 1320255.00 11038110.00 L 1331467.00 11026898.00 L 1340978.00 11003937.00 L 1331467.00 10980976.00 L 1308506.00 10971465.00 L 1285545.00 10980976.00 L 1218900.00 11047621.00 L 1209389.00 11070582.00 L 1218900.00 11093543.00 L 1241861.00 11103054.00 L 1609260.00 11103054.00 L 1609260.00 11137227.00 L 1618771.00 11160188.00 L 1641732.00 11169699.00 L 1664693.00 11160188.00  z"/>
<path id="N" d="M 2727685.00 5640503.00 L 2737196.00 5617542.00 L 2737196.00 5484252.00 L 2727685.00 5461291.00 L 2704724.00 5451780.00 L 2681763.00 5461291.00 L 2672252.00 5484252.00 L 2672252.00 5518425.00 L 2383247.00 5518425.00 L 2394459.00 5507213.00 L 2403970.00 5484252.00 L 2394459.00 5461291.00 L 2371498.00 5451780.00 L 2348537.00 5461291.00 L 2281892.00 5527936.00 L 2272381.00 5550897.00 L 2281892.00 5573858.00 L 2304853.00 5583369.00 L 2672252.00 5583369.00 L 2672252.00 5617542.00 L 2681763.00 5640503.00 L 2704724.00 5650014.00 L 2727685.00 5640503.00  z"/>
<path id="N" d="M 10666627.00 11424702.00 L 10679108.00 11394569.00 L 10679108.00 11043609.00 L 10702089.00 11043609.00 L 10732222.00 11031128.00 L 10744703.00 11000995.00 L 10732222.00 10970862.00 L 10702089.00 10958381.00 L 10570898.00 10958381.00 L 10540765.00 10970862.00 L 10528284.00 11000995.00 L 10540765.00 11031128.00 L 10570898.00 11043609.00 L 10593880.00 11043609.00 L 10593880.00 11295878.16 L 10570898.00 11286358.00 L 10540765.00 11298840.00 L 10528283.00 11328973.00 L 10540765.00 11359105.00 L 10606361.00 11424702.00 L 10636494.00 11437183.00 L 10666627.00 11424702.00  z"/>
<path id="N" d="M 2785976.00 11880463.00 L 2798457.00 11850330.00 L 2798457.00 11499370.00 L 2821438.00 11499370.00 L 2851571.00 11486889.00 L 2864052.00 11456756.00 L 2851571.00 11426623.00 L 2821438.00 11414142.00 L 2690247.00 11414142.00 L 2660114.00 11426623.00 L 2647633.00 11456756.00 L 2660114.00 11486889.00 L 2690247.00 11499370.00 L 2713229.00 11499370.00 L 2713229.00 11751639.16 L 2690247.00 11742119.00 L 2660114.00 11754601.00 L 2647632.00 11784734.00 L 2660114.00 11814866.00 L 2725710.00 11880463.00 L 2755843.00 11892944.00 L 2785976.00 11880463.00  z"/>
<path id="N" d="M 13855604.00 12431644.00 L 13868085.00 12401511.00 L 13868085.00 12050551.00 L 13891066.00 12050551.00 L 13921199.00 12038070.00 L 13933680.00 12007937.00 L 13921199.00 11977804.00 L 13891066.00 11965323.00 L 13759875.00 11965323.00 L 13729742.00 11977804.00 L 13717261.00 12007937.00 L 13729742.00 12038070.00 L 13759875.00 12050551.00 L 13782857.00 12050551.00 L 13782857.00 12302820.16 L 13759875.00 12293300.00 L 13729742.00 12305782.00 L 13717260.00 12335915.00 L 13729742.00 12366047.00 L 13795338.00 12431644.00 L 13825471.00 12444125.00 L 13855604.00 12431644.00  z"/>
<path id="N" d="M 6408023.00 2274164.00 L 6420504.00 2244031.00 L 6420504.00 1893071.00 L 6443485.00 1893071.00 L 6473618.00 1880590.00 L 6486099.00 1850457.00 L 6473618.00 1820324.00 L 6443485.00 1807843.00 L 6312294.00 1807843.00 L 6282161.00 1820324.00 L 6269680.00 1850457.00 L 6282161.00 1880590.00 L 6312294.00 1893071.00 L 6335276.00 1893071.00 L 6335276.00 2145340.16 L 6312294.00 2135820.00 L 6282161.00 2148302.00 L 6269679.00 2178435.00 L 6282161.00 2208567.00 L 6347757.00 2274164.00 L 6377890.00 2286645.00 L 6408023.00 2274164.00  z"/>
<path id="N" d="M 12471015.00 9360778.00 L 12483496.00 9330645.00 L 12483496.00 8979685.00 L 12506477.00 8979685.00 L 12536610.00 8967204.00 L 12549091.00 8937071.00 L 12536610.00 8906938.00 L 12506477.00 8894457.00 L 12375286.00 8894457.00 L 12345153.00 8906938.00 L 12332672.00 8937071.00 L 12345153.00 8967204.00 L 12375286.00 8979685.00 L 12398268.00 8979685.00 L 12398268.00 9231954.16 L 12375286.00 9222434.00 L 12345153.00 9234916.00 L 12332671.00 9265049.00 L 12345153.00 9295181.00 L 12410749.00 9360778.00 L 12440882.00 9373259.00 L 12471015.00 9360778.00  z"/>
<path id="N" d="M 8809598.00 4715109.00 L 8822079.00 4684976.00 L 8822079.00 4334016.00 L 8845060.00 4334016.00 L 8875193.00 4321535.00 L 8887674.00 4291402.00 L 8875193.00 4261269.00 L 8845060.00 4248788.00 L 8713869.00 4248788.00 L 8683736.00 4261269.00 L 8671255.00 4291402.00 L 8683736.00 4321535.00 L 8713869.00 4334016.00 L 8736851.00 4334016.00 L 8736851.00 4586285.16 L 8713869.00 4576765.00 L 8683736.00 4589247.00 L 8671254.00 4619380.00 L 8683736.00 4649512.00 L 8749332.00 4715109.00 L 8779465.00 4727590.00 L 8809598.00 4715109.00  z"/>
<path id="N" d="M 10587887.00 8376526.00 L 10600368.00 8346393.00 L 10600368.00 7995433.00 L 10623349.00 7995433.00 L 10653482.00 7982952.00 L 10665963.00 7952819.00 L 10653482.00 7922686.00 L 10623349.00 7910205.00 L 10492158.00 7910205.00 L 10462025.00 7922686.00 L 10449544.00 7952819.00 L 10462025.00 7982952.00 L 10492158.00 7995433.00 L 10515140.00 7995433.00 L 10515140.00 8247702.16 L 10492158.00 8238182.00 L 10462025.00 8250664.00 L 10449543.00 8280797.00 L 10462025.00 8310929.00 L 10527621.00 8376526.00 L 10557754.00 8389007.00 L 10587887.00 8376526.00  z"/>
<path id="N" d="M 14406785.00 3848967.00 L 14419266.00 3818834.00 L 14419266.00 3467874.00 L 14442247.00 3467874.00 L 14472380.00 3455393.00 L 14484861.00 3425260.00 L 14472380.00 3395127.00 L 14442247.00 3382646.00 L 14311056.00 3382646.00 L 14280923.00 3395127.00 L 14268442.00 3425260.00 L 14280923.00 3455393.00 L 14311056.00 3467874.00 L 14334038.00 3467874.00 L 14334038.00 3720143.16 L 14311056.00 3710623.00 L 14280923.00 3723105.00 L 14268441.00 3753238.00 L 14280923.00 3783370.00 L 14346519.00 3848967.00 L 14376652.00 3861448.00 L 14406785.00 3848967.00  z"/>
<path id="N" d="M 6604874.00 11093062.00 L 6617355.00 11062929.00 L 6617355.00 10711969.00 L 6640336.00 10711969.00 L 6670469.00 10699488.00 L 6682950.00 10669355.00 L 6670469.00 10639222.00 L 6640336.00 10626741.00 L 6509145.00 10626741.00 L 6479012.00 10639222.00 L 6466531.00 10669355.00 L 6479012.00 10699488.00 L 6509145.00 10711969.00 L 6532127.00 10711969.00 L 6532127.00 10964238.16 L 6509145.00 10954718.00 L 6479012.00 10967200.00 L 6466530.00 10997333.00 L 6479012.00 11027465.00 L 6544608.00 11093062.00 L 6574741.00 11105543.00 L 6604874.00 11093062.00  z"/>
<path id="N" d="M 14643005.00 9557629.00 L 14655486.00 9527496.00 L 14655486.00 9176536.00 L 14678467.00 9176536.00 L 14708600.00 9164055.00 L 14721081.00 9133922.00 L 14708600.00 9103789.00 L 14678467.00 9091308.00 L 14547276.00 9091308.00 L 14517143.00 9103789.00 L 14504662.00 9133922.00 L 14517143.00 9164055.00 L 14547276.00 9176536.00 L 14570258.00 9176536.00 L 14570258.00 9428805.16 L 14547276.00 9419285.00 L 14517143.00 9431767.00 L 14504661.00 9461900.00 L 14517143.00 9492032.00 L 14582739.00 9557629.00 L 14612872.00 9570110.00 L 14643005.00 9557629.00  z"/>
<path id="N" d="M 15036706.00 12431644.00 L 15049187.00 12401511.00 L 15049187.00 12050551.00 L 15072168.00 12050551.00 L 15102301.00 12038070.00 L 15114782.00 12007937.00 L 15102301.00 11977804.00 L 15072168.00 11965323.00 L 14940977.00 11965323.00 L 14910844.00 11977804.00 L 14898363.00 12007937.00 L 14910844.00 12038070.00 L 14940977.00 12050551.00 L 14963959.00 12050551.00 L 14963959.00 12302820.16 L 14940977.00 12293300.00 L 14910844.00 12305782.00 L 14898362.00 12335915.00 L 14910844.00 12366047.00 L 14976440.00 12431644.00 L 15006573.00 12444125.00 L 15036706.00 12431644.00  z"/>
<path id="N" d="M 14682375.00 6801723.00 L 14694856.00 6771590.00 L 14694856.00 6420630.00 L 14717837.00 6420630.00 L 14747970.00 6408149.00 L 14760451.00 6378016.00 L 14747970.00 6347883.00 L 14717837.00 6335402.00 L 14586646.00 6335402.00 L 14556513.00 6347883.00 L 14544032.00 6378016.00 L 14556513.00 6408149.00 L 14586646.00 6420630.00 L 14609628.00 6420630.00 L 14609628.00 6672899.16 L 14586646.00 6663379.00 L 14556513.00 6675861.00 L 14544031.00 6705994.00 L 14556513.00 6736126.00 L 14622109.00 6801723.00 L 14652242.00 6814204.00 L 14682375.00 6801723.00  z"/>
<path id="N" d="M 8547215.71 4715107.29 L 8612810.00 4649513.00 L 8625291.00 4619380.00 L 8625291.00 4356998.00 L 8612808.29 4326864.29 L 8547215.00 4261269.00 L 8517082.00 4248788.00 L 8320295.00 4248788.00 L 8290162.00 4261269.00 L 8277681.00 4291402.00 L 8277681.00 4684976.00 L 8290162.00 4715109.00 L 8320295.00 4727590.00 L 8517082.00 4727590.00 L 8547215.71 4715107.29  zM 8499430.81 4642362.00 L 8362909.00 4642362.00 L 8362909.00 4334016.00 L 8499430.81 4334016.00 L 8540063.00 4374648.81 L 8540063.00 4601729.19 L 8499430.81 4642362.00  z"/>
<path id="N" d="M 10383441.71 12487850.29 L 10449036.00 12422256.00 L 10461517.00 12392123.00 L 10461517.00 12129741.00 L 10449034.29 12099607.29 L 10383441.00 12034012.00 L 10353308.00 12021531.00 L 10156521.00 12021531.00 L 10126388.00 12034012.00 L 10113907.00 12064145.00 L 10113907.00 12457719.00 L 10126388.00 12487852.00 L 10156521.00 12500333.00 L 10353308.00 12500333.00 L 10383441.71 12487850.29  zM 10335656.81 12415105.00 L 10199135.00 12415105.00 L 10199135.00 12106759.00 L 10335656.81 12106759.00 L 10376289.00 12147391.81 L 10376289.00 12374472.19 L 10335656.81 12415105.00  z"/>
<path id="N" d="M 10307407.71 7314004.29 L 10373002.00 7248410.00 L 10385483.00 7218277.00 L 10385483.00 6955895.00 L 10373000.29 6925761.29 L 10307407.00 6860166.00 L 10277274.00 6847685.00 L 10080487.00 6847685.00 L 10050354.00 6860166.00 L 10037873.00 6890299.00 L 10037873.00 7283873.00 L 10050354.00 7314006.00 L 10080487.00 7326487.00 L 10277274.00 7326487.00 L 10307407.71 7314004.29  zM 10259622.81 7241259.00 L 10123101.00 7241259.00 L 10123101.00 6932913.00 L 10259622.81 6932913.00 L 10300255.00 6973545.81 L 10300255.00 7200626.19 L 10259622.81 7241259.00  z"/>
<path id="N" d="M 5171908.00 10448035.00 L 5211266.00 10408677.00 L 5217506.00 10393611.00 L 5217506.00 10236182.00 L 5211265.00 10221116.00 L 5171908.00 10181759.00 L 5156842.00 10175518.00 L 5038770.00 10175518.00 L 5023704.00 10181759.00 L 5017463.00 10196825.00 L 5017463.00 10432969.00 L 5023704.00 10448035.00 L 5038770.00 10454276.00 L 5156842.00 10454276.00 L 5171908.00 10448035.00  zM 5148015.84 10411662.00 L 5060077.00 10411662.00 L 5060077.00 10218132.00 L 5148017.00 10218132.00 L 5174892.00 10245007.00 L 5174892.00 10384785.16 L 5148015.84 10411662.00  z"/>
<path id="N" d="M 4266690.00 7455909.00 L 4306048.00 7416551.00 L 4312288.00 7401485.00 L 4312288.00 7244056.00 L 4306047.00 7228990.00 L 4266690.00 7189633.00 L 4251624.00 7183392.00 L 4133552.00 7183392.00 L 4118486.00 7189633.00 L 4112245.00 7204699.00 L 4112245.00 7440843.00 L 4118486.00 7455909.00 L 4133552.00 7462150.00 L 4251624.00 7462150.00 L 4266690.00 7455909.00  zM 4242797.84 7419536.00 L 4154859.00 7419536.00 L 4154859.00 7226006.00 L 4242799.00 7226006.00 L 4269674.00 7252881.00 L 4269674.00 7392659.16 L 4242797.84 7419536.00  z"/>
<path id="N" d="M 4738978.00 9463783.00 L 4778336.00 9424425.00 L 4784576.00 9409359.00 L 4784576.00 9251930.00 L 4778335.00 9236864.00 L 4738978.00 9197507.00 L 4723912.00 9191266.00 L 4605840.00 9191266.00 L 4590774.00 9197507.00 L 4584533.00 9212573.00 L 4584533.00 9448717.00 L 4590774.00 9463783.00 L 4605840.00 9470024.00 L 4723912.00 9470024.00 L 4738978.00 9463783.00  zM 4715085.84 9427410.00 L 4627147.00 9427410.00 L 4627147.00 9233880.00 L 4715087.00 9233880.00 L 4741962.00 9260755.00 L 4741962.00 9400533.16 L 4715085.84 9427410.00  z"/>
<path id="N" d="M 11112651.00 8376526.00 L 11125132.00 8346393.00 L 11125132.00 8280797.00 L 11112651.00 8250664.00 L 10862750.00 8000763.00 L 10862750.00 7952819.00 L 10850269.00 7922686.00 L 10820136.00 7910205.00 L 10790003.00 7922686.00 L 10777522.00 7952819.00 L 10777522.00 8018415.00 L 10790003.00 8048548.00 L 11039904.00 8298449.00 L 11039904.00 8303779.00 L 10820136.00 8303779.00 L 10790003.00 8316260.00 L 10777522.00 8346393.00 L 10790003.00 8376526.00 L 10820136.00 8389007.00 L 11082518.00 8389007.00 L 11112651.00 8376526.00  z"/>
<path id="N" d="M 4030545.00 10448035.00 L 4036786.00 10432969.00 L 4036786.00 10275540.00 L 4030545.00 10260474.00 L 3951831.00 10181759.00 L 3936765.00 10175518.00 L 3921699.00 10181759.00 L 3842984.00 10260474.00 L 3836743.00 10275540.00 L 3836743.00 10432969.00 L 3842984.00 10448035.00 L 3858050.00 10454276.00 L 3873116.00 10448035.00 L 3879357.00 10432969.00 L 3879357.00 10284365.00 L 3936764.81 10226957.19 L 3994172.00 10284365.84 L 3994172.00 10432969.00 L 4000413.00 10448035.00 L 4015479.00 10454276.00 L 4030545.00 10448035.00  z"/>
<path id="N" d="M 12851570.00 3061502.00 L 12864051.00 3031369.00 L 12864051.00 2768986.00 L 12851570.00 2738853.00 L 12720379.00 2607662.00 L 12690246.00 2595181.00 L 12660113.00 2607662.00 L 12528922.00 2738853.00 L 12516441.00 2768986.00 L 12516441.00 3031369.00 L 12528922.00 3061502.00 L 12559055.00 3073983.00 L 12589188.00 3061502.00 L 12601669.00 3031369.00 L 12601669.00 2786638.00 L 12690246.00 2698061.00 L 12778823.00 2786638.00 L 12778823.00 3031369.00 L 12791304.00 3061502.00 L 12821437.00 3073983.00 L 12851570.00 3061502.00  z"/>
<path id="N" d="M 12562835.00 4124558.00 L 12575316.00 4094425.00 L 12575316.00 4028829.00 L 12562835.00 3998696.00 L 12312934.00 3748795.00 L 12312934.00 3700851.00 L 12300453.00 3670718.00 L 12270320.00 3658237.00 L 12240187.00 3670718.00 L 12227706.00 3700851.00 L 12227706.00 3766447.00 L 12240187.00 3796580.00 L 12490088.00 4046481.00 L 12490088.00 4051811.00 L 12270320.00 4051811.00 L 12240187.00 4064292.00 L 12227706.00 4094425.00 L 12240187.00 4124558.00 L 12270320.00 4137039.00 L 12532702.00 4137039.00 L 12562835.00 4124558.00  z"/>
<path id="N" d="M 4975122.00 7455909.00 L 5014480.00 7416551.00 L 5020720.00 7401485.00 L 5020720.00 7244056.00 L 5014479.00 7228990.00 L 4975122.00 7189633.00 L 4960056.00 7183392.00 L 4841984.00 7183392.00 L 4826918.00 7189633.00 L 4820677.00 7204699.00 L 4820677.00 7440843.00 L 4826918.00 7455909.00 L 4841984.00 7462150.00 L 4960056.00 7462150.00 L 4975122.00 7455909.00  zM 4951229.84 7419536.00 L 4863291.00 7419536.00 L 4863291.00 7226006.00 L 4951231.00 7226006.00 L 4978106.00 7252881.00 L 4978106.00 7392659.16 L 4951229.84 7419536.00  z"/>
<path id="N" d="M 10286038.00 1053755.00 L 10298519.00 1023622.00 L 10298519.00 728346.00 L 10286038.00 698213.00 L 10255905.00 685732.00 L 6909449.00 685732.00 L 6879316.00 698213.00 L 6866835.00 728346.00 L 6866835.00 1023622.00 L 6879316.00 1053755.00 L 6909449.00 1066236.00 L 6939582.00 1053755.00 L 6952063.00 1023622.00 L 6952063.00 770960.00 L 10213291.00 770960.00 L 10213291.00 1023622.00 L 10225772.00 1053755.00 L 10255905.00 1066236.00 L 10286038.00 1053755.00  z"/>
<path id="N" d="M 3833759.00 6392916.00 L 3840000.00 6377850.00 L 3833759.00 6362784.00 L 3818693.00 6356543.00 L 3761286.00 6356543.00 L 3761286.00 6141706.00 L 3755045.00 6126640.00 L 3739979.00 6120399.00 L 3724913.00 6126640.00 L 3718672.00 6141706.00 L 3718672.00 6356543.00 L 3661264.00 6356543.00 L 3646198.00 6362784.00 L 3639957.00 6377850.00 L 3646198.00 6392916.00 L 3661264.00 6399157.00 L 3818693.00 6399157.00 L 3833759.00 6392916.00  z"/>
<path id="N" d="M 7000804.00 9113631.00 L 7012037.00 9086512.00 L 7000804.00 9059393.00 L 6973685.00 9048160.00 L 6907084.00 9048160.00 L 6907084.00 8771653.00 L 6895851.00 8744534.00 L 6868732.00 8733301.00 L 6841613.00 8744534.00 L 6830380.00 8771653.00 L 6830380.00 9048160.00 L 6763779.00 9048160.00 L 6736660.00 9059393.00 L 6725427.00 9086512.00 L 6736660.00 9113631.00 L 6763779.00 9124864.00 L 6973685.00 9124864.00 L 7000804.00 9113631.00  z"/>
<path id="N" d="M 3755045.00 7259122.00 L 3761286.00 7244056.00 L 3761286.00 7204699.00 L 3755045.00 7189632.00 L 3676330.00 7110918.00 L 3661264.00 7104677.00 L 3646198.00 7110917.00 L 3639957.00 7125984.00 L 3646197.00 7141050.00 L 3692077.33 7186931.16 L 3685555.00 7189633.00 L 3679314.00 7204699.00 L 3679314.00 7244056.00 L 3685555.00 7259122.00 L 3700621.00 7265363.00 L 3739979.00 7265363.00 L 3755045.00 7259122.00  z"/>
<path id="N" d="M 3991189.00 6196129.00 L 3997430.00 6181063.00 L 3997430.00 6141706.00 L 3991189.00 6126639.00 L 3912474.00 6047925.00 L 3897408.00 6041684.00 L 3882342.00 6047924.00 L 3876101.00 6062991.00 L 3882341.00 6078057.00 L 3928221.33 6123938.16 L 3921699.00 6126640.00 L 3915458.00 6141706.00 L 3915458.00 6181063.00 L 3921699.00 6196129.00 L 3936765.00 6202370.00 L 3976123.00 6202370.00 L 3991189.00 6196129.00  z"/>
<path id="N" d="M 12716534.47 9488186.47 m -100354.75 0 a 100354.75 100354.75 0 1 1 200709.51 0a 100354.75 100354.75 0 1 1 -200709.51 0"/>
<path id="N" d="M 4187975.00 8282745.00 L 4194216.00 8267679.00 L 4194216.00 8228322.00 L 4187975.00 8213255.00 L 4109260.00 8134541.00 L 4094194.00 8128300.00 L 4079128.00 8134540.00 L 4072887.00 8149607.00 L 4079127.00 8164673.00 L 4125007.33 8210554.16 L 4118485.00 8213256.00 L 4112244.00 8228322.00 L 4112244.00 8267679.00 L 4118485.00 8282745.00 L 4133551.00 8288986.00 L 4172909.00 8288986.00 L 4187975.00 8282745.00  z"/>
<path id="N" d="M 4187975.00 10251248.00 L 4194216.00 10236182.00 L 4194216.00 10196825.00 L 4187975.00 10181758.00 L 4109260.00 10103044.00 L 4094194.00 10096803.00 L 4079128.00 10103043.00 L 4072887.00 10118110.00 L 4079127.00 10133176.00 L 4125007.33 10179057.16 L 4118485.00 10181759.00 L 4112244.00 10196825.00 L 4112244.00 10236182.00 L 4118485.00 10251248.00 L 4133551.00 10257489.00 L 4172909.00 10257489.00 L 4187975.00 10251248.00  z"/>
<path id="N" d="M 3991189.00 9266996.00 L 3997430.00 9251930.00 L 3997430.00 9212573.00 L 3991189.00 9197506.00 L 3912474.00 9118792.00 L 3897408.00 9112551.00 L 3882342.00 9118791.00 L 3876101.00 9133858.00 L 3882341.00 9148924.00 L 3928221.33 9194805.16 L 3921699.00 9197507.00 L 3915458.00 9212573.00 L 3915458.00 9251930.00 L 3921699.00 9266996.00 L 3936765.00 9273237.00 L 3976123.00 9273237.00 L 3991189.00 9266996.00  z"/>
<path id="N" d="M 3055724.00 10912023.00 L 3068205.00 10881890.00 L 3068205.00 5763780.00 L 3055724.00 5733647.00 L 3025591.00 5721166.00 L 966535.00 5721166.00 L 936402.00 5733647.00 L 923921.00 5763780.00 L 923921.00 10881890.00 L 936402.00 10912023.00 L 966535.00 10924504.00 L 3025591.00 10924504.00 L 3055724.00 10912023.00  zM 2982977.00 10839276.00 L 1009149.00 10839276.00 L 1009149.00 5806394.00 L 2982977.00 5806394.00 L 2982977.00 10839276.00  z"/>
<path id="N" d="M 11909447.47 5748031.47 m -100354.75 0 a 100354.75 100354.75 0 1 1 200709.51 0a 100354.75 100354.75 0 1 1 -200709.51 0"/>
<path id="N" d="M 12716534.47 11299210.47 m -100354.75 0 a 100354.75 100354.75 0 1 1 200709.51 0a 100354.75 100354.75 0 1 1 -200709.51 0"/>
<path id="N" d="M 3676330.00 9463783.00 L 3682571.00 9448717.00 L 3682571.00 9233880.00 L 3818693.00 9233880.00 L 3833759.00 9227639.00 L 3840000.00 9212573.00 L 3833759.00 9197507.00 L 3818693.00 9191266.00 L 3661264.00 9191266.00 L 3646198.00 9197507.00 L 3639957.00 9212573.00 L 3639957.00 9448717.00 L 3646198.00 9463783.00 L 3661264.00 9470024.00 L 3676330.00 9463783.00  z"/>
<path id="N" d="M 4620906.00 6392916.00 L 4627147.00 6377850.00 L 4627147.00 6163013.00 L 4763269.00 6163013.00 L 4778335.00 6156772.00 L 4784576.00 6141706.00 L 4778335.00 6126640.00 L 4763269.00 6120399.00 L 4605840.00 6120399.00 L 4590774.00 6126640.00 L 4584533.00 6141706.00 L 4584533.00 6377850.00 L 4590774.00 6392916.00 L 4605840.00 6399157.00 L 4620906.00 6392916.00  z"/>
<path id="N" d="M 4817692.00 8479532.00 L 4823933.00 8464466.00 L 4823933.00 8249629.00 L 4960055.00 8249629.00 L 4975121.00 8243388.00 L 4981362.00 8228322.00 L 4975121.00 8213256.00 L 4960055.00 8207015.00 L 4802626.00 8207015.00 L 4787560.00 8213256.00 L 4781319.00 8228322.00 L 4781319.00 8464466.00 L 4787560.00 8479532.00 L 4802626.00 8485773.00 L 4817692.00 8479532.00  z"/>
<path id="N" d="M 12313598.00 10817534.00 L 12326079.00 10787401.00 L 12313598.00 10757268.00 L 12283465.00 10744787.00 L 12011119.00 10744787.00 L 12011119.00 10472440.00 L 11998638.00 10442307.00 L 11968505.00 10429826.00 L 11938372.00 10442307.00 L 11925891.00 10472440.00 L 11925891.00 10787401.00 L 11938372.00 10817534.00 L 11968505.00 10830015.00 L 12283465.00 10830015.00 L 12313598.00 10817534.00  z"/>
<path id="N" d="M 12313598.00 12628558.00 L 12326079.00 12598425.00 L 12313598.00 12568292.00 L 12283465.00 12555811.00 L 12011119.00 12555811.00 L 12011119.00 12283464.00 L 11998638.00 12253331.00 L 11968505.00 12240850.00 L 11938372.00 12253331.00 L 11925891.00 12283464.00 L 11925891.00 12598425.00 L 11938372.00 12628558.00 L 11968505.00 12641039.00 L 12283465.00 12641039.00 L 12313598.00 12628558.00  z"/>
<path id="N" d="M 11998638.00 11762416.00 L 12011119.00 11732283.00 L 12011119.00 11459937.00 L 12283465.00 11459937.00 L 12313598.00 11447456.00 L 12326079.00 11417323.00 L 12313598.00 11387190.00 L 12283465.00 11374709.00 L 11968505.00 11374709.00 L 11938372.00 11387190.00 L 11925891.00 11417323.00 L 11925891.00 11732283.00 L 11938372.00 11762416.00 L 11968505.00 11774897.00 L 11998638.00 11762416.00  z"/>
<path id="N" d="M 11998638.00 9951392.00 L 12011119.00 9921259.00 L 12011119.00 9648913.00 L 12283465.00 9648913.00 L 12313598.00 9636432.00 L 12326079.00 9606299.00 L 12313598.00 9576166.00 L 12283465.00 9563685.00 L 11968505.00 9563685.00 L 11938372.00 9576166.00 L 11925891.00 9606299.00 L 11925891.00 9921259.00 L 11938372.00 9951392.00 L 11968505.00 9963873.00 L 11998638.00 9951392.00  z"/>
<path id="N" d="M 11614779.00 6230922.00 L 11627260.00 6200789.00 L 11627260.00 6115450.00 L 11712599.00 6115450.00 L 11742732.00 6102969.00 L 11755213.00 6072836.00 L 11742732.00 6042703.00 L 11712599.00 6030222.00 L 11584646.00 6030222.00 L 11554513.00 6042703.00 L 11542032.00 6072836.00 L 11542032.00 6200789.00 L 11554513.00 6230922.00 L 11584646.00 6243403.00 L 11614779.00 6230922.00  z"/>
<path id="N" d="M 13248637.00 6230922.00 L 13261118.00 6200789.00 L 13261118.00 6072836.00 L 13248637.00 6042703.00 L 13218504.00 6030222.00 L 13090551.00 6030222.00 L 13060418.00 6042703.00 L 13047937.00 6072836.00 L 13060418.00 6102969.00 L 13090551.00 6115450.00 L 13175890.00 6115450.00 L 13175890.00 6200789.00 L 13188371.00 6230922.00 L 13218504.00 6243403.00 L 13248637.00 6230922.00  z"/>
<path id="N" d="M 13248637.00 7736827.00 L 13261118.00 7706694.00 L 13261118.00 7578741.00 L 13248637.00 7548608.00 L 13218504.00 7536127.00 L 13188371.00 7548608.00 L 13175890.00 7578741.00 L 13175890.00 7664080.00 L 13090551.00 7664080.00 L 13060418.00 7676561.00 L 13047937.00 7706694.00 L 13060418.00 7736827.00 L 13090551.00 7749308.00 L 13218504.00 7749308.00 L 13248637.00 7736827.00  z"/>
<path id="N" d="M 11742732.00 7736827.00 L 11755213.00 7706694.00 L 11742732.00 7676561.00 L 11712599.00 7664080.00 L 11627260.00 7664080.00 L 11627260.00 7578741.00 L 11614779.00 7548608.00 L 11584646.00 7536127.00 L 11554513.00 7548608.00 L 11542032.00 7578741.00 L 11542032.00 7706694.00 L 11554513.00 7736827.00 L 11584646.00 7749308.00 L 11712599.00 7749308.00 L 11742732.00 7736827.00  z"/>
<path id="N" d="M 3479543.00 10251248.00 L 3485784.00 10236182.00 L 3485784.00 10196825.00 L 3479543.00 10181759.00 L 3464477.00 10175518.00 L 3425120.00 10175518.00 L 3410054.00 10181759.00 L 3403813.00 10196825.00 L 3403813.00 10236182.00 L 3410054.00 10251248.00 L 3425120.00 10257489.00 L 3464477.00 10257489.00 L 3479543.00 10251248.00  z"/>
<path id="N" d="M 6939582.00 2628558.00 L 6952063.00 2598425.00 L 6952063.00 2106299.00 L 6939582.00 2076166.00 L 6909449.00 2063685.00 L 6879316.00 2076166.00 L 6866835.00 2106299.00 L 6866835.00 2598425.00 L 6879316.00 2628558.00 L 6909449.00 2641039.00 L 6939582.00 2628558.00  z"/>
<path id="N" d="M 9763228.00 12753386.00 L 9771154.00 12734252.00 L 9763228.00 12715118.00 L 9744094.00 12707192.00 L 8444882.00 12707192.00 L 8425748.00 12715118.00 L 8417822.00 12734252.00 L 8425748.00 12753386.00 L 8444882.00 12761312.00 L 9744094.00 12761312.00 L 9763228.00 12753386.00  z"/>
<path id="N" d="M 10286038.00 2628558.00 L 10298519.00 2598425.00 L 10298519.00 2106299.00 L 10286038.00 2076166.00 L 10255905.00 2063685.00 L 10225772.00 2076166.00 L 10213291.00 2106299.00 L 10213291.00 2598425.00 L 10225772.00 2628558.00 L 10255905.00 2641039.00 L 10286038.00 2628558.00  z"/>
<path id="N" d="M 9763228.00 7556535.00 L 9771154.00 7537401.00 L 9763228.00 7518267.00 L 9744094.00 7510341.00 L 8444882.00 7510341.00 L 8425748.00 7518267.00 L 8417822.00 7537401.00 L 8425748.00 7556535.00 L 8444882.00 7564461.00 L 9744094.00 7564461.00 L 9763228.00 7556535.00  z"/>
<path id="N" d="M 8573440.00 5817535.00 L 8585921.00 5787402.00 L 8573440.00 5757269.00 L 8543307.00 5744788.00 L 8503937.00 5744788.00 L 8473804.00 5757269.00 L 8461323.00 5787402.00 L 8473804.00 5817535.00 L 8503937.00 5830016.00 L 8543307.00 5830016.00 L 8573440.00 5817535.00  z"/>
<path id="N" d="M 4492033.00 2195487.00 L 4504514.00 2165354.00 L 4492033.00 2135221.00 L 4461900.00 2122740.00 L 4199518.00 2122740.00 L 4169385.00 2135221.00 L 4156904.00 2165354.00 L 4169385.00 2195487.00 L 4199518.00 2207968.00 L 4461900.00 2207968.00 L 4492033.00 2195487.00  z"/>
<path id="N" d="M 9743543.00 11930552.00 L 9751469.00 11911418.00 L 9743543.00 11892284.00 L 9724409.00 11884358.00 L 8464567.00 11884358.00 L 8445433.00 11892284.00 L 8437507.00 11911418.00 L 8445433.00 11930552.00 L 8464567.00 11938478.00 L 9724409.00 11938478.00 L 9743543.00 11930552.00  z"/>
<path id="N" d="M 9743543.00 6733701.00 L 9751469.00 6714567.00 L 9743543.00 6695433.00 L 9724409.00 6687507.00 L 8464567.00 6687507.00 L 8445433.00 6695433.00 L 8437507.00 6714567.00 L 8445433.00 6733701.00 L 8464567.00 6741627.00 L 9724409.00 6741627.00 L 9743543.00 6733701.00  z"/>
<path id="N" d="M 4542191.00 7377194.00 L 4548431.00 7362128.00 L 4542191.00 7347062.00 L 4384762.00 7189633.00 L 4369696.00 7183392.00 L 4354630.00 7189633.00 L 4348389.00 7204699.00 L 4354630.00 7219765.00 L 4512059.00 7377194.00 L 4527125.00 7383434.00 L 4542191.00 7377194.00  z"/>
<path id="N" d="M 8022259.00 5620684.00 L 8034740.00 5590551.00 L 8034740.00 5433071.00 L 8022259.00 5402938.00 L 7992126.00 5390457.00 L 7961993.00 5402938.00 L 7949512.00 5433071.00 L 7949512.00 5590551.00 L 7961993.00 5620684.00 L 7992126.00 5633165.00 L 8022259.00 5620684.00  z"/>
<path id="N" d="M 8691550.00 5266354.00 L 8704031.00 5236221.00 L 8691550.00 5206088.00 L 8661417.00 5193607.00 L 8503937.00 5193607.00 L 8473804.00 5206088.00 L 8461323.00 5236221.00 L 8473804.00 5266354.00 L 8503937.00 5278835.00 L 8661417.00 5278835.00 L 8691550.00 5266354.00  z"/>
<path id="N" d="M 9203361.00 5620684.00 L 9215842.00 5590551.00 L 9215842.00 5433071.00 L 9203361.00 5402938.00 L 9173228.00 5390457.00 L 9143095.00 5402938.00 L 9130614.00 5433071.00 L 9130614.00 5590551.00 L 9143095.00 5620684.00 L 9173228.00 5633165.00 L 9203361.00 5620684.00  z"/>
<path id="N" d="M 9242732.00 5975015.00 L 9255213.00 5944882.00 L 9242732.00 5914749.00 L 9212599.00 5902268.00 L 9182466.00 5914749.00 L 9169985.00 5944882.00 L 9182466.00 5975015.00 L 9212599.00 5987496.00 L 9242732.00 5975015.00  z"/>
</g>
</svg>
