<svg width="42.00000236mm" height="42.00000236mm" viewBox="0 0 16535434 16535434"  version="1.1" xmlns="http://www.w3.org/2000/svg" xmlns:xlink="http://www.w3.org/1999/xlink">
<desc>
Origin 0 0 Bound 286220 50000 16535434 16535434
</desc>
<g fill-rule="evenodd" fill="rgb(0, 0, 255)" stroke="black" stroke-width="1" transform="translate(0, 16535434) scale(1, -1) translate(-286220, -50000)">
<path id="N" d="M 12935087.00 13788097.00 L 12927005.85 13777565.15 L 14336538.00 12368033.00 L 14355260.00 12322834.00 L 14355260.00 10629921.00 L 14336538.00 10584722.00 L 13954648.00 10202832.00 L 13909449.00 10184110.00 L 12202755.00 10184110.00 L 12202755.00 10062992.00 L 11612205.00 10062992.00 L 11612205.00 10417322.00 L 12202755.00 10417322.00 L 12202755.00 10311952.00 L 13882972.00 10311952.00 L 14227418.00 10656398.00 L 14227418.00 12296357.00 L 12836608.21 13687166.79 L 12826077.00 13679086.00 A 297823.01 297823.01 0 1 0 12935087.00 13788097.00  zM 12677165.36 13937008.47 m -200706.53 0 a 200706.53 200706.53 0 1 1 401413.05 0a 200706.53 200706.53 0 1 1 -401413.05 0"/>
<path id="N" d="M 5312991.00 9345459.00 L 5602773.26 9345459.00 L 5623508.00 9376492.00 A 120431.73 120431.73 0 1 0 5623508.00 9206186.00 L 5602773.26 9237219.00 L 5312991.00 9237219.00 L 5312991.00 9062992.00 L 4722441.00 9062992.00 L 4722441.00 9417322.00 L 5312991.00 9417322.00 L 5312991.00 9345459.00  z"/>
<path id="N" d="M 9575579.00 2125985.00 L 8851171.00 2125985.00 L 8851171.00 2834645.00 L 9575579.00 2834645.00 L 9575579.00 2125985.00  z"/>
<path id="N" d="M 5312991.00 12062992.00 L 4722441.00 12062992.00 L 4722441.00 12186037.00 L 2971235.02 12186037.00 L 2061994.00 11276795.02 L 2061994.00 10078740.00 L 2046141.29 10040470.29 L 1790238.00 9784566.00 L 1751966.59 9768715.00 L 1262575.08 9768715.00 L 1096640.00 9602779.08 L 1096640.00 8798795.97 L 1307717.70 8587717.80 L 1332260.00 8606550.00 A 327604.72 327604.72 0 1 0 1212348.00 8486638.00 L 1231180.20 8511180.30 L 1004251.00 8738109.00 L 988400.00 8776380.41 L 988399.00 9625197.00 L 1004251.00 9663466.00 L 1201889.00 9861104.00 L 1240158.00 9876955.00 L 1729551.06 9876955.00 L 1953754.00 10101157.06 L 1953753.00 11299213.00 L 1969605.00 11337482.00 L 2910549.00 12278426.00 L 2948820.41 12294277.00 L 4722441.00 12294277.00 L 4722441.00 12417322.00 L 5312991.00 12417322.00 L 5312991.00 12062992.00  zM 1496064.22 8322831.65 m -220780.35 0 a 220780.35 220780.35 0 1 1 441560.70 0a 220780.35 220780.35 0 1 1 -441560.70 0"/>
<path id="N" d="M 10389763.00 5452756.00 L 10035433.00 5452756.00 L 10035433.00 6043306.00 L 10389763.00 6043306.00 L 10389763.00 5452756.00  z"/>
<path id="N" d="M 10386848.00 8628761.00 L 10389165.21 8617112.00 L 11127736.82 8617112.00 L 11135319.00 8628460.00 A 120431.73 120431.73 0 1 0 11109215.00 8497223.00 L 11106897.79 8508872.00 L 10368326.18 8508872.00 L 10360744.00 8497524.00 A 120431.73 120431.73 0 1 0 10386848.00 8628761.00  z"/>
<path id="N" d="M 12809519.00 15417726.00 L 13484949.00 14966418.00 L 14112892.00 14451079.00 L 14687299.00 13876672.00 L 15202638.00 13248729.00 L 15653946.00 12573299.00 L 16036878.00 11856884.00 L 16347744.00 11106386.00 L 16583552.00 10329031.00 L 16681515.00 9836541.00 L 16579165.00 9745672.00 L 16377952.00 9745672.00 L 16377952.00 9645672.00 L 16515747.00 9645672.00 L 16515747.00 9468507.00 L 16615747.00 9468507.00 L 16615747.00 9561766.00 L 16733857.00 9573399.00 L 16742031.00 9532306.00 L 16821654.00 8723883.00 L 16821653.00 7911550.00 L 16749354.00 7177481.00 L 16733857.00 7162788.00 L 16615747.00 7213564.00 L 16615747.00 7540942.00 L 16507652.00 7540942.00 L 16476241.00 7616019.00 L 16471443.00 7659052.00 L 16523488.00 7711097.00 L 16550202.00 7775591.00 L 16441173.41 7775591.00 L 16431404.00 7760969.44 L 16431404.00 7440942.00 L 16515747.00 7440942.00 L 16515747.00 6968502.00 L 16419250.00 6968502.00 L 16419250.00 6868502.00 L 16574937.00 6868502.00 L 16676906.00 6775725.00 L 16583552.00 6306402.00 L 16347744.00 5529047.00 L 16036878.00 4778549.00 L 15653946.00 4062134.00 L 15202638.00 3386704.00 L 14687299.00 2758761.00 L 14112892.00 2184354.00 L 13484949.00 1669015.00 L 12809519.00 1217707.00 L 12093104.00 834775.00 L 11342606.00 523909.00 L 10565251.00 288101.00 L 9768526.00 129622.00 L 8960103.00 50000.00 L 8147770.00 50000.00 L 7339347.00 129622.00 L 6542622.00 288101.00 L 5765267.00 523909.00 L 5014769.00 834775.00 L 4298354.00 1217707.00 L 3622924.00 1669015.00 L 2994981.00 2184354.00 L 2420574.00 2758761.00 L 1905235.00 3386704.00 L 1453927.00 4062134.00 L 1070995.00 4778549.00 L 760129.00 5529047.00 L 524321.00 6306402.00 L 365842.00 7103127.00 L 286220.00 7911550.00 L 286220.00 8723883.00 L 365842.00 9532306.00 L 524321.00 10329031.00 L 760129.00 11106386.00 L 1070995.00 11856884.00 L 1453927.00 12573299.00 L 1905235.00 13248729.00 L 2420574.00 13876672.00 L 2994981.00 14451079.00 L 3622924.00 14966418.00 L 4298354.00 15417726.00 L 4715952.00 15640937.00 L 4834063.00 15570144.00 L 4834063.00 13251968.00 L 4859026.00 13191703.00 L 4919291.00 13166740.00 L 12005905.00 13166740.00 L 12066170.00 13191703.00 L 12091133.00 13251968.00 L 12091133.00 15667787.00 L 12147126.00 15719615.00 L 12195352.00 15746005.00 L 12809519.00 15417726.00  zM 3748819.41 3169291.00 L 3643405.01 3169291.00 L 3679357.00 3082495.00 L 3751787.00 3010065.00 L 3838583.00 2974113.01 L 3838583.00 3079527.41 L 3784101.00 3114809.00 L 3749295.00 3166900.00 L 3748819.41 3169291.00  zM 4151870.99 3169291.00 L 4046456.59 3169291.00 L 4011175.00 3114809.00 L 3956693.00 3079527.41 L 3956693.00 2974113.01 L 4043489.00 3010065.00 L 4115919.00 3082495.00 L 4151870.99 3169291.00  zM 4614961.41 3169291.00 L 4509547.01 3169291.00 L 4545499.00 3082495.00 L 4617929.00 3010065.00 L 4704725.00 2974113.01 L 4704725.00 3079527.41 L 4650243.00 3114809.00 L 4615437.00 3166900.00 L 4614961.41 3169291.00  zM 6681184.00 1504922.00 L 6579225.00 1504922.00 L 6579225.00 1406497.00 L 6602264.00 1290672.00 L 6667874.00 1192480.00 L 6766066.00 1126870.00 L 6822836.01 1115577.76 L 6822836.00 1217536.87 L 6805084.00 1221068.00 A 200709.51 200709.51 0 0 0 6681184.00 1406497.00 L 6681184.00 1504922.00  zM 6822835.99 2012376.24 L 6766066.00 2001084.00 L 6667874.00 1935474.00 L 6602264.00 1837282.00 L 6579225.00 1721457.00 L 6579225.00 1623032.00 L 6681184.00 1623032.00 L 6681184.00 1721457.00 A 200706.53 200706.53 0 0 0 6805084.00 1906886.00 L 6822836.00 1910417.12 L 6822835.99 2012376.24  zM 5018012.99 3169291.00 L 4912598.59 3169291.00 L 4877317.00 3114809.00 L 4822835.00 3079527.41 L 4822835.00 2974113.01 L 4909631.00 3010065.00 L 4982061.00 3082495.00 L 5018012.99 3169291.00  zM 7184557.00 1504922.00 L 7082598.00 1504922.00 L 7082598.00 1406497.00 A 200706.53 200706.53 0 0 0 6958698.00 1221068.00 L 6940946.00 1217536.88 L 6940946.01 1115577.76 L 6997716.00 1126870.00 L 7095908.00 1192480.00 L 7161518.00 1290672.00 L 7184557.00 1406497.00 L 7184557.00 1504922.00  zM 6761467.00 1721457.00 L 6761467.00 1406497.00 A 120431.73 120431.73 0 0 1 7002315.00 1406497.00 L 7002315.00 1721457.00 A 120431.73 120431.73 0 1 1 6761467.00 1721457.00  zM 6940945.99 2012376.24 L 6940946.00 1910417.13 L 6958698.00 1906886.00 A 200709.51 200709.51 0 0 0 7082598.00 1721457.00 L 7082598.00 1623032.00 L 7184557.00 1623032.00 L 7184557.00 1721457.00 L 7161518.00 1837282.00 L 7095908.00 1935474.00 L 6997716.00 2001084.00 L 6940945.99 2012376.24  zM 6681184.00 3150591.00 L 6579225.00 3150591.00 L 6579225.00 2993110.00 L 6602264.00 2877285.00 L 6667874.00 2779093.00 L 6766066.00 2713483.00 L 6822836.01 2702190.76 L 6822836.00 2804149.87 L 6805084.00 2807681.00 A 200709.51 200709.51 0 0 0 6681184.00 2993110.00 L 6681184.00 3150591.00  zM 6943902.28 3838583.00 L 6834873.41 3838583.00 L 6817436.00 3812485.00 A 120431.73 120431.73 0 0 0 6647130.00 3812485.00 L 6629692.59 3838583.00 L 6520663.72 3838583.00 L 6547378.00 3774089.00 L 6594567.79 3726899.21 L 6609126.27 3709680.47 L 6626109.36 3577693.99 L 6602264.00 3542007.00 L 6579225.00 3426182.00 L 6579225.00 3268701.00 L 6681184.00 3268701.00 L 6681184.00 3426182.00 A 200706.53 200706.53 0 1 0 7082598.00 3426182.00 L 7082598.00 2993110.00 A 200706.53 200706.53 0 0 0 6958698.00 2807681.00 L 6940946.00 2804149.88 L 6940946.01 2702190.76 L 6997716.00 2713483.00 L 7095908.00 2779093.00 L 7154067.42 2866134.45 L 7204772.83 2879109.75 L 7282961.66 2882409.34 L 7327801.00 2837570.00 L 7403769.00 2806103.00 L 7485996.19 2806103.00 L 7590552.00 2721569.22 L 7590552.00 2047245.00 L 8472440.00 2047245.00 L 8472440.00 2913385.00 L 7690529.37 2913385.00 L 7651576.00 2971682.85 A 210741.13 210741.13 0 0 1 7327801.00 3188022.00 L 7302667.42 3162888.42 L 7184557.00 3209571.79 L 7184557.00 3426182.00 L 7161518.00 3542007.00 L 7095908.00 3640199.00 L 7005000.03 3700941.95 L 6996955.85 3707642.81 L 6943272.63 3837062.90 L 6943902.28 3838583.00  zM 7669292.00 1240157.98 L 7569292.00 1240157.98 L 7569292.00 844883.00 L 7972441.02 844883.00 L 7972441.02 944883.00 L 7669292.00 944883.00 L 7669292.00 1240157.98  zM 7972440.98 1753543.00 L 7569292.00 1753543.00 L 7569292.00 1358267.98 L 7669292.00 1358267.98 L 7669292.00 1653543.00 L 7972440.98 1653543.00 L 7972440.98 1753543.00  zM 8493700.00 1753543.00 L 8090550.98 1753543.00 L 8090550.98 1653543.00 L 8393700.00 1653543.00 L 8393700.00 1358268.02 L 8493700.00 1358268.02 L 8493700.00 1753543.00  zM 8493700.00 1240158.02 L 8393700.00 1240158.02 L 8393700.00 944883.00 L 8090551.02 944883.00 L 8090551.02 844883.00 L 8493700.00 844883.00 L 8493700.00 1240158.02  zM 9154319.98 1753543.00 L 8751171.00 1753543.00 L 8751171.00 1358267.98 L 8851171.00 1358267.98 L 8851171.00 1653543.00 L 9154319.98 1653543.00 L 9154319.98 1753543.00  zM 8851171.00 1240157.98 L 8751171.00 1240157.98 L 8751171.00 844883.00 L 9154320.02 844883.00 L 9154320.02 944883.00 L 8851171.00 944883.00 L 8851171.00 1240157.98  zM 9675579.00 1240158.02 L 9575579.00 1240158.02 L 9575579.00 944883.00 L 9272430.02 944883.00 L 9272430.02 844883.00 L 9675579.00 844883.00 L 9675579.00 1240158.02  zM 9675579.00 1753543.00 L 9272429.98 1753543.00 L 9272429.98 1653543.00 L 9575579.00 1653543.00 L 9575579.00 1358268.02 L 9675579.00 1358268.02 L 9675579.00 1753543.00  zM 10082758.00 1504922.00 L 9980799.00 1504922.00 L 9980799.00 1406497.00 L 10003838.00 1290672.00 L 10069448.00 1192480.00 L 10167640.00 1126870.00 L 10224410.01 1115577.76 L 10224410.00 1217536.87 L 10206658.00 1221068.00 A 200709.51 200709.51 0 0 0 10082758.00 1406497.00 L 10082758.00 1504922.00  zM 10224409.99 2012376.24 L 10167640.00 2001084.00 L 10069448.00 1935474.00 L 10003838.00 1837282.00 L 9980799.00 1721457.00 L 9980799.00 1623032.00 L 10082758.00 1623032.00 L 10082758.00 1721457.00 A 200706.53 200706.53 0 0 0 10206658.00 1906886.00 L 10224410.00 1910417.12 L 10224409.99 2012376.24  zM 10723430.28 3877953.00 L 10614401.41 3877953.00 L 10596964.00 3851855.00 A 120431.73 120431.73 0 0 0 10426658.00 3851855.00 L 10409220.59 3877953.00 L 10300191.72 3877953.00 L 10314640.22 3843071.22 L 10304537.56 3806056.82 L 10276739.94 3753304.69 L 10250951.04 3722380.58 L 10167640.00 3705809.00 L 10069448.00 3640199.00 L 10003838.00 3542007.00 L 9980799.00 3426182.00 L 9980799.00 3209571.79 L 9862688.58 3162888.42 L 9837555.00 3188022.00 A 210742.22 210742.22 0 0 1 9513780.00 2971682.85 L 9474826.63 2913385.00 L 8772431.00 2913385.00 L 8772431.00 2047245.00 L 9654319.00 2047245.00 L 9654319.00 2789371.24 L 9679359.85 2806103.00 L 9761587.00 2806103.00 L 9837555.00 2837570.00 L 9882394.34 2882409.34 L 9960583.17 2879109.75 L 10011288.58 2866134.45 L 10069448.00 2779093.00 L 10167640.00 2713483.00 L 10224410.01 2702190.76 L 10224410.00 2804149.87 L 10206658.00 2807681.00 A 200709.51 200709.51 0 0 0 10082758.00 2993110.00 L 10082758.00 3426182.00 A 200706.53 200706.53 0 1 0 10484172.00 3426182.00 L 10484172.00 3268701.00 L 10586131.00 3268701.00 L 10586131.00 3426182.00 L 10563092.00 3542007.00 L 10523815.97 3600787.54 L 10539045.36 3658107.89 L 10565809.21 3719016.11 L 10571595.58 3725690.93 L 10635360.00 3752103.00 L 10696716.00 3813459.00 L 10723430.28 3877953.00  zM 1865913.59 4822835.00 L 1756884.72 4822835.00 L 1783599.00 4758341.00 L 1844955.00 4696985.00 L 1909449.00 4670270.72 L 1909449.00 4779299.59 L 1883351.00 4796737.00 L 1865913.59 4822835.00  zM 2180123.28 4822835.00 L 2071094.41 4822835.00 L 2053657.00 4796737.00 L 2027559.00 4779299.59 L 2027559.00 4670270.72 L 2092053.00 4696985.00 L 2153409.00 4758341.00 L 2180123.28 4822835.00  zM 1909449.00 5093509.28 L 1844955.00 5066795.00 L 1783599.00 5005439.00 L 1756884.72 4940945.00 L 1865913.59 4940945.00 L 1883351.00 4967043.00 L 1909449.00 4984480.41 L 1909449.00 5093509.28  zM 2027559.00 5093509.28 L 2027559.00 4984480.41 L 2053657.00 4967043.00 L 2071094.41 4940945.00 L 2180123.28 4940945.00 L 2153409.00 5005439.00 L 2092053.00 5066795.00 L 2027559.00 5093509.28  zM 3838583.00 3482578.99 L 3751787.00 3446627.00 L 3679357.00 3374197.00 L 3643405.01 3287401.00 L 3748819.41 3287401.00 L 3784101.00 3341883.00 L 3838583.00 3377164.59 L 3838583.00 3482578.99  zM 3956693.00 3482578.99 L 3956693.00 3377164.59 L 4011175.00 3341883.00 L 4046456.59 3287401.00 L 4151870.99 3287401.00 L 4115919.00 3374197.00 L 4043489.00 3446627.00 L 3956693.00 3482578.99  zM 4461572.71 12691985.00 L 4351308.19 12691985.00 L 4337122.00 12670753.00 L 4311024.00 12653315.59 L 4311024.00 12544286.72 L 4375518.00 12571001.00 L 4436874.00 12632357.00 L 4461572.71 12691985.00  zM 4149378.59 12696851.00 L 4040349.72 12696851.00 L 4067064.00 12632357.00 L 4128420.00 12571001.00 L 4192914.00 12544286.72 L 4192914.00 12653315.59 L 4166816.00 12670753.00 L 4149378.59 12696851.00  zM 4192914.00 12967525.28 L 4128420.00 12940811.00 L 4067064.00 12879455.00 L 4040349.72 12814961.00 L 4149378.59 12814961.00 L 4166816.00 12841059.00 L 4192914.00 12858496.41 L 4192914.00 12967525.28  zM 4311024.00 12967525.28 L 4311024.00 12858496.41 L 4337122.00 12841059.00 L 4351308.19 12819827.00 L 4461572.71 12819827.00 L 4436874.00 12879455.00 L 4375518.00 12940811.00 L 4311024.00 12967525.28  zM 4704725.00 3482578.99 L 4617929.00 3446627.00 L 4545499.00 3374197.00 L 4509547.01 3287401.00 L 4614961.41 3287401.00 L 4650243.00 3341883.00 L 4704725.00 3377164.59 L 4704725.00 3482578.99  zM 4822835.00 3482578.99 L 4822835.00 3377164.59 L 4877317.00 3341883.00 L 4912598.59 3287401.00 L 5018012.99 3287401.00 L 4982061.00 3374197.00 L 4909631.00 3446627.00 L 4822835.00 3482578.99  zM 6673228.00 4109257.28 L 6608734.00 4082543.00 L 6547378.00 4021187.00 L 6520663.72 3956693.00 L 6629692.59 3956693.00 L 6647130.00 3982791.00 L 6673228.00 4000228.41 L 6673228.00 4109257.28  zM 4958660.98 13017322.00 L 4622441.00 13017322.00 L 4622440.86 12819827.00 L 4722441.00 12819827.00 L 4722441.00 12917322.00 L 4958660.98 12917322.00 L 4958660.98 13017322.00  zM 5412991.00 13017322.00 L 5076770.98 13017322.00 L 5076770.98 12917322.00 L 5312991.00 12917322.00 L 5312991.00 12799212.03 L 5412991.00 12799212.03 L 5412991.00 13017322.00  zM 6761467.00 3426181.00 L 6761467.00 2993111.00 A 120431.73 120431.73 0 1 1 7002315.00 2993111.00 L 7002315.00 3426181.00 A 120431.73 120431.73 0 1 1 6761467.00 3426181.00  zM 6791338.00 4109257.28 L 6791338.00 4000228.41 L 6817436.00 3982791.00 L 6834873.41 3956693.00 L 6943902.28 3956693.00 L 6917188.00 4021187.00 L 6855832.00 4082543.00 L 6791338.00 4109257.28  zM 8442912.98 10529133.00 L 8224803.00 10529133.00 L 8224803.00 10311022.98 L 8324803.00 10311022.98 L 8324803.00 10429133.00 L 8442912.98 10429133.00 L 8442912.98 10529133.00  zM 8324803.00 9090550.98 L 8224803.00 9090550.98 L 8224803.00 8872441.00 L 8442913.02 8872441.00 L 8442913.02 8972441.00 L 8324803.00 8972441.00 L 8324803.00 9090550.98  zM 13853924.00 14311023.00 L 13705132.00 14311023.00 L 13567666.00 14254082.00 L 13462454.00 14148870.00 L 13405513.00 14011404.00 L 13405513.00 13862612.00 L 13462454.00 13725146.00 L 13567666.00 13619934.00 L 13630380.00 13593957.00 L 13630380.00 13349039.00 L 13521260.00 13303840.00 L 13025203.00 13799898.00 L 13051180.00 13862612.00 L 13051180.00 14011404.00 L 12994239.00 14148870.00 L 12889027.00 14254082.00 L 12751561.00 14311023.00 L 12602769.00 14311023.00 L 12465303.00 14254082.00 L 12360091.00 14148870.00 L 12303150.00 14011404.00 L 12303150.00 13862612.00 L 12360091.00 13725146.00 L 12465303.00 13619934.00 L 12602769.00 13562993.00 L 12751561.00 13562993.00 L 12814275.00 13588970.00 L 14142191.00 12261055.00 L 14142191.00 10691701.00 L 13847669.00 10397179.00 L 12281495.00 10397179.00 L 12281495.00 11059521.00 L 12716535.00 11059521.00 L 12716535.00 10748031.00 L 13661417.00 10748031.00 L 13661417.00 11692913.00 L 12716535.00 11692913.00 L 12716535.00 11420793.00 L 12281495.00 11420793.00 L 12281495.00 12462992.00 L 12302755.00 12462992.00 L 12302755.00 12662415.00 L 12202755.00 12662415.00 L 12202755.00 12562992.00 L 11612205.00 12562992.00 L 11612205.00 12917322.00 L 11848425.00 12917322.00 L 11848425.00 13017322.00 L 11512205.00 13017322.00 L 11512205.00 12755840.00 L 11403085.00 12710641.00 L 11206718.00 12907008.00 L 11190504.00 12946153.00 A 200702.40 200702.40 0 1 1 10912115.00 12667764.00 L 10951260.00 12651550.00 L 11411641.00 12191169.00 L 11470243.00 12152012.00 L 11533465.00 12139437.00 L 11533465.00 11879504.00 L 11272900.00 11879504.00 L 11253239.00 11899165.00 A 200711.42 200711.42 0 0 1 10944882.00 11771439.00 L 10944882.00 11732499.00 L 10019577.00 10807194.00 L 9978763.00 10708661.00 L 9978763.00 10579451.00 L 9881494.00 10529133.00 L 9663385.00 10529133.00 L 9663385.00 10429133.00 L 9781495.00 10429133.00 L 9781495.00 10074803.00 L 9427165.00 10074803.00 L 9427165.00 10429133.00 L 9545275.00 10429133.00 L 9545275.00 10529133.00 L 9112204.00 10529133.00 L 9112204.00 10429133.00 L 9230314.00 10429133.00 L 9230314.00 10074803.00 L 8875984.00 10074803.00 L 8875984.00 10429133.00 L 8994094.00 10429133.00 L 8994094.00 10529133.00 L 8561023.00 10529133.00 L 8561023.00 10429133.00 L 8679133.00 10429133.00 L 8679133.00 10074803.00 L 8324803.00 10074803.00 L 8324803.00 10192913.00 L 8224803.00 10192913.00 L 8224803.00 9759842.00 L 8324803.00 9759842.00 L 8324803.00 9877952.00 L 8679133.00 9877952.00 L 8679133.00 9523622.00 L 8324803.00 9523622.00 L 8324803.00 9641732.00 L 8224803.00 9641732.00 L 8224803.00 9208661.00 L 8324803.00 9208661.00 L 8324803.00 9326771.00 L 8679133.00 9326771.00 L 8679133.00 8972441.00 L 8561023.00 8972441.00 L 8561023.00 8872441.00 L 8954127.00 8872441.00 L 8999326.00 8763321.00 L 8838475.00 8602470.00 L 8797661.00 8503937.00 L 8797661.00 7852994.00 L 8682439.00 7737772.00 L 7383136.00 7737772.00 L 7355601.00 7765307.00 A 200711.42 200711.42 0 0 1 7047244.00 7637581.00 L 7047244.00 7608194.00 L 6929134.00 7559271.00 L 6596040.00 7892365.00 L 6596040.00 8695271.00 L 6601131.00 8697380.00 A 240845.72 240845.72 0 0 1 6601131.00 9097896.00 L 6596040.00 9100005.00 L 6596040.00 10708662.00 L 6555226.00 10807195.00 L 6015857.00 11346564.00 L 5917324.00 11387378.00 L 5391731.00 11387378.00 L 5391731.00 11600810.00 L 5675955.00 11600810.00 L 5774488.00 11641624.00 L 5865148.00 11732284.00 L 5905298.00 11732284.00 A 200702.40 200702.40 0 1 1 5669292.00 11968290.00 L 5669292.00 11930560.00 L 5618236.00 11879504.00 L 5391731.00 11879504.00 L 5391731.00 12462992.00 L 5412991.00 12462992.00 L 5412991.00 12681102.00 L 5312991.00 12681102.00 L 5312991.00 12562992.00 L 4722441.00 12562992.00 L 4722441.00 12681102.00 L 4622441.00 12681102.00 L 4622441.00 12462993.00 L 4538912.00 12379504.00 L 2948818.00 12379504.00 L 2850285.00 12338690.00 L 1909341.00 11397746.00 L 1868527.00 11299213.00 L 1868527.00 10688100.00 L 1750417.00 10639177.00 L 1724652.00 10664942.00 L 1576333.00 10726378.00 L 1415793.00 10726378.00 L 1267474.00 10664942.00 L 1153956.00 10551424.00 L 1092520.00 10403105.00 L 1092520.00 10242565.00 L 1153956.00 10094246.00 L 1182189.00 10066013.00 L 1154477.00 9926692.00 L 1141625.00 9921368.00 L 943987.00 9723730.00 L 903173.00 9625197.00 L 903173.00 8776378.00 L 943987.00 8677845.00 L 1129485.00 8492347.00 L 1092520.00 8403105.00 L 1092520.00 8242565.00 L 1153956.00 8094246.00 L 1267474.00 7980728.00 L 1415793.00 7919292.00 L 1576333.00 7919292.00 L 1687840.00 7965480.00 L 1754744.00 7865351.00 L 1604220.00 7714827.00 L 1576333.00 7726378.00 L 1415793.00 7726378.00 L 1267474.00 7664942.00 L 1153956.00 7551424.00 L 1092520.00 7403105.00 L 1092520.00 7242565.00 L 1153956.00 7094246.00 L 1267474.00 6980728.00 L 1415793.00 6919292.00 L 1576333.00 6919292.00 L 1724652.00 6980728.00 L 1838170.00 7094246.00 L 1899606.00 7242565.00 L 1899606.00 7403105.00 L 1836560.00 7553035.00 L 1978824.00 7695299.00 L 2130798.00 7695299.00 L 2179721.00 7577189.00 L 2153956.00 7551424.00 L 2092520.00 7403105.00 L 2092520.00 7242565.00 L 2148320.00 7107851.00 L 2104142.00 6989741.00 L 2023622.00 6989741.00 L 1925089.00 6948927.00 L 1665575.00 6689413.00 L 1576333.00 6726378.00 L 1415793.00 6726378.00 L 1267474.00 6664942.00 L 1153956.00 6551424.00 L 1092520.00 6403105.00 L 1092520.00 6242565.00 L 1153956.00 6094246.00 L 1267474.00 5980728.00 L 1415793.00 5919292.00 L 1576333.00 5919292.00 L 1724652.00 5980728.00 L 1838170.00 6094246.00 L 1899606.00 6242565.00 L 1899606.00 6403105.00 L 1862641.00 6492347.00 L 1974410.00 6604116.00 L 2092520.00 6555193.00 L 2092520.00 5919292.00 L 2899606.00 5919292.00 L 2899606.00 6151992.00 L 3771654.00 6151992.00 L 3870187.00 6192806.00 L 4278192.00 6600810.00 L 4643701.00 6600810.00 L 4643701.00 5984252.00 L 5391731.00 5984252.00 L 5391731.00 6199236.00 L 5870556.00 6199236.00 L 5956693.00 6122045.00 L 5956693.00 5374016.00 L 7606363.00 5374016.00 L 7629856.00 5255906.00 L 7605028.00 5245622.00 A 200702.40 200702.40 0 0 1 7605028.00 4911858.00 L 7614238.00 4908043.00 L 7644066.00 4836033.00 L 7972333.00 4507766.00 L 8070866.00 4466952.00 L 9488189.00 4466952.00 L 9586722.00 4507766.00 L 9919969.00 4841013.00 L 9967233.00 4793748.00 A 200711.42 200711.42 0 1 1 9965762.00 5126041.00 L 9868584.00 5126041.00 L 9770051.00 5085227.00 L 9430470.00 4745646.00 L 8128585.00 4745646.00 L 7890324.00 4983907.00 L 7913385.00 5039584.00 A 200711.42 200711.42 0 0 1 7828042.00 5245622.00 L 7803214.00 5255906.00 L 7826707.00 5374016.00 L 10435433.00 5374016.00 L 10435433.00 5352756.00 L 10653543.00 5352756.00 L 10653543.00 5452756.00 L 10535433.00 5452756.00 L 10535433.00 6043306.00 L 10889763.00 6043306.00 L 10889763.00 5807086.00 L 10989763.00 5807086.00 L 10989763.00 5981687.00 L 11098883.00 6026886.00 L 11248131.00 5877637.00 L 11220418.00 5738316.00 L 11215034.00 5736086.00 L 11153678.00 5674730.00 L 11126964.00 5610236.00 L 11235992.59 5610236.00 L 11253430.00 5636334.00 A 120431.73 120431.73 0 0 0 11423736.00 5636334.00 L 11441173.41 5610236.00 L 11551829.00 5610236.00 L 11625742.00 5726795.00 L 12283465.00 5726795.00 L 12381998.00 5767609.00 L 12539478.00 5925089.00 L 12580292.00 6023622.00 L 12580292.00 6280864.00 L 12774254.00 6474826.00 L 14276308.00 6474826.00 L 14301968.00 6464197.00 L 14507875.00 6464197.00 L 14507875.00 5866143.00 L 15059055.00 5866143.00 L 15059055.00 6732283.00 L 15049138.00 6732283.00 L 15000215.00 6850393.00 L 15215197.00 7065375.00 L 15374018.00 7065375.00 L 15374018.00 6889762.00 L 15891908.00 6889761.00 L 16001110.00 6822543.00 L 15994461.00 6753543.00 L 15707087.00 6753543.00 L 15707087.00 6358268.00 L 15807087.00 6358268.00 L 15807087.00 6653543.00 L 16092665.48 6653543.00 L 16102363.00 6655472.00 L 16162017.00 6655472.00 L 16218544.00 6711999.00 L 16218544.00 6968502.00 L 16122047.00 6968502.00 L 16122047.00 7440942.00 L 16230698.00 7440942.00 L 16230698.00 7775591.00 L 16126964.00 7775591.00 L 16153678.00 7711097.00 L 16205723.00 7659052.00 L 16200925.00 7616019.00 L 16169514.00 7540942.00 L 16022047.00 7540943.00 L 15926749.00 7596016.00 L 15926749.00 8973206.00 L 16033875.00 9044677.00 L 16066511.00 9033331.00 L 16118328.00 8917323.00 L 16235992.59 8917323.00 L 16238230.00 8920671.66 L 16238230.00 9173232.00 L 16122047.00 9173232.00 L 16122047.00 9645672.00 L 16259842.00 9645672.00 L 16259842.00 9745672.00 L 16022047.00 9745673.00 L 15912745.00 9724413.00 L 15374018.00 9724412.00 L 15374018.00 9325560.00 L 15364854.00 9321764.00 L 15355665.00 9312575.00 L 13170538.00 9312575.00 L 13143003.00 9340110.00 A 200711.42 200711.42 0 1 1 13143003.00 9006346.00 L 13170538.00 9033881.00 L 15413384.00 9033881.00 L 15511917.00 9074695.00 L 15529945.00 9092723.00 L 15648055.00 9090221.00 L 15648055.00 7519682.00 L 15374018.00 7519682.00 L 15374018.00 7344069.00 L 15157478.00 7344069.00 L 15058945.00 7303255.00 L 14665247.00 6909557.00 L 14624433.00 6811024.00 L 14624433.00 6742891.00 L 14316999.00 6742891.00 L 14291339.00 6753520.00 L 12716535.00 6753520.00 L 12618002.00 6712706.00 L 12399605.00 6494309.00 L 12281495.00 6543232.00 L 12281495.00 9598883.00 L 13687836.00 9598882.00 L 13793300.00 9642567.00 L 14593653.00 10442920.00 L 14637337.00 10548386.00 L 14637338.00 12404371.00 L 14593653.00 12509835.00 L 13928676.00 13174812.00 L 13928676.00 13593957.00 L 13991390.00 13619934.00 L 14096602.00 13725146.00 L 14153543.00 13862612.00 L 14153543.00 14011404.00 L 14096602.00 14148870.00 L 13991390.00 14254082.00 L 13853924.00 14311023.00  zM 10586131.00 1504922.00 L 10484172.00 1504922.00 L 10484172.00 1406497.00 A 200706.53 200706.53 0 0 0 10360272.00 1221068.00 L 10342520.00 1217536.88 L 10342520.01 1115577.76 L 10399290.00 1126870.00 L 10497482.00 1192480.00 L 10563092.00 1290672.00 L 10586131.00 1406497.00 L 10586131.00 1504922.00  zM 10163041.00 1721457.00 L 10163041.00 1406497.00 A 120431.73 120431.73 0 0 1 10403889.00 1406497.00 L 10403889.00 1721457.00 A 120431.73 120431.73 0 1 1 10163041.00 1721457.00  zM 11456693.00 1693127.00 L 11465375.00 1672166.26 L 11465375.00 1563353.00 L 11069369.96 1167347.96 L 11030225.00 1151134.00 A 200702.40 200702.40 0 1 1 11308614.00 872745.00 L 11324827.96 911889.96 L 11773740.00 1360802.00 L 11812897.00 1419404.00 L 11826647.00 1488531.00 L 11826647.00 1635797.62 L 11850393.00 1693127.00 A 200711.42 200711.42 0 1 1 11456693.00 1693127.00  zM 10342519.99 2012376.24 L 10342520.00 1910417.13 L 10360272.00 1906886.00 A 200709.51 200709.51 0 0 0 10484172.00 1721457.00 L 10484172.00 1623032.00 L 10586131.00 1623032.00 L 10586131.00 1721457.00 L 10563092.00 1837282.00 L 10497482.00 1935474.00 L 10399290.00 2001084.00 L 10342519.99 2012376.24  zM 10586131.00 3150591.00 L 10484172.00 3150591.00 L 10484172.00 2993110.00 A 200706.53 200706.53 0 0 0 10360272.00 2807681.00 L 10342520.00 2804149.88 L 10342520.01 2702190.76 L 10399290.00 2713483.00 L 10497482.00 2779093.00 L 10563092.00 2877285.00 L 10586131.00 2993110.00 L 10586131.00 3150591.00  zM 10163041.00 3426181.00 L 10163041.00 2993111.00 A 120431.73 120431.73 0 1 1 10403889.00 2993111.00 L 10403889.00 3426181.00 A 120431.73 120431.73 0 1 1 10163041.00 3426181.00  zM 13381483.00 2578739.00 L 13232691.00 2578739.00 L 13095225.00 2521798.00 L 12990013.00 2416586.00 L 12933072.00 2279120.00 L 12933072.00 2130328.00 L 12990013.00 1992862.00 L 13095225.00 1887650.00 L 13232691.00 1830709.00 L 13381483.00 1830709.00 L 13518949.00 1887650.00 L 13624161.00 1992862.00 L 13681102.00 2130328.00 L 13681102.00 2279120.00 L 13624161.00 2416586.00 L 13518949.00 2521798.00 L 13381483.00 2578739.00  zM 13040157.41 3248032.00 L 12934743.01 3248032.00 L 12970695.00 3161236.00 L 13043125.00 3088806.00 L 13129921.00 3052854.01 L 13129921.00 3158268.41 L 13075439.00 3193550.00 L 13040633.00 3245641.00 L 13040157.41 3248032.00  zM 13443208.99 3248032.00 L 13337794.59 3248032.00 L 13302513.00 3193550.00 L 13248031.00 3158268.41 L 13248031.00 3052854.01 L 13334827.00 3088806.00 L 13407257.00 3161236.00 L 13443208.99 3248032.00  zM 13129921.00 3561319.99 L 13043125.00 3525368.00 L 12970695.00 3452938.00 L 12934743.01 3366142.00 L 13040157.41 3366142.00 L 13075439.00 3420624.00 L 13129921.00 3455905.59 L 13129921.00 3561319.99  zM 13248031.00 3561319.99 L 13248031.00 3455905.59 L 13302513.00 3420624.00 L 13337794.59 3366142.00 L 13443208.99 3366142.00 L 13407257.00 3452938.00 L 13334827.00 3525368.00 L 13248031.00 3561319.99  zM 10452756.00 4148627.28 L 10388262.00 4121913.00 L 10326906.00 4060557.00 L 10300191.72 3996063.00 L 10409220.59 3996063.00 L 10426658.00 4022161.00 L 10452756.00 4039598.41 L 10452756.00 4148627.28  zM 10570866.00 4148627.28 L 10570866.00 4039598.41 L 10596964.00 4022161.00 L 10614401.41 3996063.00 L 10723430.28 3996063.00 L 10696716.00 4060557.00 L 10635360.00 4121913.00 L 10570866.00 4148627.28  zM 11550202.28 5492126.00 L 11441173.41 5492126.00 L 11423736.00 5466028.00 L 11397638.00 5448590.59 L 11397638.00 5339561.72 L 11462132.00 5366276.00 L 11523488.00 5427632.00 L 11550202.28 5492126.00  zM 10989763.00 5688976.02 L 10889763.00 5688976.02 L 10889763.00 5452756.00 L 10771653.03 5452756.00 L 10771653.03 5352756.00 L 10989763.00 5352756.00 L 10989763.00 5688976.02  zM 11235992.59 5492126.00 L 11126963.72 5492126.00 L 11153678.00 5427632.00 L 11215034.00 5366276.00 L 11279528.00 5339561.72 L 11279528.00 5448590.59 L 11253430.00 5466028.00 L 11235992.59 5492126.00  zM 12567716.41 7106299.00 L 12462302.01 7106299.00 L 12498254.00 7019503.00 L 12570684.00 6947073.00 L 12657480.00 6911121.01 L 12657480.00 7016535.41 L 12602998.00 7051817.00 L 12568192.00 7103908.00 L 12567716.41 7106299.00  zM 12970767.99 7106299.00 L 12865353.59 7106299.00 L 12830072.00 7051817.00 L 12775590.00 7016535.41 L 12775590.00 6911121.01 L 12862386.00 6947073.00 L 12934816.00 7019503.00 L 12970767.99 7106299.00  zM 15807087.00 6240157.98 L 15707087.00 6240157.97 L 15707087.00 5844883.00 L 15944882.04 5844883.00 L 15944882.03 5944883.00 L 15807087.00 5944883.00 L 15807087.00 6240157.98  zM 16300787.01 6240158.03 L 16200787.00 6240158.02 L 16200787.00 5944883.00 L 16062992.03 5944883.00 L 16062992.04 5844883.00 L 16300787.00 5844883.00 L 16300787.01 6240158.03  zM 16300787.00 6510402.00 L 16274544.00 6484159.00 L 16241988.00 6462405.00 L 16200787.00 6454766.00 L 16200787.00 6358268.00 L 16300787.00 6358268.00 L 16300787.00 6510402.00  zM 12657480.00 7419586.99 L 12570684.00 7383635.00 L 12498254.00 7311205.00 L 12462302.01 7224409.00 L 12567716.41 7224409.00 L 12602998.00 7278891.00 L 12657480.00 7314172.59 L 12657480.00 7419586.99  zM 12775590.00 7419586.99 L 12775590.00 7314172.59 L 12830072.00 7278891.00 L 12865353.59 7224409.00 L 12970767.99 7224409.00 L 12934816.00 7311205.00 L 12862386.00 7383635.00 L 12775590.00 7419586.99  zM 13086385.59 12657480.00 L 12977356.72 12657480.00 L 13004071.00 12592986.00 L 13065427.00 12531630.00 L 13129921.00 12504915.72 L 13129921.00 12613944.59 L 13103823.00 12631382.00 L 13086385.59 12657480.00  zM 13248031.00 12928154.28 L 13248031.00 12819125.41 L 13274129.00 12801688.00 L 13291566.41 12775590.00 L 13400595.28 12775590.00 L 13373881.00 12840084.00 L 13312525.00 12901440.00 L 13248031.00 12928154.28  zM 13400595.28 12657480.00 L 13291566.41 12657480.00 L 13274129.00 12631382.00 L 13248031.00 12613944.59 L 13248031.00 12504915.72 L 13312525.00 12531630.00 L 13373881.00 12592986.00 L 13400595.28 12657480.00  zM 16279528.00 8046265.28 L 16215034.00 8019551.00 L 16153678.00 7958195.00 L 16126963.72 7893701.00 L 16235992.59 7893701.00 L 16253430.00 7919799.00 L 16279528.00 7937236.41 L 16279528.00 8046265.28  zM 16397638.00 8046265.28 L 16397638.00 7937236.41 L 16423736.00 7919799.00 L 16441173.41 7893701.00 L 16550202.28 7893701.00 L 16523488.00 7958195.00 L 16462132.00 8019551.00 L 16397638.00 8046265.28  zM 16235992.59 8799213.00 L 16126963.72 8799213.00 L 16153678.00 8734719.00 L 16215034.00 8673363.00 L 16279528.00 8646648.72 L 16279528.00 8755677.59 L 16253430.00 8773115.00 L 16235992.59 8799213.00  zM 16550202.28 8799213.00 L 16441173.41 8799213.00 L 16423736.00 8773115.00 L 16397638.00 8755677.59 L 16397638.00 8646648.72 L 16462132.00 8673363.00 L 16523488.00 8734719.00 L 16550202.28 8799213.00  zM 16615747.00 9350397.00 L 16515747.00 9350397.00 L 16515747.00 9173232.00 L 16438936.00 9173232.00 L 16438936.00 8920671.66 L 16441173.41 8917323.00 L 16550202.00 8917323.00 L 16534546.00 8955121.00 L 16572016.00 9040482.00 L 16599106.00 9073232.00 L 16615747.00 9073232.00 L 16615747.00 9350397.00  zM 12302755.00 13017322.00 L 11966534.98 13017322.00 L 11966534.98 12917322.00 L 12202755.00 12917322.00 L 12202755.00 12799212.03 L 12302755.00 12799212.03 L 12302755.00 13017322.00  zM 12528346.41 13051181.00 L 12422932.01 13051181.00 L 12458884.00 12964385.00 L 12531314.00 12891955.00 L 12618110.00 12856003.01 L 12618110.00 12961417.41 L 12563628.00 12996699.00 L 12528822.00 13048790.00 L 12528346.41 13051181.00  zM 12618110.00 13364468.99 L 12531314.00 13328517.00 L 12458884.00 13256087.00 L 12422932.01 13169291.00 L 12528346.41 13169291.00 L 12563628.00 13223773.00 L 12618110.00 13259054.59 L 12618110.00 13364468.99  zM 12931397.99 13051181.00 L 12825983.59 13051181.00 L 12790702.00 12996699.00 L 12736220.00 12961417.41 L 12736220.00 12856003.01 L 12823016.00 12891955.00 L 12895446.00 12964385.00 L 12931397.99 13051181.00  zM 12736220.00 13364468.99 L 12736220.00 13259054.59 L 12790702.00 13223773.00 L 12825983.59 13169291.00 L 12931397.99 13169291.00 L 12895446.00 13256087.00 L 12823016.00 13328517.00 L 12736220.00 13364468.99  zM 13129921.00 12928154.28 L 13065427.00 12901440.00 L 13004071.00 12840084.00 L 12977356.72 12775590.00 L 13086385.59 12775590.00 L 13103823.00 12801688.00 L 13129921.00 12819125.41 L 13129921.00 12928154.28  zM 14665354.00 13364468.99 L 14578558.00 13328517.00 L 14506128.00 13256087.00 L 14470176.01 13169291.00 L 14575590.41 13169291.00 L 14610872.00 13223773.00 L 14665354.00 13259054.59 L 14665354.00 13364468.99  zM 14575590.41 13051181.00 L 14470176.01 13051181.00 L 14506128.00 12964385.00 L 14578558.00 12891955.00 L 14665354.00 12856003.01 L 14665354.00 12961417.41 L 14610872.00 12996699.00 L 14576066.00 13048790.00 L 14575590.41 13051181.00  zM 14978641.99 13051181.00 L 14873227.59 13051181.00 L 14837946.00 12996699.00 L 14783464.00 12961417.41 L 14783464.00 12856003.01 L 14870260.00 12891955.00 L 14942690.00 12964385.00 L 14978641.99 13051181.00  zM 14783464.00 13364468.99 L 14783464.00 13259054.59 L 14837946.00 13223773.00 L 14873227.59 13169291.00 L 14978641.99 13169291.00 L 14942690.00 13256087.00 L 14870260.00 13328517.00 L 14783464.00 13364468.99  z"/>
<path id="N" d="M 9993069.00 8651965.00 L 10078741.00 8585624.00 L 10078741.00 8543521.00 A 200702.40 200702.40 0 0 1 10387098.00 8415795.00 L 10394948.00 8423645.00 L 11061745.00 8423645.00 L 11108965.00 8376425.00 A 200711.42 200711.42 0 0 1 11417322.00 8504150.00 L 11533465.00 8499402.00 L 11533465.00 6153470.00 L 11415355.00 6104547.00 L 11082785.00 6437116.00 L 10984252.00 6477930.00 L 10963173.00 6477930.00 L 10917974.00 6587050.00 L 11023838.00 6692914.00 L 11062778.00 6692914.00 A 200702.40 200702.40 0 0 1 11190504.00 7001271.00 L 11182320.00 7009455.00 L 11148331.00 7086615.00 L 11182320.00 7163774.00 L 11190504.00 7171958.00 A 200711.42 200711.42 0 1 1 10826772.00 7322621.00 L 10826772.00 7283682.00 L 10493462.00 6950371.00 L 7538034.00 6950371.00 L 7204940.00 7283465.00 L 7253863.00 7401575.00 L 7283250.00 7401575.00 L 7355601.00 7431543.00 L 7383136.00 7459078.00 L 8740158.00 7459078.00 L 8838691.00 7499892.00 L 9035541.00 7696742.00 L 9076355.00 7795275.00 L 9076355.00 8446218.00 L 9270319.00 8640181.00 L 9921260.00 8640181.00 L 9969621.00 8660213.00 L 9993069.00 8651965.00  z"/>
<path id="N" d="M 4643701.00 11849078.00 L 4554140.00 11811980.00 L 3038976.00 10296816.00 L 2920866.00 10345739.00 L 2920866.00 10407333.00 L 2856193.00 10563466.00 L 2736694.00 10682965.00 L 2580561.00 10747638.00 L 2555118.00 10747638.00 L 2555118.00 10642666.22 L 2580854.00 10639278.00 A 327599.99 327599.99 0 1 0 2411272.00 10639278.00 L 2437008.00 10642666.22 L 2437008.00 10747638.00 L 2411565.00 10747638.00 L 2265331.00 10687066.00 L 2147221.00 10729073.00 L 2147221.00 11241494.00 L 3006537.00 12100810.00 L 4643701.00 12100810.00 L 4643701.00 11849078.00  zM 2496064.22 10322831.65 m -220780.35 0 a 220780.35 220780.35 0 1 1 441560.70 0a 220780.35 220780.35 0 1 1 -441560.70 0"/>
<path id="N" d="M 11533465.00 8980913.00 L 11417322.00 8976165.00 A 200703.68 200703.68 0 0 1 11108965.00 9103890.00 L 11081430.00 9076355.00 L 10727011.00 9076355.00 L 10572418.00 9230947.00 L 10572418.00 10018438.00 L 10599953.00 10045973.00 A 200711.42 200711.42 0 0 1 10393915.00 10354330.00 L 10375568.00 10346730.00 L 10259032.00 10413669.00 L 10257457.00 10415919.00 L 10257457.00 10650942.00 L 11141948.00 11535433.00 L 11180888.00 11535433.00 L 11253239.00 11565401.00 L 11288648.00 11600810.00 L 11533465.00 11600810.00 L 11533465.00 8980913.00  zM 10738630.00 10400304.00 L 10756364.00 10382570.00 L 10756364.00 9578060.00 L 10738630.00 9560326.00 A 200711.42 200711.42 0 1 1 11072394.00 9560326.00 L 11054660.00 9578060.00 L 11054660.00 10382570.00 L 11072394.00 10400304.00 A 200711.42 200711.42 0 1 1 10738630.00 10400304.00  z"/>
<path id="N" d="M 4643701.00 9988263.00 L 4643701.00 8879504.00 L 4173228.00 8879504.00 L 4074695.00 8838690.00 L 3643069.00 8407064.00 L 2897966.00 8407064.00 L 2838170.00 8551424.00 L 2724652.00 8664942.00 L 2576333.00 8726378.00 L 2415793.00 8726378.00 L 2267474.00 8664942.00 L 2153956.00 8551424.00 L 2092520.00 8403105.00 L 2092520.00 8242565.00 L 2153956.00 8094246.00 L 2156099.00 8092103.00 L 2107176.00 7973993.00 L 1921105.00 7973993.00 L 1859384.00 7948427.00 L 1792480.00 8048556.00 L 1838170.00 8094246.00 L 1899606.00 8242565.00 L 1899606.00 8403105.00 L 1838170.00 8551424.00 L 1724652.00 8664942.00 L 1576333.00 8726378.00 L 1415793.00 8726378.00 L 1326551.00 8689413.00 L 1211833.00 8804131.00 L 1222281.00 8890643.00 L 1335349.00 8952613.00 L 1415793.00 8919292.00 L 1576333.00 8919292.00 L 1724652.00 8980728.00 L 1838170.00 9094246.00 L 1899606.00 9242565.00 L 1899606.00 9403105.00 L 1894929.00 9414397.00 L 2021984.00 9541452.00 L 2122113.00 9474548.00 L 2092520.00 9403105.00 L 2092520.00 9242565.00 L 2153956.00 9094246.00 L 2267474.00 8980728.00 L 2415793.00 8919292.00 L 2576333.00 8919292.00 L 2724652.00 8980728.00 L 2838170.00 9094246.00 L 2862089.00 9151992.00 L 3582678.00 9151992.00 L 3681211.00 9192806.00 L 4525591.00 10037186.00 L 4643701.00 9988263.00  z"/>
<path id="N" d="M 5597154.00 9124457.00 L 5669505.00 9094489.00 L 5747817.00 9094489.00 L 5805535.00 9118396.00 L 5869555.00 9094123.00 L 5923645.00 9060901.00 L 5923645.00 8698656.00 L 5862734.00 8637745.00 A 240850.27 240850.27 0 0 1 5862734.00 8370129.00 L 5923645.00 8309218.00 L 5923645.00 7716536.00 L 5964459.00 7618003.00 L 6995412.00 6587050.00 L 6950213.00 6477930.00 L 5391731.00 6477930.00 L 5391731.00 9151992.00 L 5569619.00 9151992.00 L 5597154.00 9124457.00  z"/>
<path id="N" d="M 4643701.00 11340376.00 L 4643701.00 10379504.00 L 4531496.00 10379504.00 L 4432963.00 10338690.00 L 3524959.00 9430686.00 L 2888182.00 9430686.00 L 2838170.00 9551424.00 L 2797858.00 9591736.00 L 2796854.00 9598682.00 L 2832451.00 9724176.00 L 2880279.00 9743987.00 L 4525591.00 11389299.00 L 4643701.00 11340376.00  z"/>
<path id="N" d="M 9768526.00 16505811.00 L 10565251.00 16347332.00 L 11342606.00 16111524.00 L 11871826.00 15892314.00 L 11848332.00 15774204.00 L 5259541.00 15774204.00 L 5236047.00 15892314.00 L 5765267.00 16111524.00 L 6542622.00 16347332.00 L 7339347.00 16505811.00 L 8147770.00 16585434.00 L 8960103.00 16585434.00 L 9768526.00 16505811.00  z"/>
<path id="N" d="M 9781495.00 9523622.00 L 9427165.00 9523622.00 L 9427165.00 9877952.00 L 9781495.00 9877952.00 L 9781495.00 9523622.00  z"/>
<path id="N" d="M 9230314.00 8972441.00 L 8875984.00 8972441.00 L 8875984.00 9326771.00 L 9230314.00 9326771.00 L 9230314.00 8972441.00  z"/>
<path id="N" d="M 9781495.00 8972441.00 L 9427165.00 8972441.00 L 9427165.00 9326771.00 L 9781495.00 9326771.00 L 9781495.00 8972441.00  z"/>
<path id="N" d="M 9230314.00 9523622.00 L 8875984.00 9523622.00 L 8875984.00 9877952.00 L 9230314.00 9877952.00 L 9230314.00 9523622.00  z"/>
<path id="N" d="M 5312991.00 10294277.00 L 5538311.00 10294278.00 L 5576580.00 10278426.00 L 5736813.40 10118192.60 L 5748031.00 10120424.00 A 120431.73 120431.73 0 1 0 5636774.00 10046084.00 L 5644412.98 10057517.02 L 5515893.00 10186037.00 L 5312991.00 10186037.00 L 5312991.00 10062992.00 L 4722441.00 10062992.00 L 4722441.00 10186037.00 L 4553913.02 10186037.00 L 3620947.00 9253070.00 L 3582675.59 9237219.00 L 2812164.27 9237219.00 A 325889.76 325889.76 0 1 0 2812506.00 9407626.00 L 2820690.48 9345459.00 L 3560260.02 9345459.00 L 4493227.00 10278426.00 L 4531496.00 10294277.00 L 4722441.00 10294277.00 L 4722441.00 10417322.00 L 5312991.00 10417322.00 L 5312991.00 10294277.00  zM 2496064.22 9322831.65 m -220780.35 0 a 220780.35 220780.35 0 1 1 441560.70 0a 220780.35 220780.35 0 1 1 -441560.70 0"/>
<path id="N" d="M 5312991.00 7062992.00 L 4722441.00 7062992.00 L 4722441.00 7186037.00 L 4231079.00 7186037.00 L 3857167.00 6812125.00 L 3818895.59 6796274.00 L 2046040.00 6796274.00 L 1760946.02 6511180.02 L 1779778.00 6486638.00 A 327604.72 327604.72 0 1 0 1659866.00 6606550.00 L 1684408.02 6587718.02 L 1985353.00 6888663.00 L 2023622.00 6904514.00 L 3796480.00 6904514.00 L 4170392.00 7278426.00 L 4208661.00 7294277.00 L 4722441.00 7294277.00 L 4722441.00 7417322.00 L 5312991.00 7417322.00 L 5312991.00 7062992.00  zM 1496064.22 6322831.65 m -220780.35 0 a 220780.35 220780.35 0 1 1 441560.70 0a 220780.35 220780.35 0 1 1 -441560.70 0"/>
<path id="N" d="M 13307077.01 2204704.86 m -297844.08 0 a 297844.08 297844.08 0 1 1 595688.15 0a 297844.08 297844.08 0 1 1 -595688.15 0"/>
<path id="N" d="M 13856610.00 13649333.00 L 13843449.00 13647600.33 L 13843449.00 13139509.00 L 14533388.00 12449570.00 L 14552110.00 12404371.00 L 14552110.00 10548384.00 L 14533388.00 10503185.00 L 13733035.00 9702832.00 L 13687836.00 9684110.00 L 12202755.00 9684110.00 L 12202755.00 9562992.00 L 11612205.00 9562992.00 L 11612205.00 9917322.00 L 12202755.00 9917322.00 L 12202755.00 9811952.00 L 13661359.00 9811952.00 L 14424268.00 10574861.00 L 14424268.00 12377894.00 L 13734329.00 13067833.00 L 13715607.00 13113032.00 L 13715607.00 13647600.33 L 13702446.00 13649333.00 A 297829.90 297829.90 0 1 0 13856610.00 13649333.00  zM 13779528.36 13937008.47 m -200706.53 0 a 200706.53 200706.53 0 1 1 401413.05 0a 200706.53 200706.53 0 1 1 -401413.05 0"/>
<path id="N" d="M 6889763.00 5452756.00 L 6535433.00 5452756.00 L 6535433.00 6043306.00 L 6889763.00 6043306.00 L 6889763.00 5452756.00  z"/>
<path id="N" d="M 12202755.00 6062992.00 L 11612205.00 6062992.00 L 11612205.00 6417322.00 L 12202755.00 6417322.00 L 12202755.00 6062992.00  z"/>
<path id="N" d="M 8393700.00 2125985.00 L 7669292.00 2125985.00 L 7669292.00 2834645.00 L 8393700.00 2834645.00 L 8393700.00 2125985.00  z"/>
<path id="N" d="M 5312991.00 11302151.00 L 5917324.00 11302152.00 L 5955593.00 11286300.00 L 6494962.00 10746931.00 L 6510813.00 10708659.59 L 6510813.00 9049552.56 L 6528769.00 9045981.00 A 160563.76 160563.76 0 0 0 6528769.00 8749295.00 L 6510813.00 8745723.44 L 6510813.00 7857064.00 L 7502733.00 6865144.00 L 10528763.03 6865144.00 L 10910479.51 7246859.67 L 10903198.00 7283465.00 A 120431.73 120431.73 0 1 0 11023622.00 7163041.00 L 10987016.67 7170322.51 L 10589450.00 6772755.00 L 10551178.59 6756904.00 L 7480315.00 6756904.00 L 7442046.00 6772755.00 L 6418424.00 7796377.00 L 6402573.00 7834648.41 L 6402573.00 8751502.66 L 6353786.00 8784101.00 A 160563.52 160563.52 0 0 0 6402573.00 9043773.34 L 6402573.00 10686244.00 L 5894906.00 11193911.00 L 5312991.00 11193911.00 L 5312991.00 11062992.00 L 4722441.00 11062992.00 L 4722441.00 11417322.00 L 5312991.00 11417322.00 L 5312991.00 11302151.00  z"/>
<path id="N" d="M 5312991.00 8562992.00 L 4722441.00 8562992.00 L 4722441.00 8686037.00 L 4195646.00 8686037.00 L 3739057.00 8229448.00 L 3700785.59 8213597.00 L 2802379.67 8213597.00 L 2779778.00 8159032.00 A 327619.99 327619.99 0 1 0 2823537.61 8321837.00 L 3678370.00 8321837.00 L 4134959.00 8778426.00 L 4173228.00 8794277.00 L 4722441.00 8794277.00 L 4722441.00 8917322.00 L 5312991.00 8917322.00 L 5312991.00 8562992.00  zM 2496064.22 8322831.65 m -220780.35 0 a 220780.35 220780.35 0 1 1 441560.70 0a 220780.35 220780.35 0 1 1 -441560.70 0"/>
<path id="N" d="M 10518224.00 10072327.00 L 10487191.00 10051592.26 L 10487191.00 9195645.93 L 10691708.07 8991128.00 L 11114584.26 8991128.00 L 11135319.00 9022161.00 A 120431.73 120431.73 0 1 0 11135319.00 8851855.00 L 11114584.26 8882888.00 L 10669291.00 8882887.00 L 10631021.29 8898740.71 L 10394802.00 9134959.00 L 10378951.00 9173230.41 L 10378951.00 10051592.26 L 10347918.00 10072327.00 A 120431.73 120431.73 0 1 0 10518224.00 10072327.00  z"/>
<path id="N" d="M 5312991.00 6562992.00 L 4722441.00 6562992.00 L 4722441.00 6686037.00 L 4242889.04 6686037.00 L 3809923.00 6253070.00 L 3771651.59 6237219.00 L 2820866.00 6237219.00 L 2820866.00 5998032.00 L 2171260.00 5998032.00 L 2171260.00 6647638.00 L 2820866.00 6647638.00 L 2820866.00 6345459.00 L 3749236.04 6345459.00 L 4182203.00 6778426.00 L 4220474.41 6794277.00 L 4722441.00 6794277.00 L 4722441.00 6917322.00 L 5312991.00 6917322.00 L 5312991.00 6562992.00  zM 2496064.22 6322831.65 m -220780.35 0 a 220780.35 220780.35 0 1 1 441560.70 0a 220780.35 220780.35 0 1 1 -441560.70 0"/>
<path id="N" d="M 12202755.00 11562992.00 L 11612205.00 11562992.00 L 11612205.00 11686037.00 L 11252880.76 11686037.00 A 120163.34 120163.34 0 0 0 11141732.00 11611859.00 L 11105127.37 11619140.37 L 10172230.00 10686243.00 L 10172231.00 8976378.00 L 10156379.00 8938109.00 L 9959529.00 8741259.00 L 9921257.59 8725408.00 L 9235016.06 8725408.00 L 8991128.00 8481519.06 L 8991129.00 7795275.00 L 8975277.00 7757006.00 L 8778427.00 7560156.00 L 8740155.59 7544305.00 L 7349981.74 7544305.00 L 7329247.00 7513272.00 A 120431.73 120431.73 0 1 0 7329247.00 7683578.00 L 7349981.74 7652545.00 L 8717740.00 7652545.00 L 8882888.00 7817693.00 L 8882887.00 8503937.00 L 8898739.00 8542206.00 L 9174330.00 8817797.00 L 9212601.41 8833648.00 L 9898842.00 8833648.00 L 10063990.00 8998796.00 L 10063989.00 10708661.00 L 10079841.00 10746930.00 L 11028589.37 11695678.37 L 11021308.00 11732283.00 A 120431.73 120431.73 0 0 0 11226885.00 11817436.00 L 11242358.71 11794277.00 L 11612205.00 11794277.00 L 11612205.00 11917322.00 L 12202755.00 11917322.00 L 12202755.00 11562992.00  z"/>
<path id="N" d="M 15846458.00 9173232.00 L 15841522.00 9173232.00 L 15841522.00 7440942.00 L 15846458.00 7440942.00 L 15846458.00 6968502.00 L 15452758.00 6968502.00 L 15452758.00 7150602.00 L 15179896.00 7150602.00 L 14817900.00 6788606.00 L 14817900.00 6653543.00 L 14980315.00 6653543.00 L 14980315.00 5944883.00 L 14586615.00 5944883.00 L 14586615.00 6549424.00 L 14301968.00 6549423.00 L 14276306.33 6560053.00 L 12738953.00 6560053.00 L 12495065.00 6316165.00 L 12495065.00 6023622.00 L 12479212.29 5985352.29 L 12321734.00 5827873.00 L 12283462.59 5812022.00 L 11456693.00 5812022.00 L 11418423.29 5827874.71 L 10961834.03 6284463.00 L 5312991.00 6284463.00 L 5312991.00 6062992.00 L 4722441.00 6062992.00 L 4722441.00 6417322.00 L 5312991.00 6417322.00 L 5312991.00 6392703.00 L 10984252.00 6392704.00 L 11022521.00 6376852.00 L 11479110.03 5920262.00 L 12261047.10 5920262.00 L 12386825.00 6046039.10 L 12386824.00 6338583.00 L 12402676.00 6376852.00 L 12678266.00 6652442.00 L 12716535.00 6668293.00 L 14291339.00 6668294.00 L 14317001.34 6657664.00 L 14636614.00 6657665.00 L 14646565.10 6653543.00 L 14709660.00 6653543.00 L 14709659.00 6811024.00 L 14725511.00 6849293.00 L 15119209.00 7242991.00 L 15157480.41 7258842.00 L 15452758.00 7258842.00 L 15452758.00 7440942.00 L 15733282.00 7440942.00 L 15733282.00 9173232.00 L 15512708.10 9173232.00 L 15502754.59 9169111.00 L 15485805.00 9169111.00 L 15451653.00 9134959.00 L 15413381.59 9119108.00 L 13137383.74 9119108.00 L 13116649.00 9088075.00 A 120431.73 120431.73 0 1 0 13116649.00 9258381.00 L 13137383.74 9227348.00 L 15390966.00 9227348.00 L 15425118.00 9261500.00 L 15452758.00 9272949.20 L 15452758.00 9645672.00 L 15846458.00 9645672.00 L 15846458.00 9173232.00  z"/>
<path id="N" d="M 13582677.00 10826771.00 L 12795275.00 10826771.00 L 12795275.00 11139804.00 L 12202755.00 11139804.00 L 12202755.00 11062992.00 L 11612205.00 11062992.00 L 11612205.00 11417322.00 L 12202755.00 11417322.00 L 12202755.00 11340510.00 L 12795275.00 11340510.00 L 12795275.00 11614173.00 L 13582677.00 11614173.00 L 13582677.00 10826771.00  z"/>
<path id="N" d="M 1496064.97 10322840.69 m -327599.99 0 a 327599.99 327599.99 0 1 1 655199.97 0a 327599.99 327599.99 0 1 1 -655199.97 0M 1496064.22 10322831.65 m -220780.35 0 a 220780.35 220780.35 0 1 1 441560.70 0a 220780.35 220780.35 0 1 1 -441560.70 0"/>
<path id="N" d="M 11764800.00 1686199.00 L 11746364.00 1658606.44 L 11746364.00 1488531.00 L 11738725.00 1450127.00 L 11716971.00 1417571.00 L 11256818.25 957418.25 L 11252989.00 938168.00 A 120412.98 120412.98 0 1 0 11095648.00 1095509.00 L 11114898.25 1099338.25 L 11545658.00 1530098.00 L 11545658.00 1681152.24 L 11542286.00 1686199.00 A 120419.38 120419.38 0 1 0 11764800.00 1686199.00  z"/>
<path id="N" d="M 11134879.00 12880730.00 L 11138708.25 12861479.75 L 11580937.00 12419251.00 L 11828739.00 12419251.00 L 11838436.78 12417322.00 L 12202755.00 12417322.00 L 12202755.00 12062992.00 L 11612205.00 12062992.00 L 11612205.00 12218545.00 L 11539370.00 12218545.00 L 11500966.00 12226184.00 L 11468410.00 12247938.00 L 10996788.25 12719559.75 L 10977538.00 12723389.00 A 120412.98 120412.98 0 1 0 11134879.00 12880730.00  z"/>
<path id="N" d="M 10990665.00 10426658.00 L 10969433.00 10412471.81 L 10969433.00 9548158.19 L 10990665.00 9533972.00 A 120431.73 120431.73 0 1 0 10820359.00 9533972.00 L 10841591.00 9548158.19 L 10841591.00 10412471.81 L 10820359.00 10426658.00 A 120431.73 120431.73 0 1 0 10990665.00 10426658.00  z"/>
<path id="N" d="M 7801688.00 4993587.00 L 7796719.00 4990266.96 L 7796719.00 4956983.95 L 8093283.05 4660419.00 L 9465771.04 4660419.00 L 9830315.00 5024963.00 L 9868586.41 5040814.00 L 9990266.96 5040814.00 L 9993587.00 5045783.00 A 120431.73 120431.73 0 1 0 9967483.00 4914546.00 L 9963896.88 4932574.00 L 9891001.04 4932574.00 L 9526458.00 4568030.00 L 9488186.59 4552179.00 L 8070866.00 4552178.00 L 8032596.29 4568031.71 L 7704330.00 4896297.00 L 7688479.00 4934568.41 L 7688479.00 4963896.88 L 7670451.00 4967483.00 A 120412.98 120412.98 0 1 0 7801688.00 4993587.00  z"/>
<path id="N" d="M 5312991.00 7562992.00 L 4722441.00 7562992.00 L 4722441.00 7686037.00 L 4179897.04 7686037.00 L 3746931.00 7253070.00 L 3708659.59 7237219.00 L 2812164.27 7237219.00 A 325889.76 325889.76 0 1 0 2812506.00 7407626.00 L 2820690.48 7345459.00 L 3686244.04 7345459.00 L 4119211.00 7778426.00 L 4157482.41 7794277.00 L 4722441.00 7794277.00 L 4722441.00 7917322.00 L 5312991.00 7917322.00 L 5312991.00 7562992.00  zM 2496064.22 7322831.65 m -220780.35 0 a 220780.35 220780.35 0 1 1 441560.70 0a 220780.35 220780.35 0 1 1 -441560.70 0"/>
<path id="N" d="M 5866142.00 11808710.00 L 5828528.13 11816192.13 L 5714224.00 11701888.00 L 5675952.59 11686037.00 L 5312991.00 11686037.00 L 5312991.00 11562992.00 L 4722441.00 11562992.00 L 4722441.00 11659327.00 L 4675090.01 11659327.00 L 2820015.00 9804251.00 L 2781743.59 9788400.00 L 2148402.03 9788400.00 L 1799361.70 9439359.00 L 1812506.00 9407626.00 A 327605.76 327605.76 0 1 0 1727715.00 9554487.00 L 1742346.47 9535419.13 L 2087716.00 9880789.00 L 2125987.41 9896640.00 L 2759328.01 9896640.00 L 4614404.00 11751716.00 L 4652673.00 11767567.00 L 4722441.00 11767567.00 L 4722441.00 11917322.00 L 5312991.00 11917322.00 L 5312991.00 11794277.00 L 5653537.00 11794277.00 L 5752798.61 11893538.61 L 5745718.00 11929134.00 A 120431.73 120431.73 0 1 0 5866142.00 11808710.00  zM 1496064.22 9322831.65 m -220780.35 0 a 220780.35 220780.35 0 1 1 441560.70 0a 220780.35 220780.35 0 1 1 -441560.70 0"/>
<path id="N" d="M 9604329.87 9425197.00 m -63921.13 0 a 63921.13 63921.13 0 1 1 127842.26 0a 63921.13 63921.13 0 1 1 -127842.26 0M 9604330.00 9467811.00 L 9574197.00 9455330.00 L 9561716.00 9425197.00 L 9574197.00 9395064.00 L 9604330.00 9382583.00 L 9634463.00 9395064.00 L 9646944.00 9425197.00 L 9634463.00 9455330.00 L 9604330.00 9467811.00  z"/>
<path id="N" d="M 9328739.87 9149606.00 m -63921.13 0 a 63921.13 63921.13 0 1 1 127842.26 0a 63921.13 63921.13 0 1 1 -127842.26 0M 9328740.00 9192220.00 L 9298607.00 9179739.00 L 9286126.00 9149606.00 L 9298607.00 9119473.00 L 9328740.00 9106992.00 L 9358873.00 9119473.00 L 9371354.00 9149606.00 L 9358873.00 9179739.00 L 9328740.00 9192220.00  z"/>
<path id="N" d="M 8777558.87 9700787.00 m -63921.13 0 a 63921.13 63921.13 0 1 1 127842.26 0a 63921.13 63921.13 0 1 1 -127842.26 0M 8777559.00 9743401.00 L 8747426.00 9730920.00 L 8734945.00 9700787.00 L 8747426.00 9670654.00 L 8777559.00 9658173.00 L 8807692.00 9670654.00 L 8820173.00 9700787.00 L 8807692.00 9730920.00 L 8777559.00 9743401.00  z"/>
<path id="N" d="M 8777558.87 9149606.00 m -63921.13 0 a 63921.13 63921.13 0 1 1 127842.26 0a 63921.13 63921.13 0 1 1 -127842.26 0M 8777559.00 9192220.00 L 8747426.00 9179739.00 L 8734945.00 9149606.00 L 8747426.00 9119473.00 L 8777559.00 9106992.00 L 8807692.00 9119473.00 L 8820173.00 9149606.00 L 8807692.00 9179739.00 L 8777559.00 9192220.00  z"/>
<path id="N" d="M 8501967.87 9425197.00 m -63921.13 0 a 63921.13 63921.13 0 1 1 127842.26 0a 63921.13 63921.13 0 1 1 -127842.26 0M 8501968.00 9467811.00 L 8471835.00 9455330.00 L 8459354.00 9425197.00 L 8471835.00 9395064.00 L 8501968.00 9382583.00 L 8532101.00 9395064.00 L 8544582.00 9425197.00 L 8532101.00 9455330.00 L 8501968.00 9467811.00  z"/>
<path id="N" d="M 9328739.87 10251968.00 m -63921.13 0 a 63921.13 63921.13 0 1 1 127842.26 0a 63921.13 63921.13 0 1 1 -127842.26 0M 9328740.00 10294582.00 L 9298607.00 10282101.00 L 9286126.00 10251968.00 L 9298607.00 10221835.00 L 9328740.00 10209354.00 L 9358873.00 10221835.00 L 9371354.00 10251968.00 L 9358873.00 10282101.00 L 9328740.00 10294582.00  z"/>
<path id="N" d="M 8501967.87 9976378.00 m -63921.13 0 a 63921.13 63921.13 0 1 1 127842.26 0a 63921.13 63921.13 0 1 1 -127842.26 0M 8501968.00 10018992.00 L 8471835.00 10006511.00 L 8459354.00 9976378.00 L 8471835.00 9946245.00 L 8501968.00 9933764.00 L 8532101.00 9946245.00 L 8544582.00 9976378.00 L 8532101.00 10006511.00 L 8501968.00 10018992.00  z"/>
<path id="N" d="M 9053148.87 9976378.00 m -63921.13 0 a 63921.13 63921.13 0 1 1 127842.26 0a 63921.13 63921.13 0 1 1 -127842.26 0M 9053149.00 10018992.00 L 9023016.00 10006511.00 L 9010535.00 9976378.00 L 9023016.00 9946245.00 L 9053149.00 9933764.00 L 9083282.00 9946245.00 L 9095763.00 9976378.00 L 9083282.00 10006511.00 L 9053149.00 10018992.00  z"/>
<path id="N" d="M 9328739.87 9700787.00 m -63921.13 0 a 63921.13 63921.13 0 1 1 127842.26 0a 63921.13 63921.13 0 1 1 -127842.26 0M 9328740.00 9743401.00 L 9298607.00 9730920.00 L 9286126.00 9700787.00 L 9298607.00 9670654.00 L 9328740.00 9658173.00 L 9358873.00 9670654.00 L 9371354.00 9700787.00 L 9358873.00 9730920.00 L 9328740.00 9743401.00  z"/>
<path id="N" d="M 9604329.87 9976378.00 m -63921.13 0 a 63921.13 63921.13 0 1 1 127842.26 0a 63921.13 63921.13 0 1 1 -127842.26 0M 9604330.00 10018992.00 L 9574197.00 10006511.00 L 9561716.00 9976378.00 L 9574197.00 9946245.00 L 9604330.00 9933764.00 L 9634463.00 9946245.00 L 9646944.00 9976378.00 L 9634463.00 10006511.00 L 9604330.00 10018992.00  z"/>
<path id="N" d="M 8777558.87 10251968.00 m -63921.13 0 a 63921.13 63921.13 0 1 1 127842.26 0a 63921.13 63921.13 0 1 1 -127842.26 0M 8777559.00 10294582.00 L 8747426.00 10282101.00 L 8734945.00 10251968.00 L 8747426.00 10221835.00 L 8777559.00 10209354.00 L 8807692.00 10221835.00 L 8820173.00 10251968.00 L 8807692.00 10282101.00 L 8777559.00 10294582.00  z"/>
<path id="N" d="M 9053148.87 9425197.00 m -63921.13 0 a 63921.13 63921.13 0 1 1 127842.26 0a 63921.13 63921.13 0 1 1 -127842.26 0M 9053149.00 9467811.00 L 9023016.00 9455330.00 L 9010535.00 9425197.00 L 9023016.00 9395064.00 L 9053149.00 9382583.00 L 9083282.00 9395064.00 L 9095763.00 9425197.00 L 9083282.00 9455330.00 L 9053149.00 9467811.00  z"/>
<path id="N" d="M 12202755.00 10562992.00 L 11612205.00 10562992.00 L 11612205.00 10917322.00 L 12202755.00 10917322.00 L 12202755.00 10562992.00  z"/>
<path id="N" d="M 5312991.00 9562992.00 L 4722441.00 9562992.00 L 4722441.00 9917322.00 L 5312991.00 9917322.00 L 5312991.00 9562992.00  z"/>
<path id="N" d="M 8389763.00 5452756.00 L 8035433.00 5452756.00 L 8035433.00 6043306.00 L 8389763.00 6043306.00 L 8389763.00 5452756.00  z"/>
<path id="N" d="M 12202755.00 7062992.00 L 11612205.00 7062992.00 L 11612205.00 7417322.00 L 12202755.00 7417322.00 L 12202755.00 7062992.00  z"/>
<path id="N" d="M 12202755.00 9062992.00 L 11612205.00 9062992.00 L 11612205.00 9417322.00 L 12202755.00 9417322.00 L 12202755.00 9062992.00  z"/>
<path id="N" d="M 12202755.00 7562992.00 L 11612205.00 7562992.00 L 11612205.00 7917322.00 L 12202755.00 7917322.00 L 12202755.00 7562992.00  z"/>
<path id="N" d="M 12202755.00 8062992.00 L 11612205.00 8062992.00 L 11612205.00 8417322.00 L 12202755.00 8417322.00 L 12202755.00 8062992.00  z"/>
<path id="N" d="M 12202755.00 8562992.00 L 11612205.00 8562992.00 L 11612205.00 8917322.00 L 12202755.00 8917322.00 L 12202755.00 8562992.00  z"/>
<path id="N" d="M 7889763.00 5452756.00 L 7535433.00 5452756.00 L 7535433.00 6043306.00 L 7889763.00 6043306.00 L 7889763.00 5452756.00  z"/>
<path id="N" d="M 9389763.00 5452756.00 L 9035433.00 5452756.00 L 9035433.00 6043306.00 L 9389763.00 6043306.00 L 9389763.00 5452756.00  z"/>
<path id="N" d="M 9889763.00 5452756.00 L 9535433.00 5452756.00 L 9535433.00 6043306.00 L 9889763.00 6043306.00 L 9889763.00 5452756.00  z"/>
<path id="N" d="M 7389763.00 5452756.00 L 7035433.00 5452756.00 L 7035433.00 6043306.00 L 7389763.00 6043306.00 L 7389763.00 5452756.00  z"/>
<path id="N" d="M 8889763.00 5452756.00 L 8535433.00 5452756.00 L 8535433.00 6043306.00 L 8889763.00 6043306.00 L 8889763.00 5452756.00  z"/>
<path id="N" d="M 12202755.00 6562992.00 L 11612205.00 6562992.00 L 11612205.00 6917322.00 L 12202755.00 6917322.00 L 12202755.00 6562992.00  z"/>
<path id="N" d="M 5312991.00 8062992.00 L 4722441.00 8062992.00 L 4722441.00 8186037.00 L 4207457.00 8186037.00 L 3817797.00 7796377.00 L 3779525.59 7780526.00 L 1943522.04 7780526.00 L 1721925.87 7558929.21 L 1727715.00 7554487.00 A 327599.99 327599.99 0 1 0 1580854.00 7639278.00 L 1629181.36 7619260.06 L 1882836.00 7872915.00 L 1921105.00 7888766.00 L 3757110.00 7888766.00 L 4146770.00 8278426.00 L 4185039.00 8294277.00 L 4722441.00 8294277.00 L 4722441.00 8417322.00 L 5312991.00 8417322.00 L 5312991.00 8062992.00  zM 1496064.22 7322831.65 m -220780.35 0 a 220780.35 220780.35 0 1 1 441560.70 0a 220780.35 220780.35 0 1 1 -441560.70 0"/>
<path id="N" d="M 6389763.00 5452756.00 L 6035433.00 5452756.00 L 6035433.00 6043306.00 L 6389763.00 6043306.00 L 6389763.00 5452756.00  z"/>
<path id="N" d="M 5312991.00 10802151.00 L 5826774.00 10802152.00 L 5865043.00 10786300.00 L 6101261.00 10550082.00 L 6117112.00 10511810.59 L 6117112.00 8653737.19 L 6124438.00 8652280.00 A 160563.76 160563.76 0 0 0 6124438.00 8355594.00 L 6117112.00 8354136.81 L 6117112.00 7738953.99 L 7227142.01 6628923.00 L 10686243.00 6628923.00 L 10910479.37 6853159.37 L 10903198.00 6889764.00 A 120431.73 120431.73 0 1 0 11023622.00 6769340.00 L 10987017.37 6776621.37 L 10746930.00 6536534.00 L 10708658.59 6520683.00 L 7204725.00 6520683.00 L 7166455.29 6536535.71 L 6024723.00 7678267.00 L 6008872.00 7716538.41 L 6008872.00 8354136.81 L 6001546.00 8355594.00 A 160563.76 160563.76 0 0 0 6001546.00 8652280.00 L 6008872.00 8653737.19 L 6008872.00 10489395.93 L 5804356.07 10693911.00 L 5312991.00 10693911.00 L 5312991.00 10562992.00 L 4722441.00 10562992.00 L 4722441.00 10917322.00 L 5312991.00 10917322.00 L 5312991.00 10802151.00  z"/>
</g>
</svg>
