<svg width="42.00000236mm" height="42.00000236mm" viewBox="0 0 16535434 16535434"  version="1.1" xmlns="http://www.w3.org/2000/svg" xmlns:xlink="http://www.w3.org/1999/xlink">
<desc>
Origin 0 0 Bound 286220 50000 16535434 16535434
</desc>
<g fill-rule="evenodd" fill="rgb(128, 128, 0)" stroke="black" stroke-width="1" transform="translate(0, 16535434) scale(1, -1) translate(-286220, -50000)">
<path id="N" d="M 13461029.00 13290265.00 L 13470390.00 13267666.00 L 13470390.00 13110237.00 L 13467543.36 13103364.74 L 13467016.00 13095944.00 L 13463041.74 13092497.09 L 13461029.00 13087638.00 L 13454157.42 13084791.64 L 13448537.00 13079917.00 L 13443289.51 13080289.92 L 13438430.00 13078277.00 L 13431557.74 13081123.64 L 13424137.00 13081651.00 L 13325932.06 13130753.00 L 13294238.00 13130753.00 L 13260484.00 13096999.00 L 13260484.00 13018521.82 L 13294238.18 12984767.00 L 13372715.00 12984767.00 L 13415831.00 13027883.00 L 13438430.00 13037244.00 L 13461029.00 13027883.00 L 13470390.00 13005284.00 L 13461029.00 12982685.00 L 13408552.00 12930208.00 L 13385953.00 12920847.00 L 13281000.00 12920847.00 L 13258401.00 12930208.00 L 13205925.00 12982685.00 L 13196564.00 13005284.00 L 13196564.00 13110237.00 L 13205925.00 13132836.00 L 13258401.00 13185312.00 L 13281000.00 13194673.00 L 13333477.00 13194673.00 L 13340349.26 13191826.36 L 13347770.00 13191299.00 L 13406470.00 13161949.28 L 13406470.00 13235706.00 L 13228524.00 13235706.00 L 13205925.00 13245067.00 L 13196564.00 13267666.00 L 13205925.00 13290265.00 L 13228524.00 13299626.00 L 13438430.00 13299626.00 L 13461029.00 13290265.00  z"/>
<path id="N" d="M 12660418.00 14904438.00 L 12712895.00 14851962.00 L 12722256.00 14829363.00 L 12712895.00 14806764.00 L 12690296.00 14797403.00 L 12667697.00 14806764.00 L 12624581.18 14849879.00 L 12546104.00 14849879.00 L 12512350.00 14816125.00 L 12512350.00 14790124.00 L 12546104.00 14756370.00 L 12585343.00 14756370.00 L 12607942.00 14747009.00 L 12617303.00 14724410.00 L 12607942.00 14701811.00 L 12585343.00 14692450.00 L 12546104.18 14692450.00 L 12512350.00 14658695.18 L 12512350.00 14632694.82 L 12546104.18 14598940.00 L 12624581.00 14598940.00 L 12667697.00 14642056.00 L 12690296.00 14651417.00 L 12712895.00 14642056.00 L 12722256.00 14619457.00 L 12712895.00 14596858.00 L 12660418.00 14544381.00 L 12637819.00 14535020.00 L 12532866.00 14535020.00 L 12510267.00 14544381.00 L 12457791.00 14596858.00 L 12448430.00 14619457.00 L 12448430.00 14671933.00 L 12457791.00 14694532.00 L 12487668.22 14724409.78 L 12457791.00 14754287.00 L 12448430.00 14776886.00 L 12448430.00 14829363.00 L 12457791.00 14851962.00 L 12510267.00 14904438.00 L 12532866.00 14913799.00 L 12637819.00 14913799.00 L 12660418.00 14904438.00  z"/>
<path id="N" d="M 9413292.71 3783305.29 L 9478888.00 3717712.00 L 9491369.00 3687579.00 L 9491370.00 3556388.00 L 9478886.29 3526254.29 L 9413292.00 3460659.00 L 9383159.00 3448178.00 L 9353026.00 3460659.00 L 9340545.00 3490792.00 L 9353026.00 3520925.00 L 9406141.00 3574039.19 L 9406141.00 3669927.81 L 9365508.19 3710560.00 L 9335214.81 3710560.00 L 9294582.00 3669927.81 L 9294582.00 3621983.00 L 9282101.00 3591850.00 L 9251968.00 3579369.00 L 9221835.00 3591850.00 L 9209354.00 3621983.00 L 9209354.00 3669927.81 L 9168721.19 3710560.00 L 9138427.81 3710560.00 L 9097795.00 3669927.81 L 9097795.00 3574039.81 L 9150910.00 3520924.00 L 9163392.00 3490792.00 L 9150910.00 3460659.00 L 9120777.00 3448177.00 L 9090645.00 3460659.00 L 9025048.00 3526255.00 L 9012567.00 3556388.00 L 9012567.00 3687579.00 L 9025049.71 3717712.71 L 9090644.00 3783307.00 L 9120777.00 3795788.00 L 9186372.00 3795788.00 L 9216505.71 3783305.29 L 9251967.54 3747844.00 L 9287430.00 3783307.00 L 9317563.00 3795788.00 L 9383159.00 3795788.00 L 9413292.71 3783305.29  z"/>
<path id="N" d="M 14177072.71 6617950.29 L 14242668.00 6552357.00 L 14255149.00 6522224.00 L 14255150.00 6391033.00 L 14242666.29 6360899.29 L 14177072.00 6295304.00 L 14146939.00 6282823.00 L 14116806.00 6295304.00 L 14104325.00 6325437.00 L 14116806.00 6355570.00 L 14169921.00 6408684.19 L 14169921.00 6504572.81 L 14129288.19 6545205.00 L 14098994.81 6545205.00 L 14058362.00 6504572.81 L 14058362.00 6456628.00 L 14045881.00 6426495.00 L 14015748.00 6414014.00 L 13985615.00 6426495.00 L 13973134.00 6456628.00 L 13973134.00 6504572.81 L 13932501.19 6545205.00 L 13902207.81 6545205.00 L 13861575.00 6504572.81 L 13861575.00 6408684.81 L 13914690.00 6355569.00 L 13927172.00 6325437.00 L 13914690.00 6295304.00 L 13884557.00 6282822.00 L 13854425.00 6295304.00 L 13788828.00 6360900.00 L 13776347.00 6391033.00 L 13776347.00 6522224.00 L 13788829.71 6552357.71 L 13854424.00 6617952.00 L 13884557.00 6630433.00 L 13950152.00 6630433.00 L 13980285.71 6617950.29 L 14015747.54 6582489.00 L 14051210.00 6617952.00 L 14081343.00 6630433.00 L 14146939.00 6630433.00 L 14177072.71 6617950.29  z"/>
<path id="N" d="M 13723411.00 13290265.00 L 13775888.00 13237789.00 L 13785249.00 13215190.00 L 13775888.00 13192591.00 L 13753289.00 13183230.00 L 13730690.00 13192591.00 L 13687574.18 13235706.00 L 13609097.00 13235706.00 L 13575343.00 13201952.00 L 13575343.00 13175951.00 L 13609097.00 13142197.00 L 13648336.00 13142197.00 L 13670935.00 13132836.00 L 13680296.00 13110237.00 L 13670935.00 13087638.00 L 13648336.00 13078277.00 L 13609097.18 13078277.00 L 13575343.00 13044522.18 L 13575343.00 13018521.82 L 13609097.18 12984767.00 L 13687574.00 12984767.00 L 13730690.00 13027883.00 L 13753289.00 13037244.00 L 13775888.00 13027883.00 L 13785249.00 13005284.00 L 13775888.00 12982685.00 L 13723411.00 12930208.00 L 13700812.00 12920847.00 L 13595859.00 12920847.00 L 13573260.00 12930208.00 L 13520784.00 12982685.00 L 13511423.00 13005284.00 L 13511423.00 13057760.00 L 13520784.00 13080359.00 L 13550661.22 13110236.78 L 13520784.00 13140114.00 L 13511423.00 13162713.00 L 13511423.00 13215190.00 L 13520784.00 13237789.00 L 13573260.00 13290265.00 L 13595859.00 13299626.00 L 13700812.00 13299626.00 L 13723411.00 13290265.00  z"/>
<path id="N" d="M 12759685.00 3048038.00 L 12825282.00 2982443.00 L 12837763.00 2952310.00 L 12837763.00 2821119.00 L 12825282.00 2790986.00 L 12759686.00 2725390.00 L 12729550.59 2712909.00 L 12663957.00 2712909.00 L 12633823.29 2725391.71 L 12568229.00 2790986.00 L 12555748.00 2821119.00 L 12555748.00 2934658.81 L 12515115.19 2975291.00 L 12484821.81 2975291.00 L 12444189.00 2934658.81 L 12444189.00 2838770.81 L 12497304.00 2785655.00 L 12509786.00 2755523.00 L 12497304.00 2725390.00 L 12467171.00 2712908.00 L 12437039.00 2725390.00 L 12371442.00 2790986.00 L 12358961.00 2821119.00 L 12358961.00 2952310.00 L 12371443.71 2982443.71 L 12437038.00 3048038.00 L 12467171.00 3060519.00 L 12532766.00 3060519.00 L 12562899.71 3048036.29 L 12628495.00 2982443.00 L 12640976.00 2952310.00 L 12640976.00 2838769.81 L 12681608.19 2798137.00 L 12711901.81 2798137.00 L 12752535.00 2838770.81 L 12752535.00 2934658.81 L 12699421.00 2987772.00 L 12686939.00 3017905.00 L 12699420.00 3048037.00 L 12729553.00 3060519.00 L 12759685.00 3048038.00  z"/>
<path id="N" d="M 15003844.00 7438532.00 L 15069441.00 7372937.00 L 15081922.00 7342804.00 L 15081922.00 7211613.00 L 15069441.00 7181480.00 L 15003845.00 7115884.00 L 14973709.59 7103403.00 L 14908116.00 7103403.00 L 14877982.29 7115885.71 L 14812388.00 7181480.00 L 14799907.00 7211613.00 L 14799907.00 7325152.81 L 14759274.19 7365785.00 L 14728980.81 7365785.00 L 14688348.00 7325152.81 L 14688348.00 7229264.81 L 14741463.00 7176149.00 L 14753945.00 7146017.00 L 14741463.00 7115884.00 L 14711330.00 7103402.00 L 14681198.00 7115884.00 L 14615601.00 7181480.00 L 14603120.00 7211613.00 L 14603120.00 7342804.00 L 14615602.71 7372937.71 L 14681197.00 7438532.00 L 14711330.00 7451013.00 L 14776925.00 7451013.00 L 14807058.71 7438530.29 L 14872654.00 7372937.00 L 14885135.00 7342804.00 L 14885135.00 7229263.81 L 14925767.19 7188631.00 L 14956060.81 7188631.00 L 14996694.00 7229264.81 L 14996694.00 7325152.81 L 14943580.00 7378266.00 L 14931098.00 7408399.00 L 14943579.00 7438531.00 L 14973712.00 7451013.00 L 15003844.00 7438532.00  z"/>
<path id="N" d="M 14177072.71 9518762.29 L 14242668.00 9453169.00 L 14255149.00 9423036.00 L 14255149.00 9226249.00 L 14242668.00 9196116.00 L 14212535.00 9183635.00 L 13818961.00 9183635.00 L 13788828.00 9196116.00 L 13776347.00 9226249.00 L 13776347.00 9423036.00 L 13788829.71 9453169.71 L 13854424.00 9518764.00 L 13884557.00 9531245.00 L 13950152.00 9531245.00 L 13980285.71 9518762.29 L 14015747.50 9483301.04 L 14051210.00 9518764.00 L 14081343.00 9531245.00 L 14146939.00 9531245.00 L 14177072.71 9518762.29  zM 13932501.19 9446017.00 L 13902207.81 9446017.00 L 13861575.00 9405384.81 L 13861575.00 9268863.00 L 13973134.00 9268863.00 L 13973134.00 9405384.81 L 13932501.19 9446017.00  zM 14129288.19 9446017.00 L 14098994.19 9446017.00 L 14058362.00 9405384.19 L 14058362.00 9268863.00 L 14169921.00 9268863.00 L 14169921.00 9405384.81 L 14129288.19 9446017.00  z"/>
<path id="N" d="M 12759686.71 2260888.29 L 12825282.00 2195295.00 L 12837763.00 2165162.00 L 12837763.00 1968375.00 L 12825282.00 1938242.00 L 12795149.00 1925761.00 L 12401575.00 1925761.00 L 12371442.00 1938242.00 L 12358961.00 1968375.00 L 12358961.00 2165162.00 L 12371443.71 2195295.71 L 12437038.00 2260890.00 L 12467171.00 2273371.00 L 12532766.00 2273371.00 L 12562899.71 2260888.29 L 12598361.50 2225427.04 L 12633824.00 2260890.00 L 12663957.00 2273371.00 L 12729553.00 2273371.00 L 12759686.71 2260888.29  zM 12515115.19 2188143.00 L 12484821.81 2188143.00 L 12444189.00 2147510.81 L 12444189.00 2010989.00 L 12555748.00 2010989.00 L 12555748.00 2147510.81 L 12515115.19 2188143.00  zM 12711902.19 2188143.00 L 12681608.19 2188143.00 L 12640976.00 2147510.19 L 12640976.00 2010989.00 L 12752535.00 2010989.00 L 12752535.00 2147510.81 L 12711902.19 2188143.00  z"/>
<path id="N" d="M 16692362.00 9251416.00 L 16700288.00 9232282.00 L 16700288.00 8747532.00 L 17066930.00 8747532.00 L 17086064.00 8739606.00 L 17093990.00 8720472.00 L 17093990.00 7893702.00 L 17086064.00 7874568.00 L 17066930.00 7866642.00 L 16700288.00 7866642.00 L 16700288.00 7381892.00 L 16692362.00 7362758.00 L 16673228.00 7354832.00 L 15295278.00 7354832.00 L 15276144.00 7362758.00 L 15268218.00 7381892.00 L 15268218.00 9232282.00 L 15276144.00 9251416.00 L 15295278.00 9259342.00 L 16673228.00 9259342.00 L 16692362.00 9251416.00  zM 16646168.00 9205222.00 L 15322338.00 9205222.00 L 15322338.00 7408952.00 L 16646168.00 7408952.00 L 16646168.00 9205222.00  zM 17039870.00 8693412.00 L 16700288.00 8693412.00 L 16700288.00 7920762.00 L 17039870.00 7920762.00 L 17039870.00 8693412.00  z"/>
<path id="N" d="M 9413292.71 3389731.29 L 9478888.00 3324138.00 L 9491369.00 3294005.00 L 9491369.00 3097218.00 L 9478888.00 3067085.00 L 9448755.00 3054604.00 L 9055181.00 3054604.00 L 9025048.00 3067085.00 L 9012567.00 3097218.00 L 9025048.00 3127351.00 L 9055181.00 3139832.00 L 9143758.00 3139832.00 L 9143758.00 3210757.00 L 9025048.00 3329467.00 L 9012567.00 3359600.00 L 9025048.00 3389733.00 L 9055181.00 3402214.00 L 9085314.00 3389733.00 L 9154677.92 3320369.08 L 9156240.71 3324138.71 L 9221835.00 3389733.00 L 9251968.00 3402214.00 L 9383159.00 3402214.00 L 9413292.71 3389731.29  zM 9365508.19 3316986.00 L 9269618.81 3316986.00 L 9228986.00 3276353.81 L 9228986.00 3139832.00 L 9406141.00 3139832.00 L 9406141.00 3276353.81 L 9365508.19 3316986.00  z"/>
<path id="N" d="M 8192820.71 3350360.29 L 8258416.00 3284767.00 L 8270897.00 3254634.00 L 8270897.00 3057847.00 L 8258416.00 3027714.00 L 8228283.00 3015233.00 L 7834709.00 3015233.00 L 7804576.00 3027714.00 L 7792095.00 3057847.00 L 7804576.00 3087980.00 L 7834709.00 3100461.00 L 7923286.00 3100461.00 L 7923286.00 3171386.00 L 7804576.00 3290096.00 L 7792095.00 3320229.00 L 7804576.00 3350362.00 L 7834709.00 3362843.00 L 7864842.00 3350362.00 L 7934205.92 3280998.08 L 7935768.71 3284767.71 L 8001363.00 3350362.00 L 8031496.00 3362843.00 L 8162687.00 3362843.00 L 8192820.71 3350360.29  zM 8145036.19 3277615.00 L 8049146.81 3277615.00 L 8008514.00 3236982.81 L 8008514.00 3100461.00 L 8185669.00 3100461.00 L 8185669.00 3236982.81 L 8145036.19 3277615.00  z"/>
<path id="N" d="M 14177071.00 6224378.00 L 14242668.00 6158783.00 L 14255149.00 6128650.00 L 14255149.00 5997459.00 L 14242668.00 5967326.00 L 14177072.00 5901730.00 L 14146936.59 5889249.00 L 13884557.00 5889249.00 L 13854424.00 5901730.00 L 13788828.00 5967326.00 L 13776347.00 5997461.41 L 13776347.00 6128650.00 L 13788829.71 6158783.71 L 13854425.00 6224378.00 L 13884557.00 6236859.00 L 13914690.00 6224377.00 L 13927171.00 6194245.00 L 13914689.00 6164112.00 L 13861575.00 6110998.81 L 13861575.00 6015110.19 L 13902208.81 5974477.00 L 14129287.81 5974477.00 L 14169921.00 6015110.81 L 14169921.00 6110998.81 L 14116807.00 6164112.00 L 14104325.00 6194245.00 L 14116806.00 6224377.00 L 14146939.00 6236859.00 L 14177071.00 6224378.00  z"/>
<path id="N" d="M 14045881.71 9912336.29 L 14111476.00 9846743.00 L 14123957.00 9816610.00 L 14123957.00 9685419.00 L 14111476.00 9655286.00 L 14081343.00 9642805.00 L 14051210.00 9655286.00 L 14038729.00 9685419.00 L 14038729.00 9798958.19 L 13998096.81 9839591.00 L 13992766.00 9839591.00 L 13992766.00 9685419.00 L 13980283.29 9655285.29 L 13914690.00 9589690.00 L 13884557.00 9577208.00 L 13854425.00 9589690.00 L 13788828.00 9655286.00 L 13776347.00 9685419.00 L 13776347.00 9882205.00 L 13788828.00 9912338.00 L 13818961.00 9924819.00 L 14015748.00 9924819.00 L 14045881.71 9912336.29  zM 13907538.00 9839591.00 L 13861575.00 9839591.00 L 13861575.00 9703070.81 L 13884557.00 9680088.46 L 13907538.00 9703069.81 L 13907538.00 9839591.00  z"/>
<path id="N" d="M 14111476.00 10174721.00 L 14123957.00 10144588.00 L 14123957.00 10121607.00 L 14146939.00 10121607.00 L 14177072.00 10109126.00 L 14189553.00 10078993.00 L 14177072.00 10048860.00 L 14146939.00 10036379.00 L 14123957.00 10036379.00 L 14123957.00 10013397.00 L 14111476.00 9983264.00 L 14081343.00 9970783.00 L 14051210.00 9983264.00 L 14038729.00 10013397.00 L 14038729.00 10036379.00 L 13884557.00 10036379.00 L 13854423.29 10048861.71 L 13788829.00 10114455.00 L 13776347.00 10144588.00 L 13788828.00 10174720.00 L 13818961.00 10187202.00 L 13849093.00 10174721.00 L 13902207.81 10121607.00 L 14038729.00 10121607.00 L 14038729.00 10144588.00 L 14051210.00 10174721.00 L 14081343.00 10187202.00 L 14111476.00 10174721.00  z"/>
<path id="N" d="M 14242668.00 10633890.00 L 14255150.00 10603757.00 L 14242668.00 10573624.00 L 14141608.84 10472565.61 L 14242668.00 10371508.00 L 14255149.00 10341375.00 L 14242668.00 10311242.00 L 14212535.00 10298761.00 L 13818961.00 10298761.00 L 13788828.00 10311242.00 L 13776347.00 10341375.00 L 13788828.00 10371508.00 L 13818961.00 10383989.00 L 14109654.45 10383989.00 L 14051210.00 10442433.00 L 14038728.00 10472566.00 L 14051210.00 10502699.00 L 14109654.89 10561143.00 L 13818961.00 10561143.00 L 13788828.00 10573624.00 L 13776347.00 10603757.00 L 13788828.00 10633890.00 L 13818961.00 10646371.00 L 14212535.00 10646372.00 L 14242668.00 10633890.00  z"/>
<path id="N" d="M 15069441.00 7832106.00 L 15081922.00 7801973.00 L 15069441.00 7771840.00 L 15039308.00 7759359.00 L 14748614.00 7759359.00 L 14807058.00 7700915.00 L 14819539.00 7670782.00 L 14807058.00 7640649.00 L 14748614.00 7582205.00 L 15039308.00 7582205.00 L 15069441.00 7569724.00 L 15081922.00 7539591.00 L 15069441.00 7509458.00 L 15039308.00 7496977.00 L 14645734.00 7496977.00 L 14615601.00 7509458.00 L 14603120.00 7539591.00 L 14615601.00 7569724.00 L 14716659.00 7670782.00 L 14615601.00 7771840.00 L 14603120.00 7801973.00 L 14615601.00 7832106.00 L 14645734.00 7844587.00 L 15039308.00 7844587.00 L 15069441.00 7832106.00  z"/>
<path id="N" d="M 12975277.00 14904438.00 L 13027754.00 14851962.00 L 13037115.00 14829363.00 L 13037115.00 14619457.00 L 13027754.00 14596858.00 L 12975277.00 14544381.00 L 12952678.00 14535020.00 L 12847725.00 14535020.00 L 12825126.00 14544381.00 L 12772650.00 14596858.00 L 12763289.00 14619457.00 L 12763289.00 14829363.00 L 12772650.00 14851962.00 L 12825126.00 14904438.00 L 12847725.00 14913799.00 L 12952678.00 14913799.00 L 12975277.00 14904438.00  zM 12939440.18 14849879.00 L 12860963.00 14849879.00 L 12827209.00 14816125.00 L 12827209.00 14632694.82 L 12860963.18 14598940.00 L 12939440.00 14598940.00 L 12973195.00 14632695.00 L 12973195.00 14816124.82 L 12939440.18 14849879.00  z"/>
<path id="N" d="M 14045881.00 11027464.00 L 14111476.00 10961869.00 L 14123957.00 10931736.00 L 14123957.00 10800545.00 L 14111474.29 10770411.29 L 14045881.00 10704816.00 L 14015748.00 10692335.00 L 13884557.00 10692335.00 L 13854424.00 10704816.00 L 13788828.00 10770412.00 L 13776347.00 10800547.41 L 13776347.00 10931736.00 L 13788829.71 10961869.71 L 13854424.00 11027464.00 L 13884557.00 11039945.00 L 14015748.00 11039945.00 L 14045881.00 11027464.00  zM 13998096.19 10954717.00 L 13902207.81 10954717.00 L 13861575.00 10914084.81 L 13861575.00 10818196.19 L 13902208.81 10777563.00 L 13998096.81 10777563.00 L 14038729.00 10818195.81 L 14038729.00 10914084.81 L 13998096.19 10954717.00  z"/>
<path id="N" d="M 15003845.71 8947230.29 L 15069441.00 8881637.00 L 15081922.00 8851504.00 L 15081922.00 8720313.00 L 15069441.00 8690180.00 L 15003845.00 8624584.00 L 14973709.59 8612103.00 L 14711330.00 8612103.00 L 14681197.00 8624584.00 L 14615601.00 8690180.00 L 14603120.00 8720315.41 L 14603120.00 8851504.00 L 14615602.71 8881637.71 L 14681197.00 8947232.00 L 14711330.00 8959713.00 L 14973712.00 8959713.00 L 15003845.71 8947230.29  zM 14956061.19 8874485.00 L 14728980.81 8874485.00 L 14688348.00 8833852.81 L 14688348.00 8737964.19 L 14728981.81 8697331.00 L 14956060.81 8697331.00 L 14996694.00 8737964.81 L 14996694.00 8833852.81 L 14956061.19 8874485.00  z"/>
<path id="N" d="M 15003845.71 9340804.29 L 15069441.00 9275211.00 L 15081922.00 9245078.00 L 15081923.00 9113887.00 L 15069439.29 9083753.29 L 15003845.00 9018158.00 L 14973712.00 9005677.00 L 14711330.00 9005676.00 L 14681196.29 9018159.71 L 14615601.00 9083754.00 L 14603120.00 9113887.00 L 14603120.00 9245078.00 L 14615602.71 9275211.71 L 14681197.00 9340806.00 L 14711330.00 9353287.00 L 14973712.00 9353287.00 L 15003845.71 9340804.29  zM 14956061.19 9268059.00 L 14728980.81 9268059.00 L 14688348.00 9227426.81 L 14688348.00 9131538.81 L 14728981.19 9090905.00 L 14956060.19 9090905.00 L 14996694.00 9131538.19 L 14996694.00 9227426.81 L 14956061.19 9268059.00  z"/>
<path id="N" d="M 13290137.00 14904438.00 L 13299498.00 14881839.00 L 13290137.00 14859240.00 L 13267538.00 14849879.00 L 13247021.00 14849879.00 L 13247021.00 14598940.00 L 13267538.00 14598940.00 L 13290137.00 14589579.00 L 13299498.00 14566980.00 L 13290137.00 14544381.00 L 13267538.00 14535020.00 L 13162585.00 14535020.00 L 13139986.00 14544381.00 L 13130625.00 14566980.00 L 13139986.00 14589579.00 L 13162585.00 14598940.00 L 13183101.00 14598940.00 L 13183101.00 14849879.00 L 13162585.00 14849879.00 L 13139986.00 14859240.00 L 13130625.00 14881839.00 L 13139986.00 14904438.00 L 13162585.00 14913799.00 L 13267538.00 14913799.00 L 13290137.00 14904438.00  z"/>
<path id="N" d="M 14353130.00 13290265.00 L 14362491.00 13267666.00 L 14353130.00 13245067.00 L 14330531.00 13235706.00 L 14310014.00 13235706.00 L 14310014.00 12984767.00 L 14330531.00 12984767.00 L 14353130.00 12975406.00 L 14362491.00 12952807.00 L 14353130.00 12930208.00 L 14330531.00 12920847.00 L 14225578.00 12920847.00 L 14202979.00 12930208.00 L 14193618.00 12952807.00 L 14202979.00 12975406.00 L 14225578.00 12984767.00 L 14246094.00 12984767.00 L 14246094.00 13235706.00 L 14225578.00 13235706.00 L 14202979.00 13245067.00 L 14193618.00 13267666.00 L 14202979.00 13290265.00 L 14225578.00 13299626.00 L 14330531.00 13299626.00 L 14353130.00 13290265.00  z"/>
<path id="N" d="M 14038270.00 13290265.00 L 14090747.00 13237789.00 L 14100108.00 13215190.00 L 14100108.00 13005284.00 L 14090747.00 12982685.00 L 14038270.00 12930208.00 L 14015671.00 12920847.00 L 13910718.00 12920847.00 L 13888119.00 12930208.00 L 13835643.00 12982685.00 L 13826282.00 13005284.00 L 13826282.00 13215190.00 L 13835643.00 13237789.00 L 13888119.00 13290265.00 L 13910718.00 13299626.00 L 14015671.00 13299626.00 L 14038270.00 13290265.00  zM 14002433.18 13235706.00 L 13923956.00 13235706.00 L 13890202.00 13201952.00 L 13890202.00 13018521.82 L 13923956.18 12984767.00 L 14002433.00 12984767.00 L 14036188.00 13018522.00 L 14036188.00 13201951.82 L 14002433.18 13235706.00  z"/>
<path id="N" d="M 8061629.00 3743936.00 L 8074110.00 3713803.00 L 8074110.00 3690822.00 L 8228283.00 3690822.00 L 8258416.00 3678341.00 L 8270897.00 3648208.00 L 8258416.00 3618075.00 L 8061629.00 3421288.00 L 8031496.00 3408806.00 L 8001363.00 3421288.00 L 7988882.00 3451423.41 L 7988882.00 3605594.00 L 7834709.00 3605594.00 L 7804576.00 3618075.00 L 7792095.00 3648208.00 L 7804576.00 3678341.00 L 7834709.00 3690822.00 L 7988882.00 3690822.00 L 7988882.00 3713803.00 L 8001363.00 3743936.00 L 8031496.00 3756417.00 L 8061629.00 3743936.00  zM 8125403.00 3605594.00 L 8074110.00 3605594.00 L 8074110.00 3554301.00 L 8125403.00 3605594.00  z"/>
<path id="N" d="M 15069441.00 8488063.00 L 15081922.00 8457930.00 L 15081922.00 8326739.00 L 15069441.00 8296606.00 L 15039308.00 8284125.00 L 15009175.00 8296606.00 L 14996694.00 8326739.00 L 14996694.00 8349721.00 L 14688348.00 8349721.00 L 14688348.00 8326739.00 L 14675867.00 8296606.00 L 14645734.00 8284125.00 L 14615601.00 8296606.00 L 14603120.00 8326739.00 L 14603120.00 8457930.00 L 14615601.00 8488063.00 L 14645734.00 8500544.00 L 14675867.00 8488063.00 L 14688348.00 8457930.00 L 14688348.00 8434949.00 L 14996694.00 8434949.00 L 14996694.00 8457930.00 L 15009175.00 8488063.00 L 15039308.00 8500544.00 L 15069441.00 8488063.00  z"/>
<path id="N" d="M 12240606.00 14904438.00 L 12398036.00 14747009.00 L 12407397.00 14724410.00 L 12398036.00 14701811.00 L 12375437.00 14692450.00 L 12249967.00 14692450.00 L 12249967.00 14566980.00 L 12240606.00 14544381.00 L 12218007.00 14535020.00 L 12195408.00 14544381.00 L 12186047.00 14566980.00 L 12186047.00 14692450.00 L 12165531.00 14692450.00 L 12142932.00 14701811.00 L 12133571.00 14724410.00 L 12142932.00 14747009.00 L 12165531.00 14756370.00 L 12186047.00 14756370.00 L 12186047.00 14881839.00 L 12195408.00 14904438.00 L 12218007.00 14913799.00 L 12240606.00 14904438.00  zM 12249967.00 14804681.35 L 12249967.00 14756370.00 L 12298278.65 14756370.00 L 12249967.00 14804681.35  z"/>
<path id="N" d="M 14177072.71 11814610.29 L 14242668.00 11749017.00 L 14255149.00 11718884.00 L 14255149.00 11522097.00 L 14242668.00 11491964.00 L 14212535.00 11479483.00 L 13818961.00 11479483.00 L 13788828.00 11491964.00 L 13776347.00 11522097.00 L 13788828.00 11552230.00 L 13818961.00 11564711.00 L 13907538.00 11564711.00 L 13907538.00 11718884.00 L 13920020.71 11749017.71 L 13985615.00 11814612.00 L 14015748.00 11827093.00 L 14146939.00 11827093.00 L 14177072.71 11814610.29  zM 14129288.19 11741865.00 L 14033398.81 11741865.00 L 13992766.00 11701232.81 L 13992766.00 11564711.00 L 14169921.00 11564711.00 L 14169921.00 11701232.81 L 14129288.19 11741865.00  z"/>
<path id="N" d="M 8757565.00 14910299.00 L 8757565.00 14710364.00 A 54118.70 54118.70 0 1 0 8649325.00 14710364.00 L 8649325.00 14756211.00 L 8103639.00 14756210.00 A 54122.11 54122.11 0 0 0 8065370.00 14848600.00 L 8165338.00 14948568.00 A 54121.84 54121.84 0 1 0 8234297.00 14864451.00 L 8649325.00 14864451.00 L 8649325.00 14910299.00 A 54118.70 54118.70 0 1 0 8757565.00 14910299.00  z"/>
<path id="N" d="M 8641746.00 15548374.00 L 8741714.00 15448406.00 L 8757565.00 15410137.00 L 8757566.00 15210202.00 L 8741714.00 15171933.00 L 8641746.00 15071965.00 L 8603477.00 15056114.00 L 8103639.00 15056114.00 A 54118.70 54118.70 0 0 0 8103639.00 15164354.00 L 8581059.00 15164354.00 L 8649325.00 15232620.00 L 8649325.00 15387719.00 L 8581059.00 15455985.00 L 8103639.00 15455985.00 A 54118.70 54118.70 0 0 0 8103639.00 15564225.00 L 8603477.00 15564226.00 L 8641746.00 15548374.00  z"/>
<path id="N" d="M 12825282.00 2654464.00 L 12837763.00 2624331.00 L 12825282.00 2594198.00 L 12795149.00 2581717.00 L 12484821.81 2581717.00 L 12444189.00 2541084.81 L 12444189.00 2445196.19 L 12484822.81 2404563.00 L 12795149.00 2404563.00 L 12825282.00 2392082.00 L 12837763.00 2361949.00 L 12825282.00 2331816.00 L 12795149.00 2319335.00 L 12467171.00 2319335.00 L 12437038.00 2331816.00 L 12371442.00 2397412.00 L 12358961.00 2427547.41 L 12358961.00 2558736.00 L 12371443.71 2588869.71 L 12437038.00 2654464.00 L 12467171.00 2666945.00 L 12795149.00 2666945.00 L 12825282.00 2654464.00  z"/>
<path id="N" d="M 13849094.00 12076995.00 L 13861575.00 12046862.00 L 13861575.00 12023881.00 L 14081343.00 12023881.00 L 14111476.00 12011400.00 L 14123957.00 11981267.00 L 14123957.00 11915671.00 L 14111476.00 11885538.00 L 14081343.00 11873057.00 L 14051210.00 11885538.00 L 14038729.00 11915671.00 L 14038729.00 11938653.00 L 13861575.00 11938653.00 L 13861575.00 11915671.00 L 13849094.00 11885538.00 L 13818961.00 11873057.00 L 13788828.00 11885538.00 L 13776347.00 11915671.00 L 13776347.00 12046862.00 L 13788828.00 12076995.00 L 13818961.00 12089476.00 L 13849094.00 12076995.00  z"/>
<path id="N" d="M 14045881.71 12536162.29 L 14111476.00 12470569.00 L 14123957.00 12440436.00 L 14123957.00 12243649.00 L 14111476.00 12213516.00 L 14081343.00 12201035.00 L 13818961.00 12201035.00 L 13788828.00 12213516.00 L 13776347.00 12243649.00 L 13788828.00 12273782.00 L 13818961.00 12286263.00 L 14038729.00 12286263.00 L 14038729.00 12422784.19 L 13998096.81 12463417.00 L 13818961.00 12463417.00 L 13788828.00 12475898.00 L 13776347.00 12506031.00 L 13788828.00 12536164.00 L 13818961.00 12548645.00 L 14015748.00 12548645.00 L 14045881.71 12536162.29  z"/>
<path id="N" d="M 14045881.71 11421036.29 L 14111476.00 11355443.00 L 14123957.00 11325310.00 L 14123957.00 11128523.00 L 14111476.00 11098390.00 L 14081343.00 11085909.00 L 13818961.00 11085909.00 L 13788828.00 11098390.00 L 13776347.00 11128523.00 L 13788828.00 11158656.00 L 13818961.00 11171137.00 L 14038729.00 11171137.00 L 14038729.00 11307658.19 L 13998096.81 11348291.00 L 13818961.00 11348291.00 L 13788828.00 11360772.00 L 13776347.00 11390905.00 L 13788828.00 11421038.00 L 13818961.00 11433519.00 L 14015748.00 11433519.00 L 14045881.71 11421036.29  z"/>
<path id="N" d="M 12825282.00 1867316.00 L 12837763.00 1837183.00 L 12825282.00 1807050.00 L 12795149.00 1794569.00 L 12550418.00 1794569.00 L 12461841.00 1705992.00 L 12550418.00 1617415.00 L 12795149.00 1617415.00 L 12825282.00 1604934.00 L 12837763.00 1574801.00 L 12825282.00 1544668.00 L 12795149.00 1532187.00 L 12532766.00 1532187.00 L 12502633.00 1544668.00 L 12371442.00 1675859.00 L 12358961.00 1705992.00 L 12371442.00 1736125.00 L 12502633.00 1867316.00 L 12532766.00 1879797.00 L 12795149.00 1879797.00 L 12825282.00 1867316.00  z"/>
<path id="N" d="M 12025039.00 15708110.00 L 12032965.00 15688976.00 L 12032965.00 13129921.00 L 12025039.00 13110787.00 L 12005905.00 13102861.00 L 11986771.00 13110787.00 L 11978845.00 13129921.00 L 11978845.00 15661916.00 L 4946351.00 15661916.00 L 4946351.00 13129921.00 L 4938425.00 13110787.00 L 4919291.00 13102861.00 L 4900157.00 13110787.00 L 4892231.00 13129921.00 L 4892231.00 15688976.00 L 4900157.00 15708110.00 L 4919291.00 15716036.00 L 12005905.00 15716036.00 L 12025039.00 15708110.00  z"/>
<path id="N" d="M 12478348.92 12740159.92 m -80279.37 0 a 80279.37 80279.37 0 1 1 160558.73 0a 80279.37 80279.37 0 1 1 -160558.73 0"/>
<path id="N" d="M 12025039.00 5924645.00 L 12032965.00 5905511.00 L 12032965.00 5649606.00 L 12025039.00 5630472.00 L 12005905.00 5622546.00 L 11041338.00 5622546.00 L 11022204.00 5630472.00 L 11014278.00 5649606.00 L 11022204.00 5668740.00 L 11041338.00 5676666.00 L 11978845.00 5676666.00 L 11978845.00 5905511.00 L 11986771.00 5924645.00 L 12005905.00 5932571.00 L 12025039.00 5924645.00  z"/>
<path id="N" d="M 4938425.00 5924645.00 L 4946351.00 5905511.00 L 4946351.00 5676666.00 L 5883858.00 5676666.00 L 5902992.00 5668740.00 L 5910918.00 5649606.00 L 5902992.00 5630472.00 L 5883858.00 5622546.00 L 4919291.00 5622546.00 L 4900157.00 5630472.00 L 4892231.00 5649606.00 L 4892231.00 5905511.00 L 4900157.00 5924645.00 L 4919291.00 5932571.00 L 4938425.00 5924645.00  z"/>
<path id="N" d="M 14872654.00 8225680.00 L 14885135.00 8195547.00 L 14885135.00 7933165.00 L 14872654.00 7903032.00 L 14842521.00 7890551.00 L 14812388.00 7903032.00 L 14799907.00 7933165.00 L 14799907.00 8195547.00 L 14812388.00 8225680.00 L 14842521.00 8238161.00 L 14872654.00 8225680.00  z"/>
<path id="N" d="M 14242668.00 12011400.00 L 14255149.00 11981267.00 L 14242668.00 11951134.00 L 14212535.00 11938653.00 L 14182402.00 11951134.00 L 14169921.00 11981267.00 L 14182402.00 12011400.00 L 14212535.00 12023881.00 L 14242668.00 12011400.00  z"/>
</g>
</svg>
