<svg width="42.00000236mm" height="42.00000236mm" viewBox="0 0 16535434 16535434"  version="1.1" xmlns="http://www.w3.org/2000/svg" xmlns:xlink="http://www.w3.org/1999/xlink">
<desc>
Origin 0 0 Bound 286220 50000 16535434 16535434
</desc>
<g fill-rule="evenodd" fill="rgb(255, 0, 255)" stroke="black" stroke-width="1" transform="translate(0, 16535434) scale(1, -1) translate(-286220, -50000)">
<path id="N" d="M 8553916.44 8317600.95 m -8272263.15 0 a 8272263.15 8272263.15 0 1 1 16544526.29 0a 8272263.15 8272263.15 0 1 1 -16544526.29 0M 1968501.73 4881896.78 m -161201.22 0 a 161201.22 161201.22 0 1 1 322402.43 0a 161201.22 161201.22 0 1 1 -322402.43 0M 3897638.43 3228346.13 m -201348.87 0 a 201348.87 201348.87 0 1 1 402697.73 0a 201348.87 201348.87 0 1 1 -402697.73 0M 4763780.43 3228346.13 m -201348.87 0 a 201348.87 201348.87 0 1 1 402697.73 0a 201348.87 201348.87 0 1 1 -402697.73 0M 6429763.00 6083306.00 L 5995433.00 6083306.00 L 5995433.00 5412756.00 L 6429763.00 5412756.00 L 6429763.00 6083306.00  zM 6640401.00 3426182.00 L 6640401.00 2993110.00 A 241485.30 241485.30 0 0 1 7123381.00 2993110.00 L 7123381.00 3426182.00 A 241485.30 241485.30 0 0 1 6640401.00 3426182.00  zM 6732280.73 3897644.78 m -161201.22 0 a 161201.22 161201.22 0 1 1 322402.43 0a 161201.22 161201.22 0 1 1 -322402.43 0M 6929763.00 6083306.00 L 6495433.00 6083306.00 L 6495433.00 5412756.00 L 6929763.00 5412756.00 L 6929763.00 6083306.00  zM 6640401.00 1721457.00 L 6640401.00 1406497.00 A 241485.30 241485.30 0 0 1 7123381.00 1406497.00 L 7123381.00 1721457.00 A 241485.30 241485.30 0 0 1 6640401.00 1721457.00  zM 8433700.00 1693543.00 L 7629292.00 1693543.00 L 7629292.00 904883.00 L 8433700.00 904883.00 L 8433700.00 1693543.00  zM 7444882.13 3012797.07 m -150528.93 0 a 150528.93 150528.93 0 1 1 301057.86 0a 150528.93 150528.93 0 1 1 -301057.86 0M 8433700.00 2874645.00 L 7629292.00 2874645.00 L 7629292.00 2085985.00 L 8433700.00 2085985.00 L 8433700.00 2874645.00  zM 7716532.73 5078746.78 m -161201.22 0 a 161201.22 161201.22 0 1 1 322402.43 0a 161201.22 161201.22 0 1 1 -322402.43 0M 7429763.00 6083306.00 L 6995433.00 6083306.00 L 6995433.00 5412756.00 L 7429763.00 5412756.00 L 7429763.00 6083306.00  zM 8929763.00 6083306.00 L 8495433.00 6083306.00 L 8495433.00 5412756.00 L 8929763.00 5412756.00 L 8929763.00 6083306.00  zM 1496064.87 6322829.34 m -367956.66 0 a 367956.66 367956.66 0 1 1 735913.32 0a 367956.66 367956.66 0 1 1 -735913.32 0M 1496064.87 7322829.34 m -367956.66 0 a 367956.66 367956.66 0 1 1 735913.32 0a 367956.66 367956.66 0 1 1 -735913.32 0M 2860866.00 6687638.00 L 2131260.00 6687638.00 L 2131260.00 5958032.00 L 2860866.00 5958032.00 L 2860866.00 6687638.00  zM 2496064.87 7322829.34 m -367956.66 0 a 367956.66 367956.66 0 1 1 735913.32 0a 367956.66 367956.66 0 1 1 -735913.32 0M 2496064.87 8322829.34 m -367956.66 0 a 367956.66 367956.66 0 1 1 735913.32 0a 367956.66 367956.66 0 1 1 -735913.32 0M 5352991.00 6957322.00 L 4682441.00 6957322.00 L 4682441.00 6522992.00 L 5352991.00 6522992.00 L 5352991.00 6957322.00  zM 5352991.00 6457322.00 L 4682441.00 6457322.00 L 4682441.00 6022992.00 L 5352991.00 6022992.00 L 5352991.00 6457322.00  zM 5352991.00 7457322.00 L 4682441.00 7457322.00 L 4682441.00 7022992.00 L 5352991.00 7022992.00 L 5352991.00 7457322.00  zM 5352991.00 7957322.00 L 4682441.00 7957322.00 L 4682441.00 7522992.00 L 5352991.00 7522992.00 L 5352991.00 7957322.00  zM 5352991.00 8457322.00 L 4682441.00 8457322.00 L 4682441.00 8022992.00 L 5352991.00 8022992.00 L 5352991.00 8457322.00  zM 7244091.73 7598431.78 m -161201.22 0 a 161201.22 161201.22 0 1 1 322402.43 0a 161201.22 161201.22 0 1 1 -322402.43 0M 7929763.00 6083306.00 L 7495433.00 6083306.00 L 7495433.00 5412756.00 L 7929763.00 5412756.00 L 7929763.00 6083306.00  zM 8429763.00 6083306.00 L 7995433.00 6083306.00 L 7995433.00 5412756.00 L 8429763.00 5412756.00 L 8429763.00 6083306.00  zM 9429763.00 6083306.00 L 8995433.00 6083306.00 L 8995433.00 5412756.00 L 9429763.00 5412756.00 L 9429763.00 6083306.00  zM 9615579.00 1693543.00 L 8811171.00 1693543.00 L 8811171.00 904883.00 L 9615579.00 904883.00 L 9615579.00 1693543.00  zM 9615579.00 2874645.00 L 8811171.00 2874645.00 L 8811171.00 2085985.00 L 9615579.00 2085985.00 L 9615579.00 2874645.00  zM 10041975.00 1721457.00 L 10041975.00 1406497.00 A 241485.30 241485.30 0 0 1 10524955.00 1406497.00 L 10524955.00 1721457.00 A 241485.30 241485.30 0 0 1 10041975.00 1721457.00  zM 11141729.73 984258.78 m -161201.22 0 a 161201.22 161201.22 0 1 1 322402.43 0a 161201.22 161201.22 0 1 1 -322402.43 0M 9720472.13 3012797.07 m -150528.93 0 a 150528.93 150528.93 0 1 1 301057.86 0a 150528.93 150528.93 0 1 1 -301057.86 0M 10041975.00 3426182.00 L 10041975.00 2993110.00 A 241485.30 241485.30 0 0 1 10524955.00 2993110.00 L 10524955.00 3426182.00 A 241485.30 241485.30 0 0 1 10041975.00 3426182.00  zM 10511808.73 3937014.78 m -161201.22 0 a 161201.22 161201.22 0 1 1 322402.43 0a 161201.22 161201.22 0 1 1 -322402.43 0M 10078737.73 4960636.78 m -161201.22 0 a 161201.22 161201.22 0 1 1 322402.43 0a 161201.22 161201.22 0 1 1 -322402.43 0M 9929763.00 6083306.00 L 9495433.00 6083306.00 L 9495433.00 5412756.00 L 9929763.00 5412756.00 L 9929763.00 6083306.00  zM 10429763.00 6083306.00 L 9995433.00 6083306.00 L 9995433.00 5412756.00 L 10429763.00 5412756.00 L 10429763.00 6083306.00  zM 11338580.73 5551187.78 m -161201.22 0 a 161201.22 161201.22 0 1 1 322402.43 0a 161201.22 161201.22 0 1 1 -322402.43 0M 10929763.00 6083306.00 L 10495433.00 6083306.00 L 10495433.00 5412756.00 L 10929763.00 5412756.00 L 10929763.00 6083306.00  zM 11023619.73 6889770.78 m -161201.22 0 a 161201.22 161201.22 0 1 1 322402.43 0a 161201.22 161201.22 0 1 1 -322402.43 0M 11023619.73 7283471.78 m -161201.22 0 a 161201.22 161201.22 0 1 1 322402.43 0a 161201.22 161201.22 0 1 1 -322402.43 0M 11653540.73 1732289.78 m -161201.22 0 a 161201.22 161201.22 0 1 1 322402.43 0a 161201.22 161201.22 0 1 1 -322402.43 0M 13307089.00 2204717.05 m -338174.95 0 a 338174.95 338174.95 0 1 1 676349.89 0a 338174.95 338174.95 0 1 1 -676349.89 0M 13188976.43 3307087.13 m -201348.87 0 a 201348.87 201348.87 0 1 1 402697.73 0a 201348.87 201348.87 0 1 1 -402697.73 0M 12242755.00 6457322.00 L 11572205.00 6457322.00 L 11572205.00 6022992.00 L 12242755.00 6022992.00 L 12242755.00 6457322.00  zM 12242755.00 6957322.00 L 11572205.00 6957322.00 L 11572205.00 6522992.00 L 12242755.00 6522992.00 L 12242755.00 6957322.00  zM 15020315.00 6693543.00 L 14546615.00 6693543.00 L 14546615.00 5904883.00 L 15020315.00 5904883.00 L 15020315.00 6693543.00  zM 16240787.00 6693543.00 L 15767087.00 6693543.00 L 15767087.00 5904883.00 L 16240787.00 5904883.00 L 16240787.00 6693543.00  zM 12242755.00 7457322.00 L 11572205.00 7457322.00 L 11572205.00 7022992.00 L 12242755.00 7022992.00 L 12242755.00 7457322.00  zM 12716535.43 7165354.13 m -201348.87 0 a 201348.87 201348.87 0 1 1 402697.73 0a 201348.87 201348.87 0 1 1 -402697.73 0M 12242755.00 7957322.00 L 11572205.00 7957322.00 L 11572205.00 7522992.00 L 12242755.00 7522992.00 L 12242755.00 7957322.00  zM 12242755.00 8457322.00 L 11572205.00 8457322.00 L 11572205.00 8022992.00 L 12242755.00 8022992.00 L 12242755.00 8457322.00  zM 15886458.00 7480942.00 L 15412758.00 7480942.00 L 15412758.00 6928502.00 L 15886458.00 6928502.00 L 15886458.00 7480942.00  zM 16555747.00 7480942.00 L 16082047.00 7480942.00 L 16082047.00 6928502.00 L 16555747.00 6928502.00 L 16555747.00 7480942.00  zM 16338580.73 7834652.78 m -161201.22 0 a 161201.22 161201.22 0 1 1 322402.43 0a 161201.22 161201.22 0 1 1 -322402.43 0M 1496064.87 8322829.34 m -367956.66 0 a 367956.66 367956.66 0 1 1 735913.32 0a 367956.66 367956.66 0 1 1 -735913.32 0M 1496064.87 9322829.34 m -367956.66 0 a 367956.66 367956.66 0 1 1 735913.32 0a 367956.66 367956.66 0 1 1 -735913.32 0M 2496064.87 9322829.34 m -367956.66 0 a 367956.66 367956.66 0 1 1 735913.32 0a 367956.66 367956.66 0 1 1 -735913.32 0M 5352991.00 8957322.00 L 4682441.00 8957322.00 L 4682441.00 8522992.00 L 5352991.00 8522992.00 L 5352991.00 8957322.00  zM 5352991.00 9457322.00 L 4682441.00 9457322.00 L 4682441.00 9022992.00 L 5352991.00 9022992.00 L 5352991.00 9457322.00  zM 5352991.00 9957322.00 L 4682441.00 9957322.00 L 4682441.00 9522992.00 L 5352991.00 9522992.00 L 5352991.00 9957322.00  zM 5352991.00 10457322.00 L 4682441.00 10457322.00 L 4682441.00 10022992.00 L 5352991.00 10022992.00 L 5352991.00 10457322.00  zM 1496064.87 10322829.34 m -367956.66 0 a 367956.66 367956.66 0 1 1 735913.32 0a 367956.66 367956.66 0 1 1 -735913.32 0M 2496064.87 10322829.34 m -367956.66 0 a 367956.66 367956.66 0 1 1 735913.32 0a 367956.66 367956.66 0 1 1 -735913.32 0M 4251966.73 12755912.78 m -161201.22 0 a 161201.22 161201.22 0 1 1 322402.43 0a 161201.22 161201.22 0 1 1 -322402.43 0M 5352991.00 12457322.00 L 4682441.00 12457322.00 L 4682441.00 12022992.00 L 5352991.00 12022992.00 L 5352991.00 12457322.00  zM 5352991.00 10957322.00 L 4682441.00 10957322.00 L 4682441.00 10522992.00 L 5352991.00 10522992.00 L 5352991.00 10957322.00  zM 5352991.00 11457322.00 L 4682441.00 11457322.00 L 4682441.00 11022992.00 L 5352991.00 11022992.00 L 5352991.00 11457322.00  zM 5352991.00 12957322.00 L 4682441.00 12957322.00 L 4682441.00 12522992.00 L 5352991.00 12522992.00 L 5352991.00 12957322.00  zM 5708658.73 9291345.78 m -161201.22 0 a 161201.22 161201.22 0 1 1 322402.43 0a 161201.22 161201.22 0 1 1 -322402.43 0M 5748028.73 10000006.78 m -161201.22 0 a 161201.22 161201.22 0 1 1 322402.43 0a 161201.22 161201.22 0 1 1 -322402.43 0M 5352991.00 11957322.00 L 4682441.00 11957322.00 L 4682441.00 11522992.00 L 5352991.00 11522992.00 L 5352991.00 11957322.00  zM 5866139.73 11929140.78 m -161201.22 0 a 161201.22 161201.22 0 1 1 322402.43 0a 161201.22 161201.22 0 1 1 -322402.43 0M 6062992.43 8503937.13 m -201348.87 0 a 201348.87 201348.87 0 1 1 402697.73 0a 201348.87 201348.87 0 1 1 -402697.73 0M 6467323.43 8897638.13 m -201348.87 0 a 201348.87 201348.87 0 1 1 402697.73 0a 201348.87 201348.87 0 1 1 -402697.73 0M 8719133.00 9917952.00 L 8284803.00 9917952.00 L 8284803.00 9483622.00 L 8719133.00 9483622.00 L 8719133.00 9917952.00  zM 8719133.00 9366771.00 L 8284803.00 9366771.00 L 8284803.00 8932441.00 L 8719133.00 8932441.00 L 8719133.00 9366771.00  zM 9270314.00 9917952.00 L 8835984.00 9917952.00 L 8835984.00 9483622.00 L 9270314.00 9483622.00 L 9270314.00 9917952.00  zM 8719133.00 10469133.00 L 8284803.00 10469133.00 L 8284803.00 10034803.00 L 8719133.00 10034803.00 L 8719133.00 10469133.00  zM 9270314.00 10469133.00 L 8835984.00 10469133.00 L 8835984.00 10034803.00 L 9270314.00 10034803.00 L 9270314.00 10469133.00  zM 9270314.00 9366771.00 L 8835984.00 9366771.00 L 8835984.00 8932441.00 L 9270314.00 8932441.00 L 9270314.00 9366771.00  zM 9821495.00 9917952.00 L 9387165.00 9917952.00 L 9387165.00 9483622.00 L 9821495.00 9483622.00 L 9821495.00 9917952.00  zM 9821495.00 9366771.00 L 9387165.00 9366771.00 L 9387165.00 8932441.00 L 9821495.00 8932441.00 L 9821495.00 9366771.00  zM 10275588.73 8582683.78 m -161201.22 0 a 161201.22 161201.22 0 1 1 322402.43 0a 161201.22 161201.22 0 1 1 -322402.43 0M 11220469.73 8543313.78 m -161201.22 0 a 161201.22 161201.22 0 1 1 322402.43 0a 161201.22 161201.22 0 1 1 -322402.43 0M 10905509.73 9448825.78 m -161201.22 0 a 161201.22 161201.22 0 1 1 322402.43 0a 161201.22 161201.22 0 1 1 -322402.43 0M 10433068.73 10157486.78 m -161201.22 0 a 161201.22 161201.22 0 1 1 322402.43 0a 161201.22 161201.22 0 1 1 -322402.43 0M 11220469.73 8937014.78 m -161201.22 0 a 161201.22 161201.22 0 1 1 322402.43 0a 161201.22 161201.22 0 1 1 -322402.43 0M 12242755.00 8957322.00 L 11572205.00 8957322.00 L 11572205.00 8522992.00 L 12242755.00 8522992.00 L 12242755.00 8957322.00  zM 12242755.00 9457322.00 L 11572205.00 9457322.00 L 11572205.00 9022992.00 L 12242755.00 9022992.00 L 12242755.00 9457322.00  zM 9821495.00 10469133.00 L 9387165.00 10469133.00 L 9387165.00 10034803.00 L 9821495.00 10034803.00 L 9821495.00 10469133.00  zM 10905509.73 10511817.78 m -161201.22 0 a 161201.22 161201.22 0 1 1 322402.43 0a 161201.22 161201.22 0 1 1 -322402.43 0M 12242755.00 10457322.00 L 11572205.00 10457322.00 L 11572205.00 10022992.00 L 12242755.00 10022992.00 L 12242755.00 10457322.00  zM 12242755.00 11457322.00 L 11572205.00 11457322.00 L 11572205.00 11022992.00 L 12242755.00 11022992.00 L 12242755.00 11457322.00  zM 11141729.73 11732289.78 m -161201.22 0 a 161201.22 161201.22 0 1 1 322402.43 0a 161201.22 161201.22 0 1 1 -322402.43 0M 12242755.00 12957322.00 L 11572205.00 12957322.00 L 11572205.00 12522992.00 L 12242755.00 12522992.00 L 12242755.00 12957322.00  zM 11023619.73 12834652.78 m -161201.22 0 a 161201.22 161201.22 0 1 1 322402.43 0a 161201.22 161201.22 0 1 1 -322402.43 0M 12242755.00 9957322.00 L 11572205.00 9957322.00 L 11572205.00 9522992.00 L 12242755.00 9522992.00 L 12242755.00 9957322.00  zM 13031493.73 9173234.78 m -161201.22 0 a 161201.22 161201.22 0 1 1 322402.43 0a 161201.22 161201.22 0 1 1 -322402.43 0M 12242755.00 10957322.00 L 11572205.00 10957322.00 L 11572205.00 10522992.00 L 12242755.00 10522992.00 L 12242755.00 10957322.00  zM 13622677.00 11654173.00 L 12755275.00 11654173.00 L 12755275.00 10786771.00 L 13622677.00 10786771.00 L 13622677.00 11654173.00  zM 15886458.00 9685672.00 L 15412758.00 9685672.00 L 15412758.00 9133232.00 L 15886458.00 9133232.00 L 15886458.00 9685672.00  zM 16555747.00 9685672.00 L 16082047.00 9685672.00 L 16082047.00 9133232.00 L 16555747.00 9133232.00 L 16555747.00 9685672.00  zM 16338580.73 8858274.78 m -161201.22 0 a 161201.22 161201.22 0 1 1 322402.43 0a 161201.22 161201.22 0 1 1 -322402.43 0M 12242755.00 11957322.00 L 11572205.00 11957322.00 L 11572205.00 11522992.00 L 12242755.00 11522992.00 L 12242755.00 11957322.00  zM 12242755.00 12457322.00 L 11572205.00 12457322.00 L 11572205.00 12022992.00 L 12242755.00 12022992.00 L 12242755.00 12457322.00  zM 12677165.43 13110236.13 m -201348.87 0 a 201348.87 201348.87 0 1 1 402697.73 0a 201348.87 201348.87 0 1 1 -402697.73 0M 12677167.00 13937001.05 m -338174.95 0 a 338174.95 338174.95 0 1 1 676349.89 0a 338174.95 338174.95 0 1 1 -676349.89 0M 13188973.73 12716541.78 m -161201.22 0 a 161201.22 161201.22 0 1 1 322402.43 0a 161201.22 161201.22 0 1 1 -322402.43 0M 13779530.00 13937001.05 m -338174.95 0 a 338174.95 338174.95 0 1 1 676349.89 0a 338174.95 338174.95 0 1 1 -676349.89 0M 14724409.43 13110236.13 m -201348.87 0 a 201348.87 201348.87 0 1 1 402697.73 0a 201348.87 201348.87 0 1 1 -402697.73 0"/>
</g>
</svg>
