<svg width="42.00000236mm" height="42.00000236mm" viewBox="0 0 16535434 16535434"  version="1.1" xmlns="http://www.w3.org/2000/svg" xmlns:xlink="http://www.w3.org/1999/xlink">
<desc>
Origin 0 0 Bound 286220 50000 16535434 16535434
</desc>
<g fill-rule="evenodd" fill="rgb(128, 0, 128)" stroke="black" stroke-width="1" transform="translate(0, 16535434) scale(1, -1) translate(-286220, -50000)">
<path id="N" d="M 8553916.44 8317600.95 m -8272263.15 0 a 8272263.15 8272263.15 0 1 1 16544526.29 0a 8272263.15 8272263.15 0 1 1 -16544526.29 0M 3504561.00 3465196.00 L 2952121.00 3465196.00 L 2952121.00 2991496.00 L 3504561.00 2991496.00 L 3504561.00 3465196.00  zM 3504561.00 4134485.00 L 2952121.00 4134485.00 L 2952121.00 3660785.00 L 3504561.00 3660785.00 L 3504561.00 4134485.00  zM 1968501.73 4881896.78 m -161201.22 0 a 161201.22 161201.22 0 1 1 322402.43 0a 161201.22 161201.22 0 1 1 -322402.43 0M 2815590.00 5276220.00 L 2341890.00 5276220.00 L 2341890.00 4487560.00 L 2815590.00 4487560.00 L 2815590.00 5276220.00  zM 4036062.00 5276220.00 L 3562362.00 5276220.00 L 3562362.00 4487560.00 L 4036062.00 4487560.00 L 4036062.00 5276220.00  zM 3897638.43 3228346.13 m -201348.87 0 a 201348.87 201348.87 0 1 1 402697.73 0a 201348.87 201348.87 0 1 1 -402697.73 0M 4763780.43 3228346.13 m -201348.87 0 a 201348.87 201348.87 0 1 1 402697.73 0a 201348.87 201348.87 0 1 1 -402697.73 0M 5709291.00 4134485.00 L 5156851.00 4134485.00 L 5156851.00 3660785.00 L 5709291.00 3660785.00 L 5709291.00 4134485.00  zM 5147107.00 5284181.00 L 4358447.00 5284181.00 L 4358447.00 4479773.00 L 5147107.00 4479773.00 L 5147107.00 5284181.00  zM 6640401.00 1721457.00 L 6640401.00 1406497.00 A 241485.30 241485.30 0 0 1 7123381.00 1406497.00 L 7123381.00 1721457.00 A 241485.30 241485.30 0 0 1 6640401.00 1721457.00  zM 7444882.13 3012797.07 m -150528.93 0 a 150528.93 150528.93 0 1 1 301057.86 0a 150528.93 150528.93 0 1 1 -301057.86 0M 5709291.00 3465196.00 L 5156851.00 3465196.00 L 5156851.00 2991496.00 L 5709291.00 2991496.00 L 5709291.00 3465196.00  zM 6640401.00 3426182.00 L 6640401.00 2993110.00 A 241485.30 241485.30 0 0 1 7123381.00 2993110.00 L 7123381.00 3426182.00 A 241485.30 241485.30 0 0 1 6640401.00 3426182.00  zM 6732280.73 3897644.78 m -161201.22 0 a 161201.22 161201.22 0 1 1 322402.43 0a 161201.22 161201.22 0 1 1 -322402.43 0M 6328209.00 5284181.00 L 5539549.00 5284181.00 L 5539549.00 4479773.00 L 6328209.00 4479773.00 L 6328209.00 5284181.00  zM 7460630.00 3682087.00 L 7185040.00 3682087.00 L 7185040.00 3189961.00 L 7460630.00 3189961.00 L 7460630.00 3682087.00  zM 7775591.00 3682087.00 L 7500001.00 3682087.00 L 7500001.00 3189961.00 L 7775591.00 3189961.00 L 7775591.00 3682087.00  zM 8070863.73 2519691.78 m -161201.22 0 a 161201.22 161201.22 0 1 1 322402.43 0a 161201.22 161201.22 0 1 1 -322402.43 0M 9153544.00 3682087.00 L 8996064.00 3682087.00 L 8996064.00 3189961.00 L 9153544.00 3189961.00 L 9153544.00 3682087.00  zM 9213372.73 2480321.78 m -161201.22 0 a 161201.22 161201.22 0 1 1 322402.43 0a 161201.22 161201.22 0 1 1 -322402.43 0M 9665355.00 3682087.00 L 9389765.00 3682087.00 L 9389765.00 3189961.00 L 9665355.00 3189961.00 L 9665355.00 3682087.00  zM 10041975.00 1721457.00 L 10041975.00 1406497.00 A 241485.30 241485.30 0 0 1 10524955.00 1406497.00 L 10524955.00 1721457.00 A 241485.30 241485.30 0 0 1 10041975.00 1721457.00  zM 9720472.13 3012797.07 m -150528.93 0 a 150528.93 150528.93 0 1 1 301057.86 0a 150528.93 150528.93 0 1 1 -301057.86 0M 10041975.00 3426182.00 L 10041975.00 2993110.00 A 241485.30 241485.30 0 0 1 10524955.00 2993110.00 L 10524955.00 3426182.00 A 241485.30 241485.30 0 0 1 10041975.00 3426182.00  zM 9980316.00 3682087.00 L 9704726.00 3682087.00 L 9704726.00 3189961.00 L 9980316.00 3189961.00 L 9980316.00 3682087.00  zM 7972442.00 3682087.00 L 7814962.00 3682087.00 L 7814962.00 3189961.00 L 7972442.00 3189961.00 L 7972442.00 3682087.00  zM 8169292.00 3682087.00 L 8011812.00 3682087.00 L 8011812.00 3189961.00 L 8169292.00 3189961.00 L 8169292.00 3682087.00  zM 8366142.00 3682087.00 L 8208662.00 3682087.00 L 8208662.00 3189961.00 L 8366142.00 3189961.00 L 8366142.00 3682087.00  zM 8562993.00 3682087.00 L 8405513.00 3682087.00 L 8405513.00 3189961.00 L 8562993.00 3189961.00 L 8562993.00 3682087.00  zM 8956694.00 3682087.00 L 8799214.00 3682087.00 L 8799214.00 3189961.00 L 8956694.00 3189961.00 L 8956694.00 3682087.00  zM 9350394.00 3682087.00 L 9192914.00 3682087.00 L 9192914.00 3189961.00 L 9350394.00 3189961.00 L 9350394.00 3682087.00  zM 8759843.00 3682087.00 L 8602363.00 3682087.00 L 8602363.00 3189961.00 L 8759843.00 3189961.00 L 8759843.00 3682087.00  zM 10078737.73 4960636.78 m -161201.22 0 a 161201.22 161201.22 0 1 1 322402.43 0a 161201.22 161201.22 0 1 1 -322402.43 0M 1496064.87 6322829.34 m -367956.66 0 a 367956.66 367956.66 0 1 1 735913.32 0a 367956.66 367956.66 0 1 1 -735913.32 0M 1496064.87 7322829.34 m -367956.66 0 a 367956.66 367956.66 0 1 1 735913.32 0a 367956.66 367956.66 0 1 1 -735913.32 0M 2496064.87 7322829.34 m -367956.66 0 a 367956.66 367956.66 0 1 1 735913.32 0a 367956.66 367956.66 0 1 1 -735913.32 0M 1496064.87 8322829.34 m -367956.66 0 a 367956.66 367956.66 0 1 1 735913.32 0a 367956.66 367956.66 0 1 1 -735913.32 0M 2496064.87 8322829.34 m -367956.66 0 a 367956.66 367956.66 0 1 1 735913.32 0a 367956.66 367956.66 0 1 1 -735913.32 0M 2860866.00 6687638.00 L 2131260.00 6687638.00 L 2131260.00 5958032.00 L 2860866.00 5958032.00 L 2860866.00 6687638.00  zM 5708658.73 9291345.78 m -161201.22 0 a 161201.22 161201.22 0 1 1 322402.43 0a 161201.22 161201.22 0 1 1 -322402.43 0M 6062992.43 8503937.13 m -201348.87 0 a 201348.87 201348.87 0 1 1 402697.73 0a 201348.87 201348.87 0 1 1 -402697.73 0M 6467323.43 8897638.13 m -201348.87 0 a 201348.87 201348.87 0 1 1 402697.73 0a 201348.87 201348.87 0 1 1 -402697.73 0M 1496064.87 9322829.34 m -367956.66 0 a 367956.66 367956.66 0 1 1 735913.32 0a 367956.66 367956.66 0 1 1 -735913.32 0M 1496064.87 10322829.34 m -367956.66 0 a 367956.66 367956.66 0 1 1 735913.32 0a 367956.66 367956.66 0 1 1 -735913.32 0M 2496064.87 9322829.34 m -367956.66 0 a 367956.66 367956.66 0 1 1 735913.32 0a 367956.66 367956.66 0 1 1 -735913.32 0M 2496064.87 10322829.34 m -367956.66 0 a 367956.66 367956.66 0 1 1 735913.32 0a 367956.66 367956.66 0 1 1 -735913.32 0M 6260472.00 10423278.00 L 5471812.00 10423278.00 L 5471812.00 9618870.00 L 6260472.00 9618870.00 L 6260472.00 10423278.00  zM 4251966.73 12755912.78 m -161201.22 0 a 161201.22 161201.22 0 1 1 322402.43 0a 161201.22 161201.22 0 1 1 -322402.43 0M 7441574.00 10423278.00 L 6652914.00 10423278.00 L 6652914.00 9618870.00 L 7441574.00 9618870.00 L 7441574.00 10423278.00  zM 6260472.00 12331338.00 L 5471812.00 12331338.00 L 5471812.00 11526930.00 L 6260472.00 11526930.00 L 6260472.00 12331338.00  zM 7716532.73 5078746.78 m -161201.22 0 a 161201.22 161201.22 0 1 1 322402.43 0a 161201.22 161201.22 0 1 1 -322402.43 0M 8425827.00 5394330.00 L 7991497.00 5394330.00 L 7991497.00 4763150.00 L 8425827.00 4763150.00 L 8425827.00 5394330.00  zM 9173858.00 5394330.00 L 8739528.00 5394330.00 L 8739528.00 4763150.00 L 9173858.00 4763150.00 L 9173858.00 5394330.00  zM 9134488.00 6260472.00 L 8621418.00 6260472.00 L 8621418.00 5629292.00 L 9134488.00 5629292.00 L 9134488.00 6260472.00  zM 8425827.00 6260472.00 L 7991497.00 6260472.00 L 7991497.00 5629292.00 L 8425827.00 5629292.00 L 8425827.00 6260472.00  zM 7244091.73 7598431.78 m -161201.22 0 a 161201.22 161201.22 0 1 1 322402.43 0a 161201.22 161201.22 0 1 1 -322402.43 0M 8673228.00 7508167.00 L 8326772.00 7508167.00 A 84942.89 84942.89 0 0 1 8241833.00 7423228.00 L 8241833.00 6828740.00 A 84942.89 84942.89 0 0 1 8326772.00 6743801.00 L 8673228.00 6743801.00 A 84942.89 84942.89 0 0 1 8758167.00 6828740.00 L 8758167.00 7423228.00 A 84942.89 84942.89 0 0 1 8673228.00 7508167.00  zM 9862204.00 7508167.00 L 9515748.00 7508167.00 A 84942.89 84942.89 0 0 1 9430809.00 7423228.00 L 9430809.00 6828740.00 A 84942.89 84942.89 0 0 1 9515748.00 6743801.00 L 9862204.00 6743801.00 A 84942.89 84942.89 0 0 1 9947143.00 6828740.00 L 9947143.00 7423228.00 A 84942.89 84942.89 0 0 1 9862204.00 7508167.00  zM 8728729.00 8582015.00 L 7940069.00 8582015.00 L 7940069.00 7777607.00 L 8728729.00 7777607.00 L 8728729.00 8582015.00  zM 9909831.00 8582015.00 L 9121171.00 8582015.00 L 9121171.00 7777607.00 L 9909831.00 7777607.00 L 9909831.00 8582015.00  zM 10275588.73 8582683.78 m -161201.22 0 a 161201.22 161201.22 0 1 1 322402.43 0a 161201.22 161201.22 0 1 1 -322402.43 0M 9961259.00 11622676.00 L 9172599.00 11622676.00 L 9172599.00 10818268.00 L 9961259.00 10818268.00 L 9961259.00 11622676.00  zM 7441574.00 12331338.00 L 6652914.00 12331338.00 L 6652914.00 11526930.00 L 7441574.00 11526930.00 L 7441574.00 12331338.00  zM 8780157.00 11622676.00 L 7991497.00 11622676.00 L 7991497.00 10818268.00 L 8780157.00 10818268.00 L 8780157.00 11622676.00  zM 8673228.00 12705018.00 L 8326772.00 12705018.00 A 84942.89 84942.89 0 0 1 8241833.00 12620079.00 L 8241833.00 12025591.00 A 84942.89 84942.89 0 0 1 8326772.00 11940652.00 L 8673228.00 11940652.00 A 84942.89 84942.89 0 0 1 8758167.00 12025591.00 L 8758167.00 12620079.00 A 84942.89 84942.89 0 0 1 8673228.00 12705018.00  zM 9862204.00 12705018.00 L 9515748.00 12705018.00 A 84942.89 84942.89 0 0 1 9430809.00 12620079.00 L 9430809.00 12025591.00 A 84942.89 84942.89 0 0 1 9515748.00 11940652.00 L 9862204.00 11940652.00 A 84942.89 84942.89 0 0 1 9947143.00 12025591.00 L 9947143.00 12620079.00 A 84942.89 84942.89 0 0 1 9862204.00 12705018.00  zM 11141729.73 984258.78 m -161201.22 0 a 161201.22 161201.22 0 1 1 322402.43 0a 161201.22 161201.22 0 1 1 -322402.43 0M 11653540.73 1732289.78 m -161201.22 0 a 161201.22 161201.22 0 1 1 322402.43 0a 161201.22 161201.22 0 1 1 -322402.43 0M 10511808.73 3937014.78 m -161201.22 0 a 161201.22 161201.22 0 1 1 322402.43 0a 161201.22 161201.22 0 1 1 -322402.43 0M 13307089.00 2204717.05 m -338174.95 0 a 338174.95 338174.95 0 1 1 676349.89 0a 338174.95 338174.95 0 1 1 -676349.89 0M 13188976.43 3307087.13 m -201348.87 0 a 201348.87 201348.87 0 1 1 402697.73 0a 201348.87 201348.87 0 1 1 -402697.73 0M 11338580.73 5551187.78 m -161201.22 0 a 161201.22 161201.22 0 1 1 322402.43 0a 161201.22 161201.22 0 1 1 -322402.43 0M 13583307.00 4213229.00 L 12794647.00 4213229.00 L 12794647.00 3739529.00 L 13583307.00 3739529.00 L 13583307.00 4213229.00  zM 13583307.00 5433701.00 L 12794647.00 5433701.00 L 12794647.00 4960001.00 L 13583307.00 4960001.00 L 13583307.00 5433701.00  zM 14811653.00 4803779.00 L 14007245.00 4803779.00 L 14007245.00 4015119.00 L 14811653.00 4015119.00 L 14811653.00 4803779.00  zM 11958661.00 6250001.00 L 11860237.00 6250001.00 L 11860237.00 5974411.00 L 11958661.00 5974411.00 L 11958661.00 6250001.00  zM 12155511.00 6250001.00 L 12057087.00 6250001.00 L 12057087.00 5974411.00 L 12155511.00 5974411.00 L 12155511.00 6250001.00  zM 12352362.00 6250001.00 L 12253938.00 6250001.00 L 12253938.00 5974411.00 L 12352362.00 5974411.00 L 12352362.00 6250001.00  zM 12549212.00 6250001.00 L 12450788.00 6250001.00 L 12450788.00 5974411.00 L 12549212.00 5974411.00 L 12549212.00 6250001.00  zM 12746063.00 6250001.00 L 12647639.00 6250001.00 L 12647639.00 5974411.00 L 12746063.00 5974411.00 L 12746063.00 6250001.00  zM 12942913.00 6250001.00 L 12844489.00 6250001.00 L 12844489.00 5974411.00 L 12942913.00 5974411.00 L 12942913.00 6250001.00  zM 13316929.00 6446851.00 L 13041339.00 6446851.00 L 13041339.00 6348427.00 L 13316929.00 6348427.00 L 13316929.00 6446851.00  zM 14811653.00 5984881.00 L 14007245.00 5984881.00 L 14007245.00 5196221.00 L 14811653.00 5196221.00 L 14811653.00 5984881.00  zM 11023619.73 6889770.78 m -161201.22 0 a 161201.22 161201.22 0 1 1 322402.43 0a 161201.22 161201.22 0 1 1 -322402.43 0M 11761811.00 6643701.00 L 11486221.00 6643701.00 L 11486221.00 6545277.00 L 11761811.00 6545277.00 L 11761811.00 6643701.00  zM 11761811.00 6446851.00 L 11486221.00 6446851.00 L 11486221.00 6348427.00 L 11761811.00 6348427.00 L 11761811.00 6446851.00  zM 11761811.00 6840552.00 L 11486221.00 6840552.00 L 11486221.00 6742128.00 L 11761811.00 6742128.00 L 11761811.00 6840552.00  zM 11023619.73 7283471.78 m -161201.22 0 a 161201.22 161201.22 0 1 1 322402.43 0a 161201.22 161201.22 0 1 1 -322402.43 0M 11761811.00 7431103.00 L 11486221.00 7431103.00 L 11486221.00 7332679.00 L 11761811.00 7332679.00 L 11761811.00 7431103.00  zM 11761811.00 7037402.00 L 11486221.00 7037402.00 L 11486221.00 6938978.00 L 11761811.00 6938978.00 L 11761811.00 7037402.00  zM 11761811.00 7234253.00 L 11486221.00 7234253.00 L 11486221.00 7135829.00 L 11761811.00 7135829.00 L 11761811.00 7234253.00  zM 12942913.00 7431103.00 L 11860237.00 7431103.00 L 11860237.00 6348427.00 L 12942913.00 6348427.00 L 12942913.00 7431103.00  zM 13316929.00 7234253.00 L 13041339.00 7234253.00 L 13041339.00 7135829.00 L 13316929.00 7135829.00 L 13316929.00 7234253.00  zM 13316929.00 6643701.00 L 13041339.00 6643701.00 L 13041339.00 6545277.00 L 13316929.00 6545277.00 L 13316929.00 6643701.00  zM 13316929.00 6840552.00 L 13041339.00 6840552.00 L 13041339.00 6742128.00 L 13316929.00 6742128.00 L 13316929.00 6840552.00  zM 13316929.00 7037402.00 L 13041339.00 7037402.00 L 13041339.00 6938978.00 L 13316929.00 6938978.00 L 13316929.00 7037402.00  zM 13316929.00 7431103.00 L 13041339.00 7431103.00 L 13041339.00 7332679.00 L 13316929.00 7332679.00 L 13316929.00 7431103.00  zM 14488819.00 7725039.00 L 13700159.00 7725039.00 L 13700159.00 6920631.00 L 14488819.00 6920631.00 L 14488819.00 7725039.00  zM 15669921.00 7725039.00 L 14881261.00 7725039.00 L 14881261.00 6920631.00 L 15669921.00 6920631.00 L 15669921.00 7725039.00  zM 11958661.00 7805119.00 L 11860237.00 7805119.00 L 11860237.00 7529529.00 L 11958661.00 7529529.00 L 11958661.00 7805119.00  zM 12155511.00 7805119.00 L 12057087.00 7805119.00 L 12057087.00 7529529.00 L 12155511.00 7529529.00 L 12155511.00 7805119.00  zM 11220469.73 8543313.78 m -161201.22 0 a 161201.22 161201.22 0 1 1 322402.43 0a 161201.22 161201.22 0 1 1 -322402.43 0M 12352362.00 7805119.00 L 12253938.00 7805119.00 L 12253938.00 7529529.00 L 12352362.00 7529529.00 L 12352362.00 7805119.00  zM 12549212.00 7805119.00 L 12450788.00 7805119.00 L 12450788.00 7529529.00 L 12549212.00 7529529.00 L 12549212.00 7805119.00  zM 10905509.73 9448825.78 m -161201.22 0 a 161201.22 161201.22 0 1 1 322402.43 0a 161201.22 161201.22 0 1 1 -322402.43 0M 10433068.73 10157486.78 m -161201.22 0 a 161201.22 161201.22 0 1 1 322402.43 0a 161201.22 161201.22 0 1 1 -322402.43 0M 11220469.73 8937014.78 m -161201.22 0 a 161201.22 161201.22 0 1 1 322402.43 0a 161201.22 161201.22 0 1 1 -322402.43 0M 12077402.00 10354960.00 L 11465906.00 10354960.00 L 11465906.00 10038740.00 L 12077402.00 10038740.00 L 12077402.00 10354960.00  zM 12746063.00 7805119.00 L 12647639.00 7805119.00 L 12647639.00 7529529.00 L 12746063.00 7529529.00 L 12746063.00 7805119.00  zM 12942913.00 7805119.00 L 12844489.00 7805119.00 L 12844489.00 7529529.00 L 12942913.00 7529529.00 L 12942913.00 7805119.00  zM 13031493.73 9173234.78 m -161201.22 0 a 161201.22 161201.22 0 1 1 322402.43 0a 161201.22 161201.22 0 1 1 -322402.43 0M 13022284.00 9980944.00 L 12410788.00 9980944.00 L 12410788.00 9664724.00 L 13022284.00 9664724.00 L 13022284.00 9980944.00  zM 14488819.00 8932688.00 L 13700159.00 8932688.00 L 13700159.00 8128280.00 L 14488819.00 8128280.00 L 14488819.00 8932688.00  zM 15669921.00 8932688.00 L 14881261.00 8932688.00 L 14881261.00 8128280.00 L 15669921.00 8128280.00 L 15669921.00 8932688.00  zM 16338580.73 7834652.78 m -161201.22 0 a 161201.22 161201.22 0 1 1 322402.43 0a 161201.22 161201.22 0 1 1 -322402.43 0M 16338580.73 8858274.78 m -161201.22 0 a 161201.22 161201.22 0 1 1 322402.43 0a 161201.22 161201.22 0 1 1 -322402.43 0M 10905509.73 10511817.78 m -161201.22 0 a 161201.22 161201.22 0 1 1 322402.43 0a 161201.22 161201.22 0 1 1 -322402.43 0M 11141729.73 11732289.78 m -161201.22 0 a 161201.22 161201.22 0 1 1 322402.43 0a 161201.22 161201.22 0 1 1 -322402.43 0M 13022284.00 10728975.00 L 12410788.00 10728975.00 L 12410788.00 10412755.00 L 13022284.00 10412755.00 L 13022284.00 10728975.00  zM 13022284.00 11791968.00 L 12410788.00 11791968.00 L 12410788.00 11475748.00 L 13022284.00 11475748.00 L 13022284.00 11791968.00  zM 11023619.73 12834652.78 m -161201.22 0 a 161201.22 161201.22 0 1 1 322402.43 0a 161201.22 161201.22 0 1 1 -322402.43 0M 12077402.00 12165984.00 L 11465906.00 12165984.00 L 11465906.00 11849764.00 L 12077402.00 11849764.00 L 12077402.00 12165984.00  zM 12677165.43 13110236.13 m -201348.87 0 a 201348.87 201348.87 0 1 1 402697.73 0a 201348.87 201348.87 0 1 1 -402697.73 0M 12677167.00 13937001.05 m -338174.95 0 a 338174.95 338174.95 0 1 1 676349.89 0a 338174.95 338174.95 0 1 1 -676349.89 0M 14260473.00 10630550.00 L 13456065.00 10630550.00 L 13456065.00 9841890.00 L 14260473.00 9841890.00 L 14260473.00 10630550.00  zM 14260473.00 11811652.00 L 13456065.00 11811652.00 L 13456065.00 11022992.00 L 14260473.00 11022992.00 L 14260473.00 11811652.00  zM 15441575.00 10630550.00 L 14637167.00 10630550.00 L 14637167.00 9841890.00 L 15441575.00 9841890.00 L 15441575.00 10630550.00  zM 15441575.00 11811652.00 L 14637167.00 11811652.00 L 14637167.00 11022992.00 L 15441575.00 11022992.00 L 15441575.00 11811652.00  zM 13022284.00 12539999.00 L 12410788.00 12539999.00 L 12410788.00 12223779.00 L 13022284.00 12223779.00 L 13022284.00 12539999.00  zM 13188973.73 12716541.78 m -161201.22 0 a 161201.22 161201.22 0 1 1 322402.43 0a 161201.22 161201.22 0 1 1 -322402.43 0M 13779530.00 13937001.05 m -338174.95 0 a 338174.95 338174.95 0 1 1 676349.89 0a 338174.95 338174.95 0 1 1 -676349.89 0M 14724409.43 13110236.13 m -201348.87 0 a 201348.87 201348.87 0 1 1 402697.73 0a 201348.87 201348.87 0 1 1 -402697.73 0"/>
</g>
</svg>
