G04*
G04 #@! TF.GenerationSoftware,Altium Limited,Altium Designer,23.4.1 (23)*
G04*
G04 Layer_Color=2752767*
%FSLAX44Y44*%
%MOMM*%
G71*
G04*
G04 #@! TF.SameCoordinates,578947FD-33E4-429F-A021-2FF82048D882*
G04*
G04*
G04 #@! TF.FilePolarity,Positive*
G04*
G01*
G75*
%ADD13C,0.1270*%
%ADD55C,0.1693*%
D13*
X340360Y85623D02*
Y95783D01*
X350520D01*
Y85623D01*
X340360D01*
X137000Y72020D02*
X131920Y82180D01*
X142080D01*
X137000Y72020D01*
X117000D02*
X111920Y82180D01*
X122080D01*
X117000Y72020D01*
X99060Y274320D02*
Y284480D01*
X109220D01*
Y274320D01*
X99060D01*
X172720Y132080D02*
Y142240D01*
X182880D01*
Y132080D01*
X172720D01*
X406400Y175260D02*
X408940Y180340D01*
X406400Y185420D01*
X411480Y182880D01*
X416560Y185420D01*
X414020Y180340D01*
X416560Y175260D01*
X411480Y177800D01*
X406400Y175260D01*
X383540Y128270D02*
X386080Y133350D01*
X383540Y138430D01*
X388620Y135890D01*
X393700Y138430D01*
X391160Y133350D01*
X393700Y128270D01*
X388620Y130810D01*
X383540Y128270D01*
X354330Y156210D02*
X356870Y161290D01*
X354330Y166370D01*
X359410Y163830D01*
X364490Y166370D01*
X361950Y161290D01*
X364490Y156210D01*
X359410Y158750D01*
X354330Y156210D01*
X288290Y262890D02*
X290830Y267970D01*
X288290Y273050D01*
X293370Y270510D01*
X298450Y273050D01*
X295910Y267970D01*
X298450Y262890D01*
X293370Y265430D01*
X288290Y262890D01*
X312420Y321310D02*
X314960Y326390D01*
X312420Y331470D01*
X317500Y328930D01*
X322580Y331470D01*
X320040Y326390D01*
X322580Y321310D01*
X317500Y323850D01*
X312420Y321310D01*
X111760Y322580D02*
X114300Y327660D01*
X111760Y332740D01*
X116840Y330200D01*
X121920Y332740D01*
X119380Y327660D01*
X121920Y322580D01*
X116840Y325120D01*
X111760Y322580D01*
X134620Y261620D02*
X137160Y266700D01*
X134620Y271780D01*
X139700Y269240D01*
X144780Y271780D01*
X142240Y266700D01*
X144780Y261620D01*
X139700Y264160D01*
X134620Y261620D01*
X77470Y262890D02*
X80010Y267970D01*
X77470Y273050D01*
X82550Y270510D01*
X87630Y273050D01*
X85090Y267970D01*
X87630Y262890D01*
X82550Y265430D01*
X77470Y262890D01*
X132080Y93980D02*
X134620Y99060D01*
X132080Y104140D01*
X137160Y101600D01*
X142240Y104140D01*
X139700Y99060D01*
X142240Y93980D01*
X137160Y96520D01*
X132080Y93980D01*
X303530Y119380D02*
X306070Y124460D01*
X303530Y129540D01*
X308610Y127000D01*
X313690Y129540D01*
X311150Y124460D01*
X313690Y119380D01*
X308610Y121920D01*
X303530Y119380D01*
X299720Y38100D02*
X302260Y43180D01*
X299720Y48260D01*
X304800Y45720D01*
X309880Y48260D01*
X307340Y43180D01*
X309880Y38100D01*
X304800Y40640D01*
X299720Y38100D01*
X287020Y27940D02*
X289560Y33020D01*
X287020Y38100D01*
X292100Y35560D01*
X297180Y38100D01*
X294640Y33020D01*
X297180Y27940D01*
X292100Y30480D01*
X287020Y27940D01*
X198120Y302260D02*
X200660Y304800D01*
X203200D01*
X200660Y307340D01*
X203200Y309880D01*
X200660D01*
X198120Y312420D01*
X195580Y309880D01*
X193040D01*
X195580Y307340D01*
X193040Y304800D01*
X195580D01*
X198120Y302260D01*
X217163Y207720D02*
X219703Y210260D01*
X222243D01*
X219703Y212800D01*
X222243Y215340D01*
X219703D01*
X217163Y217880D01*
X214623Y215340D01*
X212083D01*
X214623Y212800D01*
X212083Y210260D01*
X214623D01*
X217163Y207720D01*
D55*
X43700Y175820D02*
G03*
X43700Y175820I-5080J0D01*
G01*
X69100D02*
G03*
X69100Y175820I-5080J0D01*
G01*
X43700Y150420D02*
G03*
X43700Y150420I-5080J0D01*
G01*
X69100D02*
G03*
X69100Y150420I-5080J0D01*
G01*
Y201220D02*
G03*
X69100Y201220I-5080J0D01*
G01*
X43700D02*
G03*
X43700Y201220I-5080J0D01*
G01*
X69100Y226620D02*
G03*
X69100Y226620I-5080J0D01*
G01*
Y252020D02*
G03*
X69100Y252020I-5080J0D01*
G01*
X43700Y226620D02*
G03*
X43700Y226620I-5080J0D01*
G01*
Y252020D02*
G03*
X43700Y252020I-5080J0D01*
G01*
X337820Y50800D02*
G03*
X337820Y50800I-5080J0D01*
G01*
M02*
