G04*
G04 #@! TF.GenerationSoftware,Altium Limited,Altium Designer,23.4.1 (23)*
G04*
G04 Layer_Color=128*
%FSLAX44Y44*%
%MOMM*%
G71*
G04*
G04 #@! TF.SameCoordinates,578947FD-33E4-429F-A021-2FF82048D882*
G04*
G04*
G04 #@! TF.FilePolarity,Positive*
G04*
G01*
G75*
%ADD13C,0.1270*%
D13*
X340440Y90703D02*
X350440D01*
X345440Y85703D02*
Y95703D01*
X133500Y77100D02*
X140500D01*
X137000Y73600D02*
Y80600D01*
X113500Y77100D02*
X120500D01*
X117000Y73600D02*
Y80600D01*
X99140Y279400D02*
X109140D01*
X104140Y274400D02*
Y284400D01*
X172800Y137160D02*
X182800D01*
X177800Y132160D02*
Y142160D01*
X33120Y175820D02*
X44120D01*
X38620Y170320D02*
Y181320D01*
X58520Y175820D02*
X69520D01*
X64020Y170320D02*
Y181320D01*
X33120Y150420D02*
X44120D01*
X38620Y144920D02*
Y155920D01*
X58520Y150420D02*
X69520D01*
X64020Y144920D02*
Y155920D01*
X58520Y201220D02*
X69520D01*
X64020Y195720D02*
Y206720D01*
X33120Y201220D02*
X44120D01*
X38620Y195720D02*
Y206720D01*
X58520Y226620D02*
X69520D01*
X64020Y221120D02*
Y232120D01*
X58520Y252020D02*
X69520D01*
X64020Y246520D02*
Y257520D01*
X33120Y226620D02*
X44120D01*
X38620Y221120D02*
Y232120D01*
X33120Y252020D02*
X44120D01*
X38620Y246520D02*
Y257520D01*
X408480Y180340D02*
X414480D01*
X411480Y177340D02*
Y183340D01*
X385620Y133350D02*
X391620D01*
X388620Y130350D02*
Y136350D01*
X356410Y161290D02*
X362410D01*
X359410Y158290D02*
Y164290D01*
X290370Y267970D02*
X296370D01*
X293370Y264970D02*
Y270970D01*
X314500Y326390D02*
X320500D01*
X317500Y323390D02*
Y329390D01*
X113840Y327660D02*
X119840D01*
X116840Y324660D02*
Y330660D01*
X136700Y266700D02*
X142700D01*
X139700Y263700D02*
Y269700D01*
X79550Y267970D02*
X85550D01*
X82550Y264970D02*
Y270970D01*
X134160Y99060D02*
X140160D01*
X137160Y96060D02*
Y102060D01*
X305610Y124460D02*
X311610D01*
X308610Y121460D02*
Y127460D01*
X301800Y43180D02*
X307800D01*
X304800Y40180D02*
Y46180D01*
X289100Y33020D02*
X295100D01*
X292100Y30020D02*
Y36020D01*
X327240Y50800D02*
X338240D01*
X332740Y45300D02*
Y56300D01*
X194564Y307340D02*
X201676D01*
X198120Y303784D02*
Y310896D01*
X213607Y212800D02*
X220719D01*
X217163Y209244D02*
Y216356D01*
M02*
