G04*
G04 #@! TF.GenerationSoftware,Altium Limited,Altium Designer,23.4.1 (23)*
G04*
G04 Layer_Color=32768*
%FSLAX44Y44*%
%MOMM*%
G71*
G04*
G04 #@! TF.SameCoordinates,578947FD-33E4-429F-A021-2FF82048D882*
G04*
G04*
G04 #@! TF.FilePolarity,Positive*
G04*
G01*
G75*
%ADD12C,0.1524*%
%ADD14C,0.1000*%
%ADD54C,0.0500*%
D12*
X240657Y55880D02*
X276725D01*
Y101600D01*
X240657D02*
X276725D01*
X240657Y55880D02*
Y101600D01*
D14*
X345440Y85703D02*
Y95703D01*
X340440Y90703D02*
X350440D01*
X122000Y101600D02*
X132000D01*
X127000Y96600D02*
Y106600D01*
X99140Y279400D02*
X109140D01*
X104140Y274400D02*
Y284400D01*
X172800Y137160D02*
X182800D01*
X177800Y132160D02*
Y142160D01*
D54*
X359140Y90703D02*
G03*
X359140Y90703I-13700J0D01*
G01*
X117840Y279400D02*
G03*
X117840Y279400I-13700J0D01*
G01*
X191500Y137160D02*
G03*
X191500Y137160I-13700J0D01*
G01*
X157500Y62600D02*
Y140600D01*
X96500D02*
X157500D01*
X96500Y62600D02*
Y140600D01*
Y62600D02*
X157500D01*
X302312Y277290D02*
Y299290D01*
X256112D02*
X302312D01*
X256112Y277290D02*
Y299290D01*
Y277290D02*
X302312D01*
X132294Y277290D02*
Y299290D01*
Y277290D02*
X178493D01*
Y299290D01*
X132294D02*
X178493D01*
X176290Y75770D02*
X222490D01*
Y53770D02*
Y75770D01*
X176290Y53770D02*
X222490D01*
X176290D02*
Y75770D01*
X23170Y134220D02*
Y268220D01*
X79470D01*
Y134220D02*
Y268220D01*
X23170Y134220D02*
X79470D01*
X46320Y201220D02*
X56320D01*
X51320Y196220D02*
Y206220D01*
M02*
