M48
;Layer_Color=9474304
;FILE_FORMAT=4:4
METRIC,LZ
;TYPE=PLATED
T1F00S00C0.6000
T2F00S00C0.7000
T3F00S00C0.7112
T4F00S00C1.0000
T5F00S00C1.1000
%
T01
X0013716Y0009906
X001397Y002667
X0008255Y0026797
X0011684Y0032766
X003175Y0032639
X0029337Y0026797
X0030861Y0012446
X003048Y0004318
X002921Y0003302
X0035941Y0016129
X0038862Y0013335
X0041148Y0018034
T02
X00117Y000771
X00137
T03
X00217163Y002128
X0019812Y0030734
T04
X001778Y0013716
X0034544Y00090703
X0010414Y002794
T05
X0003862Y0015042
Y0017582
X0006402
Y0015042
Y0020122
X0003862
Y0022662
X0006402
Y0025202
X0003862
X0033274Y000508
M30
