G04*
G04 #@! TF.GenerationSoftware,Altium Limited,Altium Designer,23.4.1 (23)*
G04*
G04 Layer_Color=65535*
%FSLAX44Y44*%
%MOMM*%
G71*
G04*
G04 #@! TF.SameCoordinates,578947FD-33E4-429F-A021-2FF82048D882*
G04*
G04*
G04 #@! TF.FilePolarity,Positive*
G04*
G01*
G75*
%ADD10C,0.2000*%
%ADD11C,0.2500*%
%ADD12C,0.1524*%
%ADD13C,0.1270*%
%ADD14C,0.1000*%
%ADD15C,0.2540*%
D10*
X358140Y90703D02*
G03*
X358140Y90703I-12700J0D01*
G01*
X116840Y279400D02*
G03*
X116840Y279400I-12700J0D01*
G01*
X190500Y137160D02*
G03*
X190500Y137160I-12700J0D01*
G01*
X97500Y63600D02*
X107500D01*
X97498Y63597D02*
Y139597D01*
X97500Y139600D02*
X156501D01*
X146500Y63600D02*
X156501D01*
Y139600D01*
X194163Y356633D02*
X204913D01*
X229413D02*
X240163D01*
Y337383D02*
Y356633D01*
X194163Y337383D02*
Y356633D01*
X25170Y136220D02*
X77470D01*
Y266220D01*
X25170Y136220D02*
Y266220D01*
X77470D01*
X305530Y289020D02*
X312194D01*
X121380Y287750D02*
X128045D01*
X327120Y74227D02*
Y67562D01*
X330452Y64230D01*
X333784Y67562D01*
Y74227D01*
X337117D02*
Y64230D01*
X342115D01*
X343781Y65896D01*
Y67562D01*
X342115Y69228D01*
X337117D01*
X342115D01*
X343781Y70894D01*
Y72561D01*
X342115Y74227D01*
X337117D01*
X347114D02*
Y65896D01*
X348780Y64230D01*
X352112D01*
X353778Y65896D01*
Y74227D01*
X363775Y72561D02*
X362109Y74227D01*
X358777D01*
X357110Y72561D01*
Y70894D01*
X358777Y69228D01*
X362109D01*
X363775Y67562D01*
Y65896D01*
X362109Y64230D01*
X358777D01*
X357110Y65896D01*
X173450Y196147D02*
Y186150D01*
X178448D01*
X180114Y187816D01*
Y189482D01*
X178448Y191148D01*
X173450D01*
X178448D01*
X180114Y192815D01*
Y194481D01*
X178448Y196147D01*
X173450D01*
X185113Y192815D02*
X188445D01*
X190111Y191148D01*
Y186150D01*
X185113D01*
X183447Y187816D01*
X185113Y189482D01*
X190111D01*
X195110Y194481D02*
Y192815D01*
X193444D01*
X196776D01*
X195110D01*
Y187816D01*
X196776Y186150D01*
X201774D02*
Y196147D01*
X205106Y192815D01*
X208439Y196147D01*
Y186150D01*
X213437D02*
X216769D01*
X218435Y187816D01*
Y191148D01*
X216769Y192815D01*
X213437D01*
X211771Y191148D01*
Y187816D01*
X213437Y186150D01*
X221768D02*
Y192815D01*
X226766D01*
X228432Y191148D01*
Y186150D01*
X231765D02*
Y196147D01*
X236763D01*
X238429Y194481D01*
Y191148D01*
X236763Y189482D01*
X231765D01*
X241761Y186150D02*
X245094D01*
X243428D01*
Y192815D01*
X241761D01*
X250092Y186150D02*
Y192815D01*
X255090D01*
X256756Y191148D01*
Y186150D01*
X58955Y280822D02*
Y290818D01*
X63954D01*
X65620Y289152D01*
Y285820D01*
X63954Y284154D01*
X58955D01*
X68952Y280822D02*
X72284D01*
X70618D01*
Y290818D01*
X68952Y289152D01*
X208839Y312338D02*
Y304008D01*
X210506Y302342D01*
X213838D01*
X215504Y304008D01*
Y312338D01*
X225501Y302342D02*
X218836D01*
X225501Y309006D01*
Y310672D01*
X223834Y312338D01*
X220502D01*
X218836Y310672D01*
X161849Y302342D02*
Y312338D01*
X166848D01*
X168514Y310672D01*
Y307340D01*
X166848Y305674D01*
X161849D01*
X165182D02*
X168514Y302342D01*
X171846Y312338D02*
X178511D01*
Y310672D01*
X171846Y304008D01*
Y302342D01*
X255829D02*
Y312338D01*
X260828D01*
X262494Y310672D01*
Y307340D01*
X260828Y305674D01*
X255829D01*
X259162D02*
X262494Y302342D01*
X272491Y312338D02*
X269158Y310672D01*
X265826Y307340D01*
Y304008D01*
X267492Y302342D01*
X270825D01*
X272491Y304008D01*
Y305674D01*
X270825Y307340D01*
X265826D01*
X150950Y18968D02*
Y12304D01*
X154282Y8972D01*
X157614Y12304D01*
Y18968D01*
X160947D02*
Y8972D01*
X165945D01*
X167611Y10638D01*
Y12304D01*
X165945Y13970D01*
X160947D01*
X165945D01*
X167611Y15636D01*
Y17302D01*
X165945Y18968D01*
X160947D01*
X170943D02*
Y10638D01*
X172610Y8972D01*
X175942D01*
X177608Y10638D01*
Y18968D01*
X187605Y17302D02*
X185939Y18968D01*
X182606D01*
X180940Y17302D01*
Y15636D01*
X182606Y13970D01*
X185939D01*
X187605Y12304D01*
Y10638D01*
X185939Y8972D01*
X182606D01*
X180940Y10638D01*
X200934Y8972D02*
X205932D01*
X207598Y10638D01*
X205932Y12304D01*
X202600D01*
X200934Y13970D01*
X202600Y15636D01*
X207598D01*
X210931Y8972D02*
X214263D01*
X212597D01*
Y18968D01*
X210931D01*
X225926Y15636D02*
X220927D01*
X219261Y13970D01*
Y10638D01*
X220927Y8972D01*
X225926D01*
X230924Y17302D02*
Y15636D01*
X229258D01*
X232590D01*
X230924D01*
Y10638D01*
X232590Y8972D01*
X189789Y287102D02*
Y297098D01*
X194788D01*
X196454Y295432D01*
Y292100D01*
X194788Y290434D01*
X189789D01*
X193122D02*
X196454Y287102D01*
X204785D02*
Y297098D01*
X199786Y292100D01*
X206451D01*
X191059Y78822D02*
Y88818D01*
X196058D01*
X197724Y87152D01*
Y83820D01*
X196058Y82154D01*
X191059D01*
X194392D02*
X197724Y78822D01*
X201056Y87152D02*
X202722Y88818D01*
X206054D01*
X207721Y87152D01*
Y85486D01*
X206054Y83820D01*
X204388D01*
X206054D01*
X207721Y82154D01*
Y80488D01*
X206054Y78822D01*
X202722D01*
X201056Y80488D01*
X300279Y109302D02*
Y119298D01*
X305278D01*
X306944Y117632D01*
Y114300D01*
X305278Y112634D01*
X300279D01*
X303612D02*
X306944Y109302D01*
X316941D02*
X310276D01*
X316941Y115966D01*
Y117632D01*
X315275Y119298D01*
X311942D01*
X310276Y117632D01*
X228286Y287102D02*
Y297098D01*
X233284D01*
X234950Y295432D01*
Y292100D01*
X233284Y290434D01*
X228286D01*
X231618D02*
X234950Y287102D01*
X238282D02*
X241614D01*
X239948D01*
Y297098D01*
X238282Y295432D01*
X136764Y310672D02*
X135098Y312338D01*
X131765D01*
X130099Y310672D01*
Y304008D01*
X131765Y302342D01*
X135098D01*
X136764Y304008D01*
X145094Y302342D02*
Y312338D01*
X140096Y307340D01*
X146761D01*
X295514Y310672D02*
X293848Y312338D01*
X290515D01*
X288849Y310672D01*
Y304008D01*
X290515Y302342D01*
X293848D01*
X295514Y304008D01*
X298846Y310672D02*
X300512Y312338D01*
X303845D01*
X305511Y310672D01*
Y309006D01*
X303845Y307340D01*
X302178D01*
X303845D01*
X305511Y305674D01*
Y304008D01*
X303845Y302342D01*
X300512D01*
X298846Y304008D01*
X257414Y14762D02*
X255748Y16428D01*
X252416D01*
X250749Y14762D01*
Y8098D01*
X252416Y6432D01*
X255748D01*
X257414Y8098D01*
X267411Y6432D02*
X260746D01*
X267411Y13096D01*
Y14762D01*
X265744Y16428D01*
X262412D01*
X260746Y14762D01*
X258691Y114136D02*
X257025Y115802D01*
X253693D01*
X252027Y114136D01*
Y107471D01*
X253693Y105805D01*
X257025D01*
X258691Y107471D01*
X262023Y105805D02*
X265356D01*
X263689D01*
Y115802D01*
X262023Y114136D01*
X159473Y167558D02*
Y160894D01*
X162805Y157562D01*
X166137Y160894D01*
Y167558D01*
X169469D02*
Y157562D01*
X174468D01*
X176134Y159228D01*
Y160894D01*
X174468Y162560D01*
X169469D01*
X174468D01*
X176134Y164226D01*
Y165892D01*
X174468Y167558D01*
X169469D01*
X179466Y157562D02*
Y164226D01*
X182798Y167558D01*
X186131Y164226D01*
Y157562D01*
Y162560D01*
X179466D01*
X189463Y167558D02*
X196127D01*
X192795D01*
Y157562D01*
X279086Y85008D02*
Y76678D01*
X280752Y75012D01*
X284084D01*
X285750Y76678D01*
Y85008D01*
X289082Y75012D02*
X292414D01*
X290748D01*
Y85008D01*
X289082Y83342D01*
X270881Y274238D02*
Y264242D01*
X275880D01*
X277546Y265908D01*
Y272572D01*
X275880Y274238D01*
X270881D01*
X287543Y264242D02*
X280878D01*
X287543Y270906D01*
Y272572D01*
X285877Y274238D01*
X282544D01*
X280878Y272572D01*
X192726Y51988D02*
Y41992D01*
X197724D01*
X199390Y43658D01*
Y50322D01*
X197724Y51988D01*
X192726D01*
X202722Y41992D02*
X206054D01*
X204388D01*
Y51988D01*
X202722Y50322D01*
X148349Y274238D02*
Y264242D01*
X153348D01*
X155014Y265908D01*
Y272572D01*
X153348Y274238D01*
X148349D01*
X158346Y272572D02*
X160012Y274238D01*
X163344D01*
X165011Y272572D01*
Y270906D01*
X163344Y269240D01*
X161678D01*
X163344D01*
X165011Y267574D01*
Y265908D01*
X163344Y264242D01*
X160012D01*
X158346Y265908D01*
X87916Y262412D02*
X89582Y264078D01*
X92914D01*
X94580Y262412D01*
Y260746D01*
X92914Y259080D01*
X91248D01*
X92914D01*
X94580Y257414D01*
Y255748D01*
X92914Y254082D01*
X89582D01*
X87916Y255748D01*
X97912Y254082D02*
Y255748D01*
X99579D01*
Y254082D01*
X97912D01*
X106243Y262412D02*
X107909Y264078D01*
X111242D01*
X112908Y262412D01*
Y260746D01*
X111242Y259080D01*
X109575D01*
X111242D01*
X112908Y257414D01*
Y255748D01*
X111242Y254082D01*
X107909D01*
X106243Y255748D01*
X116240Y264078D02*
Y257414D01*
X119572Y254082D01*
X122904Y257414D01*
Y264078D01*
D11*
X138410Y59320D02*
G03*
X138410Y59320I-1250J0D01*
G01*
X192663Y321633D02*
G03*
X192663Y321633I-1250J0D01*
G01*
D12*
X274185Y81788D02*
G03*
X274185Y75692I0J-3048D01*
G01*
Y81788D02*
Y85090D01*
Y75692D02*
Y81788D01*
Y72390D02*
Y75692D01*
X42320Y269320D02*
Y272706D01*
Y271013D01*
X32163D01*
X33856Y269320D01*
Y277784D02*
X32163Y279477D01*
Y282862D01*
X33856Y284555D01*
X40627D01*
X42320Y282862D01*
Y279477D01*
X40627Y277784D01*
X33856D01*
X67627Y269320D02*
X69320Y271013D01*
Y274398D01*
X67627Y276091D01*
X60856D01*
X59163Y274398D01*
Y271013D01*
X60856Y269320D01*
X62549D01*
X64242Y271013D01*
Y276091D01*
X69320Y129120D02*
Y132506D01*
Y130813D01*
X59163D01*
X60856Y129120D01*
X42320Y132891D02*
Y126120D01*
X35549Y132891D01*
X33856D01*
X32163Y131198D01*
Y127813D01*
X33856Y126120D01*
D13*
X262712Y298740D02*
X295712D01*
X263212Y277840D02*
X295212D01*
X138893Y277840D02*
X171894D01*
X139394Y298740D02*
X171394D01*
X183390Y75220D02*
X215390D01*
X182890Y54320D02*
X215890D01*
D14*
X83616Y198365D02*
Y204363D01*
X85616Y202364D01*
X87615Y204363D01*
Y198365D01*
X92613Y204363D02*
X90614D01*
X89614Y203364D01*
Y199365D01*
X90614Y198365D01*
X92613D01*
X93613Y199365D01*
Y203364D01*
X92613Y204363D01*
X99611Y203364D02*
X98611Y204363D01*
X96612D01*
X95612Y203364D01*
Y202364D01*
X96612Y201364D01*
X98611D01*
X99611Y200365D01*
Y199365D01*
X98611Y198365D01*
X96612D01*
X95612Y199365D01*
X101610Y204363D02*
X103610D01*
X102610D01*
Y198365D01*
X101610D01*
X103610D01*
X107608Y197366D02*
X108608Y198365D01*
Y199365D01*
X107608D01*
Y198365D01*
X108608D01*
X107608Y197366D01*
X106609Y196366D01*
X122604Y203364D02*
X121604Y204363D01*
X119605D01*
X118605Y203364D01*
Y199365D01*
X119605Y198365D01*
X121604D01*
X122604Y199365D01*
X124603Y204363D02*
Y198365D01*
X128602D01*
X130601Y204363D02*
Y198365D01*
Y200365D01*
X134600Y204363D01*
X131601Y201364D01*
X134600Y198365D01*
X87615Y177364D02*
X86615Y178363D01*
X84616D01*
X83616Y177364D01*
Y173365D01*
X84616Y172365D01*
X86615D01*
X87615Y173365D01*
X93613Y177364D02*
X92613Y178363D01*
X90614D01*
X89614Y177364D01*
Y176364D01*
X90614Y175364D01*
X92613D01*
X93613Y174365D01*
Y173365D01*
X92613Y172365D01*
X90614D01*
X89614Y173365D01*
X96612Y171366D02*
X97612Y172365D01*
Y173365D01*
X96612D01*
Y172365D01*
X97612D01*
X96612Y171366D01*
X95612Y170366D01*
X107608Y178363D02*
Y172365D01*
X110607D01*
X111607Y173365D01*
Y177364D01*
X110607Y178363D01*
X107608D01*
X113607Y172365D02*
X117605Y176364D01*
X119605Y172365D02*
Y178363D01*
X121604Y176364D01*
X123603Y178363D01*
Y172365D01*
X125603Y178363D02*
Y172365D01*
X128602D01*
X129601Y173365D01*
Y177364D01*
X128602Y178363D01*
X125603D01*
X83616Y145365D02*
Y151363D01*
X86615D01*
X87615Y150364D01*
Y148364D01*
X86615Y147365D01*
X83616D01*
X85616D02*
X87615Y145365D01*
X93613Y150364D02*
X92613Y151363D01*
X90614D01*
X89614Y150364D01*
Y149364D01*
X90614Y148364D01*
X92613D01*
X93613Y147365D01*
Y146365D01*
X92613Y145365D01*
X90614D01*
X89614Y146365D01*
X95612Y151363D02*
X99611D01*
X97612D01*
Y145365D01*
X102610Y144366D02*
X103610Y145365D01*
Y146365D01*
X102610D01*
Y145365D01*
X103610D01*
X102610Y144366D01*
X101610Y143366D01*
X113607Y151363D02*
Y145365D01*
X116606D01*
X117605Y146365D01*
Y147365D01*
X116606Y148364D01*
X113607D01*
X116606D01*
X117605Y149364D01*
Y150364D01*
X116606Y151363D01*
X113607D01*
X119605D02*
Y145365D01*
X123603D01*
X87615Y228364D02*
X86615Y229363D01*
X84616D01*
X83616Y228364D01*
Y227364D01*
X84616Y226364D01*
X86615D01*
X87615Y225365D01*
Y224365D01*
X86615Y223365D01*
X84616D01*
X83616Y224365D01*
X93613Y228364D02*
X92613Y229363D01*
X90614D01*
X89614Y228364D01*
Y224365D01*
X90614Y223365D01*
X92613D01*
X93613Y224365D01*
X95612Y229363D02*
Y223365D01*
X99611D01*
X102610Y222366D02*
X103610Y223365D01*
Y224365D01*
X102610D01*
Y223365D01*
X103610D01*
X102610Y222366D01*
X101610Y221366D01*
X117605Y228364D02*
X116606Y229363D01*
X114606D01*
X113607Y228364D01*
Y227364D01*
X114606Y226364D01*
X116606D01*
X117605Y225365D01*
Y224365D01*
X116606Y223365D01*
X114606D01*
X113607Y224365D01*
X119605Y229363D02*
Y223365D01*
X122604D01*
X123603Y224365D01*
Y228364D01*
X122604Y229363D01*
X119605D01*
X125603Y223365D02*
Y227364D01*
X127602Y229363D01*
X129601Y227364D01*
Y223365D01*
Y226364D01*
X125603D01*
X82646Y248654D02*
X83646Y249653D01*
X85645D01*
X86645Y248654D01*
Y247654D01*
X85645Y246654D01*
X84646D01*
X85645D01*
X86645Y245655D01*
Y244655D01*
X85645Y243655D01*
X83646D01*
X82646Y244655D01*
X88644Y243655D02*
Y244655D01*
X89644D01*
Y243655D01*
X88644D01*
X93643Y248654D02*
X94642Y249653D01*
X96642D01*
X97641Y248654D01*
Y247654D01*
X96642Y246654D01*
X95642D01*
X96642D01*
X97641Y245655D01*
Y244655D01*
X96642Y243655D01*
X94642D01*
X93643Y244655D01*
X99641Y249653D02*
Y245655D01*
X101640Y243655D01*
X103639Y245655D01*
Y249653D01*
X106638Y242656D02*
X107638Y243655D01*
Y244655D01*
X106638D01*
Y243655D01*
X107638D01*
X106638Y242656D01*
X105639Y241656D01*
X121634Y248654D02*
X120634Y249653D01*
X118635D01*
X117635Y248654D01*
Y244655D01*
X118635Y243655D01*
X120634D01*
X121634Y244655D01*
Y246654D01*
X119634D01*
X123633Y243655D02*
Y249653D01*
X127632Y243655D01*
Y249653D01*
X129631D02*
Y243655D01*
X132630D01*
X133630Y244655D01*
Y248654D01*
X132630Y249653D01*
X129631D01*
D15*
X66044Y85092D02*
Y100328D01*
X73662D01*
X76201Y97788D01*
Y92710D01*
X73662Y90171D01*
X66044D01*
X91436Y85092D02*
X81279D01*
X91436Y95249D01*
Y97788D01*
X88897Y100328D01*
X83818D01*
X81279Y97788D01*
X381508Y195067D02*
Y184910D01*
X386586Y179832D01*
X391665Y184910D01*
Y195067D01*
X396743Y187449D02*
X406900D01*
X382778Y264917D02*
Y254760D01*
X387856Y249682D01*
X392935Y254760D01*
Y264917D01*
X398013Y257299D02*
X408170D01*
X403091Y262378D02*
Y252221D01*
M02*
