G04*
G04 #@! TF.GenerationSoftware,Altium Limited,Altium Designer,23.4.1 (23)*
G04*
G04 Layer_Color=255*
%FSLAX44Y44*%
%MOMM*%
G71*
G04*
G04 #@! TF.SameCoordinates,578947FD-33E4-429F-A021-2FF82048D882*
G04*
G04*
G04 #@! TF.FilePolarity,Positive*
G04*
G01*
G75*
%ADD16R,1.8400X1.8000*%
G04:AMPARAMS|DCode=17|XSize=1.1mm|YSize=1.73mm|CornerRadius=0.11mm|HoleSize=0mm|Usage=FLASHONLY|Rotation=180.000|XOffset=0mm|YOffset=0mm|HoleType=Round|Shape=RoundedRectangle|*
%AMROUNDEDRECTD17*
21,1,1.1000,1.5100,0,0,180.0*
21,1,0.8800,1.7300,0,0,180.0*
1,1,0.2200,-0.4400,0.7550*
1,1,0.2200,0.4400,0.7550*
1,1,0.2200,0.4400,-0.7550*
1,1,0.2200,-0.4400,-0.7550*
%
%ADD17ROUNDEDRECTD17*%
%ADD18R,1.8000X1.0000*%
%ADD19R,0.5800X1.7300*%
%ADD20C,1.7397*%
%ADD21R,0.6000X0.7000*%
%ADD22R,1.8000X1.8400*%
%ADD23R,0.5588X1.3208*%
%ADD24R,1.0000X1.8000*%
%ADD25R,2.0000X2.0000*%
%ADD43C,1.5000*%
%ADD44R,1.2000X1.2000*%
%ADD45C,1.2000*%
%ADD46C,1.6500*%
%ADD47R,1.6500X1.6500*%
D16*
X197322Y272644D02*
D03*
Y242644D02*
D03*
X235272D02*
D03*
Y272644D02*
D03*
X263556Y329508D02*
D03*
Y359508D02*
D03*
X170753Y329508D02*
D03*
Y359508D02*
D03*
X309491Y63740D02*
D03*
Y93740D02*
D03*
D17*
X264112Y288290D02*
D03*
X294312D02*
D03*
X170494Y288290D02*
D03*
X140294D02*
D03*
X184290Y64770D02*
D03*
X214490D02*
D03*
D18*
X296646Y326258D02*
D03*
Y357258D02*
D03*
X138063Y326258D02*
D03*
Y357258D02*
D03*
D19*
X202163Y327283D02*
D03*
X232163D02*
D03*
D20*
X217163Y345093D02*
D03*
D21*
X188040Y30480D02*
D03*
X198040D02*
D03*
D22*
X184390Y104140D02*
D03*
X214390D02*
D03*
D23*
X268089Y65024D02*
D03*
X249293D02*
D03*
Y92456D02*
D03*
X258691D02*
D03*
X268089D02*
D03*
D24*
X241921Y132080D02*
D03*
X272921D02*
D03*
X244461Y33020D02*
D03*
X275461D02*
D03*
D25*
X391160Y231140D02*
D03*
X389890Y161290D02*
D03*
D43*
X345440Y90703D02*
D03*
X104140Y279400D02*
D03*
X177800Y137160D02*
D03*
D44*
X137000Y77100D02*
D03*
D45*
X117000D02*
D03*
D46*
X38620Y175820D02*
D03*
X64020D02*
D03*
X38620Y150420D02*
D03*
X64020Y201220D02*
D03*
X38620D02*
D03*
X64020Y226620D02*
D03*
Y252020D02*
D03*
X38620Y226620D02*
D03*
Y252020D02*
D03*
D47*
X64020Y150420D02*
D03*
M02*
