G04*
G04 #@! TF.GenerationSoftware,Altium Limited,Altium Designer,23.4.1 (23)*
G04*
G04 Layer_Color=16711935*
%FSLAX44Y44*%
%MOMM*%
G71*
G04*
G04 #@! TF.SameCoordinates,578947FD-33E4-429F-A021-2FF82048D882*
G04*
G04*
G04 #@! TF.FilePolarity,Negative*
G04*
G01*
G75*
%ADD34C,1.7032*%
%ADD35R,1.4032X1.4032*%
%ADD36C,1.4032*%
%ADD37C,1.8532*%
%ADD38R,1.8532X1.8532*%
%ADD39C,1.0032*%
%ADD40C,1.4732*%
%ADD51R,2.2032X2.2032*%
D34*
X345440Y90703D02*
D03*
X104140Y279400D02*
D03*
X177800Y137160D02*
D03*
X332740Y50800D02*
D03*
D35*
X137000Y77100D02*
D03*
D36*
X117000D02*
D03*
D37*
X38620Y175820D02*
D03*
X64020D02*
D03*
X38620Y150420D02*
D03*
X64020Y201220D02*
D03*
X38620D02*
D03*
X64020Y226620D02*
D03*
Y252020D02*
D03*
X38620Y226620D02*
D03*
Y252020D02*
D03*
D38*
X64020Y150420D02*
D03*
D39*
X411480Y180340D02*
D03*
X388620Y133350D02*
D03*
X359410Y161290D02*
D03*
X293370Y267970D02*
D03*
X317500Y326390D02*
D03*
X116840Y327660D02*
D03*
X139700Y266700D02*
D03*
X82550Y267970D02*
D03*
X137160Y99060D02*
D03*
X308610Y124460D02*
D03*
X304800Y43180D02*
D03*
X292100Y33020D02*
D03*
D40*
X198120Y307340D02*
D03*
X217163Y212800D02*
D03*
D51*
D03*
M02*
