<svg width="42.00000236mm" height="42.00000236mm" viewBox="0 0 16535434 16535434"  version="1.1" xmlns="http://www.w3.org/2000/svg" xmlns:xlink="http://www.w3.org/1999/xlink">
<desc>
Origin 0 0 Bound 286220 -374409 16535434 16535434
</desc>
<g fill-rule="evenodd" fill="rgb(0, 0, 255)" stroke="black" stroke-width="1" transform="translate(0, 16535434) scale(1, -1) translate(-286220, 374409)">
<path id="N" d="M 8943409.00 7984251.00 L 8156007.00 7984251.00 L 8156007.00 8771653.00 L 8943409.00 8771653.00 L 8943409.00 7984251.00  z"/>
<path id="N" d="M 1520473.97 7922053.69 m -327599.99 0 a 327599.99 327599.99 0 1 1 655199.97 0a 327599.99 327599.99 0 1 1 -655199.97 0M 1520473.22 7922044.65 m -220780.35 0 a 220780.35 220780.35 0 1 1 441560.70 0a 220780.35 220780.35 0 1 1 -441560.70 0"/>
<path id="N" d="M 1520473.97 9922053.69 m -327599.99 0 a 327599.99 327599.99 0 1 1 655199.97 0a 327599.99 327599.99 0 1 1 -655199.97 0M 1520473.22 9922044.65 m -220780.35 0 a 220780.35 220780.35 0 1 1 441560.70 0a 220780.35 220780.35 0 1 1 -441560.70 0"/>
<path id="N" d="M 4099997.35 10999993.57 m -297829.90 0 a 297829.90 297829.90 0 1 1 595659.80 0a 297829.90 297829.90 0 1 1 -595659.80 0M 4100000.36 11000000.47 m -200706.53 0 a 200706.53 200706.53 0 1 1 401413.05 0a 200706.53 200706.53 0 1 1 -401413.05 0"/>
<path id="N" d="M 8553916.44 7893191.95 m -8272263.15 0 a 8272263.15 8272263.15 0 1 1 16544526.29 0a 8272263.15 8272263.15 0 1 1 -16544526.29 0M 4606299.00 3035432.32 m -329590.35 0 a 329590.35 329590.35 0 1 1 659180.70 0a 329590.35 329590.35 0 1 1 -659180.70 0M 5334645.97 3371652.00 L 5057481.00 3371652.00 L 5057481.00 3094486.97 L 5157481.00 3094486.98 L 5157481.00 3271652.00 L 5334645.98 3271652.00 L 5334645.97 3371652.00  zM 5157481.00 2976376.98 L 5057481.00 2976376.97 L 5057481.00 2699212.00 L 5334646.03 2699212.00 L 5334646.02 2799212.00 L 5157481.00 2799212.00 L 5157481.00 2976376.98  zM 5393703.38 3035426.09 m -140500.91 0 a 140500.91 140500.91 0 1 1 281001.82 0a 140500.91 140500.91 0 1 1 -281001.82 0M 5729921.00 2976377.03 L 5629921.00 2976377.02 L 5629921.00 2799212.00 L 5452756.02 2799212.00 L 5452756.03 2699212.00 L 5729921.00 2699212.00 L 5729921.00 2976377.03  zM 5729921.00 3371652.00 L 5452755.97 3371652.00 L 5452755.98 3271652.00 L 5629921.00 3271652.00 L 5629921.00 3094487.02 L 5729921.00 3094487.03 L 5729921.00 3371652.00  zM 5650739.17 3840945.00 L 5548818.59 3840945.00 L 5513537.00 3786463.00 L 5459055.00 3751181.41 L 5459055.00 3649260.83 L 5499384.00 3660067.00 A 259700.25 259700.25 0 0 1 5639933.00 3800616.00 L 5650739.17 3840945.00  zM 5251181.41 3840945.00 L 5149260.83 3840945.00 L 5160067.00 3800616.00 A 259700.25 259700.25 0 0 1 5300616.00 3660067.00 L 5340945.00 3649260.83 L 5340945.00 3751181.41 L 5286463.00 3786463.00 L 5251657.00 3838554.00 L 5251181.41 3840945.00  zM 5340945.00 4150739.17 L 5300616.00 4139933.00 A 259700.25 259700.25 0 0 1 5160067.00 3999384.00 L 5149260.83 3959055.00 L 5251181.41 3959055.00 L 5286463.00 4013537.00 L 5340945.00 4048818.59 L 5340945.00 4150739.17  zM 5459055.00 4150739.17 L 5459055.00 4048818.59 L 5513537.00 4013537.00 L 5548818.59 3959055.00 L 5650739.17 3959055.00 L 5639933.00 3999384.00 A 259700.25 259700.25 0 0 1 5499384.00 4139933.00 L 5459055.00 4150739.17  zM 1520472.00 5922049.57 m -418936.46 0 a 418936.46 418936.46 0 1 1 837872.92 0a 418936.46 418936.46 0 1 1 -837872.92 0M 1520472.00 6922049.57 m -418936.46 0 a 418936.46 418936.46 0 1 1 837872.92 0a 418936.46 418936.46 0 1 1 -837872.92 0M 1520472.00 7922049.57 m -418936.46 0 a 418936.46 418936.46 0 1 1 837872.92 0a 418936.46 418936.46 0 1 1 -837872.92 0M 1520472.00 8922049.57 m -418936.46 0 a 418936.46 418936.46 0 1 1 837872.92 0a 418936.46 418936.46 0 1 1 -837872.92 0M 2200640.78 9862992.99 L 2096507.40 9862992.98 L 2124618.00 9758080.00 L 2180545.00 9661213.00 L 2259637.00 9582121.00 L 2356504.00 9526194.00 L 2461417.02 9498083.39 L 2461417.01 9602216.77 L 2435681.00 9605605.00 A 327599.99 327599.99 0 0 0 2204029.00 9837257.00 L 2200640.78 9862992.99  zM 2935826.00 6337402.00 L 2105118.00 6337402.00 L 2105118.00 5506694.00 L 2935826.00 5506694.00 L 2935826.00 6337402.00  zM 2520472.00 7922049.57 m -418936.46 0 a 418936.46 418936.46 0 1 1 837872.92 0a 418936.46 418936.46 0 1 1 -837872.92 0M 2520472.00 8922049.57 m -418936.46 0 a 418936.46 418936.46 0 1 1 837872.92 0a 418936.46 418936.46 0 1 1 -837872.92 0M 2520472.00 6922049.57 m -418936.46 0 a 418936.46 418936.46 0 1 1 837872.92 0a 418936.46 418936.46 0 1 1 -837872.92 0M 7000000.00 5400009.80 m -389145.57 0 a 389145.57 389145.57 0 1 1 778291.13 0a 389145.57 389145.57 0 1 1 -778291.13 0M 1520472.00 9922049.57 m -418936.46 0 a 418936.46 418936.46 0 1 1 837872.92 0a 418936.46 418936.46 0 1 1 -837872.92 0M 2461416.98 10346012.60 L 2356504.00 10317902.00 L 2259637.00 10261975.00 L 2180545.00 10182883.00 L 2124618.00 10086016.00 L 2096507.39 9981102.98 L 2200640.77 9981102.99 L 2204029.00 10006839.00 A 327599.99 327599.99 0 0 0 2435681.00 10238491.00 L 2461416.99 10241879.22 L 2461416.98 10346012.60  zM 2520473.22 9922044.65 m -220780.35 0 a 220780.35 220780.35 0 1 1 441560.70 0a 220780.35 220780.35 0 1 1 -441560.70 0M 2944436.61 9862993.02 L 2840303.23 9862993.01 L 2836915.00 9837257.00 A 327599.99 327599.99 0 0 0 2605263.00 9605605.00 L 2579527.01 9602216.78 L 2579527.02 9498083.40 L 2684440.00 9526194.00 L 2781307.00 9582121.00 L 2860399.00 9661213.00 L 2916326.00 9758080.00 L 2944436.61 9862993.02  zM 2579526.98 10346012.61 L 2579526.99 10241879.23 L 2605263.00 10238491.00 A 327599.99 327599.99 0 0 0 2836915.00 10006839.00 L 2840303.22 9981103.01 L 2944436.60 9981103.02 L 2916326.00 10086016.00 L 2860399.00 10182883.00 L 2781307.00 10261975.00 L 2684440.00 10317902.00 L 2579526.98 10346012.61  zM 3101181.41 10490945.00 L 2999260.83 10490945.00 L 3010067.00 10450616.00 A 259700.25 259700.25 0 0 1 3150616.00 10310067.00 L 3190945.00 10299260.83 L 3190945.00 10401181.41 L 3136463.00 10436463.00 L 3101657.00 10488554.00 L 3101181.41 10490945.00  zM 3190945.00 10800739.17 L 3150616.00 10789933.00 A 259700.25 259700.25 0 0 1 3010067.00 10649384.00 L 2999260.83 10609055.00 L 3101181.41 10609055.00 L 3136463.00 10663537.00 L 3190945.00 10698818.59 L 3190945.00 10800739.17  zM 3500739.17 10490945.00 L 3398818.59 10490945.00 L 3363537.00 10436463.00 L 3309055.00 10401181.41 L 3309055.00 10299260.83 L 3349384.00 10310067.00 A 259700.25 259700.25 0 0 1 3489933.00 10450616.00 L 3500739.17 10490945.00  zM 3309055.00 10800739.17 L 3309055.00 10698818.59 L 3363537.00 10663537.00 L 3398818.59 10609055.00 L 3500739.17 10609055.00 L 3489933.00 10649384.00 A 259700.25 259700.25 0 0 1 3349384.00 10789933.00 L 3309055.00 10800739.17  zM 4100000.00 11000009.80 m -389145.57 0 a 389145.57 389145.57 0 1 1 778291.13 0a 389145.57 389145.57 0 1 1 -778291.13 0M 5440945.00 10750739.17 L 5400616.00 10739933.00 A 259700.25 259700.25 0 0 1 5260067.00 10599384.00 L 5249260.83 10559055.00 L 5351181.41 10559055.00 L 5386463.00 10613537.00 L 5440945.00 10648818.59 L 5440945.00 10750739.17  zM 4451181.41 12840945.00 L 4349260.83 12840945.00 L 4360067.00 12800616.00 A 259700.25 259700.25 0 0 1 4500616.00 12660067.00 L 4540945.00 12649260.83 L 4540945.00 12751181.41 L 4486463.00 12786463.00 L 4451657.00 12838554.00 L 4451181.41 12840945.00  zM 4850739.17 12840945.00 L 4748818.59 12840945.00 L 4713537.00 12786463.00 L 4659055.00 12751181.41 L 4659055.00 12649260.83 L 4699384.00 12660067.00 A 259700.25 259700.25 0 0 1 4839933.00 12800616.00 L 4850739.17 12840945.00  zM 4540945.00 13150739.17 L 4500616.00 13139933.00 A 259700.25 259700.25 0 0 1 4360067.00 12999384.00 L 4349260.83 12959055.00 L 4451181.41 12959055.00 L 4486463.00 13013537.00 L 4540945.00 13048818.59 L 4540945.00 13150739.17  zM 4659055.00 13150739.17 L 4659055.00 13048818.59 L 4713537.00 13013537.00 L 4748818.59 12959055.00 L 4850739.17 12959055.00 L 4839933.00 12999384.00 A 259700.25 259700.25 0 0 1 4699384.00 13139933.00 L 4659055.00 13150739.17  zM 5351181.41 10440945.00 L 5249260.83 10440945.00 L 5260067.00 10400616.00 A 259700.25 259700.25 0 0 1 5400616.00 10260067.00 L 5440945.00 10249260.83 L 5440945.00 10351181.41 L 5386463.00 10386463.00 L 5351657.00 10438554.00 L 5351181.41 10440945.00  zM 5559055.00 10750739.17 L 5559055.00 10648818.59 L 5613537.00 10613537.00 L 5648818.59 10559055.00 L 5750739.17 10559055.00 L 5739933.00 10599384.00 A 259700.25 259700.25 0 0 1 5599384.00 10739933.00 L 5559055.00 10750739.17  zM 5750739.17 10440945.00 L 5648818.59 10440945.00 L 5613537.00 10386463.00 L 5559055.00 10351181.41 L 5559055.00 10249260.83 L 5599384.00 10260067.00 A 259700.25 259700.25 0 0 1 5739933.00 10400616.00 L 5750739.17 10440945.00  zM 7556848.83 12040945.00 L 7453477.17 12040945.00 L 7473852.00 11964905.00 A 353016.46 353016.46 0 0 1 7664905.00 11773852.00 L 7740945.00 11753477.17 L 7740945.00 11856848.83 L 7702455.00 11864505.00 L 7619760.00 11919760.00 L 7564505.00 12002455.00 L 7556848.83 12040945.00  zM 11351181.41 1240945.00 L 11249260.83 1240945.00 L 11260067.00 1200616.00 A 259700.25 259700.25 0 0 1 11400616.00 1060067.00 L 11440945.00 1049260.83 L 11440945.00 1151181.41 L 11386463.00 1186463.00 L 11351657.00 1238554.00 L 11351181.41 1240945.00  zM 11440945.00 1550739.17 L 11400616.00 1539933.00 A 259700.25 259700.25 0 0 1 11260067.00 1399384.00 L 11249260.83 1359055.00 L 11351181.41 1359055.00 L 11386463.00 1413537.00 L 11440945.00 1448818.59 L 11440945.00 1550739.17  zM 11559055.00 1550739.17 L 11559055.00 1448818.59 L 11613537.00 1413537.00 L 11648818.59 1359055.00 L 11750739.17 1359055.00 L 11739933.00 1399384.00 A 259700.25 259700.25 0 0 1 11599384.00 1539933.00 L 11559055.00 1550739.17  zM 11750739.17 1240945.00 L 11648818.59 1240945.00 L 11613537.00 1186463.00 L 11559055.00 1151181.41 L 11559055.00 1049260.83 L 11599384.00 1060067.00 A 259700.25 259700.25 0 0 1 11739933.00 1200616.00 L 11750739.17 1240945.00  zM 12250739.17 1640945.00 L 12148818.59 1640945.00 L 12113537.00 1586463.00 L 12059055.00 1551181.41 L 12059055.00 1449260.83 L 12099384.00 1460067.00 A 259700.25 259700.25 0 0 1 12239933.00 1600616.00 L 12250739.17 1640945.00  zM 11851181.41 1640945.00 L 11749260.83 1640945.00 L 11760067.00 1600616.00 A 259700.25 259700.25 0 0 1 11900616.00 1460067.00 L 11940945.00 1449260.83 L 11940945.00 1551181.41 L 11886463.00 1586463.00 L 11851657.00 1638554.00 L 11851181.41 1640945.00  zM 11940945.00 1950739.17 L 11900616.00 1939933.00 A 259700.25 259700.25 0 0 1 11760067.00 1799384.00 L 11749260.83 1759055.00 L 11851181.41 1759055.00 L 11886463.00 1813537.00 L 11940945.00 1848818.59 L 11940945.00 1950739.17  zM 12059055.00 1950739.17 L 12059055.00 1848818.59 L 12113537.00 1813537.00 L 12148818.59 1759055.00 L 12250739.17 1759055.00 L 12239933.00 1799384.00 A 259700.25 259700.25 0 0 1 12099384.00 1939933.00 L 12059055.00 1950739.17  zM 13100000.00 2000009.80 m -389145.57 0 a 389145.57 389145.57 0 1 1 778291.13 0a 389145.57 389145.57 0 1 1 -778291.13 0M 13600000.00 3570980.80 m -389145.57 0 a 389145.57 389145.57 0 1 1 778291.13 0a 389145.57 389145.57 0 1 1 -778291.13 0M 12001181.41 4840945.00 L 11899260.83 4840945.00 L 11910067.00 4800616.00 A 259700.25 259700.25 0 0 1 12050616.00 4660067.00 L 12090945.00 4649260.83 L 12090945.00 4751181.41 L 12036463.00 4786463.00 L 12001657.00 4838554.00 L 12001181.41 4840945.00  zM 12090945.00 5150739.17 L 12050616.00 5139933.00 A 259700.25 259700.25 0 0 1 11910067.00 4999384.00 L 11899260.83 4959055.00 L 12001181.41 4959055.00 L 12036463.00 5013537.00 L 12090945.00 5048818.59 L 12090945.00 5150739.17  zM 12209055.00 5150739.17 L 12209055.00 5048818.59 L 12263537.00 5013537.00 L 12298818.59 4959055.00 L 12400739.17 4959055.00 L 12389933.00 4999384.00 A 259700.25 259700.25 0 0 1 12249384.00 5139933.00 L 12209055.00 5150739.17  zM 12400739.17 4840945.00 L 12298818.59 4840945.00 L 12263537.00 4786463.00 L 12209055.00 4751181.41 L 12209055.00 4649260.83 L 12249384.00 4660067.00 A 259700.25 259700.25 0 0 1 12389933.00 4800616.00 L 12400739.17 4840945.00  zM 14001181.41 6290945.00 L 13899260.83 6290945.00 L 13910067.00 6250616.00 A 259700.25 259700.25 0 0 1 14050616.00 6110067.00 L 14090945.00 6099260.83 L 14090945.00 6201181.41 L 14036463.00 6236463.00 L 14001657.00 6288554.00 L 14001181.41 6290945.00  zM 15151181.41 5190945.00 L 15049260.83 5190945.00 L 15060067.00 5150616.00 A 259700.25 259700.25 0 0 1 15200616.00 5010067.00 L 15240945.00 4999260.83 L 15240945.00 5101181.41 L 15186463.00 5136463.00 L 15151657.00 5188554.00 L 15151181.41 5190945.00  zM 15550739.17 5190945.00 L 15448818.59 5190945.00 L 15413537.00 5136463.00 L 15359055.00 5101181.41 L 15359055.00 4999260.83 L 15399384.00 5010067.00 A 259700.25 259700.25 0 0 1 15539933.00 5150616.00 L 15550739.17 5190945.00  zM 15240945.00 5500739.17 L 15200616.00 5489933.00 A 259700.25 259700.25 0 0 1 15060067.00 5349384.00 L 15049260.83 5309055.00 L 15151181.41 5309055.00 L 15186463.00 5363537.00 L 15240945.00 5398818.59 L 15240945.00 5500739.17  zM 15359055.00 5500739.17 L 15359055.00 5398818.59 L 15413537.00 5363537.00 L 15448818.59 5309055.00 L 15550739.17 5309055.00 L 15539933.00 5349384.00 A 259700.25 259700.25 0 0 1 15399384.00 5489933.00 L 15359055.00 5500739.17  zM 9033960.00 8862204.00 L 8065456.00 8862204.00 L 8065456.00 7893700.00 L 9033960.00 7893700.00 L 9033960.00 8862204.00  zM 11401181.41 10490945.00 L 11299260.83 10490945.00 L 11310067.00 10450616.00 A 259700.25 259700.25 0 0 1 11450616.00 10310067.00 L 11490945.00 10299260.83 L 11490945.00 10401181.41 L 11436463.00 10436463.00 L 11401657.00 10488554.00 L 11401181.41 10490945.00  zM 11490945.00 10800739.17 L 11450616.00 10789933.00 A 259700.25 259700.25 0 0 1 11310067.00 10649384.00 L 11299260.83 10609055.00 L 11401181.41 10609055.00 L 11436463.00 10663537.00 L 11490945.00 10698818.59 L 11490945.00 10800739.17  zM 11800739.17 10490945.00 L 11698818.59 10490945.00 L 11663537.00 10436463.00 L 11609055.00 10401181.41 L 11609055.00 10299260.83 L 11649384.00 10310067.00 A 259700.25 259700.25 0 0 1 11789933.00 10450616.00 L 11800739.17 10490945.00  zM 11609055.00 10800739.17 L 11609055.00 10698818.59 L 11663537.00 10663537.00 L 11698818.59 10609055.00 L 11800739.17 10609055.00 L 11789933.00 10649384.00 A 259700.25 259700.25 0 0 1 11649384.00 10789933.00 L 11609055.00 10800739.17  zM 7740945.00 12446522.83 L 7664905.00 12426148.00 A 353016.46 353016.46 0 0 1 7473852.00 12235095.00 L 7453477.17 12159055.00 L 7556848.83 12159055.00 L 7564505.00 12197545.00 L 7619760.00 12280240.00 L 7702455.00 12335495.00 L 7740945.00 12343151.17 L 7740945.00 12446522.83  zM 8146522.83 12040945.00 L 8043151.17 12040945.00 L 8035495.00 12002455.00 L 7980240.00 11919760.00 L 7897545.00 11864505.00 L 7859055.00 11856848.83 L 7859055.00 11753477.17 L 7935095.00 11773852.00 A 353016.46 353016.46 0 0 1 8126148.00 11964905.00 L 8146522.83 12040945.00  zM 7859055.00 12446522.83 L 7859055.00 12343151.17 L 7897545.00 12335495.00 L 7980240.00 12280240.00 L 8035495.00 12197545.00 L 8043151.17 12159055.00 L 8146522.83 12159055.00 L 8126148.00 12235095.00 A 353016.46 353016.46 0 0 1 7935095.00 12426148.00 L 7859055.00 12446522.83  zM 12351181.41 12790945.00 L 12249260.83 12790945.00 L 12260067.00 12750616.00 A 259700.25 259700.25 0 0 1 12400616.00 12610067.00 L 12440945.00 12599260.83 L 12440945.00 12701181.41 L 12386463.00 12736463.00 L 12351657.00 12788554.00 L 12351181.41 12790945.00  zM 12440945.00 13100739.17 L 12400616.00 13089933.00 A 259700.25 259700.25 0 0 1 12260067.00 12949384.00 L 12249260.83 12909055.00 L 12351181.41 12909055.00 L 12386463.00 12963537.00 L 12440945.00 12998818.59 L 12440945.00 13100739.17  zM 14400739.17 6290945.00 L 14298818.59 6290945.00 L 14263537.00 6236463.00 L 14209055.00 6201181.41 L 14209055.00 6099260.83 L 14249384.00 6110067.00 A 259700.25 259700.25 0 0 1 14389933.00 6250616.00 L 14400739.17 6290945.00  zM 14090945.00 6600739.17 L 14050616.00 6589933.00 A 259700.25 259700.25 0 0 1 13910067.00 6449384.00 L 13899260.83 6409055.00 L 14001181.41 6409055.00 L 14036463.00 6463537.00 L 14090945.00 6498818.59 L 14090945.00 6600739.17  zM 14209055.00 6600739.17 L 14209055.00 6498818.59 L 14263537.00 6463537.00 L 14298818.59 6409055.00 L 14400739.17 6409055.00 L 14389933.00 6449384.00 A 259700.25 259700.25 0 0 1 14249384.00 6589933.00 L 14209055.00 6600739.17  zM 16051181.41 7040945.00 L 15949260.83 7040945.00 L 15960067.00 7000616.00 A 259700.25 259700.25 0 0 1 16100616.00 6860067.00 L 16140945.00 6849260.83 L 16140945.00 6951181.41 L 16086463.00 6986463.00 L 16051657.00 7038554.00 L 16051181.41 7040945.00  zM 16450739.17 7040945.00 L 16348818.59 7040945.00 L 16313537.00 6986463.00 L 16259055.00 6951181.41 L 16259055.00 6849260.83 L 16299384.00 6860067.00 A 259700.25 259700.25 0 0 1 16439933.00 7000616.00 L 16450739.17 7040945.00  zM 16140945.00 7350739.17 L 16100616.00 7339933.00 A 259700.25 259700.25 0 0 1 15960067.00 7199384.00 L 15949260.83 7159055.00 L 16051181.41 7159055.00 L 16086463.00 7213537.00 L 16140945.00 7248818.59 L 16140945.00 7350739.17  zM 16259055.00 7350739.17 L 16259055.00 7248818.59 L 16313537.00 7213537.00 L 16348818.59 7159055.00 L 16450739.17 7159055.00 L 16439933.00 7199384.00 A 259700.25 259700.25 0 0 1 16299384.00 7339933.00 L 16259055.00 7350739.17  zM 12750739.17 12790945.00 L 12648818.59 12790945.00 L 12613537.00 12736463.00 L 12559055.00 12701181.41 L 12559055.00 12599260.83 L 12599384.00 12610067.00 A 259700.25 259700.25 0 0 1 12739933.00 12750616.00 L 12750739.17 12790945.00  zM 12559055.00 13100739.17 L 12559055.00 12998818.59 L 12613537.00 12963537.00 L 12648818.59 12909055.00 L 12750739.17 12909055.00 L 12739933.00 12949384.00 A 259700.25 259700.25 0 0 1 12599384.00 13089933.00 L 12559055.00 13100739.17  z"/>
<path id="N" d="M 2520473.97 8922053.69 m -327599.99 0 a 327599.99 327599.99 0 1 1 655199.97 0a 327599.99 327599.99 0 1 1 -655199.97 0M 2520473.22 8922044.65 m -220780.35 0 a 220780.35 220780.35 0 1 1 441560.70 0a 220780.35 220780.35 0 1 1 -441560.70 0"/>
<path id="N" d="M 1520473.97 8922053.69 m -327599.99 0 a 327599.99 327599.99 0 1 1 655199.97 0a 327599.99 327599.99 0 1 1 -655199.97 0M 1520473.22 8922044.65 m -220780.35 0 a 220780.35 220780.35 0 1 1 441560.70 0a 220780.35 220780.35 0 1 1 -441560.70 0"/>
<path id="N" d="M 1520473.97 5922053.69 m -327599.99 0 a 327599.99 327599.99 0 1 1 655199.97 0a 327599.99 327599.99 0 1 1 -655199.97 0M 1520473.22 5922044.65 m -220780.35 0 a 220780.35 220780.35 0 1 1 441560.70 0a 220780.35 220780.35 0 1 1 -441560.70 0"/>
<path id="N" d="M 13599990.01 3570951.86 m -297844.08 0 a 297844.08 297844.08 0 1 1 595688.15 0a 297844.08 297844.08 0 1 1 -595688.15 0M 13600000.36 3570971.47 m -200706.53 0 a 200706.53 200706.53 0 1 1 401413.05 0a 200706.53 200706.53 0 1 1 -401413.05 0"/>
<path id="N" d="M 13099997.35 1999993.57 m -297829.90 0 a 297829.90 297829.90 0 1 1 595659.80 0a 297829.90 297829.90 0 1 1 -595659.80 0"/>
<path id="N" d="M 2520473.97 6922053.69 m -327599.99 0 a 327599.99 327599.99 0 1 1 655199.97 0a 327599.99 327599.99 0 1 1 -655199.97 0M 2520473.22 6922044.65 m -220780.35 0 a 220780.35 220780.35 0 1 1 441560.70 0a 220780.35 220780.35 0 1 1 -441560.70 0"/>
<path id="N" d="M 1520473.97 6922053.69 m -327599.99 0 a 327599.99 327599.99 0 1 1 655199.97 0a 327599.99 327599.99 0 1 1 -655199.97 0M 1520473.22 6922044.65 m -220780.35 0 a 220780.35 220780.35 0 1 1 441560.70 0a 220780.35 220780.35 0 1 1 -441560.70 0"/>
<path id="N" d="M 2520473.97 7922053.69 m -327599.99 0 a 327599.99 327599.99 0 1 1 655199.97 0a 327599.99 327599.99 0 1 1 -655199.97 0M 2520473.22 7922044.65 m -220780.35 0 a 220780.35 220780.35 0 1 1 441560.70 0a 220780.35 220780.35 0 1 1 -441560.70 0"/>
<path id="N" d="M 2845275.00 5597245.00 L 2195669.00 5597245.00 L 2195669.00 6246851.00 L 2845275.00 6246851.00 L 2845275.00 5597245.00  zM 2520473.22 5922044.65 m -220780.35 0 a 220780.35 220780.35 0 1 1 441560.70 0a 220780.35 220780.35 0 1 1 -441560.70 0"/>
<path id="N" d="M 6999997.35 5399993.57 m -297829.90 0 a 297829.90 297829.90 0 1 1 595659.80 0a 297829.90 297829.90 0 1 1 -595659.80 0M 7000000.36 5400000.47 m -200706.53 0 a 200706.53 200706.53 0 1 1 401413.05 0a 200706.53 200706.53 0 1 1 -401413.05 0"/>
<path id="N" d="M 4606290.06 3035423.06 m -240860.29 0 a 240860.29 240860.29 0 1 1 481720.58 0a 240860.29 240860.29 0 1 1 -481720.58 0M 4606301.38 3035426.09 m -140500.91 0 a 140500.91 140500.91 0 1 1 281001.82 0a 140500.91 140500.91 0 1 1 -281001.82 0"/>
</g>
</svg>
