<svg width="42.00000236mm" height="42.00000236mm" viewBox="0 0 16535434 16535434"  version="1.1" xmlns="http://www.w3.org/2000/svg" xmlns:xlink="http://www.w3.org/1999/xlink">
<desc>
Origin 0 0 Bound 286220 -374409 16535434 16535434
</desc>
<g fill-rule="evenodd" fill="rgb(128, 128, 0)" stroke="black" stroke-width="1" transform="translate(0, 16535434) scale(1, -1) translate(-286220, 374409)">
<path id="N" d="M 4853409.00 9869295.00 L 4892767.00 9829937.00 L 4899007.00 9814871.00 L 4892766.00 9799804.00 L 4877700.00 9793564.00 L 4862633.00 9799805.00 L 4829516.84 9832922.00 L 4768454.00 9832922.00 L 4741578.00 9806046.00 L 4741578.00 9784339.00 L 4768453.00 9757464.00 L 4798985.00 9757464.00 L 4814051.00 9751223.00 L 4820292.00 9736157.00 L 4814051.00 9721091.00 L 4798985.00 9714850.00 L 4768453.00 9714850.00 L 4741578.00 9687975.00 L 4741578.00 9666267.00 L 4768453.00 9639392.00 L 4829518.00 9639392.00 L 4862634.00 9672508.00 L 4877700.00 9678748.00 L 4892766.00 9672508.00 L 4899006.00 9657442.00 L 4892766.00 9642376.00 L 4853409.00 9603019.00 L 4838343.00 9596778.00 L 4759628.00 9596778.00 L 4744562.00 9603019.00 L 4705205.00 9642376.00 L 4698964.00 9657442.00 L 4698964.00 9696800.00 L 4705205.00 9711866.00 L 4729496.00 9736157.00 L 4705205.00 9760448.00 L 4698964.00 9775514.00 L 4698964.00 9814871.00 L 4705204.00 9829937.00 L 4744561.00 9869295.00 L 4759628.00 9875536.00 L 4838343.00 9875536.00 L 4853409.00 9869295.00  z"/>
<path id="N" d="M 5286339.00 9869295.00 L 5325697.00 9829937.00 L 5331937.00 9814871.00 L 5325696.00 9799804.00 L 5310630.00 9793564.00 L 5295563.00 9799805.00 L 5262446.84 9832922.00 L 5201384.00 9832922.00 L 5174508.00 9806046.00 L 5174508.00 9784339.00 L 5201383.00 9757464.00 L 5231915.00 9757464.00 L 5246981.00 9751223.00 L 5253222.00 9736157.00 L 5246981.00 9721091.00 L 5231915.00 9714850.00 L 5201383.00 9714850.00 L 5174508.00 9687975.00 L 5174508.00 9666267.00 L 5201383.00 9639392.00 L 5262448.00 9639392.00 L 5295564.00 9672508.00 L 5310630.00 9678748.00 L 5325696.00 9672508.00 L 5331936.00 9657442.00 L 5325696.00 9642376.00 L 5286339.00 9603019.00 L 5271273.00 9596778.00 L 5192558.00 9596778.00 L 5177492.00 9603019.00 L 5138135.00 9642376.00 L 5131894.00 9657442.00 L 5131894.00 9696800.00 L 5138135.00 9711866.00 L 5162426.00 9736157.00 L 5138135.00 9760448.00 L 5131894.00 9775514.00 L 5131894.00 9814871.00 L 5138134.00 9829937.00 L 5177491.00 9869295.00 L 5192558.00 9875536.00 L 5271273.00 9875536.00 L 5286339.00 9869295.00  z"/>
<path id="N" d="M 5088385.00 7062602.00 L 5127742.00 7023244.00 L 5133982.00 7008178.00 L 5133982.00 6968821.00 L 5127741.00 6953755.00 L 5088384.00 6914398.00 L 5073318.00 6908157.00 L 5003428.00 6908157.00 L 4976553.00 6881282.00 L 4976553.00 6859574.00 L 5003428.00 6832699.00 L 5064493.00 6832699.00 L 5097609.00 6865815.00 L 5112675.00 6872055.00 L 5127741.00 6865815.00 L 5133981.00 6850749.00 L 5127741.00 6835683.00 L 5088384.00 6796326.00 L 5073318.00 6790085.00 L 4994603.00 6790085.00 L 4979537.00 6796326.00 L 4940180.00 6835683.00 L 4933939.00 6850749.00 L 4933939.00 6890107.00 L 4940180.00 6905173.00 L 4979537.00 6944530.00 L 4994603.00 6950771.00 L 5064493.00 6950771.00 L 5091368.00 6977646.00 L 5091368.00 6999353.00 L 5064492.00 7026229.00 L 5003429.16 7026229.00 L 4970313.00 6993112.00 L 4955246.00 6986871.00 L 4940180.00 6993111.00 L 4933939.00 7008178.00 L 4940179.00 7023244.00 L 4979537.00 7062602.00 L 4994603.00 7068843.00 L 5073318.00 7068843.00 L 5088385.00 7062602.00  z"/>
<path id="N" d="M 5088385.00 5999609.00 L 5127742.00 5960251.00 L 5133982.00 5945185.00 L 5133982.00 5905828.00 L 5127741.00 5890762.00 L 5088384.00 5851405.00 L 5073318.00 5845164.00 L 5003428.00 5845164.00 L 4976553.00 5818289.00 L 4976553.00 5796581.00 L 5003428.00 5769706.00 L 5064493.00 5769706.00 L 5097609.00 5802822.00 L 5112675.00 5809062.00 L 5127741.00 5802822.00 L 5133981.00 5787756.00 L 5127741.00 5772690.00 L 5088384.00 5733333.00 L 5073318.00 5727092.00 L 4994603.00 5727092.00 L 4979537.00 5733333.00 L 4940180.00 5772690.00 L 4933939.00 5787756.00 L 4933939.00 5827114.00 L 4940180.00 5842180.00 L 4979537.00 5881537.00 L 4994603.00 5887778.00 L 5064493.00 5887778.00 L 5091368.00 5914653.00 L 5091368.00 5936360.00 L 5064492.00 5963236.00 L 5003429.16 5963236.00 L 4970313.00 5930119.00 L 4955246.00 5923878.00 L 4940180.00 5930118.00 L 4933939.00 5945185.00 L 4940179.00 5960251.00 L 4979537.00 5999609.00 L 4994603.00 6005850.00 L 5073318.00 6005850.00 L 5088385.00 5999609.00  z"/>
<path id="N" d="M 4143809.00 9070476.00 L 4183166.00 9031118.00 L 4189406.00 9016052.00 L 4189406.00 8976695.00 L 4183165.00 8961629.00 L 4143808.00 8922272.00 L 4128742.00 8916031.00 L 4058852.00 8916031.00 L 4031977.00 8889156.00 L 4031977.00 8867448.00 L 4058852.00 8840573.00 L 4119917.00 8840573.00 L 4153033.00 8873689.00 L 4168099.00 8879929.00 L 4183165.00 8873689.00 L 4189405.00 8858623.00 L 4183165.00 8843557.00 L 4143808.00 8804200.00 L 4128742.00 8797959.00 L 4050027.00 8797959.00 L 4034961.00 8804200.00 L 3995604.00 8843557.00 L 3989363.00 8858623.00 L 3989363.00 8897981.00 L 3995604.00 8913047.00 L 4034961.00 8952404.00 L 4050027.00 8958645.00 L 4119917.00 8958645.00 L 4146792.00 8985520.00 L 4146792.00 9007227.00 L 4119916.00 9034103.00 L 4058853.16 9034103.00 L 4025737.00 9000986.00 L 4010670.00 8994745.00 L 3995604.00 9000985.00 L 3989363.00 9016052.00 L 3995603.00 9031118.00 L 4034961.00 9070476.00 L 4050027.00 9076717.00 L 4128742.00 9076717.00 L 4143809.00 9070476.00  z"/>
<path id="N" d="M 13105367.00 2976920.00 L 13170963.00 2911324.00 L 13183444.00 2881188.59 L 13183444.00 2815595.00 L 13170961.29 2785461.29 L 13105367.00 2719867.00 L 13075234.00 2707386.00 L 12961694.19 2707386.00 L 12921062.00 2666753.19 L 12921062.00 2636459.81 L 12961694.19 2595827.00 L 13057582.19 2595827.00 L 13110698.00 2648942.00 L 13140830.00 2661424.00 L 13170963.00 2648942.00 L 13183445.00 2618809.00 L 13170963.00 2588677.00 L 13105367.00 2523080.00 L 13075234.00 2510599.00 L 12944043.00 2510599.00 L 12913909.29 2523081.71 L 12848315.00 2588676.00 L 12835834.00 2618809.00 L 12835834.00 2684404.00 L 12848316.71 2714537.71 L 12913910.00 2780133.00 L 12944043.00 2792614.00 L 13057583.19 2792614.00 L 13098216.00 2833246.19 L 13098216.00 2863539.81 L 13057582.19 2904173.00 L 12961694.19 2904173.00 L 12908581.00 2851059.00 L 12878448.00 2838577.00 L 12848316.00 2851058.00 L 12835834.00 2881191.00 L 12848315.00 2911323.00 L 12913910.00 2976920.00 L 12944043.00 2989401.00 L 13075234.00 2989401.00 L 13105367.00 2976920.00  z"/>
<path id="N" d="M 4852241.00 8086225.00 L 4891598.00 8046867.00 L 4897838.00 8031801.00 L 4897838.00 7992444.00 L 4891597.00 7977378.00 L 4852240.00 7938021.00 L 4837174.00 7931780.00 L 4767284.00 7931780.00 L 4740409.00 7904905.00 L 4740409.00 7883197.00 L 4767284.00 7856322.00 L 4828349.00 7856322.00 L 4861465.00 7889438.00 L 4876531.00 7895678.00 L 4891597.00 7889438.00 L 4897837.00 7874372.00 L 4891597.00 7859306.00 L 4852240.00 7819949.00 L 4837174.00 7813708.00 L 4758459.00 7813708.00 L 4743393.00 7819949.00 L 4704036.00 7859306.00 L 4697795.00 7874372.00 L 4697795.00 7913730.00 L 4704036.00 7928796.00 L 4743393.00 7968153.00 L 4758459.00 7974394.00 L 4828349.00 7974394.00 L 4855224.00 8001269.00 L 4855224.00 8022976.00 L 4828348.00 8049852.00 L 4767285.16 8049852.00 L 4734169.00 8016735.00 L 4719102.00 8010494.00 L 4704036.00 8016734.00 L 4697795.00 8031801.00 L 4704035.00 8046867.00 L 4743393.00 8086225.00 L 4758459.00 8092466.00 L 4837174.00 8092466.00 L 4852241.00 8086225.00  z"/>
<path id="N" d="M 5324529.00 9070476.00 L 5363886.00 9031118.00 L 5370126.00 9016052.00 L 5370126.00 8976695.00 L 5363885.00 8961629.00 L 5324528.00 8922272.00 L 5309462.00 8916031.00 L 5239572.00 8916031.00 L 5212697.00 8889156.00 L 5212697.00 8867448.00 L 5239572.00 8840573.00 L 5300637.00 8840573.00 L 5333753.00 8873689.00 L 5348819.00 8879929.00 L 5363885.00 8873689.00 L 5370125.00 8858623.00 L 5363885.00 8843557.00 L 5324528.00 8804200.00 L 5309462.00 8797959.00 L 5230747.00 8797959.00 L 5215681.00 8804200.00 L 5176324.00 8843557.00 L 5170083.00 8858623.00 L 5170083.00 8897981.00 L 5176324.00 8913047.00 L 5215681.00 8952404.00 L 5230747.00 8958645.00 L 5300637.00 8958645.00 L 5327512.00 8985520.00 L 5327512.00 9007227.00 L 5300636.00 9034103.00 L 5239573.16 9034103.00 L 5206457.00 9000986.00 L 5191390.00 8994745.00 L 5176324.00 9000985.00 L 5170083.00 9016052.00 L 5176323.00 9031118.00 L 5215681.00 9070476.00 L 5230747.00 9076717.00 L 5309462.00 9076717.00 L 5324529.00 9070476.00  z"/>
<path id="N" d="M 3908834.00 9869295.00 L 3948191.00 9829937.00 L 3954431.00 9814871.00 L 3954431.00 9657442.00 L 3948190.00 9642376.00 L 3908833.00 9603019.00 L 3893767.00 9596778.00 L 3815052.00 9596778.00 L 3799986.00 9603019.00 L 3760629.00 9642376.00 L 3754388.00 9657442.00 L 3754388.00 9736157.00 L 3760629.00 9751223.00 L 3775695.00 9757464.00 L 3854409.00 9757464.00 L 3869475.00 9751223.00 L 3875716.00 9736157.00 L 3869475.00 9721091.00 L 3854409.00 9714850.00 L 3797002.00 9714850.00 L 3797002.00 9666267.00 L 3823877.00 9639392.00 L 3884942.00 9639392.00 L 3911817.00 9666267.00 L 3911817.00 9806046.00 L 3884941.00 9832922.00 L 3823878.16 9832922.00 L 3790762.00 9799805.00 L 3775695.00 9793564.00 L 3760629.00 9799804.00 L 3754388.00 9814871.00 L 3760628.00 9829937.00 L 3799986.00 9869295.00 L 3815052.00 9875536.00 L 3893767.00 9875536.00 L 3908834.00 9869295.00  z"/>
<path id="N" d="M 4183165.00 5999609.00 L 4189406.00 5984543.00 L 4189406.00 5748399.00 L 4183165.00 5733333.00 L 4168099.00 5727092.00 L 4050027.00 5727092.00 L 4034961.00 5733333.00 L 3995604.00 5772690.00 L 3989363.00 5787756.00 L 3989363.00 5827114.00 L 3995604.00 5842180.00 L 4019895.00 5866471.00 L 3995604.00 5890762.00 L 3989363.00 5905828.00 L 3989363.00 5945185.00 L 3995603.00 5960251.00 L 4034961.00 5999609.00 L 4050027.00 6005850.00 L 4168099.00 6005850.00 L 4183165.00 5999609.00  zM 4146792.00 5845164.00 L 4058852.00 5845164.00 L 4031977.00 5818289.00 L 4031977.00 5796581.00 L 4058852.00 5769706.00 L 4146792.00 5769706.00 L 4146792.00 5845164.00  zM 4146792.00 5963236.00 L 4058853.16 5963236.00 L 4031977.00 5936359.16 L 4031977.00 5914653.00 L 4058852.00 5887778.00 L 4146792.00 5887778.00 L 4146792.00 5963236.00  z"/>
<path id="N" d="M 10119732.00 7754872.00 L 10132213.00 7724739.00 L 10132213.00 7331165.00 L 10119732.00 7301032.00 L 10089599.00 7288551.00 L 9892812.00 7288551.00 L 9862678.29 7301033.71 L 9797084.00 7366628.00 L 9784603.00 7396761.00 L 9784603.00 7462356.00 L 9797085.71 7492489.71 L 9832546.96 7527951.50 L 9797084.00 7563414.00 L 9784603.00 7593547.00 L 9784603.00 7659143.00 L 9797085.71 7689276.71 L 9862679.00 7754872.00 L 9892812.00 7767353.00 L 10089599.00 7767353.00 L 10119732.00 7754872.00  zM 10046985.00 7485338.00 L 9910463.19 7485338.00 L 9869831.00 7444705.19 L 9869831.00 7414411.81 L 9910463.19 7373779.00 L 10046985.00 7373779.00 L 10046985.00 7485338.00  zM 10046985.00 7682125.00 L 9910463.19 7682125.00 L 9869831.00 7641492.19 L 9869831.00 7611198.19 L 9910463.81 7570566.00 L 10046985.00 7570566.00 L 10046985.00 7682125.00  z"/>
<path id="N" d="M 13958111.00 2976920.00 L 13970592.00 2946787.00 L 13970592.00 2553213.00 L 13958111.00 2523080.00 L 13927978.00 2510599.00 L 13731191.00 2510599.00 L 13701057.29 2523081.71 L 13635463.00 2588676.00 L 13622982.00 2618809.00 L 13622982.00 2684404.00 L 13635464.71 2714537.71 L 13670925.96 2749999.50 L 13635463.00 2785462.00 L 13622982.00 2815595.00 L 13622982.00 2881191.00 L 13635464.71 2911324.71 L 13701058.00 2976920.00 L 13731191.00 2989401.00 L 13927978.00 2989401.00 L 13958111.00 2976920.00  zM 13885364.00 2707386.00 L 13748842.19 2707386.00 L 13708210.00 2666753.19 L 13708210.00 2636459.81 L 13748842.19 2595827.00 L 13885364.00 2595827.00 L 13885364.00 2707386.00  zM 13885364.00 2904173.00 L 13748842.19 2904173.00 L 13708210.00 2863540.19 L 13708210.00 2833246.19 L 13748842.81 2792614.00 L 13885364.00 2792614.00 L 13885364.00 2904173.00  z"/>
<path id="N" d="M 5363885.00 5999609.00 L 5370126.00 5984543.00 L 5370126.00 5748399.00 L 5363885.00 5733333.00 L 5348819.00 5727092.00 L 5333753.00 5733333.00 L 5327512.00 5748399.00 L 5327512.00 5805807.00 L 5278929.16 5805807.00 L 5206457.00 5733333.00 L 5191390.00 5727093.00 L 5176324.00 5733333.00 L 5170084.00 5748399.00 L 5176324.00 5763465.00 L 5222204.21 5809345.80 L 5215681.00 5812048.00 L 5176324.00 5851405.00 L 5170083.00 5866471.00 L 5170083.00 5945185.00 L 5176323.00 5960251.00 L 5215680.00 5999609.00 L 5230747.00 6005850.00 L 5348819.00 6005850.00 L 5363885.00 5999609.00  zM 5327512.00 5963236.00 L 5239573.00 5963236.00 L 5212697.00 5936360.00 L 5212697.00 5875296.00 L 5239572.00 5848421.00 L 5327512.00 5848421.00 L 5327512.00 5963236.00  z"/>
<path id="N" d="M 5088385.00 9070476.00 L 5127742.00 9031118.00 L 5133982.00 9016052.00 L 5133982.00 8858623.00 L 5127741.00 8843557.00 L 5088384.00 8804200.00 L 5073318.00 8797959.00 L 4994603.00 8797959.00 L 4979537.00 8804200.00 L 4940180.00 8843557.00 L 4933940.00 8858623.00 L 4940180.00 8873689.00 L 4955246.00 8879929.00 L 4970312.00 8873689.00 L 5003428.00 8840573.00 L 5064493.00 8840573.00 L 5091368.00 8867448.00 L 5091368.00 9007227.00 L 5064492.00 9034103.00 L 5003429.16 9034103.00 L 4970313.00 9000986.00 L 4955246.00 8994745.00 L 4940180.00 9000985.00 L 4933939.00 9016052.00 L 4940179.00 9031118.00 L 4979537.00 9070476.00 L 4994603.00 9076717.00 L 5073318.00 9076717.00 L 5088385.00 9070476.00  z"/>
<path id="N" d="M 5324529.00 7062602.00 L 5363886.00 7023244.00 L 5370126.00 7008178.00 L 5370126.00 6850749.00 L 5363885.00 6835683.00 L 5324528.00 6796326.00 L 5309462.00 6790085.00 L 5230747.00 6790085.00 L 5215681.00 6796326.00 L 5176324.00 6835683.00 L 5170084.00 6850749.00 L 5176324.00 6865815.00 L 5191390.00 6872055.00 L 5206456.00 6865815.00 L 5239572.00 6832699.00 L 5300637.00 6832699.00 L 5327512.00 6859574.00 L 5327512.00 6999353.00 L 5300636.00 7026229.00 L 5239573.16 7026229.00 L 5206457.00 6993112.00 L 5191390.00 6986871.00 L 5176324.00 6993111.00 L 5170083.00 7008178.00 L 5176323.00 7023244.00 L 5215681.00 7062602.00 L 5230747.00 7068843.00 L 5309462.00 7068843.00 L 5324529.00 7062602.00  z"/>
<path id="N" d="M 3947023.00 8086225.00 L 3986380.00 8046867.00 L 3992620.00 8031801.00 L 3992620.00 7874372.00 L 3986379.00 7859306.00 L 3947022.00 7819949.00 L 3931956.00 7813708.00 L 3853241.00 7813708.00 L 3838175.00 7819949.00 L 3798818.00 7859306.00 L 3792578.00 7874372.00 L 3798818.00 7889438.00 L 3813884.00 7895678.00 L 3828950.00 7889438.00 L 3862066.00 7856322.00 L 3923131.00 7856322.00 L 3950006.00 7883197.00 L 3950006.00 8022976.00 L 3923130.00 8049852.00 L 3862067.16 8049852.00 L 3828951.00 8016735.00 L 3813884.00 8010494.00 L 3798818.00 8016734.00 L 3792577.00 8031801.00 L 3798817.00 8046867.00 L 3838175.00 8086225.00 L 3853241.00 8092466.00 L 3931956.00 8092466.00 L 3947023.00 8086225.00  z"/>
<path id="N" d="M 9266988.00 7689276.00 L 9279469.00 7659143.00 L 9279469.00 7636161.00 L 9302451.00 7636161.00 L 9332584.00 7623680.00 L 9345065.00 7593547.00 L 9332584.00 7563414.00 L 9302451.00 7550933.00 L 9279469.00 7550933.00 L 9279469.00 7396761.00 L 9266986.29 7366627.29 L 9201393.00 7301033.00 L 9171260.00 7288551.00 L 9141128.00 7301032.00 L 9128646.00 7331165.00 L 9141127.00 7361297.00 L 9194241.00 7414411.81 L 9194241.00 7550933.00 L 9171260.00 7550933.00 L 9141127.00 7563414.00 L 9128646.00 7593547.00 L 9141127.00 7623680.00 L 9171260.00 7636161.00 L 9194241.00 7636161.00 L 9194241.00 7659143.00 L 9206722.00 7689276.00 L 9236855.00 7701757.00 L 9266988.00 7689276.00  z"/>
<path id="N" d="M 9660562.00 7623680.00 L 9673043.00 7593547.00 L 9660562.00 7563414.00 L 9630429.00 7550933.00 L 9516889.81 7550933.00 L 9476257.00 7510300.81 L 9476257.00 7504970.00 L 9630429.00 7504970.00 L 9660562.71 7492487.29 L 9726158.00 7426894.00 L 9738640.00 7396761.00 L 9726158.00 7366629.00 L 9660562.00 7301032.00 L 9630429.00 7288551.00 L 9433643.00 7288551.00 L 9403510.00 7301032.00 L 9391029.00 7331165.00 L 9391029.00 7527952.00 L 9403511.71 7558085.71 L 9469105.00 7623680.00 L 9499238.00 7636161.00 L 9630429.00 7636161.00 L 9660562.00 7623680.00  zM 9612778.19 7419742.00 L 9476257.00 7419742.00 L 9476257.00 7373779.00 L 9612777.19 7373779.00 L 9635759.54 7396761.00 L 9612778.19 7419742.00  z"/>
<path id="N" d="M 8545436.71 7623678.29 L 8611032.00 7558085.00 L 8623513.00 7527952.00 L 8623513.00 7396761.00 L 8611032.00 7366628.00 L 8545436.00 7301032.00 L 8515300.59 7288551.00 L 8384112.00 7288551.00 L 8353978.29 7301033.71 L 8288384.00 7366628.00 L 8275903.00 7396761.00 L 8275903.00 7527952.00 L 8288384.00 7558085.00 L 8353979.00 7623680.00 L 8384112.00 7636161.00 L 8515303.00 7636161.00 L 8545436.71 7623678.29  zM 8497652.19 7550933.00 L 8401763.19 7550933.00 L 8361131.00 7510300.19 L 8361131.00 7414411.81 L 8401763.19 7373779.00 L 8497651.81 7373779.00 L 8538285.00 7414412.81 L 8538285.00 7510300.81 L 8497652.19 7550933.00  z"/>
<path id="N" d="M 3947021.00 7062602.00 L 3953262.00 7047536.00 L 3953262.00 6811392.00 L 3947021.00 6796326.00 L 3931955.00 6790085.00 L 3916889.00 6796326.00 L 3910648.00 6811392.00 L 3910648.00 6996097.00 L 3868306.00 6953755.00 L 3853240.00 6947514.00 L 3838174.00 6953755.00 L 3795833.00 6996096.54 L 3795833.00 6811392.00 L 3789592.00 6796326.00 L 3774526.00 6790085.00 L 3759460.00 6796326.00 L 3753219.00 6811392.00 L 3753219.00 7047536.00 L 3759460.00 7062602.00 L 3774526.00 7068843.00 L 3789593.00 7062602.00 L 3853240.19 6998953.19 L 3916889.00 7062602.00 L 3931955.00 7068843.00 L 3947021.00 7062602.00  z"/>
<path id="N" d="M 5363885.00 8086225.00 L 5370126.00 8071159.00 L 5370126.00 7835015.00 L 5363885.00 7819949.00 L 5348819.00 7813708.00 L 5333753.00 7819949.00 L 5327512.00 7835015.00 L 5327512.00 8019720.00 L 5285170.00 7977378.00 L 5270104.00 7971137.00 L 5255038.00 7977378.00 L 5212697.00 8019719.54 L 5212697.00 7835015.00 L 5206456.00 7819949.00 L 5191390.00 7813708.00 L 5176324.00 7819949.00 L 5170083.00 7835015.00 L 5170083.00 8071159.00 L 5176324.00 8086225.00 L 5191390.00 8092466.00 L 5206457.00 8086225.00 L 5270104.19 8022576.19 L 5333753.00 8086225.00 L 5348819.00 8092466.00 L 5363885.00 8086225.00  z"/>
<path id="N" d="M 3708799.00 9871958.00 L 3712046.00 9869295.00 L 3717873.00 9858408.00 L 3718287.00 9618085.00 L 3712046.00 9603019.00 L 3696980.00 9596778.00 L 3681914.00 9603019.00 L 3675673.00 9618085.00 L 3675673.00 9783856.25 L 3554617.00 9603019.00 L 3543729.00 9597192.00 L 3539551.00 9596778.00 L 3527732.00 9600356.00 L 3524485.00 9603019.00 L 3518658.00 9613906.00 L 3518244.00 9854229.00 L 3524485.00 9869295.00 L 3539551.00 9875536.00 L 3554617.00 9869295.00 L 3560858.00 9854229.00 L 3560858.00 9688458.12 L 3681914.00 9869295.00 L 3692801.00 9875122.00 L 3696980.00 9875536.00 L 3708799.00 9871958.00  z"/>
<path id="N" d="M 5088385.00 8086225.00 L 5127742.00 8046867.00 L 5133982.00 8031801.00 L 5133982.00 7874372.00 L 5127741.00 7859306.00 L 5088384.00 7819949.00 L 5073318.00 7813708.00 L 4994603.00 7813708.00 L 4979537.00 7819949.00 L 4940180.00 7859306.00 L 4933939.00 7874372.00 L 4933939.00 8031801.00 L 4940179.00 8046867.00 L 4979537.00 8086225.00 L 4994603.00 8092466.00 L 5073318.00 8092466.00 L 5088385.00 8086225.00  zM 5064492.00 8049852.00 L 5003429.16 8049852.00 L 4976553.00 8022975.16 L 4976553.00 7883197.00 L 5003428.00 7856322.00 L 5064493.00 7856322.00 L 5091368.00 7883197.00 L 5091368.00 8022976.00 L 5064492.00 8049852.00  z"/>
<path id="N" d="M 8742224.00 7754872.00 L 8843282.39 7653812.84 L 8944340.00 7754872.00 L 8974473.00 7767353.00 L 9004606.00 7754872.00 L 9017087.00 7724739.00 L 9017087.00 7331165.00 L 9004606.00 7301032.00 L 8974473.00 7288551.00 L 8944340.00 7301032.00 L 8931859.00 7331165.00 L 8931859.00 7621858.45 L 8873415.00 7563414.00 L 8843282.00 7550932.00 L 8813149.00 7563414.00 L 8754705.00 7621858.89 L 8754705.00 7331165.00 L 8742224.00 7301032.00 L 8712091.00 7288551.00 L 8681958.00 7301032.00 L 8669477.00 7331165.00 L 8669476.00 7724739.00 L 8681958.00 7754872.00 L 8712091.00 7767354.00 L 8742224.00 7754872.00  z"/>
<path id="N" d="M 3632162.00 9070476.00 L 3710877.00 8991761.00 L 3717118.00 8976695.00 L 3717118.00 8819266.00 L 3710877.00 8804200.00 L 3695811.00 8797959.00 L 3680745.00 8804200.00 L 3674504.00 8819266.00 L 3674504.00 8916031.00 L 3559689.00 8916031.00 L 3559689.00 8819266.00 L 3553448.00 8804200.00 L 3538382.00 8797959.00 L 3523316.00 8804200.00 L 3517075.00 8819266.00 L 3517075.00 8976695.00 L 3523316.00 8991761.00 L 3602030.00 9070476.00 L 3617096.00 9076717.00 L 3632162.00 9070476.00  zM 3617096.19 9025277.81 L 3559689.00 8967869.16 L 3559689.00 8958645.00 L 3674504.00 8958645.00 L 3674504.00 8967870.00 L 3617096.19 9025277.81  z"/>
<path id="N" d="M 3514091.00 8086225.00 L 3520332.00 8071159.00 L 3520332.00 7835015.00 L 3514091.00 7819949.00 L 3499025.00 7813708.00 L 3483959.00 7819949.00 L 3477718.00 7835015.00 L 3477718.00 7904905.00 L 3459668.00 7922955.00 L 3356662.00 7819949.00 L 3341596.00 7813708.00 L 3326530.00 7819949.00 L 3320289.00 7835015.00 L 3326530.00 7850081.00 L 3429536.00 7953087.00 L 3326530.00 8056093.00 L 3320289.00 8071159.00 L 3326530.00 8086225.00 L 3341596.00 8092466.00 L 3356662.00 8086225.00 L 3477718.00 7965169.00 L 3477718.00 8071159.00 L 3483959.00 8086225.00 L 3499025.00 8092466.00 L 3514091.00 8086225.00  z"/>
<path id="N" d="M 4655453.00 8086225.00 L 4661694.00 8071159.00 L 4655453.00 8056093.00 L 4640387.00 8049852.00 L 4622337.00 8049852.00 L 4622337.00 7856322.00 L 4640387.00 7856322.00 L 4655453.00 7850081.00 L 4661694.00 7835015.00 L 4655453.00 7819949.00 L 4640387.00 7813708.00 L 4561672.00 7813708.00 L 4546606.00 7819949.00 L 4540365.00 7835015.00 L 4546606.00 7850081.00 L 4561672.00 7856322.00 L 4579723.00 7856322.00 L 4579723.00 8049852.00 L 4561672.00 8049852.00 L 4546606.00 8056093.00 L 4540365.00 8071159.00 L 4546606.00 8086225.00 L 4561672.00 8092466.00 L 4640387.00 8092466.00 L 4655453.00 8086225.00  z"/>
<path id="N" d="M 7823884.00 7754872.00 L 7836365.00 7724739.00 L 7836365.00 7331165.00 L 7823884.00 7301032.00 L 7793751.00 7288551.00 L 7763618.00 7301032.00 L 7751137.00 7331165.00 L 7751137.00 7419742.00 L 7596964.00 7419742.00 L 7566830.29 7432224.71 L 7501236.00 7497819.00 L 7488755.00 7527952.00 L 7488755.00 7659143.00 L 7501237.71 7689276.71 L 7566831.00 7754872.00 L 7596964.00 7767353.00 L 7793751.00 7767353.00 L 7823884.00 7754872.00  zM 7751137.00 7682125.00 L 7614615.19 7682125.00 L 7573983.00 7641492.19 L 7573983.00 7545602.81 L 7614615.19 7504970.00 L 7751137.00 7504970.00 L 7751137.00 7682125.00  z"/>
<path id="N" d="M 13564537.00 2976920.00 L 13577018.00 2946787.00 L 13577018.00 2618809.00 L 13564537.00 2588676.00 L 13498941.00 2523080.00 L 13468805.59 2510599.00 L 13337617.00 2510599.00 L 13307483.29 2523081.71 L 13241889.00 2588676.00 L 13229408.00 2618809.00 L 13229408.00 2946787.00 L 13241889.00 2976920.00 L 13272022.00 2989401.00 L 13302155.00 2976920.00 L 13314636.00 2946787.00 L 13314636.00 2636459.81 L 13355268.19 2595827.00 L 13451156.81 2595827.00 L 13491790.00 2636460.81 L 13491790.00 2946787.00 L 13504271.00 2976920.00 L 13534404.00 2989401.00 L 13564537.00 2976920.00  z"/>
<path id="N" d="M 7430310.00 7623680.00 L 7442791.00 7593547.00 L 7430310.00 7563414.00 L 7400177.00 7550933.00 L 7377195.00 7550933.00 L 7377195.00 7373779.00 L 7400177.00 7373779.00 L 7430310.00 7361298.00 L 7442791.00 7331165.00 L 7430310.00 7301032.00 L 7400177.00 7288551.00 L 7268986.00 7288551.00 L 7238853.00 7301032.00 L 7226372.00 7331165.00 L 7238853.00 7361298.00 L 7268986.00 7373779.00 L 7291967.00 7373779.00 L 7291967.00 7593547.00 L 7304448.00 7623680.00 L 7334581.00 7636161.00 L 7400177.00 7636161.00 L 7430310.00 7623680.00  z"/>
<path id="N" d="M 4419309.00 7062602.00 L 4425550.00 7047536.00 L 4425550.00 6811392.00 L 4419309.00 6796326.00 L 4404243.00 6790085.00 L 4286171.00 6790085.00 L 4271105.00 6796326.00 L 4231748.00 6835683.00 L 4225507.00 6850749.00 L 4225507.00 7008178.00 L 4231747.00 7023244.00 L 4271105.00 7062602.00 L 4286171.00 7068843.00 L 4404243.00 7068843.00 L 4419309.00 7062602.00  zM 4382936.00 7026229.00 L 4294997.16 7026229.00 L 4268121.00 6999352.16 L 4268121.00 6859574.00 L 4294996.00 6832699.00 L 4382936.00 6832699.00 L 4382936.00 7026229.00  z"/>
<path id="N" d="M 3475902.00 9869295.00 L 3482143.00 9854229.00 L 3482143.00 9618085.00 L 3475902.00 9603019.00 L 3460836.00 9596778.00 L 3342764.00 9596778.00 L 3327698.00 9603019.00 L 3288341.00 9642376.00 L 3282100.00 9657442.00 L 3282100.00 9814871.00 L 3288340.00 9829937.00 L 3327698.00 9869295.00 L 3342764.00 9875536.00 L 3460836.00 9875536.00 L 3475902.00 9869295.00  zM 3439529.00 9832922.00 L 3351590.16 9832922.00 L 3324714.00 9806045.16 L 3324714.00 9666267.00 L 3351589.00 9639392.00 L 3439529.00 9639392.00 L 3439529.00 9832922.00  z"/>
<path id="N" d="M 3947021.00 9070476.00 L 3953262.00 9055410.00 L 3953262.00 8819266.00 L 3947021.00 8804200.00 L 3931955.00 8797959.00 L 3813883.00 8797959.00 L 3798817.00 8804200.00 L 3759460.00 8843557.00 L 3753219.00 8858623.00 L 3753219.00 9016052.00 L 3759459.00 9031118.00 L 3798817.00 9070476.00 L 3813883.00 9076717.00 L 3931955.00 9076717.00 L 3947021.00 9070476.00  zM 3910648.00 9034103.00 L 3822709.16 9034103.00 L 3795833.00 9007226.16 L 3795833.00 8867448.00 L 3822708.00 8840573.00 L 3910648.00 8840573.00 L 3910648.00 9034103.00  z"/>
<path id="N" d="M 7102332.00 7623680.00 L 7114813.00 7593547.00 L 7114813.00 7331165.00 L 7102332.00 7301032.00 L 7072199.00 7288551.00 L 7042066.00 7301032.00 L 7029585.00 7331165.00 L 7029585.00 7550933.00 L 6893063.81 7550933.00 L 6852431.00 7510300.81 L 6852431.00 7331165.00 L 6839950.00 7301032.00 L 6809817.00 7288551.00 L 6779684.00 7301032.00 L 6767203.00 7331165.00 L 6767203.00 7527952.00 L 6779685.71 7558085.71 L 6845279.00 7623680.00 L 6875412.00 7636161.00 L 7072199.00 7636161.00 L 7102332.00 7623680.00  z"/>
<path id="N" d="M 14351685.00 2976920.00 L 14364166.00 2946787.00 L 14364166.00 2684404.00 L 14351685.00 2654271.00 L 14220494.00 2523080.00 L 14190361.00 2510599.00 L 14160228.00 2523080.00 L 14029037.00 2654271.00 L 14016556.00 2684404.00 L 14016556.00 2946787.00 L 14029037.00 2976920.00 L 14059170.00 2989401.00 L 14089303.00 2976920.00 L 14101784.00 2946787.00 L 14101784.00 2702056.00 L 14190361.00 2613479.00 L 14278938.00 2702056.00 L 14278938.00 2946787.00 L 14291419.00 2976920.00 L 14321552.00 2989401.00 L 14351685.00 2976920.00  z"/>
<path id="N" d="M 8217458.00 7623680.00 L 8229939.00 7593547.00 L 8229939.00 7331165.00 L 8217458.00 7301032.00 L 8187325.00 7288551.00 L 8157192.00 7301032.00 L 8144711.00 7331165.00 L 8144711.00 7550933.00 L 8008189.81 7550933.00 L 7967557.00 7510300.81 L 7967557.00 7331165.00 L 7955076.00 7301032.00 L 7924943.00 7288551.00 L 7894810.00 7301032.00 L 7882329.00 7331165.00 L 7882329.00 7527952.00 L 7894811.71 7558085.71 L 7960405.00 7623680.00 L 7990538.00 7636161.00 L 8187325.00 7636161.00 L 8217458.00 7623680.00  z"/>
<path id="N" d="M 4656622.00 9869295.00 L 4662863.00 9854229.00 L 4662863.00 9696800.00 L 4656622.00 9681734.00 L 4577907.00 9603019.00 L 4562841.00 9596778.00 L 4547775.00 9603019.00 L 4469061.00 9681734.00 L 4462820.00 9696800.00 L 4462820.00 9854229.00 L 4469061.00 9869295.00 L 4484127.00 9875536.00 L 4499193.00 9869295.00 L 4505434.00 9854229.00 L 4505434.00 9705625.84 L 4562841.19 9648217.19 L 4620249.00 9705625.00 L 4620249.00 9854229.00 L 4626490.00 9869295.00 L 4641556.00 9875536.00 L 4656622.00 9869295.00  z"/>
<path id="N" d="M 3710877.00 7062602.00 L 3717118.00 7047536.00 L 3717118.00 6811392.00 L 3710877.00 6796326.00 L 3695811.00 6790085.00 L 3577739.00 6790085.00 L 3562673.00 6796326.00 L 3523316.00 6835683.00 L 3517075.00 6850749.00 L 3517075.00 7008178.00 L 3523315.00 7023244.00 L 3562673.00 7062602.00 L 3577739.00 7068843.00 L 3695811.00 7068843.00 L 3710877.00 7062602.00  zM 3674504.00 7026229.00 L 3586565.16 7026229.00 L 3559689.00 6999352.16 L 3559689.00 6859574.00 L 3586564.00 6832699.00 L 3674504.00 6832699.00 L 3674504.00 7026229.00  z"/>
<path id="N" d="M 4891597.00 5999609.00 L 4897838.00 5984543.00 L 4891597.00 5969477.00 L 4876531.00 5963236.00 L 4819123.00 5963236.00 L 4819123.00 5748399.00 L 4812882.00 5733333.00 L 4797816.00 5727092.00 L 4782750.00 5733333.00 L 4776509.00 5748399.00 L 4776509.00 5963236.00 L 4719102.00 5963236.00 L 4704036.00 5969477.00 L 4697795.00 5984543.00 L 4704036.00 5999609.00 L 4719102.00 6005850.00 L 4876531.00 6005850.00 L 4891597.00 5999609.00  z"/>
<path id="N" d="M 4381121.00 9672508.00 L 4387362.00 9657442.00 L 4387362.00 9618085.00 L 4381121.00 9603019.00 L 4374598.67 9600317.16 L 4420479.00 9554436.00 L 4426719.00 9539370.00 L 4420478.00 9524303.00 L 4405412.00 9518063.00 L 4390346.00 9524304.00 L 4311631.00 9603018.00 L 4305390.00 9618085.00 L 4305390.00 9657442.00 L 4311631.00 9672508.00 L 4326697.00 9678749.00 L 4366055.00 9678749.00 L 4381121.00 9672508.00  z"/>
<path id="N" d="M 4616096.00 8873689.00 L 4622337.00 8858623.00 L 4622337.00 8819266.00 L 4616096.00 8804200.00 L 4609573.67 8801498.16 L 4655454.00 8755617.00 L 4661694.00 8740551.00 L 4655453.00 8725484.00 L 4640387.00 8719244.00 L 4625321.00 8725485.00 L 4546606.00 8804199.00 L 4540365.00 8819266.00 L 4540365.00 8858623.00 L 4546606.00 8873689.00 L 4561672.00 8879930.00 L 4601030.00 8879930.00 L 4616096.00 8873689.00  z"/>
<path id="N" d="M 4852240.00 6865815.00 L 4858481.00 6850749.00 L 4858481.00 6811392.00 L 4852240.00 6796326.00 L 4845717.67 6793624.16 L 4891598.00 6747743.00 L 4897838.00 6732677.00 L 4891597.00 6717610.00 L 4876531.00 6711370.00 L 4861465.00 6717611.00 L 4782750.00 6796325.00 L 4776509.00 6811392.00 L 4776509.00 6850749.00 L 4782750.00 6865815.00 L 4797816.00 6872056.00 L 4837174.00 6872056.00 L 4852240.00 6865815.00  z"/>
<path id="N" d="M 4419310.00 7889438.00 L 4425551.00 7874372.00 L 4425551.00 7835015.00 L 4419310.00 7819949.00 L 4412787.67 7817247.16 L 4458668.00 7771366.00 L 4464908.00 7756300.00 L 4458667.00 7741233.00 L 4443601.00 7734993.00 L 4428535.00 7741234.00 L 4349820.00 7819948.00 L 4343579.00 7835015.00 L 4343579.00 7874372.00 L 4349820.00 7889438.00 L 4364886.00 7895679.00 L 4404244.00 7895679.00 L 4419310.00 7889438.00  z"/>
<path id="N" d="M 4616096.00 5802822.00 L 4622337.00 5787756.00 L 4622337.00 5748399.00 L 4616096.00 5733333.00 L 4609573.67 5730631.16 L 4655454.00 5684750.00 L 4661694.00 5669684.00 L 4655453.00 5654617.00 L 4640387.00 5648377.00 L 4625321.00 5654618.00 L 4546606.00 5733332.00 L 4540365.00 5748399.00 L 4540365.00 5787756.00 L 4546606.00 5802822.00 L 4561672.00 5809063.00 L 4601030.00 5809063.00 L 4616096.00 5802822.00  z"/>
<path id="N" d="M 3750235.00 8086225.00 L 3756476.00 8071159.00 L 3756476.00 7835015.00 L 3750235.00 7819949.00 L 3735169.00 7813708.00 L 3577740.00 7813708.00 L 3562674.00 7819949.00 L 3556433.00 7835015.00 L 3562674.00 7850081.00 L 3577740.00 7856322.00 L 3713862.00 7856322.00 L 3713862.00 8071159.00 L 3720103.00 8086225.00 L 3735169.00 8092466.00 L 3750235.00 8086225.00  z"/>
<path id="N" d="M 3947021.00 5999609.00 L 3953262.00 5984543.00 L 3953262.00 5748399.00 L 3947021.00 5733333.00 L 3931955.00 5727092.00 L 3774526.00 5727092.00 L 3759460.00 5733333.00 L 3753219.00 5748399.00 L 3759460.00 5763465.00 L 3774526.00 5769706.00 L 3910648.00 5769706.00 L 3910648.00 5984543.00 L 3916889.00 5999609.00 L 3931955.00 6005850.00 L 3947021.00 5999609.00  z"/>
<path id="N" d="M 4891597.00 9070476.00 L 4897838.00 9055410.00 L 4897838.00 8819266.00 L 4891597.00 8804200.00 L 4876531.00 8797959.00 L 4719102.00 8797959.00 L 4704036.00 8804200.00 L 4697795.00 8819266.00 L 4704036.00 8834332.00 L 4719102.00 8840573.00 L 4855224.00 8840573.00 L 4855224.00 9055410.00 L 4861465.00 9070476.00 L 4876531.00 9076717.00 L 4891597.00 9070476.00  z"/>
<path id="N" d="M 5089552.00 9672508.00 L 5095793.00 9657442.00 L 5095793.00 9618085.00 L 5089552.00 9603019.00 L 5074486.00 9596778.00 L 5035129.00 9596778.00 L 5020063.00 9603019.00 L 5013822.00 9618085.00 L 5013822.00 9657442.00 L 5020063.00 9672508.00 L 5035129.00 9678749.00 L 5074486.00 9678749.00 L 5089552.00 9672508.00  z"/>
<path id="N" d="M 4025736.00 6983887.00 L 4183165.00 6826458.00 L 4189406.00 6811392.00 L 4183165.00 6796326.00 L 4168099.00 6790085.00 L 4153033.00 6796326.00 L 3995604.00 6953755.00 L 3989364.00 6968821.00 L 3995604.00 6983887.00 L 4010670.00 6990127.00 L 4025736.00 6983887.00  z"/>
<path id="N" d="M 7364714.00 7754872.00 L 7377195.00 7724739.00 L 7364714.00 7694606.00 L 7334581.00 7682125.00 L 7304448.00 7694606.00 L 7291967.00 7724739.00 L 7304448.00 7754872.00 L 7334581.00 7767353.00 L 7364714.00 7754872.00  z"/>
</g>
</svg>
