<svg width="42.00000236mm" height="42.00000236mm" viewBox="0 0 16535434 16535434"  version="1.1" xmlns="http://www.w3.org/2000/svg" xmlns:xlink="http://www.w3.org/1999/xlink">
<desc>
Origin 0 0 Bound 286220 -374409 16535434 16535434
</desc>
<g fill-rule="evenodd" fill="rgb(255, 255, 0)" stroke="black" stroke-width="1" transform="translate(0, 16535434) scale(1, -1) translate(-286220, 374409)">
<path id="N" d="M 13600003.51 3570978.26 m -544016.30 0 a 544016.30 544016.30 0 1 1 1088032.60 0a 544016.30 544016.30 0 1 1 -1088032.60 0M 13599998.74 3570978.09 m -459554.91 0 a 459554.91 459554.91 0 1 1 919109.82 0a 459554.91 459554.91 0 1 1 -919109.82 0"/>
<path id="N" d="M 4100003.51 11000007.26 m -544016.30 0 a 544016.30 544016.30 0 1 1 1088032.60 0a 544016.30 544016.30 0 1 1 -1088032.60 0M 4099998.74 11000007.09 m -459554.91 0 a 459554.91 459554.91 0 1 1 919109.82 0a 459554.91 459554.91 0 1 1 -919109.82 0"/>
<path id="N" d="M 7000003.51 5400007.26 m -544016.30 0 a 544016.30 544016.30 0 1 1 1088032.60 0a 544016.30 544016.30 0 1 1 -1088032.60 0M 6999998.74 5400007.09 m -459554.91 0 a 459554.91 459554.91 0 1 1 919109.82 0a 459554.91 459554.91 0 1 1 -919109.82 0"/>
<path id="N" d="M 6299693.41 10839400.00 L 6430882.00 10839400.00 L 6461015.71 10826917.29 L 6526610.00 10761323.00 L 6539091.00 10731190.00 L 6539091.00 10665594.00 L 6526610.00 10635461.00 L 6491147.00 10599998.54 L 6526610.00 10564536.00 L 6539091.00 10534403.00 L 6539091.00 10468808.00 L 6526608.29 10438674.29 L 6461015.00 10373079.00 L 6430882.00 10360598.00 L 6299691.00 10360598.00 L 6269558.00 10373079.00 L 6203962.00 10438676.00 L 6191480.00 10468808.00 L 6203962.00 10498941.00 L 6234095.00 10511423.00 L 6264227.00 10498941.00 L 6317342.81 10445826.00 L 6413230.81 10445826.00 L 6453863.00 10486458.81 L 6453863.00 10516752.19 L 6413230.81 10557385.00 L 6365286.00 10557385.00 L 6335153.00 10569866.00 L 6322672.00 10599999.00 L 6335153.00 10630132.00 L 6365286.00 10642613.00 L 6413230.81 10642613.00 L 6453863.00 10683245.81 L 6453863.00 10713539.19 L 6413230.81 10754172.00 L 6317342.19 10754172.00 L 6264228.00 10701057.00 L 6234095.00 10688576.00 L 6203962.00 10701057.00 L 6191481.00 10731190.00 L 6203962.00 10761323.00 L 6269558.00 10826919.00 L 6278384.21 10830574.79 L 6299693.41 10839400.00  z"/>
<path id="N" d="M 11831194.41 12339401.00 L 11962383.00 12339401.00 L 11992516.71 12326918.29 L 12058111.00 12261324.00 L 12070592.00 12231191.00 L 12070592.00 12165595.00 L 12058111.00 12135462.00 L 12022648.00 12099999.54 L 12058111.00 12064537.00 L 12070592.00 12034404.00 L 12070592.00 11968809.00 L 12058109.29 11938675.29 L 11992516.00 11873080.00 L 11962383.00 11860599.00 L 11831192.00 11860599.00 L 11801059.00 11873080.00 L 11735463.00 11938677.00 L 11722981.00 11968809.00 L 11735463.00 11998942.00 L 11765596.00 12011424.00 L 11795728.00 11998942.00 L 11848843.81 11945827.00 L 11944731.81 11945827.00 L 11985364.00 11986459.81 L 11985364.00 12016753.19 L 11944731.81 12057386.00 L 11896787.00 12057386.00 L 11866654.00 12069867.00 L 11854173.00 12100000.00 L 11866654.00 12130133.00 L 11896787.00 12142614.00 L 11944731.81 12142614.00 L 11985364.00 12183246.81 L 11985364.00 12213540.19 L 11944731.81 12254173.00 L 11848843.19 12254173.00 L 11795729.00 12201058.00 L 11765596.00 12188577.00 L 11735463.00 12201058.00 L 11722982.00 12231191.00 L 11735463.00 12261324.00 L 11801059.00 12326920.00 L 11809885.21 12330575.79 L 11831194.41 12339401.00  z"/>
<path id="N" d="M 3526844.41 10439401.00 L 3658033.00 10439401.00 L 3688166.71 10426918.29 L 3753761.00 10361324.00 L 3766242.00 10331191.00 L 3766242.00 10265595.00 L 3753761.00 10235462.00 L 3718298.00 10199999.54 L 3753761.00 10164537.00 L 3766242.00 10134404.00 L 3766242.00 10068809.00 L 3753759.29 10038675.29 L 3688166.00 9973080.00 L 3658033.00 9960599.00 L 3526842.00 9960599.00 L 3496709.00 9973080.00 L 3431113.00 10038677.00 L 3418631.00 10068809.00 L 3431113.00 10098942.00 L 3461246.00 10111424.00 L 3491378.00 10098942.00 L 3544493.81 10045827.00 L 3640381.81 10045827.00 L 3681014.00 10086459.81 L 3681014.00 10116753.19 L 3640381.81 10157386.00 L 3592437.00 10157386.00 L 3562304.00 10169867.00 L 3549823.00 10200000.00 L 3562304.00 10230133.00 L 3592437.00 10242614.00 L 3640381.81 10242614.00 L 3681014.00 10283246.81 L 3681014.00 10313540.19 L 3640381.81 10354173.00 L 3544493.19 10354173.00 L 3491379.00 10301058.00 L 3461246.00 10288577.00 L 3431113.00 10301058.00 L 3418632.00 10331191.00 L 3431113.00 10361324.00 L 3496709.00 10426920.00 L 3505535.21 10430575.79 L 3526844.41 10439401.00  z"/>
<path id="N" d="M 4248396.41 10439401.00 L 4379585.00 10439401.00 L 4409718.71 10426918.29 L 4475313.00 10361324.00 L 4487794.00 10331191.00 L 4487794.00 10265595.00 L 4475313.00 10235462.00 L 4439850.00 10199999.54 L 4475313.00 10164537.00 L 4487794.00 10134404.00 L 4487794.00 10068809.00 L 4475311.29 10038675.29 L 4409718.00 9973080.00 L 4379585.00 9960599.00 L 4248394.00 9960599.00 L 4218261.00 9973080.00 L 4152665.00 10038677.00 L 4140183.00 10068809.00 L 4152665.00 10098942.00 L 4182798.00 10111424.00 L 4212930.00 10098942.00 L 4266045.81 10045827.00 L 4361933.81 10045827.00 L 4402566.00 10086459.81 L 4402566.00 10116753.19 L 4361933.81 10157386.00 L 4313989.00 10157386.00 L 4283856.00 10169867.00 L 4271375.00 10200000.00 L 4283856.00 10230133.00 L 4313989.00 10242614.00 L 4361933.81 10242614.00 L 4402566.00 10283246.81 L 4402566.00 10313540.19 L 4361933.81 10354173.00 L 4266045.19 10354173.00 L 4212931.00 10301058.00 L 4182798.00 10288577.00 L 4152665.00 10301058.00 L 4140184.00 10331191.00 L 4152665.00 10361324.00 L 4218261.00 10426920.00 L 4227087.21 10430575.79 L 4248396.41 10439401.00  z"/>
<path id="N" d="M 7981194.41 3539401.00 L 8112383.00 3539401.00 L 8142516.71 3526918.29 L 8208111.00 3461324.00 L 8220592.00 3431191.00 L 8220592.00 3365595.00 L 8208111.00 3335462.00 L 8172648.00 3299999.54 L 8208111.00 3264537.00 L 8220592.00 3234404.00 L 8220592.00 3168809.00 L 8208109.29 3138675.29 L 8142516.00 3073080.00 L 8112383.00 3060599.00 L 7981192.00 3060599.00 L 7951059.00 3073080.00 L 7885463.00 3138677.00 L 7872981.00 3168809.00 L 7885463.00 3198942.00 L 7915596.00 3211424.00 L 7945728.00 3198942.00 L 7998843.81 3145827.00 L 8094731.81 3145827.00 L 8135364.00 3186459.81 L 8135364.00 3216753.19 L 8094731.81 3257386.00 L 8046787.00 3257386.00 L 8016654.00 3269867.00 L 8004173.00 3300000.00 L 8016654.00 3330133.00 L 8046787.00 3342614.00 L 8094731.81 3342614.00 L 8135364.00 3383246.81 L 8135364.00 3413540.19 L 8094731.81 3454173.00 L 7998843.19 3454173.00 L 7945729.00 3401058.00 L 7915596.00 3388577.00 L 7885463.00 3401058.00 L 7872982.00 3431191.00 L 7885463.00 3461324.00 L 7951059.00 3526920.00 L 7959885.21 3530575.79 L 7981194.41 3539401.00  z"/>
<path id="N" d="M 3819856.00 9843937.00 L 3859213.00 9804579.00 L 3865453.00 9789513.00 L 3865453.00 9750156.00 L 3859212.00 9735090.00 L 3834921.00 9710799.00 L 3859212.00 9686508.00 L 3865453.00 9671442.00 L 3865453.00 9632084.00 L 3859212.00 9617018.00 L 3819855.00 9577661.00 L 3804789.00 9571420.00 L 3726074.00 9571420.00 L 3711008.00 9577661.00 L 3671651.00 9617018.00 L 3665411.00 9632084.00 L 3671651.00 9647150.00 L 3686717.00 9653390.00 L 3701783.00 9647150.00 L 3734899.00 9614034.00 L 3795964.00 9614034.00 L 3822839.00 9640909.00 L 3822839.00 9662617.00 L 3795964.00 9689492.00 L 3765432.00 9689492.00 L 3750366.00 9695733.00 L 3744125.00 9710799.00 L 3750366.00 9725865.00 L 3765432.00 9732106.00 L 3795964.00 9732106.00 L 3822839.00 9758981.00 L 3822839.00 9780688.00 L 3795963.00 9807564.00 L 3734900.16 9807564.00 L 3701784.00 9774447.00 L 3686717.00 9768206.00 L 3671651.00 9774446.00 L 3665410.00 9789513.00 L 3671650.00 9804579.00 L 3711008.00 9843937.00 L 3726074.00 9850178.00 L 3804789.00 9850178.00 L 3819856.00 9843937.00  z"/>
<path id="N" d="M 3386926.00 9843937.00 L 3426283.00 9804579.00 L 3432523.00 9789513.00 L 3432523.00 9750156.00 L 3426282.00 9735090.00 L 3401991.00 9710799.00 L 3426282.00 9686508.00 L 3432523.00 9671442.00 L 3432523.00 9632084.00 L 3426282.00 9617018.00 L 3386925.00 9577661.00 L 3371859.00 9571420.00 L 3293144.00 9571420.00 L 3278078.00 9577661.00 L 3238721.00 9617018.00 L 3232481.00 9632084.00 L 3238721.00 9647150.00 L 3253787.00 9653390.00 L 3268853.00 9647150.00 L 3301969.00 9614034.00 L 3363034.00 9614034.00 L 3389909.00 9640909.00 L 3389909.00 9662617.00 L 3363034.00 9689492.00 L 3332502.00 9689492.00 L 3317436.00 9695733.00 L 3311195.00 9710799.00 L 3317436.00 9725865.00 L 3332502.00 9732106.00 L 3363034.00 9732106.00 L 3389909.00 9758981.00 L 3389909.00 9780688.00 L 3363033.00 9807564.00 L 3301970.16 9807564.00 L 3268854.00 9774447.00 L 3253787.00 9768206.00 L 3238721.00 9774446.00 L 3232480.00 9789513.00 L 3238720.00 9804579.00 L 3278078.00 9843937.00 L 3293144.00 9850178.00 L 3371859.00 9850178.00 L 3386926.00 9843937.00  z"/>
<path id="N" d="M 3661258.00 7037244.00 L 3700616.00 6997886.00 L 3706856.00 6982820.00 L 3700615.00 6967753.00 L 3685549.00 6961513.00 L 3670482.00 6967754.00 L 3637365.84 7000871.00 L 3576303.00 7000871.00 L 3549427.00 6973995.00 L 3549427.00 6952288.00 L 3576302.00 6925413.00 L 3646192.00 6925413.00 L 3661258.00 6919172.00 L 3700615.00 6879815.00 L 3706856.00 6864749.00 L 3706856.00 6825391.00 L 3700615.00 6810325.00 L 3661258.00 6770968.00 L 3646192.00 6764727.00 L 3567477.00 6764727.00 L 3552411.00 6770968.00 L 3513054.00 6810325.00 L 3506814.00 6825391.00 L 3513054.00 6840457.00 L 3528120.00 6846697.00 L 3543186.00 6840457.00 L 3576302.00 6807341.00 L 3637367.00 6807341.00 L 3664242.00 6834216.00 L 3664242.00 6855924.00 L 3637367.00 6882799.00 L 3567477.00 6882799.00 L 3552411.00 6889040.00 L 3513054.00 6928397.00 L 3506813.00 6943463.00 L 3506813.00 6982820.00 L 3513053.00 6997886.00 L 3552410.00 7037244.00 L 3567477.00 7043485.00 L 3646192.00 7043485.00 L 3661258.00 7037244.00  z"/>
<path id="N" d="M 3661258.00 5974251.00 L 3700616.00 5934893.00 L 3706856.00 5919827.00 L 3700615.00 5904760.00 L 3685549.00 5898520.00 L 3670482.00 5904761.00 L 3637365.84 5937878.00 L 3576303.00 5937878.00 L 3549427.00 5911002.00 L 3549427.00 5889295.00 L 3576302.00 5862420.00 L 3646192.00 5862420.00 L 3661258.00 5856179.00 L 3700615.00 5816822.00 L 3706856.00 5801756.00 L 3706856.00 5762398.00 L 3700615.00 5747332.00 L 3661258.00 5707975.00 L 3646192.00 5701734.00 L 3567477.00 5701734.00 L 3552411.00 5707975.00 L 3513054.00 5747332.00 L 3506814.00 5762398.00 L 3513054.00 5777464.00 L 3528120.00 5783704.00 L 3543186.00 5777464.00 L 3576302.00 5744348.00 L 3637367.00 5744348.00 L 3664242.00 5771223.00 L 3664242.00 5792931.00 L 3637367.00 5819806.00 L 3567477.00 5819806.00 L 3552411.00 5826047.00 L 3513054.00 5865404.00 L 3506813.00 5880470.00 L 3506813.00 5919827.00 L 3513053.00 5934893.00 L 3552410.00 5974251.00 L 3567477.00 5980492.00 L 3646192.00 5980492.00 L 3661258.00 5974251.00  z"/>
<path id="N" d="M 14286382.71 2952445.29 L 14351977.00 2886850.00 L 14364458.00 2856718.00 L 14351976.00 2826585.00 L 14321844.00 2814104.00 L 14291711.00 2826586.00 L 14238597.81 2879700.00 L 14142709.81 2879700.00 L 14102076.00 2839066.81 L 14102076.00 2808773.19 L 14142708.81 2768141.00 L 14256249.00 2768141.00 L 14286382.71 2755658.29 L 14351977.00 2690064.00 L 14364458.00 2659931.00 L 14364458.00 2594336.00 L 14351975.29 2564202.29 L 14286382.00 2498607.00 L 14256249.00 2486126.00 L 14125058.00 2486126.00 L 14094925.00 2498607.00 L 14029329.00 2564204.00 L 14016847.00 2594336.00 L 14029329.00 2624469.00 L 14059462.00 2636951.00 L 14089594.00 2624469.00 L 14142709.81 2571354.00 L 14238597.81 2571354.00 L 14279230.00 2611986.81 L 14279230.00 2642280.19 L 14238597.81 2682913.00 L 14125058.00 2682913.00 L 14094924.29 2695395.71 L 14029329.00 2760989.00 L 14016848.00 2791122.00 L 14016847.00 2856718.00 L 14029330.71 2886851.71 L 14094925.00 2952447.00 L 14125058.00 2964928.00 L 14256249.00 2964928.00 L 14286382.71 2952445.29  z"/>
<path id="N" d="M 7350549.71 776918.29 L 7416144.00 711323.00 L 7428625.00 681191.00 L 7416143.00 651058.00 L 7386011.00 638577.00 L 7355878.00 651059.00 L 7302764.81 704173.00 L 7206876.81 704173.00 L 7166243.00 663539.81 L 7166243.00 633246.19 L 7206875.81 592614.00 L 7320416.00 592614.00 L 7350549.71 580131.29 L 7416144.00 514537.00 L 7428625.00 484404.00 L 7428625.00 418809.00 L 7416142.29 388675.29 L 7350549.00 323080.00 L 7320416.00 310599.00 L 7189225.00 310599.00 L 7159092.00 323080.00 L 7093496.00 388677.00 L 7081014.00 418809.00 L 7093496.00 448942.00 L 7123629.00 461424.00 L 7153761.00 448942.00 L 7206876.81 395827.00 L 7302764.81 395827.00 L 7343397.00 436459.81 L 7343397.00 466753.19 L 7302764.81 507386.00 L 7189225.00 507386.00 L 7159091.29 519868.71 L 7093496.00 585462.00 L 7081015.00 615595.00 L 7081014.00 681191.00 L 7093497.71 711324.71 L 7159092.00 776920.00 L 7189225.00 789401.00 L 7320416.00 789401.00 L 7350549.71 776918.29  z"/>
<path id="N" d="M 3425114.00 9045118.00 L 3464472.00 9005760.00 L 3470712.00 8990694.00 L 3464471.00 8975627.00 L 3449405.00 8969387.00 L 3434338.00 8975628.00 L 3401221.84 9008745.00 L 3340159.00 9008745.00 L 3313283.00 8981869.00 L 3313283.00 8960162.00 L 3340158.00 8933287.00 L 3410048.00 8933287.00 L 3425114.00 8927046.00 L 3464471.00 8887689.00 L 3470712.00 8872623.00 L 3470712.00 8833265.00 L 3464471.00 8818199.00 L 3425114.00 8778842.00 L 3410048.00 8772601.00 L 3331333.00 8772601.00 L 3316267.00 8778842.00 L 3276910.00 8818199.00 L 3270670.00 8833265.00 L 3276910.00 8848331.00 L 3291976.00 8854571.00 L 3307042.00 8848331.00 L 3340158.00 8815215.00 L 3401223.00 8815215.00 L 3428098.00 8842090.00 L 3428098.00 8863798.00 L 3401223.00 8890673.00 L 3331333.00 8890673.00 L 3316267.00 8896914.00 L 3276910.00 8936271.00 L 3270669.00 8951337.00 L 3270669.00 8990694.00 L 3276909.00 9005760.00 L 3316266.00 9045118.00 L 3331333.00 9051359.00 L 3410048.00 9051359.00 L 3425114.00 9045118.00  z"/>
<path id="N" d="M 3897402.00 8060867.00 L 3936760.00 8021509.00 L 3943000.00 8006443.00 L 3936759.00 7991376.00 L 3921693.00 7985136.00 L 3906626.00 7991377.00 L 3873509.84 8024494.00 L 3812447.00 8024494.00 L 3785571.00 7997618.00 L 3785571.00 7975911.00 L 3812446.00 7949036.00 L 3882336.00 7949036.00 L 3897402.00 7942795.00 L 3936759.00 7903438.00 L 3943000.00 7888372.00 L 3943000.00 7849014.00 L 3936759.00 7833948.00 L 3897402.00 7794591.00 L 3882336.00 7788350.00 L 3803621.00 7788350.00 L 3788555.00 7794591.00 L 3749198.00 7833948.00 L 3742958.00 7849014.00 L 3749198.00 7864080.00 L 3764264.00 7870320.00 L 3779330.00 7864080.00 L 3812446.00 7830964.00 L 3873511.00 7830964.00 L 3900386.00 7857839.00 L 3900386.00 7879547.00 L 3873511.00 7906422.00 L 3803621.00 7906422.00 L 3788555.00 7912663.00 L 3749198.00 7952020.00 L 3742957.00 7967086.00 L 3742957.00 8006443.00 L 3749197.00 8021509.00 L 3788554.00 8060867.00 L 3803621.00 8067108.00 L 3882336.00 8067108.00 L 3897402.00 8060867.00  z"/>
<path id="N" d="M 4605834.00 9045118.00 L 4645192.00 9005760.00 L 4651432.00 8990694.00 L 4645191.00 8975627.00 L 4630125.00 8969387.00 L 4615058.00 8975628.00 L 4581941.84 9008745.00 L 4520879.00 9008745.00 L 4494003.00 8981869.00 L 4494003.00 8960162.00 L 4520878.00 8933287.00 L 4590768.00 8933287.00 L 4605834.00 8927046.00 L 4645191.00 8887689.00 L 4651432.00 8872623.00 L 4651432.00 8833265.00 L 4645191.00 8818199.00 L 4605834.00 8778842.00 L 4590768.00 8772601.00 L 4512053.00 8772601.00 L 4496987.00 8778842.00 L 4457630.00 8818199.00 L 4451390.00 8833265.00 L 4457630.00 8848331.00 L 4472696.00 8854571.00 L 4487762.00 8848331.00 L 4520878.00 8815215.00 L 4581943.00 8815215.00 L 4608818.00 8842090.00 L 4608818.00 8863798.00 L 4581943.00 8890673.00 L 4512053.00 8890673.00 L 4496987.00 8896914.00 L 4457630.00 8936271.00 L 4451389.00 8951337.00 L 4451389.00 8990694.00 L 4457629.00 9005760.00 L 4496986.00 9045118.00 L 4512053.00 9051359.00 L 4590768.00 9051359.00 L 4605834.00 9045118.00  z"/>
<path id="N" d="M 4764431.00 9843937.00 L 4803789.00 9804579.00 L 4810029.00 9789513.00 L 4803788.00 9774446.00 L 4788722.00 9768206.00 L 4773655.00 9774447.00 L 4740538.84 9807564.00 L 4679476.00 9807564.00 L 4652600.00 9780688.00 L 4652600.00 9640909.00 L 4679475.00 9614034.00 L 4740540.00 9614034.00 L 4767415.00 9640909.00 L 4767415.00 9689492.00 L 4710008.00 9689492.00 L 4694942.00 9695733.00 L 4688701.00 9710799.00 L 4694942.00 9725865.00 L 4710008.00 9732106.00 L 4788722.00 9732106.00 L 4803788.00 9725865.00 L 4810029.00 9710799.00 L 4810029.00 9632084.00 L 4803788.00 9617018.00 L 4764431.00 9577661.00 L 4749365.00 9571420.00 L 4670650.00 9571420.00 L 4655584.00 9577661.00 L 4616227.00 9617018.00 L 4609986.00 9632084.00 L 4609986.00 9789513.00 L 4616226.00 9804579.00 L 4655583.00 9843937.00 L 4670650.00 9850178.00 L 4749365.00 9850178.00 L 4764431.00 9843937.00  z"/>
<path id="N" d="M 2685449.00 10892691.00 L 2752094.00 10826046.00 L 2761605.00 10803085.00 L 2761605.00 10669795.00 L 2752094.00 10646834.00 L 2685449.00 10580189.00 L 2662488.00 10570678.00 L 2639527.00 10580189.00 L 2630016.00 10603150.00 L 2639527.00 10626111.00 L 2696661.00 10683245.00 L 2696661.00 10789635.00 L 2649038.00 10837258.00 L 2561670.00 10837258.00 L 2561670.00 10669795.00 L 2552159.00 10646834.00 L 2485514.00 10580189.00 L 2462553.00 10570678.00 L 2395907.00 10570678.00 L 2372946.00 10580189.00 L 2306301.00 10646834.00 L 2296790.00 10669795.00 L 2296790.00 10803085.00 L 2306301.00 10826046.00 L 2372946.00 10892691.00 L 2395907.00 10902202.00 L 2662488.00 10902202.00 L 2685449.00 10892691.00  zM 2496726.00 10837258.00 L 2409357.00 10837258.00 L 2361734.00 10789635.00 L 2361734.00 10683245.00 L 2409357.00 10635622.00 L 2449103.00 10635622.00 L 2496726.00 10683245.00 L 2496726.00 10837258.00  z"/>
<path id="N" d="M 7055660.71 7752445.29 L 7121255.00 7686851.00 L 7133736.00 7656718.00 L 7133736.00 7591122.00 L 7121253.29 7560988.29 L 7085792.04 7525526.50 L 7121255.00 7490064.00 L 7133736.00 7459931.00 L 7133736.00 7394336.00 L 7121253.29 7364202.29 L 7055660.00 7298607.00 L 7025527.00 7286126.00 L 6828740.00 7286126.00 L 6798607.00 7298607.00 L 6786126.00 7328740.00 L 6786126.00 7722314.00 L 6798607.00 7752447.00 L 6828740.00 7764928.00 L 7025527.00 7764928.00 L 7055660.71 7752445.29  zM 7007875.81 7482913.00 L 6871354.00 7482913.00 L 6871354.00 7371354.00 L 7007875.81 7371354.00 L 7048508.00 7411986.81 L 7048508.00 7442280.19 L 7007875.81 7482913.00  zM 7007875.81 7679700.00 L 6871354.00 7679700.00 L 6871354.00 7568141.00 L 7007875.19 7568141.00 L 7048508.00 7608773.19 L 7048508.00 7639067.19 L 7007875.81 7679700.00  z"/>
<path id="N" d="M 6898942.71 6626918.29 L 6964537.00 6561324.00 L 6977018.00 6531191.00 L 6977018.00 6465595.00 L 6964535.29 6435461.29 L 6929074.04 6399999.50 L 6964537.00 6364537.00 L 6977018.00 6334404.00 L 6977018.00 6268809.00 L 6964535.29 6238675.29 L 6898942.00 6173080.00 L 6868809.00 6160599.00 L 6672022.00 6160599.00 L 6641889.00 6173080.00 L 6629408.00 6203213.00 L 6629408.00 6596787.00 L 6641889.00 6626920.00 L 6672022.00 6639401.00 L 6868809.00 6639401.00 L 6898942.71 6626918.29  zM 6851157.81 6357386.00 L 6714636.00 6357386.00 L 6714636.00 6245827.00 L 6851157.81 6245827.00 L 6891790.00 6286459.81 L 6891790.00 6316753.19 L 6851157.81 6357386.00  zM 6851157.81 6554173.00 L 6714636.00 6554173.00 L 6714636.00 6442614.00 L 6851157.19 6442614.00 L 6891790.00 6483246.19 L 6891790.00 6513540.19 L 6851157.81 6554173.00  z"/>
<path id="N" d="M 10766093.00 12315845.00 L 10768406.00 12283311.00 L 10747036.00 12258672.00 L 10622031.05 12196169.05 L 10568476.00 12142614.00 L 10662383.00 12142614.00 L 10692516.71 12130131.29 L 10758111.00 12064537.00 L 10770592.00 12034404.00 L 10770592.00 11968809.00 L 10758109.29 11938675.29 L 10692516.00 11873080.00 L 10662383.00 11860599.00 L 10531192.00 11860598.00 L 10501058.29 11873081.71 L 10435463.00 11938676.00 L 10422982.00 11968809.00 L 10422982.00 12100000.00 L 10435463.00 12130133.00 L 10566654.00 12261324.00 L 10573135.09 12264008.45 L 10577730.00 12269306.00 L 10708920.00 12334902.00 L 10741454.00 12337215.00 L 10766093.00 12315845.00  zM 10644731.81 12057386.00 L 10508210.00 12057386.00 L 10508210.00 11986460.81 L 10548843.19 11945827.00 L 10644731.81 11945827.00 L 10685364.00 11986459.81 L 10685364.00 12016753.19 L 10644731.81 12057386.00  z"/>
<path id="N" d="M 13499234.71 2952445.29 L 13564829.00 2886851.00 L 13577310.00 2856718.00 L 13577310.00 2791122.00 L 13564827.29 2760988.29 L 13529366.04 2725526.50 L 13564829.00 2690064.00 L 13577310.00 2659931.00 L 13577310.00 2594336.00 L 13564827.29 2564202.29 L 13499234.00 2498607.00 L 13469101.00 2486126.00 L 13272314.00 2486126.00 L 13242181.00 2498607.00 L 13229700.00 2528740.00 L 13229700.00 2922314.00 L 13242181.00 2952447.00 L 13272314.00 2964928.00 L 13469101.00 2964928.00 L 13499234.71 2952445.29  zM 13451449.81 2879700.00 L 13314928.00 2879700.00 L 13314928.00 2768141.00 L 13451449.19 2768141.00 L 13492082.00 2808773.19 L 13492082.00 2839067.19 L 13451449.81 2879700.00  zM 13451449.81 2682913.00 L 13314928.00 2682913.00 L 13314928.00 2571354.00 L 13451449.81 2571354.00 L 13492082.00 2611986.81 L 13492082.00 2642280.19 L 13451449.81 2682913.00  z"/>
<path id="N" d="M 6563401.71 776918.29 L 6628996.00 711324.00 L 6641477.00 681191.00 L 6641477.00 615595.00 L 6628994.29 585461.29 L 6593533.04 549999.50 L 6628996.00 514537.00 L 6641477.00 484404.00 L 6641477.00 418809.00 L 6628994.29 388675.29 L 6563401.00 323080.00 L 6533268.00 310599.00 L 6336481.00 310599.00 L 6306348.00 323080.00 L 6293867.00 353213.00 L 6293867.00 746787.00 L 6306348.00 776920.00 L 6336481.00 789401.00 L 6533268.00 789401.00 L 6563401.71 776918.29  zM 6515616.81 704173.00 L 6379095.00 704173.00 L 6379095.00 592614.00 L 6515616.19 592614.00 L 6556249.00 633246.19 L 6556249.00 663540.19 L 6515616.81 704173.00  zM 6515616.81 507386.00 L 6379095.00 507386.00 L 6379095.00 395827.00 L 6515616.81 395827.00 L 6556249.00 436459.81 L 6556249.00 466753.19 L 6515616.81 507386.00  z"/>
<path id="N" d="M 4605834.00 5974251.00 L 4645192.00 5934893.00 L 4651432.00 5919827.00 L 4651432.00 5880470.00 L 4645191.00 5865404.00 L 4620900.00 5841113.00 L 4645191.00 5816822.00 L 4651432.00 5801756.00 L 4651432.00 5762398.00 L 4645191.00 5747332.00 L 4605834.00 5707975.00 L 4590768.00 5701734.00 L 4472696.00 5701734.00 L 4457630.00 5707975.00 L 4451389.00 5723041.00 L 4451389.00 5959185.00 L 4457630.00 5974251.00 L 4472696.00 5980492.00 L 4590768.00 5980492.00 L 4605834.00 5974251.00  zM 4581943.00 5819806.00 L 4494003.00 5819806.00 L 4494003.00 5744348.00 L 4581943.00 5744348.00 L 4608818.00 5771223.00 L 4608818.00 5792931.00 L 4581943.00 5819806.00  zM 4581941.84 5937878.00 L 4494003.00 5937878.00 L 4494003.00 5862420.00 L 4581943.00 5862420.00 L 4608818.00 5889295.00 L 4608818.00 5911001.16 L 4581941.84 5937878.00  z"/>
<path id="N" d="M 8203292.00 645728.00 L 8215773.00 615595.00 L 8203292.00 585462.00 L 8173159.00 572981.00 L 7994023.81 572981.00 L 7971042.46 550000.00 L 7994024.81 527018.00 L 8107564.00 527018.00 L 8137697.71 514535.29 L 8203292.00 448942.00 L 8215773.00 418809.00 L 8203290.29 388675.29 L 8137697.00 323080.00 L 8107564.00 310599.00 L 7910777.00 310599.00 L 7880644.00 323080.00 L 7868163.00 353213.00 L 7880644.00 383346.00 L 7910777.00 395827.00 L 8089912.81 395827.00 L 8112893.96 418808.50 L 8089912.81 441790.00 L 7976373.00 441790.00 L 7946240.00 454271.00 L 7880644.00 519868.00 L 7868162.00 550000.00 L 7880645.71 580133.71 L 7946240.00 645728.00 L 7976373.00 658209.00 L 8173159.00 658209.00 L 8203292.00 645728.00  z"/>
<path id="N" d="M 7698942.71 11726918.29 L 7764537.00 11661324.00 L 7777018.00 11631191.00 L 7777018.00 11500000.00 L 7764535.29 11469866.29 L 7698942.00 11404271.00 L 7695173.08 11402709.92 L 7764537.00 11333346.00 L 7777018.00 11303213.00 L 7764537.00 11273080.00 L 7734404.00 11260599.00 L 7704271.00 11273080.00 L 7585561.00 11391790.00 L 7514636.00 11391790.00 L 7514636.00 11303213.00 L 7502155.00 11273080.00 L 7472022.00 11260599.00 L 7441889.00 11273080.00 L 7429408.00 11303213.00 L 7429408.00 11696787.00 L 7441889.00 11726920.00 L 7472022.00 11739401.00 L 7668809.00 11739401.00 L 7698942.71 11726918.29  zM 7651157.81 11654173.00 L 7514636.00 11654173.00 L 7514636.00 11477018.00 L 7651157.81 11477018.00 L 7691790.00 11517650.81 L 7691790.00 11613540.19 L 7651157.81 11654173.00  z"/>
<path id="N" d="M 9214538.71 11726918.29 L 9280133.00 11661324.00 L 9292614.00 11631191.00 L 9292614.00 11500000.00 L 9280131.29 11469866.29 L 9214538.00 11404271.00 L 9210769.08 11402709.92 L 9280133.00 11333346.00 L 9292614.00 11303213.00 L 9280133.00 11273080.00 L 9250000.00 11260599.00 L 9219867.00 11273080.00 L 9101157.00 11391790.00 L 9030232.00 11391790.00 L 9030232.00 11303213.00 L 9017751.00 11273080.00 L 8987618.00 11260599.00 L 8957485.00 11273080.00 L 8945004.00 11303213.00 L 8945004.00 11696787.00 L 8957485.00 11726920.00 L 8987618.00 11739401.00 L 9184405.00 11739401.00 L 9214538.71 11726918.29  zM 9166753.81 11654173.00 L 9030232.00 11654173.00 L 9030232.00 11477018.00 L 9166753.81 11477018.00 L 9207386.00 11517650.81 L 9207386.00 11613540.19 L 9166753.81 11654173.00  z"/>
<path id="N" d="M 7748942.71 3526918.29 L 7814537.00 3461324.00 L 7827018.00 3431191.00 L 7827018.00 3300000.00 L 7814535.29 3269866.29 L 7748942.00 3204271.00 L 7745173.08 3202709.92 L 7814537.00 3133346.00 L 7827018.00 3103213.00 L 7814537.00 3073080.00 L 7784404.00 3060599.00 L 7754271.00 3073080.00 L 7635561.00 3191790.00 L 7564636.00 3191790.00 L 7564636.00 3103213.00 L 7552155.00 3073080.00 L 7522022.00 3060599.00 L 7491889.00 3073080.00 L 7479408.00 3103213.00 L 7479408.00 3496787.00 L 7491889.00 3526920.00 L 7522022.00 3539401.00 L 7718809.00 3539401.00 L 7748942.71 3526918.29  zM 7701157.81 3454173.00 L 7564636.00 3454173.00 L 7564636.00 3277018.00 L 7701157.81 3277018.00 L 7741790.00 3317650.81 L 7741790.00 3413540.19 L 7701157.81 3454173.00  z"/>
<path id="N" d="M 3425115.00 5974251.00 L 3464472.00 5934893.00 L 3470712.00 5919827.00 L 3470712.00 5841113.00 L 3464471.00 5826047.00 L 3425114.00 5786690.00 L 3418590.79 5783987.80 L 3464471.00 5738107.00 L 3470711.00 5723041.00 L 3464471.00 5707975.00 L 3449405.00 5701735.00 L 3434338.00 5707975.00 L 3361865.84 5780449.00 L 3313283.00 5780449.00 L 3313283.00 5723041.00 L 3307042.00 5707975.00 L 3291976.00 5701734.00 L 3276910.00 5707975.00 L 3270669.00 5723041.00 L 3270669.00 5959185.00 L 3276910.00 5974251.00 L 3291976.00 5980492.00 L 3410048.00 5980492.00 L 3425115.00 5974251.00  zM 3401222.00 5937878.00 L 3313283.00 5937878.00 L 3313283.00 5823063.00 L 3401223.00 5823063.00 L 3428098.00 5849938.00 L 3428098.00 5911002.00 L 3401222.00 5937878.00  z"/>
<path id="N" d="M 6598942.71 12326918.29 L 6664537.00 12261324.00 L 6677018.00 12231191.00 L 6677018.00 12100000.00 L 6664535.29 12069866.29 L 6598942.00 12004271.00 L 6595173.08 12002709.92 L 6664537.00 11933346.00 L 6677018.00 11903213.00 L 6664537.00 11873080.00 L 6634404.00 11860599.00 L 6604271.00 11873080.00 L 6485561.00 11991790.00 L 6414636.00 11991790.00 L 6414636.00 11903213.00 L 6402155.00 11873080.00 L 6372022.00 11860599.00 L 6341889.00 11873080.00 L 6329408.00 11903213.00 L 6329408.00 12296787.00 L 6341889.00 12326920.00 L 6372022.00 12339401.00 L 6568809.00 12339401.00 L 6598942.71 12326918.29  zM 6551157.81 12254173.00 L 6414636.00 12254173.00 L 6414636.00 12077018.00 L 6551157.81 12077018.00 L 6591790.00 12117650.81 L 6591790.00 12213540.19 L 6551157.81 12254173.00  z"/>
<path id="N" d="M 12048942.71 4726918.29 L 12114537.00 4661324.00 L 12127018.00 4631191.00 L 12127018.00 4500000.00 L 12114535.29 4469866.29 L 12048942.00 4404271.00 L 12045173.08 4402709.92 L 12114537.00 4333346.00 L 12127018.00 4303213.00 L 12114537.00 4273080.00 L 12084404.00 4260599.00 L 12054271.00 4273080.00 L 11935561.00 4391790.00 L 11864636.00 4391790.00 L 11864636.00 4303213.00 L 11852155.00 4273080.00 L 11822022.00 4260599.00 L 11791889.00 4273080.00 L 11779408.00 4303213.00 L 11779408.00 4696787.00 L 11791889.00 4726920.00 L 11822022.00 4739401.00 L 12018809.00 4739401.00 L 12048942.71 4726918.29  zM 12001157.81 4654173.00 L 11864636.00 4654173.00 L 11864636.00 4477018.00 L 12001157.81 4477018.00 L 12041790.00 4517650.81 L 12041790.00 4613540.19 L 12001157.81 4654173.00  z"/>
<path id="N" d="M 10298942.71 12326918.29 L 10364537.00 12261324.00 L 10377018.00 12231191.00 L 10377018.00 12100000.00 L 10364535.29 12069866.29 L 10298942.00 12004271.00 L 10295173.08 12002709.92 L 10364537.00 11933346.00 L 10377018.00 11903213.00 L 10364537.00 11873080.00 L 10334404.00 11860599.00 L 10304271.00 11873080.00 L 10185561.00 11991790.00 L 10114636.00 11991790.00 L 10114636.00 11903213.00 L 10102155.00 11873080.00 L 10072022.00 11860599.00 L 10041889.00 11873080.00 L 10029408.00 11903213.00 L 10029408.00 12296787.00 L 10041889.00 12326920.00 L 10072022.00 12339401.00 L 10268809.00 12339401.00 L 10298942.71 12326918.29  zM 10251157.81 12254173.00 L 10114636.00 12254173.00 L 10114636.00 12077018.00 L 10251157.81 12077018.00 L 10291790.00 12117650.81 L 10291790.00 12213540.19 L 10251157.81 12254173.00  z"/>
<path id="N" d="M 3661258.00 9045118.00 L 3700616.00 9005760.00 L 3706856.00 8990694.00 L 3700615.00 8975627.00 L 3685549.00 8969387.00 L 3670482.00 8975628.00 L 3637365.84 9008745.00 L 3576303.00 9008745.00 L 3549427.00 8981869.00 L 3549427.00 8842090.00 L 3576302.00 8815215.00 L 3637367.00 8815215.00 L 3670483.00 8848331.00 L 3685549.00 8854571.00 L 3700615.00 8848331.00 L 3706855.00 8833265.00 L 3700615.00 8818199.00 L 3661258.00 8778842.00 L 3646192.00 8772601.00 L 3567477.00 8772601.00 L 3552411.00 8778842.00 L 3513054.00 8818199.00 L 3506813.00 8833265.00 L 3506813.00 8990694.00 L 3513053.00 9005760.00 L 3552410.00 9045118.00 L 3567477.00 9051359.00 L 3646192.00 9051359.00 L 3661258.00 9045118.00  z"/>
<path id="N" d="M 4802620.00 8060867.00 L 4841978.00 8021509.00 L 4848218.00 8006443.00 L 4841977.00 7991376.00 L 4826911.00 7985136.00 L 4811844.00 7991377.00 L 4778727.84 8024494.00 L 4717665.00 8024494.00 L 4690789.00 7997618.00 L 4690789.00 7857839.00 L 4717664.00 7830964.00 L 4778729.00 7830964.00 L 4811845.00 7864080.00 L 4826911.00 7870320.00 L 4841977.00 7864080.00 L 4848217.00 7849014.00 L 4841977.00 7833948.00 L 4802620.00 7794591.00 L 4787554.00 7788350.00 L 4708839.00 7788350.00 L 4693773.00 7794591.00 L 4654416.00 7833948.00 L 4648175.00 7849014.00 L 4648175.00 8006443.00 L 4654415.00 8021509.00 L 4693772.00 8060867.00 L 4708839.00 8067108.00 L 4787554.00 8067108.00 L 4802620.00 8060867.00  z"/>
<path id="N" d="M 3425114.00 7037244.00 L 3464472.00 6997886.00 L 3470712.00 6982820.00 L 3464471.00 6967753.00 L 3449405.00 6961513.00 L 3434338.00 6967754.00 L 3401221.84 7000871.00 L 3340159.00 7000871.00 L 3313283.00 6973995.00 L 3313283.00 6834216.00 L 3340158.00 6807341.00 L 3401223.00 6807341.00 L 3434339.00 6840457.00 L 3449405.00 6846697.00 L 3464471.00 6840457.00 L 3470711.00 6825391.00 L 3464471.00 6810325.00 L 3425114.00 6770968.00 L 3410048.00 6764727.00 L 3331333.00 6764727.00 L 3316267.00 6770968.00 L 3276910.00 6810325.00 L 3270669.00 6825391.00 L 3270669.00 6982820.00 L 3276909.00 6997886.00 L 3316266.00 7037244.00 L 3331333.00 7043485.00 L 3410048.00 7043485.00 L 3425114.00 7037244.00  z"/>
<path id="N" d="M 11598942.71 12326918.29 L 11664537.00 12261323.00 L 11677018.00 12231191.00 L 11664536.00 12201058.00 L 11634404.00 12188577.00 L 11604271.00 12201059.00 L 11551157.81 12254173.00 L 11455269.81 12254173.00 L 11414636.00 12213539.81 L 11414636.00 11986460.81 L 11455269.19 11945827.00 L 11551157.81 11945827.00 L 11604271.00 11998941.00 L 11634404.00 12011423.00 L 11664536.00 11998942.00 L 11677018.00 11968809.00 L 11664537.00 11938677.00 L 11598942.00 11873080.00 L 11568809.00 11860599.00 L 11437618.00 11860598.00 L 11407484.29 11873081.71 L 11341889.00 11938676.00 L 11329408.00 11968809.00 L 11329407.00 12231191.00 L 11341890.71 12261324.71 L 11407485.00 12326920.00 L 11437618.00 12339401.00 L 11568809.00 12339401.00 L 11598942.71 12326918.29  z"/>
<path id="N" d="M 10098942.71 676918.29 L 10164537.00 611323.00 L 10177018.00 581191.00 L 10164536.00 551058.00 L 10134404.00 538577.00 L 10104271.00 551059.00 L 10051157.81 604173.00 L 9955269.81 604173.00 L 9914636.00 563539.81 L 9914636.00 336460.81 L 9955269.19 295827.00 L 10051157.81 295827.00 L 10104271.00 348941.00 L 10134404.00 361423.00 L 10164536.00 348942.00 L 10177018.00 318809.00 L 10164537.00 288677.00 L 10098942.00 223080.00 L 10068809.00 210599.00 L 9937618.00 210598.00 L 9907484.29 223081.71 L 9841889.00 288676.00 L 9829408.00 318809.00 L 9829407.00 581191.00 L 9841890.71 611324.71 L 9907485.00 676920.00 L 9937618.00 689401.00 L 10068809.00 689401.00 L 10098942.71 676918.29  z"/>
<path id="N" d="M 5348942.71 12326918.29 L 5414537.00 12261323.00 L 5427018.00 12231191.00 L 5414536.00 12201058.00 L 5384404.00 12188577.00 L 5354271.00 12201059.00 L 5301157.81 12254173.00 L 5205269.81 12254173.00 L 5164636.00 12213539.81 L 5164636.00 11986460.81 L 5205269.19 11945827.00 L 5301157.81 11945827.00 L 5354271.00 11998941.00 L 5384404.00 12011423.00 L 5414536.00 11998942.00 L 5427018.00 11968809.00 L 5414537.00 11938677.00 L 5348942.00 11873080.00 L 5318809.00 11860599.00 L 5187618.00 11860598.00 L 5157484.29 11873081.71 L 5091889.00 11938676.00 L 5079408.00 11968809.00 L 5079407.00 12231191.00 L 5091890.71 12261324.71 L 5157485.00 12326920.00 L 5187618.00 12339401.00 L 5318809.00 12339401.00 L 5348942.71 12326918.29  z"/>
<path id="N" d="M 10149225.71 4589261.29 L 10214820.00 4523666.00 L 10227301.00 4493534.00 L 10214819.00 4463401.00 L 10184687.00 4450920.00 L 10154554.00 4463402.00 L 10101440.81 4516516.00 L 10005552.81 4516516.00 L 9964919.00 4475882.81 L 9964919.00 4248803.81 L 10005552.19 4208170.00 L 10101440.81 4208170.00 L 10154554.00 4261284.00 L 10184687.00 4273766.00 L 10214819.00 4261285.00 L 10227301.00 4231152.00 L 10214820.00 4201020.00 L 10149225.00 4135423.00 L 10119092.00 4122942.00 L 9987901.00 4122941.00 L 9957767.29 4135424.71 L 9892172.00 4201019.00 L 9879691.00 4231152.00 L 9879690.00 4493534.00 L 9892173.71 4523667.71 L 9957768.00 4589263.00 L 9987901.00 4601744.00 L 10119092.00 4601744.00 L 10149225.71 4589261.29  z"/>
<path id="N" d="M 1689102.00 5254896.00 L 1698613.00 5231935.00 L 1698613.00 4965355.00 L 1689102.00 4942394.00 L 1666141.00 4932883.00 L 1643180.00 4942394.00 L 1386111.00 5199463.00 L 1346365.00 5199463.00 L 1298742.00 5151840.00 L 1298742.00 5045450.00 L 1355876.00 4988316.00 L 1365387.00 4965355.00 L 1355876.00 4942394.00 L 1332915.00 4932883.00 L 1309954.00 4942394.00 L 1243309.00 5009039.00 L 1233798.00 5032000.00 L 1233798.00 5165290.00 L 1243309.00 5188251.00 L 1309954.00 5254896.00 L 1332915.00 5264407.00 L 1399561.00 5264407.00 L 1422522.00 5254896.00 L 1633669.00 5043749.00 L 1633669.00 5231935.00 L 1643180.00 5254896.00 L 1666141.00 5264407.00 L 1689102.00 5254896.00  z"/>
<path id="N" d="M 3299938.41 4004023.00 L 3499871.00 4004023.00 L 3538140.00 3988172.00 L 3638108.00 3888204.00 L 3653959.00 3849932.59 L 3653960.00 3749968.00 L 3638108.00 3711699.00 L 3330626.00 3404217.00 L 3599839.00 3404217.00 A 54118.70 54118.70 0 0 0 3599839.00 3295977.00 L 3199968.00 3295976.00 A 54122.11 54122.11 0 0 0 3161699.00 3388366.00 L 3545719.00 3772386.00 L 3545719.00 3827517.00 L 3477453.00 3895783.00 L 3322354.00 3895783.00 L 3238237.00 3811666.00 A 54121.84 54121.84 0 0 0 3161699.00 3888204.00 L 3261667.00 3988172.00 L 3299938.41 4004023.00  z"/>
<path id="N" d="M 11285116.71 10826918.29 L 11350711.00 10761324.00 L 11363192.00 10731191.00 L 11363192.00 10665595.00 L 11350711.00 10635462.00 L 11161076.00 10445827.00 L 11320578.00 10445827.00 L 11350711.00 10433346.00 L 11363192.00 10403213.00 L 11350711.00 10373080.00 L 11320578.00 10360599.00 L 11058196.00 10360599.00 L 11028063.00 10373080.00 L 11015582.00 10403213.00 L 11028063.00 10433346.00 L 11277964.00 10683247.00 L 11277964.00 10713540.19 L 11237331.81 10754173.00 L 11141443.81 10754173.00 L 11088328.00 10701058.00 L 11058196.00 10688576.00 L 11028063.00 10701058.00 L 11015581.00 10731191.00 L 11028063.00 10761323.00 L 11093659.00 10826920.00 L 11123792.00 10839401.00 L 11254983.00 10839401.00 L 11285116.71 10826918.29  z"/>
<path id="N" d="M 7449234.00 7621255.00 L 7514829.00 7555660.00 L 7527310.00 7525527.00 L 7527310.00 7328740.00 L 7514829.00 7298607.00 L 7484696.00 7286126.00 L 7287910.00 7286126.00 L 7257777.00 7298607.00 L 7192181.00 7364204.00 L 7179699.00 7394336.00 L 7192182.71 7424469.71 L 7257777.00 7490064.00 L 7287910.00 7502545.00 L 7442082.00 7502545.00 L 7442082.00 7507875.81 L 7401449.19 7548508.00 L 7287910.00 7548508.00 L 7257777.00 7560989.00 L 7245296.00 7591122.00 L 7257777.00 7621255.00 L 7287910.00 7633736.00 L 7419101.00 7633736.00 L 7449234.00 7621255.00  zM 7442082.00 7417317.00 L 7305560.81 7417317.00 L 7282579.46 7394336.00 L 7305561.81 7371354.00 L 7442082.00 7371354.00 L 7442082.00 7417317.00  z"/>
<path id="N" d="M 12442516.71 4726918.29 L 12508111.00 4661324.00 L 12520592.00 4631191.00 L 12520592.00 4565595.00 L 12508111.00 4535462.00 L 12318476.00 4345827.00 L 12477978.00 4345827.00 L 12508111.00 4333346.00 L 12520592.00 4303213.00 L 12508111.00 4273080.00 L 12477978.00 4260599.00 L 12215596.00 4260599.00 L 12185463.00 4273080.00 L 12172982.00 4303213.00 L 12185463.00 4333346.00 L 12435364.00 4583247.00 L 12435364.00 4613540.19 L 12394731.81 4654173.00 L 12298843.81 4654173.00 L 12245728.00 4601058.00 L 12215596.00 4588576.00 L 12185463.00 4601058.00 L 12172981.00 4631191.00 L 12185463.00 4661323.00 L 12251059.00 4726920.00 L 12281192.00 4739401.00 L 12412383.00 4739401.00 L 12442516.71 4726918.29  z"/>
<path id="N" d="M 10492516.71 676918.29 L 10558111.00 611324.00 L 10570592.00 581191.00 L 10570592.00 515595.00 L 10558111.00 485462.00 L 10368476.00 295827.00 L 10527978.00 295827.00 L 10558111.00 283346.00 L 10570592.00 253213.00 L 10558111.00 223080.00 L 10527978.00 210599.00 L 10265596.00 210599.00 L 10235463.00 223080.00 L 10222982.00 253213.00 L 10235463.00 283346.00 L 10485364.00 533247.00 L 10485364.00 563540.19 L 10444731.81 604173.00 L 10348843.81 604173.00 L 10295728.00 551058.00 L 10265596.00 538576.00 L 10235463.00 551058.00 L 10222981.00 581191.00 L 10235463.00 611323.00 L 10301059.00 676920.00 L 10331192.00 689401.00 L 10462383.00 689401.00 L 10492516.71 676918.29  z"/>
<path id="N" d="M 8842516.71 12326918.29 L 8908111.00 12261324.00 L 8920592.00 12231191.00 L 8920592.00 12165595.00 L 8908111.00 12135462.00 L 8718476.00 11945827.00 L 8877978.00 11945827.00 L 8908111.00 11933346.00 L 8920592.00 11903213.00 L 8908111.00 11873080.00 L 8877978.00 11860599.00 L 8615596.00 11860599.00 L 8585463.00 11873080.00 L 8572982.00 11903213.00 L 8585463.00 11933346.00 L 8835364.00 12183247.00 L 8835364.00 12213540.19 L 8794731.81 12254173.00 L 8698843.81 12254173.00 L 8645728.00 12201058.00 L 8615596.00 12188576.00 L 8585463.00 12201058.00 L 8572981.00 12231191.00 L 8585463.00 12261323.00 L 8651059.00 12326920.00 L 8681192.00 12339401.00 L 8812383.00 12339401.00 L 8842516.71 12326918.29  z"/>
<path id="N" d="M 9121632.00 711324.00 L 9134113.00 681191.00 L 9134113.00 658209.00 L 9157094.00 658209.00 L 9187227.00 645728.00 L 9199708.00 615595.00 L 9187227.00 585462.00 L 9157094.00 572981.00 L 9134113.00 572981.00 L 9134113.00 436459.81 L 9187227.00 383345.00 L 9199708.00 353213.00 L 9187226.00 323080.00 L 9157094.00 310599.00 L 9126961.00 323081.00 L 9061366.00 388676.00 L 9048885.00 418809.00 L 9048885.00 572981.00 L 9025903.00 572981.00 L 8995770.00 585462.00 L 8983289.00 615595.00 L 8995770.00 645728.00 L 9025903.00 658209.00 L 9048885.00 658209.00 L 9048885.00 681191.00 L 9061366.00 711324.00 L 9091499.00 723805.00 L 9121632.00 711324.00  z"/>
<path id="N" d="M 7711617.00 7686851.00 L 7724098.00 7656718.00 L 7724098.00 7633736.00 L 7747079.00 7633736.00 L 7777212.00 7621255.00 L 7789693.00 7591122.00 L 7777212.00 7560989.00 L 7747079.00 7548508.00 L 7724098.00 7548508.00 L 7724098.00 7411986.81 L 7777212.00 7358872.00 L 7789693.00 7328740.00 L 7777211.00 7298607.00 L 7747079.00 7286126.00 L 7716946.00 7298608.00 L 7651351.00 7364203.00 L 7638870.00 7394336.00 L 7638870.00 7548508.00 L 7615888.00 7548508.00 L 7585755.00 7560989.00 L 7573274.00 7591122.00 L 7585755.00 7621255.00 L 7615888.00 7633736.00 L 7638870.00 7633736.00 L 7638870.00 7656718.00 L 7651351.00 7686851.00 L 7681484.00 7699332.00 L 7711617.00 7686851.00  z"/>
<path id="N" d="M 6191571.00 5526180.00 L 6204052.00 5496047.00 L 6204052.00 2503919.00 L 6191571.00 2473786.00 L 6161438.00 2461305.00 L 5767718.00 2461305.00 L 5737585.00 2473786.00 L 5725104.00 2503919.00 L 5737585.00 2534052.00 L 5767718.00 2546533.00 L 6118824.00 2546533.00 L 6118824.00 5453433.00 L 3881108.00 5453433.00 L 3881108.00 2546533.00 L 4232286.00 2546533.00 L 4262419.00 2534052.00 L 4274900.00 2503919.00 L 4262419.00 2473786.00 L 4232286.00 2461305.00 L 3838494.00 2461209.00 L 3808361.00 2473690.00 L 3795880.00 2503823.00 L 3795880.00 5495951.00 L 3808457.00 5526180.00 L 3838590.00 5538661.00 L 6161438.00 5538661.00 L 6191571.00 5526180.00  z"/>
<path id="N" d="M 10817648.00 3372961.00 L 10827159.00 3350000.00 L 10827159.00 2850000.00 L 10817648.00 2827039.00 L 10794687.00 2817528.00 L 10771726.00 2827039.00 L 10762215.00 2850000.00 L 10762215.00 2953520.22 L 10736160.00 2958703.00 A 152938.82 152938.82 0 0 0 10736160.00 3241297.00 L 10762215.00 3246479.78 L 10762215.00 3350000.00 L 10771726.00 3372961.00 L 10794687.00 3382472.00 L 10817648.00 3372961.00  zM 10761522.00 3180068.00 A 86670.48 86670.48 0 0 1 10762215.00 3019794.15 L 10761522.00 3180068.00  z"/>
<path id="N" d="M 5742516.00 12326920.00 L 5754997.00 12296787.00 L 5754997.00 12142614.00 L 5777978.00 12142614.00 L 5808111.00 12130133.00 L 5820592.00 12100000.00 L 5808111.00 12069867.00 L 5777978.00 12057386.00 L 5754997.00 12057386.00 L 5754997.00 11903213.00 L 5742516.00 11873080.00 L 5712383.00 11860599.00 L 5682250.00 11873080.00 L 5669769.00 11903213.00 L 5669769.00 12057386.00 L 5515596.00 12057385.00 L 5485463.00 12069867.00 L 5472981.00 12100000.00 L 5485463.00 12130133.00 L 5682250.00 12326920.00 L 5712383.00 12339401.00 L 5742516.00 12326920.00  zM 5669769.00 12193907.00 L 5618476.00 12142614.00 L 5669769.00 12142614.00 L 5669769.00 12193907.00  z"/>
<path id="N" d="M 8092516.00 11726920.00 L 8104997.00 11696787.00 L 8104997.00 11542614.00 L 8127978.00 11542614.00 L 8158111.00 11530133.00 L 8170592.00 11500000.00 L 8158111.00 11469867.00 L 8127978.00 11457386.00 L 8104997.00 11457386.00 L 8104997.00 11303213.00 L 8092516.00 11273080.00 L 8062383.00 11260599.00 L 8032250.00 11273080.00 L 8019769.00 11303213.00 L 8019769.00 11457386.00 L 7865596.00 11457385.00 L 7835463.00 11469867.00 L 7822981.00 11500000.00 L 7835463.00 11530133.00 L 8032250.00 11726920.00 L 8062383.00 11739401.00 L 8092516.00 11726920.00  zM 8019769.00 11593907.00 L 7968476.00 11542614.00 L 8019769.00 11542614.00 L 8019769.00 11593907.00  z"/>
<path id="N" d="M 15923861.00 10329838.00 L 15923861.00 10184023.00 L 16069677.00 10184023.00 A 54118.70 54118.70 0 1 0 16069677.00 10075783.00 L 15923861.00 10075783.00 L 15923861.00 9929968.00 A 54118.70 54118.70 0 1 0 15815621.00 9929968.00 L 15815621.00 10075783.00 L 15669806.00 10075783.00 A 54118.70 54118.70 0 1 0 15669806.00 10184023.00 L 15815621.00 10184023.00 L 15815621.00 10329838.00 A 54118.70 54118.70 0 1 0 15923861.00 10329838.00  z"/>
<path id="N" d="M 3661258.00 8060867.00 L 3700616.00 8021509.00 L 3706856.00 8006443.00 L 3706856.00 7849014.00 L 3700615.00 7833948.00 L 3661258.00 7794591.00 L 3646192.00 7788350.00 L 3567477.00 7788350.00 L 3552411.00 7794591.00 L 3513054.00 7833948.00 L 3506813.00 7849014.00 L 3506813.00 8006443.00 L 3513053.00 8021509.00 L 3552410.00 8060867.00 L 3567477.00 8067108.00 L 3646192.00 8067108.00 L 3661258.00 8060867.00  zM 3637365.84 8024494.00 L 3576303.00 8024494.00 L 3549427.00 7997618.00 L 3549427.00 7857839.00 L 3576302.00 7830964.00 L 3637367.00 7830964.00 L 3664242.00 7857839.00 L 3664242.00 7997617.16 L 3637365.84 8024494.00  z"/>
<path id="N" d="M 5314265.00 8060867.00 L 5320506.00 8045801.00 L 5314265.00 8030735.00 L 5211259.00 7927729.00 L 5314265.00 7824723.00 L 5320506.00 7809657.00 L 5314265.00 7794591.00 L 5299199.00 7788350.00 L 5284133.00 7794591.00 L 5181127.00 7897597.00 L 5163077.00 7879547.00 L 5163077.00 7809657.00 L 5156836.00 7794591.00 L 5141770.00 7788350.00 L 5126704.00 7794591.00 L 5120463.00 7809657.00 L 5120463.00 8045801.00 L 5126704.00 8060867.00 L 5141770.00 8067108.00 L 5156836.00 8060867.00 L 5163077.00 8045801.00 L 5163077.00 7939811.00 L 5284133.00 8060867.00 L 5299199.00 8067108.00 L 5314265.00 8060867.00  z"/>
<path id="N" d="M 8564360.71 7621253.29 L 8629955.00 7555660.00 L 8642436.00 7525527.00 L 8642436.00 7394336.00 L 8629953.29 7364202.29 L 8564360.00 7298607.00 L 8534227.00 7286126.00 L 8403036.00 7286125.00 L 8372902.29 7298608.71 L 8307307.00 7364203.00 L 8294826.00 7394336.00 L 8294826.00 7525527.00 L 8307308.71 7555660.71 L 8372903.00 7621255.00 L 8403036.00 7633736.00 L 8534227.00 7633736.00 L 8564360.71 7621253.29  zM 8516575.81 7548508.00 L 8420686.81 7548508.00 L 8380054.00 7507875.81 L 8380054.00 7411987.81 L 8420687.19 7371354.00 L 8516575.81 7371354.00 L 8557208.00 7411986.81 L 8557208.00 7507875.19 L 8516575.81 7548508.00  z"/>
<path id="N" d="M 7226920.00 6626920.00 L 7358111.00 6495728.00 L 7370592.00 6465592.59 L 7370592.00 6203213.00 L 7358111.00 6173080.00 L 7327978.00 6160599.00 L 7297845.00 6173080.00 L 7285364.00 6203213.00 L 7285364.00 6357386.00 L 7108210.00 6357386.00 L 7108210.00 6203213.00 L 7095729.00 6173080.00 L 7065596.00 6160599.00 L 7035463.00 6173080.00 L 7022982.00 6203213.00 L 7022982.00 6465595.00 L 7035463.00 6495728.00 L 7166654.00 6626920.00 L 7196787.00 6639402.00 L 7226920.00 6626920.00  zM 7196786.61 6536521.16 L 7108210.00 6447943.19 L 7108210.00 6442614.00 L 7285364.00 6442614.00 L 7285364.00 6447943.10 L 7196786.61 6536521.16  z"/>
<path id="N" d="M 5038765.00 9045118.00 L 5117479.00 8966403.00 L 5123720.00 8951337.00 L 5123720.00 8793908.00 L 5117479.00 8778842.00 L 5102413.00 8772601.00 L 5087347.00 8778842.00 L 5081106.00 8793908.00 L 5081106.00 8890673.00 L 4966291.00 8890673.00 L 4966291.00 8793908.00 L 4960050.00 8778842.00 L 4944984.00 8772601.00 L 4929918.00 8778842.00 L 4923677.00 8793908.00 L 4923677.00 8951337.00 L 4929918.00 8966403.00 L 5008633.00 9045118.00 L 5023699.00 9051359.00 L 5038765.00 9045118.00  zM 5023698.81 8999919.81 L 4966291.00 8942512.00 L 4966291.00 8933287.00 L 5081106.00 8933287.00 L 5081106.00 8942511.16 L 5023698.81 8999919.81  z"/>
<path id="N" d="M 5039932.00 9843937.00 L 5046173.00 9828871.00 L 5045759.00 9588548.00 L 5039932.00 9577661.00 L 5036685.00 9574998.00 L 5024866.00 9571420.00 L 5020688.00 9571834.00 L 5009800.00 9577661.00 L 4888744.00 9758498.25 L 4888744.00 9592727.00 L 4882503.00 9577661.00 L 4867437.00 9571420.00 L 4852371.00 9577661.00 L 4846130.00 9592727.00 L 4846544.00 9833050.00 L 4852371.00 9843937.00 L 4855618.00 9846600.00 L 4867437.00 9850178.00 L 4871616.00 9849764.00 L 4882503.00 9843937.00 L 5003559.00 9663100.12 L 5003559.00 9828871.00 L 5009800.00 9843937.00 L 5024866.00 9850178.00 L 5039932.00 9843937.00  z"/>
<path id="N" d="M 3464471.00 8060867.00 L 3470712.00 8045801.00 L 3470712.00 7809657.00 L 3464471.00 7794591.00 L 3449405.00 7788350.00 L 3434339.00 7794591.00 L 3428098.00 7809657.00 L 3428098.00 7994361.54 L 3385757.00 7952020.00 L 3370691.00 7945779.00 L 3355625.00 7952020.00 L 3313283.00 7994362.00 L 3313283.00 7809657.00 L 3307042.00 7794591.00 L 3291976.00 7788350.00 L 3276910.00 7794591.00 L 3270669.00 7809657.00 L 3270669.00 8045801.00 L 3276910.00 8060867.00 L 3291976.00 8067108.00 L 3307042.00 8060867.00 L 3370690.81 7997218.19 L 3434338.00 8060867.00 L 3449405.00 8067108.00 L 3464471.00 8060867.00  z"/>
<path id="N" d="M 4881335.00 7037244.00 L 4887576.00 7022178.00 L 4887576.00 6786034.00 L 4881335.00 6770968.00 L 4866269.00 6764727.00 L 4851203.00 6770968.00 L 4844962.00 6786034.00 L 4844962.00 6970738.54 L 4802621.00 6928397.00 L 4787555.00 6922156.00 L 4772489.00 6928397.00 L 4730147.00 6970739.00 L 4730147.00 6786034.00 L 4723906.00 6770968.00 L 4708840.00 6764727.00 L 4693774.00 6770968.00 L 4687533.00 6786034.00 L 4687533.00 7022178.00 L 4693774.00 7037244.00 L 4708840.00 7043485.00 L 4723906.00 7037244.00 L 4787554.81 6973595.19 L 4851202.00 7037244.00 L 4866269.00 7043485.00 L 4881335.00 7037244.00  z"/>
<path id="N" d="M 8236381.00 7752447.00 L 8248862.00 7722311.59 L 8248862.00 7328740.00 L 8236381.00 7298607.00 L 8206248.00 7286126.00 L 8176115.00 7298607.00 L 8163634.00 7328740.00 L 8163634.00 7619433.89 L 8105190.00 7560989.00 L 8075057.00 7548507.00 L 8044924.00 7560989.00 L 7986480.00 7619433.45 L 7986480.00 7328740.00 L 7973999.00 7298607.00 L 7943866.00 7286126.00 L 7913733.00 7298607.00 L 7901252.00 7328740.00 L 7901252.00 7722314.00 L 7913733.00 7752447.00 L 7943866.00 7764928.00 L 7973999.00 7752447.00 L 8075056.61 7651387.84 L 8176115.00 7752447.00 L 8206248.00 7764929.00 L 8236381.00 7752447.00  z"/>
<path id="N" d="M 4094189.00 8060867.00 L 4100430.00 8045801.00 L 4094189.00 8030735.00 L 4079123.00 8024494.00 L 4061072.00 8024494.00 L 4061072.00 7830964.00 L 4079123.00 7830964.00 L 4094189.00 7824723.00 L 4100430.00 7809657.00 L 4094189.00 7794591.00 L 4079123.00 7788350.00 L 4000408.00 7788350.00 L 3985342.00 7794591.00 L 3979101.00 7809657.00 L 3985342.00 7824723.00 L 4000408.00 7830964.00 L 4018458.00 7830964.00 L 4018458.00 8024494.00 L 4000408.00 8024494.00 L 3985342.00 8030735.00 L 3979101.00 8045801.00 L 3985342.00 8060867.00 L 4000408.00 8067108.00 L 4079123.00 8067108.00 L 4094189.00 8060867.00  z"/>
<path id="N" d="M 1622457.00 11225917.00 L 1689102.00 11159272.00 L 1698613.00 11136311.00 L 1698613.00 11003021.00 L 1689102.00 10980060.00 L 1622457.00 10913415.00 L 1599496.00 10903904.00 L 1332915.00 10903904.00 L 1309954.00 10913415.00 L 1243309.00 10980060.00 L 1233798.00 11003021.00 L 1233798.00 11136311.00 L 1243309.00 11159272.00 L 1309954.00 11225917.00 L 1332915.00 11235428.00 L 1599496.00 11235428.00 L 1622457.00 11225917.00  zM 1586046.00 11170484.00 L 1346365.00 11170484.00 L 1298742.00 11122861.00 L 1298742.00 11016471.00 L 1346365.00 10968848.00 L 1586046.00 10968848.00 L 1633669.00 11016471.00 L 1633669.00 11122861.00 L 1586046.00 11170484.00  z"/>
<path id="N" d="M 2548002.71 11479674.29 L 2613597.00 11414080.00 L 2626078.00 11383947.00 L 2626078.00 11252756.00 L 2613595.29 11222622.29 L 2548002.00 11157027.00 L 2517869.00 11144546.00 L 2363696.00 11144546.00 L 2363696.00 11055969.00 L 2351215.00 11025836.00 L 2321082.00 11013355.00 L 2290949.00 11025836.00 L 2278468.00 11055969.00 L 2278468.00 11449543.00 L 2290949.00 11479676.00 L 2321082.00 11492157.00 L 2517869.00 11492157.00 L 2548002.71 11479674.29  zM 2500217.81 11406929.00 L 2363696.00 11406929.00 L 2363696.00 11229774.00 L 2500217.81 11229774.00 L 2540850.00 11270406.81 L 2540850.00 11366296.19 L 2500217.81 11406929.00  z"/>
<path id="N" d="M 2938334.00 3988172.00 L 3038302.00 3888204.00 L 3054153.00 3849935.00 L 3054154.00 3650000.00 L 3038302.00 3611731.00 L 2938334.00 3511763.00 L 2900065.00 3495912.00 L 2654282.00 3495912.00 L 2654282.00 3350097.00 A 54118.70 54118.70 0 0 0 2546042.00 3350097.00 L 2546042.00 3949903.00 L 2561893.00 3988172.00 L 2600162.00 4004023.00 L 2900065.00 4004024.00 L 2938334.00 3988172.00  zM 2877647.00 3895783.00 L 2654282.00 3895783.00 L 2654282.00 3604152.00 L 2877647.00 3604152.00 L 2945913.00 3672418.00 L 2945913.00 3827517.00 L 2877647.00 3895783.00  z"/>
<path id="N" d="M 9351508.71 7752445.29 L 9417103.00 7686851.00 L 9429584.00 7656718.00 L 9429584.00 7525527.00 L 9417101.29 7495393.29 L 9351508.00 7429798.00 L 9321375.00 7417317.00 L 9167202.00 7417317.00 L 9167202.00 7328740.00 L 9154721.00 7298607.00 L 9124588.00 7286126.00 L 9094455.00 7298607.00 L 9081974.00 7328740.00 L 9081974.00 7722314.00 L 9094455.00 7752447.00 L 9124588.00 7764928.00 L 9321375.00 7764928.00 L 9351508.71 7752445.29  zM 9303723.81 7679700.00 L 9167202.00 7679700.00 L 9167202.00 7502545.00 L 9303723.81 7502545.00 L 9344356.00 7543177.81 L 9344356.00 7639067.19 L 9303723.81 7679700.00  z"/>
<path id="N" d="M 8514537.00 12326920.00 L 8527018.00 12296787.00 L 8527018.00 11968809.00 L 8514535.29 11938675.29 L 8448942.00 11873080.00 L 8418809.00 11860599.00 L 8287618.00 11860598.00 L 8257484.29 11873081.71 L 8191889.00 11938676.00 L 8179408.00 11968809.00 L 8179408.00 12296787.00 L 8191889.00 12326920.00 L 8222022.00 12339401.00 L 8252155.00 12326920.00 L 8264636.00 12296787.00 L 8264636.00 11986460.81 L 8305269.19 11945827.00 L 8401157.81 11945827.00 L 8441790.00 11986459.81 L 8441790.00 12296787.00 L 8454271.00 12326920.00 L 8484404.00 12339401.00 L 8514537.00 12326920.00  z"/>
<path id="N" d="M 7022570.00 776920.00 L 7035051.00 746787.00 L 7035051.00 418809.00 L 7022568.29 388675.29 L 6956975.00 323080.00 L 6926842.00 310599.00 L 6795651.00 310598.00 L 6765517.29 323081.71 L 6699922.00 388676.00 L 6687441.00 418809.00 L 6687441.00 746787.00 L 6699922.00 776920.00 L 6730055.00 789401.00 L 6760188.00 776920.00 L 6772669.00 746787.00 L 6772669.00 436460.81 L 6813302.19 395827.00 L 6909190.81 395827.00 L 6949823.00 436459.81 L 6949823.00 746787.00 L 6962304.00 776920.00 L 6992437.00 789401.00 L 7022570.00 776920.00  z"/>
<path id="N" d="M 13958403.00 2952447.00 L 13970884.00 2922314.00 L 13970884.00 2594336.00 L 13958401.29 2564202.29 L 13892808.00 2498607.00 L 13862675.00 2486126.00 L 13731484.00 2486125.00 L 13701350.29 2498608.71 L 13635755.00 2564203.00 L 13623274.00 2594336.00 L 13623274.00 2922314.00 L 13635755.00 2952447.00 L 13665888.00 2964928.00 L 13696021.00 2952447.00 L 13708502.00 2922314.00 L 13708502.00 2611987.81 L 13749135.19 2571354.00 L 13845023.81 2571354.00 L 13885656.00 2611986.81 L 13885656.00 2922314.00 L 13898137.00 2952447.00 L 13928270.00 2964928.00 L 13958403.00 2952447.00  z"/>
<path id="N" d="M 11280133.00 3376920.00 L 11292614.00 3346787.00 L 11292614.00 3018809.00 L 11280131.29 2988675.29 L 11214538.00 2923080.00 L 11184405.00 2910599.00 L 11053214.00 2910598.00 L 11023080.29 2923081.71 L 10957485.00 2988676.00 L 10945004.00 3018809.00 L 10945004.00 3346787.00 L 10957485.00 3376920.00 L 10987618.00 3389401.00 L 11017751.00 3376920.00 L 11030232.00 3346787.00 L 11030232.00 3036460.81 L 11070865.19 2995827.00 L 11166753.81 2995827.00 L 11207386.00 3036459.81 L 11207386.00 3346787.00 L 11219867.00 3376920.00 L 11250000.00 3389401.00 L 11280133.00 3376920.00  z"/>
<path id="N" d="M 8924844.00 645728.00 L 8937325.00 615595.00 L 8924844.00 585462.00 L 8894711.00 572981.00 L 8715575.81 572981.00 L 8674943.00 532348.81 L 8674943.00 436460.81 L 8715576.19 395827.00 L 8894711.00 395827.00 L 8924844.00 383346.00 L 8937325.00 353213.00 L 8924844.00 323080.00 L 8894711.00 310599.00 L 8697925.00 310598.00 L 8667791.29 323081.71 L 8602196.00 388676.00 L 8589715.00 418809.00 L 8589715.00 550000.00 L 8602197.71 580133.71 L 8667792.00 645728.00 L 8697925.00 658209.00 L 8894711.00 658209.00 L 8924844.00 645728.00  z"/>
<path id="N" d="M 2752094.00 5239716.00 L 2761605.00 5216755.00 L 2761605.00 5083465.00 L 2752094.00 5060504.00 L 2729133.00 5050993.00 L 2706172.00 5060504.00 L 2696661.00 5083465.00 L 2696661.00 5117638.00 L 2407656.00 5117638.00 L 2418868.00 5106426.00 L 2428379.00 5083465.00 L 2418868.00 5060504.00 L 2395907.00 5050993.00 L 2372946.00 5060504.00 L 2306301.00 5127149.00 L 2296790.00 5150110.00 L 2306301.00 5173071.00 L 2329262.00 5182582.00 L 2696661.00 5182582.00 L 2696661.00 5216755.00 L 2706172.00 5239716.00 L 2729133.00 5249227.00 L 2752094.00 5239716.00  z"/>
<path id="N" d="M 1689102.00 10759401.00 L 1698613.00 10736440.00 L 1698613.00 10603150.00 L 1689102.00 10580189.00 L 1666141.00 10570678.00 L 1643180.00 10580189.00 L 1633669.00 10603150.00 L 1633669.00 10637323.00 L 1344664.00 10637323.00 L 1355876.00 10626111.00 L 1365387.00 10603150.00 L 1355876.00 10580189.00 L 1332915.00 10570678.00 L 1309954.00 10580189.00 L 1243309.00 10646834.00 L 1233798.00 10669795.00 L 1243309.00 10692756.00 L 1266270.00 10702267.00 L 1633669.00 10702267.00 L 1633669.00 10736440.00 L 1643180.00 10759401.00 L 1666141.00 10768912.00 L 1689102.00 10759401.00  z"/>
<path id="N" d="M 9476921.00 11726920.00 L 9489402.00 11696787.00 L 9489402.00 11345827.00 L 9512383.00 11345827.00 L 9542516.00 11333346.00 L 9554997.00 11303213.00 L 9542516.00 11273080.00 L 9512383.00 11260599.00 L 9381192.00 11260599.00 L 9351059.00 11273080.00 L 9338578.00 11303213.00 L 9351059.00 11333346.00 L 9381192.00 11345827.00 L 9404174.00 11345827.00 L 9404174.00 11598096.16 L 9381192.00 11588576.00 L 9351059.00 11601058.00 L 9338577.00 11631191.00 L 9351059.00 11661323.00 L 9416655.00 11726920.00 L 9446788.00 11739401.00 L 9476921.00 11726920.00  z"/>
<path id="N" d="M 8076921.00 2076920.00 L 8089402.00 2046787.00 L 8089402.00 1695827.00 L 8112383.00 1695827.00 L 8142516.00 1683346.00 L 8154997.00 1653213.00 L 8142516.00 1623080.00 L 8112383.00 1610599.00 L 7981192.00 1610599.00 L 7951059.00 1623080.00 L 7938578.00 1653213.00 L 7951059.00 1683346.00 L 7981192.00 1695827.00 L 8004174.00 1695827.00 L 8004174.00 1948096.16 L 7981192.00 1938576.00 L 7951059.00 1951058.00 L 7938577.00 1981191.00 L 7951059.00 2011323.00 L 8016655.00 2076920.00 L 8046788.00 2089401.00 L 8076921.00 2076920.00  z"/>
<path id="N" d="M 2810385.00 11479676.00 L 2822866.00 11449543.00 L 2822866.00 11098583.00 L 2845847.00 11098583.00 L 2875980.00 11086102.00 L 2888461.00 11055969.00 L 2875980.00 11025836.00 L 2845847.00 11013355.00 L 2714656.00 11013355.00 L 2684523.00 11025836.00 L 2672042.00 11055969.00 L 2684523.00 11086102.00 L 2714656.00 11098583.00 L 2737638.00 11098583.00 L 2737638.00 11350852.16 L 2714656.00 11341332.00 L 2684523.00 11353814.00 L 2672041.00 11383947.00 L 2684523.00 11414079.00 L 2750119.00 11479676.00 L 2780252.00 11492157.00 L 2810385.00 11479676.00  z"/>
<path id="N" d="M 8400080.00 776920.00 L 8412561.00 746787.00 L 8412561.00 395827.00 L 8435542.00 395827.00 L 8465675.00 383346.00 L 8478156.00 353213.00 L 8465675.00 323080.00 L 8435542.00 310599.00 L 8304351.00 310599.00 L 8274218.00 323080.00 L 8261737.00 353213.00 L 8274218.00 383346.00 L 8304351.00 395827.00 L 8327333.00 395827.00 L 8327333.00 704173.00 L 8304351.00 704173.00 L 8274218.00 716654.00 L 8261737.00 746787.00 L 8274218.00 776920.00 L 8304351.00 789401.00 L 8369947.00 789401.00 L 8400080.00 776920.00  z"/>
<path id="N" d="M 9613891.00 7621255.00 L 9626372.00 7591122.00 L 9626372.00 7371354.00 L 9649353.00 7371354.00 L 9679486.00 7358873.00 L 9691967.00 7328740.00 L 9679486.00 7298607.00 L 9649353.00 7286126.00 L 9518162.00 7286126.00 L 9488029.00 7298607.00 L 9475548.00 7328740.00 L 9488029.00 7358873.00 L 9518162.00 7371354.00 L 9541144.00 7371354.00 L 9541144.00 7548508.00 L 9518162.00 7548508.00 L 9488029.00 7560989.00 L 9475548.00 7591122.00 L 9488029.00 7621255.00 L 9518162.00 7633736.00 L 9583758.00 7633736.00 L 9613891.00 7621255.00  z"/>
<path id="N" d="M 10411608.00 4589263.00 L 10424089.00 4559130.00 L 10424089.00 4208170.00 L 10447070.00 4208170.00 L 10477203.00 4195689.00 L 10489684.00 4165556.00 L 10477203.00 4135423.00 L 10447070.00 4122942.00 L 10315879.00 4122942.00 L 10285746.00 4135423.00 L 10273265.00 4165556.00 L 10285746.00 4195689.00 L 10315879.00 4208170.00 L 10338861.00 4208170.00 L 10338861.00 4460439.16 L 10315879.00 4450919.00 L 10285746.00 4463401.00 L 10273264.00 4493534.00 L 10285746.00 4523666.00 L 10351342.00 4589263.00 L 10381475.00 4601744.00 L 10411608.00 4589263.00  z"/>
<path id="N" d="M 11476921.00 3376920.00 L 11489402.00 3346787.00 L 11489402.00 2995827.00 L 11512383.00 2995827.00 L 11542516.00 2983346.00 L 11554997.00 2953213.00 L 11542516.00 2923080.00 L 11512383.00 2910599.00 L 11381192.00 2910599.00 L 11351059.00 2923080.00 L 11338578.00 2953213.00 L 11351059.00 2983346.00 L 11381192.00 2995827.00 L 11404174.00 2995827.00 L 11404174.00 3248096.16 L 11381192.00 3238576.00 L 11351059.00 3251058.00 L 11338577.00 3281191.00 L 11351059.00 3311323.00 L 11416655.00 3376920.00 L 11446788.00 3389401.00 L 11476921.00 3376920.00  z"/>
<path id="N" d="M 15523991.00 10429806.00 L 15523991.00 10029935.00 L 15508138.29 9991665.29 L 15308204.00 9791731.00 L 15269935.00 9775879.00 L 15231665.29 9791732.71 L 15031731.00 9991666.00 L 15015880.00 10029937.41 L 15015880.00 10429806.00 A 54118.70 54118.70 0 0 0 15124120.00 10429806.00 L 15124120.00 10052352.92 L 15269934.79 9906537.40 L 15415751.00 10052352.16 L 15415751.00 10429806.00 A 54118.70 54118.70 0 0 0 15523991.00 10429806.00  z"/>
<path id="N" d="M 10073060.00 7621255.00 L 10138655.00 7555660.00 L 10151136.00 7525527.00 L 10151136.00 7328740.00 L 10138655.00 7298607.00 L 10108522.00 7286126.00 L 10078389.00 7298607.00 L 10065908.00 7328740.00 L 10065908.00 7507875.81 L 10025275.19 7548508.00 L 9888754.00 7548508.00 L 9888754.00 7328740.00 L 9876273.00 7298607.00 L 9846140.00 7286126.00 L 9816007.00 7298607.00 L 9803526.00 7328740.00 L 9803526.00 7591122.00 L 9816007.00 7621255.00 L 9846140.00 7633736.00 L 10042927.00 7633736.00 L 10073060.00 7621255.00  z"/>
<path id="N" d="M 5236719.00 9843937.00 L 5276077.00 9804579.00 L 5282317.00 9789513.00 L 5282317.00 9632084.00 L 5276076.00 9617018.00 L 5236719.00 9577661.00 L 5221653.00 9571420.00 L 5103581.00 9571420.00 L 5088515.00 9577661.00 L 5082274.00 9592727.00 L 5082274.00 9828871.00 L 5088515.00 9843937.00 L 5103581.00 9850178.00 L 5221653.00 9850178.00 L 5236719.00 9843937.00  zM 5212826.84 9807564.00 L 5124888.00 9807564.00 L 5124888.00 9614034.00 L 5212828.00 9614034.00 L 5239703.00 9640909.00 L 5239703.00 9780687.16 L 5212826.84 9807564.00  z"/>
<path id="N" d="M 7058111.00 12326920.00 L 7070592.00 12296787.00 L 7070592.00 12231191.00 L 7058111.00 12201058.00 L 6808210.00 11951157.00 L 6808210.00 11903213.00 L 6795729.00 11873080.00 L 6765596.00 11860599.00 L 6735463.00 11873080.00 L 6722982.00 11903213.00 L 6722982.00 11968809.00 L 6735463.00 11998942.00 L 6985364.00 12248843.00 L 6985364.00 12254173.00 L 6765596.00 12254173.00 L 6735463.00 12266654.00 L 6722982.00 12296787.00 L 6735463.00 12326920.00 L 6765596.00 12339401.00 L 7027978.00 12339401.00 L 7058111.00 12326920.00  z"/>
<path id="N" d="M 8957934.00 7621255.00 L 9023529.00 7555660.00 L 9036010.00 7525527.00 L 9036010.00 7328740.00 L 9023529.00 7298607.00 L 8993396.00 7286126.00 L 8963263.00 7298607.00 L 8950782.00 7328740.00 L 8950782.00 7507875.81 L 8910149.19 7548508.00 L 8773628.00 7548508.00 L 8773628.00 7328740.00 L 8761147.00 7298607.00 L 8731014.00 7286126.00 L 8700881.00 7298607.00 L 8688400.00 7328740.00 L 8688400.00 7591122.00 L 8700881.00 7621255.00 L 8731014.00 7633736.00 L 8927801.00 7633736.00 L 8957934.00 7621255.00  z"/>
<path id="N" d="M 4841978.00 9045118.00 L 4881336.00 9005760.00 L 4887576.00 8990694.00 L 4887576.00 8833265.00 L 4881335.00 8818199.00 L 4841978.00 8778842.00 L 4826912.00 8772601.00 L 4708840.00 8772601.00 L 4693774.00 8778842.00 L 4687533.00 8793908.00 L 4687533.00 9030052.00 L 4693774.00 9045118.00 L 4708840.00 9051359.00 L 4826912.00 9051359.00 L 4841978.00 9045118.00  zM 4818085.84 9008745.00 L 4730147.00 9008745.00 L 4730147.00 8815215.00 L 4818087.00 8815215.00 L 4844962.00 8842090.00 L 4844962.00 8981868.16 L 4818085.84 9008745.00  z"/>
<path id="N" d="M 4095356.00 9843937.00 L 4101597.00 9828871.00 L 4101597.00 9671442.00 L 4095356.00 9656376.00 L 4016642.00 9577661.00 L 4001576.00 9571420.00 L 3986510.00 9577661.00 L 3907795.00 9656376.00 L 3901554.00 9671442.00 L 3901554.00 9828871.00 L 3907795.00 9843937.00 L 3922861.00 9850178.00 L 3937927.00 9843937.00 L 3944168.00 9828871.00 L 3944168.00 9680267.00 L 4001575.81 9622859.19 L 4058983.00 9680267.84 L 4058983.00 9828871.00 L 4065224.00 9843937.00 L 4080290.00 9850178.00 L 4095356.00 9843937.00  z"/>
<path id="N" d="M 4369690.00 7037244.00 L 4409048.00 6997886.00 L 4415288.00 6982820.00 L 4415288.00 6825391.00 L 4409047.00 6810325.00 L 4369690.00 6770968.00 L 4354624.00 6764727.00 L 4236552.00 6764727.00 L 4221486.00 6770968.00 L 4215245.00 6786034.00 L 4215245.00 7022178.00 L 4221486.00 7037244.00 L 4236552.00 7043485.00 L 4354624.00 7043485.00 L 4369690.00 7037244.00  zM 4345797.84 7000871.00 L 4257859.00 7000871.00 L 4257859.00 6807341.00 L 4345799.00 6807341.00 L 4372674.00 6834216.00 L 4372674.00 6973994.16 L 4345797.84 7000871.00  z"/>
<path id="N" d="M 5078122.00 7037244.00 L 5117480.00 6997886.00 L 5123720.00 6982820.00 L 5123720.00 6825391.00 L 5117479.00 6810325.00 L 5078122.00 6770968.00 L 5063056.00 6764727.00 L 4944984.00 6764727.00 L 4929918.00 6770968.00 L 4923677.00 6786034.00 L 4923677.00 7022178.00 L 4929918.00 7037244.00 L 4944984.00 7043485.00 L 5063056.00 7043485.00 L 5078122.00 7037244.00  zM 5054229.84 7000871.00 L 4966291.00 7000871.00 L 4966291.00 6807341.00 L 5054231.00 6807341.00 L 5081106.00 6834216.00 L 5081106.00 6973994.16 L 5054229.84 7000871.00  z"/>
<path id="N" d="M 4868887.00 10426920.00 L 4881368.00 10396787.00 L 4881368.00 10134404.00 L 4868887.00 10104271.00 L 4737696.00 9973080.00 L 4707563.00 9960599.00 L 4677430.00 9973080.00 L 4546239.00 10104271.00 L 4533758.00 10134404.00 L 4533758.00 10396787.00 L 4546239.00 10426920.00 L 4576372.00 10439401.00 L 4606505.00 10426920.00 L 4618986.00 10396787.00 L 4618986.00 10152056.00 L 4707563.00 10063479.00 L 4796140.00 10152056.00 L 4796140.00 10396787.00 L 4808621.00 10426920.00 L 4838754.00 10439401.00 L 4868887.00 10426920.00  z"/>
<path id="N" d="M 13171255.00 2952447.00 L 13183736.00 2922314.00 L 13183736.00 2659931.00 L 13171255.00 2629798.00 L 13040064.00 2498607.00 L 13009931.00 2486126.00 L 12979798.00 2498607.00 L 12848607.00 2629798.00 L 12836126.00 2659931.00 L 12836126.00 2922314.00 L 12848607.00 2952447.00 L 12878740.00 2964928.00 L 12908873.00 2952447.00 L 12921354.00 2922314.00 L 12921354.00 2677583.00 L 13009931.00 2589006.00 L 13098508.00 2677583.00 L 13098508.00 2922314.00 L 13110989.00 2952447.00 L 13141122.00 2964928.00 L 13171255.00 2952447.00  z"/>
<path id="N" d="M 6570963.00 6626920.00 L 6583444.00 6596787.00 L 6583444.00 6334404.00 L 6570963.00 6304271.00 L 6439772.00 6173080.00 L 6409639.00 6160599.00 L 6379506.00 6173080.00 L 6248315.00 6304271.00 L 6235834.00 6334404.00 L 6235834.00 6596787.00 L 6248315.00 6626920.00 L 6278448.00 6639401.00 L 6308581.00 6626920.00 L 6321062.00 6596787.00 L 6321062.00 6352056.00 L 6409639.00 6263479.00 L 6498216.00 6352056.00 L 6498216.00 6596787.00 L 6510697.00 6626920.00 L 6540830.00 6639401.00 L 6570963.00 6626920.00  z"/>
<path id="N" d="M 6235422.00 776920.00 L 6247903.00 746787.00 L 6247903.00 484404.00 L 6235422.00 454271.00 L 6104231.00 323080.00 L 6074098.00 310599.00 L 6043965.00 323080.00 L 5912774.00 454271.00 L 5900293.00 484404.00 L 5900293.00 746787.00 L 5912774.00 776920.00 L 5942907.00 789401.00 L 5973040.00 776920.00 L 5985521.00 746787.00 L 5985521.00 502056.00 L 6074098.00 413479.00 L 6162675.00 502056.00 L 6162675.00 746787.00 L 6175156.00 776920.00 L 6205289.00 789401.00 L 6235422.00 776920.00  z"/>
<path id="N" d="M 15473991.00 7679806.00 L 15473991.00 7279935.00 L 15458138.29 7241665.29 L 15258204.00 7041731.00 L 15219935.00 7025879.00 L 15181665.29 7041732.71 L 14981731.00 7241666.00 L 14965880.00 7279937.41 L 14965880.00 7679806.00 A 54118.70 54118.70 0 0 0 15074120.00 7679806.00 L 15074120.00 7302352.92 L 15219934.79 7156537.40 L 15365751.00 7302352.16 L 15365751.00 7679806.00 A 54118.70 54118.70 0 0 0 15473991.00 7679806.00  z"/>
<path id="N" d="M 6067441.71 10826917.29 L 6133036.00 10761323.00 L 6145517.00 10731190.00 L 6145517.00 10468808.00 L 6133034.29 10438674.29 L 6067441.00 10373079.00 L 6037308.00 10360598.00 L 5840521.00 10360598.00 L 5810388.00 10373079.00 L 5797907.00 10403212.00 L 5797907.00 10796786.00 L 5810388.00 10826919.00 L 5840521.00 10839400.00 L 6037308.00 10839400.00 L 6067441.71 10826917.29  zM 6019656.81 10754172.00 L 5883135.00 10754172.00 L 5883135.00 10445826.00 L 6019656.81 10445826.00 L 6060289.00 10486458.81 L 6060289.00 10713539.19 L 6019656.81 10754172.00  z"/>
<path id="N" d="M 10891542.71 10826918.29 L 10957137.00 10761324.00 L 10969618.00 10731191.00 L 10969618.00 10468809.00 L 10957135.29 10438675.29 L 10891542.00 10373080.00 L 10861409.00 10360599.00 L 10664622.00 10360599.00 L 10634489.00 10373080.00 L 10622008.00 10403213.00 L 10622008.00 10796787.00 L 10634489.00 10826920.00 L 10664622.00 10839401.00 L 10861409.00 10839401.00 L 10891542.71 10826918.29  zM 10843757.81 10754173.00 L 10707236.00 10754173.00 L 10707236.00 10445827.00 L 10843757.81 10445827.00 L 10884390.00 10486459.81 L 10884390.00 10713540.19 L 10843757.81 10754173.00  z"/>
<path id="N" d="M 7814538.71 2076918.29 L 7880133.00 2011324.00 L 7892614.00 1981191.00 L 7892614.00 1718809.00 L 7880131.29 1688675.29 L 7814538.00 1623080.00 L 7784405.00 1610599.00 L 7587618.00 1610599.00 L 7557485.00 1623080.00 L 7545004.00 1653213.00 L 7545004.00 2046787.00 L 7557485.00 2076920.00 L 7587618.00 2089401.00 L 7784405.00 2089401.00 L 7814538.71 2076918.29  zM 7766753.81 2004173.00 L 7630232.00 2004173.00 L 7630232.00 1695827.00 L 7766753.81 1695827.00 L 7807386.00 1736459.81 L 7807386.00 1963540.19 L 7766753.81 2004173.00  z"/>
<path id="N" d="M 3936759.00 5974251.00 L 3943000.00 5959185.00 L 3936759.00 5944119.00 L 3921693.00 5937878.00 L 3864286.00 5937878.00 L 3864286.00 5723041.00 L 3858045.00 5707975.00 L 3842979.00 5701734.00 L 3827913.00 5707975.00 L 3821672.00 5723041.00 L 3821672.00 5937878.00 L 3764264.00 5937878.00 L 3749198.00 5944119.00 L 3742957.00 5959185.00 L 3749198.00 5974251.00 L 3764264.00 5980492.00 L 3921693.00 5980492.00 L 3936759.00 5974251.00  z"/>
<path id="N" d="M 7751685.00 6626920.00 L 7764166.00 6596787.00 L 7751685.00 6566654.00 L 7721552.00 6554173.00 L 7632975.00 6554173.00 L 7632975.00 6203213.00 L 7620494.00 6173080.00 L 7590361.00 6160599.00 L 7560228.00 6173080.00 L 7547747.00 6203213.00 L 7547747.00 6554173.00 L 7459170.00 6554173.00 L 7429037.00 6566654.00 L 7416556.00 6596787.00 L 7429037.00 6626920.00 L 7459170.00 6639401.00 L 7721552.00 6639401.00 L 7751685.00 6626920.00  z"/>
<path id="N" d="M 3858045.00 6840457.00 L 3864286.00 6825391.00 L 3864286.00 6786034.00 L 3858045.00 6770967.00 L 3779330.00 6692253.00 L 3764264.00 6686012.00 L 3749198.00 6692252.00 L 3742957.00 6707319.00 L 3749197.00 6722385.00 L 3795077.33 6768266.16 L 3788555.00 6770968.00 L 3782314.00 6786034.00 L 3782314.00 6825391.00 L 3788555.00 6840457.00 L 3803621.00 6846698.00 L 3842979.00 6846698.00 L 3858045.00 6840457.00  z"/>
<path id="N" d="M 4290975.00 7864080.00 L 4297216.00 7849014.00 L 4297216.00 7809657.00 L 4290975.00 7794590.00 L 4212260.00 7715876.00 L 4197194.00 7709635.00 L 4182128.00 7715875.00 L 4175887.00 7730942.00 L 4182127.00 7746008.00 L 4228007.33 7791889.16 L 4221485.00 7794591.00 L 4215244.00 7809657.00 L 4215244.00 7849014.00 L 4221485.00 7864080.00 L 4236551.00 7870321.00 L 4275909.00 7870321.00 L 4290975.00 7864080.00  z"/>
<path id="N" d="M 4252786.00 9647150.00 L 4259027.00 9632084.00 L 4259027.00 9592727.00 L 4252786.00 9577660.00 L 4174071.00 9498946.00 L 4159005.00 9492705.00 L 4143939.00 9498945.00 L 4137698.00 9514012.00 L 4143938.00 9529078.00 L 4189818.33 9574959.16 L 4183296.00 9577661.00 L 4177055.00 9592727.00 L 4177055.00 9632084.00 L 4183296.00 9647150.00 L 4198362.00 9653391.00 L 4237720.00 9653391.00 L 4252786.00 9647150.00  z"/>
<path id="N" d="M 4094189.00 8848331.00 L 4100430.00 8833265.00 L 4100430.00 8793908.00 L 4094189.00 8778841.00 L 4015474.00 8700127.00 L 4000408.00 8693886.00 L 3985342.00 8700126.00 L 3979101.00 8715193.00 L 3985341.00 8730259.00 L 4031221.33 8776140.16 L 4024699.00 8778842.00 L 4018458.00 8793908.00 L 4018458.00 8833265.00 L 4024699.00 8848331.00 L 4039765.00 8854572.00 L 4079123.00 8854572.00 L 4094189.00 8848331.00  z"/>
<path id="N" d="M 4094189.00 5777464.00 L 4100430.00 5762398.00 L 4100430.00 5723041.00 L 4094189.00 5707974.00 L 4015474.00 5629260.00 L 4000408.00 5623019.00 L 3985342.00 5629259.00 L 3979101.00 5644326.00 L 3985341.00 5659392.00 L 4031221.33 5705273.16 L 4024699.00 5707975.00 L 4018458.00 5723041.00 L 4018458.00 5762398.00 L 4024699.00 5777464.00 L 4039765.00 5783705.00 L 4079123.00 5783705.00 L 4094189.00 5777464.00  z"/>
<path id="N" d="M 3080133.00 10511236.00 L 3092614.00 10481103.00 L 3092614.00 5362993.00 L 3080133.00 5332860.00 L 3050000.00 5320379.00 L 990944.00 5320379.00 L 960811.00 5332860.00 L 948330.00 5362993.00 L 948330.00 10481103.00 L 960811.00 10511236.00 L 990944.00 10523717.00 L 3050000.00 10523717.00 L 3080133.00 10511236.00  zM 3007386.00 10438489.00 L 1033558.00 10438489.00 L 1033558.00 5405607.00 L 3007386.00 5405607.00 L 3007386.00 10438489.00  z"/>
<path id="N" d="M 7535927.47 12662710.47 m -100354.75 0 a 100354.75 100354.75 0 1 1 200709.51 0a 100354.75 100354.75 0 1 1 -200709.51 0"/>
<path id="N" d="M 5399999.47 2335431.47 m -100354.75 0 a 100354.75 100354.75 0 1 1 200709.51 0a 100354.75 100354.75 0 1 1 -200709.51 0"/>
<path id="N" d="M 9485353.00 14070798.00 L 9497834.00 14040665.00 L 9497834.00 13282791.00 L 9485353.00 13252658.00 L 9455220.00 13240177.00 L 9425087.00 13252658.00 L 9412606.00 13282791.00 L 9412606.00 13998051.00 L 9031991.00 13998051.00 L 9001858.00 14010532.00 L 8989377.00 14040665.00 L 9001858.00 14070798.00 L 9031991.00 14083279.00 L 9455220.00 14083279.00 L 9485353.00 14070798.00  z"/>
<path id="N" d="M 8097558.00 14070798.00 L 8110039.00 14040665.00 L 8097558.00 14010532.00 L 8067425.00 13998051.00 L 7686810.00 13998051.00 L 7686810.00 13282791.00 L 7674329.00 13252658.00 L 7644196.00 13240177.00 L 7614063.00 13252658.00 L 7601582.00 13282791.00 L 7601582.00 14040665.00 L 7614063.00 14070798.00 L 7644196.00 14083279.00 L 8067425.00 14083279.00 L 8097558.00 14070798.00  z"/>
<path id="N" d="M 4723906.00 5974251.00 L 4730147.00 5959185.00 L 4730147.00 5744348.00 L 4866269.00 5744348.00 L 4881335.00 5738107.00 L 4887576.00 5723041.00 L 4881335.00 5707975.00 L 4866269.00 5701734.00 L 4708840.00 5701734.00 L 4693774.00 5707975.00 L 4687533.00 5723041.00 L 4687533.00 5959185.00 L 4693774.00 5974251.00 L 4708840.00 5980492.00 L 4723906.00 5974251.00  z"/>
<path id="N" d="M 3779330.00 9045118.00 L 3785571.00 9030052.00 L 3785571.00 8815215.00 L 3921693.00 8815215.00 L 3936759.00 8808974.00 L 3943000.00 8793908.00 L 3936759.00 8778842.00 L 3921693.00 8772601.00 L 3764264.00 8772601.00 L 3749198.00 8778842.00 L 3742957.00 8793908.00 L 3742957.00 9030052.00 L 3749198.00 9045118.00 L 3764264.00 9051359.00 L 3779330.00 9045118.00  z"/>
<path id="N" d="M 4920692.00 8060867.00 L 4926933.00 8045801.00 L 4926933.00 7830964.00 L 5063055.00 7830964.00 L 5078121.00 7824723.00 L 5084362.00 7809657.00 L 5078121.00 7794591.00 L 5063055.00 7788350.00 L 4905626.00 7788350.00 L 4890560.00 7794591.00 L 4884319.00 7809657.00 L 4884319.00 8045801.00 L 4890560.00 8060867.00 L 4905626.00 8067108.00 L 4920692.00 8060867.00  z"/>
<path id="N" d="M 3544354.00 9647150.00 L 3550595.00 9632084.00 L 3550595.00 9592727.00 L 3544354.00 9577661.00 L 3529288.00 9571420.00 L 3489931.00 9571420.00 L 3474865.00 9577661.00 L 3468624.00 9592727.00 L 3468624.00 9632084.00 L 3474865.00 9647150.00 L 3489931.00 9653391.00 L 3529288.00 9653391.00 L 3544354.00 9647150.00  z"/>
<path id="N" d="M 3950549.00 10098942.00 L 3963030.00 10068809.00 L 3963030.00 10003213.00 L 3950549.00 9973080.00 L 3920416.00 9960599.00 L 3854820.00 9960599.00 L 3824687.00 9973080.00 L 3812206.00 10003213.00 L 3812206.00 10068809.00 L 3824687.00 10098942.00 L 3854820.00 10111423.00 L 3920416.00 10111423.00 L 3950549.00 10098942.00  z"/>
<path id="N" d="M 16019677.00 7325783.00 L 15619806.00 7325783.00 A 54118.70 54118.70 0 1 0 15619806.00 7434023.00 L 16019677.00 7434023.00 A 54121.84 54121.84 0 1 0 16019677.00 7325783.00  z"/>
<path id="N" d="M 6766911.00 11780550.00 L 6774837.00 11761416.00 L 6766911.00 11742282.00 L 6747777.00 11734356.00 L 5487935.00 11734356.00 L 5468801.00 11742282.00 L 5460875.00 11761416.00 L 5468801.00 11780550.00 L 5487935.00 11788476.00 L 6747777.00 11788476.00 L 6766911.00 11780550.00  z"/>
<path id="N" d="M 12321255.00 11408873.00 L 12333736.00 11378740.00 L 12321255.00 11348607.00 L 12291122.00 11336126.00 L 12028740.00 11336126.00 L 11998607.00 11348607.00 L 11986126.00 11378740.00 L 11998607.00 11408873.00 L 12028740.00 11421354.00 L 12291122.00 11421354.00 L 12321255.00 11408873.00  z"/>
<path id="N" d="M 4645191.00 6958529.00 L 4651431.00 6943463.00 L 4645191.00 6928397.00 L 4487762.00 6770968.00 L 4472696.00 6764727.00 L 4457630.00 6770968.00 L 4451389.00 6786034.00 L 4457630.00 6801100.00 L 4615059.00 6958529.00 L 4630125.00 6964769.00 L 4645191.00 6958529.00  z"/>
<path id="N" d="M 5071255.00 11358873.00 L 5083736.00 11328740.00 L 5071255.00 11298607.00 L 5041122.00 11286126.00 L 4778740.00 11286126.00 L 4748607.00 11298607.00 L 4736126.00 11328740.00 L 4748607.00 11358873.00 L 4778740.00 11371354.00 L 5041122.00 11371354.00 L 5071255.00 11358873.00  z"/>
<path id="N" d="M 6786596.00 10957716.00 L 6794522.00 10938582.00 L 6786596.00 10919448.00 L 6767462.00 10911522.00 L 5468250.00 10911522.00 L 5449116.00 10919448.00 L 5441190.00 10938582.00 L 5449116.00 10957716.00 L 5468250.00 10965642.00 L 6767462.00 10965642.00 L 6786596.00 10957716.00  z"/>
<path id="N" d="M 8518740.00 2157717.00 L 8526666.00 2138583.00 L 8518740.00 2119449.00 L 8499606.00 2111523.00 L 7200394.00 2111523.00 L 7181260.00 2119449.00 L 7173334.00 2138583.00 L 7181260.00 2157717.00 L 7200394.00 2165643.00 L 8499606.00 2165643.00 L 8518740.00 2157717.00  z"/>
<path id="N" d="M 11661340.00 11780551.00 L 11669266.00 11761417.00 L 11661340.00 11742283.00 L 11642206.00 11734357.00 L 10342994.00 11734357.00 L 10323860.00 11742283.00 L 10315934.00 11761417.00 L 10323860.00 11780551.00 L 10342994.00 11788477.00 L 11642206.00 11788477.00 L 11661340.00 11780551.00  z"/>
<path id="N" d="M 8499055.00 2980551.00 L 8506981.00 2961417.00 L 8499055.00 2942283.00 L 8479921.00 2934357.00 L 7220079.00 2934357.00 L 7200945.00 2942283.00 L 7193019.00 2961417.00 L 7200945.00 2980551.00 L 7220079.00 2988477.00 L 8479921.00 2988477.00 L 8499055.00 2980551.00  z"/>
<path id="N" d="M 11641655.00 10957717.00 L 11649581.00 10938583.00 L 11641655.00 10919449.00 L 11622521.00 10911523.00 L 10362679.00 10911523.00 L 10343545.00 10919449.00 L 10335619.00 10938583.00 L 10343545.00 10957717.00 L 10362679.00 10965643.00 L 11622521.00 10965643.00 L 11641655.00 10957717.00  z"/>
<path id="N" d="M 9613891.00 7752447.00 L 9626372.00 7722314.00 L 9613891.00 7692181.00 L 9583758.00 7679700.00 L 9553625.00 7692181.00 L 9541144.00 7722314.00 L 9553625.00 7752447.00 L 9583758.00 7764928.00 L 9613891.00 7752447.00  z"/>
</g>
</svg>
