<svg width="42.00000236mm" height="42.00000236mm" viewBox="0 0 16535434 16535434"  version="1.1" xmlns="http://www.w3.org/2000/svg" xmlns:xlink="http://www.w3.org/1999/xlink">
<desc>
Origin 0 0 Bound 286220 -374409 16535434 16535434
</desc>
<g fill-rule="evenodd" fill="rgb(255, 0, 0)" stroke="black" stroke-width="1" transform="translate(0, 16535434) scale(1, -1) translate(-286220, 374409)">
<path id="N" d="M 12546891.00 2155119.00 L 11822483.00 2155119.00 L 11822483.00 2409096.00 L 10664687.00 2409096.00 L 10664687.00 2300000.00 L 10444687.00 2300000.00 L 10444687.00 2820000.00 L 10664687.00 2820000.00 L 10664687.00 2609802.00 L 11822483.00 2609802.00 L 11822483.00 2863779.00 L 12546891.00 2863779.00 L 12546891.00 2155119.00  z"/>
<path id="N" d="M 10738429.00 12618422.00 L 10498465.00 12618422.00 L 10498465.00 11694119.00 L 10571340.00 11694119.00 L 10604486.00 11680390.00 L 10618215.00 11647244.00 L 10618215.00 11052756.00 L 10604486.00 11019610.00 L 10571340.00 11005881.00 L 10224884.00 11005881.00 L 10191738.00 11019610.00 L 10178009.00 11052756.00 L 10178009.00 11647244.00 L 10191738.00 11680390.00 L 10224884.00 11694119.00 L 10297759.00 11694119.00 L 10297759.00 12618422.00 L 10014021.00 12618422.00 L 10014021.00 13327082.00 L 10738429.00 13327082.00 L 10738429.00 12618422.00  z"/>
<path id="N" d="M 9624885.00 9198600.00 L 8900477.00 9198600.00 L 8900477.00 9452577.00 L 8130796.00 9452577.00 L 8130796.00 9198600.00 L 7668945.00 9198600.00 L 7668945.00 8894891.00 L 8046000.00 8517836.00 L 8342503.00 8517836.00 L 8369468.00 8558192.00 A 254898.66 254898.66 0 1 0 8314213.00 8280407.00 L 8306908.31 8317130.00 L 8004433.00 8317130.00 L 7966029.00 8324769.00 L 7933473.00 8346523.00 L 7497632.00 8782364.00 L 7475878.00 8814920.00 L 7468239.00 8853324.00 L 7468239.00 9198600.00 L 7406388.00 9198600.00 L 7406388.00 9907260.00 L 8130796.00 9907260.00 L 8130796.00 9653283.00 L 8900477.00 9653283.00 L 8900477.00 9907260.00 L 9624885.00 9907260.00 L 9624885.00 9198600.00  z"/>
<path id="N" d="M 8237710.00 14970960.00 L 8620668.00 14588003.00 L 8642422.00 14555445.00 L 8650061.00 14517042.00 L 8650061.00 14328066.00 L 8930220.00 14328066.00 L 8930220.00 13135153.00 L 8699314.00 13135153.00 L 8699314.00 12544602.00 L 8400102.00 12544602.00 L 8400102.00 13135153.00 L 8169196.00 13135153.00 L 8169196.00 14053501.00 L 7084761.00 14053501.00 L 7084761.00 13799524.00 L 6360353.00 13799524.00 L 6360353.00 13964918.00 L 5789899.00 13964918.00 L 5789899.00 13868421.00 L 5081239.00 13868421.00 L 5081239.00 14262121.00 L 5789899.00 14262121.00 L 5789899.00 14165624.00 L 6360353.00 14165624.00 L 6360353.00 14508184.00 L 7084761.00 14508184.00 L 7084761.00 14254207.00 L 8169196.00 14254207.00 L 8169196.00 14328066.00 L 8449355.00 14328066.00 L 8449355.00 14475474.08 L 8125182.92 14799647.00 L 4943431.00 14799647.00 L 4200353.00 14056569.00 L 4200353.00 11278035.82 L 4248912.00 11257922.00 A 297809.61 297809.61 0 1 0 3842078.00 10851088.00 L 3821964.18 10899647.00 L 1891567.00 10899647.00 L 1620825.00 10628905.00 L 1620825.00 10232044.98 L 1684275.00 10205763.00 A 327619.99 327619.99 0 1 0 1356669.00 10205763.00 L 1420119.00 10232044.98 L 1420119.00 10670472.00 L 1427758.00 10708876.00 L 1449512.00 10741432.00 L 1779040.00 11070960.00 L 1811596.00 11092714.00 L 1850000.00 11100353.00 L 3821964.18 11100353.00 L 3842078.00 11148912.00 L 3889407.00 11210593.00 L 3951088.00 11257922.00 L 3999647.00 11278035.82 L 3999647.00 14098136.00 L 4007286.00 14136540.00 L 4029040.00 14169096.00 L 4830904.00 14970960.00 L 4863460.00 14992714.00 L 4901864.00 15000353.00 L 8166750.00 15000353.00 L 8205154.00 14992714.00 L 8237710.00 14970960.00  zM 1520473.22 9922044.65 m -220780.35 0 a 220780.35 220780.35 0 1 1 441560.70 0a 220780.35 220780.35 0 1 1 -441560.70 0M 4100000.36 11000000.47 m -200706.53 0 a 200706.53 200706.53 0 1 1 401413.05 0a 200706.53 200706.53 0 1 1 -401413.05 0"/>
<path id="N" d="M 1520473.97 7922053.69 m -327599.99 0 a 327599.99 327599.99 0 1 1 655199.97 0a 327599.99 327599.99 0 1 1 -655199.97 0M 1520473.22 7922044.65 m -220780.35 0 a 220780.35 220780.35 0 1 1 441560.70 0a 220780.35 220780.35 0 1 1 -441560.70 0"/>
<path id="N" d="M 8794881.00 3737796.00 L 8511010.00 3737796.00 L 8511010.00 3479387.00 L 8826476.00 3163921.00 L 10408210.00 3163921.00 L 10490766.00 3246477.00 L 10490766.00 3380000.00 L 10444687.00 3380000.00 L 10444687.00 3900000.00 L 10664687.00 3900000.00 L 10664687.00 3380000.00 L 10618608.00 3380000.00 L 10618608.00 3220000.00 L 10599886.00 3174801.00 L 10479886.00 3054801.00 L 10434687.00 3036079.00 L 8799999.00 3036079.00 L 8754800.00 3054801.00 L 8401890.00 3407711.00 L 8383168.00 3452910.00 L 8383168.00 3737796.00 L 8086221.00 3737796.00 L 8086221.00 4462204.00 L 8794881.00 4462204.00 L 8794881.00 3737796.00  z"/>
<path id="N" d="M 7613779.00 3737796.00 L 7355865.00 3737796.00 L 7355865.00 2894119.00 L 7428740.00 2894119.00 L 7461886.00 2880390.00 L 7475615.00 2847244.00 L 7475615.00 2252756.00 L 7461886.00 2219610.00 L 7428740.00 2205881.00 L 7082284.00 2205881.00 L 7049138.00 2219610.00 L 7035409.00 2252756.00 L 7035409.00 2847244.00 L 7049138.00 2880390.00 L 7082284.00 2894119.00 L 7155159.00 2894119.00 L 7155159.00 3737796.00 L 6905119.00 3737796.00 L 6905119.00 4462204.00 L 7613779.00 4462204.00 L 7613779.00 3737796.00  z"/>
<path id="N" d="M 13748911.00 3313049.00 L 13700353.00 3292935.31 L 13700353.00 2474361.00 L 13692714.00 2435957.00 L 13670960.00 2403401.00 L 13375070.62 2107511.62 L 13387675.00 2077082.00 A 297823.05 297823.05 0 0 0 13022918.00 1712325.00 L 13009714.20 1717794.20 L 11770960.00 479040.00 L 11738404.00 457286.00 L 11700000.00 449647.00 L 9750000.00 449647.00 L 9711596.00 457286.00 L 9679040.00 479040.00 L 9553491.00 604589.00 L 9531737.00 637145.00 L 9524098.00 675549.00 L 9524098.00 945670.00 L 9427601.00 945670.00 L 9427601.00 1101220.00 L 7914961.00 1101220.00 L 7914961.00 1062205.00 L 7678741.00 1062205.00 L 7678741.00 1337795.00 L 7914961.00 1337795.00 L 7914961.00 1301926.00 L 9427601.00 1301926.00 L 9427601.00 1654330.00 L 9524098.00 1654330.00 L 9524098.00 1839764.00 L 9531737.00 1878168.00 L 9553491.00 1910724.00 L 9702759.00 2059992.00 L 9702759.00 2459647.00 L 8664591.00 2459647.00 L 8664591.00 2252756.00 L 8650862.00 2219610.00 L 8617716.00 2205881.00 L 8271260.00 2205881.00 L 8238114.00 2219610.00 L 8224385.00 2252756.00 L 8224385.00 2847244.00 L 8238114.00 2880390.00 L 8271260.00 2894119.00 L 8617716.00 2894119.00 L 8650862.00 2880390.00 L 8664591.00 2847244.00 L 8664591.00 2660353.00 L 9704687.00 2660353.00 L 9704687.00 2820000.00 L 9924687.00 2820000.00 L 9924687.00 2300000.00 L 9903465.00 2300000.00 L 9903465.00 2018425.00 L 9895826.00 1980021.00 L 9874072.00 1947465.00 L 9724804.00 1798197.00 L 9724804.00 1654330.00 L 9821301.00 1654330.00 L 9821301.00 945670.00 L 9724804.00 945670.00 L 9724804.00 717116.00 L 9791567.00 650353.00 L 11658433.00 650353.00 L 12849497.99 1841417.99 L 12842078.00 1851088.00 A 297823.01 297823.01 0 0 0 13243770.63 2260051.63 L 13499647.00 2515928.00 L 13499647.00 3292935.31 L 13451089.00 3313049.00 A 297802.27 297802.27 0 1 0 13748911.00 3313049.00  zM 13600000.36 3570971.47 m -200706.53 0 a 200706.53 200706.53 0 1 1 401413.05 0a 200706.53 200706.53 0 1 1 -401413.05 0"/>
<path id="N" d="M 2520473.97 8922053.69 m -327599.99 0 a 327599.99 327599.99 0 1 1 655199.97 0a 327599.99 327599.99 0 1 1 -655199.97 0M 2520473.22 8922044.65 m -220780.35 0 a 220780.35 220780.35 0 1 1 441560.70 0a 220780.35 220780.35 0 1 1 -441560.70 0"/>
<path id="N" d="M 1520473.97 8922053.69 m -327599.99 0 a 327599.99 327599.99 0 1 1 655199.97 0a 327599.99 327599.99 0 1 1 -655199.97 0M 1520473.22 8922044.65 m -220780.35 0 a 220780.35 220780.35 0 1 1 441560.70 0a 220780.35 220780.35 0 1 1 -441560.70 0"/>
<path id="N" d="M 14463011.00 2032265.00 L 14041127.00 1636367.00 A 8322139.09 8322139.09 0 0 0 2669272.00 13777973.00 L 3091156.00 14173871.00 A 8322139.09 8322139.09 0 0 0 14463011.00 2032265.00  zM 3136015.00 14071264.00 L 2762165.90 13721115.24 L 2400390.00 13334852.00 A 8217304.86 8217304.86 0 0 1 13996268.00 1738974.00 L 14370117.10 2089122.76 L 14731893.00 2475386.00 A 8217304.86 8217304.86 0 0 1 3136015.00 14071264.00  z"/>
<path id="N" d="M 1520473.97 5922053.69 m -327599.99 0 a 327599.99 327599.99 0 1 1 655199.97 0a 327599.99 327599.99 0 1 1 -655199.97 0M 1520473.22 5922044.65 m -220780.35 0 a 220780.35 220780.35 0 1 1 441560.70 0a 220780.35 220780.35 0 1 1 -441560.70 0"/>
<path id="N" d="M 2520473.97 6922053.69 m -327599.99 0 a 327599.99 327599.99 0 1 1 655199.97 0a 327599.99 327599.99 0 1 1 -655199.97 0M 2520473.22 6922044.65 m -220780.35 0 a 220780.35 220780.35 0 1 1 441560.70 0a 220780.35 220780.35 0 1 1 -441560.70 0"/>
<path id="N" d="M 4541423.00 14812047.00 L 3963756.00 14234380.00 L 3921989.00 14171871.00 L 3907322.00 14098136.00 L 3907322.00 11337806.00 L 3881447.00 11327088.00 L 3772912.00 11218553.00 L 3762194.00 11192678.00 L 1850000.00 11192678.00 L 1776265.00 11178011.00 L 1713756.00 11136244.00 L 1384228.00 10806716.00 L 1342461.00 10744207.00 L 1327794.00 10670472.00 L 1327794.00 10291814.00 L 1285193.00 10274168.00 L 1168352.00 10157327.00 L 1105118.00 10004667.00 L 1105118.00 9839429.00 L 1168352.00 9686769.00 L 1285193.00 9569928.00 L 1437853.00 9506694.00 L 1603091.00 9506694.00 L 1755751.00 9569928.00 L 1872592.00 9686769.00 L 1935826.00 9839429.00 L 1935826.00 10004667.00 L 1872592.00 10157327.00 L 1755751.00 10274168.00 L 1713150.00 10291814.00 L 1713150.00 10590662.00 L 1929810.00 10807322.00 L 2976157.00 10807322.00 L 3031719.00 10695850.00 L 2995767.00 10609055.00 L 3101181.41 10609055.00 A 157763.70 157763.70 0 0 0 3398818.59 10609055.00 L 3504233.00 10609055.00 L 3468281.00 10695850.00 L 3523843.00 10807322.00 L 3762194.00 10807322.00 L 3772912.00 10781447.00 L 3881447.00 10672912.00 L 4023254.00 10614174.00 L 4176746.00 10614174.00 L 4318553.00 10672912.00 L 4427088.00 10781447.00 L 4485826.00 10923254.00 L 4485826.00 11076746.00 L 4427088.00 11218553.00 L 4318553.00 11327088.00 L 4292678.00 11337806.00 L 4292678.00 12683970.00 L 4410788.00 12725080.00 L 4454149.00 12681719.00 L 4540945.00 12645767.00 L 4540945.00 12751181.41 A 157763.70 157763.70 0 0 0 4540945.00 13048818.59 L 4540945.00 13154233.00 L 4454149.00 13118281.00 L 4410788.00 13074920.00 L 4292678.00 13116030.00 L 4292678.00 14018326.00 L 4981674.00 14707322.00 L 6246811.00 14707322.00 L 6269802.00 14598734.00 L 6269802.00 14257949.00 L 5880450.00 14257949.00 L 5880450.00 14352672.00 L 4990688.00 14352672.00 L 4990688.00 13777870.00 L 5880450.00 13777870.00 L 5880450.00 13872593.00 L 6269802.00 13872593.00 L 6269802.00 13708973.00 L 7175312.00 13708973.00 L 7175312.00 13961176.00 L 8071184.00 13961176.00 L 8071184.00 13325704.00 L 8018212.00 13325704.00 L 8018212.00 13225704.00 L 8073330.00 13225704.00 L 8073330.00 12944208.00 L 8173330.00 12944208.00 L 8173330.00 13037141.00 L 8302090.00 13037141.00 L 8302090.00 12544602.00 L 8330797.00 12475297.00 L 8400102.00 12446590.00 L 8699314.00 12446590.00 L 8768619.00 12475297.00 L 8797326.00 12544602.00 L 8797326.00 13037141.00 L 8930219.00 13037141.00 L 8935535.00 13033589.00 L 8935535.00 12454051.00 L 8987722.00 12454051.00 L 8987722.00 11178913.00 L 8809926.00 11178913.00 L 8809926.00 10289151.00 L 9715435.00 10289151.00 L 9813982.00 10241917.00 L 10832237.00 9223663.00 L 9388207.00 7779633.00 L 9346440.00 7717124.00 L 9331773.00 7643389.00 L 9331773.00 5644881.00 L 9237050.00 5644881.00 L 9237050.00 5517347.00 L 7369009.00 5517347.00 L 7327088.00 5618553.00 L 7218553.00 5727088.00 L 7076746.00 5785826.00 L 6923254.00 5785826.00 L 6781447.00 5727088.00 L 6672912.00 5618553.00 L 6662194.00 5592678.00 L 5250000.00 5592678.00 L 5176266.00 5578012.00 L 5113756.00 5536244.00 L 4470055.00 4892543.00 L 4428288.00 4830034.00 L 4413621.00 4756299.00 L 4413621.00 3304878.00 L 4329276.00 3220533.00 L 4279528.00 3100431.00 L 4279528.00 2970433.00 L 4329276.00 2850331.00 L 4413621.00 2765986.00 L 4413621.00 2206299.00 L 4428288.00 2132564.00 L 4470055.00 2070055.00 L 5476354.00 1063756.00 L 5538864.00 1021988.00 L 5612598.00 1007322.00 L 7194489.00 1007322.00 L 7194489.00 971654.00 L 8005512.00 971654.00 L 8005512.00 1008895.00 L 9337050.00 1008895.00 L 9337050.00 855119.00 L 9431773.00 855119.00 L 9431773.00 675549.00 L 9446440.00 601814.00 L 9488207.00 539305.00 L 9613756.00 413756.00 L 9676265.00 371989.00 L 9750000.00 357322.00 L 11194273.00 357322.00 L 11214465.00 240951.00 L 10936950.00 141654.00 L 10163483.00 -52090.00 L 9374749.00 -169087.00 L 8578346.00 -208212.00 L 7781943.00 -169087.00 L 6993209.00 -52090.00 L 6219742.00 141654.00 L 5468989.00 410278.00 L 4748181.00 751194.00 L 4064259.00 1161121.00 L 3423810.00 1636110.00 L 2833003.00 2171587.00 L 2297526.00 2762394.00 L 1822537.00 3402843.00 L 1412610.00 4086765.00 L 1071694.00 4807573.00 L 803070.00 5558326.00 L 609326.00 6331793.00 L 492329.00 7120527.00 L 453204.00 7916930.00 L 492329.00 8713333.00 L 609326.00 9502067.00 L 803070.00 10275534.00 L 1071694.00 11026287.00 L 1412610.00 11747095.00 L 1822537.00 12431017.00 L 2297526.00 13071466.00 L 2825393.00 13653877.00 L 3399401.00 14174128.00 L 4039850.00 14649117.00 L 4468208.00 14905865.00 L 4541423.00 14812047.00  zM 1603091.00 6337402.00 L 1437853.00 6337402.00 L 1285193.00 6274168.00 L 1168352.00 6157327.00 L 1105118.00 6004667.00 L 1105118.00 5839429.00 L 1168352.00 5686769.00 L 1285193.00 5569928.00 L 1437853.00 5506694.00 L 1603091.00 5506694.00 L 1755751.00 5569928.00 L 1872592.00 5686769.00 L 1935826.00 5839429.00 L 1935826.00 6004667.00 L 1872592.00 6157327.00 L 1755751.00 6274168.00 L 1603091.00 6337402.00  zM 2935826.00 6337402.00 L 2105118.00 6337402.00 L 2105118.00 5506694.00 L 2935826.00 5506694.00 L 2935826.00 6337402.00  zM 1603091.00 7337402.00 L 1437853.00 7337402.00 L 1285193.00 7274168.00 L 1168352.00 7157327.00 L 1105118.00 7004667.00 L 1105118.00 6839429.00 L 1168352.00 6686769.00 L 1285193.00 6569928.00 L 1437853.00 6506694.00 L 1603091.00 6506694.00 L 1755751.00 6569928.00 L 1872592.00 6686769.00 L 1935826.00 6839429.00 L 1935826.00 7004667.00 L 1872592.00 7157327.00 L 1755751.00 7274168.00 L 1603091.00 7337402.00  zM 1603091.00 8337402.00 L 1437853.00 8337402.00 L 1285193.00 8274168.00 L 1168352.00 8157327.00 L 1105118.00 8004667.00 L 1105118.00 7839429.00 L 1168352.00 7686769.00 L 1285193.00 7569928.00 L 1437853.00 7506694.00 L 1603091.00 7506694.00 L 1755751.00 7569928.00 L 1872592.00 7686769.00 L 1935826.00 7839429.00 L 1935826.00 8004667.00 L 1872592.00 8157327.00 L 1755751.00 8274168.00 L 1603091.00 8337402.00  zM 2603091.00 8337402.00 L 2437853.00 8337402.00 L 2285193.00 8274168.00 L 2168352.00 8157327.00 L 2105118.00 8004667.00 L 2105118.00 7839429.00 L 2168352.00 7686769.00 L 2285193.00 7569928.00 L 2437853.00 7506694.00 L 2603091.00 7506694.00 L 2755751.00 7569928.00 L 2872592.00 7686769.00 L 2935826.00 7839429.00 L 2935826.00 8004667.00 L 2872592.00 8157327.00 L 2755751.00 8274168.00 L 2603091.00 8337402.00  zM 1603091.00 9337402.00 L 1437853.00 9337402.00 L 1285193.00 9274168.00 L 1168352.00 9157327.00 L 1105118.00 9004667.00 L 1105118.00 8839429.00 L 1168352.00 8686769.00 L 1285193.00 8569928.00 L 1437853.00 8506694.00 L 1603091.00 8506694.00 L 1755751.00 8569928.00 L 1872592.00 8686769.00 L 1935826.00 8839429.00 L 1935826.00 9004667.00 L 1872592.00 9157327.00 L 1755751.00 9274168.00 L 1603091.00 9337402.00  zM 2200640.78 9862992.99 L 2095669.00 9862992.98 L 2095669.00 9837550.00 L 2160342.00 9681417.00 L 2279841.00 9561918.00 L 2435974.00 9497245.00 L 2461417.02 9497245.00 L 2461417.01 9602216.77 L 2435681.00 9605605.00 A 327599.99 327599.99 0 0 0 2204029.00 9837257.00 L 2200640.78 9862992.99  zM 2461416.98 10346851.00 L 2435974.00 10346851.00 L 2279841.00 10282178.00 L 2160342.00 10162679.00 L 2095669.00 10006546.00 L 2095669.00 9981102.98 L 2200640.77 9981102.99 L 2204029.00 10006839.00 A 327599.99 327599.99 0 0 0 2435681.00 10238491.00 L 2461416.99 10241879.22 L 2461416.98 10346851.00  zM 2603091.00 7337402.00 L 2437853.00 7337402.00 L 2285193.00 7274168.00 L 2168352.00 7157327.00 L 2105118.00 7004667.00 L 2105118.00 6839429.00 L 2168352.00 6686769.00 L 2285193.00 6569928.00 L 2437853.00 6506694.00 L 2603091.00 6506694.00 L 2755751.00 6569928.00 L 2872592.00 6686769.00 L 2935826.00 6839429.00 L 2935826.00 7004667.00 L 2872592.00 7157327.00 L 2755751.00 7274168.00 L 2603091.00 7337402.00  zM 2603091.00 9337402.00 L 2437853.00 9337402.00 L 2285193.00 9274168.00 L 2168352.00 9157327.00 L 2105118.00 9004667.00 L 2105118.00 8839429.00 L 2168352.00 8686769.00 L 2285193.00 8569928.00 L 2437853.00 8506694.00 L 2603091.00 8506694.00 L 2755751.00 8569928.00 L 2872592.00 8686769.00 L 2935826.00 8839429.00 L 2935826.00 9004667.00 L 2872592.00 9157327.00 L 2755751.00 9274168.00 L 2603091.00 9337402.00  zM 2945275.00 9862993.02 L 2840303.23 9862993.01 L 2836915.00 9837257.00 A 327599.99 327599.99 0 0 0 2605263.00 9605605.00 L 2579527.01 9602216.78 L 2579527.02 9497245.00 L 2604970.00 9497245.00 L 2761103.00 9561918.00 L 2880602.00 9681417.00 L 2945275.00 9837550.00 L 2945275.00 9862993.02  zM 2520473.22 9922044.65 m -220780.35 0 a 220780.35 220780.35 0 1 1 441560.70 0a 220780.35 220780.35 0 1 1 -441560.70 0M 2604970.00 10346851.00 L 2579526.98 10346851.00 L 2579526.99 10241879.23 L 2605263.00 10238491.00 A 327599.99 327599.99 0 0 0 2836915.00 10006839.00 L 2840303.22 9981103.01 L 2945275.00 9981103.02 L 2945275.00 10006546.00 L 2880602.00 10162679.00 L 2761103.00 10282178.00 L 2604970.00 10346851.00  zM 5754232.99 10440945.00 L 5648818.59 10440945.00 L 5613537.00 10386463.00 L 5559055.00 10351181.41 L 5559055.00 10245767.01 L 5645851.00 10281719.00 L 5718281.00 10354149.00 L 5754232.99 10440945.00  zM 3101181.41 10490945.00 L 2995767.01 10490945.00 L 3031719.00 10404149.00 L 3104149.00 10331719.00 L 3190945.00 10295767.01 L 3190945.00 10401181.41 L 3136463.00 10436463.00 L 3101657.00 10488554.00 L 3101181.41 10490945.00  zM 3504232.99 10490945.00 L 3398818.59 10490945.00 L 3363537.00 10436463.00 L 3309055.00 10401181.41 L 3309055.00 10295767.01 L 3395851.00 10331719.00 L 3468281.00 10404149.00 L 3504232.99 10490945.00  zM 5303265.00 11290944.00 L 5195026.00 11290944.00 L 5195026.00 11052755.00 L 5240458.00 10943073.00 L 5350140.00 10897641.00 L 5464313.00 10897641.00 L 5464313.00 11005880.00 L 5350140.00 11005880.00 L 5316994.00 11019609.00 L 5303265.00 11052755.00 L 5303265.00 11290944.00  zM 5351181.41 10440945.00 L 5245767.01 10440945.00 L 5281719.00 10354149.00 L 5354149.00 10281719.00 L 5440945.00 10245767.01 L 5440945.00 10351181.41 L 5386463.00 10386463.00 L 5351657.00 10438554.00 L 5351181.41 10440945.00  zM 5559055.00 10754232.99 L 5559055.00 10648818.59 L 5613537.00 10613537.00 L 5648818.59 10559055.00 L 5754232.99 10559055.00 L 5718281.00 10645851.00 L 5645851.00 10718281.00 L 5559055.00 10754232.99  zM 5440945.00 10754232.99 L 5354149.00 10718281.00 L 5281719.00 10645851.00 L 5245767.01 10559055.00 L 5351181.41 10559055.00 L 5386463.00 10613537.00 L 5440945.00 10648818.59 L 5440945.00 10754232.99  zM 5323015.00 11791121.40 L 5240458.00 11756925.00 L 5195026.00 11647243.00 L 5195026.00 11409054.00 L 5303265.00 11409054.00 L 5303265.00 11647243.00 L 5316994.00 11680389.00 L 5323015.00 11682882.88 L 5323015.00 11791121.40  zM 5081239.00 12785743.98 L 4981239.00 12785743.98 L 4981239.00 12547949.00 L 5323015.00 12547949.00 L 5323015.00 12647949.00 L 5081239.00 12647949.00 L 5081239.00 12785743.98  zM 4854232.99 12840945.00 L 4748818.59 12840945.00 L 4713537.00 12786463.00 L 4659055.00 12751181.41 L 4659055.00 12645767.01 L 4745851.00 12681719.00 L 4818281.00 12754149.00 L 4854232.99 12840945.00  zM 4659055.00 13154232.99 L 4659055.00 13048818.59 L 4713537.00 13013537.00 L 4748818.59 12959055.00 L 4854232.99 12959055.00 L 4818281.00 13045851.00 L 4745851.00 13118281.00 L 4659055.00 13154232.99  zM 5376513.99 13141649.00 L 4981239.00 13141649.00 L 4981239.00 12903853.98 L 5081239.00 12903853.98 L 5081239.00 13041649.00 L 5376513.99 13041649.00 L 5376513.99 13141649.00  zM 5889899.00 13141649.00 L 5494623.99 13141649.00 L 5494623.99 13041649.00 L 5789899.00 13041649.00 L 5789899.00 12903854.02 L 5889899.00 12903854.02 L 5889899.00 13141649.00  zM 5851710.00 11290944.00 L 5743471.00 11290944.00 L 5743471.00 11052755.00 L 5729742.00 11019609.00 L 5696596.00 11005880.00 L 5582423.00 11005880.00 L 5582423.00 10897641.00 L 5696596.00 10897641.00 L 5806278.00 10943073.00 L 5851710.00 11052755.00 L 5851710.00 11290944.00  zM 5696596.00 11802357.00 L 5582423.00 11802357.00 L 5582423.00 11694118.00 L 5696596.00 11694118.00 L 5729742.00 11680389.00 L 5743471.00 11647243.00 L 5743471.00 11409054.00 L 5851710.00 11409054.00 L 5851710.00 11647243.00 L 5806278.00 11756925.00 L 5696596.00 11802357.00  zM 7709536.99 11188362.00 L 7306388.00 11188362.00 L 7306388.00 10793086.99 L 7406388.00 10793087.00 L 7406388.00 11088362.00 L 7709537.00 11088362.00 L 7709536.99 11188362.00  zM 7406388.00 10674977.00 L 7306388.00 10674976.99 L 7306388.00 10279702.00 L 7709537.01 10279702.00 L 7709537.00 10379702.00 L 7406388.00 10379702.00 L 7406388.00 10674977.00  zM 8230796.00 11188362.00 L 7827646.99 11188362.00 L 7827647.00 11088362.00 L 8130796.00 11088362.00 L 8130796.00 10793087.00 L 8230796.00 10793087.01 L 8230796.00 11188362.00  zM 8150000.00 12040945.00 L 8043151.17 12040945.00 L 8035495.00 12002455.00 L 7980240.00 11919760.00 L 7897545.00 11864505.00 L 7859055.00 11856848.83 L 7859055.00 11750000.00 L 7869619.00 11750000.00 L 7998259.00 11803284.00 L 8096716.00 11901741.00 L 8150000.00 12030381.00 L 8150000.00 12040945.00  zM 7556848.83 12040945.00 L 7450000.00 12040945.00 L 7450000.00 12030381.00 L 7503284.00 11901741.00 L 7601741.00 11803284.00 L 7730381.00 11750000.00 L 7740945.00 11750000.00 L 7740945.00 11856848.83 L 7702455.00 11864505.00 L 7619760.00 11919760.00 L 7564505.00 12002455.00 L 7556848.83 12040945.00  zM 7175312.00 13417633.00 L 6269802.00 13417633.00 L 6269802.00 12527871.00 L 6519666.00 12527871.00 L 6519666.00 11784073.66 L 6436665.00 11749694.00 L 6394229.00 11647243.00 L 6394229.00 11052755.00 L 6436665.00 10950304.00 L 6539116.00 10907868.00 L 6885572.00 10907868.00 L 6988023.00 10950304.00 L 7030459.00 11052755.00 L 7030459.00 11647243.00 L 6988023.00 11749694.00 L 6905022.00 11784073.66 L 6905022.00 12527871.00 L 7175312.00 12527871.00 L 7175312.00 13417633.00  zM 7844984.00 12826098.00 L 7744984.00 12826098.00 L 7744984.00 12450000.00 L 7730381.00 12450000.00 L 7601741.00 12396716.00 L 7503284.00 12298259.00 L 7450000.00 12169619.00 L 7450000.00 12159055.00 L 7556848.83 12159055.00 L 7564505.00 12197545.00 A 254898.03 254898.03 0 0 0 7800000.00 12354898.00 L 7825811.71 12349763.71 L 7858804.00 12382756.00 L 7858804.00 12544602.00 L 7844984.00 12544602.00 L 7844984.00 12826098.00  zM 5889899.00 12785744.02 L 5789899.00 12785744.02 L 5789899.00 12647949.00 L 5523721.00 12647949.00 L 5523721.00 12547949.00 L 5889899.00 12547949.00 L 5889899.00 12785744.02  zM 7900102.00 13325704.00 L 7744984.00 13325704.00 L 7744984.00 12944208.00 L 7844984.00 12944208.00 L 7844984.00 13225704.00 L 7900102.00 13225704.00 L 7900102.00 13325704.00  zM 9715436.00 9997811.00 L 8809926.00 9997811.00 L 8809926.00 9745608.00 L 8221347.00 9745608.00 L 8221347.00 9997811.00 L 7315837.00 9997811.00 L 7315837.00 9108049.00 L 7375914.00 9108049.00 L 7375914.00 8853324.00 L 7390581.00 8779589.00 L 7432348.00 8717080.00 L 7868189.00 8281239.00 L 7930698.00 8239472.00 L 8004433.00 8224805.00 L 8244533.83 8224805.00 L 8261003.00 8185045.00 L 8356801.00 8089247.00 L 8481968.00 8037401.00 L 8617448.00 8037401.00 L 8742615.00 8089247.00 L 8838413.00 8185045.00 L 8890259.00 8310212.00 L 8890259.00 8445692.00 L 8838413.00 8570859.00 L 8742615.00 8666657.00 L 8617448.00 8718503.00 L 8481968.00 8718503.00 L 8356801.00 8666657.00 L 8300305.00 8610161.00 L 8084243.00 8610161.00 L 7761270.00 8933134.00 L 7761270.00 9108049.00 L 8221347.00 9108049.00 L 8221347.00 9360252.00 L 8809926.00 9360252.00 L 8809926.00 9108049.00 L 9715436.00 9108049.00 L 9715436.00 9997811.00  zM 8230796.00 10674977.01 L 8130796.00 10674977.00 L 8130796.00 10379702.00 L 7827647.00 10379702.00 L 7827647.01 10279702.00 L 8230796.00 10279702.00 L 8230796.00 10674977.01  zM 8173330.00 12826098.00 L 8073330.00 12826098.00 L 8073330.00 12544602.00 L 8059510.00 12544602.00 L 8059510.00 12341189.00 L 8051871.00 12302785.00 L 8030117.00 12270229.00 L 8004227.76 12244339.76 L 8035495.00 12197545.00 L 8043151.17 12159055.00 L 8150000.00 12159055.00 L 8150000.00 12169619.00 L 8096716.00 12298259.00 L 8068483.43 12326491.57 L 8117406.37 12444602.00 L 8173330.00 12444602.00 L 8173330.00 12826098.00  z"/>
<path id="N" d="M 9350340.00 15979325.00 L 10139074.00 15862328.00 L 10912541.00 15668584.00 L 11663294.00 15399960.00 L 12384102.00 15059044.00 L 13068024.00 14649117.00 L 13708473.00 14174128.00 L 14299280.00 13638651.00 L 14834757.00 13047844.00 L 15309746.00 12407395.00 L 15719673.00 11723473.00 L 16060589.00 11002665.00 L 16329213.00 10251912.00 L 16522957.00 9478445.00 L 16639954.00 8689711.00 L 16679079.00 7893308.00 L 16639954.00 7096905.00 L 16522957.00 6308171.00 L 16329213.00 5534704.00 L 16060589.00 4783951.00 L 15719673.00 4063143.00 L 15309746.00 3379221.00 L 14834757.00 2738772.00 L 14306890.00 2156361.00 L 13732882.00 1636110.00 L 13092433.00 1161121.00 L 12408511.00 751194.00 L 12275209.00 688147.00 L 12207200.00 784712.00 L 13036662.00 1614174.00 L 13176746.00 1614174.00 L 13318553.00 1672912.00 L 13427088.00 1781447.00 L 13485826.00 1923254.00 L 13485826.00 2076746.00 L 13482618.00 2084491.00 L 13736244.00 2338117.00 L 13778011.00 2400626.00 L 13792678.00 2474361.00 L 13792678.00 3233165.00 L 13818553.00 3243883.00 L 13927088.00 3352418.00 L 13985826.00 3494225.00 L 13985826.00 3647717.00 L 13927088.00 3789524.00 L 13818553.00 3898059.00 L 13676746.00 3956797.00 L 13523254.00 3956797.00 L 13381447.00 3898059.00 L 13272912.00 3789524.00 L 13214174.00 3647717.00 L 13214174.00 3494225.00 L 13272912.00 3352418.00 L 13381447.00 3243883.00 L 13407322.00 3233165.00 L 13407322.00 2554171.00 L 13220750.00 2367599.00 L 13176746.00 2385826.00 L 13023254.00 2385826.00 L 12881447.00 2327088.00 L 12772912.00 2218553.00 L 12755552.00 2176643.00 L 12637442.00 2200136.00 L 12637442.00 2954330.00 L 11731932.00 2954330.00 L 11731932.00 2702127.00 L 10755238.00 2702127.00 L 10755238.00 2910551.00 L 10627991.00 2910551.00 L 10579068.00 3028661.00 L 10662547.00 3112140.00 L 10695613.00 3161626.00 L 10707224.00 3220000.00 L 10707224.00 3289449.00 L 10755238.00 3289449.00 L 10755238.00 3990551.00 L 10394687.00 3990551.00 L 10394687.00 4000000.00 L 10285040.00 4000000.00 L 10285040.00 3900000.00 L 10294687.00 3900000.00 L 10294687.00 3380000.00 L 10074687.00 3380000.00 L 10074687.00 3900000.00 L 10084334.00 3900000.00 L 10084334.00 4000000.00 L 10007365.00 4000000.00 L 10007365.00 4120000.00 L 9992699.00 4193734.00 L 9950931.00 4256244.00 L 9717129.00 4490046.00 L 9717129.00 4755119.00 L 9811852.00 4755119.00 L 9811852.00 5644881.00 L 9717129.00 5644881.00 L 9717129.00 7563579.00 L 11184535.00 9030985.00 L 14915748.00 9030985.00 L 14915748.00 8615748.00 L 15884252.00 8615748.00 L 15884252.00 9584252.00 L 14915748.00 9584252.00 L 14915748.00 9416341.00 L 11184534.00 9416341.00 L 9934970.00 10665905.00 L 9872461.00 10707672.00 L 9798726.00 10722339.00 L 9715436.00 10722339.00 L 9715436.00 11178913.00 L 9292796.00 11178913.00 L 9292796.00 12454051.00 L 9344983.00 12454051.00 L 9344983.00 13316255.00 L 9292796.00 13316255.00 L 9292796.00 13577076.00 L 9717037.00 14001317.00 L 9923470.00 14001317.00 L 9923470.00 13708973.00 L 10828980.00 13708973.00 L 10828980.00 13872593.00 L 11234104.00 13872593.00 L 11234104.00 13777870.00 L 12123866.00 13777870.00 L 12123866.00 14352672.00 L 11234104.00 14352672.00 L 11234104.00 14257949.00 L 10828980.00 14257949.00 L 10828980.00 14598735.00 L 9923470.00 14598735.00 L 9923470.00 14306391.00 L 9653854.00 14306391.00 L 9595480.00 14294780.00 L 9545994.00 14261714.00 L 9146342.00 13862062.00 L 9028232.00 13910985.00 L 9028232.00 14328066.00 L 8999525.00 14397371.00 L 8930220.00 14426078.00 L 8742386.00 14426078.00 L 8742386.00 14517042.00 L 8727719.00 14590777.00 L 8685952.00 14653286.00 L 8302994.00 15036244.00 L 8240485.00 15078011.00 L 8166750.00 15092678.00 L 5071132.00 15092678.00 L 5044609.00 15210788.00 L 5444580.00 15399960.00 L 6195333.00 15668584.00 L 6968800.00 15862328.00 L 7757534.00 15979325.00 L 8553937.00 16018450.00 L 9350340.00 15979325.00  zM 11822483.00 3631496.00 L 11722483.00 3631495.99 L 11722483.00 3236221.00 L 12125632.01 3236221.00 L 12125632.00 3336221.00 L 11822483.00 3336221.00 L 11822483.00 3631496.00  zM 10548073.00 5099647.00 L 10448073.00 5099647.00 L 10448073.00 4745670.00 L 10685868.04 4745670.00 L 10685868.03 4845670.00 L 10548073.00 4845670.00 L 10548073.00 5099647.00  zM 12125631.99 4144881.00 L 11722483.00 4144881.00 L 11722483.00 3749605.99 L 11822483.00 3749606.00 L 11822483.00 4044881.00 L 12125632.00 4044881.00 L 12125631.99 4144881.00  zM 12001181.41 4840945.00 L 11895767.01 4840945.00 L 11931719.00 4754149.00 L 12004149.00 4681719.00 L 12090945.00 4645767.01 L 12090945.00 4751181.41 L 12036463.00 4786463.00 L 12001657.00 4838554.00 L 12001181.41 4840945.00  zM 12646891.00 3631496.01 L 12546891.00 3631496.00 L 12546891.00 3336221.00 L 12243742.00 3336221.00 L 12243742.01 3236221.00 L 12646891.00 3236221.00 L 12646891.00 3631496.01  zM 12646891.00 4144881.00 L 12243741.99 4144881.00 L 12243742.00 4044881.00 L 12546891.00 4044881.00 L 12546891.00 3749606.00 L 12646891.00 3749606.01 L 12646891.00 4144881.00  zM 12404232.99 4840945.00 L 12298818.59 4840945.00 L 12263537.00 4786463.00 L 12209055.00 4751181.41 L 12209055.00 4645767.01 L 12295851.00 4681719.00 L 12368281.00 4754149.00 L 12404232.99 4840945.00  zM 11041773.00 5140945.03 L 10941773.00 5140945.02 L 10941773.00 4845670.00 L 10803978.03 4845670.00 L 10803978.04 4745670.00 L 11041773.00 4745670.00 L 11041773.00 5140945.03  zM 11041773.00 5654330.00 L 10803977.96 5654330.00 L 10803977.97 5554330.00 L 10941773.00 5554330.00 L 10941773.00 5259055.02 L 11041773.00 5259055.03 L 11041773.00 5654330.00  zM 10685867.96 5654330.00 L 10448073.00 5654330.00 L 10448073.00 5300353.00 L 10548073.00 5300353.00 L 10548073.00 5554330.00 L 10685867.97 5554330.00 L 10685867.96 5654330.00  zM 12090945.00 5154232.99 L 12004149.00 5118281.00 L 11931719.00 5045851.00 L 11895767.01 4959055.00 L 12001181.41 4959055.00 L 12036463.00 5013537.00 L 12090945.00 5048818.59 L 12090945.00 5154232.99  zM 12209055.00 5154232.99 L 12209055.00 5048818.59 L 12263537.00 5013537.00 L 12298818.59 4959055.00 L 12404232.99 4959055.00 L 12368281.00 5045851.00 L 12295851.00 5118281.00 L 12209055.00 5154232.99  zM 14001181.41 6290945.00 L 13895767.01 6290945.00 L 13931719.00 6204149.00 L 14004149.00 6131719.00 L 14090945.00 6095767.01 L 14090945.00 6201181.41 L 14036463.00 6236463.00 L 14001657.00 6288554.00 L 14001181.41 6290945.00  zM 15151181.41 5190945.00 L 15045767.01 5190945.00 L 15081719.00 5104149.00 L 15154149.00 5031719.00 L 15240945.00 4995767.01 L 15240945.00 5101181.41 L 15186463.00 5136463.00 L 15151657.00 5188554.00 L 15151181.41 5190945.00  zM 15240945.00 5504232.99 L 15154149.00 5468281.00 L 15081719.00 5395851.00 L 15045767.01 5309055.00 L 15151181.41 5309055.00 L 15186463.00 5363537.00 L 15240945.00 5398818.59 L 15240945.00 5504232.99  zM 15554232.99 5190945.00 L 15448818.59 5190945.00 L 15413537.00 5136463.00 L 15359055.00 5101181.41 L 15359055.00 4995767.01 L 15445851.00 5031719.00 L 15518281.00 5104149.00 L 15554232.99 5190945.00  zM 15359055.00 5504232.99 L 15359055.00 5398818.59 L 15413537.00 5363537.00 L 15448818.59 5309055.00 L 15554232.99 5309055.00 L 15518281.00 5395851.00 L 15445851.00 5468281.00 L 15359055.00 5504232.99  zM 14956299.00 6290945.00 L 14856299.00 6290945.00 L 14856299.00 5856299.00 L 15290945.00 5856299.00 L 15290945.00 5956299.00 L 14956299.00 5956299.00 L 14956299.00 6290945.00  zM 15843701.00 6290945.00 L 15743701.00 6290945.00 L 15743701.00 5956299.00 L 15409055.00 5956299.00 L 15409055.00 5856299.00 L 15843701.00 5856299.00 L 15843701.00 6290945.00  zM 11486735.00 11802358.00 L 11413860.00 11802358.00 L 11304178.00 11756926.00 L 11258746.00 11647244.00 L 11258746.00 11409054.97 L 11366985.00 11409054.98 L 11366985.00 11647244.00 L 11380714.00 11680390.00 L 11413860.00 11694119.00 L 11486735.00 11694119.00 L 11486735.00 11802358.00  zM 11401181.41 10490945.00 L 11295767.01 10490945.00 L 11331719.00 10404149.00 L 11404149.00 10331719.00 L 11490945.00 10295767.01 L 11490945.00 10401181.41 L 11436463.00 10436463.00 L 11401657.00 10488554.00 L 11401181.41 10490945.00  zM 11804232.99 10490945.00 L 11698818.59 10490945.00 L 11663537.00 10436463.00 L 11609055.00 10401181.41 L 11609055.00 10295767.01 L 11695851.00 10331719.00 L 11768281.00 10404149.00 L 11804232.99 10490945.00  zM 11915430.00 11290945.03 L 11807191.00 11290945.02 L 11807191.00 11052756.00 L 11793462.00 11019610.00 L 11760316.00 11005881.00 L 11413860.00 11005881.00 L 11380714.00 11019610.00 L 11366985.00 11052756.00 L 11366985.00 11290944.98 L 11258746.00 11290944.97 L 11258746.00 11052756.00 L 11304178.00 10943074.00 L 11410838.46 10898893.57 L 11415462.19 10886794.02 L 11431310.80 10779531.76 L 11404149.00 10768281.00 L 11331719.00 10695851.00 L 11295767.01 10609055.00 L 11401181.41 10609055.00 A 157763.70 157763.70 0 0 0 11698818.59 10609055.00 L 11804232.99 10609055.00 L 11768281.00 10695851.00 L 11695851.00 10768281.00 L 11668689.21 10779531.75 L 11692182.74 10897642.00 L 11760316.00 10897642.00 L 11869998.00 10943074.00 L 11915430.00 11052756.00 L 11915430.00 11290945.03  zM 10828980.00 13417633.00 L 9923470.00 13417633.00 L 9923470.00 12527871.00 L 10205434.00 12527871.00 L 10205434.00 11784074.66 L 10122433.00 11749695.00 L 10079997.00 11647244.00 L 10079997.00 11052756.00 L 10122433.00 10950305.00 L 10224884.00 10907869.00 L 10571340.00 10907869.00 L 10673791.00 10950305.00 L 10716227.00 11052756.00 L 10716227.00 11647244.00 L 10673791.00 11749695.00 L 10590790.00 11784074.66 L 10590790.00 12527871.00 L 10828980.00 12527871.00 L 10828980.00 13417633.00  zM 11324655.00 12785743.98 L 11224655.00 12785743.98 L 11224655.00 12547949.00 L 11486735.00 12547949.00 L 11486735.00 12647949.00 L 11324655.00 12647949.00 L 11324655.00 12785743.98  zM 11760316.00 11802358.00 L 11687441.00 11802358.00 L 11687441.00 11694119.00 L 11760316.00 11694119.00 L 11793462.00 11680390.00 L 11807191.00 11647244.00 L 11807191.00 11409055.02 L 11915430.00 11409055.03 L 11915430.00 11647244.00 L 11869998.00 11756926.00 L 11760316.00 11802358.00  zM 12133315.00 13141649.00 L 11738039.99 13141649.00 L 11738039.99 13041649.00 L 12033315.00 13041649.00 L 12033315.00 12647949.00 L 11738040.01 12647949.00 L 11738040.01 12547949.00 L 12133315.00 12547949.00 L 12133315.00 12698057.47 L 12196946.96 12789810.13 L 12242518.91 12798781.40 L 12281719.00 12704149.00 L 12354149.00 12631719.00 L 12440945.00 12595767.01 L 12440945.00 12701181.41 A 157763.70 157763.70 0 0 0 12440945.00 12998818.59 L 12440945.00 13104232.99 L 12354149.00 13068281.00 L 12281719.00 12995851.00 L 12242518.91 12901218.60 L 12196946.90 12910189.88 L 12133315.00 13001942.53 L 12133315.00 13141649.00  zM 11619929.99 13141649.00 L 11224655.00 13141649.00 L 11224655.00 12903853.98 L 11324655.00 12903853.98 L 11324655.00 13041649.00 L 11619929.99 13041649.00 L 11619929.99 13141649.00  zM 14090945.00 6604232.99 L 14004149.00 6568281.00 L 13931719.00 6495851.00 L 13895767.01 6409055.00 L 14001181.41 6409055.00 L 14036463.00 6463537.00 L 14090945.00 6498818.59 L 14090945.00 6604232.99  zM 14404232.99 6290945.00 L 14298818.59 6290945.00 L 14263537.00 6236463.00 L 14209055.00 6201181.41 L 14209055.00 6095767.01 L 14295851.00 6131719.00 L 14368281.00 6204149.00 L 14404232.99 6290945.00  zM 14209055.00 6604232.99 L 14209055.00 6498818.59 L 14263537.00 6463537.00 L 14298818.59 6409055.00 L 14404232.99 6409055.00 L 14368281.00 6495851.00 L 14295851.00 6568281.00 L 14209055.00 6604232.99  zM 15290945.00 6843701.00 L 14856299.00 6843701.00 L 14856299.00 6409055.00 L 14956299.00 6409055.00 L 14956299.00 6743701.00 L 15290945.00 6743701.00 L 15290945.00 6843701.00  zM 15843701.00 6843701.00 L 15409055.00 6843701.00 L 15409055.00 6743701.00 L 15743701.00 6743701.00 L 15743701.00 6409055.00 L 15843701.00 6409055.00 L 15843701.00 6843701.00  zM 16454232.99 7040945.00 L 16348818.59 7040945.00 L 16313537.00 6986463.00 L 16259055.00 6951181.41 L 16259055.00 6845767.01 L 16345851.00 6881719.00 L 16418281.00 6954149.00 L 16454232.99 7040945.00  zM 16051181.41 7040945.00 L 15945767.01 7040945.00 L 15981719.00 6954149.00 L 16054149.00 6881719.00 L 16140945.00 6845767.01 L 16140945.00 6951181.41 L 16086463.00 6986463.00 L 16051657.00 7038554.00 L 16051181.41 7040945.00  zM 16140945.00 7354232.99 L 16054149.00 7318281.00 L 15981719.00 7245851.00 L 15945767.01 7159055.00 L 16051181.41 7159055.00 L 16086463.00 7213537.00 L 16140945.00 7248818.59 L 16140945.00 7354232.99  zM 16259055.00 7354232.99 L 16259055.00 7248818.59 L 16313537.00 7213537.00 L 16348818.59 7159055.00 L 16454232.99 7159055.00 L 16418281.00 7245851.00 L 16345851.00 7318281.00 L 16259055.00 7354232.99  zM 12754232.99 12790945.00 L 12648818.59 12790945.00 L 12613537.00 12736463.00 L 12559055.00 12701181.41 L 12559055.00 12595767.01 L 12645851.00 12631719.00 L 12718281.00 12704149.00 L 12754232.99 12790945.00  zM 12559055.00 13104232.99 L 12559055.00 12998818.59 L 12613537.00 12963537.00 L 12648818.59 12909055.00 L 12754232.99 12909055.00 L 12718281.00 12995851.00 L 12645851.00 13068281.00 L 12559055.00 13104232.99  z"/>
<path id="N" d="M 6672912.00 5181447.00 L 6781447.00 5072912.00 L 6923254.00 5014174.00 L 7076746.00 5014174.00 L 7218553.00 5072912.00 L 7277632.00 5131991.00 L 9237050.00 5131991.00 L 9237050.00 4755119.00 L 9331773.00 4755119.00 L 9331773.00 4410236.00 L 9346440.00 4336501.00 L 9388207.00 4273992.00 L 9571286.00 4090913.00 L 9614136.00 3990549.00 L 9614136.00 3289450.00 L 9511315.00 3252537.00 L 8863182.00 3252537.00 L 8599626.00 3516093.00 L 8599626.00 3647245.00 L 8885432.00 3647245.00 L 8885432.00 4552755.00 L 7995670.00 4552755.00 L 7995670.00 3647245.00 L 8294552.00 3647245.00 L 8294552.00 3452910.00 L 8306163.00 3394536.00 L 8339229.00 3345050.00 L 8574038.00 3110241.00 L 8525115.00 2992131.00 L 8271260.00 2992131.00 L 8168809.00 2949695.00 L 8126373.00 2847244.00 L 8126373.00 2252756.00 L 8168809.00 2150305.00 L 8271260.00 2107869.00 L 8617716.00 2107869.00 L 8720167.00 2150305.00 L 8762603.00 2252756.00 L 8762603.00 2367322.00 L 9610434.00 2367322.00 L 9610434.00 2098235.00 L 9488207.00 1976008.00 L 9446440.00 1913499.00 L 9431773.00 1839764.00 L 9431773.00 1744881.00 L 9337050.00 1744881.00 L 9337050.00 1394251.00 L 8005512.00 1394251.00 L 8005512.00 1428346.00 L 7194489.00 1428346.00 L 7194489.00 1392678.00 L 5692408.00 1392678.00 L 4798977.00 2286109.00 L 4798977.00 2765986.00 L 4883322.00 2850331.00 L 4933070.00 2970433.00 L 4933070.00 3100431.00 L 4883322.00 3220533.00 L 4798977.00 3304878.00 L 4798977.00 4676489.00 L 5329810.00 5207322.00 L 6662194.00 5207322.00 L 6672912.00 5181447.00  zM 5334645.97 3371652.00 L 5057481.00 3371652.00 L 5057481.00 3094486.97 L 5157481.00 3094486.98 L 5157481.00 3271652.00 L 5334645.98 3271652.00 L 5334645.97 3371652.00  zM 5157481.00 2976376.98 L 5057481.00 2976376.97 L 5057481.00 2699212.00 L 5334646.03 2699212.00 L 5334646.02 2799212.00 L 5157481.00 2799212.00 L 5157481.00 2976376.98  zM 5251181.41 3840945.00 L 5145767.01 3840945.00 L 5181719.00 3754149.00 L 5254149.00 3681719.00 L 5340945.00 3645767.01 L 5340945.00 3751181.41 L 5286463.00 3786463.00 L 5251657.00 3838554.00 L 5251181.41 3840945.00  zM 5340945.00 4154232.99 L 5254149.00 4118281.00 L 5181719.00 4045851.00 L 5145767.01 3959055.00 L 5251181.41 3959055.00 L 5286463.00 4013537.00 L 5340945.00 4048818.59 L 5340945.00 4154232.99  zM 5393703.38 3035426.09 m -140500.91 0 a 140500.91 140500.91 0 1 1 281001.82 0a 140500.91 140500.91 0 1 1 -281001.82 0M 5654232.99 3840945.00 L 5548818.59 3840945.00 L 5513537.00 3786463.00 L 5459055.00 3751181.41 L 5459055.00 3645767.01 L 5545851.00 3681719.00 L 5618281.00 3754149.00 L 5654232.99 3840945.00  zM 5459055.00 4154232.99 L 5459055.00 4048818.59 L 5513537.00 4013537.00 L 5548818.59 3959055.00 L 5654232.99 3959055.00 L 5618281.00 4045851.00 L 5545851.00 4118281.00 L 5459055.00 4154232.99  zM 5729921.00 2976377.03 L 5629921.00 2976377.02 L 5629921.00 2799212.00 L 5452756.02 2799212.00 L 5452756.03 2699212.00 L 5729921.00 2699212.00 L 5729921.00 2976377.03  zM 5729921.00 3371652.00 L 5452755.97 3371652.00 L 5452755.98 3271652.00 L 5629921.00 3271652.00 L 5629921.00 3094487.02 L 5729921.00 3094487.03 L 5729921.00 3371652.00  zM 7704330.00 4552755.00 L 6814568.00 4552755.00 L 6814568.00 3647245.00 L 7062834.00 3647245.00 L 7062834.00 2984074.66 L 6979833.00 2949695.00 L 6937397.00 2847244.00 L 6937397.00 2252756.00 L 6979833.00 2150305.00 L 7082284.00 2107869.00 L 7428740.00 2107869.00 L 7531191.00 2150305.00 L 7573627.00 2252756.00 L 7573627.00 2847244.00 L 7531191.00 2949695.00 L 7448190.00 2984074.66 L 7448190.00 3647245.00 L 7704330.00 3647245.00 L 7704330.00 4552755.00  z"/>
<path id="N" d="M 10354135.00 2910550.00 L 10354136.00 2209449.00 L 10755238.00 2209449.00 L 10755238.00 2316771.00 L 11731932.00 2316771.00 L 11731932.00 2064568.00 L 11898680.00 2064568.00 L 11922174.00 1946458.00 L 11854149.00 1918281.00 L 11781719.00 1845851.00 L 11745767.00 1759055.00 L 11851181.41 1759055.00 A 157763.70 157763.70 0 0 0 12148818.59 1759055.00 L 12254233.00 1759055.00 L 12218281.00 1845851.00 L 12145851.00 1918281.00 L 12077826.00 1946458.00 L 12101320.00 2064568.00 L 12637442.00 2064567.00 L 12714174.00 1978241.00 L 12714174.00 1923254.00 L 12739536.00 1862024.00 L 11620190.00 742678.00 L 11178272.00 742678.00 L 11141774.00 845670.00 L 11141773.00 1183372.00 L 11259883.00 1206865.00 L 11281719.00 1154149.00 L 11354149.00 1081719.00 L 11440945.00 1045767.00 L 11440945.00 1151181.41 A 157763.70 157763.70 0 0 0 11440945.00 1448818.59 L 11440945.00 1554233.00 L 11354149.00 1518281.00 L 11281719.00 1445851.00 L 11259883.00 1393135.00 L 11141773.00 1416628.00 L 11141773.00 1754330.00 L 10903978.00 1754330.00 L 10903978.00 1654330.00 L 11041773.00 1654330.00 L 11041773.00 945670.00 L 10648073.00 945670.00 L 10648073.00 1240945.00 L 10548073.00 1240945.00 L 10548072.00 845670.00 L 10511574.00 742678.00 L 9925539.00 742678.00 L 9911852.00 855120.00 L 9911853.00 1744880.00 L 9917731.00 1860556.00 L 9939356.00 1882181.00 L 9981123.00 1944690.00 L 9995790.00 2018425.00 L 9995790.00 2209449.00 L 10015238.00 2209449.00 L 10015238.00 2910550.00 L 10118059.00 2947463.00 L 10251315.00 2947463.00 L 10354135.00 2910550.00  zM 11754232.99 1240945.00 L 11648818.59 1240945.00 L 11613537.00 1186463.00 L 11559055.00 1151181.41 L 11559055.00 1045767.01 L 11645851.00 1081719.00 L 11718281.00 1154149.00 L 11754232.99 1240945.00  zM 11559055.00 1554232.99 L 11559055.00 1448818.59 L 11613537.00 1413537.00 L 11648818.59 1359055.00 L 11754232.99 1359055.00 L 11718281.00 1445851.00 L 11645851.00 1518281.00 L 11559055.00 1554232.99  zM 12254232.99 1640945.00 L 12148818.59 1640945.00 L 12113537.00 1586463.00 L 12059055.00 1551181.41 L 12059055.00 1445767.01 L 12145851.00 1481719.00 L 12218281.00 1554149.00 L 12254232.99 1640945.00  zM 10785867.96 1754330.00 L 10548073.00 1754330.00 L 10548072.93 1359054.97 L 10648073.00 1359054.98 L 10648073.00 1654330.00 L 10785867.97 1654330.00 L 10785867.96 1754330.00  zM 11851181.41 1640945.00 L 11745767.01 1640945.00 L 11781719.00 1554149.00 L 11854149.00 1481719.00 L 11940945.00 1445767.01 L 11940945.00 1551181.41 L 11886463.00 1586463.00 L 11851657.00 1638554.00 L 11851181.41 1640945.00  z"/>
<path id="N" d="M 1520473.97 6922053.69 m -327599.99 0 a 327599.99 327599.99 0 1 1 655199.97 0a 327599.99 327599.99 0 1 1 -655199.97 0M 1520473.22 6922044.65 m -220780.35 0 a 220780.35 220780.35 0 1 1 441560.70 0a 220780.35 220780.35 0 1 1 -441560.70 0"/>
<path id="N" d="M 2520473.97 7922053.69 m -327599.99 0 a 327599.99 327599.99 0 1 1 655199.97 0a 327599.99 327599.99 0 1 1 -655199.97 0M 2520473.22 7922044.65 m -220780.35 0 a 220780.35 220780.35 0 1 1 441560.70 0a 220780.35 220780.35 0 1 1 -441560.70 0"/>
<path id="N" d="M 2845275.00 5597245.00 L 2195669.00 5597245.00 L 2195669.00 6246851.00 L 2845275.00 6246851.00 L 2845275.00 5597245.00  zM 2520473.22 5922044.65 m -220780.35 0 a 220780.35 220780.35 0 1 1 441560.70 0a 220780.35 220780.35 0 1 1 -441560.70 0"/>
<path id="N" d="M 7084761.00 12618422.00 L 6812697.00 12618422.00 L 6812697.00 11694118.00 L 6885572.00 11694118.00 L 6918718.00 11680389.00 L 6932447.00 11647243.00 L 6932447.00 11052755.00 L 6918718.00 11019609.00 L 6885572.00 11005880.00 L 6539116.00 11005880.00 L 6505970.00 11019609.00 L 6492241.00 11052755.00 L 6492241.00 11647243.00 L 6505970.00 11680389.00 L 6539116.00 11694118.00 L 6611991.00 11694118.00 L 6611991.00 12618422.00 L 6360353.00 12618422.00 L 6360353.00 13327082.00 L 7084761.00 13327082.00 L 7084761.00 12618422.00  z"/>
<path id="N" d="M 10738429.00 14165624.00 L 11324655.00 14165624.00 L 11324655.00 14262121.00 L 12033315.00 14262121.00 L 12033315.00 13868421.00 L 11324655.00 13868421.00 L 11324655.00 13964918.00 L 10738429.00 13964918.00 L 10738429.00 13799524.00 L 10014021.00 13799524.00 L 10014021.00 14089933.00 L 9680331.00 14089933.00 L 9204180.00 13613782.00 L 9204180.00 13225704.00 L 9254432.00 13225704.00 L 9254432.00 12544602.00 L 9204180.00 12544602.00 L 9204180.00 11088362.00 L 9624885.00 11088362.00 L 9624885.00 10630014.00 L 9798726.00 10630014.00 L 9837130.00 10622375.00 L 9869686.00 10600621.00 L 11146291.00 9324016.00 L 15006299.00 9324016.00 L 15006299.00 9493701.00 L 15793701.00 9493701.00 L 15793701.00 8706299.00 L 15006299.00 8706299.00 L 15006299.00 9123310.00 L 11146292.98 9123310.00 L 9624804.00 7601821.98 L 9624804.00 5554330.00 L 9721301.00 5554330.00 L 9721301.00 4845670.00 L 9624804.00 4845670.00 L 9624804.00 4451803.10 L 9885648.00 4190960.00 L 9907401.00 4158403.00 L 9915040.00 4120000.00 L 9915040.00 3900000.00 L 9924687.00 3900000.00 L 9924687.00 3380000.00 L 9704687.00 3380000.00 L 9704687.00 3900000.00 L 9714334.00 3900000.00 L 9714334.00 4078432.10 L 9453491.00 4339276.00 L 9431737.00 4371832.00 L 9424098.00 4410236.00 L 9424098.00 4845670.00 L 9327601.00 4845670.00 L 9327601.00 5224316.00 L 7237379.34 5224316.00 L 7210593.00 5189407.00 A 297829.90 297829.90 0 0 0 6742078.00 5251088.00 L 6721964.18 5299647.00 L 5291567.95 5299647.00 L 4706652.00 4714731.95 L 4706652.00 3252478.50 L 4776604.00 3205737.00 A 240838.32 240838.32 0 0 0 4776604.00 2865127.00 L 4706652.00 2818385.50 L 4706652.00 2247866.03 L 5654165.97 1300353.00 L 7285040.00 1300353.00 L 7285040.00 1337795.00 L 7521260.00 1337795.00 L 7521260.00 1062205.00 L 7285040.00 1062205.00 L 7285040.00 1099647.00 L 5612598.00 1099647.00 L 5574195.00 1107286.00 L 5541638.00 1129039.00 L 4535339.00 2135339.00 L 4513585.00 2167895.00 L 4505946.00 2206299.00 L 4505946.00 2818385.50 L 4435994.00 2865127.00 A 240838.32 240838.32 0 0 0 4435994.00 3205737.00 L 4505946.00 3252478.50 L 4505946.00 4756299.00 L 4513585.00 4794703.00 L 4535339.00 4827259.00 L 5179040.00 5470961.00 L 5211597.00 5492714.00 L 5250000.00 5500353.00 L 6721964.18 5500353.00 L 6742078.00 5548912.00 A 297809.61 297809.61 0 0 0 7287675.00 5477082.00 L 7294528.80 5425022.00 L 9327601.00 5425022.00 L 9327601.00 5554330.00 L 9424098.00 5554330.00 L 9424098.00 7643389.00 L 9431737.00 7681793.00 L 9453491.00 7714349.00 L 10962804.02 9223662.98 L 9757159.00 10429308.00 L 9624885.00 10429308.00 L 9624885.00 10379702.00 L 8900477.00 10379702.00 L 8900477.00 11088362.00 L 9076338.00 11088362.00 L 9076338.00 12544602.00 L 9026086.00 12544602.00 L 9026086.00 13225704.00 L 9076338.00 13225704.00 L 9076338.00 13640259.00 L 9095060.00 13685458.00 L 9608655.00 14199053.00 L 9653854.00 14217775.00 L 10014021.00 14217775.00 L 10014021.00 14508184.00 L 10738429.00 14508184.00 L 10738429.00 14165624.00  zM 4606301.38 3035426.09 m -140500.91 0 a 140500.91 140500.91 0 1 1 281001.82 0a 140500.91 140500.91 0 1 1 -281001.82 0M 7000000.36 5400000.47 m -200706.53 0 a 200706.53 200706.53 0 1 1 401413.05 0a 200706.53 200706.53 0 1 1 -401413.05 0"/>
</g>
</svg>
