<svg width="42.00000236mm" height="42.00000236mm" viewBox="0 0 16535434 16535434"  version="1.1" xmlns="http://www.w3.org/2000/svg" xmlns:xlink="http://www.w3.org/1999/xlink">
<desc>
Origin 0 0 Bound 286220 -374409 16535434 16535434
</desc>
<g fill-rule="evenodd" fill="rgb(255, 0, 255)" stroke="black" stroke-width="1" transform="translate(0, 16535434) scale(1, -1) translate(-286220, 374409)">
<path id="N" d="M 8553916.44 7893191.95 m -8272263.15 0 a 8272263.15 8272263.15 0 1 1 16544526.29 0a 8272263.15 8272263.15 0 1 1 -16544526.29 0M 1520474.83 5922035.00 m -367964.00 0 a 367964.00 367964.00 0 1 1 735927.99 0a 367964.00 367964.00 0 1 1 -735927.99 0M 2885275.00 6286851.00 L 2155669.00 6286851.00 L 2155669.00 5557245.00 L 2885275.00 5557245.00 L 2885275.00 6286851.00  zM 4606296.36 3035445.49 m -278589.51 0 a 278589.51 278589.51 0 1 1 557179.03 0a 278589.51 278589.51 0 1 1 -557179.03 0M 5669921.00 3311652.00 L 5117481.00 3311652.00 L 5117481.00 2759212.00 L 5669921.00 2759212.00 L 5669921.00 3311652.00  zM 1520474.83 6922035.00 m -367964.00 0 a 367964.00 367964.00 0 1 1 735927.99 0a 367964.00 367964.00 0 1 1 -735927.99 0M 1520474.83 7922035.00 m -367964.00 0 a 367964.00 367964.00 0 1 1 735927.99 0a 367964.00 367964.00 0 1 1 -735927.99 0M 2520474.83 6922035.00 m -367964.00 0 a 367964.00 367964.00 0 1 1 735927.99 0a 367964.00 367964.00 0 1 1 -735927.99 0M 2520474.83 7922035.00 m -367964.00 0 a 367964.00 367964.00 0 1 1 735927.99 0a 367964.00 367964.00 0 1 1 -735927.99 0M 1520474.83 8922035.00 m -367964.00 0 a 367964.00 367964.00 0 1 1 735927.99 0a 367964.00 367964.00 0 1 1 -735927.99 0M 1520474.83 9922035.00 m -367964.00 0 a 367964.00 367964.00 0 1 1 735927.99 0a 367964.00 367964.00 0 1 1 -735927.99 0M 2520474.83 8922035.00 m -367964.00 0 a 367964.00 367964.00 0 1 1 735927.99 0a 367964.00 367964.00 0 1 1 -735927.99 0M 2520474.83 9922035.00 m -367964.00 0 a 367964.00 367964.00 0 1 1 735927.99 0a 367964.00 367964.00 0 1 1 -735927.99 0M 3250000.43 10550000.13 m -201348.87 0 a 201348.87 201348.87 0 1 1 402697.73 0a 201348.87 201348.87 0 1 1 -402697.73 0M 4100002.00 10999993.05 m -338174.95 0 a 338174.95 338174.95 0 1 1 676349.89 0a 338174.95 338174.95 0 1 1 -676349.89 0M 4600000.43 12900000.13 m -201348.87 0 a 201348.87 201348.87 0 1 1 402697.73 0a 201348.87 201348.87 0 1 1 -402697.73 0M 5400000.43 3900000.13 m -201348.87 0 a 201348.87 201348.87 0 1 1 402697.73 0a 201348.87 201348.87 0 1 1 -402697.73 0M 7000002.00 5399993.05 m -338174.95 0 a 338174.95 338174.95 0 1 1 676349.89 0a 338174.95 338174.95 0 1 1 -676349.89 0M 11500000.43 1300000.13 m -201348.87 0 a 201348.87 201348.87 0 1 1 402697.73 0a 201348.87 201348.87 0 1 1 -402697.73 0M 12000000.43 1700000.13 m -201348.87 0 a 201348.87 201348.87 0 1 1 402697.73 0a 201348.87 201348.87 0 1 1 -402697.73 0M 13100002.00 1999993.05 m -338174.95 0 a 338174.95 338174.95 0 1 1 676349.89 0a 338174.95 338174.95 0 1 1 -676349.89 0M 13600002.00 3570964.05 m -338174.95 0 a 338174.95 338174.95 0 1 1 676349.89 0a 338174.95 338174.95 0 1 1 -676349.89 0M 12150000.43 4900000.13 m -201348.87 0 a 201348.87 201348.87 0 1 1 402697.73 0a 201348.87 201348.87 0 1 1 -402697.73 0M 15300000.43 5250000.13 m -201348.87 0 a 201348.87 201348.87 0 1 1 402697.73 0a 201348.87 201348.87 0 1 1 -402697.73 0M 5500000.43 10500000.13 m -201348.87 0 a 201348.87 201348.87 0 1 1 402697.73 0a 201348.87 201348.87 0 1 1 -402697.73 0M 7800001.63 12099994.96 m -292507.04 0 a 292507.04 292507.04 0 1 1 585014.09 0a 292507.04 292507.04 0 1 1 -585014.09 0M 8983409.00 8811653.00 L 8116007.00 8811653.00 L 8116007.00 7944251.00 L 8983409.00 7944251.00 L 8983409.00 8811653.00  zM 11550000.43 10550000.13 m -201348.87 0 a 201348.87 201348.87 0 1 1 402697.73 0a 201348.87 201348.87 0 1 1 -402697.73 0M 14150000.43 6350000.13 m -201348.87 0 a 201348.87 201348.87 0 1 1 402697.73 0a 201348.87 201348.87 0 1 1 -402697.73 0M 16200000.43 7100000.13 m -201348.87 0 a 201348.87 201348.87 0 1 1 402697.73 0a 201348.87 201348.87 0 1 1 -402697.73 0M 12500000.43 12850000.13 m -201348.87 0 a 201348.87 201348.87 0 1 1 402697.73 0a 201348.87 201348.87 0 1 1 -402697.73 0"/>
</g>
</svg>
