<svg width="42.00000236mm" height="42.00000236mm" viewBox="0 0 16535434 16535434"  version="1.1" xmlns="http://www.w3.org/2000/svg" xmlns:xlink="http://www.w3.org/1999/xlink">
<desc>
Origin 0 0 Bound 286220 -374409 16535434 16535434
</desc>
<g fill-rule="evenodd" fill="rgb(128, 0, 128)" stroke="black" stroke-width="1" transform="translate(0, 16535434) scale(1, -1) translate(-286220, 374409)">
<path id="N" d="M 8553916.44 7893191.95 m -8272263.15 0 a 8272263.15 8272263.15 0 1 1 16544526.29 0a 8272263.15 8272263.15 0 1 1 -16544526.29 0M 4606296.36 3035445.49 m -278589.51 0 a 278589.51 278589.51 0 1 1 557179.03 0a 278589.51 278589.51 0 1 1 -557179.03 0M 5669921.00 3311652.00 L 5117481.00 3311652.00 L 5117481.00 2759212.00 L 5669921.00 2759212.00 L 5669921.00 3311652.00  zM 5400000.43 3900000.13 m -201348.87 0 a 201348.87 201348.87 0 1 1 402697.73 0a 201348.87 201348.87 0 1 1 -402697.73 0M 7428740.00 2932183.00 L 7082284.00 2932183.00 A 84942.89 84942.89 0 0 1 6997345.00 2847244.00 L 6997345.00 2252756.00 A 84942.89 84942.89 0 0 1 7082284.00 2167817.00 L 7428740.00 2167817.00 A 84942.89 84942.89 0 0 1 7513679.00 2252756.00 L 7513679.00 2847244.00 A 84942.89 84942.89 0 0 1 7428740.00 2932183.00  zM 7653779.00 4502204.00 L 6865119.00 4502204.00 L 6865119.00 3697796.00 L 7653779.00 3697796.00 L 7653779.00 4502204.00  zM 7561260.00 1377795.00 L 7245040.00 1377795.00 L 7245040.00 1022205.00 L 7561260.00 1022205.00 L 7561260.00 1377795.00  zM 7954961.00 1377795.00 L 7638741.00 1377795.00 L 7638741.00 1022205.00 L 7954961.00 1022205.00 L 7954961.00 1377795.00  zM 8617716.00 2932183.00 L 8271260.00 2932183.00 A 84942.89 84942.89 0 0 1 8186321.00 2847244.00 L 8186321.00 2252756.00 A 84942.89 84942.89 0 0 1 8271260.00 2167817.00 L 8617716.00 2167817.00 A 84942.89 84942.89 0 0 1 8702655.00 2252756.00 L 8702655.00 2847244.00 A 84942.89 84942.89 0 0 1 8617716.00 2932183.00  zM 8834881.00 4502204.00 L 8046221.00 4502204.00 L 8046221.00 3697796.00 L 8834881.00 3697796.00 L 8834881.00 4502204.00  zM 1520474.83 5922035.00 m -367964.00 0 a 367964.00 367964.00 0 1 1 735927.99 0a 367964.00 367964.00 0 1 1 -735927.99 0M 1520474.83 6922035.00 m -367964.00 0 a 367964.00 367964.00 0 1 1 735927.99 0a 367964.00 367964.00 0 1 1 -735927.99 0M 1520474.83 7922035.00 m -367964.00 0 a 367964.00 367964.00 0 1 1 735927.99 0a 367964.00 367964.00 0 1 1 -735927.99 0M 2520474.83 6922035.00 m -367964.00 0 a 367964.00 367964.00 0 1 1 735927.99 0a 367964.00 367964.00 0 1 1 -735927.99 0M 2520474.83 7922035.00 m -367964.00 0 a 367964.00 367964.00 0 1 1 735927.99 0a 367964.00 367964.00 0 1 1 -735927.99 0M 2520474.83 8922035.00 m -367964.00 0 a 367964.00 367964.00 0 1 1 735927.99 0a 367964.00 367964.00 0 1 1 -735927.99 0M 2885275.00 6286851.00 L 2155669.00 6286851.00 L 2155669.00 5557245.00 L 2885275.00 5557245.00 L 2885275.00 6286851.00  zM 7000002.00 5399993.05 m -338174.95 0 a 338174.95 338174.95 0 1 1 676349.89 0a 338174.95 338174.95 0 1 1 -676349.89 0M 1520474.83 8922035.00 m -367964.00 0 a 367964.00 367964.00 0 1 1 735927.99 0a 367964.00 367964.00 0 1 1 -735927.99 0M 1520474.83 9922035.00 m -367964.00 0 a 367964.00 367964.00 0 1 1 735927.99 0a 367964.00 367964.00 0 1 1 -735927.99 0M 2520474.83 9922035.00 m -367964.00 0 a 367964.00 367964.00 0 1 1 735927.99 0a 367964.00 367964.00 0 1 1 -735927.99 0M 3250000.43 10550000.13 m -201348.87 0 a 201348.87 201348.87 0 1 1 402697.73 0a 201348.87 201348.87 0 1 1 -402697.73 0M 5500000.43 10500000.13 m -201348.87 0 a 201348.87 201348.87 0 1 1 402697.73 0a 201348.87 201348.87 0 1 1 -402697.73 0M 4100002.00 10999993.05 m -338174.95 0 a 338174.95 338174.95 0 1 1 676349.89 0a 338174.95 338174.95 0 1 1 -676349.89 0M 5829899.00 13081649.00 L 5041239.00 13081649.00 L 5041239.00 12607949.00 L 5829899.00 12607949.00 L 5829899.00 13081649.00  zM 4600000.43 12900000.13 m -201348.87 0 a 201348.87 201348.87 0 1 1 402697.73 0a 201348.87 201348.87 0 1 1 -402697.73 0M 5829899.00 14302121.00 L 5041239.00 14302121.00 L 5041239.00 13828421.00 L 5829899.00 13828421.00 L 5829899.00 14302121.00  zM 5696596.00 11732182.00 L 5350140.00 11732182.00 A 84942.89 84942.89 0 0 1 5265201.00 11647243.00 L 5265201.00 11052755.00 A 84942.89 84942.89 0 0 1 5350140.00 10967816.00 L 5696596.00 10967816.00 A 84942.89 84942.89 0 0 1 5781535.00 11052755.00 L 5781535.00 11647243.00 A 84942.89 84942.89 0 0 1 5696596.00 11732182.00  zM 6885572.00 11732182.00 L 6539116.00 11732182.00 A 84942.89 84942.89 0 0 1 6454177.00 11647243.00 L 6454177.00 11052755.00 A 84942.89 84942.89 0 0 1 6539116.00 10967816.00 L 6885572.00 10967816.00 A 84942.89 84942.89 0 0 1 6970511.00 11052755.00 L 6970511.00 11647243.00 A 84942.89 84942.89 0 0 1 6885572.00 11732182.00  zM 8170796.00 9947260.00 L 7366388.00 9947260.00 L 7366388.00 9158600.00 L 8170796.00 9158600.00 L 8170796.00 9947260.00  zM 8170796.00 11128362.00 L 7366388.00 11128362.00 L 7366388.00 10339702.00 L 8170796.00 10339702.00 L 8170796.00 11128362.00  zM 7800001.63 12099994.96 m -292507.04 0 a 292507.04 292507.04 0 1 1 585014.09 0a 292507.04 292507.04 0 1 1 -585014.09 0M 8073330.00 13225704.00 L 7844984.00 13225704.00 L 7844984.00 12544602.00 L 8073330.00 12544602.00 L 8073330.00 13225704.00  zM 7124761.00 13367082.00 L 6320353.00 13367082.00 L 6320353.00 12578422.00 L 7124761.00 12578422.00 L 7124761.00 13367082.00  zM 7124761.00 14548184.00 L 6320353.00 14548184.00 L 6320353.00 13759524.00 L 7124761.00 13759524.00 L 7124761.00 14548184.00  zM 9861301.00 1694330.00 L 9387601.00 1694330.00 L 9387601.00 905670.00 L 9861301.00 905670.00 L 9861301.00 1694330.00  zM 11081773.00 1694330.00 L 10608073.00 1694330.00 L 10608073.00 905670.00 L 11081773.00 905670.00 L 11081773.00 1694330.00  zM 9964687.00 2860000.00 L 9664687.00 2860000.00 L 9664687.00 2260000.00 L 9964687.00 2260000.00 L 9964687.00 2860000.00  zM 10704687.00 2860000.00 L 10404687.00 2860000.00 L 10404687.00 2260000.00 L 10704687.00 2260000.00 L 10704687.00 2860000.00  zM 10334687.00 3940000.00 L 10034687.00 3940000.00 L 10034687.00 3340000.00 L 10334687.00 3340000.00 L 10334687.00 3940000.00  zM 9964687.00 3940000.00 L 9664687.00 3940000.00 L 9664687.00 3340000.00 L 9964687.00 3340000.00 L 9964687.00 3940000.00  zM 10704687.00 3940000.00 L 10404687.00 3940000.00 L 10404687.00 3340000.00 L 10704687.00 3340000.00 L 10704687.00 3940000.00  zM 9761301.00 5594330.00 L 9287601.00 5594330.00 L 9287601.00 4805670.00 L 9761301.00 4805670.00 L 9761301.00 5594330.00  zM 10981773.00 5594330.00 L 10508073.00 5594330.00 L 10508073.00 4805670.00 L 10981773.00 4805670.00 L 10981773.00 5594330.00  zM 11500000.43 1300000.13 m -201348.87 0 a 201348.87 201348.87 0 1 1 402697.73 0a 201348.87 201348.87 0 1 1 -402697.73 0M 12000000.43 1700000.13 m -201348.87 0 a 201348.87 201348.87 0 1 1 402697.73 0a 201348.87 201348.87 0 1 1 -402697.73 0M 12586891.00 2903779.00 L 11782483.00 2903779.00 L 11782483.00 2115119.00 L 12586891.00 2115119.00 L 12586891.00 2903779.00  zM 13100002.00 1999993.05 m -338174.95 0 a 338174.95 338174.95 0 1 1 676349.89 0a 338174.95 338174.95 0 1 1 -676349.89 0M 12586891.00 4084881.00 L 11782483.00 4084881.00 L 11782483.00 3296221.00 L 12586891.00 3296221.00 L 12586891.00 4084881.00  zM 12150000.43 4900000.13 m -201348.87 0 a 201348.87 201348.87 0 1 1 402697.73 0a 201348.87 201348.87 0 1 1 -402697.73 0M 13600002.00 3570964.05 m -338174.95 0 a 338174.95 338174.95 0 1 1 676349.89 0a 338174.95 338174.95 0 1 1 -676349.89 0M 15300000.43 5250000.13 m -201348.87 0 a 201348.87 201348.87 0 1 1 402697.73 0a 201348.87 201348.87 0 1 1 -402697.73 0M 8549709.63 8377946.96 m -292507.04 0 a 292507.04 292507.04 0 1 1 585014.09 0a 292507.04 292507.04 0 1 1 -585014.09 0M 9664885.00 9947260.00 L 8860477.00 9947260.00 L 8860477.00 9158600.00 L 9664885.00 9158600.00 L 9664885.00 9947260.00  zM 11550000.43 10550000.13 m -201348.87 0 a 201348.87 201348.87 0 1 1 402697.73 0a 201348.87 201348.87 0 1 1 -402697.73 0M 9664885.00 11128362.00 L 8860477.00 11128362.00 L 8860477.00 10339702.00 L 9664885.00 10339702.00 L 9664885.00 11128362.00  zM 10571340.00 11732183.00 L 10224884.00 11732183.00 A 84942.89 84942.89 0 0 1 10139945.00 11647244.00 L 10139945.00 11052756.00 A 84942.89 84942.89 0 0 1 10224884.00 10967817.00 L 10571340.00 10967817.00 A 84942.89 84942.89 0 0 1 10656279.00 11052756.00 L 10656279.00 11647244.00 A 84942.89 84942.89 0 0 1 10571340.00 11732183.00  zM 14150000.43 6350000.13 m -201348.87 0 a 201348.87 201348.87 0 1 1 402697.73 0a 201348.87 201348.87 0 1 1 -402697.73 0M 15783701.00 6783701.00 L 14916299.00 6783701.00 L 14916299.00 5916299.00 L 15783701.00 5916299.00 L 15783701.00 6783701.00  zM 16200000.43 7100000.13 m -201348.87 0 a 201348.87 201348.87 0 1 1 402697.73 0a 201348.87 201348.87 0 1 1 -402697.73 0M 15833701.00 9533701.00 L 14966299.00 9533701.00 L 14966299.00 8666299.00 L 15833701.00 8666299.00 L 15833701.00 9533701.00  zM 9254432.00 13225704.00 L 9026086.00 13225704.00 L 9026086.00 12544602.00 L 9254432.00 12544602.00 L 9254432.00 13225704.00  zM 8930220.00 14328066.00 L 8169196.00 14328066.00 L 8169196.00 13135153.00 L 8400102.00 13135153.00 L 8400102.00 12544602.00 L 8699314.00 12544602.00 L 8699314.00 13135153.00 L 8930220.00 13135153.00 L 8930220.00 14328066.00  zM 10778429.00 13367082.00 L 9974021.00 13367082.00 L 9974021.00 12578422.00 L 10778429.00 12578422.00 L 10778429.00 13367082.00  zM 10778429.00 14548184.00 L 9974021.00 14548184.00 L 9974021.00 13759524.00 L 10778429.00 13759524.00 L 10778429.00 14548184.00  zM 11760316.00 11732183.00 L 11413860.00 11732183.00 A 84942.89 84942.89 0 0 1 11328921.00 11647244.00 L 11328921.00 11052756.00 A 84942.89 84942.89 0 0 1 11413860.00 10967817.00 L 11760316.00 10967817.00 A 84942.89 84942.89 0 0 1 11845255.00 11052756.00 L 11845255.00 11647244.00 A 84942.89 84942.89 0 0 1 11760316.00 11732183.00  zM 12073315.00 13081649.00 L 11284655.00 13081649.00 L 11284655.00 12607949.00 L 12073315.00 12607949.00 L 12073315.00 13081649.00  zM 12500000.43 12850000.13 m -201348.87 0 a 201348.87 201348.87 0 1 1 402697.73 0a 201348.87 201348.87 0 1 1 -402697.73 0M 12073315.00 14302121.00 L 11284655.00 14302121.00 L 11284655.00 13828421.00 L 12073315.00 13828421.00 L 12073315.00 14302121.00  z"/>
</g>
</svg>
