G04*
G04 #@! TF.GenerationSoftware,Altium Limited,Altium Designer,23.2.1 (34)*
G04*
G04 Layer_Color=16711935*
%FSLAX44Y44*%
%MOMM*%
G71*
G04*
G04 #@! TF.SameCoordinates,75154B13-1296-4508-9C84-23632F313CF3*
G04*
G04*
G04 #@! TF.FilePolarity,Negative*
G04*
G01*
G75*
%ADD73C,1.8032*%
%ADD74R,1.8032X1.8032*%
%ADD75O,2.0032X1.2032*%
%ADD76C,0.7500*%
%ADD77O,2.3032X1.2032*%
%ADD78R,1.7032X1.7032*%
%ADD79C,1.7032*%
%ADD80C,1.7112*%
%ADD81R,1.7112X1.7112*%
%ADD82C,3.2032*%
%ADD83R,1.5700X1.5700*%
%ADD84C,1.5700*%
%ADD85R,1.5500X1.5500*%
%ADD86C,1.5500*%
%ADD87R,1.7532X1.7532*%
%ADD88C,1.7532*%
%ADD89R,1.5700X1.5700*%
%ADD90C,1.4132*%
%ADD91C,1.4732*%
D73*
X1242306Y637540D02*
D03*
Y662940D02*
D03*
Y688340D02*
D03*
D74*
Y713740D02*
D03*
D75*
X595985Y655300D02*
D03*
Y741700D02*
D03*
D76*
X632785Y669600D02*
D03*
Y727400D02*
D03*
D77*
X637785Y741700D02*
D03*
Y655300D02*
D03*
D78*
X1139190Y975360D02*
D03*
D79*
X1113790D02*
D03*
D80*
X1543370Y874830D02*
D03*
Y849830D02*
D03*
X1289960Y441210D02*
D03*
X1244960Y506210D02*
D03*
Y441210D02*
D03*
X1376320Y439940D02*
D03*
X1331320Y504940D02*
D03*
Y439940D02*
D03*
D81*
X1289960Y506210D02*
D03*
X1376320Y504940D02*
D03*
D82*
X1596390Y966470D02*
D03*
Y425450D02*
D03*
X673100Y429260D02*
D03*
X669290Y966470D02*
D03*
D83*
X1416050Y416560D02*
D03*
D84*
X1441450D02*
D03*
X1466850D02*
D03*
X1492250D02*
D03*
X1517650D02*
D03*
X1543050D02*
D03*
X1372900Y640080D02*
D03*
X1347500D02*
D03*
X1372900Y665480D02*
D03*
X1347500D02*
D03*
X1372900Y690880D02*
D03*
X1347500D02*
D03*
X1372900Y716280D02*
D03*
D85*
X1156970Y415290D02*
D03*
X1489710Y977244D02*
D03*
D86*
X1182370Y415290D02*
D03*
X1207770D02*
D03*
X1540510Y977244D02*
D03*
X1515110D02*
D03*
D87*
X942340Y415290D02*
D03*
D88*
X916940D02*
D03*
X891540D02*
D03*
X866140D02*
D03*
X840740D02*
D03*
X815340D02*
D03*
D89*
X1347500Y716280D02*
D03*
D90*
X1263244Y852870D02*
D03*
X1237844Y878270D02*
D03*
X1212444Y852870D02*
D03*
X1456625Y879870D02*
D03*
X1431225Y854470D02*
D03*
X1456625Y829070D02*
D03*
D91*
X1290320Y702310D02*
D03*
X1533781Y458560D02*
D03*
X1603770Y560070D02*
D03*
X1474470Y476440D02*
D03*
X1595120Y520700D02*
D03*
X1464070Y561818D02*
D03*
X1443326Y562989D02*
D03*
X1530350Y492760D02*
D03*
X1489710Y567690D02*
D03*
X928370Y888365D02*
D03*
X939800Y878720D02*
D03*
X932180Y633090D02*
D03*
Y685848D02*
D03*
X806450Y946150D02*
D03*
X727635Y590767D02*
D03*
X822069Y712470D02*
D03*
X891540Y458926D02*
D03*
X921320Y468401D02*
D03*
X955040Y554990D02*
D03*
X857250Y690880D02*
D03*
X840740Y712470D02*
D03*
X821690Y783590D02*
D03*
X1061720Y562610D02*
D03*
X1602740Y650730D02*
D03*
Y716085D02*
D03*
Y628945D02*
D03*
Y672515D02*
D03*
X1605280Y793800D02*
D03*
X1602740Y694300D02*
D03*
X769620Y844550D02*
D03*
X822960Y623570D02*
D03*
X816610Y519430D02*
D03*
X1410970Y842010D02*
D03*
X1394460Y944880D02*
D03*
X1061720Y817880D02*
D03*
X1043940D02*
D03*
X1026160D02*
D03*
X1016000Y935990D02*
D03*
X1071880D02*
D03*
X1056640Y955040D02*
D03*
X1028700D02*
D03*
X821690Y845820D02*
D03*
X683260Y836930D02*
D03*
X749300Y803910D02*
D03*
X795020Y839470D02*
D03*
X814070Y927100D02*
D03*
X746760Y593090D02*
D03*
X866140Y461010D02*
D03*
X848360D02*
D03*
X1315720Y576580D02*
D03*
X814070Y477520D02*
D03*
X781050Y500380D02*
D03*
X659130Y645350D02*
D03*
X660400Y745865D02*
D03*
X1569720Y806450D02*
D03*
X1532890Y607060D02*
D03*
X1280160Y806450D02*
D03*
X695960Y768350D02*
D03*
X652780D02*
D03*
X623570Y701040D02*
D03*
X1404620Y716280D02*
D03*
X1493520Y786130D02*
D03*
X1502410Y737870D02*
D03*
X1306830Y745490D02*
D03*
X1221740Y762000D02*
D03*
X1303020Y915670D02*
D03*
X1220470Y971550D02*
D03*
X1388110Y562610D02*
D03*
X1211580Y684530D02*
D03*
X1178560Y605790D02*
D03*
X1032510Y632460D02*
D03*
X1085850Y623570D02*
D03*
X1446530Y718820D02*
D03*
X1002030Y706120D02*
D03*
X764540Y635000D02*
D03*
X709930Y713740D02*
D03*
X731520Y702310D02*
D03*
Y647700D02*
D03*
X701040Y734060D02*
D03*
X662940Y695960D02*
D03*
X1085850Y650240D02*
D03*
X1019810Y666750D02*
D03*
X1212850Y590550D02*
D03*
X1163320Y670560D02*
D03*
X1111250Y521970D02*
D03*
X1404620Y618490D02*
D03*
X1578610Y608330D02*
D03*
X1158240Y873760D02*
D03*
X1271270Y916940D02*
D03*
X1393190Y897890D02*
D03*
X1432560Y916940D02*
D03*
X1117600Y681990D02*
D03*
Y593090D02*
D03*
M02*
