G04*
G04 #@! TF.GenerationSoftware,Altium Limited,Altium Designer,23.2.1 (34)*
G04*
G04 Layer_Color=16711935*
%FSLAX44Y44*%
%MOMM*%
G71*
G04*
G04 #@! TF.SameCoordinates,75154B13-1296-4508-9C84-23632F313CF3*
G04*
G04*
G04 #@! TF.FilePolarity,Positive*
G04*
G01*
G75*
%ADD10C,0.2000*%
G36*
X1482158Y421272D02*
X1482219D01*
X1482291Y421267D01*
X1482374Y421261D01*
X1482463Y421250D01*
X1482557Y421239D01*
X1482656Y421222D01*
X1482867Y421178D01*
X1483083Y421123D01*
X1483293Y421045D01*
X1483299D01*
X1483315Y421034D01*
X1483343Y421023D01*
X1483382Y421001D01*
X1483426Y420979D01*
X1483481Y420951D01*
X1483537Y420918D01*
X1483603Y420874D01*
X1483736Y420779D01*
X1483875Y420663D01*
X1484007Y420530D01*
X1484074Y420453D01*
X1484129Y420370D01*
X1484135Y420364D01*
X1484140Y420348D01*
X1484157Y420326D01*
X1484174Y420292D01*
X1484196Y420248D01*
X1484223Y420198D01*
X1484251Y420143D01*
X1484279Y420076D01*
X1484306Y420010D01*
X1484334Y419932D01*
X1484362Y419849D01*
X1484384Y419761D01*
X1484423Y419572D01*
X1484439Y419473D01*
X1484445Y419368D01*
X1483636Y419307D01*
Y419312D01*
X1483631Y419334D01*
X1483625Y419362D01*
X1483620Y419406D01*
X1483609Y419456D01*
X1483598Y419511D01*
X1483575Y419578D01*
X1483553Y419650D01*
X1483498Y419794D01*
X1483459Y419871D01*
X1483421Y419949D01*
X1483371Y420021D01*
X1483315Y420093D01*
X1483254Y420159D01*
X1483188Y420220D01*
X1483182Y420226D01*
X1483171Y420231D01*
X1483149Y420248D01*
X1483116Y420270D01*
X1483077Y420292D01*
X1483033Y420320D01*
X1482972Y420348D01*
X1482905Y420375D01*
X1482834Y420403D01*
X1482751Y420431D01*
X1482662Y420458D01*
X1482562Y420480D01*
X1482451Y420503D01*
X1482335Y420519D01*
X1482208Y420525D01*
X1482075Y420530D01*
X1482003D01*
X1481948Y420525D01*
X1481887Y420519D01*
X1481815Y420514D01*
X1481732Y420508D01*
X1481649Y420497D01*
X1481460Y420464D01*
X1481278Y420414D01*
X1481189Y420381D01*
X1481100Y420342D01*
X1481023Y420298D01*
X1480951Y420248D01*
X1480945Y420242D01*
X1480934Y420237D01*
X1480918Y420220D01*
X1480896Y420198D01*
X1480868Y420171D01*
X1480840Y420137D01*
X1480779Y420060D01*
X1480713Y419960D01*
X1480657Y419844D01*
X1480635Y419777D01*
X1480619Y419711D01*
X1480608Y419639D01*
X1480602Y419567D01*
Y419561D01*
Y419550D01*
Y419534D01*
X1480608Y419511D01*
X1480613Y419445D01*
X1480635Y419368D01*
X1480663Y419279D01*
X1480707Y419185D01*
X1480768Y419091D01*
X1480807Y419046D01*
X1480851Y419002D01*
X1480857D01*
X1480862Y418991D01*
X1480879Y418980D01*
X1480907Y418963D01*
X1480940Y418941D01*
X1480984Y418919D01*
X1481039Y418891D01*
X1481100Y418864D01*
X1481178Y418830D01*
X1481272Y418792D01*
X1481372Y418759D01*
X1481494Y418720D01*
X1481626Y418675D01*
X1481776Y418637D01*
X1481942Y418592D01*
X1482125Y418548D01*
X1482136D01*
X1482169Y418537D01*
X1482224Y418526D01*
X1482291Y418509D01*
X1482379Y418487D01*
X1482474Y418465D01*
X1482579Y418437D01*
X1482690Y418410D01*
X1482928Y418349D01*
X1483160Y418282D01*
X1483271Y418243D01*
X1483376Y418210D01*
X1483470Y418177D01*
X1483548Y418144D01*
X1483553Y418138D01*
X1483570Y418133D01*
X1483603Y418116D01*
X1483636Y418100D01*
X1483686Y418072D01*
X1483736Y418039D01*
X1483797Y418005D01*
X1483858Y417967D01*
X1483991Y417873D01*
X1484129Y417756D01*
X1484257Y417629D01*
X1484312Y417562D01*
X1484367Y417491D01*
X1484373Y417485D01*
X1484378Y417474D01*
X1484395Y417452D01*
X1484412Y417419D01*
X1484428Y417385D01*
X1484456Y417341D01*
X1484478Y417286D01*
X1484506Y417230D01*
X1484528Y417164D01*
X1484556Y417097D01*
X1484594Y416942D01*
X1484628Y416771D01*
X1484633Y416676D01*
X1484639Y416582D01*
Y416577D01*
Y416560D01*
Y416533D01*
X1484633Y416494D01*
X1484628Y416450D01*
X1484622Y416400D01*
X1484617Y416339D01*
X1484600Y416272D01*
X1484567Y416123D01*
X1484517Y415962D01*
X1484484Y415879D01*
X1484445Y415796D01*
X1484395Y415708D01*
X1484345Y415624D01*
X1484340Y415619D01*
X1484334Y415602D01*
X1484312Y415580D01*
X1484290Y415552D01*
X1484262Y415514D01*
X1484223Y415469D01*
X1484179Y415420D01*
X1484129Y415370D01*
X1484074Y415314D01*
X1484013Y415259D01*
X1483941Y415198D01*
X1483869Y415143D01*
X1483786Y415082D01*
X1483697Y415026D01*
X1483603Y414977D01*
X1483504Y414927D01*
X1483498D01*
X1483481Y414916D01*
X1483448Y414905D01*
X1483409Y414888D01*
X1483354Y414871D01*
X1483293Y414849D01*
X1483221Y414827D01*
X1483144Y414805D01*
X1483055Y414777D01*
X1482961Y414755D01*
X1482861Y414733D01*
X1482756Y414716D01*
X1482640Y414700D01*
X1482523Y414689D01*
X1482402Y414683D01*
X1482274Y414678D01*
X1482191D01*
X1482130Y414683D01*
X1482053D01*
X1481970Y414689D01*
X1481870Y414700D01*
X1481765Y414711D01*
X1481654Y414722D01*
X1481538Y414739D01*
X1481294Y414783D01*
X1481051Y414844D01*
X1480929Y414882D01*
X1480818Y414927D01*
X1480813Y414932D01*
X1480790Y414938D01*
X1480763Y414954D01*
X1480724Y414977D01*
X1480674Y414999D01*
X1480613Y415032D01*
X1480552Y415071D01*
X1480486Y415115D01*
X1480408Y415170D01*
X1480336Y415226D01*
X1480259Y415287D01*
X1480181Y415353D01*
X1480109Y415431D01*
X1480032Y415508D01*
X1479965Y415591D01*
X1479899Y415685D01*
X1479893Y415691D01*
X1479882Y415708D01*
X1479866Y415735D01*
X1479849Y415774D01*
X1479821Y415824D01*
X1479794Y415879D01*
X1479760Y415946D01*
X1479733Y416023D01*
X1479700Y416101D01*
X1479666Y416189D01*
X1479639Y416283D01*
X1479611Y416389D01*
X1479572Y416604D01*
X1479556Y416721D01*
X1479550Y416837D01*
X1480347Y416909D01*
Y416903D01*
X1480353Y416887D01*
Y416865D01*
X1480358Y416832D01*
X1480364Y416787D01*
X1480375Y416743D01*
X1480386Y416688D01*
X1480403Y416632D01*
X1480436Y416505D01*
X1480480Y416372D01*
X1480536Y416239D01*
X1480608Y416117D01*
Y416112D01*
X1480619Y416106D01*
X1480630Y416090D01*
X1480646Y416067D01*
X1480696Y416012D01*
X1480768Y415940D01*
X1480857Y415857D01*
X1480968Y415774D01*
X1481100Y415696D01*
X1481250Y415619D01*
X1481255D01*
X1481272Y415613D01*
X1481294Y415602D01*
X1481327Y415591D01*
X1481366Y415575D01*
X1481416Y415558D01*
X1481471Y415541D01*
X1481538Y415525D01*
X1481610Y415508D01*
X1481682Y415491D01*
X1481848Y415458D01*
X1482036Y415436D01*
X1482236Y415431D01*
X1482319D01*
X1482357Y415436D01*
X1482407D01*
X1482463Y415442D01*
X1482523Y415447D01*
X1482656Y415464D01*
X1482800Y415491D01*
X1482944Y415525D01*
X1483088Y415575D01*
X1483094D01*
X1483105Y415580D01*
X1483121Y415591D01*
X1483149Y415602D01*
X1483216Y415635D01*
X1483299Y415680D01*
X1483387Y415735D01*
X1483476Y415802D01*
X1483564Y415879D01*
X1483642Y415968D01*
Y415973D01*
X1483647Y415979D01*
X1483670Y416012D01*
X1483697Y416062D01*
X1483736Y416128D01*
X1483769Y416211D01*
X1483797Y416306D01*
X1483819Y416405D01*
X1483825Y416516D01*
Y416521D01*
Y416527D01*
Y416544D01*
Y416566D01*
X1483814Y416621D01*
X1483803Y416693D01*
X1483780Y416776D01*
X1483753Y416859D01*
X1483708Y416953D01*
X1483647Y417036D01*
X1483642Y417048D01*
X1483614Y417075D01*
X1483570Y417114D01*
X1483509Y417169D01*
X1483432Y417230D01*
X1483332Y417291D01*
X1483210Y417352D01*
X1483072Y417413D01*
X1483066D01*
X1483061Y417419D01*
X1483044Y417424D01*
X1483016Y417430D01*
X1482983Y417441D01*
X1482944Y417457D01*
X1482894Y417474D01*
X1482834Y417491D01*
X1482762Y417507D01*
X1482679Y417535D01*
X1482584Y417557D01*
X1482479Y417585D01*
X1482363Y417618D01*
X1482230Y417651D01*
X1482086Y417684D01*
X1481926Y417723D01*
X1481914D01*
X1481887Y417734D01*
X1481842Y417745D01*
X1481781Y417762D01*
X1481709Y417778D01*
X1481626Y417800D01*
X1481538Y417828D01*
X1481444Y417856D01*
X1481239Y417917D01*
X1481034Y417983D01*
X1480934Y418017D01*
X1480846Y418050D01*
X1480763Y418088D01*
X1480691Y418122D01*
X1480685Y418127D01*
X1480668Y418133D01*
X1480646Y418149D01*
X1480619Y418166D01*
X1480580Y418188D01*
X1480536Y418216D01*
X1480436Y418288D01*
X1480325Y418376D01*
X1480215Y418476D01*
X1480104Y418592D01*
X1480010Y418720D01*
Y418725D01*
X1479998Y418736D01*
X1479987Y418753D01*
X1479976Y418781D01*
X1479960Y418814D01*
X1479938Y418853D01*
X1479921Y418902D01*
X1479899Y418952D01*
X1479860Y419069D01*
X1479821Y419201D01*
X1479799Y419351D01*
X1479788Y419511D01*
Y419517D01*
Y419534D01*
Y419561D01*
X1479794Y419595D01*
X1479799Y419639D01*
X1479805Y419689D01*
X1479810Y419744D01*
X1479821Y419810D01*
X1479854Y419949D01*
X1479904Y420098D01*
X1479932Y420182D01*
X1479971Y420259D01*
X1480010Y420342D01*
X1480059Y420420D01*
X1480065Y420425D01*
X1480070Y420436D01*
X1480087Y420458D01*
X1480109Y420492D01*
X1480143Y420525D01*
X1480176Y420564D01*
X1480215Y420608D01*
X1480264Y420658D01*
X1480320Y420708D01*
X1480375Y420763D01*
X1480441Y420813D01*
X1480513Y420868D01*
X1480591Y420918D01*
X1480680Y420968D01*
X1480768Y421012D01*
X1480862Y421056D01*
X1480868D01*
X1480885Y421068D01*
X1480918Y421079D01*
X1480956Y421090D01*
X1481006Y421106D01*
X1481067Y421128D01*
X1481134Y421145D01*
X1481211Y421167D01*
X1481294Y421189D01*
X1481383Y421206D01*
X1481477Y421228D01*
X1481582Y421245D01*
X1481804Y421267D01*
X1482036Y421278D01*
X1482108D01*
X1482158Y421272D01*
D02*
G37*
G36*
X1498055D02*
X1498122D01*
X1498205Y421261D01*
X1498299Y421250D01*
X1498404Y421239D01*
X1498520Y421217D01*
X1498648Y421189D01*
X1498775Y421156D01*
X1498908Y421117D01*
X1499046Y421068D01*
X1499179Y421012D01*
X1499318Y420946D01*
X1499445Y420874D01*
X1499572Y420785D01*
X1499578Y420779D01*
X1499600Y420763D01*
X1499633Y420735D01*
X1499678Y420696D01*
X1499733Y420647D01*
X1499794Y420586D01*
X1499860Y420514D01*
X1499932Y420431D01*
X1500004Y420337D01*
X1500082Y420237D01*
X1500159Y420121D01*
X1500231Y419999D01*
X1500303Y419866D01*
X1500370Y419728D01*
X1500431Y419572D01*
X1500486Y419412D01*
X1499656Y419218D01*
Y419224D01*
X1499644Y419251D01*
X1499633Y419285D01*
X1499611Y419334D01*
X1499589Y419390D01*
X1499561Y419456D01*
X1499528Y419528D01*
X1499489Y419606D01*
X1499395Y419772D01*
X1499285Y419938D01*
X1499224Y420021D01*
X1499157Y420098D01*
X1499085Y420171D01*
X1499008Y420231D01*
X1499002Y420237D01*
X1498991Y420248D01*
X1498963Y420259D01*
X1498930Y420281D01*
X1498891Y420303D01*
X1498842Y420331D01*
X1498781Y420364D01*
X1498720Y420392D01*
X1498642Y420420D01*
X1498565Y420453D01*
X1498476Y420480D01*
X1498382Y420503D01*
X1498282Y420525D01*
X1498177Y420541D01*
X1498061Y420547D01*
X1497945Y420552D01*
X1497873D01*
X1497823Y420547D01*
X1497756Y420541D01*
X1497684Y420536D01*
X1497601Y420525D01*
X1497513Y420508D01*
X1497419Y420492D01*
X1497319Y420464D01*
X1497219Y420436D01*
X1497114Y420403D01*
X1497014Y420364D01*
X1496909Y420314D01*
X1496810Y420259D01*
X1496715Y420198D01*
X1496710Y420193D01*
X1496693Y420182D01*
X1496671Y420159D01*
X1496638Y420132D01*
X1496593Y420098D01*
X1496549Y420054D01*
X1496499Y420004D01*
X1496444Y419949D01*
X1496389Y419883D01*
X1496328Y419810D01*
X1496272Y419733D01*
X1496217Y419650D01*
X1496162Y419561D01*
X1496112Y419462D01*
X1496062Y419362D01*
X1496023Y419251D01*
Y419246D01*
X1496012Y419224D01*
X1496007Y419190D01*
X1495990Y419152D01*
X1495979Y419096D01*
X1495962Y419030D01*
X1495940Y418958D01*
X1495923Y418875D01*
X1495907Y418786D01*
X1495885Y418692D01*
X1495868Y418592D01*
X1495857Y418487D01*
X1495835Y418260D01*
X1495824Y418028D01*
Y418017D01*
Y417994D01*
Y417950D01*
X1495829Y417889D01*
Y417823D01*
X1495835Y417740D01*
X1495846Y417645D01*
X1495851Y417546D01*
X1495868Y417435D01*
X1495879Y417324D01*
X1495923Y417086D01*
X1495979Y416843D01*
X1496056Y416604D01*
X1496062Y416599D01*
X1496068Y416577D01*
X1496084Y416549D01*
X1496101Y416505D01*
X1496128Y416455D01*
X1496156Y416400D01*
X1496195Y416333D01*
X1496239Y416267D01*
X1496289Y416195D01*
X1496339Y416117D01*
X1496400Y416045D01*
X1496466Y415968D01*
X1496538Y415896D01*
X1496616Y415829D01*
X1496704Y415763D01*
X1496793Y415702D01*
X1496798Y415696D01*
X1496815Y415691D01*
X1496843Y415674D01*
X1496881Y415658D01*
X1496926Y415635D01*
X1496981Y415608D01*
X1497048Y415580D01*
X1497119Y415552D01*
X1497197Y415525D01*
X1497280Y415497D01*
X1497369Y415475D01*
X1497463Y415447D01*
X1497662Y415414D01*
X1497773Y415409D01*
X1497878Y415403D01*
X1497911D01*
X1497945Y415409D01*
X1497994D01*
X1498055Y415414D01*
X1498127Y415425D01*
X1498210Y415436D01*
X1498293Y415453D01*
X1498388Y415475D01*
X1498482Y415503D01*
X1498581Y415536D01*
X1498687Y415575D01*
X1498786Y415619D01*
X1498886Y415674D01*
X1498986Y415735D01*
X1499080Y415807D01*
X1499085Y415813D01*
X1499102Y415824D01*
X1499124Y415851D01*
X1499157Y415885D01*
X1499202Y415929D01*
X1499246Y415979D01*
X1499296Y416040D01*
X1499351Y416112D01*
X1499406Y416195D01*
X1499462Y416283D01*
X1499517Y416383D01*
X1499572Y416494D01*
X1499622Y416610D01*
X1499672Y416737D01*
X1499711Y416876D01*
X1499750Y417020D01*
X1500597Y416809D01*
Y416804D01*
X1500591Y416798D01*
Y416782D01*
X1500586Y416765D01*
X1500569Y416710D01*
X1500547Y416638D01*
X1500514Y416549D01*
X1500475Y416450D01*
X1500431Y416339D01*
X1500375Y416222D01*
X1500314Y416095D01*
X1500248Y415962D01*
X1500170Y415829D01*
X1500082Y415702D01*
X1499982Y415569D01*
X1499877Y415447D01*
X1499766Y415331D01*
X1499639Y415220D01*
X1499633Y415215D01*
X1499606Y415198D01*
X1499567Y415170D01*
X1499517Y415137D01*
X1499451Y415093D01*
X1499368Y415048D01*
X1499274Y414999D01*
X1499168Y414949D01*
X1499052Y414899D01*
X1498925Y414849D01*
X1498786Y414805D01*
X1498637Y414761D01*
X1498476Y414727D01*
X1498310Y414700D01*
X1498133Y414683D01*
X1497950Y414678D01*
X1497906D01*
X1497850Y414683D01*
X1497778D01*
X1497690Y414689D01*
X1497590Y414700D01*
X1497480Y414711D01*
X1497352Y414727D01*
X1497225Y414749D01*
X1497086Y414777D01*
X1496948Y414810D01*
X1496810Y414855D01*
X1496665Y414899D01*
X1496533Y414954D01*
X1496400Y415021D01*
X1496272Y415093D01*
X1496267Y415098D01*
X1496245Y415115D01*
X1496211Y415137D01*
X1496167Y415170D01*
X1496112Y415215D01*
X1496051Y415270D01*
X1495979Y415331D01*
X1495907Y415403D01*
X1495829Y415486D01*
X1495746Y415575D01*
X1495663Y415674D01*
X1495586Y415785D01*
X1495503Y415901D01*
X1495425Y416029D01*
X1495353Y416167D01*
X1495287Y416311D01*
X1495281Y416322D01*
X1495270Y416350D01*
X1495253Y416389D01*
X1495237Y416450D01*
X1495209Y416521D01*
X1495181Y416610D01*
X1495154Y416710D01*
X1495121Y416826D01*
X1495087Y416948D01*
X1495060Y417081D01*
X1495032Y417219D01*
X1495004Y417369D01*
X1494988Y417524D01*
X1494971Y417684D01*
X1494960Y417850D01*
X1494955Y418022D01*
Y418028D01*
Y418033D01*
Y418066D01*
Y418122D01*
X1494960Y418188D01*
X1494966Y418277D01*
X1494977Y418376D01*
X1494988Y418487D01*
X1495004Y418615D01*
X1495021Y418747D01*
X1495049Y418886D01*
X1495076Y419030D01*
X1495115Y419174D01*
X1495159Y419323D01*
X1495209Y419473D01*
X1495265Y419617D01*
X1495331Y419761D01*
X1495337Y419772D01*
X1495348Y419794D01*
X1495370Y419833D01*
X1495403Y419883D01*
X1495442Y419943D01*
X1495492Y420015D01*
X1495547Y420093D01*
X1495608Y420182D01*
X1495685Y420270D01*
X1495763Y420364D01*
X1495851Y420458D01*
X1495951Y420552D01*
X1496056Y420641D01*
X1496167Y420730D01*
X1496289Y420813D01*
X1496416Y420890D01*
X1496422Y420896D01*
X1496449Y420907D01*
X1496488Y420924D01*
X1496538Y420951D01*
X1496605Y420979D01*
X1496682Y421012D01*
X1496771Y421051D01*
X1496876Y421084D01*
X1496981Y421123D01*
X1497103Y421156D01*
X1497230Y421189D01*
X1497363Y421217D01*
X1497507Y421245D01*
X1497651Y421261D01*
X1497806Y421272D01*
X1497961Y421278D01*
X1498006D01*
X1498055Y421272D01*
D02*
G37*
G36*
X1513188Y414783D02*
X1512463D01*
Y415359D01*
X1512458Y415353D01*
X1512441Y415331D01*
X1512419Y415298D01*
X1512380Y415253D01*
X1512336Y415204D01*
X1512280Y415143D01*
X1512214Y415082D01*
X1512136Y415021D01*
X1512048Y414954D01*
X1511954Y414893D01*
X1511848Y414838D01*
X1511732Y414783D01*
X1511605Y414739D01*
X1511466Y414705D01*
X1511322Y414683D01*
X1511167Y414678D01*
X1511112D01*
X1511073Y414683D01*
X1511023Y414689D01*
X1510968Y414694D01*
X1510902Y414705D01*
X1510835Y414716D01*
X1510675Y414749D01*
X1510503Y414805D01*
X1510414Y414844D01*
X1510326Y414882D01*
X1510237Y414927D01*
X1510149Y414982D01*
X1510143Y414988D01*
X1510126Y414999D01*
X1510104Y415015D01*
X1510071Y415037D01*
X1510032Y415071D01*
X1509988Y415109D01*
X1509938Y415154D01*
X1509888Y415204D01*
X1509833Y415259D01*
X1509772Y415325D01*
X1509711Y415392D01*
X1509656Y415469D01*
X1509595Y415552D01*
X1509539Y415635D01*
X1509484Y415730D01*
X1509434Y415829D01*
Y415835D01*
X1509423Y415857D01*
X1509412Y415885D01*
X1509395Y415929D01*
X1509373Y415979D01*
X1509351Y416040D01*
X1509329Y416112D01*
X1509307Y416195D01*
X1509285Y416283D01*
X1509263Y416377D01*
X1509241Y416483D01*
X1509218Y416593D01*
X1509202Y416710D01*
X1509191Y416832D01*
X1509185Y416959D01*
X1509180Y417092D01*
Y417097D01*
Y417125D01*
Y417158D01*
X1509185Y417208D01*
Y417269D01*
X1509191Y417341D01*
X1509196Y417419D01*
X1509207Y417507D01*
X1509218Y417601D01*
X1509235Y417701D01*
X1509274Y417917D01*
X1509329Y418133D01*
X1509407Y418349D01*
X1509412Y418354D01*
X1509418Y418376D01*
X1509429Y418404D01*
X1509451Y418443D01*
X1509473Y418487D01*
X1509506Y418543D01*
X1509539Y418603D01*
X1509578Y418670D01*
X1509678Y418808D01*
X1509794Y418952D01*
X1509938Y419091D01*
X1510016Y419152D01*
X1510099Y419212D01*
X1510104Y419218D01*
X1510121Y419224D01*
X1510143Y419240D01*
X1510182Y419262D01*
X1510221Y419285D01*
X1510276Y419307D01*
X1510331Y419334D01*
X1510398Y419368D01*
X1510475Y419395D01*
X1510553Y419423D01*
X1510636Y419445D01*
X1510730Y419467D01*
X1510918Y419506D01*
X1511023Y419511D01*
X1511129Y419517D01*
X1511201D01*
X1511234Y419511D01*
X1511278Y419506D01*
X1511378Y419495D01*
X1511494Y419473D01*
X1511616Y419445D01*
X1511743Y419401D01*
X1511871Y419340D01*
X1511876D01*
X1511887Y419334D01*
X1511904Y419323D01*
X1511926Y419307D01*
X1511987Y419268D01*
X1512059Y419218D01*
X1512142Y419152D01*
X1512231Y419074D01*
X1512319Y418980D01*
X1512402Y418880D01*
Y421167D01*
X1513188D01*
Y414783D01*
D02*
G37*
G36*
X1508266Y419511D02*
X1508305D01*
X1508343Y419506D01*
X1508393Y419495D01*
X1508449Y419484D01*
X1508571Y419456D01*
X1508703Y419412D01*
X1508853Y419345D01*
X1508925Y419307D01*
X1509002Y419262D01*
X1508725Y418537D01*
X1508720D01*
X1508714Y418543D01*
X1508698Y418554D01*
X1508676Y418565D01*
X1508620Y418592D01*
X1508548Y418626D01*
X1508460Y418653D01*
X1508366Y418681D01*
X1508260Y418703D01*
X1508155Y418709D01*
X1508111D01*
X1508067Y418703D01*
X1508000Y418692D01*
X1507934Y418670D01*
X1507856Y418642D01*
X1507773Y418603D01*
X1507696Y418554D01*
X1507684Y418548D01*
X1507662Y418526D01*
X1507629Y418493D01*
X1507585Y418443D01*
X1507540Y418382D01*
X1507491Y418304D01*
X1507446Y418221D01*
X1507408Y418122D01*
Y418116D01*
X1507402Y418105D01*
X1507397Y418077D01*
X1507386Y418050D01*
X1507380Y418011D01*
X1507369Y417961D01*
X1507358Y417911D01*
X1507347Y417850D01*
X1507330Y417784D01*
X1507319Y417712D01*
X1507302Y417557D01*
X1507286Y417391D01*
X1507280Y417208D01*
Y414783D01*
X1506494D01*
Y419412D01*
X1507203D01*
Y418709D01*
X1507208Y418714D01*
X1507214Y418731D01*
X1507231Y418753D01*
X1507247Y418786D01*
X1507269Y418830D01*
X1507297Y418875D01*
X1507363Y418974D01*
X1507441Y419085D01*
X1507524Y419190D01*
X1507607Y419285D01*
X1507651Y419323D01*
X1507696Y419356D01*
X1507707Y419362D01*
X1507734Y419384D01*
X1507784Y419406D01*
X1507845Y419440D01*
X1507917Y419467D01*
X1508006Y419495D01*
X1508100Y419511D01*
X1508199Y419517D01*
X1508238D01*
X1508266Y419511D01*
D02*
G37*
G36*
X1494235Y416699D02*
X1491820D01*
Y417485D01*
X1494235D01*
Y416699D01*
D02*
G37*
G36*
X1503642Y419511D02*
X1503698D01*
X1503764Y419506D01*
X1503836Y419501D01*
X1503991Y419484D01*
X1504152Y419456D01*
X1504307Y419423D01*
X1504456Y419373D01*
X1504462D01*
X1504473Y419368D01*
X1504489Y419356D01*
X1504517Y419351D01*
X1504584Y419318D01*
X1504661Y419279D01*
X1504750Y419229D01*
X1504844Y419168D01*
X1504927Y419102D01*
X1504999Y419024D01*
X1505004Y419013D01*
X1505027Y418985D01*
X1505060Y418941D01*
X1505099Y418880D01*
X1505137Y418803D01*
X1505176Y418714D01*
X1505215Y418609D01*
X1505243Y418493D01*
Y418482D01*
X1505248Y418454D01*
X1505254Y418432D01*
X1505259Y418404D01*
Y418365D01*
X1505265Y418327D01*
X1505270Y418282D01*
X1505276Y418227D01*
Y418172D01*
X1505281Y418105D01*
Y418028D01*
X1505287Y417950D01*
Y417861D01*
Y417767D01*
Y416721D01*
Y416715D01*
Y416710D01*
Y416693D01*
Y416671D01*
Y416616D01*
Y416544D01*
Y416460D01*
X1505292Y416361D01*
Y416250D01*
Y416139D01*
X1505298Y415901D01*
X1505303Y415785D01*
X1505309Y415674D01*
X1505315Y415569D01*
X1505320Y415480D01*
X1505326Y415397D01*
X1505337Y415336D01*
Y415331D01*
Y415325D01*
X1505342Y415309D01*
X1505348Y415287D01*
X1505359Y415231D01*
X1505381Y415159D01*
X1505409Y415076D01*
X1505442Y414982D01*
X1505486Y414882D01*
X1505536Y414783D01*
X1504717D01*
Y414788D01*
X1504711Y414794D01*
X1504700Y414827D01*
X1504678Y414877D01*
X1504650Y414943D01*
X1504628Y415032D01*
X1504600Y415126D01*
X1504578Y415237D01*
X1504561Y415353D01*
X1504556Y415348D01*
X1504539Y415336D01*
X1504517Y415320D01*
X1504489Y415292D01*
X1504445Y415265D01*
X1504401Y415226D01*
X1504351Y415187D01*
X1504290Y415148D01*
X1504163Y415060D01*
X1504024Y414977D01*
X1503875Y414893D01*
X1503720Y414827D01*
X1503714D01*
X1503703Y414822D01*
X1503681Y414816D01*
X1503648Y414805D01*
X1503615Y414794D01*
X1503570Y414777D01*
X1503515Y414766D01*
X1503460Y414755D01*
X1503332Y414727D01*
X1503183Y414700D01*
X1503022Y414683D01*
X1502850Y414678D01*
X1502779D01*
X1502723Y414683D01*
X1502662Y414689D01*
X1502590Y414700D01*
X1502507Y414711D01*
X1502419Y414722D01*
X1502230Y414766D01*
X1502136Y414799D01*
X1502037Y414833D01*
X1501942Y414877D01*
X1501848Y414927D01*
X1501765Y414982D01*
X1501682Y415048D01*
X1501677Y415054D01*
X1501666Y415065D01*
X1501643Y415087D01*
X1501616Y415115D01*
X1501588Y415154D01*
X1501555Y415198D01*
X1501516Y415248D01*
X1501477Y415309D01*
X1501439Y415370D01*
X1501400Y415442D01*
X1501367Y415525D01*
X1501339Y415608D01*
X1501311Y415696D01*
X1501289Y415790D01*
X1501278Y415896D01*
X1501272Y416001D01*
Y416007D01*
Y416018D01*
Y416034D01*
Y416062D01*
X1501278Y416090D01*
Y416123D01*
X1501289Y416206D01*
X1501311Y416306D01*
X1501333Y416405D01*
X1501372Y416516D01*
X1501422Y416621D01*
Y416627D01*
X1501427Y416632D01*
X1501450Y416665D01*
X1501483Y416721D01*
X1501533Y416782D01*
X1501588Y416854D01*
X1501660Y416931D01*
X1501738Y417009D01*
X1501826Y417075D01*
X1501832D01*
X1501837Y417081D01*
X1501871Y417103D01*
X1501926Y417136D01*
X1501992Y417169D01*
X1502075Y417214D01*
X1502175Y417258D01*
X1502280Y417297D01*
X1502397Y417330D01*
X1502408Y417335D01*
X1502441Y417341D01*
X1502496Y417352D01*
X1502574Y417369D01*
X1502668Y417385D01*
X1502790Y417407D01*
X1502934Y417430D01*
X1503094Y417452D01*
X1503105D01*
X1503138Y417457D01*
X1503183Y417463D01*
X1503249Y417474D01*
X1503327Y417485D01*
X1503421Y417496D01*
X1503521Y417513D01*
X1503626Y417529D01*
X1503853Y417568D01*
X1504085Y417612D01*
X1504202Y417640D01*
X1504307Y417668D01*
X1504406Y417695D01*
X1504495Y417723D01*
Y417729D01*
Y417751D01*
Y417778D01*
X1504501Y417812D01*
Y417878D01*
Y417906D01*
Y417928D01*
Y417933D01*
Y417950D01*
Y417972D01*
X1504495Y418005D01*
Y418044D01*
X1504489Y418088D01*
X1504473Y418188D01*
X1504445Y418299D01*
X1504406Y418410D01*
X1504351Y418515D01*
X1504312Y418559D01*
X1504274Y418598D01*
X1504268Y418603D01*
X1504263Y418609D01*
X1504240Y418626D01*
X1504218Y418642D01*
X1504185Y418659D01*
X1504146Y418686D01*
X1504102Y418709D01*
X1504052Y418736D01*
X1503991Y418759D01*
X1503925Y418786D01*
X1503847Y418808D01*
X1503770Y418825D01*
X1503681Y418847D01*
X1503587Y418858D01*
X1503487Y418864D01*
X1503377Y418869D01*
X1503321D01*
X1503288Y418864D01*
X1503238D01*
X1503188Y418858D01*
X1503127Y418853D01*
X1503067Y418847D01*
X1502934Y418819D01*
X1502795Y418786D01*
X1502668Y418736D01*
X1502612Y418703D01*
X1502557Y418670D01*
X1502552D01*
X1502546Y418659D01*
X1502513Y418631D01*
X1502469Y418581D01*
X1502441Y418548D01*
X1502408Y418515D01*
X1502380Y418470D01*
X1502347Y418421D01*
X1502313Y418365D01*
X1502280Y418299D01*
X1502253Y418232D01*
X1502219Y418161D01*
X1502192Y418077D01*
X1502169Y417989D01*
X1501405Y418094D01*
Y418100D01*
X1501411Y418116D01*
X1501416Y418144D01*
X1501427Y418177D01*
X1501439Y418216D01*
X1501450Y418266D01*
X1501483Y418376D01*
X1501533Y418504D01*
X1501588Y418631D01*
X1501660Y418764D01*
X1501743Y418886D01*
X1501749Y418891D01*
X1501754Y418897D01*
X1501771Y418913D01*
X1501787Y418936D01*
X1501843Y418991D01*
X1501920Y419058D01*
X1502020Y419135D01*
X1502142Y419212D01*
X1502280Y419285D01*
X1502441Y419351D01*
X1502446D01*
X1502463Y419356D01*
X1502485Y419368D01*
X1502524Y419379D01*
X1502563Y419390D01*
X1502618Y419406D01*
X1502673Y419417D01*
X1502745Y419434D01*
X1502817Y419451D01*
X1502895Y419467D01*
X1502983Y419478D01*
X1503078Y419489D01*
X1503277Y419511D01*
X1503493Y419517D01*
X1503593D01*
X1503642Y419511D01*
D02*
G37*
G36*
X1488243Y421162D02*
X1488321D01*
X1488409Y421156D01*
X1488592Y421145D01*
X1488781Y421128D01*
X1488963Y421106D01*
X1489046Y421090D01*
X1489124Y421073D01*
X1489129D01*
X1489146Y421068D01*
X1489179Y421062D01*
X1489218Y421051D01*
X1489262Y421034D01*
X1489318Y421018D01*
X1489379Y420995D01*
X1489445Y420968D01*
X1489595Y420907D01*
X1489749Y420824D01*
X1489910Y420730D01*
X1490060Y420613D01*
X1490065Y420608D01*
X1490082Y420591D01*
X1490109Y420569D01*
X1490143Y420536D01*
X1490187Y420497D01*
X1490231Y420442D01*
X1490287Y420386D01*
X1490342Y420320D01*
X1490403Y420242D01*
X1490464Y420159D01*
X1490530Y420071D01*
X1490591Y419971D01*
X1490652Y419871D01*
X1490708Y419761D01*
X1490763Y419644D01*
X1490813Y419523D01*
X1490818Y419517D01*
X1490824Y419495D01*
X1490835Y419456D01*
X1490851Y419406D01*
X1490874Y419340D01*
X1490896Y419268D01*
X1490918Y419179D01*
X1490940Y419085D01*
X1490962Y418974D01*
X1490984Y418858D01*
X1491006Y418736D01*
X1491029Y418603D01*
X1491045Y418465D01*
X1491056Y418316D01*
X1491067Y418161D01*
Y418005D01*
Y418000D01*
Y417972D01*
Y417933D01*
Y417884D01*
X1491062Y417823D01*
X1491056Y417745D01*
X1491051Y417662D01*
X1491045Y417574D01*
X1491040Y417474D01*
X1491023Y417374D01*
X1490995Y417153D01*
X1490951Y416931D01*
X1490896Y416715D01*
Y416710D01*
X1490890Y416693D01*
X1490879Y416660D01*
X1490862Y416621D01*
X1490846Y416577D01*
X1490829Y416521D01*
X1490802Y416455D01*
X1490779Y416389D01*
X1490713Y416245D01*
X1490641Y416090D01*
X1490552Y415929D01*
X1490458Y415785D01*
X1490453Y415779D01*
X1490447Y415768D01*
X1490431Y415752D01*
X1490414Y415724D01*
X1490359Y415658D01*
X1490287Y415575D01*
X1490198Y415486D01*
X1490098Y415386D01*
X1489993Y415292D01*
X1489877Y415209D01*
X1489871D01*
X1489860Y415198D01*
X1489844Y415187D01*
X1489821Y415176D01*
X1489788Y415159D01*
X1489755Y415137D01*
X1489711Y415115D01*
X1489661Y415093D01*
X1489550Y415037D01*
X1489423Y414988D01*
X1489273Y414932D01*
X1489113Y414888D01*
X1489107D01*
X1489091Y414882D01*
X1489068Y414877D01*
X1489035Y414871D01*
X1488991Y414866D01*
X1488941Y414855D01*
X1488886Y414844D01*
X1488819Y414838D01*
X1488747Y414827D01*
X1488670Y414816D01*
X1488581Y414805D01*
X1488493Y414799D01*
X1488299Y414788D01*
X1488088Y414783D01*
X1485790D01*
Y421167D01*
X1488171D01*
X1488243Y421162D01*
D02*
G37*
G36*
X1191119Y416752D02*
X1193511Y413408D01*
X1192470D01*
X1190853Y415683D01*
X1190847Y415694D01*
X1190831Y415717D01*
X1190803Y415755D01*
X1190770Y415805D01*
X1190731Y415866D01*
X1190687Y415927D01*
X1190593Y416071D01*
Y416065D01*
X1190582Y416054D01*
X1190571Y416043D01*
X1190559Y416021D01*
X1190521Y415960D01*
X1190477Y415894D01*
X1190427Y415822D01*
X1190377Y415744D01*
X1190327Y415678D01*
X1190288Y415622D01*
X1188671Y413408D01*
X1187658D01*
X1190122Y416713D01*
X1187946Y419792D01*
X1188948D01*
X1190117Y418153D01*
X1190122Y418147D01*
X1190133Y418131D01*
X1190150Y418103D01*
X1190178Y418070D01*
X1190205Y418026D01*
X1190238Y417981D01*
X1190316Y417865D01*
X1190405Y417738D01*
X1190488Y417610D01*
X1190565Y417483D01*
X1190631Y417367D01*
Y417372D01*
X1190643Y417383D01*
X1190654Y417400D01*
X1190670Y417428D01*
X1190692Y417461D01*
X1190715Y417500D01*
X1190776Y417588D01*
X1190847Y417699D01*
X1190936Y417821D01*
X1191030Y417954D01*
X1191135Y418092D01*
X1192414Y419792D01*
X1193334D01*
X1191119Y416752D01*
D02*
G37*
G36*
X1196894Y413408D02*
X1196108D01*
Y418397D01*
X1196102Y418391D01*
X1196097Y418386D01*
X1196080Y418369D01*
X1196058Y418352D01*
X1196025Y418325D01*
X1195992Y418297D01*
X1195953Y418264D01*
X1195909Y418225D01*
X1195798Y418147D01*
X1195670Y418053D01*
X1195526Y417954D01*
X1195360Y417854D01*
X1195355Y417848D01*
X1195338Y417843D01*
X1195316Y417826D01*
X1195283Y417810D01*
X1195244Y417788D01*
X1195200Y417765D01*
X1195144Y417732D01*
X1195089Y417704D01*
X1194962Y417638D01*
X1194823Y417571D01*
X1194679Y417505D01*
X1194541Y417450D01*
Y418208D01*
X1194546Y418214D01*
X1194568Y418225D01*
X1194607Y418242D01*
X1194651Y418264D01*
X1194707Y418291D01*
X1194773Y418330D01*
X1194845Y418369D01*
X1194928Y418419D01*
X1195017Y418469D01*
X1195106Y418530D01*
X1195299Y418657D01*
X1195499Y418801D01*
X1195687Y418956D01*
X1195693Y418961D01*
X1195709Y418978D01*
X1195731Y419000D01*
X1195770Y419033D01*
X1195809Y419072D01*
X1195853Y419116D01*
X1195903Y419172D01*
X1195958Y419227D01*
X1196075Y419360D01*
X1196191Y419504D01*
X1196296Y419659D01*
X1196346Y419737D01*
X1196385Y419814D01*
X1196894D01*
Y413408D01*
D02*
G37*
G36*
X1186988Y419039D02*
X1183217D01*
Y417090D01*
X1186750D01*
Y416337D01*
X1183217D01*
Y414161D01*
X1187138D01*
Y413408D01*
X1182370D01*
Y419792D01*
X1186988D01*
Y419039D01*
D02*
G37*
G36*
X814423Y529762D02*
X814484D01*
X814561Y529751D01*
X814644Y529740D01*
X814744Y529724D01*
X814849Y529707D01*
X814966Y529679D01*
X815087Y529646D01*
X815209Y529602D01*
X815337Y529552D01*
X815464Y529496D01*
X815591Y529425D01*
X815719Y529347D01*
X815840Y529258D01*
X815852Y529253D01*
X815874Y529231D01*
X815912Y529198D01*
X815962Y529148D01*
X816018Y529087D01*
X816084Y529009D01*
X816156Y528921D01*
X816223Y528821D01*
X816294Y528710D01*
X816366Y528583D01*
X816433Y528444D01*
X816488Y528295D01*
X816538Y528134D01*
X816577Y527963D01*
X816599Y527780D01*
X816610Y527586D01*
Y527547D01*
X816605Y527503D01*
Y527442D01*
X816593Y527370D01*
X816582Y527282D01*
X816571Y527188D01*
X816549Y527082D01*
X816522Y526972D01*
X816488Y526855D01*
X816450Y526739D01*
X816405Y526617D01*
X816350Y526501D01*
X816283Y526385D01*
X816206Y526268D01*
X816123Y526163D01*
X816117Y526158D01*
X816101Y526141D01*
X816073Y526113D01*
X816034Y526074D01*
X815984Y526036D01*
X815923Y525986D01*
X815857Y525936D01*
X815779Y525881D01*
X815691Y525825D01*
X815591Y525770D01*
X815486Y525715D01*
X815370Y525670D01*
X815248Y525626D01*
X815115Y525587D01*
X814977Y525560D01*
X814827Y525537D01*
X814755Y526362D01*
X814761D01*
X814783Y526368D01*
X814810Y526373D01*
X814855Y526379D01*
X814905Y526396D01*
X814966Y526407D01*
X815026Y526429D01*
X815098Y526451D01*
X815248Y526506D01*
X815397Y526578D01*
X815541Y526673D01*
X815608Y526722D01*
X815669Y526783D01*
X815674Y526789D01*
X815680Y526800D01*
X815696Y526816D01*
X815713Y526844D01*
X815735Y526877D01*
X815763Y526911D01*
X815791Y526960D01*
X815818Y527010D01*
X815874Y527127D01*
X815923Y527265D01*
X815957Y527415D01*
X815962Y527498D01*
X815968Y527586D01*
Y527614D01*
X815962Y527641D01*
Y527680D01*
X815957Y527730D01*
X815946Y527785D01*
X815935Y527852D01*
X815912Y527918D01*
X815890Y527996D01*
X815863Y528073D01*
X815829Y528151D01*
X815785Y528228D01*
X815741Y528312D01*
X815680Y528395D01*
X815619Y528472D01*
X815541Y528544D01*
X815536Y528550D01*
X815519Y528561D01*
X815497Y528583D01*
X815464Y528605D01*
X815420Y528633D01*
X815370Y528666D01*
X815309Y528705D01*
X815242Y528743D01*
X815165Y528777D01*
X815076Y528815D01*
X814988Y528849D01*
X814883Y528876D01*
X814777Y528899D01*
X814661Y528921D01*
X814539Y528932D01*
X814412Y528937D01*
X814406D01*
X814384D01*
X814345D01*
X814301Y528932D01*
X814246Y528926D01*
X814179Y528915D01*
X814107Y528904D01*
X814030Y528893D01*
X813858Y528843D01*
X813770Y528815D01*
X813681Y528777D01*
X813598Y528738D01*
X813509Y528683D01*
X813432Y528627D01*
X813354Y528561D01*
X813349Y528555D01*
X813338Y528544D01*
X813315Y528522D01*
X813293Y528494D01*
X813266Y528456D01*
X813232Y528411D01*
X813194Y528356D01*
X813155Y528295D01*
X813122Y528228D01*
X813083Y528151D01*
X813050Y528073D01*
X813022Y527985D01*
X813000Y527891D01*
X812978Y527791D01*
X812967Y527680D01*
X812961Y527570D01*
Y527509D01*
X812967Y527475D01*
X812972Y527437D01*
X812983Y527342D01*
X813005Y527237D01*
X813033Y527121D01*
X813077Y527005D01*
X813133Y526889D01*
Y526883D01*
X813138Y526877D01*
X813149Y526861D01*
X813166Y526839D01*
X813199Y526783D01*
X813254Y526717D01*
X813315Y526639D01*
X813393Y526562D01*
X813476Y526484D01*
X813576Y526412D01*
X813482Y525676D01*
X810203Y526296D01*
Y529469D01*
X810951D01*
Y526916D01*
X812673Y526573D01*
X812668Y526578D01*
X812656Y526600D01*
X812634Y526628D01*
X812612Y526673D01*
X812579Y526728D01*
X812546Y526789D01*
X812507Y526861D01*
X812468Y526938D01*
X812435Y527027D01*
X812396Y527121D01*
X812363Y527221D01*
X812330Y527326D01*
X812308Y527437D01*
X812286Y527547D01*
X812274Y527664D01*
X812269Y527780D01*
Y527819D01*
X812274Y527863D01*
X812280Y527918D01*
X812286Y527990D01*
X812302Y528073D01*
X812319Y528168D01*
X812341Y528273D01*
X812374Y528378D01*
X812413Y528494D01*
X812457Y528611D01*
X812513Y528727D01*
X812579Y528849D01*
X812656Y528965D01*
X812745Y529081D01*
X812850Y529192D01*
X812856Y529198D01*
X812878Y529220D01*
X812911Y529247D01*
X812955Y529281D01*
X813011Y529325D01*
X813083Y529375D01*
X813160Y529425D01*
X813254Y529480D01*
X813354Y529535D01*
X813471Y529585D01*
X813592Y529635D01*
X813725Y529679D01*
X813864Y529712D01*
X814013Y529746D01*
X814174Y529762D01*
X814340Y529768D01*
X814351D01*
X814379D01*
X814423Y529762D01*
D02*
G37*
G36*
X813969Y524441D02*
X814046D01*
X814140Y524436D01*
X814246Y524430D01*
X814362Y524419D01*
X814478Y524408D01*
X814606Y524391D01*
X814860Y524352D01*
X815109Y524297D01*
X815226Y524264D01*
X815337Y524225D01*
X815342D01*
X815359Y524214D01*
X815392Y524203D01*
X815431Y524181D01*
X815480Y524159D01*
X815536Y524125D01*
X815597Y524092D01*
X815663Y524048D01*
X815735Y523998D01*
X815807Y523937D01*
X815885Y523876D01*
X815962Y523804D01*
X816040Y523721D01*
X816112Y523638D01*
X816189Y523544D01*
X816256Y523439D01*
X816261Y523433D01*
X816272Y523411D01*
X816289Y523383D01*
X816311Y523334D01*
X816339Y523278D01*
X816366Y523212D01*
X816400Y523134D01*
X816433Y523040D01*
X816466Y522940D01*
X816499Y522830D01*
X816527Y522702D01*
X816555Y522575D01*
X816577Y522431D01*
X816593Y522281D01*
X816605Y522121D01*
X816610Y521949D01*
Y521861D01*
X816605Y521800D01*
X816599Y521722D01*
X816593Y521634D01*
X816582Y521539D01*
X816571Y521429D01*
X816555Y521318D01*
X816538Y521196D01*
X816483Y520953D01*
X816444Y520831D01*
X816405Y520709D01*
X816361Y520593D01*
X816305Y520482D01*
X816300Y520476D01*
X816289Y520460D01*
X816272Y520427D01*
X816250Y520388D01*
X816217Y520344D01*
X816178Y520288D01*
X816128Y520233D01*
X816078Y520172D01*
X816018Y520105D01*
X815951Y520039D01*
X815879Y519967D01*
X815796Y519901D01*
X815707Y519840D01*
X815613Y519779D01*
X815514Y519723D01*
X815408Y519674D01*
X815403D01*
X815381Y519662D01*
X815348Y519651D01*
X815303Y519635D01*
X815242Y519618D01*
X815170Y519596D01*
X815087Y519574D01*
X814988Y519552D01*
X814883Y519529D01*
X814761Y519507D01*
X814628Y519485D01*
X814484Y519469D01*
X814334Y519452D01*
X814168Y519441D01*
X813991Y519435D01*
X813808Y519430D01*
X810120D01*
Y520277D01*
X813803D01*
X813814D01*
X813841D01*
X813880D01*
X813941D01*
X814008Y520283D01*
X814085D01*
X814174Y520288D01*
X814268Y520294D01*
X814467Y520316D01*
X814667Y520338D01*
X814766Y520360D01*
X814860Y520377D01*
X814949Y520399D01*
X815026Y520427D01*
X815032D01*
X815043Y520432D01*
X815065Y520443D01*
X815093Y520454D01*
X815126Y520476D01*
X815159Y520493D01*
X815248Y520554D01*
X815348Y520626D01*
X815447Y520714D01*
X815547Y520825D01*
X815636Y520958D01*
Y520964D01*
X815647Y520975D01*
X815652Y520997D01*
X815669Y521025D01*
X815685Y521063D01*
X815702Y521108D01*
X815719Y521157D01*
X815741Y521213D01*
X815763Y521279D01*
X815779Y521346D01*
X815796Y521423D01*
X815813Y521506D01*
X815835Y521684D01*
X815846Y521877D01*
Y521916D01*
X815840Y521966D01*
Y522027D01*
X815835Y522104D01*
X815824Y522193D01*
X815813Y522287D01*
X815791Y522392D01*
X815768Y522497D01*
X815741Y522608D01*
X815707Y522719D01*
X815669Y522830D01*
X815619Y522935D01*
X815564Y523029D01*
X815497Y523123D01*
X815425Y523201D01*
X815420Y523206D01*
X815403Y523217D01*
X815381Y523240D01*
X815342Y523262D01*
X815292Y523295D01*
X815226Y523328D01*
X815154Y523361D01*
X815065Y523400D01*
X814960Y523439D01*
X814844Y523472D01*
X814711Y523505D01*
X814561Y523539D01*
X814401Y523561D01*
X814218Y523583D01*
X814019Y523594D01*
X813803Y523599D01*
X810120D01*
Y524447D01*
X813808D01*
X813819D01*
X813853D01*
X813902D01*
X813969Y524441D01*
D02*
G37*
G36*
X1523859Y978706D02*
X1526251Y975362D01*
X1525210D01*
X1523593Y977637D01*
X1523587Y977648D01*
X1523571Y977671D01*
X1523543Y977709D01*
X1523510Y977759D01*
X1523471Y977820D01*
X1523427Y977881D01*
X1523333Y978025D01*
Y978019D01*
X1523322Y978008D01*
X1523311Y977997D01*
X1523300Y977975D01*
X1523261Y977914D01*
X1523217Y977848D01*
X1523167Y977776D01*
X1523117Y977698D01*
X1523067Y977632D01*
X1523028Y977577D01*
X1521411Y975362D01*
X1520398D01*
X1522862Y978667D01*
X1520686Y981746D01*
X1521688D01*
X1522856Y980107D01*
X1522862Y980101D01*
X1522873Y980085D01*
X1522890Y980057D01*
X1522917Y980024D01*
X1522945Y979980D01*
X1522978Y979935D01*
X1523056Y979819D01*
X1523145Y979692D01*
X1523228Y979564D01*
X1523305Y979437D01*
X1523371Y979321D01*
Y979326D01*
X1523383Y979337D01*
X1523394Y979354D01*
X1523410Y979382D01*
X1523432Y979415D01*
X1523455Y979454D01*
X1523515Y979542D01*
X1523587Y979653D01*
X1523676Y979775D01*
X1523770Y979908D01*
X1523875Y980046D01*
X1525155Y981746D01*
X1526074D01*
X1523859Y978706D01*
D02*
G37*
G36*
X1528887Y981763D02*
X1528947D01*
X1529025Y981751D01*
X1529119Y981740D01*
X1529219Y981724D01*
X1529324Y981707D01*
X1529440Y981680D01*
X1529557Y981646D01*
X1529678Y981602D01*
X1529800Y981552D01*
X1529922Y981497D01*
X1530038Y981425D01*
X1530149Y981347D01*
X1530254Y981259D01*
X1530260Y981253D01*
X1530276Y981237D01*
X1530304Y981209D01*
X1530337Y981170D01*
X1530382Y981120D01*
X1530426Y981059D01*
X1530470Y980987D01*
X1530526Y980910D01*
X1530575Y980821D01*
X1530620Y980727D01*
X1530670Y980622D01*
X1530708Y980511D01*
X1530741Y980395D01*
X1530769Y980268D01*
X1530786Y980135D01*
X1530791Y979996D01*
Y979991D01*
Y979980D01*
Y979958D01*
Y979930D01*
X1530786Y979897D01*
Y979852D01*
X1530769Y979758D01*
X1530753Y979642D01*
X1530725Y979514D01*
X1530686Y979376D01*
X1530631Y979238D01*
Y979232D01*
X1530625Y979221D01*
X1530614Y979199D01*
X1530603Y979177D01*
X1530587Y979138D01*
X1530564Y979099D01*
X1530537Y979055D01*
X1530509Y979005D01*
X1530437Y978889D01*
X1530348Y978756D01*
X1530238Y978612D01*
X1530110Y978462D01*
X1530105Y978457D01*
X1530094Y978446D01*
X1530072Y978418D01*
X1530044Y978385D01*
X1530000Y978346D01*
X1529950Y978296D01*
X1529894Y978235D01*
X1529828Y978169D01*
X1529745Y978091D01*
X1529656Y978008D01*
X1529562Y977914D01*
X1529451Y977815D01*
X1529335Y977709D01*
X1529202Y977593D01*
X1529064Y977471D01*
X1528909Y977338D01*
X1528903Y977333D01*
X1528875Y977311D01*
X1528842Y977283D01*
X1528792Y977244D01*
X1528737Y977194D01*
X1528676Y977139D01*
X1528604Y977078D01*
X1528532Y977017D01*
X1528377Y976884D01*
X1528228Y976751D01*
X1528161Y976691D01*
X1528095Y976630D01*
X1528045Y976580D01*
X1528001Y976535D01*
X1527990Y976524D01*
X1527967Y976502D01*
X1527929Y976458D01*
X1527884Y976403D01*
X1527834Y976342D01*
X1527779Y976270D01*
X1527724Y976192D01*
X1527674Y976115D01*
X1530802D01*
Y975362D01*
X1526583D01*
Y975367D01*
Y975373D01*
Y975389D01*
Y975411D01*
Y975467D01*
X1526589Y975533D01*
X1526600Y975616D01*
X1526616Y975710D01*
X1526638Y975805D01*
X1526672Y975904D01*
Y975910D01*
X1526677Y975926D01*
X1526688Y975948D01*
X1526705Y975976D01*
X1526721Y976015D01*
X1526744Y976065D01*
X1526766Y976115D01*
X1526799Y976170D01*
X1526866Y976303D01*
X1526960Y976441D01*
X1527065Y976596D01*
X1527187Y976751D01*
X1527192Y976757D01*
X1527203Y976768D01*
X1527225Y976796D01*
X1527253Y976823D01*
X1527292Y976862D01*
X1527336Y976912D01*
X1527386Y976967D01*
X1527447Y977028D01*
X1527519Y977095D01*
X1527591Y977167D01*
X1527679Y977250D01*
X1527768Y977333D01*
X1527868Y977421D01*
X1527973Y977516D01*
X1528089Y977615D01*
X1528211Y977715D01*
X1528217D01*
X1528222Y977726D01*
X1528255Y977754D01*
X1528311Y977798D01*
X1528377Y977859D01*
X1528466Y977931D01*
X1528560Y978014D01*
X1528665Y978108D01*
X1528776Y978208D01*
X1528892Y978313D01*
X1529014Y978424D01*
X1529130Y978534D01*
X1529247Y978651D01*
X1529352Y978761D01*
X1529451Y978872D01*
X1529540Y978972D01*
X1529617Y979072D01*
X1529623Y979077D01*
X1529634Y979094D01*
X1529651Y979121D01*
X1529673Y979155D01*
X1529700Y979199D01*
X1529734Y979254D01*
X1529767Y979310D01*
X1529800Y979376D01*
X1529867Y979520D01*
X1529928Y979681D01*
X1529950Y979764D01*
X1529966Y979847D01*
X1529977Y979930D01*
X1529983Y980013D01*
Y980018D01*
Y980035D01*
Y980057D01*
X1529977Y980090D01*
X1529972Y980129D01*
X1529966Y980179D01*
X1529955Y980229D01*
X1529944Y980284D01*
X1529900Y980412D01*
X1529878Y980472D01*
X1529845Y980539D01*
X1529806Y980605D01*
X1529761Y980672D01*
X1529712Y980738D01*
X1529651Y980799D01*
X1529645Y980805D01*
X1529634Y980816D01*
X1529617Y980827D01*
X1529590Y980849D01*
X1529557Y980871D01*
X1529518Y980899D01*
X1529474Y980932D01*
X1529418Y980960D01*
X1529357Y980987D01*
X1529291Y981021D01*
X1529219Y981048D01*
X1529141Y981070D01*
X1529064Y981093D01*
X1528975Y981109D01*
X1528881Y981115D01*
X1528781Y981120D01*
X1528726D01*
X1528687Y981115D01*
X1528643Y981109D01*
X1528587Y981104D01*
X1528521Y981093D01*
X1528455Y981076D01*
X1528311Y981037D01*
X1528239Y981010D01*
X1528161Y980976D01*
X1528089Y980938D01*
X1528017Y980888D01*
X1527945Y980838D01*
X1527879Y980777D01*
X1527873Y980771D01*
X1527862Y980760D01*
X1527846Y980744D01*
X1527829Y980716D01*
X1527801Y980677D01*
X1527774Y980639D01*
X1527740Y980589D01*
X1527713Y980533D01*
X1527679Y980467D01*
X1527646Y980395D01*
X1527619Y980317D01*
X1527596Y980234D01*
X1527574Y980146D01*
X1527558Y980046D01*
X1527547Y979946D01*
X1527541Y979836D01*
X1526733Y979919D01*
Y979930D01*
X1526738Y979958D01*
X1526744Y980007D01*
X1526755Y980068D01*
X1526766Y980140D01*
X1526788Y980229D01*
X1526810Y980323D01*
X1526838Y980428D01*
X1526877Y980539D01*
X1526915Y980650D01*
X1526965Y980766D01*
X1527026Y980877D01*
X1527092Y980993D01*
X1527164Y981098D01*
X1527253Y981198D01*
X1527347Y981292D01*
X1527353Y981298D01*
X1527375Y981314D01*
X1527403Y981336D01*
X1527447Y981364D01*
X1527502Y981403D01*
X1527569Y981441D01*
X1527646Y981486D01*
X1527735Y981530D01*
X1527829Y981574D01*
X1527940Y981619D01*
X1528062Y981657D01*
X1528189Y981696D01*
X1528327Y981724D01*
X1528477Y981746D01*
X1528632Y981763D01*
X1528798Y981768D01*
X1528837D01*
X1528887Y981763D01*
D02*
G37*
G36*
X1519728Y980993D02*
X1515957D01*
Y979044D01*
X1519490D01*
Y978291D01*
X1515957D01*
Y976115D01*
X1519877D01*
Y975362D01*
X1515110D01*
Y981746D01*
X1519728D01*
Y980993D01*
D02*
G37*
G36*
X1366584Y677333D02*
X1363959D01*
Y674027D01*
X1366584D01*
Y673180D01*
X1360199D01*
Y674027D01*
X1363206D01*
Y677333D01*
X1360199D01*
Y678180D01*
X1366584D01*
Y677333D01*
D02*
G37*
G36*
Y668789D02*
X1366578Y668717D01*
X1366573Y668634D01*
X1366567Y668545D01*
X1366562Y668446D01*
X1366540Y668235D01*
X1366512Y668019D01*
X1366490Y667914D01*
X1366468Y667814D01*
X1366440Y667720D01*
X1366407Y667632D01*
Y667626D01*
X1366401Y667610D01*
X1366390Y667587D01*
X1366373Y667560D01*
X1366351Y667521D01*
X1366329Y667477D01*
X1366268Y667377D01*
X1366185Y667266D01*
X1366135Y667205D01*
X1366080Y667144D01*
X1366019Y667089D01*
X1365947Y667028D01*
X1365875Y666973D01*
X1365798Y666923D01*
X1365792Y666917D01*
X1365775Y666912D01*
X1365753Y666901D01*
X1365720Y666879D01*
X1365681Y666862D01*
X1365632Y666840D01*
X1365576Y666812D01*
X1365515Y666790D01*
X1365449Y666762D01*
X1365377Y666740D01*
X1365211Y666696D01*
X1365034Y666668D01*
X1364939Y666663D01*
X1364840Y666657D01*
X1364834D01*
X1364812D01*
X1364773D01*
X1364729Y666663D01*
X1364668Y666668D01*
X1364602Y666679D01*
X1364524Y666696D01*
X1364441Y666712D01*
X1364358Y666735D01*
X1364264Y666762D01*
X1364170Y666801D01*
X1364070Y666845D01*
X1363976Y666895D01*
X1363876Y666956D01*
X1363782Y667023D01*
X1363694Y667100D01*
X1363688Y667106D01*
X1363671Y667122D01*
X1363649Y667144D01*
X1363622Y667183D01*
X1363583Y667227D01*
X1363538Y667288D01*
X1363494Y667355D01*
X1363444Y667432D01*
X1363394Y667521D01*
X1363345Y667621D01*
X1363295Y667737D01*
X1363250Y667859D01*
X1363206Y667992D01*
X1363167Y668136D01*
X1363134Y668291D01*
X1363107Y668457D01*
Y668451D01*
X1363101Y668440D01*
X1363090Y668423D01*
X1363079Y668401D01*
X1363046Y668341D01*
X1363007Y668269D01*
X1362957Y668185D01*
X1362902Y668097D01*
X1362846Y668019D01*
X1362785Y667947D01*
X1362780Y667942D01*
X1362769Y667931D01*
X1362752Y667909D01*
X1362724Y667886D01*
X1362691Y667853D01*
X1362652Y667814D01*
X1362608Y667770D01*
X1362553Y667720D01*
X1362492Y667671D01*
X1362431Y667615D01*
X1362287Y667499D01*
X1362121Y667372D01*
X1361938Y667250D01*
X1360199Y666142D01*
Y667200D01*
X1361528Y668042D01*
X1361534Y668047D01*
X1361556Y668058D01*
X1361584Y668075D01*
X1361622Y668102D01*
X1361672Y668136D01*
X1361728Y668169D01*
X1361789Y668213D01*
X1361850Y668257D01*
X1361994Y668352D01*
X1362137Y668457D01*
X1362276Y668556D01*
X1362342Y668606D01*
X1362403Y668651D01*
X1362409D01*
X1362414Y668662D01*
X1362431Y668673D01*
X1362453Y668689D01*
X1362509Y668734D01*
X1362575Y668794D01*
X1362641Y668861D01*
X1362713Y668933D01*
X1362780Y669010D01*
X1362830Y669082D01*
X1362835Y669088D01*
X1362852Y669116D01*
X1362868Y669154D01*
X1362896Y669199D01*
X1362924Y669260D01*
X1362952Y669321D01*
X1362979Y669392D01*
X1363001Y669464D01*
Y669470D01*
X1363007Y669492D01*
X1363012Y669525D01*
X1363018Y669575D01*
X1363024Y669642D01*
X1363029Y669725D01*
X1363035Y669819D01*
Y670910D01*
X1360199D01*
Y671757D01*
X1366584D01*
Y668789D01*
D02*
G37*
G36*
Y660743D02*
X1365831D01*
Y662859D01*
X1360199D01*
Y663706D01*
X1365831D01*
Y665810D01*
X1366584D01*
Y660743D01*
D02*
G37*
G36*
X1339151Y924444D02*
Y924422D01*
X1339146Y924377D01*
Y924322D01*
X1339140Y924250D01*
X1339135Y924161D01*
X1339124Y924062D01*
X1339113Y923945D01*
X1339096Y923818D01*
X1339074Y923680D01*
X1339052Y923530D01*
X1339024Y923370D01*
X1338991Y923204D01*
X1338952Y923021D01*
X1338908Y922832D01*
X1338858Y922639D01*
Y922633D01*
X1338852Y922628D01*
Y922611D01*
X1338847Y922589D01*
X1338830Y922533D01*
X1338802Y922456D01*
X1338775Y922362D01*
X1338741Y922245D01*
X1338697Y922118D01*
X1338647Y921980D01*
X1338598Y921830D01*
X1338537Y921664D01*
X1338470Y921498D01*
X1338393Y921321D01*
X1338315Y921138D01*
X1338232Y920950D01*
X1338138Y920767D01*
X1338044Y920579D01*
Y920573D01*
X1338038Y920568D01*
X1338022Y920535D01*
X1337988Y920485D01*
X1337950Y920413D01*
X1337900Y920330D01*
X1337844Y920230D01*
X1337778Y920119D01*
X1337701Y919997D01*
X1337623Y919870D01*
X1337534Y919737D01*
X1337440Y919599D01*
X1337341Y919455D01*
X1337136Y919172D01*
X1337025Y919040D01*
X1336914Y918907D01*
X1340043D01*
Y918154D01*
X1335906D01*
Y918768D01*
X1335912Y918774D01*
X1335934Y918796D01*
X1335967Y918835D01*
X1336012Y918884D01*
X1336067Y918951D01*
X1336133Y919028D01*
X1336205Y919122D01*
X1336288Y919228D01*
X1336377Y919344D01*
X1336471Y919471D01*
X1336571Y919615D01*
X1336676Y919770D01*
X1336787Y919931D01*
X1336898Y920108D01*
X1337008Y920296D01*
X1337119Y920490D01*
Y920496D01*
X1337125Y920501D01*
X1337136Y920518D01*
X1337147Y920540D01*
X1337158Y920562D01*
X1337174Y920595D01*
X1337219Y920673D01*
X1337269Y920773D01*
X1337324Y920889D01*
X1337390Y921022D01*
X1337457Y921171D01*
X1337534Y921332D01*
X1337606Y921504D01*
X1337684Y921686D01*
X1337761Y921880D01*
X1337839Y922079D01*
X1337911Y922284D01*
X1337977Y922495D01*
X1338044Y922705D01*
Y922716D01*
X1338055Y922738D01*
X1338066Y922783D01*
X1338082Y922843D01*
X1338099Y922921D01*
X1338121Y923010D01*
X1338143Y923109D01*
X1338171Y923220D01*
X1338193Y923347D01*
X1338221Y923480D01*
X1338249Y923624D01*
X1338271Y923779D01*
X1338293Y923940D01*
X1338310Y924106D01*
X1338343Y924455D01*
X1339151D01*
Y924444D01*
D02*
G37*
G36*
X1343830Y924555D02*
X1343908Y924549D01*
X1343996Y924544D01*
X1344090Y924532D01*
X1344201Y924521D01*
X1344312Y924505D01*
X1344434Y924488D01*
X1344677Y924433D01*
X1344799Y924394D01*
X1344921Y924355D01*
X1345037Y924311D01*
X1345148Y924256D01*
X1345154Y924250D01*
X1345170Y924239D01*
X1345203Y924222D01*
X1345242Y924200D01*
X1345286Y924167D01*
X1345342Y924128D01*
X1345397Y924078D01*
X1345458Y924028D01*
X1345524Y923968D01*
X1345591Y923901D01*
X1345663Y923829D01*
X1345729Y923746D01*
X1345790Y923658D01*
X1345851Y923563D01*
X1345907Y923464D01*
X1345956Y923359D01*
Y923353D01*
X1345968Y923331D01*
X1345979Y923298D01*
X1345995Y923253D01*
X1346012Y923192D01*
X1346034Y923120D01*
X1346056Y923037D01*
X1346078Y922938D01*
X1346100Y922832D01*
X1346123Y922711D01*
X1346145Y922578D01*
X1346161Y922434D01*
X1346178Y922284D01*
X1346189Y922118D01*
X1346194Y921941D01*
X1346200Y921758D01*
Y918071D01*
X1345353D01*
Y921753D01*
Y921764D01*
Y921792D01*
Y921830D01*
Y921891D01*
X1345347Y921958D01*
Y922035D01*
X1345342Y922124D01*
X1345336Y922218D01*
X1345314Y922417D01*
X1345292Y922617D01*
X1345270Y922716D01*
X1345253Y922810D01*
X1345231Y922899D01*
X1345203Y922976D01*
Y922982D01*
X1345198Y922993D01*
X1345187Y923015D01*
X1345176Y923043D01*
X1345154Y923076D01*
X1345137Y923109D01*
X1345076Y923198D01*
X1345004Y923298D01*
X1344915Y923397D01*
X1344805Y923497D01*
X1344672Y923586D01*
X1344666D01*
X1344655Y923597D01*
X1344633Y923602D01*
X1344605Y923619D01*
X1344567Y923635D01*
X1344522Y923652D01*
X1344473Y923669D01*
X1344417Y923691D01*
X1344351Y923713D01*
X1344284Y923729D01*
X1344207Y923746D01*
X1344124Y923763D01*
X1343946Y923785D01*
X1343753Y923796D01*
X1343714D01*
X1343664Y923790D01*
X1343603D01*
X1343526Y923785D01*
X1343437Y923774D01*
X1343343Y923763D01*
X1343238Y923741D01*
X1343132Y923718D01*
X1343022Y923691D01*
X1342911Y923658D01*
X1342800Y923619D01*
X1342695Y923569D01*
X1342601Y923513D01*
X1342507Y923447D01*
X1342429Y923375D01*
X1342424Y923370D01*
X1342413Y923353D01*
X1342390Y923331D01*
X1342368Y923292D01*
X1342335Y923242D01*
X1342302Y923176D01*
X1342269Y923104D01*
X1342230Y923015D01*
X1342191Y922910D01*
X1342158Y922794D01*
X1342125Y922661D01*
X1342092Y922511D01*
X1342069Y922351D01*
X1342047Y922168D01*
X1342036Y921969D01*
X1342031Y921753D01*
Y918071D01*
X1341183D01*
Y921758D01*
Y921769D01*
Y921803D01*
Y921852D01*
X1341189Y921919D01*
Y921996D01*
X1341194Y922091D01*
X1341200Y922196D01*
X1341211Y922312D01*
X1341222Y922428D01*
X1341239Y922556D01*
X1341277Y922810D01*
X1341333Y923059D01*
X1341366Y923176D01*
X1341405Y923287D01*
Y923292D01*
X1341416Y923309D01*
X1341427Y923342D01*
X1341449Y923381D01*
X1341471Y923430D01*
X1341505Y923486D01*
X1341538Y923547D01*
X1341582Y923613D01*
X1341632Y923685D01*
X1341693Y923757D01*
X1341754Y923835D01*
X1341826Y923912D01*
X1341909Y923990D01*
X1341992Y924062D01*
X1342086Y924139D01*
X1342191Y924206D01*
X1342197Y924211D01*
X1342219Y924222D01*
X1342247Y924239D01*
X1342296Y924261D01*
X1342352Y924289D01*
X1342418Y924316D01*
X1342496Y924350D01*
X1342590Y924383D01*
X1342690Y924416D01*
X1342800Y924449D01*
X1342928Y924477D01*
X1343055Y924505D01*
X1343199Y924527D01*
X1343348Y924544D01*
X1343509Y924555D01*
X1343681Y924560D01*
X1343769D01*
X1343830Y924555D01*
D02*
G37*
G36*
X1132854Y523465D02*
X1132909D01*
X1132981Y523454D01*
X1133064Y523443D01*
X1133158Y523426D01*
X1133258Y523410D01*
X1133369Y523382D01*
X1133480Y523349D01*
X1133596Y523310D01*
X1133712Y523260D01*
X1133834Y523205D01*
X1133945Y523138D01*
X1134061Y523061D01*
X1134166Y522972D01*
X1134172Y522966D01*
X1134188Y522950D01*
X1134216Y522922D01*
X1134255Y522878D01*
X1134299Y522828D01*
X1134343Y522773D01*
X1134399Y522701D01*
X1134454Y522618D01*
X1134510Y522529D01*
X1134565Y522435D01*
X1134615Y522324D01*
X1134665Y522208D01*
X1134709Y522086D01*
X1134748Y521953D01*
X1134775Y521815D01*
X1134797Y521671D01*
X1134011Y521566D01*
Y521571D01*
X1134006Y521593D01*
X1133995Y521627D01*
X1133984Y521676D01*
X1133972Y521732D01*
X1133950Y521793D01*
X1133928Y521865D01*
X1133906Y521937D01*
X1133839Y522097D01*
X1133762Y522252D01*
X1133718Y522330D01*
X1133668Y522402D01*
X1133613Y522468D01*
X1133557Y522529D01*
X1133552Y522535D01*
X1133540Y522540D01*
X1133524Y522557D01*
X1133496Y522573D01*
X1133468Y522595D01*
X1133430Y522623D01*
X1133385Y522651D01*
X1133336Y522673D01*
X1133219Y522728D01*
X1133086Y522778D01*
X1132931Y522812D01*
X1132848Y522817D01*
X1132765Y522822D01*
X1132710D01*
X1132671Y522817D01*
X1132627Y522812D01*
X1132571Y522800D01*
X1132511Y522789D01*
X1132439Y522773D01*
X1132367Y522756D01*
X1132295Y522728D01*
X1132217Y522701D01*
X1132134Y522662D01*
X1132057Y522618D01*
X1131979Y522568D01*
X1131901Y522507D01*
X1131830Y522440D01*
X1131824Y522435D01*
X1131813Y522424D01*
X1131796Y522402D01*
X1131769Y522374D01*
X1131741Y522335D01*
X1131708Y522291D01*
X1131674Y522236D01*
X1131636Y522180D01*
X1131602Y522114D01*
X1131569Y522042D01*
X1131536Y521964D01*
X1131508Y521881D01*
X1131481Y521793D01*
X1131464Y521698D01*
X1131453Y521599D01*
X1131447Y521494D01*
Y521488D01*
Y521471D01*
Y521444D01*
X1131453Y521405D01*
X1131459Y521355D01*
X1131464Y521305D01*
X1131475Y521244D01*
X1131492Y521178D01*
X1131536Y521040D01*
X1131564Y520962D01*
X1131597Y520890D01*
X1131636Y520812D01*
X1131685Y520741D01*
X1131741Y520669D01*
X1131802Y520602D01*
X1131807Y520597D01*
X1131818Y520586D01*
X1131841Y520569D01*
X1131863Y520547D01*
X1131901Y520519D01*
X1131940Y520491D01*
X1131990Y520458D01*
X1132045Y520425D01*
X1132106Y520397D01*
X1132178Y520364D01*
X1132250Y520336D01*
X1132328Y520309D01*
X1132416Y520286D01*
X1132505Y520270D01*
X1132599Y520259D01*
X1132699Y520253D01*
X1132738D01*
X1132787Y520259D01*
X1132848Y520264D01*
X1132931Y520275D01*
X1133026Y520286D01*
X1133131Y520309D01*
X1133252Y520336D01*
X1133164Y519650D01*
X1133153D01*
X1133120Y519655D01*
X1133075Y519661D01*
X1132987D01*
X1132953Y519655D01*
X1132909D01*
X1132859Y519644D01*
X1132798Y519639D01*
X1132738Y519628D01*
X1132599Y519594D01*
X1132450Y519550D01*
X1132295Y519484D01*
X1132217Y519445D01*
X1132140Y519400D01*
X1132134Y519395D01*
X1132123Y519389D01*
X1132101Y519373D01*
X1132079Y519351D01*
X1132045Y519323D01*
X1132012Y519290D01*
X1131979Y519251D01*
X1131940Y519201D01*
X1131901Y519146D01*
X1131868Y519090D01*
X1131835Y519024D01*
X1131802Y518952D01*
X1131780Y518869D01*
X1131758Y518786D01*
X1131746Y518692D01*
X1131741Y518592D01*
Y518587D01*
Y518576D01*
Y518553D01*
X1131746Y518520D01*
X1131752Y518487D01*
X1131758Y518443D01*
X1131780Y518343D01*
X1131813Y518232D01*
X1131863Y518110D01*
X1131896Y518055D01*
X1131935Y517994D01*
X1131984Y517939D01*
X1132034Y517883D01*
X1132040Y517878D01*
X1132045Y517872D01*
X1132062Y517856D01*
X1132090Y517839D01*
X1132117Y517817D01*
X1132151Y517795D01*
X1132189Y517767D01*
X1132239Y517739D01*
X1132344Y517684D01*
X1132477Y517640D01*
X1132621Y517607D01*
X1132704Y517601D01*
X1132787Y517595D01*
X1132832D01*
X1132865Y517601D01*
X1132904Y517607D01*
X1132948Y517612D01*
X1133053Y517629D01*
X1133169Y517667D01*
X1133297Y517717D01*
X1133363Y517751D01*
X1133424Y517789D01*
X1133485Y517834D01*
X1133546Y517883D01*
X1133552Y517889D01*
X1133557Y517894D01*
X1133574Y517911D01*
X1133596Y517939D01*
X1133618Y517966D01*
X1133646Y518005D01*
X1133679Y518050D01*
X1133707Y518099D01*
X1133740Y518155D01*
X1133773Y518221D01*
X1133806Y518293D01*
X1133839Y518371D01*
X1133867Y518454D01*
X1133895Y518542D01*
X1133917Y518642D01*
X1133934Y518747D01*
X1134720Y518609D01*
Y518598D01*
X1134714Y518576D01*
X1134703Y518531D01*
X1134692Y518481D01*
X1134670Y518415D01*
X1134648Y518337D01*
X1134620Y518254D01*
X1134587Y518160D01*
X1134548Y518066D01*
X1134498Y517966D01*
X1134449Y517867D01*
X1134388Y517761D01*
X1134321Y517662D01*
X1134244Y517568D01*
X1134161Y517474D01*
X1134072Y517391D01*
X1134066Y517385D01*
X1134050Y517374D01*
X1134022Y517352D01*
X1133978Y517324D01*
X1133928Y517291D01*
X1133873Y517252D01*
X1133801Y517213D01*
X1133723Y517169D01*
X1133635Y517130D01*
X1133540Y517091D01*
X1133435Y517053D01*
X1133325Y517020D01*
X1133203Y516992D01*
X1133075Y516970D01*
X1132943Y516959D01*
X1132804Y516953D01*
X1132754D01*
X1132715Y516959D01*
X1132671D01*
X1132616Y516964D01*
X1132555Y516970D01*
X1132488Y516981D01*
X1132339Y517009D01*
X1132173Y517047D01*
X1132007Y517103D01*
X1131841Y517180D01*
X1131835D01*
X1131818Y517191D01*
X1131796Y517202D01*
X1131769Y517219D01*
X1131730Y517241D01*
X1131691Y517269D01*
X1131591Y517341D01*
X1131486Y517424D01*
X1131375Y517529D01*
X1131265Y517651D01*
X1131171Y517789D01*
X1131165Y517795D01*
X1131160Y517806D01*
X1131148Y517828D01*
X1131132Y517856D01*
X1131115Y517894D01*
X1131093Y517933D01*
X1131071Y517983D01*
X1131049Y518038D01*
X1131010Y518160D01*
X1130971Y518299D01*
X1130944Y518454D01*
X1130932Y518531D01*
Y518614D01*
Y518620D01*
Y518631D01*
Y518653D01*
X1130938Y518681D01*
Y518719D01*
X1130944Y518764D01*
X1130960Y518863D01*
X1130988Y518980D01*
X1131027Y519107D01*
X1131082Y519234D01*
X1131160Y519367D01*
Y519373D01*
X1131171Y519384D01*
X1131182Y519400D01*
X1131198Y519423D01*
X1131254Y519484D01*
X1131326Y519561D01*
X1131414Y519644D01*
X1131531Y519738D01*
X1131663Y519821D01*
X1131813Y519904D01*
X1131807D01*
X1131785Y519910D01*
X1131758Y519921D01*
X1131719Y519932D01*
X1131674Y519949D01*
X1131619Y519965D01*
X1131558Y519993D01*
X1131492Y520021D01*
X1131348Y520093D01*
X1131276Y520137D01*
X1131204Y520187D01*
X1131132Y520242D01*
X1131060Y520309D01*
X1130993Y520375D01*
X1130932Y520447D01*
X1130927Y520453D01*
X1130921Y520464D01*
X1130905Y520491D01*
X1130883Y520519D01*
X1130861Y520563D01*
X1130833Y520608D01*
X1130805Y520663D01*
X1130772Y520729D01*
X1130744Y520801D01*
X1130716Y520879D01*
X1130689Y520962D01*
X1130667Y521056D01*
X1130645Y521150D01*
X1130628Y521255D01*
X1130622Y521361D01*
X1130617Y521477D01*
Y521488D01*
Y521516D01*
X1130622Y521560D01*
X1130628Y521615D01*
X1130633Y521687D01*
X1130650Y521771D01*
X1130667Y521865D01*
X1130694Y521970D01*
X1130728Y522075D01*
X1130766Y522191D01*
X1130816Y522308D01*
X1130877Y522429D01*
X1130949Y522546D01*
X1131027Y522668D01*
X1131121Y522784D01*
X1131232Y522895D01*
X1131237Y522900D01*
X1131259Y522917D01*
X1131292Y522950D01*
X1131342Y522983D01*
X1131403Y523027D01*
X1131475Y523077D01*
X1131558Y523127D01*
X1131652Y523182D01*
X1131758Y523238D01*
X1131874Y523288D01*
X1132001Y523338D01*
X1132140Y523382D01*
X1132283Y523415D01*
X1132439Y523443D01*
X1132599Y523465D01*
X1132771Y523470D01*
X1132810D01*
X1132854Y523465D01*
D02*
G37*
G36*
X1135755Y523847D02*
X1135783Y523841D01*
X1135816Y523825D01*
X1135866Y523803D01*
X1135933Y523781D01*
X1136004Y523747D01*
X1136088Y523708D01*
X1136176Y523659D01*
X1136281Y523609D01*
X1136387Y523553D01*
X1136503Y523487D01*
X1136619Y523415D01*
X1136741Y523343D01*
X1136868Y523260D01*
X1136996Y523166D01*
X1137123Y523072D01*
X1137129Y523077D01*
X1137156Y523088D01*
X1137195Y523111D01*
X1137245Y523133D01*
X1137311Y523160D01*
X1137394Y523194D01*
X1137483Y523232D01*
X1137583Y523265D01*
X1137693Y523304D01*
X1137815Y523343D01*
X1137948Y523376D01*
X1138081Y523404D01*
X1138225Y523426D01*
X1138374Y523448D01*
X1138530Y523459D01*
X1138690Y523465D01*
X1138729D01*
X1138773Y523459D01*
X1138834D01*
X1138912Y523454D01*
X1139000Y523443D01*
X1139105Y523432D01*
X1139211Y523415D01*
X1139332Y523393D01*
X1139460Y523365D01*
X1139587Y523332D01*
X1139720Y523288D01*
X1139858Y523243D01*
X1139997Y523188D01*
X1140135Y523121D01*
X1140268Y523050D01*
X1140274Y523044D01*
X1140301Y523027D01*
X1140335Y523005D01*
X1140385Y522972D01*
X1140445Y522928D01*
X1140512Y522878D01*
X1140584Y522817D01*
X1140667Y522745D01*
X1140755Y522668D01*
X1140844Y522579D01*
X1140933Y522485D01*
X1141021Y522379D01*
X1141110Y522263D01*
X1141198Y522141D01*
X1141276Y522014D01*
X1141354Y521876D01*
X1141359Y521865D01*
X1141370Y521842D01*
X1141387Y521798D01*
X1141414Y521743D01*
X1141442Y521671D01*
X1141470Y521588D01*
X1141508Y521488D01*
X1141542Y521377D01*
X1141575Y521255D01*
X1141608Y521128D01*
X1141641Y520984D01*
X1141669Y520835D01*
X1141697Y520680D01*
X1141713Y520513D01*
X1141724Y520347D01*
X1141730Y520170D01*
Y520165D01*
Y520159D01*
Y520126D01*
Y520076D01*
X1141724Y520010D01*
X1141719Y519927D01*
X1141708Y519832D01*
X1141697Y519722D01*
X1141680Y519600D01*
X1141664Y519473D01*
X1141636Y519334D01*
X1141608Y519190D01*
X1141569Y519046D01*
X1141525Y518897D01*
X1141475Y518747D01*
X1141414Y518598D01*
X1141348Y518454D01*
X1141342Y518443D01*
X1141331Y518420D01*
X1141309Y518382D01*
X1141276Y518326D01*
X1141237Y518260D01*
X1141187Y518188D01*
X1141132Y518105D01*
X1141066Y518016D01*
X1140994Y517922D01*
X1140916Y517822D01*
X1140822Y517728D01*
X1140728Y517629D01*
X1140623Y517534D01*
X1140506Y517440D01*
X1140385Y517352D01*
X1140257Y517274D01*
X1140246Y517269D01*
X1140224Y517258D01*
X1140185Y517235D01*
X1140130Y517208D01*
X1140063Y517180D01*
X1139986Y517147D01*
X1139897Y517108D01*
X1139792Y517069D01*
X1139681Y517031D01*
X1139559Y516992D01*
X1139426Y516959D01*
X1139288Y516931D01*
X1139144Y516903D01*
X1138995Y516881D01*
X1138834Y516870D01*
X1138673Y516865D01*
X1138585D01*
X1138524Y516870D01*
X1138446Y516876D01*
X1138358Y516887D01*
X1138253Y516898D01*
X1138142Y516914D01*
X1138020Y516936D01*
X1137893Y516970D01*
X1137760Y517003D01*
X1137627Y517042D01*
X1137488Y517091D01*
X1137350Y517147D01*
X1137212Y517213D01*
X1137079Y517285D01*
X1137073Y517291D01*
X1137046Y517308D01*
X1137012Y517330D01*
X1136963Y517363D01*
X1136902Y517407D01*
X1136835Y517457D01*
X1136758Y517518D01*
X1136680Y517590D01*
X1136591Y517667D01*
X1136503Y517756D01*
X1136414Y517856D01*
X1136326Y517961D01*
X1136237Y518072D01*
X1136154Y518193D01*
X1136071Y518326D01*
X1135999Y518465D01*
X1135993Y518476D01*
X1135982Y518498D01*
X1135966Y518542D01*
X1135938Y518598D01*
X1135910Y518670D01*
X1135877Y518753D01*
X1135844Y518852D01*
X1135811Y518958D01*
X1135778Y519079D01*
X1135739Y519212D01*
X1135711Y519351D01*
X1135683Y519500D01*
X1135656Y519655D01*
X1135639Y519821D01*
X1135628Y519987D01*
X1135622Y520165D01*
Y520176D01*
Y520198D01*
Y520242D01*
X1135628Y520298D01*
Y520364D01*
X1135633Y520447D01*
X1135645Y520536D01*
X1135650Y520635D01*
X1135667Y520746D01*
X1135683Y520857D01*
X1135728Y521095D01*
X1135783Y521339D01*
X1135822Y521460D01*
X1135866Y521582D01*
Y521588D01*
X1135877Y521610D01*
X1135894Y521643D01*
X1135910Y521687D01*
X1135938Y521743D01*
X1135966Y521804D01*
X1136004Y521876D01*
X1136043Y521953D01*
X1136093Y522036D01*
X1136149Y522125D01*
X1136204Y522213D01*
X1136270Y522308D01*
X1136342Y522402D01*
X1136414Y522490D01*
X1136497Y522584D01*
X1136586Y522673D01*
X1136580Y522679D01*
X1136558Y522690D01*
X1136531Y522712D01*
X1136486Y522739D01*
X1136436Y522773D01*
X1136376Y522812D01*
X1136303Y522856D01*
X1136232Y522900D01*
X1136149Y522944D01*
X1136065Y522994D01*
X1135883Y523094D01*
X1135689Y523188D01*
X1135501Y523265D01*
X1135750Y523852D01*
X1135755Y523847D01*
D02*
G37*
G36*
X967740Y665051D02*
X962751D01*
X962757Y665045D01*
X962762Y665040D01*
X962779Y665023D01*
X962795Y665001D01*
X962823Y664968D01*
X962851Y664934D01*
X962884Y664896D01*
X962923Y664851D01*
X963000Y664741D01*
X963094Y664613D01*
X963194Y664469D01*
X963294Y664303D01*
X963299Y664298D01*
X963305Y664281D01*
X963321Y664259D01*
X963338Y664226D01*
X963360Y664187D01*
X963382Y664143D01*
X963416Y664087D01*
X963443Y664032D01*
X963510Y663904D01*
X963576Y663766D01*
X963643Y663622D01*
X963698Y663484D01*
X962939D01*
X962934Y663489D01*
X962923Y663511D01*
X962906Y663550D01*
X962884Y663594D01*
X962856Y663650D01*
X962818Y663716D01*
X962779Y663788D01*
X962729Y663871D01*
X962679Y663960D01*
X962618Y664048D01*
X962491Y664242D01*
X962347Y664442D01*
X962192Y664630D01*
X962186Y664635D01*
X962170Y664652D01*
X962148Y664674D01*
X962114Y664713D01*
X962076Y664752D01*
X962031Y664796D01*
X961976Y664846D01*
X961920Y664901D01*
X961788Y665017D01*
X961644Y665134D01*
X961489Y665239D01*
X961411Y665289D01*
X961333Y665328D01*
Y665837D01*
X967740D01*
Y665051D01*
D02*
G37*
G36*
X965038Y659896D02*
X967740D01*
Y659048D01*
X965038D01*
X961356Y656590D01*
Y657614D01*
X963283Y658871D01*
X963288Y658877D01*
X963305Y658888D01*
X963338Y658904D01*
X963377Y658932D01*
X963421Y658965D01*
X963482Y658999D01*
X963548Y659043D01*
X963620Y659087D01*
X963698Y659137D01*
X963781Y659187D01*
X963964Y659298D01*
X964157Y659408D01*
X964362Y659525D01*
X964357Y659530D01*
X964340Y659536D01*
X964313Y659552D01*
X964274Y659574D01*
X964230Y659602D01*
X964174Y659635D01*
X964108Y659674D01*
X964036Y659718D01*
X963953Y659768D01*
X963870Y659824D01*
X963775Y659879D01*
X963676Y659940D01*
X963465Y660073D01*
X963238Y660222D01*
X961356Y661457D01*
Y662443D01*
X965038Y659896D01*
D02*
G37*
G36*
X1179950Y587217D02*
X1179944D01*
X1179939D01*
X1179922D01*
X1179900D01*
X1179844D01*
X1179778Y587223D01*
X1179695Y587234D01*
X1179601Y587251D01*
X1179507Y587273D01*
X1179407Y587306D01*
X1179401D01*
X1179385Y587312D01*
X1179363Y587323D01*
X1179335Y587339D01*
X1179296Y587356D01*
X1179246Y587378D01*
X1179197Y587400D01*
X1179141Y587433D01*
X1179008Y587500D01*
X1178870Y587594D01*
X1178715Y587699D01*
X1178560Y587821D01*
X1178554Y587826D01*
X1178543Y587837D01*
X1178515Y587860D01*
X1178488Y587887D01*
X1178449Y587926D01*
X1178399Y587970D01*
X1178344Y588020D01*
X1178283Y588081D01*
X1178216Y588153D01*
X1178145Y588225D01*
X1178061Y588314D01*
X1177978Y588402D01*
X1177890Y588502D01*
X1177796Y588607D01*
X1177696Y588723D01*
X1177596Y588845D01*
Y588851D01*
X1177585Y588856D01*
X1177558Y588890D01*
X1177513Y588945D01*
X1177452Y589011D01*
X1177380Y589100D01*
X1177297Y589194D01*
X1177203Y589299D01*
X1177104Y589410D01*
X1176998Y589526D01*
X1176888Y589648D01*
X1176777Y589765D01*
X1176661Y589881D01*
X1176550Y589986D01*
X1176439Y590086D01*
X1176339Y590174D01*
X1176240Y590252D01*
X1176234Y590257D01*
X1176218Y590268D01*
X1176190Y590285D01*
X1176157Y590307D01*
X1176112Y590335D01*
X1176057Y590368D01*
X1176002Y590401D01*
X1175935Y590434D01*
X1175791Y590501D01*
X1175631Y590562D01*
X1175548Y590584D01*
X1175464Y590601D01*
X1175381Y590612D01*
X1175298Y590617D01*
X1175293D01*
X1175276D01*
X1175254D01*
X1175221Y590612D01*
X1175182Y590606D01*
X1175132Y590601D01*
X1175082Y590589D01*
X1175027Y590578D01*
X1174900Y590534D01*
X1174839Y590512D01*
X1174772Y590479D01*
X1174706Y590440D01*
X1174640Y590396D01*
X1174573Y590346D01*
X1174512Y590285D01*
X1174507Y590279D01*
X1174495Y590268D01*
X1174484Y590252D01*
X1174462Y590224D01*
X1174440Y590191D01*
X1174412Y590152D01*
X1174379Y590108D01*
X1174352Y590052D01*
X1174324Y589991D01*
X1174291Y589925D01*
X1174263Y589853D01*
X1174241Y589776D01*
X1174219Y589698D01*
X1174202Y589609D01*
X1174196Y589515D01*
X1174191Y589416D01*
Y589360D01*
X1174196Y589322D01*
X1174202Y589277D01*
X1174208Y589222D01*
X1174219Y589155D01*
X1174235Y589089D01*
X1174274Y588945D01*
X1174302Y588873D01*
X1174335Y588796D01*
X1174374Y588723D01*
X1174424Y588652D01*
X1174473Y588579D01*
X1174534Y588513D01*
X1174540Y588507D01*
X1174551Y588497D01*
X1174567Y588480D01*
X1174595Y588463D01*
X1174634Y588436D01*
X1174673Y588408D01*
X1174723Y588375D01*
X1174778Y588347D01*
X1174844Y588314D01*
X1174916Y588280D01*
X1174994Y588253D01*
X1175077Y588231D01*
X1175165Y588209D01*
X1175265Y588192D01*
X1175365Y588181D01*
X1175476Y588175D01*
X1175393Y587367D01*
X1175381D01*
X1175354Y587372D01*
X1175304Y587378D01*
X1175243Y587389D01*
X1175171Y587400D01*
X1175082Y587422D01*
X1174988Y587444D01*
X1174883Y587472D01*
X1174772Y587511D01*
X1174662Y587550D01*
X1174545Y587599D01*
X1174435Y587660D01*
X1174318Y587727D01*
X1174213Y587799D01*
X1174113Y587887D01*
X1174019Y587981D01*
X1174014Y587987D01*
X1173997Y588009D01*
X1173975Y588037D01*
X1173947Y588081D01*
X1173908Y588136D01*
X1173870Y588203D01*
X1173826Y588280D01*
X1173781Y588369D01*
X1173737Y588463D01*
X1173693Y588574D01*
X1173654Y588696D01*
X1173615Y588823D01*
X1173587Y588962D01*
X1173565Y589111D01*
X1173549Y589266D01*
X1173543Y589432D01*
Y589471D01*
X1173549Y589521D01*
Y589582D01*
X1173560Y589659D01*
X1173571Y589753D01*
X1173587Y589853D01*
X1173604Y589958D01*
X1173632Y590075D01*
X1173665Y590191D01*
X1173709Y590313D01*
X1173759Y590434D01*
X1173814Y590556D01*
X1173886Y590673D01*
X1173964Y590783D01*
X1174053Y590888D01*
X1174058Y590894D01*
X1174075Y590911D01*
X1174102Y590938D01*
X1174141Y590972D01*
X1174191Y591016D01*
X1174252Y591060D01*
X1174324Y591105D01*
X1174401Y591160D01*
X1174490Y591210D01*
X1174584Y591254D01*
X1174689Y591304D01*
X1174800Y591343D01*
X1174916Y591376D01*
X1175044Y591404D01*
X1175177Y591420D01*
X1175315Y591426D01*
X1175321D01*
X1175332D01*
X1175354D01*
X1175381D01*
X1175415Y591420D01*
X1175459D01*
X1175553Y591404D01*
X1175669Y591387D01*
X1175797Y591359D01*
X1175935Y591320D01*
X1176074Y591265D01*
X1176079D01*
X1176090Y591259D01*
X1176112Y591248D01*
X1176134Y591237D01*
X1176173Y591221D01*
X1176212Y591199D01*
X1176256Y591171D01*
X1176306Y591143D01*
X1176422Y591071D01*
X1176555Y590983D01*
X1176699Y590872D01*
X1176849Y590745D01*
X1176854Y590739D01*
X1176865Y590728D01*
X1176893Y590706D01*
X1176926Y590678D01*
X1176965Y590634D01*
X1177015Y590584D01*
X1177076Y590529D01*
X1177142Y590462D01*
X1177220Y590379D01*
X1177303Y590290D01*
X1177397Y590196D01*
X1177497Y590086D01*
X1177602Y589969D01*
X1177718Y589837D01*
X1177840Y589698D01*
X1177973Y589543D01*
X1177978Y589538D01*
X1178000Y589510D01*
X1178028Y589477D01*
X1178067Y589427D01*
X1178117Y589371D01*
X1178172Y589310D01*
X1178233Y589238D01*
X1178294Y589166D01*
X1178427Y589011D01*
X1178560Y588862D01*
X1178621Y588796D01*
X1178682Y588729D01*
X1178731Y588679D01*
X1178776Y588635D01*
X1178787Y588624D01*
X1178809Y588602D01*
X1178853Y588563D01*
X1178909Y588519D01*
X1178969Y588469D01*
X1179042Y588413D01*
X1179119Y588358D01*
X1179197Y588308D01*
Y591437D01*
X1179950D01*
Y587217D01*
D02*
G37*
G36*
X1180442Y586370D02*
X1180437Y586365D01*
X1180431Y586337D01*
X1180415Y586304D01*
X1180393Y586254D01*
X1180370Y586187D01*
X1180337Y586115D01*
X1180298Y586032D01*
X1180249Y585944D01*
X1180199Y585839D01*
X1180143Y585733D01*
X1180077Y585617D01*
X1180005Y585501D01*
X1179933Y585379D01*
X1179850Y585252D01*
X1179756Y585124D01*
X1179662Y584997D01*
X1179667Y584991D01*
X1179678Y584964D01*
X1179700Y584925D01*
X1179723Y584875D01*
X1179750Y584809D01*
X1179783Y584726D01*
X1179822Y584637D01*
X1179855Y584537D01*
X1179894Y584427D01*
X1179933Y584305D01*
X1179966Y584172D01*
X1179994Y584039D01*
X1180016Y583895D01*
X1180038Y583745D01*
X1180049Y583591D01*
X1180055Y583430D01*
Y583391D01*
X1180049Y583347D01*
Y583286D01*
X1180044Y583208D01*
X1180033Y583120D01*
X1180022Y583015D01*
X1180005Y582909D01*
X1179983Y582788D01*
X1179955Y582660D01*
X1179922Y582533D01*
X1179878Y582400D01*
X1179833Y582262D01*
X1179778Y582123D01*
X1179712Y581985D01*
X1179640Y581852D01*
X1179634Y581846D01*
X1179617Y581819D01*
X1179595Y581785D01*
X1179562Y581735D01*
X1179518Y581675D01*
X1179468Y581608D01*
X1179407Y581536D01*
X1179335Y581453D01*
X1179258Y581365D01*
X1179169Y581276D01*
X1179075Y581187D01*
X1178969Y581099D01*
X1178853Y581010D01*
X1178731Y580922D01*
X1178604Y580844D01*
X1178466Y580766D01*
X1178455Y580761D01*
X1178432Y580750D01*
X1178388Y580733D01*
X1178333Y580706D01*
X1178261Y580678D01*
X1178178Y580650D01*
X1178078Y580611D01*
X1177967Y580578D01*
X1177846Y580545D01*
X1177718Y580512D01*
X1177574Y580479D01*
X1177425Y580451D01*
X1177270Y580423D01*
X1177104Y580407D01*
X1176937Y580396D01*
X1176760Y580390D01*
X1176755D01*
X1176749D01*
X1176716D01*
X1176666D01*
X1176600Y580396D01*
X1176517Y580401D01*
X1176422Y580412D01*
X1176312Y580423D01*
X1176190Y580440D01*
X1176062Y580456D01*
X1175924Y580484D01*
X1175780Y580512D01*
X1175636Y580551D01*
X1175487Y580595D01*
X1175337Y580645D01*
X1175188Y580706D01*
X1175044Y580772D01*
X1175033Y580778D01*
X1175011Y580789D01*
X1174972Y580811D01*
X1174916Y580844D01*
X1174850Y580883D01*
X1174778Y580933D01*
X1174695Y580988D01*
X1174606Y581054D01*
X1174512Y581126D01*
X1174412Y581204D01*
X1174318Y581298D01*
X1174219Y581392D01*
X1174125Y581497D01*
X1174030Y581614D01*
X1173942Y581735D01*
X1173864Y581863D01*
X1173859Y581874D01*
X1173848Y581896D01*
X1173826Y581935D01*
X1173798Y581990D01*
X1173770Y582057D01*
X1173737Y582134D01*
X1173698Y582223D01*
X1173659Y582328D01*
X1173621Y582439D01*
X1173582Y582561D01*
X1173549Y582693D01*
X1173521Y582832D01*
X1173493Y582976D01*
X1173471Y583125D01*
X1173460Y583286D01*
X1173455Y583447D01*
Y583535D01*
X1173460Y583596D01*
X1173466Y583674D01*
X1173477Y583762D01*
X1173488Y583867D01*
X1173504Y583978D01*
X1173527Y584100D01*
X1173560Y584227D01*
X1173593Y584360D01*
X1173632Y584493D01*
X1173681Y584632D01*
X1173737Y584770D01*
X1173803Y584908D01*
X1173875Y585041D01*
X1173881Y585047D01*
X1173897Y585075D01*
X1173920Y585108D01*
X1173953Y585158D01*
X1173997Y585218D01*
X1174047Y585285D01*
X1174108Y585362D01*
X1174180Y585440D01*
X1174257Y585528D01*
X1174346Y585617D01*
X1174446Y585706D01*
X1174551Y585794D01*
X1174662Y585883D01*
X1174783Y585966D01*
X1174916Y586049D01*
X1175055Y586121D01*
X1175066Y586127D01*
X1175088Y586138D01*
X1175132Y586154D01*
X1175188Y586182D01*
X1175260Y586210D01*
X1175343Y586243D01*
X1175442Y586276D01*
X1175548Y586309D01*
X1175669Y586343D01*
X1175802Y586381D01*
X1175941Y586409D01*
X1176090Y586437D01*
X1176245Y586464D01*
X1176411Y586481D01*
X1176578Y586492D01*
X1176755Y586497D01*
X1176766D01*
X1176788D01*
X1176832D01*
X1176888Y586492D01*
X1176954D01*
X1177037Y586487D01*
X1177126Y586475D01*
X1177225Y586470D01*
X1177336Y586453D01*
X1177447Y586437D01*
X1177685Y586392D01*
X1177929Y586337D01*
X1178050Y586298D01*
X1178172Y586254D01*
X1178178D01*
X1178200Y586243D01*
X1178233Y586226D01*
X1178277Y586210D01*
X1178333Y586182D01*
X1178394Y586154D01*
X1178466Y586115D01*
X1178543Y586077D01*
X1178626Y586027D01*
X1178715Y585971D01*
X1178803Y585916D01*
X1178898Y585850D01*
X1178992Y585778D01*
X1179080Y585706D01*
X1179174Y585623D01*
X1179263Y585534D01*
X1179269Y585540D01*
X1179280Y585562D01*
X1179302Y585589D01*
X1179330Y585634D01*
X1179363Y585684D01*
X1179401Y585745D01*
X1179446Y585816D01*
X1179490Y585888D01*
X1179534Y585971D01*
X1179584Y586055D01*
X1179684Y586237D01*
X1179778Y586431D01*
X1179855Y586619D01*
X1180442Y586370D01*
D02*
G37*
G36*
X882830Y863565D02*
X882908Y863559D01*
X882996Y863553D01*
X883090Y863542D01*
X883201Y863531D01*
X883312Y863515D01*
X883434Y863498D01*
X883677Y863443D01*
X883799Y863404D01*
X883921Y863365D01*
X884037Y863321D01*
X884148Y863266D01*
X884154Y863260D01*
X884170Y863249D01*
X884203Y863232D01*
X884242Y863210D01*
X884286Y863177D01*
X884342Y863138D01*
X884397Y863088D01*
X884458Y863039D01*
X884525Y862978D01*
X884591Y862911D01*
X884663Y862839D01*
X884729Y862756D01*
X884790Y862668D01*
X884851Y862573D01*
X884907Y862474D01*
X884956Y862369D01*
Y862363D01*
X884967Y862341D01*
X884979Y862308D01*
X884995Y862263D01*
X885012Y862202D01*
X885034Y862131D01*
X885056Y862047D01*
X885078Y861948D01*
X885100Y861842D01*
X885123Y861721D01*
X885145Y861588D01*
X885161Y861444D01*
X885178Y861294D01*
X885189Y861128D01*
X885194Y860951D01*
X885200Y860768D01*
Y857081D01*
X884353D01*
Y860763D01*
Y860774D01*
Y860801D01*
Y860840D01*
Y860901D01*
X884347Y860968D01*
Y861045D01*
X884342Y861134D01*
X884336Y861228D01*
X884314Y861427D01*
X884292Y861627D01*
X884270Y861726D01*
X884253Y861820D01*
X884231Y861909D01*
X884203Y861986D01*
Y861992D01*
X884198Y862003D01*
X884187Y862025D01*
X884176Y862053D01*
X884154Y862086D01*
X884137Y862119D01*
X884076Y862208D01*
X884004Y862308D01*
X883915Y862407D01*
X883805Y862507D01*
X883672Y862596D01*
X883666D01*
X883655Y862607D01*
X883633Y862612D01*
X883605Y862629D01*
X883567Y862645D01*
X883522Y862662D01*
X883473Y862679D01*
X883417Y862701D01*
X883351Y862723D01*
X883284Y862739D01*
X883207Y862756D01*
X883124Y862773D01*
X882946Y862795D01*
X882753Y862806D01*
X882714D01*
X882664Y862801D01*
X882603D01*
X882526Y862795D01*
X882437Y862784D01*
X882343Y862773D01*
X882238Y862751D01*
X882132Y862729D01*
X882022Y862701D01*
X881911Y862668D01*
X881800Y862629D01*
X881695Y862579D01*
X881601Y862524D01*
X881507Y862457D01*
X881429Y862385D01*
X881424Y862380D01*
X881413Y862363D01*
X881391Y862341D01*
X881368Y862302D01*
X881335Y862252D01*
X881302Y862186D01*
X881269Y862114D01*
X881230Y862025D01*
X881191Y861920D01*
X881158Y861804D01*
X881125Y861671D01*
X881092Y861521D01*
X881069Y861361D01*
X881047Y861178D01*
X881036Y860979D01*
X881031Y860763D01*
Y857081D01*
X880183D01*
Y860768D01*
Y860779D01*
Y860813D01*
Y860862D01*
X880189Y860929D01*
Y861006D01*
X880194Y861100D01*
X880200Y861206D01*
X880211Y861322D01*
X880222Y861438D01*
X880239Y861566D01*
X880277Y861820D01*
X880333Y862069D01*
X880366Y862186D01*
X880405Y862297D01*
Y862302D01*
X880416Y862319D01*
X880427Y862352D01*
X880449Y862391D01*
X880471Y862440D01*
X880505Y862496D01*
X880538Y862557D01*
X880582Y862623D01*
X880632Y862695D01*
X880693Y862767D01*
X880754Y862845D01*
X880826Y862922D01*
X880909Y863000D01*
X880992Y863072D01*
X881086Y863149D01*
X881191Y863216D01*
X881197Y863221D01*
X881219Y863232D01*
X881246Y863249D01*
X881296Y863271D01*
X881352Y863299D01*
X881418Y863326D01*
X881496Y863360D01*
X881590Y863393D01*
X881690Y863426D01*
X881800Y863459D01*
X881928Y863487D01*
X882055Y863515D01*
X882199Y863537D01*
X882348Y863553D01*
X882509Y863565D01*
X882681Y863570D01*
X882769D01*
X882830Y863565D01*
D02*
G37*
G36*
X879192Y863459D02*
Y863454D01*
Y863437D01*
Y863415D01*
Y863360D01*
X879187Y863293D01*
X879176Y863210D01*
X879159Y863116D01*
X879137Y863022D01*
X879104Y862922D01*
Y862917D01*
X879098Y862900D01*
X879087Y862878D01*
X879070Y862850D01*
X879054Y862812D01*
X879032Y862762D01*
X879009Y862712D01*
X878976Y862656D01*
X878910Y862524D01*
X878816Y862385D01*
X878710Y862230D01*
X878589Y862075D01*
X878583Y862069D01*
X878572Y862058D01*
X878550Y862031D01*
X878522Y862003D01*
X878484Y861964D01*
X878439Y861915D01*
X878389Y861859D01*
X878328Y861798D01*
X878256Y861732D01*
X878185Y861660D01*
X878096Y861577D01*
X878007Y861494D01*
X877908Y861405D01*
X877802Y861311D01*
X877686Y861211D01*
X877564Y861112D01*
X877559D01*
X877553Y861100D01*
X877520Y861073D01*
X877465Y861029D01*
X877398Y860968D01*
X877310Y860896D01*
X877215Y860813D01*
X877110Y860719D01*
X877000Y860619D01*
X876883Y860514D01*
X876761Y860403D01*
X876645Y860292D01*
X876529Y860176D01*
X876424Y860065D01*
X876324Y859954D01*
X876235Y859855D01*
X876158Y859755D01*
X876152Y859750D01*
X876141Y859733D01*
X876125Y859705D01*
X876103Y859672D01*
X876075Y859628D01*
X876042Y859572D01*
X876008Y859517D01*
X875975Y859451D01*
X875909Y859306D01*
X875848Y859146D01*
X875826Y859063D01*
X875809Y858980D01*
X875798Y858897D01*
X875792Y858814D01*
Y858808D01*
Y858792D01*
Y858769D01*
X875798Y858736D01*
X875804Y858697D01*
X875809Y858648D01*
X875820Y858598D01*
X875831Y858542D01*
X875875Y858415D01*
X875898Y858354D01*
X875931Y858288D01*
X875970Y858221D01*
X876014Y858155D01*
X876064Y858088D01*
X876125Y858027D01*
X876130Y858022D01*
X876141Y858011D01*
X876158Y858000D01*
X876186Y857978D01*
X876219Y857955D01*
X876257Y857928D01*
X876302Y857895D01*
X876357Y857867D01*
X876418Y857839D01*
X876485Y857806D01*
X876556Y857778D01*
X876634Y857756D01*
X876712Y857734D01*
X876800Y857717D01*
X876894Y857712D01*
X876994Y857706D01*
X877049D01*
X877088Y857712D01*
X877132Y857717D01*
X877188Y857723D01*
X877254Y857734D01*
X877321Y857750D01*
X877465Y857789D01*
X877537Y857817D01*
X877614Y857850D01*
X877686Y857889D01*
X877758Y857939D01*
X877830Y857989D01*
X877896Y858049D01*
X877902Y858055D01*
X877913Y858066D01*
X877930Y858083D01*
X877946Y858111D01*
X877974Y858149D01*
X878002Y858188D01*
X878035Y858238D01*
X878063Y858293D01*
X878096Y858360D01*
X878129Y858432D01*
X878157Y858509D01*
X878179Y858592D01*
X878201Y858681D01*
X878218Y858781D01*
X878229Y858880D01*
X878234Y858991D01*
X879043Y858908D01*
Y858897D01*
X879037Y858869D01*
X879032Y858819D01*
X879021Y858758D01*
X879009Y858686D01*
X878987Y858598D01*
X878965Y858504D01*
X878938Y858398D01*
X878899Y858288D01*
X878860Y858177D01*
X878810Y858061D01*
X878749Y857950D01*
X878683Y857834D01*
X878611Y857728D01*
X878522Y857629D01*
X878428Y857535D01*
X878423Y857529D01*
X878400Y857512D01*
X878373Y857490D01*
X878328Y857463D01*
X878273Y857424D01*
X878207Y857385D01*
X878129Y857341D01*
X878040Y857297D01*
X877946Y857252D01*
X877836Y857208D01*
X877714Y857169D01*
X877586Y857130D01*
X877448Y857103D01*
X877299Y857081D01*
X877143Y857064D01*
X876977Y857058D01*
X876939D01*
X876889Y857064D01*
X876828D01*
X876750Y857075D01*
X876656Y857086D01*
X876556Y857103D01*
X876451Y857119D01*
X876335Y857147D01*
X876219Y857180D01*
X876097Y857225D01*
X875975Y857274D01*
X875853Y857330D01*
X875737Y857402D01*
X875626Y857479D01*
X875521Y857568D01*
X875516Y857573D01*
X875499Y857590D01*
X875471Y857618D01*
X875438Y857656D01*
X875394Y857706D01*
X875349Y857767D01*
X875305Y857839D01*
X875250Y857917D01*
X875200Y858005D01*
X875156Y858099D01*
X875106Y858205D01*
X875067Y858315D01*
X875034Y858432D01*
X875006Y858559D01*
X874989Y858692D01*
X874984Y858830D01*
Y858836D01*
Y858847D01*
Y858869D01*
Y858897D01*
X874989Y858930D01*
Y858974D01*
X875006Y859068D01*
X875023Y859185D01*
X875050Y859312D01*
X875089Y859451D01*
X875145Y859589D01*
Y859594D01*
X875150Y859605D01*
X875161Y859628D01*
X875172Y859650D01*
X875189Y859689D01*
X875211Y859727D01*
X875239Y859772D01*
X875266Y859821D01*
X875338Y859938D01*
X875427Y860071D01*
X875538Y860215D01*
X875665Y860364D01*
X875671Y860370D01*
X875682Y860381D01*
X875704Y860408D01*
X875732Y860442D01*
X875776Y860480D01*
X875826Y860530D01*
X875881Y860591D01*
X875947Y860658D01*
X876031Y860735D01*
X876119Y860818D01*
X876213Y860912D01*
X876324Y861012D01*
X876440Y861117D01*
X876573Y861233D01*
X876712Y861355D01*
X876867Y861488D01*
X876872Y861494D01*
X876900Y861516D01*
X876933Y861544D01*
X876983Y861582D01*
X877038Y861632D01*
X877099Y861687D01*
X877171Y861748D01*
X877243Y861809D01*
X877398Y861942D01*
X877548Y862075D01*
X877614Y862136D01*
X877681Y862197D01*
X877730Y862247D01*
X877775Y862291D01*
X877786Y862302D01*
X877808Y862324D01*
X877847Y862369D01*
X877891Y862424D01*
X877941Y862485D01*
X877996Y862557D01*
X878052Y862634D01*
X878101Y862712D01*
X874973D01*
Y863465D01*
X879192D01*
Y863459D01*
D02*
G37*
%LPC*%
G36*
X1511206Y418869D02*
X1511156D01*
X1511118Y418864D01*
X1511073Y418858D01*
X1511023Y418847D01*
X1510968Y418830D01*
X1510902Y418814D01*
X1510835Y418792D01*
X1510763Y418764D01*
X1510691Y418731D01*
X1510619Y418686D01*
X1510547Y418637D01*
X1510475Y418581D01*
X1510403Y418515D01*
X1510337Y418437D01*
X1510331Y418432D01*
X1510320Y418415D01*
X1510304Y418393D01*
X1510282Y418354D01*
X1510254Y418310D01*
X1510226Y418255D01*
X1510193Y418188D01*
X1510165Y418111D01*
X1510132Y418022D01*
X1510099Y417922D01*
X1510071Y417812D01*
X1510043Y417690D01*
X1510021Y417557D01*
X1510005Y417413D01*
X1509993Y417258D01*
X1509988Y417092D01*
Y417081D01*
Y417053D01*
Y417009D01*
X1509993Y416948D01*
X1509999Y416870D01*
X1510010Y416787D01*
X1510021Y416693D01*
X1510032Y416593D01*
X1510077Y416372D01*
X1510110Y416261D01*
X1510143Y416151D01*
X1510187Y416045D01*
X1510237Y415940D01*
X1510293Y415846D01*
X1510359Y415757D01*
X1510365Y415752D01*
X1510376Y415741D01*
X1510398Y415718D01*
X1510425Y415691D01*
X1510464Y415658D01*
X1510503Y415619D01*
X1510553Y415580D01*
X1510608Y415541D01*
X1510675Y415497D01*
X1510741Y415458D01*
X1510891Y415386D01*
X1510974Y415359D01*
X1511057Y415336D01*
X1511145Y415325D01*
X1511239Y415320D01*
X1511261D01*
X1511289Y415325D01*
X1511328D01*
X1511372Y415331D01*
X1511422Y415342D01*
X1511478Y415353D01*
X1511544Y415375D01*
X1511610Y415397D01*
X1511677Y415425D01*
X1511754Y415458D01*
X1511826Y415497D01*
X1511898Y415547D01*
X1511976Y415602D01*
X1512048Y415669D01*
X1512114Y415741D01*
X1512120Y415746D01*
X1512131Y415763D01*
X1512148Y415785D01*
X1512170Y415818D01*
X1512197Y415863D01*
X1512231Y415918D01*
X1512258Y415984D01*
X1512297Y416062D01*
X1512330Y416145D01*
X1512358Y416239D01*
X1512391Y416344D01*
X1512419Y416460D01*
X1512441Y416588D01*
X1512458Y416721D01*
X1512469Y416870D01*
X1512474Y417025D01*
Y417031D01*
Y417036D01*
Y417070D01*
Y417114D01*
X1512469Y417180D01*
X1512463Y417258D01*
X1512458Y417352D01*
X1512446Y417452D01*
X1512430Y417557D01*
X1512386Y417784D01*
X1512358Y417900D01*
X1512319Y418017D01*
X1512280Y418127D01*
X1512231Y418232D01*
X1512175Y418332D01*
X1512109Y418421D01*
X1512103Y418426D01*
X1512092Y418443D01*
X1512070Y418465D01*
X1512042Y418493D01*
X1512009Y418526D01*
X1511965Y418565D01*
X1511915Y418603D01*
X1511860Y418648D01*
X1511799Y418686D01*
X1511727Y418725D01*
X1511655Y418764D01*
X1511572Y418797D01*
X1511489Y418830D01*
X1511400Y418853D01*
X1511306Y418864D01*
X1511206Y418869D01*
D02*
G37*
G36*
X1504495Y417108D02*
X1504489D01*
X1504473Y417103D01*
X1504451Y417092D01*
X1504412Y417081D01*
X1504368Y417064D01*
X1504312Y417048D01*
X1504246Y417025D01*
X1504174Y417003D01*
X1504085Y416981D01*
X1503991Y416959D01*
X1503886Y416931D01*
X1503770Y416909D01*
X1503648Y416881D01*
X1503510Y416859D01*
X1503365Y416832D01*
X1503210Y416809D01*
X1503205D01*
X1503188Y416804D01*
X1503166D01*
X1503133Y416798D01*
X1503094Y416793D01*
X1503044Y416782D01*
X1502945Y416765D01*
X1502828Y416737D01*
X1502718Y416710D01*
X1502612Y416682D01*
X1502563Y416665D01*
X1502524Y416649D01*
X1502513Y416643D01*
X1502491Y416632D01*
X1502457Y416616D01*
X1502413Y416588D01*
X1502363Y416549D01*
X1502308Y416505D01*
X1502258Y416455D01*
X1502214Y416394D01*
X1502208Y416389D01*
X1502197Y416366D01*
X1502180Y416333D01*
X1502164Y416283D01*
X1502142Y416228D01*
X1502125Y416167D01*
X1502114Y416101D01*
X1502109Y416023D01*
Y416018D01*
Y416012D01*
Y415995D01*
X1502114Y415973D01*
X1502120Y415912D01*
X1502136Y415840D01*
X1502164Y415757D01*
X1502208Y415669D01*
X1502264Y415580D01*
X1502341Y415497D01*
X1502347D01*
X1502352Y415486D01*
X1502385Y415464D01*
X1502441Y415431D01*
X1502518Y415397D01*
X1502618Y415359D01*
X1502734Y415325D01*
X1502878Y415303D01*
X1503039Y415292D01*
X1503083D01*
X1503116Y415298D01*
X1503155D01*
X1503199Y415303D01*
X1503255Y415309D01*
X1503310Y415314D01*
X1503438Y415342D01*
X1503570Y415375D01*
X1503709Y415420D01*
X1503847Y415486D01*
X1503853D01*
X1503864Y415497D01*
X1503880Y415508D01*
X1503908Y415525D01*
X1503969Y415569D01*
X1504047Y415630D01*
X1504130Y415708D01*
X1504218Y415802D01*
X1504296Y415912D01*
X1504368Y416034D01*
Y416040D01*
X1504373Y416045D01*
X1504379Y416062D01*
X1504390Y416084D01*
X1504395Y416112D01*
X1504406Y416145D01*
X1504418Y416184D01*
X1504434Y416233D01*
X1504445Y416283D01*
X1504456Y416344D01*
X1504467Y416405D01*
X1504473Y416477D01*
X1504484Y416549D01*
X1504489Y416632D01*
X1504495Y416721D01*
Y416815D01*
Y417108D01*
D02*
G37*
G36*
X1488116Y420414D02*
X1486638D01*
Y415536D01*
X1488105D01*
X1488155Y415541D01*
X1488216D01*
X1488288Y415547D01*
X1488360Y415552D01*
X1488520Y415564D01*
X1488681Y415586D01*
X1488841Y415613D01*
X1488913Y415630D01*
X1488985Y415652D01*
X1488991D01*
X1489002Y415658D01*
X1489019Y415663D01*
X1489046Y415674D01*
X1489113Y415702D01*
X1489190Y415735D01*
X1489284Y415785D01*
X1489379Y415840D01*
X1489473Y415907D01*
X1489561Y415984D01*
X1489567Y415990D01*
X1489572Y416001D01*
X1489589Y416018D01*
X1489611Y416040D01*
X1489633Y416067D01*
X1489666Y416106D01*
X1489700Y416151D01*
X1489733Y416195D01*
X1489766Y416250D01*
X1489805Y416311D01*
X1489844Y416377D01*
X1489882Y416450D01*
X1489960Y416610D01*
X1490026Y416787D01*
Y416793D01*
X1490032Y416809D01*
X1490043Y416837D01*
X1490054Y416876D01*
X1490065Y416926D01*
X1490082Y416987D01*
X1490098Y417053D01*
X1490115Y417131D01*
X1490126Y417219D01*
X1490143Y417313D01*
X1490159Y417413D01*
X1490170Y417524D01*
X1490181Y417640D01*
X1490193Y417762D01*
X1490198Y417889D01*
Y418022D01*
Y418028D01*
Y418033D01*
Y418066D01*
Y418116D01*
X1490193Y418188D01*
X1490187Y418271D01*
X1490181Y418365D01*
X1490170Y418476D01*
X1490159Y418592D01*
X1490137Y418714D01*
X1490115Y418836D01*
X1490093Y418969D01*
X1490060Y419096D01*
X1490021Y419218D01*
X1489977Y419340D01*
X1489927Y419456D01*
X1489866Y419561D01*
X1489860Y419567D01*
X1489849Y419584D01*
X1489833Y419611D01*
X1489805Y419650D01*
X1489777Y419694D01*
X1489738Y419739D01*
X1489694Y419794D01*
X1489644Y419855D01*
X1489528Y419971D01*
X1489390Y420093D01*
X1489318Y420148D01*
X1489240Y420198D01*
X1489157Y420242D01*
X1489068Y420281D01*
X1489063D01*
X1489052Y420287D01*
X1489035Y420292D01*
X1489002Y420303D01*
X1488969Y420314D01*
X1488925Y420326D01*
X1488869Y420337D01*
X1488808Y420348D01*
X1488736Y420359D01*
X1488653Y420370D01*
X1488565Y420381D01*
X1488465Y420392D01*
X1488360Y420403D01*
X1488243Y420409D01*
X1488116Y420414D01*
D02*
G37*
G36*
X1365881Y670910D02*
X1363765D01*
Y669005D01*
X1363771Y668955D01*
Y668900D01*
X1363777Y668839D01*
X1363782Y668772D01*
X1363793Y668623D01*
X1363815Y668473D01*
X1363843Y668329D01*
X1363860Y668263D01*
X1363882Y668196D01*
Y668191D01*
X1363887Y668180D01*
X1363893Y668163D01*
X1363904Y668141D01*
X1363932Y668086D01*
X1363976Y668014D01*
X1364031Y667931D01*
X1364092Y667848D01*
X1364175Y667770D01*
X1364264Y667698D01*
X1364269D01*
X1364275Y667693D01*
X1364292Y667682D01*
X1364308Y667671D01*
X1364364Y667643D01*
X1364435Y667610D01*
X1364524Y667582D01*
X1364618Y667554D01*
X1364723Y667532D01*
X1364840Y667526D01*
X1364845D01*
X1364862D01*
X1364884D01*
X1364917Y667532D01*
X1364956Y667538D01*
X1365000Y667543D01*
X1365105Y667565D01*
X1365222Y667610D01*
X1365283Y667632D01*
X1365349Y667665D01*
X1365410Y667704D01*
X1365471Y667748D01*
X1365532Y667798D01*
X1365587Y667859D01*
X1365593Y667864D01*
X1365598Y667875D01*
X1365615Y667892D01*
X1365632Y667920D01*
X1365654Y667958D01*
X1365681Y667997D01*
X1365709Y668053D01*
X1365737Y668108D01*
X1365759Y668180D01*
X1365786Y668257D01*
X1365814Y668341D01*
X1365836Y668435D01*
X1365853Y668534D01*
X1365870Y668645D01*
X1365875Y668767D01*
X1365881Y668894D01*
Y670910D01*
D02*
G37*
G36*
X1138668Y522739D02*
X1138624D01*
X1138590Y522734D01*
X1138552D01*
X1138502Y522728D01*
X1138452Y522723D01*
X1138391Y522717D01*
X1138264Y522701D01*
X1138120Y522668D01*
X1137970Y522629D01*
X1137815Y522573D01*
X1137821Y522568D01*
X1137832Y522562D01*
X1137854Y522551D01*
X1137882Y522529D01*
X1137920Y522512D01*
X1137965Y522485D01*
X1138015Y522463D01*
X1138070Y522429D01*
X1138192Y522374D01*
X1138336Y522313D01*
X1138491Y522258D01*
X1138651Y522208D01*
X1138446Y521593D01*
X1138435D01*
X1138413Y521604D01*
X1138374Y521615D01*
X1138325Y521632D01*
X1138264Y521654D01*
X1138192Y521682D01*
X1138109Y521710D01*
X1138020Y521748D01*
X1137926Y521787D01*
X1137832Y521831D01*
X1137627Y521937D01*
X1137428Y522058D01*
X1137334Y522130D01*
X1137239Y522202D01*
X1137228Y522197D01*
X1137206Y522169D01*
X1137173Y522130D01*
X1137123Y522075D01*
X1137068Y522003D01*
X1137001Y521914D01*
X1136935Y521815D01*
X1136863Y521693D01*
X1136796Y521560D01*
X1136730Y521410D01*
X1136664Y521239D01*
X1136608Y521056D01*
X1136558Y520857D01*
X1136525Y520641D01*
X1136497Y520414D01*
X1136492Y520165D01*
Y520154D01*
Y520131D01*
Y520087D01*
X1136497Y520032D01*
Y519965D01*
X1136503Y519888D01*
X1136514Y519799D01*
X1136525Y519705D01*
X1136542Y519600D01*
X1136558Y519495D01*
X1136603Y519268D01*
X1136669Y519035D01*
X1136713Y518924D01*
X1136758Y518814D01*
X1136763Y518808D01*
X1136769Y518786D01*
X1136785Y518758D01*
X1136807Y518719D01*
X1136835Y518670D01*
X1136868Y518614D01*
X1136907Y518548D01*
X1136951Y518481D01*
X1137007Y518409D01*
X1137062Y518337D01*
X1137129Y518260D01*
X1137195Y518188D01*
X1137273Y518116D01*
X1137356Y518044D01*
X1137439Y517972D01*
X1137533Y517911D01*
X1137538Y517906D01*
X1137555Y517894D01*
X1137583Y517883D01*
X1137621Y517861D01*
X1137671Y517839D01*
X1137727Y517811D01*
X1137793Y517778D01*
X1137865Y517751D01*
X1137943Y517723D01*
X1138031Y517690D01*
X1138125Y517662D01*
X1138225Y517640D01*
X1138330Y517618D01*
X1138435Y517601D01*
X1138552Y517595D01*
X1138668Y517590D01*
X1138712D01*
X1138756Y517595D01*
X1138823Y517601D01*
X1138906Y517612D01*
X1139000Y517623D01*
X1139105Y517645D01*
X1139222Y517673D01*
X1139343Y517706D01*
X1139465Y517751D01*
X1139598Y517800D01*
X1139731Y517861D01*
X1139864Y517939D01*
X1139991Y518022D01*
X1140119Y518121D01*
X1140240Y518238D01*
X1140246Y518243D01*
X1140268Y518265D01*
X1140296Y518304D01*
X1140335Y518359D01*
X1140385Y518426D01*
X1140434Y518509D01*
X1140495Y518609D01*
X1140551Y518719D01*
X1140606Y518847D01*
X1140667Y518991D01*
X1140717Y519151D01*
X1140761Y519323D01*
X1140805Y519511D01*
X1140833Y519716D01*
X1140855Y519932D01*
X1140861Y520165D01*
Y520170D01*
Y520181D01*
Y520198D01*
Y520220D01*
Y520248D01*
X1140855Y520286D01*
X1140850Y520369D01*
X1140844Y520475D01*
X1140827Y520591D01*
X1140811Y520729D01*
X1140783Y520868D01*
X1140750Y521023D01*
X1140711Y521178D01*
X1140661Y521339D01*
X1140600Y521494D01*
X1140528Y521654D01*
X1140451Y521804D01*
X1140357Y521942D01*
X1140246Y522075D01*
X1140240Y522080D01*
X1140218Y522103D01*
X1140185Y522136D01*
X1140135Y522180D01*
X1140074Y522230D01*
X1140002Y522285D01*
X1139914Y522346D01*
X1139820Y522407D01*
X1139709Y522468D01*
X1139593Y522529D01*
X1139460Y522584D01*
X1139321Y522634D01*
X1139172Y522679D01*
X1139011Y522712D01*
X1138845Y522734D01*
X1138668Y522739D01*
D02*
G37*
G36*
X1176755Y585628D02*
X1176744D01*
X1176721D01*
X1176677D01*
X1176622Y585623D01*
X1176555D01*
X1176478Y585617D01*
X1176389Y585606D01*
X1176295Y585595D01*
X1176190Y585578D01*
X1176085Y585562D01*
X1175858Y585517D01*
X1175625Y585451D01*
X1175514Y585407D01*
X1175404Y585362D01*
X1175398Y585357D01*
X1175376Y585351D01*
X1175348Y585335D01*
X1175310Y585313D01*
X1175260Y585285D01*
X1175204Y585252D01*
X1175138Y585213D01*
X1175071Y585169D01*
X1174999Y585113D01*
X1174927Y585058D01*
X1174850Y584991D01*
X1174778Y584925D01*
X1174706Y584847D01*
X1174634Y584764D01*
X1174562Y584681D01*
X1174501Y584587D01*
X1174495Y584582D01*
X1174484Y584565D01*
X1174473Y584537D01*
X1174451Y584499D01*
X1174429Y584449D01*
X1174401Y584393D01*
X1174368Y584327D01*
X1174341Y584255D01*
X1174313Y584177D01*
X1174279Y584089D01*
X1174252Y583995D01*
X1174230Y583895D01*
X1174208Y583790D01*
X1174191Y583685D01*
X1174185Y583568D01*
X1174180Y583452D01*
Y583408D01*
X1174185Y583363D01*
X1174191Y583297D01*
X1174202Y583214D01*
X1174213Y583120D01*
X1174235Y583015D01*
X1174263Y582898D01*
X1174296Y582776D01*
X1174341Y582655D01*
X1174390Y582522D01*
X1174451Y582389D01*
X1174529Y582256D01*
X1174612Y582129D01*
X1174711Y582001D01*
X1174828Y581880D01*
X1174833Y581874D01*
X1174855Y581852D01*
X1174894Y581824D01*
X1174949Y581785D01*
X1175016Y581735D01*
X1175099Y581686D01*
X1175199Y581625D01*
X1175310Y581569D01*
X1175437Y581514D01*
X1175581Y581453D01*
X1175741Y581403D01*
X1175913Y581359D01*
X1176101Y581315D01*
X1176306Y581287D01*
X1176522Y581265D01*
X1176755Y581259D01*
X1176760D01*
X1176771D01*
X1176788D01*
X1176810D01*
X1176838D01*
X1176877Y581265D01*
X1176960Y581270D01*
X1177065Y581276D01*
X1177181Y581293D01*
X1177319Y581309D01*
X1177458Y581337D01*
X1177613Y581370D01*
X1177768Y581409D01*
X1177929Y581459D01*
X1178084Y581520D01*
X1178244Y581592D01*
X1178394Y581669D01*
X1178532Y581763D01*
X1178665Y581874D01*
X1178671Y581880D01*
X1178693Y581902D01*
X1178726Y581935D01*
X1178770Y581985D01*
X1178820Y582046D01*
X1178875Y582118D01*
X1178936Y582206D01*
X1178997Y582300D01*
X1179058Y582411D01*
X1179119Y582527D01*
X1179174Y582660D01*
X1179224Y582799D01*
X1179269Y582948D01*
X1179302Y583109D01*
X1179324Y583275D01*
X1179330Y583452D01*
Y583496D01*
X1179324Y583530D01*
Y583568D01*
X1179318Y583618D01*
X1179313Y583668D01*
X1179307Y583729D01*
X1179291Y583856D01*
X1179258Y584000D01*
X1179219Y584150D01*
X1179163Y584305D01*
X1179158Y584299D01*
X1179152Y584288D01*
X1179141Y584266D01*
X1179119Y584238D01*
X1179102Y584200D01*
X1179075Y584155D01*
X1179053Y584105D01*
X1179019Y584050D01*
X1178964Y583928D01*
X1178903Y583784D01*
X1178848Y583629D01*
X1178798Y583469D01*
X1178183Y583674D01*
Y583685D01*
X1178194Y583707D01*
X1178205Y583745D01*
X1178222Y583795D01*
X1178244Y583856D01*
X1178272Y583928D01*
X1178299Y584011D01*
X1178338Y584100D01*
X1178377Y584194D01*
X1178421Y584288D01*
X1178527Y584493D01*
X1178648Y584692D01*
X1178720Y584786D01*
X1178792Y584881D01*
X1178787Y584892D01*
X1178759Y584914D01*
X1178720Y584947D01*
X1178665Y584997D01*
X1178593Y585052D01*
X1178504Y585119D01*
X1178405Y585185D01*
X1178283Y585257D01*
X1178150Y585324D01*
X1178000Y585390D01*
X1177829Y585457D01*
X1177646Y585512D01*
X1177447Y585562D01*
X1177231Y585595D01*
X1177004Y585623D01*
X1176755Y585628D01*
D02*
G37*
%LPD*%
D10*
X1401100Y431260D02*
X1558000D01*
Y401860D02*
Y431260D01*
X1401100Y401860D02*
X1558000D01*
X1401100D02*
Y431260D01*
X1143270Y428990D02*
X1221470D01*
Y401590D02*
Y428990D01*
X1143270Y401590D02*
X1221470D01*
X1143270D02*
Y428990D01*
X792360Y495180D02*
X840860D01*
Y543680D01*
X792360D02*
X840860D01*
X792360Y495180D02*
Y543680D01*
X1476010Y963544D02*
Y990944D01*
Y963544D02*
X1554210D01*
Y990944D01*
X1476010D02*
X1554210D01*
X1333400Y730615D02*
X1387000D01*
X1333400Y625745D02*
Y730615D01*
Y625745D02*
X1387000D01*
Y730615D01*
X1379731Y899060D02*
Y950060D01*
X1312669D02*
X1379731D01*
X1312669Y899060D02*
Y950060D01*
Y899060D02*
X1379731D01*
X1156830Y505970D02*
Y537970D01*
X1126630D02*
X1156830D01*
X1126630Y505970D02*
Y537970D01*
Y505970D02*
X1156830D01*
X952240Y637590D02*
X983240D01*
Y675590D01*
X952240D02*
X983240D01*
X952240Y637590D02*
Y675590D01*
X1162560Y565290D02*
X1194560D01*
Y595490D01*
X1162560D02*
X1194560D01*
X1162560Y565290D02*
Y595490D01*
X909200Y839920D02*
Y887220D01*
X861200D02*
X909200D01*
X861200Y839920D02*
Y887220D01*
Y839920D02*
X909200D01*
M02*
