M48
;Layer_Color=9474304
;FILE_FORMAT=4:4
METRIC,LZ
;TYPE=PLATED
T1F00S00C0.2000
T3F00S00C0.6600
T4F00S00C0.7112
T5F00S00C0.9000
T6F00S00C1.0000
T7F00S00C1.0200
T8F00S00C1.0400
T9F00S00C1.1000
T10F00S00C2.4000
;TYPE=NON_PLATED
T11F00S00C0.6500
%
T01
X0151257Y0068264
Y0069664
X0151957Y0070364
X0152657Y0069664
X0151957Y0068964
X0152657Y0068264
X0151957Y0067564
X0153357
Y0068964
X0154057Y0068264
Y0069664
X0153357Y0070364
T03
X01212444Y0085287
X01263244
X01237844Y0087827
X01431225Y0085447
X01456625Y0087987
Y0082907
T04
X0159512Y005207
X0160377Y0056007
X0160274Y00628945
Y0065073
Y00672515
Y006943
Y00716085
X0150241Y0073787
X0149352Y0078613
X0144653Y0071882
X0140462Y0071628
Y0061849
X0138811Y0056261
X01443326Y00562989
X0146407Y00561818
X0148971Y0056769
X0153289Y0060706
X0157861Y0060833
X0153035Y0049276
X01533781Y0045856
X0147447Y0047644
X0131572Y0057658
X0121285Y0059055
X0121158Y0068453
X0122174Y00762
X0130683Y0074549
X0129032Y0070231
X0116332Y0067056
X011176Y0068199
X0108585Y0065024
Y0062357
X0103251Y0063246
X0101981Y0066675
X0100203Y0070612
X0093218Y00685848
Y0063309
X0095504Y0055499
X0106172Y0056261
X011176Y0059309
X0117856Y0060579
X0111125Y0052197
X0092132Y00468401
X0089154Y00458926
X0086614Y0046101
X0084836
X0081407Y0047752
X0081661Y0051943
X0082296Y0062357
X00822069Y0071247
X0084074
X0085725Y0069088
X0082169Y0078359
X0069596Y0076835
X0070104Y0073406
X0070993Y0071374
X0073152Y0070231
Y006477
X0076454Y00635
X0074676Y0059309
X00727635Y00590767
X0065913Y0064535
X0066294Y0069596
X0062357Y0070104
X006604Y00745865
X0065278Y0076835
X0078105Y0050038
X007493Y0080391
X0076962Y0084455
X0068326Y0083693
X0079502Y0083947
X0082169Y0084582
X0081407Y009271
X0080645Y0094615
X0092837Y00888365
X009398Y0087872
X01016Y0093599
X010287Y0095504
X0105664
X0107188Y0093599
X0106172Y0081788
X0104394
X0102616
X0115824Y0087376
X0127127Y0091694
X0130302Y0091567
X0139319Y0089789
X0139446Y0094488
X0143256Y0091694
X0141097Y0084201
X0128016Y0080645
X0122047Y0097155
X0156972Y0080645
X0160528Y007938
T05
X0111379Y0097536
X0113919
T06
X0120777Y0041529
X0124496Y0044121
X0128996
X0133132Y0043994
X0137632
Y0050494
X0133132
X0128996Y0050621
X0124496
X0118237Y0041529
X0115697
X0154337Y0084983
Y0087483
X0154051Y00977244
X0151511
X0148971
T07
X0141605Y0041656
X0144145
X0146685
X0149225
X0151765
X0154305
X013729Y0064008
X013475
Y0066548
X013729
Y0069088
X013475
Y0071628
X013729
T08
X0081534Y0041529
X0084074
X0086614
X0089154
X0091694
X0094234
T09
X01242306Y0063754
Y0066294
Y0068834
Y0071374
T10
X0159639Y0042545
X006731Y0042926
X0066929Y0096647
X0159639
T11
X00632785Y006696
Y007274
M30
