**ABCDEFGHIJKLMNOPQRSTUVWXYZabcdefghijklmnopqrstuvwxyz**************************
**PARASOLID !"#$%&'()*+,-./:;<=>?@[\]^_`{|}~0123456789**************************
**PART1;
MC=AMD64;
MC_MODEL=Intel64 Family 6 Model 154 Stepping 3, GenuineIntel;
MC_ID=unknown;
OS=Windows_NT;
OS_RELEASE=unknown;
FRU=CAD Exchanger 3.13.0 (cadexchanger.com);
APPL=unknown;
SITE=unknown;
USER=unknown;
FORMAT=text;
GUISE=transmit;
KEY=RES_1206_RES_1206;
FILE=RES_1206_RES_1206.x_t;
DATE=Mon May  8 11:29:52 2023;
**PART2;
SCH=SCH_1200000_12103;
USFLD_SIZE=0;
**PART3;
**END_OF_HEADER*****************************************************************
T51 : TRANSMIT FILE created by modeller version 120000017 SCH_1200000_121030 12
 1 190 0 2 0 0 0 0 1000.0 1.0e-08 0 0 0 1 0 1 1 11 13 19 17 8 18 16 70 2 0 1 0 0
 4 1 20 0 3 3 1 T74 20 3 1 0 4 0 0 0 0 0 0 0 0 0 0 0 0 0 0 0 0 0 0 0 81 1 4 7 5
 12 0 0 41 0 7 80 1 5 0 6 8001 0 0 0 0 3 5 0 0 0 FFFFTFTFFFFFFF2 79 15 6 SDL/TYS
A_COLOUR83 3 7 0.7529411911964418 0.7529411911964418 0.7529411911964418 19 8 1 0
 1 10 0 9 V13 9 2 0 1 0 0 0 0 8 12 19 10 3 0 1 0 8 11 S13 11 4 0 1 0 12 0 0 10 0
 14 12 5 4 1.0e-08 39 0 14 11 13 -0 0 39 0 9 50 13 6 0 12 40 0 0 +-0.00159988062
 8.0007111999999996e-04 4.2808160000000042e-05 0.0 -1.0 -6.1232339957367659e-17
 -1.0 0.0 0.0 15 14 8 0 15 12 0 17 15 0 14 23 35 16 20 18 0 28 -18 16 9 0 15 0 2
1 17 ?1 29 17 10 0 16 22 0 0.00110011938 8.0007111999999996e-04 4.28081600000000
42e-05 16 18 11 0 ?20 0 26 19 0 0 1 30 19 12 0 18 27 0 0 +0.00110011938 8.000711
1999999996e-04 4.2808160000000042e-05 0.0 -6.1232339957367659e-17 1.0 17 20 0 22
2 89 76 21 15 18 0 86 +18 21 13 0 20 16 24 22 ?1 29 22 14 0 21 25 17 0.001100119
38 8.0007111999999996e-04 5.4280815999999996e-04 17 23 0 14 29 15 24 28 26 0 0 -
18 24 15 0 77 21 30 25 ?1 29 25 16 0 24 31 22 -0.00109988062 8.0007111999999996e
-04 4.2808160000000042e-05 16 26 17 0 ?28 18 32 27 0 0 1 30 27 18 0 26 33 19 0 +
-0.00159988062 8.0007111999999996e-04 4.2808160000000042e-05 1.0 0.0 0.0 17 28 0
 72 73 77 16 23 26 0 76 +17 29 0 14 35 23 30 34 32 0 38 -18 30 19 0 93 24 45 31
 ?1 29 31 20 0 30 46 25 -0.00109988062 8.0007111999999996e-04 5.4280815999999996
e-04 16 32 21 0 ?34 26 36 33 0 0 1 30 33 22 0 32 37 27 0 +-0.00109988062 8.00071
11999999996e-04 4.2808160000000042e-05 0.0 6.1232339957367659e-17 -1.0 17 34 0 1
56 80 93 24 29 32 0 23 +17 35 0 14 15 29 21 38 36 0 0 +16 36 23 0 ?35 32 47 37 0
 0 1 30 37 24 0 36 48 33 0 +-0.00159988062 8.0007111999999996e-04 5.428081599999
9996e-04 1.0 0.0 0.0 17 38 0 85 90 86 30 35 36 0 0 -14 39 25 41 1.0e-08 68 12 43
 11 40 -0 0 68 12 9 50 40 26 0 39 69 13 0 +-0.00159988062 -7.9992888000000004e-0
4 4.2808159999999989e-05 0.0 1.0 6.1232339957367659e-17 1.0 0.0 0.0 81 1 41 27 5
 39 0 0 70 4 42 83 3 42 0.7529411911964418 0.7529411911964418 0.7529411911964418
 15 43 28 0 44 39 0 17 44 0 43 52 64 45 49 47 0 89 -18 45 29 0 44 30 50 46 ?1 29
 46 30 0 45 51 31 0.00110011938 -7.9992888000000004e-04 5.4280815999999996e-04 1
6 47 31 0 ?49 36 55 48 0 0 1 30 48 32 0 47 56 37 0 +0.00110011938 -7.99928880000
00004e-04 4.2808159999999989e-05 0.0 6.1232339957367659e-17 -1.0 17 49 0 222 76
 89 50 44 47 0 64 +18 50 33 0 49 45 53 51 ?1 29 51 34 0 50 54 46 0.00110011938 -
7.9992888000000004e-04 4.2808159999999989e-05 17 52 0 43 58 44 53 57 55 0 0 +18
 53 35 0 63 50 59 54 ?1 29 54 36 0 53 60 51 -0.00109988062 -7.9992888000000004e-
04 5.4280815999999996e-04 16 55 37 0 ?52 47 61 56 0 0 1 30 56 38 0 55 62 48 0 +-
0.00159988062 -7.9992888000000004e-04 5.4280815999999996e-04 -1.0 0.0 0.0 17 57
 0 85 86 90 45 52 55 0 0 -17 58 0 43 64 52 59 63 61 0 67 -18 59 39 0 80 53 100 6
0 ?1 29 60 40 0 59 101 54 -0.00109988062 -7.9992888000000004e-04 4.2808159999999
989e-05 16 61 41 0 ?63 55 65 62 0 0 1 30 62 42 0 61 66 56 0 +-0.00109988062 -7.9
992888000000004e-04 4.2808159999999989e-05 0.0 -6.1232339957367659e-17 1.0 17 63
 0 156 93 80 53 58 61 0 90 +17 64 0 43 44 58 50 67 65 0 73 -16 65 43 0 ?67 61 74
 66 0 0 1 30 66 44 0 65 75 62 0 +-0.00159988062 -7.9992888000000004e-04 4.280815
9999999989e-05 -1.0 0.0 0.0 17 67 0 72 77 73 59 64 65 0 0 +14 68 45 70 1.0e-08 8
1 39 72 11 69 +0 0 81 39 9 50 69 46 0 68 82 40 0 +-0.00159988062 8.0007111999999
996e-04 4.2808160000000042e-05 0.0 6.1232339957367659e-17 -1.0 0.0 1.0 6.1232339
957367659e-17 81 1 70 47 5 68 0 0 83 41 71 83 3 71 0.7529411911964418 0.75294119
11964418 0.7529411911964418 15 72 48 0 28 68 0 17 73 0 72 67 28 50 76 74 0 0 +16
 74 49 0 ?73 65 78 75 0 0 1 30 75 50 0 74 79 66 0 +0.00110011938 8.0007111999999
996e-04 4.2808160000000042e-05 0.0 -1.0 -6.1232339957367659e-17 17 76 0 222 20 4
9 16 73 74 0 0 -17 77 0 72 28 67 24 80 78 0 34 +16 78 51 0 ?77 74 87 79 0 0 1 30
 79 52 0 78 88 75 0 +-0.00109988062 8.0007111999999996e-04 4.2808160000000042e-0
5 0.0 1.0 6.1232339957367659e-17 17 80 0 156 63 34 59 77 78 0 58 -14 81 53 83 1.
0e-08 94 68 85 11 82 -0 0 94 68 9 50 82 54 0 81 95 69 0 +-0.00159988062 8.000711
1999999996e-04 5.4280815999999996e-04 0.0 6.1232339957367659e-17 -1.0 0.0 1.0 6.
1232339957367659e-17 81 1 83 55 5 81 0 0 96 70 84 83 3 84 0.7529411911964418 0.7
529411911964418 0.7529411911964418 15 85 56 0 86 81 0 17 86 0 85 38 57 21 89 87
 0 35 -16 87 57 0 ?89 78 91 88 0 0 1 30 88 58 0 87 92 79 0 +0.00110011938 8.0007
111999999996e-04 5.4280815999999996e-04 0.0 -1.0 -6.1232339957367659e-17 17 89 0
 222 49 20 45 86 87 0 57 +17 90 0 85 57 38 53 93 91 0 52 -16 91 59 0 ?93 87 102
 92 0 0 1 30 92 60 0 91 103 88 0 +-0.00109988062 8.0007111999999996e-04 5.428081
5999999996e-04 0.0 1.0 6.1232339957367659e-17 17 93 0 156 34 63 30 90 91 0 29 +1
4 94 61 96 1.0e-08 123 81 98 11 95 -0 0 123 81 9 50 95 62 0 94 124 82 0 +-0.0010
9988062 0.0016108040951649 5.7280816000000004e-04 -1.7618285302889446e-16 6.1232
339957367659e-17 -1.0 -1.0 -1.0788088351324208e-32 1.7618285302889446e-16 81 1 9
6 63 5 94 0 0 125 83 97 83 3 97 0.7921568751335144 0.8196078538894654 0.93333333
73069764 15 98 64 0 99 94 0 17 99 0 98 107 119 100 104 102 0 112 -18 100 65 0 99
 59 105 101 ?1 29 101 66 0 100 106 60 -0.00109988062 8.3007111999999985e-04 5.72
80815999999994e-04 16 102 67 0 ?104 91 110 103 0 0 1 30 103 68 0 102 111 92 0 +-
0.00109988062 0.0016108040951649 5.7280815999999994e-04 0.0 -1.0 -6.123233995736
7659e-17 17 104 0 157 162 158 105 99 102 0 165 +18 105 69 0 119 100 108 106 ?1 2
9 106 70 0 105 109 101 -0.00109988062 -8.2992887999999994e-04 5.7280815999999986
e-04 17 107 0 98 113 99 108 112 110 0 118 +18 108 71 0 107 105 114 109 ?1 29 109
 72 0 108 115 106 -0.00159988062 8.3007111999999985e-04 5.7280816000000004e-04 1
6 110 73 0 ?107 102 116 111 0 0 1 30 111 74 0 110 117 103 0 +-0.00109988062 8.30
07111999999985e-04 5.7280815999999994e-04 -1.0 -1.0788088351324208e-32 1.7618285
302889446e-16 17 112 0 170 161 171 100 107 110 0 158 -17 113 0 98 119 107 114 11
8 116 0 183 +18 114 75 0 122 108 129 115 ?1 29 115 76 0 114 130 109 -0.001599880
62 -8.2992887999999994e-04 5.7280815999999994e-04 16 116 77 0 ?113 110 120 117 0
 0 1 30 117 78 0 116 121 111 0 +-0.00159988062 0.0016108040951649 5.728081600000
0004e-04 0.0 -1.0 -6.1232339957367659e-17 17 118 0 188 174 183 108 113 116 0 171
 -17 119 0 98 99 113 105 122 120 0 104 -16 120 79 0 ?122 116 131 121 0 0 1 30 12
1 80 0 120 132 117 0 +-0.00109988062 -8.2992887999999994e-04 5.7280815999999986e
-04 -1.0 -1.0788088351324208e-32 1.7618285302889446e-16 17 122 0 179 180 165 114
 119 120 0 113 +14 123 81 125 1.0e-08 152 94 127 11 124 -0 0 152 94 9 50 124 82
 0 123 153 95 0 +-0.00109988062 0.0016108040951649 1.2808160000000069e-05 2.1684
043449710089e-16 -6.1232339957367659e-17 1.0 1.0 1.3277647201629797e-32 -2.16840
43449710089e-16 81 1 125 83 5 123 0 0 154 96 126 83 3 126 0.7921568751335144 0.8
196078538894654 0.9333333373069764 15 127 84 0 128 123 0 17 128 0 127 136 148 12
9 133 131 0 141 -18 129 85 0 128 114 134 130 ?1 29 130 86 0 129 135 115 -0.00159
988062 8.3007111999999985e-04 1.2808160000000069e-05 16 131 87 0 ?133 120 139 13
2 0 0 1 30 132 88 0 131 140 121 0 +-0.00159988062 0.0016108040951649 1.280816000
000018e-05 0.0 -1.0 -6.1232339957367659e-17 17 133 0 188 183 174 134 128 131 0 1
80 +18 134 89 0 133 129 137 135 ?1 29 135 90 0 134 138 130 -0.00159988062 -8.299
2887999999994e-04 1.2808160000000069e-05 17 136 0 127 142 128 137 141 139 0 161
 +18 137 91 0 147 134 143 138 ?1 29 138 92 0 137 144 135 -0.00109988062 8.300711
1999999985e-04 1.2808159999999958e-05 16 139 93 0 ?136 131 145 140 0 0 1 30 140
 94 0 139 146 132 0 +-0.00109988062 8.3007111999999985e-04 1.2808159999999958e-0
5 1.0 1.3277647201629797e-32 -2.1684043449710089e-16 17 141 0 170 171 161 129 13
6 139 0 174 -17 142 0 127 148 136 143 147 145 0 151 +18 143 95 0 142 137 195 144
 ?1 29 144 96 0 143 196 138 -0.00109988062 -8.2992887999999994e-04 1.28081599999
99958e-05 16 145 97 0 ?142 139 149 146 0 0 1 30 146 98 0 145 150 140 0 +-0.00109
988062 0.0016108040951649 1.2808160000000069e-05 0.0 -1.0 -6.1232339957367659e-1
7 17 147 0 157 158 162 137 142 145 0 136 -17 148 0 127 128 142 134 151 149 0 0 -
16 149 99 0 ?151 145 159 150 0 0 1 30 150 100 0 149 160 146 0 +-0.00109988062 -8
.2992887999999994e-04 1.2808159999999958e-05 1.0 1.3277647201629797e-32 -2.16840
43449710089e-16 17 151 0 179 165 180 143 148 149 0 162 +14 152 101 154 1.0e-08 1
66 123 156 11 153 -0 0 166 123 9 50 153 102 0 152 167 124 0 +-0.00109988062 0.00
16108040951649 1.2808160000000069e-05 -1.0 0.0 0.0 0.0 1.0 6.1232339957367659e-1
7 81 1 154 103 5 152 0 0 168 125 155 83 3 155 0.7921568751335144 0.8196078538894
654 0.9333333373069764 15 156 104 0 80 152 157 15 157 105 0 147 152 0 17 158 0 1
57 104 147 100 161 159 0 0 +16 159 106 0 ?158 149 163 160 0 0 1 30 160 107 0 159
 164 150 0 +-0.00109988062 8.3007111999999985e-04 1.2808159999999958e-05 0.0 -6.
1232339957367659e-17 1.0 17 161 0 170 141 112 137 158 159 0 0 -17 162 0 157 147
 104 143 165 163 0 0 -16 163 108 0 ?165 159 172 164 0 0 1 30 164 109 0 163 173 1
60 0 +-0.00109988062 -8.2992887999999994e-04 1.2808159999999958e-05 0.0 -6.12323
39957367659e-17 1.0 17 165 0 179 122 151 105 162 163 0 0 +14 166 110 168 1.0e-08
 175 152 170 11 167 -0 0 175 152 9 50 167 111 0 166 176 153 0 +-0.00159988062 8.
3007112000000003e-04 4.2808160000000042e-05 0.0 -1.0 -6.1232339957367659e-17 -1.
0 0.0 0.0 81 1 168 112 5 166 0 0 177 154 169 83 3 169 0.7921568751335144 0.81960
78538894654 0.9333333373069764 15 170 113 0 141 166 0 17 171 0 170 112 141 108 1
74 172 0 0 -16 172 114 0 ?174 163 181 173 0 0 1 30 173 115 0 172 182 164 0 +-0.0
0159988062 8.3007111999999985e-04 1.2808160000000069e-05 0.0 6.1232339957367659e
-17 -1.0 17 174 0 188 133 118 129 171 172 0 0 +14 175 116 177 1.0e-08 184 166 17
9 11 176 -0 0 184 166 9 50 176 117 0 175 185 167 0 +-0.00159988062 -8.2992887999
999994e-04 4.2808159999999989e-05 0.0 1.0 6.1232339957367659e-17 1.0 0.0 0.0 81
 1 177 118 5 175 0 0 186 168 178 83 3 178 0.7921568751335144 0.8196078538894654
 0.9333333373069764 15 179 119 0 165 175 0 17 180 0 179 151 122 134 183 181 0 14
8 +16 181 120 0 ?180 172 197 182 0 0 1 30 182 121 0 181 198 173 0 +-0.0015998806
2 -8.2992887999999994e-04 1.2808160000000069e-05 0.0 6.1232339957367659e-17 -1.0
 17 183 0 188 118 133 114 180 181 0 0 -14 184 122 186 1.0e-08 189 175 188 11 185
 -0 0 189 175 9 50 185 123 0 184 190 176 0 +-0.00159988062 -7.9992888000000004e-
04 4.2808159999999989e-05 1.0 -1.3552527156068806e-16 -8.2985295010186224e-33 -1
.3552527156068806e-16 -1.0 -6.1232339957367659e-17 81 1 186 124 5 184 0 0 191 17
7 187 83 3 187 0.7921568751335144 0.8196078538894654 0.9333333373069764 15 188 1
25 0 118 184 0 14 189 126 191 1.0e-08 218 184 193 11 190 -0 0 218 184 9 50 190 1
27 0 189 219 185 0 +0.00110011938 0.0016108040951649 5.7280815999999978e-04 -6.7
762635780344018e-17 6.1232339957367659e-17 -1.0 -1.0 -4.1492647505093094e-33 6.7
762635780344018e-17 81 1 191 128 5 189 0 0 220 186 192 83 3 192 0.79215687513351
44 0.8196078538894654 0.9333333373069764 15 193 129 0 194 189 0 17 194 0 193 202
 214 195 199 197 0 269 -18 195 130 0 194 143 200 196 ?1 29 196 131 0 195 201 144
 0.00160011938 8.3007111999999985e-04 5.7280815999999968e-04 16 197 132 0 ?199 1
81 205 198 0 0 1 30 198 133 0 197 206 182 0 +0.00160011938 0.0016108040951649 5.
7280815999999978e-04 0.0 -1.0 -6.1232339957367659e-17 17 199 0 283 278 269 200 1
94 197 0 275 +18 200 134 0 214 195 203 201 ?1 29 201 135 0 200 204 196 0.0016001
1938 -8.2992887999999994e-04 5.728081599999995e-04 17 202 0 193 208 194 203 207
 205 0 213 +18 203 136 0 229 200 209 204 ?1 29 204 137 0 203 210 201 0.001100119
38 8.3007111999999985e-04 5.7280815999999978e-04 16 205 138 0 ?202 197 211 206 0
 0 1 30 206 139 0 205 212 198 0 +0.00110011938 8.3007111999999985e-04 5.72808159
99999978e-04 -1.0 -4.1492647505093094e-33 6.7762635780344018e-17 17 207 0 265 26
6 229 195 202 205 0 0 -17 208 0 193 214 202 209 213 211 0 0 +18 209 140 0 217 20
3 225 210 ?1 29 210 141 0 209 226 204 0.00110011938 -8.2992887999999994e-04 5.72
80815999999968e-04 16 211 142 0 ?208 205 215 212 0 0 1 30 212 143 0 211 216 206
 0 +0.00110011938 0.0016108040951649 5.7280815999999978e-04 0.0 -1.0 -6.12323399
57367659e-17 17 213 0 223 224 236 203 208 211 0 0 -17 214 0 193 194 208 200 217
 215 0 199 -16 215 144 0 ?217 211 227 216 0 0 1 30 216 145 0 215 228 212 0 +0.00
110011938 -8.2992887999999994e-04 5.7280815999999968e-04 -1.0 -4.149264750509309
4e-33 6.7762635780344018e-17 17 217 0 274 239 275 209 214 215 0 236 +14 218 146
 220 1.0e-08 240 189 222 11 219 -0 0 240 189 9 50 219 147 0 218 241 190 0 +0.001
10011938 0.0016108040951649 1.2808159999999847e-05 1.0 0.0 0.0 0.0 -1.0 -6.12323
39957367659e-17 81 1 220 148 5 218 0 0 242 191 221 83 3 221 0.7921568751335144 0
.8196078538894654 0.9333333373069764 15 222 149 0 76 218 223 15 223 150 0 213 21
8 0 17 224 0 223 230 213 225 229 227 0 250 +18 225 151 0 224 209 231 226 ?1 29 2
26 152 0 225 232 210 0.00110011938 8.3007111999999985e-04 1.2808159999999736e-05
 16 227 153 0 ?224 215 233 228 0 0 1 30 228 154 0 227 234 216 0 +0.00110011938 8
.3007111999999985e-04 1.2808159999999736e-05 0.0 6.1232339957367659e-17 -1.0 17
 229 0 265 207 250 203 224 227 0 202 -17 230 0 223 236 224 231 235 233 0 257 +18
 231 155 0 239 225 246 232 ?1 29 232 156 0 231 247 226 0.00110011938 -8.29928879
99999994e-04 1.2808159999999736e-05 16 233 157 0 ?230 227 237 234 0 0 1 30 234 1
58 0 233 238 228 0 +0.00110011938 0.0016108040951649 1.2808159999999847e-05 0.0
 -1.0 -6.1232339957367659e-17 17 235 0 244 245 257 225 230 233 0 0 -17 236 0 223
 213 230 209 239 237 0 208 -16 237 159 0 ?239 233 248 238 0 0 1 30 238 160 0 237
 249 234 0 +0.00110011938 -8.2992887999999994e-04 1.2808159999999736e-05 0.0 6.1
232339957367659e-17 -1.0 17 239 0 274 260 217 231 236 237 0 230 +14 240 161 242
 1.0e-08 261 218 244 11 241 -0 0 261 218 9 50 241 162 0 240 262 219 0 +0.0011001
1938 0.0016108040951649 1.2808159999999847e-05 2.1684043449710089e-16 -6.1232339
957367659e-17 1.0 1.0 1.3277647201629797e-32 -2.1684043449710089e-16 81 1 242 16
3 5 240 0 0 263 220 243 83 3 243 0.7921568751335144 0.8196078538894654 0.9333333
373069764 15 244 164 0 235 240 0 17 245 0 244 251 235 246 250 248 0 256 +18 246
 165 0 245 231 252 247 ?1 29 247 166 0 246 253 232 0.00160011938 8.3007111999999
985e-04 1.2808159999999625e-05 16 248 167 0 ?245 237 254 249 0 0 1 30 249 168 0
 248 255 238 0 +0.00110011938 8.3007111999999985e-04 1.2808159999999736e-05 1.0
 1.3277647201629797e-32 -2.1684043449710089e-16 17 250 0 265 229 266 225 245 248
 0 235 -17 251 0 244 257 245 252 256 254 0 0 +18 252 169 0 260 246 0 253 ?1 29 2
53 170 0 252 0 247 0.00160011938 -8.2992887999999994e-04 1.2808159999999625e-05
 16 254 171 0 ?251 248 258 255 0 0 1 30 255 172 0 254 259 249 0 +0.00160011938 0
.0016108040951649 1.2808159999999736e-05 0.0 -1.0 -6.1232339957367659e-17 17 256
 0 283 269 278 246 251 254 0 266 -17 257 0 244 235 251 231 260 258 0 0 -16 258 1
73 0 ?260 254 267 259 0 0 1 30 259 174 0 258 268 255 0 +0.00110011938 -8.2992887
999999994e-04 1.2808159999999736e-05 1.0 1.3277647201629797e-32 -2.1684043449710
089e-16 17 260 0 274 275 239 252 257 258 0 278 +14 261 175 263 1.0e-08 270 240 2
65 11 262 -0 0 270 240 9 50 262 176 0 261 271 241 0 +-0.00159988062 8.3007112000
000003e-04 4.2808160000000042e-05 0.0 -1.0 -6.1232339957367659e-17 -1.0 0.0 0.0
 81 1 263 177 5 261 0 0 272 242 264 83 3 264 0.7921568751335144 0.81960785388946
54 0.9333333373069764 15 265 178 0 229 261 0 17 266 0 265 250 207 246 269 267 0
 0 -16 267 179 0 ?269 258 276 268 0 0 1 30 268 180 0 267 277 259 0 +0.0016001193
8 8.3007111999999985e-04 1.2808159999999625e-05 0.0 -6.1232339957367659e-17 1.0
 17 269 0 283 199 256 195 266 267 0 207 +14 270 181 272 1.0e-08 279 261 274 11 2
71 -0 0 279 261 9 50 271 182 0 270 280 262 0 +-0.00159988062 -8.2992887999999994
e-04 4.2808159999999989e-05 0.0 1.0 6.1232339957367659e-17 1.0 0.0 0.0 81 1 272
 183 5 270 0 0 281 263 273 83 3 273 0.7921568751335144 0.8196078538894654 0.9333
333373069764 15 274 184 0 260 270 0 17 275 0 274 217 260 200 278 276 0 0 +16 276
 185 0 ?275 267 0 277 0 0 1 30 277 186 0 276 0 268 0 +0.00160011938 -8.299288799
9999994e-04 1.2808159999999625e-05 0.0 -6.1232339957367659e-17 1.0 17 278 0 283
 256 199 252 275 276 0 251 -14 279 187 281 1.0e-08 0 270 283 11 280 -0 0 0 270 9
 50 280 188 0 279 0 271 0 +0.00160011938 -7.9992888000000004e-04 4.2808159999999
989e-05 -1.0 -1.3552527156068806e-16 -8.2985295010186224e-33 -1.3552527156068806
e-16 1.0 6.1232339957367659e-17 81 1 281 189 5 279 0 0 0 272 282 83 3 282 0.7921
568751335144 0.8196078538894654 0.9333333373069764 15 283 190 0 256 279 0 1 0 
