G04*
G04 #@! TF.GenerationSoftware,Altium Limited,Altium Designer,23.2.1 (34)*
G04*
G04 Layer_Physical_Order=2*
G04 Layer_Color=16711680*
%FSLAX44Y44*%
%MOMM*%
G71*
G04*
G04 #@! TF.SameCoordinates,8496A63A-E985-4FE9-BA7E-BC2AAF8C8172*
G04*
G04*
G04 #@! TF.FilePolarity,Positive*
G04*
G01*
G75*
%ADD11C,0.2540*%
%ADD19R,2.0000X2.0000*%
%ADD101C,0.4000*%
%ADD102C,0.6000*%
%ADD104C,1.6000*%
%ADD105R,1.6000X1.6000*%
%ADD106C,1.5080*%
%ADD107R,1.5080X1.5080*%
%ADD108R,1.2000X1.2000*%
%ADD109C,1.2000*%
%ADD110O,2.1000X1.0000*%
%ADD111C,0.6500*%
%ADD112O,1.8000X1.0000*%
%ADD113C,1.0000*%
%ADD114R,1.0000X1.0000*%
%ADD115R,1.5500X1.5500*%
%ADD116C,1.5500*%
%ADD117C,0.8000*%
%ADD118C,1.2700*%
G36*
X1256714Y1169416D02*
X1259269D01*
X1264281Y1168419D01*
X1269003Y1166463D01*
X1273252Y1163624D01*
X1275059Y1161817D01*
X1305290Y1131586D01*
X1307468Y1129408D01*
X1310891Y1124286D01*
X1313248Y1118594D01*
X1314450Y1112552D01*
Y1109472D01*
Y983637D01*
X1313876Y983400D01*
X1313242Y981869D01*
Y802799D01*
X1313876Y801268D01*
X1314450Y801031D01*
Y737367D01*
X1313766Y733552D01*
X1313766Y733552D01*
X1313766Y733552D01*
Y678180D01*
Y675100D01*
X1312565Y669058D01*
X1310207Y663366D01*
X1307266Y658965D01*
X1304606Y656066D01*
X1304606D01*
X1304606Y656066D01*
X1274375Y625835D01*
X1272568Y624028D01*
X1268319Y621189D01*
X1263598Y619233D01*
X1258585Y618236D01*
X500094D01*
X494052Y619438D01*
X488360Y621795D01*
X483238Y625218D01*
X481060Y627396D01*
X454930Y653526D01*
X452752Y655704D01*
X449329Y660826D01*
X446972Y666518D01*
X445770Y672560D01*
Y675640D01*
Y691642D01*
X445619Y694707D01*
X444423Y700720D01*
X442077Y706384D01*
X438671Y711482D01*
X436610Y713756D01*
X436610Y713756D01*
X370404Y779962D01*
X368696Y781670D01*
X366012Y785687D01*
X364163Y790151D01*
X363220Y794890D01*
Y797306D01*
Y990346D01*
Y992762D01*
X364163Y997501D01*
X366012Y1001964D01*
X368696Y1005982D01*
X370404Y1007690D01*
X370404D01*
X436610Y1073896D01*
X438671Y1076170D01*
X442077Y1081268D01*
X444423Y1086932D01*
X445619Y1092945D01*
X445770Y1096010D01*
Y1112012D01*
Y1115092D01*
X446972Y1121134D01*
X449329Y1126826D01*
X452752Y1131948D01*
X454930Y1134126D01*
Y1134126D01*
X481060Y1160256D01*
X483238Y1162434D01*
X488360Y1165857D01*
X494052Y1168214D01*
X500094Y1169416D01*
X503174D01*
X1256714Y1169416D01*
D02*
G37*
%LPC*%
G36*
X631671Y1113226D02*
X628489D01*
X625548Y1112008D01*
X623298Y1109757D01*
X622080Y1106817D01*
Y1103634D01*
X623298Y1100694D01*
X625548Y1098444D01*
X628489Y1097226D01*
X631671D01*
X634612Y1098444D01*
X636862Y1100694D01*
X638080Y1103634D01*
Y1106817D01*
X636862Y1109757D01*
X634612Y1112008D01*
X631671Y1113226D01*
D02*
G37*
G36*
X731911Y1075150D02*
X728589D01*
X725520Y1073879D01*
X723171Y1071530D01*
X721900Y1068461D01*
Y1065139D01*
X722478Y1063743D01*
X715192Y1056458D01*
X714470Y1055376D01*
X714216Y1054100D01*
Y996474D01*
X645160D01*
X643884Y996220D01*
X642803Y995498D01*
X612323Y965017D01*
X611600Y963936D01*
X611346Y962660D01*
Y838994D01*
X596411D01*
X596359Y839120D01*
X594010Y841469D01*
X590941Y842740D01*
X587619D01*
X584550Y841469D01*
X582201Y839120D01*
X580930Y836051D01*
Y832729D01*
X582201Y829660D01*
X584550Y827311D01*
X587619Y826040D01*
X590941D01*
X594010Y827311D01*
X596359Y829660D01*
X597463Y832326D01*
X611346D01*
Y809625D01*
X610054Y809090D01*
X607705Y806741D01*
X606434Y803672D01*
Y800350D01*
X607705Y797281D01*
X610054Y794932D01*
X611450Y794354D01*
Y754276D01*
X611703Y753000D01*
X612426Y751919D01*
X650423Y713923D01*
X651504Y713200D01*
X652780Y712946D01*
X806139D01*
X806996Y710876D01*
X809680Y708192D01*
X813186Y706740D01*
X816982D01*
X820488Y708192D01*
X823172Y710876D01*
X824624Y714382D01*
Y718178D01*
X824075Y719503D01*
X833283Y728712D01*
X886460D01*
X886460Y728712D01*
X888021Y729022D01*
X889344Y729906D01*
X910934Y751496D01*
X910934Y751496D01*
X911818Y752819D01*
X912128Y754380D01*
X912128Y754380D01*
Y795871D01*
X919170Y802913D01*
X927191D01*
X928051Y802052D01*
X928051Y802052D01*
X929374Y801168D01*
X930935Y800858D01*
X934880D01*
Y800651D01*
X936402Y796975D01*
X939215Y794162D01*
X942891Y792640D01*
X946869D01*
X950545Y794162D01*
X953358Y796975D01*
X954880Y800651D01*
Y804629D01*
X953358Y808305D01*
X950545Y811118D01*
X946869Y812640D01*
X942891D01*
X939215Y811118D01*
X937112Y809014D01*
X932624D01*
X931764Y809875D01*
X930441Y810759D01*
X928880Y811069D01*
X928880Y811069D01*
X917481D01*
X917481Y811069D01*
X915920Y810759D01*
X914597Y809875D01*
X914597Y809875D01*
X905166Y800444D01*
X904282Y799121D01*
X903972Y797560D01*
X903972Y797560D01*
Y756069D01*
X884771Y736868D01*
X831594D01*
X831594Y736868D01*
X830033Y736558D01*
X828710Y735674D01*
X828710Y735674D01*
X818307Y725271D01*
X816982Y725820D01*
X813186D01*
X809680Y724368D01*
X806996Y721684D01*
X806139Y719614D01*
X654161D01*
X618118Y755657D01*
Y794354D01*
X619514Y794932D01*
X621862Y797281D01*
X623134Y800350D01*
Y803672D01*
X621862Y806741D01*
X619514Y809090D01*
X618014Y809711D01*
Y816513D01*
X622014Y817308D01*
X622945Y815061D01*
X625294Y812712D01*
X628363Y811441D01*
X631685D01*
X634754Y812712D01*
X637103Y815061D01*
X638374Y818130D01*
Y821452D01*
X637103Y824521D01*
X634754Y826870D01*
X633254Y827491D01*
Y953659D01*
X654161Y974566D01*
X770853D01*
X771431Y973170D01*
X773780Y970821D01*
X776849Y969550D01*
X780171D01*
X781567Y970128D01*
X808196Y943499D01*
Y887730D01*
X808450Y886454D01*
X809173Y885372D01*
X871403Y823142D01*
X872484Y822420D01*
X873760Y822166D01*
X963819D01*
X966946Y819039D01*
Y812083D01*
X964615Y811118D01*
X961802Y808305D01*
X960280Y804629D01*
Y800651D01*
X961802Y796975D01*
X964615Y794162D01*
X968291Y792640D01*
X972269D01*
X975945Y794162D01*
X978758Y796975D01*
X980280Y800651D01*
Y804629D01*
X978758Y808305D01*
X975945Y811118D01*
X973614Y812083D01*
Y820420D01*
X973360Y821696D01*
X972637Y822778D01*
X969629Y825786D01*
X971286Y829786D01*
X1028911D01*
X1038066Y820631D01*
Y754491D01*
X1022239Y738664D01*
X964575D01*
X963299Y738410D01*
X962217Y737688D01*
X944144Y719614D01*
X937928D01*
X937071Y721684D01*
X934387Y724368D01*
X930881Y725820D01*
X927086D01*
X923579Y724368D01*
X920896Y721684D01*
X919443Y718178D01*
Y714382D01*
X920896Y710876D01*
X923579Y708192D01*
X927086Y706740D01*
X930881D01*
X934387Y708192D01*
X937071Y710876D01*
X937928Y712946D01*
X945525D01*
X946801Y713200D01*
X947883Y713923D01*
X965956Y731996D01*
X1023620D01*
X1024896Y732250D01*
X1025977Y732972D01*
X1041686Y748681D01*
X1045686Y747024D01*
Y729010D01*
X1045940Y727735D01*
X1046663Y726653D01*
X1064859Y708456D01*
X1065093Y707281D01*
X1065816Y706199D01*
X1068480Y703535D01*
Y688750D01*
X1087980D01*
Y708250D01*
X1073195D01*
X1071487Y709958D01*
X1071253Y711133D01*
X1070531Y712215D01*
X1052354Y730391D01*
Y825426D01*
X1052100Y826702D01*
X1051377Y827783D01*
X1036063Y843098D01*
X1034982Y843820D01*
X1033706Y844074D01*
X886571D01*
X840264Y890381D01*
Y953733D01*
X841660Y954311D01*
X844009Y956660D01*
X845280Y959729D01*
Y963051D01*
X844009Y966120D01*
X841660Y968469D01*
X838591Y969740D01*
X835269D01*
X832200Y968469D01*
X830351Y966620D01*
X828040Y966340D01*
X825729Y966620D01*
X823880Y968469D01*
X820811Y969740D01*
X817489D01*
X814420Y968469D01*
X812071Y966120D01*
X810800Y963051D01*
Y959729D01*
X812071Y956660D01*
X814133Y954598D01*
X814222Y952647D01*
X814213Y952569D01*
X810012Y951113D01*
X786282Y974843D01*
X786860Y976239D01*
Y979561D01*
X786282Y980957D01*
X807831Y1002506D01*
X900319D01*
X909540Y993285D01*
X908590Y990991D01*
Y987669D01*
X909861Y984600D01*
X912210Y982251D01*
X915279Y980980D01*
X918601D01*
X919099Y981186D01*
X926012Y974273D01*
X927094Y973550D01*
X928370Y973296D01*
X1104561D01*
X1107055Y970235D01*
X1106710Y969401D01*
Y966079D01*
X1107981Y963010D01*
X1110330Y960661D01*
X1113399Y959390D01*
X1116721D01*
X1119790Y960661D01*
X1122139Y963010D01*
X1123410Y966079D01*
Y969401D01*
X1122139Y972470D01*
X1119790Y974819D01*
X1119745Y974837D01*
Y979167D01*
X1121060Y979711D01*
X1123409Y982060D01*
X1124680Y985129D01*
Y988451D01*
X1123409Y991520D01*
X1121060Y993869D01*
X1117991Y995140D01*
X1114669D01*
X1111600Y993869D01*
X1109251Y991520D01*
X1107980Y988451D01*
Y987584D01*
X944991D01*
X916758Y1015817D01*
X915676Y1016540D01*
X914400Y1016794D01*
X795238D01*
X793962Y1016540D01*
X792880Y1015817D01*
X787881Y1010818D01*
X787050Y1011649D01*
X783981Y1012920D01*
X780659D01*
X777590Y1011649D01*
X775241Y1009300D01*
X773970Y1006231D01*
Y1002909D01*
X774548Y1001513D01*
X769509Y996474D01*
X720884D01*
Y1052719D01*
X727193Y1059028D01*
X728589Y1058450D01*
X731911D01*
X734980Y1059721D01*
X737329Y1062070D01*
X738600Y1065139D01*
Y1068461D01*
X737329Y1071530D01*
X734980Y1073879D01*
X731911Y1075150D01*
D02*
G37*
G36*
X1083310Y1078248D02*
X943610D01*
X941659Y1077860D01*
X940005Y1076755D01*
X914270Y1051020D01*
X911469D01*
X908400Y1049749D01*
X906051Y1047400D01*
X904780Y1044331D01*
Y1041009D01*
X906051Y1037940D01*
X908400Y1035591D01*
X911469Y1034320D01*
X914791D01*
X917860Y1035591D01*
X920209Y1037940D01*
X921480Y1041009D01*
Y1043810D01*
X945722Y1068052D01*
X1081198D01*
X1091135Y1058115D01*
X1092789Y1057010D01*
X1094740Y1056622D01*
X1113429D01*
X1115410Y1054641D01*
X1118479Y1053370D01*
X1121801D01*
X1124870Y1054641D01*
X1127219Y1056990D01*
X1128490Y1060059D01*
Y1063381D01*
X1127219Y1066450D01*
X1124870Y1068799D01*
X1121801Y1070070D01*
X1118479D01*
X1115410Y1068799D01*
X1113429Y1066818D01*
X1096852D01*
X1086915Y1076755D01*
X1085261Y1077860D01*
X1083310Y1078248D01*
D02*
G37*
G36*
X630411Y1056752D02*
X627626D01*
X625053Y1055687D01*
X623084Y1053718D01*
X622019Y1051145D01*
Y1048360D01*
X622146Y1048052D01*
X622019Y1044052D01*
X622019D01*
Y1030052D01*
X636019D01*
Y1044052D01*
X636019D01*
X635891Y1048052D01*
X636019Y1048360D01*
Y1051145D01*
X634953Y1053718D01*
X632984Y1055687D01*
X630411Y1056752D01*
D02*
G37*
G36*
X394245Y945687D02*
X386245D01*
X383514Y945144D01*
X381198Y943597D01*
X379651Y941281D01*
X379108Y938550D01*
X379651Y935819D01*
X381198Y933503D01*
X383514Y931956D01*
X386245Y931413D01*
X394245D01*
X396976Y931956D01*
X399292Y933503D01*
X400839Y935819D01*
X401382Y938550D01*
X400839Y941281D01*
X399292Y943597D01*
X396976Y945144D01*
X394245Y945687D01*
D02*
G37*
G36*
X437545D02*
X426545D01*
X423814Y945144D01*
X421498Y943597D01*
X419951Y941281D01*
X419408Y938550D01*
X419951Y935819D01*
X421498Y933503D01*
X422920Y932553D01*
X423332Y931175D01*
X423502Y929319D01*
X423342Y927972D01*
X422594Y927224D01*
X421795Y925294D01*
Y923206D01*
X422594Y921276D01*
X424071Y919799D01*
X426001Y919000D01*
X428089D01*
X430019Y919799D01*
X431496Y921276D01*
X432295Y923206D01*
Y925294D01*
X431496Y927224D01*
X431307Y927413D01*
X432964Y931413D01*
X437545D01*
X440276Y931956D01*
X442592Y933503D01*
X444139Y935819D01*
X444682Y938550D01*
X444139Y941281D01*
X442592Y943597D01*
X440276Y945144D01*
X437545Y945687D01*
D02*
G37*
G36*
X576971Y950690D02*
X573649D01*
X570580Y949419D01*
X568231Y947070D01*
X566960Y944001D01*
Y940679D01*
X568231Y937610D01*
X570212Y935629D01*
Y917301D01*
X568231Y915320D01*
X566960Y912251D01*
Y908929D01*
X568231Y905860D01*
X570580Y903511D01*
X573649Y902240D01*
X576971D01*
X580040Y903511D01*
X582389Y905860D01*
X583660Y908929D01*
Y912251D01*
X582389Y915320D01*
X580408Y917301D01*
Y935629D01*
X582389Y937610D01*
X583660Y940679D01*
Y944001D01*
X582389Y947070D01*
X580040Y949419D01*
X576971Y950690D01*
D02*
G37*
G36*
X713663Y938180D02*
X711276D01*
X709071Y937267D01*
X707383Y935579D01*
X707357Y935514D01*
X704850D01*
X703574Y935260D01*
X702492Y934538D01*
X696143Y928187D01*
X695420Y927106D01*
X695166Y925830D01*
Y905543D01*
X695101Y905517D01*
X693413Y903829D01*
X692500Y901624D01*
Y899237D01*
X693413Y897031D01*
X695101Y895343D01*
X697307Y894430D01*
X699694D01*
X701899Y895343D01*
X703587Y897031D01*
X704500Y899237D01*
Y901624D01*
X703587Y903829D01*
X701899Y905517D01*
X701834Y905543D01*
Y923892D01*
X704938Y926613D01*
X705065Y926586D01*
X706358Y925026D01*
X707351Y922799D01*
X706470Y920674D01*
Y918287D01*
X707383Y916081D01*
X709071Y914393D01*
X709136Y914367D01*
Y890303D01*
X709071Y890277D01*
X707383Y888589D01*
X706470Y886384D01*
Y883997D01*
X707383Y881791D01*
X709071Y880103D01*
X711276Y879190D01*
X713663D01*
X715869Y880103D01*
X717557Y881791D01*
X718470Y883997D01*
Y886384D01*
X717557Y888589D01*
X715869Y890277D01*
X715804Y890303D01*
Y914367D01*
X715869Y914393D01*
X717557Y916081D01*
X718470Y918287D01*
Y920674D01*
X717557Y922879D01*
X717143Y923292D01*
X716292Y925830D01*
X717143Y928368D01*
X717557Y928781D01*
X718470Y930986D01*
Y933373D01*
X717557Y935579D01*
X715869Y937267D01*
X713663Y938180D01*
D02*
G37*
G36*
X740801Y969740D02*
X737479D01*
X734410Y968469D01*
X732061Y966120D01*
X730790Y963051D01*
Y959729D01*
X732061Y956660D01*
X734410Y954311D01*
X735806Y953733D01*
Y939800D01*
X736060Y938524D01*
X736783Y937442D01*
X740592Y933633D01*
X741674Y932910D01*
X742950Y932656D01*
X751729D01*
X785336Y899049D01*
Y885190D01*
X785590Y883914D01*
X786312Y882832D01*
X793598Y875547D01*
X793020Y874151D01*
Y870829D01*
X794291Y867760D01*
X796640Y865411D01*
X799709Y864140D01*
X803031D01*
X806100Y865411D01*
X808449Y867760D01*
X809720Y870829D01*
Y874151D01*
X808449Y877220D01*
X806100Y879569D01*
X803031Y880840D01*
X799709D01*
X798313Y880262D01*
X792004Y886571D01*
Y900430D01*
X791750Y901706D01*
X791028Y902787D01*
X755468Y938347D01*
X754386Y939070D01*
X753110Y939324D01*
X744331D01*
X742474Y941181D01*
Y953733D01*
X743870Y954311D01*
X746219Y956660D01*
X747490Y959729D01*
Y963051D01*
X746219Y966120D01*
X743870Y968469D01*
X740801Y969740D01*
D02*
G37*
G36*
X428089Y871700D02*
X426001D01*
X424071Y870901D01*
X422594Y869424D01*
X421795Y867494D01*
Y865406D01*
X422594Y863476D01*
X423342Y862728D01*
X423502Y861381D01*
X423332Y859525D01*
X422920Y858147D01*
X421498Y857197D01*
X419951Y854881D01*
X419408Y852150D01*
X419951Y849419D01*
X421498Y847103D01*
X423814Y845556D01*
X426545Y845013D01*
X437545D01*
X440276Y845556D01*
X442592Y847103D01*
X444139Y849419D01*
X444682Y852150D01*
X444139Y854881D01*
X442592Y857197D01*
X440276Y858744D01*
X437545Y859287D01*
X432964D01*
X431307Y863287D01*
X431496Y863476D01*
X432295Y865406D01*
Y867494D01*
X431496Y869424D01*
X430019Y870901D01*
X428089Y871700D01*
D02*
G37*
G36*
X394245Y859287D02*
X386245D01*
X383514Y858744D01*
X381198Y857197D01*
X379651Y854881D01*
X379108Y852150D01*
X379651Y849419D01*
X381198Y847103D01*
X383514Y845556D01*
X386245Y845013D01*
X394245D01*
X396976Y845556D01*
X399292Y847103D01*
X400839Y849419D01*
X401382Y852150D01*
X400839Y854881D01*
X399292Y857197D01*
X396976Y858744D01*
X394245Y859287D01*
D02*
G37*
G36*
X598561Y953230D02*
X595239D01*
X592170Y951959D01*
X589821Y949610D01*
X588550Y946541D01*
Y943219D01*
X589821Y940150D01*
X591802Y938169D01*
Y874602D01*
X556130Y838930D01*
X553329D01*
X550260Y837659D01*
X547911Y835310D01*
X546640Y832241D01*
Y828919D01*
X547911Y825850D01*
X550260Y823501D01*
X553329Y822230D01*
X556651D01*
X559720Y823501D01*
X562069Y825850D01*
X563340Y828919D01*
Y831720D01*
X600505Y868885D01*
X601610Y870539D01*
X601998Y872490D01*
Y938169D01*
X603979Y940150D01*
X605250Y943219D01*
Y946541D01*
X603979Y949610D01*
X601630Y951959D01*
X598561Y953230D01*
D02*
G37*
G36*
X840040Y812100D02*
X816040D01*
Y804221D01*
X815628Y803968D01*
X812040Y802995D01*
X811119Y803917D01*
X808913Y804830D01*
X806526D01*
X804321Y803917D01*
X802633Y802229D01*
X801720Y800023D01*
Y797636D01*
X802633Y795431D01*
X804321Y793743D01*
X806526Y792830D01*
X808913D01*
X811119Y793743D01*
X812040Y794665D01*
X815628Y793692D01*
X816040Y793438D01*
Y788100D01*
X840040D01*
Y812100D01*
D02*
G37*
G36*
X1147529Y812640D02*
X1143551D01*
X1139875Y811118D01*
X1137062Y808305D01*
X1135540Y804629D01*
Y800651D01*
X1137062Y796975D01*
X1139875Y794162D01*
X1143551Y792640D01*
X1147529D01*
X1151205Y794162D01*
X1154018Y796975D01*
X1155540Y800651D01*
Y804629D01*
X1154018Y808305D01*
X1151205Y811118D01*
X1147529Y812640D01*
D02*
G37*
G36*
X1122129D02*
X1118151D01*
X1114475Y811118D01*
X1111662Y808305D01*
X1110140Y804629D01*
Y800651D01*
X1111662Y796975D01*
X1114475Y794162D01*
X1118151Y792640D01*
X1122129D01*
X1125805Y794162D01*
X1128618Y796975D01*
X1130140Y800651D01*
Y804629D01*
X1128618Y808305D01*
X1125805Y811118D01*
X1122129Y812640D01*
D02*
G37*
G36*
X1096729D02*
X1092751D01*
X1089075Y811118D01*
X1086262Y808305D01*
X1084740Y804629D01*
Y800651D01*
X1086262Y796975D01*
X1089075Y794162D01*
X1092751Y792640D01*
X1096729D01*
X1100405Y794162D01*
X1103218Y796975D01*
X1104740Y800651D01*
Y804629D01*
X1103218Y808305D01*
X1100405Y811118D01*
X1096729Y812640D01*
D02*
G37*
G36*
X997669D02*
X993691D01*
X990015Y811118D01*
X987202Y808305D01*
X985680Y804629D01*
Y800651D01*
X987202Y796975D01*
X990015Y794162D01*
X993691Y792640D01*
X997669D01*
X1001345Y794162D01*
X1004158Y796975D01*
X1005680Y800651D01*
Y804629D01*
X1004158Y808305D01*
X1001345Y811118D01*
X997669Y812640D01*
D02*
G37*
G36*
X938523Y660820D02*
X919443D01*
Y641740D01*
X938523D01*
Y660820D01*
D02*
G37*
G36*
X824624D02*
X805544D01*
Y641740D01*
X824624D01*
Y660820D01*
D02*
G37*
%LPD*%
G36*
X802021Y1006126D02*
X781567Y985672D01*
X780171Y986250D01*
X776849D01*
X773780Y984979D01*
X771431Y982630D01*
X770853Y981234D01*
X652780D01*
X651504Y980980D01*
X650423Y980257D01*
X627562Y957398D01*
X626840Y956316D01*
X626586Y955040D01*
Y827405D01*
X625294Y826870D01*
X622945Y824521D01*
X622014Y822273D01*
X618014Y823069D01*
Y835660D01*
Y961279D01*
X646541Y989806D01*
X770890D01*
X772166Y990060D01*
X773248Y990782D01*
X779263Y996798D01*
X780659Y996220D01*
X783981D01*
X787050Y997491D01*
X789399Y999840D01*
X790670Y1002909D01*
Y1004177D01*
X796619Y1010126D01*
X800364D01*
X802021Y1006126D01*
D02*
G37*
D11*
X807720Y798830D02*
X826770D01*
X828040Y800100D01*
X1068173Y708557D02*
Y709857D01*
Y708557D02*
X1078230Y698500D01*
X836930Y889000D02*
Y961390D01*
Y889000D02*
X885190Y840740D01*
X1033706D01*
X1049020Y825426D01*
Y729010D02*
Y825426D01*
Y729010D02*
X1068173Y709857D01*
X928983Y716280D02*
X945525D01*
X964575Y735330D02*
X1023620D01*
X945525Y716280D02*
X964575Y735330D01*
X819150Y894080D02*
Y961390D01*
Y894080D02*
X880110Y833120D01*
X1030292D01*
X1041400Y822012D01*
Y753110D02*
Y822012D01*
X1023620Y735330D02*
X1041400Y753110D01*
X826770Y798830D02*
X828040Y800100D01*
X916940Y989330D02*
Y990600D01*
Y988060D02*
Y989330D01*
Y988060D02*
X928370Y976630D01*
X901700Y1005840D02*
X916940Y990600D01*
X806450Y1005840D02*
X901700D01*
X928370Y976630D02*
X1106170D01*
X717550Y993140D02*
X770890D01*
X645160D02*
X717550D01*
Y1054100D01*
X730250Y1066800D01*
X712470Y885190D02*
Y919480D01*
X590550Y835660D02*
X614680D01*
X589280Y834390D02*
X590550Y835660D01*
X1106170Y976630D02*
X1115060Y967740D01*
X778510Y977900D02*
X806450Y1005840D01*
X914400Y1013460D02*
X943610Y984250D01*
X795238Y1013460D02*
X914400D01*
X788292Y1006514D02*
X795238Y1013460D01*
X873760Y825500D02*
X965200D01*
X811530Y887730D02*
X873760Y825500D01*
X811530Y887730D02*
Y944880D01*
X970280Y802640D02*
Y820420D01*
X965200Y825500D02*
X970280Y820420D01*
X778510Y977900D02*
X811530Y944880D01*
X742950Y935990D02*
X753110D01*
X788670Y900430D01*
X739140Y939800D02*
X742950Y935990D01*
X739140Y939800D02*
Y961390D01*
X788670Y885190D02*
X801370Y872490D01*
X788670Y885190D02*
Y900430D01*
X652780Y977900D02*
X778510D01*
X1114386Y984846D02*
X1116330Y986790D01*
X1109762Y984250D02*
X1110358Y984846D01*
X943610Y984250D02*
X1109762D01*
X1110358Y984846D02*
X1114386D01*
X770890Y993140D02*
X782320Y1004570D01*
X614680Y962660D02*
X645160Y993140D01*
X782320Y1004570D02*
X784264Y1006514D01*
X629920Y955040D02*
X652780Y977900D01*
X614784Y754276D02*
X652780Y716280D01*
X815084D01*
X614784Y754276D02*
Y802011D01*
X784264Y1006514D02*
X788292D01*
X614680Y802115D02*
Y835660D01*
Y962660D01*
Y802115D02*
X614784Y802011D01*
X629920Y819895D02*
Y955040D01*
Y819895D02*
X630024Y819791D01*
X698500Y900430D02*
Y925830D01*
X704850Y932180D02*
X712470D01*
X698500Y925830D02*
X704850Y932180D01*
D19*
X828040Y800100D02*
D03*
D101*
X928880Y806991D02*
X930935Y804936D01*
X942584D01*
X944880Y802640D01*
X917481Y806991D02*
X928880D01*
X908050Y797560D02*
X917481Y806991D01*
X908050Y754380D02*
Y797560D01*
X886460Y732790D02*
X908050Y754380D01*
X831594Y732790D02*
X886460D01*
X815084Y716280D02*
X831594Y732790D01*
D102*
X554990Y830580D02*
X596900Y872490D01*
Y944880D01*
X1083310Y1073150D02*
X1094740Y1061720D01*
X1120140D01*
X943610Y1073150D02*
X1083310D01*
X913130Y1042670D02*
X943610Y1073150D01*
X575310Y910590D02*
Y942340D01*
D104*
X1145540Y802640D02*
D03*
X1120140D02*
D03*
X1094740D02*
D03*
X944880D02*
D03*
X970280D02*
D03*
X995680D02*
D03*
D105*
X1069340D02*
D03*
X1021080D02*
D03*
D106*
X973983Y716280D02*
D03*
Y651280D02*
D03*
X928983Y716280D02*
D03*
X815084D02*
D03*
X860084Y651280D02*
D03*
Y716280D02*
D03*
D107*
X928983Y651280D02*
D03*
X815084D02*
D03*
D108*
X650080Y1105226D02*
D03*
D109*
X630080D02*
D03*
D110*
X432045Y852150D02*
D03*
Y938550D02*
D03*
D111*
X427045Y924250D02*
D03*
Y866450D02*
D03*
D112*
X390245Y938550D02*
D03*
Y852150D02*
D03*
D113*
X629019Y1049752D02*
D03*
X1080000Y720000D02*
D03*
X1280000Y1120000D02*
D03*
Y1040000D02*
D03*
Y880000D02*
D03*
X1300000Y680000D02*
D03*
X1240000Y1120000D02*
D03*
Y880000D02*
D03*
X1260000Y680000D02*
D03*
X1240000Y640000D02*
D03*
X1220000Y920000D02*
D03*
Y680000D02*
D03*
X1200000Y640000D02*
D03*
X1160000Y880000D02*
D03*
Y640000D02*
D03*
X1140000Y760000D02*
D03*
X1120000Y720000D02*
D03*
X1140000Y680000D02*
D03*
X1120000Y640000D02*
D03*
X1080000Y880000D02*
D03*
X1100000Y680000D02*
D03*
X1080000Y640000D02*
D03*
X1040000Y720000D02*
D03*
X1060000Y680000D02*
D03*
X1040000Y640000D02*
D03*
X1020000Y760000D02*
D03*
X980000Y920000D02*
D03*
X760000Y640000D02*
D03*
X720000D02*
D03*
X700000Y1080000D02*
D03*
X680000Y640000D02*
D03*
X520000D02*
D03*
X480000Y1120000D02*
D03*
X440000Y1040000D02*
D03*
Y800000D02*
D03*
X460000Y760000D02*
D03*
Y680000D02*
D03*
X400000Y880000D02*
D03*
X420000Y760000D02*
D03*
X772160Y863600D02*
D03*
D114*
X629019Y1037052D02*
D03*
D115*
X1078230Y698500D02*
D03*
D116*
X1154430D02*
D03*
D117*
X807720Y798830D02*
D03*
X1308100Y963930D02*
D03*
X712470Y919480D02*
D03*
Y885190D02*
D03*
X698500Y900430D02*
D03*
X712470Y932180D02*
D03*
D118*
X511810Y924560D02*
D03*
X916940Y989330D02*
D03*
X730250Y1066800D02*
D03*
X1219200Y896620D02*
D03*
X1205230Y1121410D02*
D03*
X1177290Y1117600D02*
D03*
X1231900Y974090D02*
D03*
X1202690D02*
D03*
X1281430Y1068070D02*
D03*
X648970Y844550D02*
D03*
X478790Y811530D02*
D03*
X565150Y726440D02*
D03*
X906780Y900430D02*
D03*
X889000D02*
D03*
X783590Y928370D02*
D03*
X1289050Y1026160D02*
D03*
Y999490D02*
D03*
X589280Y834390D02*
D03*
X547370Y848360D02*
D03*
X492760Y829310D02*
D03*
X565150Y876300D02*
D03*
X848360Y988060D02*
D03*
X783590Y777240D02*
D03*
X736600Y848360D02*
D03*
Y833120D02*
D03*
X754380Y755650D02*
D03*
X725170Y756920D02*
D03*
X697230D02*
D03*
X632460Y797560D02*
D03*
X979170Y965200D02*
D03*
X1028700Y892810D02*
D03*
X836930Y961390D02*
D03*
X819150D02*
D03*
X554990Y830580D02*
D03*
X778510Y977900D02*
D03*
X739140Y961390D02*
D03*
X801370Y872490D02*
D03*
X1120140Y1061720D02*
D03*
X963930Y1094740D02*
D03*
X913130Y1042670D02*
D03*
X575310Y942340D02*
D03*
Y910590D02*
D03*
X596900Y944880D02*
D03*
X1068070Y1141730D02*
D03*
X1115060Y967740D02*
D03*
X1116330Y986790D02*
D03*
X1071185Y1007128D02*
D03*
X782320Y1004570D02*
D03*
X690880Y1125220D02*
D03*
X457200Y840740D02*
D03*
X454660Y955040D02*
D03*
X586740Y1117600D02*
D03*
Y1092200D02*
D03*
X581660Y994410D02*
D03*
X565150Y1092200D02*
D03*
X614784Y802011D02*
D03*
X630024Y819791D02*
D03*
X651510Y897890D02*
D03*
M02*
