G04*
G04 #@! TF.GenerationSoftware,Altium Limited,Altium Designer,23.2.1 (34)*
G04*
G04 Layer_Color=16711935*
%FSLAX44Y44*%
%MOMM*%
G71*
G04*
G04 #@! TF.SameCoordinates,8496A63A-E985-4FE9-BA7E-BC2AAF8C8172*
G04*
G04*
G04 #@! TF.FilePolarity,Positive*
G04*
G01*
G75*
%ADD11C,0.2540*%
%ADD15C,0.1000*%
D11*
X1361492Y966970D02*
X1361596Y919410D01*
D15*
X444500Y674624D02*
G03*
X453660Y652510I31274J-0D01*
G01*
X479790Y626380D02*
G03*
X501904Y617220I22114J22114D01*
G01*
X1254760D02*
G03*
X1273105Y624819I-0J25944D01*
G01*
X1303336Y655050D02*
G03*
X1312496Y677164I-22114J22114D01*
G01*
X1321656Y754650D02*
G03*
X1312496Y732536I22114J-22114D01*
G01*
X1344500Y764540D02*
G03*
X1322387Y755380I-0J-31274D01*
G01*
X1377702Y764540D02*
G03*
X1389966Y769620I0J17344D01*
G01*
X1392895Y772549D02*
G03*
X1395394Y778580I-6032J6032D01*
G01*
X1395730Y1003736D02*
G03*
X1390650Y1016000I-17344J0D01*
G01*
D02*
G03*
X1378386Y1021080I-12264J-12264D01*
G01*
X1323070Y1030240D02*
G03*
X1345184Y1021080I22114J22114D01*
G01*
X1313180Y1053084D02*
G03*
X1322340Y1030970I31274J0D01*
G01*
X1313180Y1108456D02*
G03*
X1304020Y1130570I-31274J0D01*
G01*
X1273789Y1160801D02*
G03*
X1255444Y1168400I-18345J-18345D01*
G01*
X501904Y1168400D02*
G03*
X479790Y1159240I-0J-31274D01*
G01*
X453660Y1133110D02*
G03*
X444500Y1110996I22114J-22114D01*
G01*
X435340Y1072880D02*
G03*
X444500Y1094994I-22114J22114D01*
G01*
X369134Y1006674D02*
G03*
X361950Y989330I17344J-17344D01*
G01*
Y796290D02*
G03*
X369134Y778946I24528J0D01*
G01*
X444500Y690626D02*
G03*
X435340Y712740I-31274J0D01*
G01*
X453660Y652510D02*
X479790Y626380D01*
X501904Y617220D02*
X1254760D01*
X1273105Y624819D02*
X1303337Y655050D01*
X1312496Y677164D02*
Y732536D01*
X1321656Y754650D02*
X1322387Y755380D01*
X1344500Y764540D02*
X1377702D01*
X1389966Y769620D02*
X1390699Y770352D01*
X1392163Y771817D01*
X1392895Y772549D01*
X1395394Y778580D02*
X1395730Y1003736D01*
X1345184Y1021080D02*
X1378386D01*
X1322340Y1030970D02*
X1323070Y1030240D01*
X1313180Y1053084D02*
Y1108456D01*
X1273789Y1160801D02*
X1304020Y1130570D01*
X501904Y1168400D02*
X1255444Y1168400D01*
X453660Y1133110D02*
X479790Y1159240D01*
X444500Y1094994D02*
Y1110996D01*
X369134Y1006674D02*
X435340Y1072880D01*
X361950Y796290D02*
Y989330D01*
X369134Y778946D02*
X435340Y712740D01*
X444500Y674624D02*
Y690626D01*
M02*
