G04*
G04 #@! TF.GenerationSoftware,Altium Limited,Altium Designer,23.2.1 (34)*
G04*
G04 Layer_Color=128*
%FSLAX44Y44*%
%MOMM*%
G71*
G04*
G04 #@! TF.SameCoordinates,8496A63A-E985-4FE9-BA7E-BC2AAF8C8172*
G04*
G04*
G04 #@! TF.FilePolarity,Positive*
G04*
G01*
G75*
%ADD16C,0.1270*%
D16*
X1140040Y802640D02*
X1151040D01*
X1145540Y797140D02*
Y808140D01*
X1114640Y802640D02*
X1125640D01*
X1120140Y797140D02*
Y808140D01*
X1063840Y802640D02*
X1074840D01*
X1069340Y797140D02*
Y808140D01*
X1089240Y802640D02*
X1100240D01*
X1094740Y797140D02*
Y808140D01*
X968983Y716280D02*
X978983D01*
X973983Y711280D02*
Y721280D01*
X968983Y651280D02*
X978983D01*
X973983Y646280D02*
Y656280D01*
X923983Y716280D02*
X933983D01*
X928983Y711280D02*
Y721280D01*
X923983Y651280D02*
X933983D01*
X928983Y646280D02*
Y656280D01*
X646580Y1105226D02*
X653580D01*
X650080Y1101726D02*
Y1108726D01*
X626580Y1105226D02*
X633580D01*
X630080Y1101726D02*
Y1108726D01*
X429045Y852150D02*
X435045D01*
X432045Y849150D02*
Y855150D01*
X429045Y938550D02*
X435045D01*
X432045Y935550D02*
Y941550D01*
X423795Y924250D02*
X430295D01*
X427045Y921000D02*
Y927500D01*
X423795Y866450D02*
X430295D01*
X427045Y863200D02*
Y869700D01*
X387245Y938550D02*
X393245D01*
X390245Y935550D02*
Y941550D01*
X387245Y852150D02*
X393245D01*
X390245Y849150D02*
Y855150D01*
X939380Y802640D02*
X950380D01*
X944880Y797140D02*
Y808140D01*
X964780Y802640D02*
X975780D01*
X970280Y797140D02*
Y808140D01*
X1015580Y802640D02*
X1026580D01*
X1021080Y797140D02*
Y808140D01*
X990180Y802640D02*
X1001180D01*
X995680Y797140D02*
Y808140D01*
X810084Y651280D02*
X820084D01*
X815084Y646280D02*
Y656280D01*
X810084Y716280D02*
X820084D01*
X815084Y711280D02*
Y721280D01*
X855084Y651280D02*
X865084D01*
X860084Y646280D02*
Y656280D01*
X855084Y716280D02*
X865084D01*
X860084Y711280D02*
Y721280D01*
X626019Y1049752D02*
X632019D01*
X629019Y1046752D02*
Y1052752D01*
X626019Y1037052D02*
X632019D01*
X629019Y1034052D02*
Y1040052D01*
X1072980Y698500D02*
X1083480D01*
X1078230Y693250D02*
Y703750D01*
X1149180Y698500D02*
X1159680D01*
X1154430Y693250D02*
Y703750D01*
X1076500Y720000D02*
X1083500D01*
X1080000Y716500D02*
Y723500D01*
X1276500Y1120000D02*
X1283500D01*
X1280000Y1116500D02*
Y1123500D01*
X1276500Y1040000D02*
X1283500D01*
X1280000Y1036500D02*
Y1043500D01*
X1276500Y880000D02*
X1283500D01*
X1280000Y876500D02*
Y883500D01*
X1296500Y680000D02*
X1303500D01*
X1300000Y676500D02*
Y683500D01*
X1236500Y1120000D02*
X1243500D01*
X1240000Y1116500D02*
Y1123500D01*
X1236500Y880000D02*
X1243500D01*
X1240000Y876500D02*
Y883500D01*
X1256500Y680000D02*
X1263500D01*
X1260000Y676500D02*
Y683500D01*
X1236500Y640000D02*
X1243500D01*
X1240000Y636500D02*
Y643500D01*
X1216500Y920000D02*
X1223500D01*
X1220000Y916500D02*
Y923500D01*
X1216500Y680000D02*
X1223500D01*
X1220000Y676500D02*
Y683500D01*
X1196500Y640000D02*
X1203500D01*
X1200000Y636500D02*
Y643500D01*
X1156500Y880000D02*
X1163500D01*
X1160000Y876500D02*
Y883500D01*
X1156500Y640000D02*
X1163500D01*
X1160000Y636500D02*
Y643500D01*
X1136500Y760000D02*
X1143500D01*
X1140000Y756500D02*
Y763500D01*
X1116500Y720000D02*
X1123500D01*
X1120000Y716500D02*
Y723500D01*
X1136500Y680000D02*
X1143500D01*
X1140000Y676500D02*
Y683500D01*
X1116500Y640000D02*
X1123500D01*
X1120000Y636500D02*
Y643500D01*
X1076500Y880000D02*
X1083500D01*
X1080000Y876500D02*
Y883500D01*
X1096500Y680000D02*
X1103500D01*
X1100000Y676500D02*
Y683500D01*
X1076500Y640000D02*
X1083500D01*
X1080000Y636500D02*
Y643500D01*
X1036500Y720000D02*
X1043500D01*
X1040000Y716500D02*
Y723500D01*
X1056500Y680000D02*
X1063500D01*
X1060000Y676500D02*
Y683500D01*
X1036500Y640000D02*
X1043500D01*
X1040000Y636500D02*
Y643500D01*
X1016500Y760000D02*
X1023500D01*
X1020000Y756500D02*
Y763500D01*
X976500Y920000D02*
X983500D01*
X980000Y916500D02*
Y923500D01*
X756500Y640000D02*
X763500D01*
X760000Y636500D02*
Y643500D01*
X716500Y640000D02*
X723500D01*
X720000Y636500D02*
Y643500D01*
X696500Y1080000D02*
X703500D01*
X700000Y1076500D02*
Y1083500D01*
X676500Y640000D02*
X683500D01*
X680000Y636500D02*
Y643500D01*
X516500Y640000D02*
X523500D01*
X520000Y636500D02*
Y643500D01*
X476500Y1120000D02*
X483500D01*
X480000Y1116500D02*
Y1123500D01*
X436500Y1040000D02*
X443500D01*
X440000Y1036500D02*
Y1043500D01*
X436500Y800000D02*
X443500D01*
X440000Y796500D02*
Y803500D01*
X456500Y760000D02*
X463500D01*
X460000Y756500D02*
Y763500D01*
X456500Y680000D02*
X463500D01*
X460000Y676500D02*
Y683500D01*
X396500Y880000D02*
X403500D01*
X400000Y876500D02*
Y883500D01*
X416500Y760000D02*
X423500D01*
X420000Y756500D02*
Y763500D01*
X804720Y798830D02*
X810720D01*
X807720Y795830D02*
Y801830D01*
X508254Y924560D02*
X515366D01*
X511810Y921004D02*
Y928116D01*
X913384Y989330D02*
X920496D01*
X916940Y985774D02*
Y992886D01*
X726694Y1066800D02*
X733806D01*
X730250Y1063244D02*
Y1070356D01*
X1215644Y896620D02*
X1222756D01*
X1219200Y893064D02*
Y900176D01*
X1201674Y1121410D02*
X1208786D01*
X1205230Y1117854D02*
Y1124966D01*
X1173734Y1117600D02*
X1180846D01*
X1177290Y1114044D02*
Y1121156D01*
X1228344Y974090D02*
X1235456D01*
X1231900Y970534D02*
Y977646D01*
X1199134Y974090D02*
X1206246D01*
X1202690Y970534D02*
Y977646D01*
X1277874Y1068070D02*
X1284986D01*
X1281430Y1064514D02*
Y1071626D01*
X645414Y844550D02*
X652526D01*
X648970Y840994D02*
Y848106D01*
X475234Y811530D02*
X482346D01*
X478790Y807974D02*
Y815086D01*
X561594Y726440D02*
X568706D01*
X565150Y722884D02*
Y729996D01*
X903224Y900430D02*
X910336D01*
X906780Y896874D02*
Y903986D01*
X885444Y900430D02*
X892556D01*
X889000Y896874D02*
Y903986D01*
X780034Y928370D02*
X787146D01*
X783590Y924814D02*
Y931926D01*
X1305600Y963930D02*
X1310600D01*
X1308100Y961430D02*
Y966430D01*
X1285494Y1026160D02*
X1292606D01*
X1289050Y1022604D02*
Y1029716D01*
X1285494Y999490D02*
X1292606D01*
X1289050Y995934D02*
Y1003046D01*
X709970Y919480D02*
X714970D01*
X712470Y916980D02*
Y921980D01*
X585724Y834390D02*
X592836D01*
X589280Y830834D02*
Y837946D01*
X543814Y848360D02*
X550926D01*
X547370Y844804D02*
Y851916D01*
X489204Y829310D02*
X496316D01*
X492760Y825754D02*
Y832866D01*
X561594Y876300D02*
X568706D01*
X565150Y872744D02*
Y879856D01*
X844804Y988060D02*
X851916D01*
X848360Y984504D02*
Y991616D01*
X780034Y777240D02*
X787146D01*
X783590Y773684D02*
Y780796D01*
X733044Y848360D02*
X740156D01*
X736600Y844804D02*
Y851916D01*
X733044Y833120D02*
X740156D01*
X736600Y829564D02*
Y836676D01*
X750824Y755650D02*
X757936D01*
X754380Y752094D02*
Y759206D01*
X721614Y756920D02*
X728726D01*
X725170Y753364D02*
Y760476D01*
X693674Y756920D02*
X700786D01*
X697230Y753364D02*
Y760476D01*
X628904Y797560D02*
X636016D01*
X632460Y794004D02*
Y801116D01*
X975614Y965200D02*
X982726D01*
X979170Y961644D02*
Y968756D01*
X1025144Y892810D02*
X1032256D01*
X1028700Y889254D02*
Y896366D01*
X833374Y961390D02*
X840486D01*
X836930Y957834D02*
Y964946D01*
X815594Y961390D02*
X822706D01*
X819150Y957834D02*
Y964946D01*
X551434Y830580D02*
X558546D01*
X554990Y827024D02*
Y834136D01*
X709970Y885190D02*
X714970D01*
X712470Y882690D02*
Y887690D01*
X774954Y977900D02*
X782066D01*
X778510Y974344D02*
Y981456D01*
X735584Y961390D02*
X742696D01*
X739140Y957834D02*
Y964946D01*
X797814Y872490D02*
X804926D01*
X801370Y868934D02*
Y876046D01*
X1116584Y1061720D02*
X1123696D01*
X1120140Y1058164D02*
Y1065276D01*
X960374Y1094740D02*
X967486D01*
X963930Y1091184D02*
Y1098296D01*
X909574Y1042670D02*
X916686D01*
X913130Y1039114D02*
Y1046226D01*
X571754Y942340D02*
X578866D01*
X575310Y938784D02*
Y945896D01*
X571754Y910590D02*
X578866D01*
X575310Y907034D02*
Y914146D01*
X593344Y944880D02*
X600456D01*
X596900Y941324D02*
Y948436D01*
X1064514Y1141730D02*
X1071626D01*
X1068070Y1138174D02*
Y1145286D01*
X1111504Y967740D02*
X1118616D01*
X1115060Y964184D02*
Y971296D01*
X1112774Y986790D02*
X1119886D01*
X1116330Y983234D02*
Y990346D01*
X1067629Y1007128D02*
X1074741D01*
X1071185Y1003572D02*
Y1010684D01*
X778764Y1004570D02*
X785876D01*
X782320Y1001014D02*
Y1008126D01*
X687324Y1125220D02*
X694436D01*
X690880Y1121664D02*
Y1128776D01*
X453644Y840740D02*
X460756D01*
X457200Y837184D02*
Y844296D01*
X451104Y955040D02*
X458216D01*
X454660Y951484D02*
Y958596D01*
X583184Y1117600D02*
X590296D01*
X586740Y1114044D02*
Y1121156D01*
X583184Y1092200D02*
X590296D01*
X586740Y1088644D02*
Y1095756D01*
X578104Y994410D02*
X585216D01*
X581660Y990854D02*
Y997966D01*
X561594Y1092200D02*
X568706D01*
X565150Y1088644D02*
Y1095756D01*
X611228Y802011D02*
X618340D01*
X614784Y798455D02*
Y805567D01*
X626468Y819791D02*
X633580D01*
X630024Y816235D02*
Y823347D01*
X696000Y900430D02*
X701000D01*
X698500Y897930D02*
Y902930D01*
X709970Y932180D02*
X714970D01*
X712470Y929680D02*
Y934680D01*
X647954Y897890D02*
X655066D01*
X651510Y894334D02*
Y901446D01*
X768660Y863600D02*
X775660D01*
X772160Y860100D02*
Y867100D01*
M02*
