G04*
G04 #@! TF.GenerationSoftware,Altium Limited,Altium Designer,23.2.1 (34)*
G04*
G04 Layer_Color=65535*
%FSLAX44Y44*%
%MOMM*%
G71*
G04*
G04 #@! TF.SameCoordinates,8496A63A-E985-4FE9-BA7E-BC2AAF8C8172*
G04*
G04*
G04 #@! TF.FilePolarity,Positive*
G04*
G01*
G75*
%ADD10C,0.2000*%
%ADD11C,0.2540*%
%ADD12C,0.2500*%
%ADD13C,0.1524*%
%ADD14C,0.1250*%
%ADD15C,0.1000*%
%ADD16C,0.1270*%
D10*
X912443Y651280D02*
G03*
X912443Y651280I-1000J0D01*
G01*
X798544D02*
G03*
X798544Y651280I-1000J0D01*
G01*
X1077457Y906530D02*
G03*
X1077457Y906530I-597J0D01*
G01*
X791410Y858140D02*
G03*
X791410Y859140I0J500D01*
G01*
D02*
G03*
X791410Y858140I0J-500D01*
G01*
X1184830Y698500D02*
G03*
X1184830Y698500I-68500J0D01*
G01*
X1159740Y789190D02*
Y816090D01*
X1055140D02*
X1159740D01*
X1055140Y789190D02*
Y816090D01*
Y789190D02*
X1159740D01*
X610580Y1091725D02*
X620580D01*
X610578Y1091723D02*
Y1167723D01*
X610580Y1167726D02*
X669581D01*
X659580Y1091725D02*
X669581D01*
Y1167726D01*
X1081685Y1046668D02*
X1104685D01*
Y1016668D02*
Y1046668D01*
X1081685Y1016668D02*
X1104685D01*
X1081685D02*
Y1046668D01*
X1064185Y1047168D02*
X1078185D01*
X404020Y937850D02*
X416520D01*
X404020Y852850D02*
X416520D01*
X369020Y937850D02*
X376520D01*
X369020Y852850D02*
Y937850D01*
Y852850D02*
X376520D01*
X930680Y789190D02*
Y816090D01*
Y789190D02*
X1035280D01*
Y816090D01*
X930680D02*
X1035280D01*
X620019Y1058752D02*
X638019D01*
X620019Y1028052D02*
Y1058752D01*
Y1028052D02*
X638019D01*
Y1058752D01*
X891160Y952240D02*
X907160D01*
X891160Y934740D02*
X907160D01*
X666038Y782801D02*
Y787801D01*
Y757801D02*
Y762801D01*
X636037Y782801D02*
Y787801D01*
Y757801D02*
Y762801D01*
X1038170Y904560D02*
X1071170D01*
X1038170Y960560D02*
X1071170D01*
X1074651Y1095980D02*
X1086151D01*
X1071151Y1096230D02*
Y1125730D01*
X1064651D02*
X1071151D01*
X1064651Y1096230D02*
Y1125730D01*
Y1096230D02*
X1071151D01*
X691180Y902710D02*
Y933710D01*
X665180Y902710D02*
Y933710D01*
X851160Y1093960D02*
Y1113210D01*
X805160Y1093960D02*
Y1113210D01*
Y1093960D02*
X815910D01*
X840410D02*
X851160D01*
X891160Y847096D02*
X907160D01*
X891160Y864596D02*
X907160D01*
X544100Y885430D02*
X548100D01*
X544100Y915430D02*
X548100D01*
X553100Y901430D02*
Y902430D01*
X539100Y898430D02*
Y902430D01*
X1073321Y844775D02*
X1074987Y846442D01*
Y849774D01*
X1073321Y851440D01*
X1066656D01*
X1064990Y849774D01*
Y846442D01*
X1066656Y844775D01*
X1069988D01*
Y848108D01*
X1064990Y841443D02*
X1074987D01*
X1064990Y834779D01*
X1074987D01*
Y831446D02*
X1064990D01*
Y826448D01*
X1066656Y824782D01*
X1073321D01*
X1074987Y826448D01*
Y831446D01*
X1097451Y851440D02*
X1099117Y849774D01*
Y846442D01*
X1097451Y844775D01*
X1095785D01*
X1094118Y846442D01*
Y848108D01*
Y846442D01*
X1092452Y844775D01*
X1090786D01*
X1089120Y846442D01*
Y849774D01*
X1090786Y851440D01*
X1099117Y841443D02*
X1092452D01*
X1089120Y838111D01*
X1092452Y834779D01*
X1099117D01*
X1097451Y831446D02*
X1099117Y829780D01*
Y826448D01*
X1097451Y824782D01*
X1095785D01*
X1094118Y826448D01*
Y828114D01*
Y826448D01*
X1092452Y824782D01*
X1090786D01*
X1089120Y826448D01*
Y829780D01*
X1090786Y831446D01*
X1122851Y844775D02*
X1124517Y846442D01*
Y849774D01*
X1122851Y851440D01*
X1121184D01*
X1119518Y849774D01*
Y846442D01*
X1117852Y844775D01*
X1116186D01*
X1114520Y846442D01*
Y849774D01*
X1116186Y851440D01*
X1122851Y834779D02*
X1124517Y836445D01*
Y839777D01*
X1122851Y841443D01*
X1116186D01*
X1114520Y839777D01*
Y836445D01*
X1116186Y834779D01*
X1124517Y831446D02*
X1114520D01*
Y824782D01*
X1149521Y844775D02*
X1151187Y846442D01*
Y849774D01*
X1149521Y851440D01*
X1147855D01*
X1146188Y849774D01*
Y846442D01*
X1144522Y844775D01*
X1142856D01*
X1141190Y846442D01*
Y849774D01*
X1142856Y851440D01*
X1151187Y841443D02*
X1141190D01*
Y836445D01*
X1142856Y834779D01*
X1149521D01*
X1151187Y836445D01*
Y841443D01*
X1141190Y831446D02*
X1147855D01*
X1151187Y828114D01*
X1147855Y824782D01*
X1141190D01*
X1146188D01*
Y831446D01*
X1087691Y784778D02*
X1091023D01*
X1089357D01*
Y774782D01*
X1087691D01*
X1091023D01*
X1102686D02*
X1096022D01*
X1102686Y781446D01*
Y783112D01*
X1101020Y784778D01*
X1097688D01*
X1096022Y783112D01*
X1112683D02*
X1111017Y784778D01*
X1107685D01*
X1106019Y783112D01*
Y776448D01*
X1107685Y774782D01*
X1111017D01*
X1112683Y776448D01*
X1127678Y783112D02*
Y781446D01*
X1126012D01*
X1129344D01*
X1127678D01*
Y776448D01*
X1129344Y774782D01*
X1139341D02*
X1136009D01*
X1134343Y776448D01*
Y779780D01*
X1136009Y781446D01*
X1139341D01*
X1141007Y779780D01*
Y778114D01*
X1134343D01*
X1144340Y774782D02*
X1149338D01*
X1151004Y776448D01*
X1149338Y778114D01*
X1146006D01*
X1144340Y779780D01*
X1146006Y781446D01*
X1151004D01*
X1156003Y783112D02*
Y781446D01*
X1154336D01*
X1157669D01*
X1156003D01*
Y776448D01*
X1157669Y774782D01*
X403313Y1026078D02*
Y1019414D01*
X406645Y1016082D01*
X409977Y1019414D01*
Y1026078D01*
X413309D02*
Y1016082D01*
X418308D01*
X419974Y1017748D01*
Y1019414D01*
X418308Y1021080D01*
X413309D01*
X418308D01*
X419974Y1022746D01*
Y1024412D01*
X418308Y1026078D01*
X413309D01*
X423306D02*
Y1017748D01*
X424972Y1016082D01*
X428304D01*
X429971Y1017748D01*
Y1026078D01*
X439967Y1024412D02*
X438301Y1026078D01*
X434969D01*
X433303Y1024412D01*
Y1022746D01*
X434969Y1021080D01*
X438301D01*
X439967Y1019414D01*
Y1017748D01*
X438301Y1016082D01*
X434969D01*
X433303Y1017748D01*
X486410Y1144361D02*
Y1137696D01*
X489742Y1134364D01*
X493074Y1137696D01*
Y1144361D01*
X496407D02*
Y1134364D01*
X501405D01*
X503071Y1136030D01*
Y1137696D01*
X501405Y1139362D01*
X496407D01*
X501405D01*
X503071Y1141029D01*
Y1142695D01*
X501405Y1144361D01*
X496407D01*
X506404Y1134364D02*
Y1141029D01*
X509736Y1144361D01*
X513068Y1141029D01*
Y1134364D01*
Y1139362D01*
X506404D01*
X516400Y1144361D02*
X523065D01*
X519733D01*
Y1134364D01*
X662311Y1070132D02*
X663977Y1071798D01*
X667309D01*
X668976Y1070132D01*
Y1068466D01*
X667309Y1066800D01*
X665643D01*
X667309D01*
X668976Y1065134D01*
Y1063468D01*
X667309Y1061802D01*
X663977D01*
X662311Y1063468D01*
X672308Y1071798D02*
Y1065134D01*
X675640Y1061802D01*
X678972Y1065134D01*
Y1071798D01*
X682305Y1070132D02*
X683971Y1071798D01*
X687303D01*
X688969Y1070132D01*
Y1068466D01*
X687303Y1066800D01*
X685637D01*
X687303D01*
X688969Y1065134D01*
Y1063468D01*
X687303Y1061802D01*
X683971D01*
X682305Y1063468D01*
X897179Y1061802D02*
Y1071798D01*
X902178D01*
X903844Y1070132D01*
Y1066800D01*
X902178Y1065134D01*
X897179D01*
X900512D02*
X903844Y1061802D01*
X913841D02*
X907176D01*
X913841Y1068466D01*
Y1070132D01*
X912175Y1071798D01*
X908842D01*
X907176Y1070132D01*
X746445Y1061802D02*
Y1071798D01*
X751444D01*
X753110Y1070132D01*
Y1066800D01*
X751444Y1065134D01*
X746445D01*
X749778D02*
X753110Y1061802D01*
X756442D02*
X759774D01*
X758108D01*
Y1071798D01*
X756442Y1070132D01*
X607359Y1063804D02*
Y1073801D01*
X614024Y1063804D01*
Y1073801D01*
X619022Y1063804D02*
X622354D01*
X624020Y1065470D01*
Y1068802D01*
X622354Y1070469D01*
X619022D01*
X617356Y1068802D01*
Y1065470D01*
X619022Y1063804D01*
X627353Y1073801D02*
Y1063804D01*
X632351D01*
X634017Y1065470D01*
Y1067136D01*
X632351Y1068802D01*
X627353D01*
X632351D01*
X634017Y1070469D01*
Y1072135D01*
X632351Y1073801D01*
X627353D01*
X639016Y1070469D02*
X642348D01*
X644014Y1068802D01*
Y1063804D01*
X639016D01*
X637349Y1065470D01*
X639016Y1067136D01*
X644014D01*
X649012Y1072135D02*
Y1070469D01*
X647346D01*
X650678D01*
X649012D01*
Y1065470D01*
X650678Y1063804D01*
X627739Y742557D02*
Y749221D01*
X631071Y752553D01*
X634403Y749221D01*
Y742557D01*
Y747555D01*
X627739D01*
X644400Y749221D02*
X639402D01*
X637735Y747555D01*
Y744223D01*
X639402Y742557D01*
X644400D01*
X654397Y749221D02*
X649398D01*
X647732Y747555D01*
Y744223D01*
X649398Y742557D01*
X654397D01*
X657729D02*
Y749221D01*
X659395D01*
X661061Y747555D01*
Y742557D01*
Y747555D01*
X662727Y749221D01*
X664393Y747555D01*
Y742557D01*
X669392Y750887D02*
Y749221D01*
X667726D01*
X671058D01*
X669392D01*
Y744223D01*
X671058Y742557D01*
X676057Y749221D02*
Y742557D01*
Y745889D01*
X677723Y747555D01*
X679389Y749221D01*
X681055D01*
X750256Y847008D02*
Y845342D01*
X753588Y842010D01*
X756920Y845342D01*
Y847008D01*
X753588Y842010D02*
Y837012D01*
X760252D02*
X763585D01*
X761918D01*
Y847008D01*
X760252Y845342D01*
X668579Y952418D02*
Y944088D01*
X670246Y942422D01*
X673578D01*
X675244Y944088D01*
Y952418D01*
X678576Y950752D02*
X680242Y952418D01*
X683575D01*
X685241Y950752D01*
Y949086D01*
X683575Y947420D01*
X681908D01*
X683575D01*
X685241Y945754D01*
Y944088D01*
X683575Y942422D01*
X680242D01*
X678576Y944088D01*
X819829Y1148788D02*
Y1140458D01*
X821496Y1138792D01*
X824828D01*
X826494Y1140458D01*
Y1148788D01*
X836491Y1138792D02*
X829826D01*
X836491Y1145456D01*
Y1147122D01*
X834825Y1148788D01*
X831492D01*
X829826Y1147122D01*
X530546Y1094658D02*
Y1086328D01*
X532212Y1084662D01*
X535544D01*
X537210Y1086328D01*
Y1094658D01*
X540542Y1084662D02*
X543875D01*
X542208D01*
Y1094658D01*
X540542Y1092992D01*
X935635Y739342D02*
X933969Y741008D01*
X930637D01*
X928971Y739342D01*
Y737676D01*
X930637Y736009D01*
X933969D01*
X935635Y734343D01*
Y732677D01*
X933969Y731011D01*
X930637D01*
X928971Y732677D01*
X938968Y737676D02*
Y732677D01*
X940634Y731011D01*
X942300Y732677D01*
X943966Y731011D01*
X945632Y732677D01*
Y737676D01*
X948964Y736009D02*
X955629D01*
X965626Y741008D02*
X958961D01*
Y731011D01*
X965626D01*
X958961Y736009D02*
X962293D01*
X968958Y731011D02*
Y741008D01*
X975622Y731011D01*
Y741008D01*
X813448Y738072D02*
X811782Y739738D01*
X808450D01*
X806784Y738072D01*
Y736406D01*
X808450Y734740D01*
X811782D01*
X813448Y733073D01*
Y731407D01*
X811782Y729741D01*
X808450D01*
X806784Y731407D01*
X816780Y736406D02*
Y731407D01*
X818446Y729741D01*
X820113Y731407D01*
X821779Y729741D01*
X823445Y731407D01*
Y736406D01*
X826777Y734740D02*
X833442D01*
X836774Y739738D02*
Y729741D01*
X841772D01*
X843438Y731407D01*
Y733073D01*
X841772Y734740D01*
X836774D01*
X841772D01*
X843438Y736406D01*
Y738072D01*
X841772Y739738D01*
X836774D01*
X848437Y729741D02*
X851769D01*
X853435Y731407D01*
Y734740D01*
X851769Y736406D01*
X848437D01*
X846771Y734740D01*
Y731407D01*
X848437Y729741D01*
X858434D02*
X861766D01*
X863432Y731407D01*
Y734740D01*
X861766Y736406D01*
X858434D01*
X856767Y734740D01*
Y731407D01*
X858434Y729741D01*
X868430Y738072D02*
Y736406D01*
X866764D01*
X870097D01*
X868430D01*
Y731407D01*
X870097Y729741D01*
X694165Y709382D02*
Y719379D01*
X699163D01*
X700829Y717713D01*
Y714381D01*
X699163Y712715D01*
X694165D01*
X697497D02*
X700829Y709382D01*
X710826D02*
X704162D01*
X710826Y716047D01*
Y717713D01*
X709160Y719379D01*
X705828D01*
X704162Y717713D01*
X714158D02*
X715824Y719379D01*
X719157D01*
X720823Y717713D01*
Y711049D01*
X719157Y709382D01*
X715824D01*
X714158Y711049D01*
Y717713D01*
X736170Y708862D02*
Y718859D01*
X741168D01*
X742834Y717193D01*
Y713860D01*
X741168Y712194D01*
X736170D01*
X739502D02*
X742834Y708862D01*
X746167D02*
X749499D01*
X747833D01*
Y718859D01*
X746167Y717193D01*
X754497Y710528D02*
X756163Y708862D01*
X759496D01*
X761162Y710528D01*
Y717193D01*
X759496Y718859D01*
X756163D01*
X754497Y717193D01*
Y715527D01*
X756163Y713860D01*
X761162D01*
X531290Y710132D02*
Y720129D01*
X536288D01*
X537954Y718463D01*
Y715131D01*
X536288Y713465D01*
X531290D01*
X534622D02*
X537954Y710132D01*
X541287D02*
X544619D01*
X542953D01*
Y720129D01*
X541287Y718463D01*
X549617D02*
X551283Y720129D01*
X554616D01*
X556282Y718463D01*
Y716797D01*
X554616Y715131D01*
X556282Y713465D01*
Y711798D01*
X554616Y710132D01*
X551283D01*
X549617Y711798D01*
Y713465D01*
X551283Y715131D01*
X549617Y716797D01*
Y718463D01*
X551283Y715131D02*
X554616D01*
X497000Y710132D02*
Y720129D01*
X501998D01*
X503664Y718463D01*
Y715131D01*
X501998Y713465D01*
X497000D01*
X500332D02*
X503664Y710132D01*
X506996D02*
X510329D01*
X508663D01*
Y720129D01*
X506996Y718463D01*
X515327Y720129D02*
X521992D01*
Y718463D01*
X515327Y711798D01*
Y710132D01*
X1101125Y1071692D02*
Y1081689D01*
X1106124D01*
X1107790Y1080022D01*
Y1076690D01*
X1106124Y1075024D01*
X1101125D01*
X1104458D02*
X1107790Y1071692D01*
X1111122D02*
X1114454D01*
X1112788D01*
Y1081689D01*
X1111122Y1080022D01*
X1126117Y1081689D02*
X1122785Y1080022D01*
X1119453Y1076690D01*
Y1073358D01*
X1121119Y1071692D01*
X1124451D01*
X1126117Y1073358D01*
Y1075024D01*
X1124451Y1076690D01*
X1119453D01*
X1188639Y996360D02*
Y1006357D01*
X1193637D01*
X1195304Y1004690D01*
Y1001358D01*
X1193637Y999692D01*
X1188639D01*
X1191971D02*
X1195304Y996360D01*
X1198636D02*
X1201968D01*
X1200302D01*
Y1006357D01*
X1198636Y1004690D01*
X1213631Y1006357D02*
X1206966D01*
Y1001358D01*
X1210299Y1003024D01*
X1211965D01*
X1213631Y1001358D01*
Y998026D01*
X1211965Y996360D01*
X1208633D01*
X1206966Y998026D01*
X1155619Y996360D02*
Y1006357D01*
X1160617D01*
X1162284Y1004690D01*
Y1001358D01*
X1160617Y999692D01*
X1155619D01*
X1158951D02*
X1162284Y996360D01*
X1165616D02*
X1168948D01*
X1167282D01*
Y1006357D01*
X1165616Y1004690D01*
X1178945Y996360D02*
Y1006357D01*
X1173947Y1001358D01*
X1180611D01*
X1221659Y996360D02*
Y1006357D01*
X1226657D01*
X1228324Y1004690D01*
Y1001358D01*
X1226657Y999692D01*
X1221659D01*
X1224991D02*
X1228324Y996360D01*
X1231656D02*
X1234988D01*
X1233322D01*
Y1006357D01*
X1231656Y1004690D01*
X1239986D02*
X1241653Y1006357D01*
X1244985D01*
X1246651Y1004690D01*
Y1003024D01*
X1244985Y1001358D01*
X1243319D01*
X1244985D01*
X1246651Y999692D01*
Y998026D01*
X1244985Y996360D01*
X1241653D01*
X1239986Y998026D01*
X1012109Y995090D02*
Y1005087D01*
X1017107D01*
X1018774Y1003420D01*
Y1000088D01*
X1017107Y998422D01*
X1012109D01*
X1015441D02*
X1018774Y995090D01*
X1022106D02*
X1025438D01*
X1023772D01*
Y1005087D01*
X1022106Y1003420D01*
X1037101Y995090D02*
X1030436D01*
X1037101Y1001754D01*
Y1003420D01*
X1035435Y1005087D01*
X1032103D01*
X1030436Y1003420D01*
X980755Y996123D02*
Y1006120D01*
X985754D01*
X987420Y1004453D01*
Y1001121D01*
X985754Y999455D01*
X980755D01*
X984087D02*
X987420Y996123D01*
X990752D02*
X994084D01*
X992418D01*
Y1006120D01*
X990752Y1004453D01*
X999083Y996123D02*
X1002415D01*
X1000749D01*
Y1006120D01*
X999083Y1004453D01*
X941274Y772242D02*
Y782238D01*
X946272D01*
X947939Y780572D01*
Y777240D01*
X946272Y775574D01*
X941274D01*
X944606D02*
X947939Y772242D01*
X951271D02*
X954603D01*
X952937D01*
Y782238D01*
X951271Y780572D01*
X959602D02*
X961268Y782238D01*
X964600D01*
X966266Y780572D01*
Y773908D01*
X964600Y772242D01*
X961268D01*
X959602Y773908D01*
Y780572D01*
X794309Y748112D02*
Y758108D01*
X799308D01*
X800974Y756442D01*
Y753110D01*
X799308Y751444D01*
X794309D01*
X797642D02*
X800974Y748112D01*
X804306Y749778D02*
X805972Y748112D01*
X809305D01*
X810971Y749778D01*
Y756442D01*
X809305Y758108D01*
X805972D01*
X804306Y756442D01*
Y754776D01*
X805972Y753110D01*
X810971D01*
X901109Y1138792D02*
Y1148788D01*
X906108D01*
X907774Y1147122D01*
Y1143790D01*
X906108Y1142124D01*
X901109D01*
X904442D02*
X907774Y1138792D01*
X911106Y1147122D02*
X912772Y1148788D01*
X916105D01*
X917771Y1147122D01*
Y1145456D01*
X916105Y1143790D01*
X917771Y1142124D01*
Y1140458D01*
X916105Y1138792D01*
X912772D01*
X911106Y1140458D01*
Y1142124D01*
X912772Y1143790D01*
X911106Y1145456D01*
Y1147122D01*
X912772Y1143790D02*
X916105D01*
X738549Y1140062D02*
Y1150058D01*
X743548D01*
X745214Y1148392D01*
Y1145060D01*
X743548Y1143394D01*
X738549D01*
X741882D02*
X745214Y1140062D01*
X748546Y1150058D02*
X755211D01*
Y1148392D01*
X748546Y1141728D01*
Y1140062D01*
X460299Y1088472D02*
Y1098468D01*
X465298D01*
X466964Y1096802D01*
Y1093470D01*
X465298Y1091804D01*
X460299D01*
X463632D02*
X466964Y1088472D01*
X476961Y1098468D02*
X473628Y1096802D01*
X470296Y1093470D01*
Y1090138D01*
X471962Y1088472D01*
X475294D01*
X476961Y1090138D01*
Y1091804D01*
X475294Y1093470D01*
X470296D01*
X579679Y1012272D02*
Y1022268D01*
X584678D01*
X586344Y1020602D01*
Y1017270D01*
X584678Y1015604D01*
X579679D01*
X583012D02*
X586344Y1012272D01*
X596341Y1022268D02*
X589676D01*
Y1017270D01*
X593008Y1018936D01*
X594674D01*
X596341Y1017270D01*
Y1013938D01*
X594674Y1012272D01*
X591342D01*
X589676Y1013938D01*
X498399Y964012D02*
Y974008D01*
X503398D01*
X505064Y972342D01*
Y969010D01*
X503398Y967344D01*
X498399D01*
X501732D02*
X505064Y964012D01*
X513395D02*
Y974008D01*
X508396Y969010D01*
X515061D01*
X497129Y873842D02*
Y883838D01*
X502128D01*
X503794Y882172D01*
Y878840D01*
X502128Y877174D01*
X497129D01*
X500462D02*
X503794Y873842D01*
X507126Y882172D02*
X508792Y883838D01*
X512124D01*
X513791Y882172D01*
Y880506D01*
X512124Y878840D01*
X510458D01*
X512124D01*
X513791Y877174D01*
Y875508D01*
X512124Y873842D01*
X508792D01*
X507126Y875508D01*
X591506Y1154512D02*
Y1164508D01*
X596504D01*
X598170Y1162842D01*
Y1159510D01*
X596504Y1157844D01*
X591506D01*
X601502Y1154512D02*
X604835D01*
X603168D01*
Y1164508D01*
X601502Y1162842D01*
X1000131Y784778D02*
X996799D01*
X995133Y783112D01*
Y776448D01*
X996799Y774782D01*
X1000131D01*
X1001797Y776448D01*
Y783112D01*
X1000131Y784778D01*
X1005129D02*
Y774782D01*
X1011794D01*
X1021791Y784778D02*
X1015126D01*
Y774782D01*
X1021791D01*
X1015126Y779780D02*
X1018458D01*
X1025123Y784778D02*
Y774782D01*
X1030121D01*
X1031787Y776448D01*
Y783112D01*
X1030121Y784778D01*
X1025123D01*
X1024261Y662858D02*
Y652862D01*
X1029259D01*
X1030926Y654528D01*
Y656194D01*
X1029259Y657860D01*
X1024261D01*
X1029259D01*
X1030926Y659526D01*
Y661192D01*
X1029259Y662858D01*
X1024261D01*
X1034258Y659526D02*
Y654528D01*
X1035924Y652862D01*
X1040922D01*
Y659526D01*
X1044255D02*
X1050919D01*
X1044255Y652862D01*
X1050919D01*
X892495Y930828D02*
Y920832D01*
X899160D01*
X902492D02*
X905825D01*
X904158D01*
Y930828D01*
X902492Y929162D01*
X890829Y881164D02*
Y871168D01*
X897494D01*
X907491D02*
X900826D01*
X907491Y877832D01*
Y879498D01*
X905825Y881164D01*
X902492D01*
X900826Y879498D01*
X552321Y749859D02*
X550655Y751525D01*
X547323D01*
X545656Y749859D01*
Y743195D01*
X547323Y741529D01*
X550655D01*
X552321Y743195D01*
Y746527D01*
X548989D01*
X555653Y748193D02*
Y743195D01*
X557319Y741529D01*
X562318D01*
Y739863D01*
X560652Y738196D01*
X558985D01*
X562318Y741529D02*
Y748193D01*
X565650D02*
Y741529D01*
Y744861D01*
X567316Y746527D01*
X568982Y748193D01*
X570648D01*
X577313Y741529D02*
X580645D01*
X582311Y743195D01*
Y746527D01*
X580645Y748193D01*
X577313D01*
X575647Y746527D01*
Y743195D01*
X577313Y741529D01*
X1056559Y1091209D02*
X1059891D01*
X1058225D01*
Y1081213D01*
X1056559D01*
X1059891D01*
X1071554Y1089543D02*
X1069888Y1091209D01*
X1066556D01*
X1064890Y1089543D01*
Y1082879D01*
X1066556Y1081213D01*
X1069888D01*
X1071554Y1082879D01*
X1074886Y1089543D02*
X1076553Y1091209D01*
X1079885D01*
X1081551Y1089543D01*
Y1087877D01*
X1079885Y1086211D01*
X1078219D01*
X1079885D01*
X1081551Y1084545D01*
Y1082879D01*
X1079885Y1081213D01*
X1076553D01*
X1074886Y1082879D01*
X1079704Y1062908D02*
X1083036D01*
X1081370D01*
Y1052912D01*
X1079704D01*
X1083036D01*
X1094699Y1061242D02*
X1093033Y1062908D01*
X1089701D01*
X1088035Y1061242D01*
Y1054578D01*
X1089701Y1052912D01*
X1093033D01*
X1094699Y1054578D01*
X1104696Y1052912D02*
X1098031D01*
X1104696Y1059576D01*
Y1061242D01*
X1103030Y1062908D01*
X1099698D01*
X1098031Y1061242D01*
X1022088Y976548D02*
Y966552D01*
Y971550D01*
X1028753D01*
Y976548D01*
Y966552D01*
X1037083D02*
X1033751D01*
X1032085Y968218D01*
Y971550D01*
X1033751Y973216D01*
X1037083D01*
X1038749Y971550D01*
Y969884D01*
X1032085D01*
X1043748Y973216D02*
X1047080D01*
X1048746Y971550D01*
Y966552D01*
X1043748D01*
X1042082Y968218D01*
X1043748Y969884D01*
X1048746D01*
X1053745Y974882D02*
Y973216D01*
X1052079D01*
X1055411D01*
X1053745D01*
Y968218D01*
X1055411Y966552D01*
X1060409Y976548D02*
Y966552D01*
X1065408D01*
X1067074Y968218D01*
Y969884D01*
Y971550D01*
X1065408Y973216D01*
X1060409D01*
X1075404Y966552D02*
X1072072D01*
X1070406Y968218D01*
Y971550D01*
X1072072Y973216D01*
X1075404D01*
X1077070Y971550D01*
Y969884D01*
X1070406D01*
X1082069Y973216D02*
X1085401D01*
X1087067Y971550D01*
Y966552D01*
X1082069D01*
X1080403Y968218D01*
X1082069Y969884D01*
X1087067D01*
X1092066Y974882D02*
Y973216D01*
X1090399D01*
X1093732D01*
X1092066D01*
Y968218D01*
X1093732Y966552D01*
X932859Y1147518D02*
Y1137522D01*
X937858D01*
X939524Y1139188D01*
Y1145852D01*
X937858Y1147518D01*
X932859D01*
X947855Y1137522D02*
Y1147518D01*
X942856Y1142520D01*
X949521D01*
X706799Y1146248D02*
Y1136252D01*
X711798D01*
X713464Y1137918D01*
Y1144582D01*
X711798Y1146248D01*
X706799D01*
X716796Y1144582D02*
X718462Y1146248D01*
X721795D01*
X723461Y1144582D01*
Y1142916D01*
X721795Y1141250D01*
X720128D01*
X721795D01*
X723461Y1139584D01*
Y1137918D01*
X721795Y1136252D01*
X718462D01*
X716796Y1137918D01*
X461569Y1026078D02*
Y1016082D01*
X466568D01*
X468234Y1017748D01*
Y1024412D01*
X466568Y1026078D01*
X461569D01*
X478231Y1016082D02*
X471566D01*
X478231Y1022746D01*
Y1024412D01*
X476564Y1026078D01*
X473232D01*
X471566Y1024412D01*
X539436Y932098D02*
Y922102D01*
X544434D01*
X546100Y923768D01*
Y930432D01*
X544434Y932098D01*
X539436D01*
X549432Y922102D02*
X552765D01*
X551098D01*
Y932098D01*
X549432Y930432D01*
X642533Y712573D02*
X640867Y714239D01*
X637535D01*
X635868Y712573D01*
Y705908D01*
X637535Y704242D01*
X640867D01*
X642533Y705908D01*
X652530Y704242D02*
X645865D01*
X652530Y710907D01*
Y712573D01*
X650864Y714239D01*
X647531D01*
X645865Y712573D01*
X655862D02*
X657528Y714239D01*
X660861D01*
X662527Y712573D01*
Y710907D01*
X660861Y709240D01*
X662527Y707574D01*
Y705908D01*
X660861Y704242D01*
X657528D01*
X655862Y705908D01*
Y707574D01*
X657528Y709240D01*
X655862Y710907D01*
Y712573D01*
X657528Y709240D02*
X660861D01*
X609094Y711944D02*
X607428Y713610D01*
X604095D01*
X602429Y711944D01*
Y705279D01*
X604095Y703613D01*
X607428D01*
X609094Y705279D01*
X619090Y703613D02*
X612426D01*
X619090Y710278D01*
Y711944D01*
X617424Y713610D01*
X614092D01*
X612426Y711944D01*
X622423Y713610D02*
X629087D01*
Y711944D01*
X622423Y705279D01*
Y703613D01*
X693105Y859312D02*
X691439Y860978D01*
X688107D01*
X686441Y859312D01*
Y852648D01*
X688107Y850982D01*
X691439D01*
X693105Y852648D01*
X703102Y850982D02*
X696438D01*
X703102Y857646D01*
Y859312D01*
X701436Y860978D01*
X698104D01*
X696438Y859312D01*
X713099Y860978D02*
X709767Y859312D01*
X706434Y855980D01*
Y852648D01*
X708101Y850982D01*
X711433D01*
X713099Y852648D01*
Y854314D01*
X711433Y855980D01*
X706434D01*
X693105Y780572D02*
X691439Y782238D01*
X688107D01*
X686441Y780572D01*
Y773908D01*
X688107Y772242D01*
X691439D01*
X693105Y773908D01*
X703102Y772242D02*
X696438D01*
X703102Y778906D01*
Y780572D01*
X701436Y782238D01*
X698104D01*
X696438Y780572D01*
X713099Y782238D02*
X706434D01*
Y777240D01*
X709767Y778906D01*
X711433D01*
X713099Y777240D01*
Y773908D01*
X711433Y772242D01*
X708101D01*
X706434Y773908D01*
X575789Y712113D02*
X574123Y713779D01*
X570791D01*
X569125Y712113D01*
Y705448D01*
X570791Y703782D01*
X574123D01*
X575789Y705448D01*
X585786Y703782D02*
X579122D01*
X585786Y710447D01*
Y712113D01*
X584120Y713779D01*
X580788D01*
X579122Y712113D01*
X594117Y703782D02*
Y713779D01*
X589118Y708781D01*
X595783D01*
X1017941Y1080653D02*
X1016274Y1082319D01*
X1012942D01*
X1011276Y1080653D01*
Y1073989D01*
X1012942Y1072323D01*
X1016274D01*
X1017941Y1073989D01*
X1027937Y1072323D02*
X1021273D01*
X1027937Y1078987D01*
Y1080653D01*
X1026271Y1082319D01*
X1022939D01*
X1021273Y1080653D01*
X1031270D02*
X1032936Y1082319D01*
X1036268D01*
X1037934Y1080653D01*
Y1078987D01*
X1036268Y1077321D01*
X1034602D01*
X1036268D01*
X1037934Y1075655D01*
Y1073989D01*
X1036268Y1072323D01*
X1032936D01*
X1031270Y1073989D01*
X1139977Y1080022D02*
X1138311Y1081689D01*
X1134978D01*
X1133312Y1080022D01*
Y1073358D01*
X1134978Y1071692D01*
X1138311D01*
X1139977Y1073358D01*
X1149974Y1071692D02*
X1143309D01*
X1149974Y1078356D01*
Y1080022D01*
X1148307Y1081689D01*
X1144975D01*
X1143309Y1080022D01*
X1159970Y1071692D02*
X1153306D01*
X1159970Y1078356D01*
Y1080022D01*
X1158304Y1081689D01*
X1154972D01*
X1153306Y1080022D01*
X972902Y946942D02*
X971236Y948608D01*
X967903D01*
X966237Y946942D01*
Y940278D01*
X967903Y938612D01*
X971236D01*
X972902Y940278D01*
X982898Y938612D02*
X976234D01*
X982898Y945276D01*
Y946942D01*
X981232Y948608D01*
X977900D01*
X976234Y946942D01*
X986231Y938612D02*
X989563D01*
X987897D01*
Y948608D01*
X986231Y946942D01*
X971236Y892332D02*
X969569Y893998D01*
X966237D01*
X964571Y892332D01*
Y885668D01*
X966237Y884002D01*
X969569D01*
X971236Y885668D01*
X981232Y884002D02*
X974568D01*
X981232Y890666D01*
Y892332D01*
X979566Y893998D01*
X976234D01*
X974568Y892332D01*
X984565D02*
X986231Y893998D01*
X989563D01*
X991229Y892332D01*
Y885668D01*
X989563Y884002D01*
X986231D01*
X984565Y885668D01*
Y892332D01*
X1210544Y1111133D02*
X1208877Y1112800D01*
X1205545D01*
X1203879Y1111133D01*
Y1104469D01*
X1205545Y1102803D01*
X1208877D01*
X1210544Y1104469D01*
X1213876Y1102803D02*
X1217208D01*
X1215542D01*
Y1112800D01*
X1213876Y1111133D01*
X1222206Y1104469D02*
X1223873Y1102803D01*
X1227205D01*
X1228871Y1104469D01*
Y1111133D01*
X1227205Y1112800D01*
X1223873D01*
X1222206Y1111133D01*
Y1109467D01*
X1223873Y1107801D01*
X1228871D01*
X951464Y1004453D02*
X949797Y1006120D01*
X946465D01*
X944799Y1004453D01*
Y997789D01*
X946465Y996123D01*
X949797D01*
X951464Y997789D01*
X954796Y996123D02*
X958128D01*
X956462D01*
Y1006120D01*
X954796Y1004453D01*
X963127D02*
X964793Y1006120D01*
X968125D01*
X969791Y1004453D01*
Y1002787D01*
X968125Y1001121D01*
X969791Y999455D01*
Y997789D01*
X968125Y996123D01*
X964793D01*
X963127Y997789D01*
Y999455D01*
X964793Y1001121D01*
X963127Y1002787D01*
Y1004453D01*
X964793Y1001121D02*
X968125D01*
X998979Y720292D02*
X997312Y721958D01*
X993980D01*
X992314Y720292D01*
Y713627D01*
X993980Y711961D01*
X997312D01*
X998979Y713627D01*
X1002311Y711961D02*
X1005643D01*
X1003977D01*
Y721958D01*
X1002311Y720292D01*
X1010641Y721958D02*
X1017306D01*
Y720292D01*
X1010641Y713627D01*
Y711961D01*
X881311Y720292D02*
X879645Y721958D01*
X876313D01*
X874647Y720292D01*
Y713627D01*
X876313Y711961D01*
X879645D01*
X881311Y713627D01*
X884644Y711961D02*
X887976D01*
X886310D01*
Y721958D01*
X884644Y720292D01*
X899639Y721958D02*
X896307Y720292D01*
X892974Y716959D01*
Y713627D01*
X894640Y711961D01*
X897973D01*
X899639Y713627D01*
Y715293D01*
X897973Y716959D01*
X892974D01*
X869199Y1146332D02*
X867532Y1147998D01*
X864200D01*
X862534Y1146332D01*
Y1139668D01*
X864200Y1138002D01*
X867532D01*
X869199Y1139668D01*
X872531Y1138002D02*
X875863D01*
X874197D01*
Y1147998D01*
X872531Y1146332D01*
X887526Y1147998D02*
X880862D01*
Y1143000D01*
X884194Y1144666D01*
X885860D01*
X887526Y1143000D01*
Y1139668D01*
X885860Y1138002D01*
X882528D01*
X880862Y1139668D01*
X775339Y1147122D02*
X773672Y1148788D01*
X770340D01*
X768674Y1147122D01*
Y1140458D01*
X770340Y1138792D01*
X773672D01*
X775339Y1140458D01*
X778671Y1138792D02*
X782003D01*
X780337D01*
Y1148788D01*
X778671Y1147122D01*
X792000Y1138792D02*
Y1148788D01*
X787001Y1143790D01*
X793666D01*
X747279Y780572D02*
X745612Y782238D01*
X742280D01*
X740614Y780572D01*
Y773908D01*
X742280Y772242D01*
X745612D01*
X747279Y773908D01*
X750611Y772242D02*
X753943D01*
X752277D01*
Y782238D01*
X750611Y780572D01*
X758941D02*
X760608Y782238D01*
X763940D01*
X765606Y780572D01*
Y778906D01*
X763940Y777240D01*
X762274D01*
X763940D01*
X765606Y775574D01*
Y773908D01*
X763940Y772242D01*
X760608D01*
X758941Y773908D01*
X801889Y780572D02*
X800222Y782238D01*
X796890D01*
X795224Y780572D01*
Y773908D01*
X796890Y772242D01*
X800222D01*
X801889Y773908D01*
X805221Y772242D02*
X808553D01*
X806887D01*
Y782238D01*
X805221Y780572D01*
X820216Y772242D02*
X813551D01*
X820216Y778906D01*
Y780572D01*
X818550Y782238D01*
X815218D01*
X813551Y780572D01*
X539395Y1019332D02*
X537729Y1020998D01*
X534396D01*
X532730Y1019332D01*
Y1012668D01*
X534396Y1011002D01*
X537729D01*
X539395Y1012668D01*
X542727Y1011002D02*
X546059D01*
X544393D01*
Y1020998D01*
X542727Y1019332D01*
X551058Y1011002D02*
X554390D01*
X552724D01*
Y1020998D01*
X551058Y1019332D01*
X544078Y1142522D02*
X542412Y1144188D01*
X539080D01*
X537414Y1142522D01*
Y1135858D01*
X539080Y1134192D01*
X542412D01*
X544078Y1135858D01*
X547411Y1134192D02*
X550743D01*
X549077D01*
Y1144188D01*
X547411Y1142522D01*
X555742D02*
X557408Y1144188D01*
X560740D01*
X562406Y1142522D01*
Y1135858D01*
X560740Y1134192D01*
X557408D01*
X555742Y1135858D01*
Y1142522D01*
X953374Y858042D02*
X951708Y859708D01*
X948375D01*
X946709Y858042D01*
Y851378D01*
X948375Y849712D01*
X951708D01*
X953374Y851378D01*
X956706D02*
X958372Y849712D01*
X961704D01*
X963371Y851378D01*
Y858042D01*
X961704Y859708D01*
X958372D01*
X956706Y858042D01*
Y856376D01*
X958372Y854710D01*
X963371D01*
X840344Y856772D02*
X838678Y858438D01*
X835346D01*
X833679Y856772D01*
Y850108D01*
X835346Y848442D01*
X838678D01*
X840344Y850108D01*
X843676Y856772D02*
X845342Y858438D01*
X848674D01*
X850341Y856772D01*
Y855106D01*
X848674Y853440D01*
X850341Y851774D01*
Y850108D01*
X848674Y848442D01*
X845342D01*
X843676Y850108D01*
Y851774D01*
X845342Y853440D01*
X843676Y855106D01*
Y856772D01*
X845342Y853440D02*
X848674D01*
X878444Y1012982D02*
X876778Y1014648D01*
X873446D01*
X871779Y1012982D01*
Y1006318D01*
X873446Y1004652D01*
X876778D01*
X878444Y1006318D01*
X881776Y1014648D02*
X888441D01*
Y1012982D01*
X881776Y1006318D01*
Y1004652D01*
X840344Y912652D02*
X838678Y914318D01*
X835346D01*
X833679Y912652D01*
Y905988D01*
X835346Y904322D01*
X838678D01*
X840344Y905988D01*
X850341Y914318D02*
X847008Y912652D01*
X843676Y909320D01*
Y905988D01*
X845342Y904322D01*
X848674D01*
X850341Y905988D01*
Y907654D01*
X848674Y909320D01*
X843676D01*
X953374Y915192D02*
X951708Y916858D01*
X948375D01*
X946709Y915192D01*
Y908528D01*
X948375Y906862D01*
X951708D01*
X953374Y908528D01*
X963371Y916858D02*
X956706D01*
Y911860D01*
X960038Y913526D01*
X961704D01*
X963371Y911860D01*
Y908528D01*
X961704Y906862D01*
X958372D01*
X956706Y908528D01*
X860664Y780572D02*
X858998Y782238D01*
X855666D01*
X853999Y780572D01*
Y773908D01*
X855666Y772242D01*
X858998D01*
X860664Y773908D01*
X868995Y772242D02*
Y782238D01*
X863996Y777240D01*
X870661D01*
X720964Y1048542D02*
X719298Y1050208D01*
X715965D01*
X714299Y1048542D01*
Y1041878D01*
X715965Y1040212D01*
X719298D01*
X720964Y1041878D01*
X724296Y1048542D02*
X725962Y1050208D01*
X729295D01*
X730961Y1048542D01*
Y1046876D01*
X729295Y1045210D01*
X727628D01*
X729295D01*
X730961Y1043544D01*
Y1041878D01*
X729295Y1040212D01*
X725962D01*
X724296Y1041878D01*
X817484Y1049812D02*
X815818Y1051478D01*
X812486D01*
X810819Y1049812D01*
Y1043148D01*
X812486Y1041482D01*
X815818D01*
X817484Y1043148D01*
X827481Y1041482D02*
X820816D01*
X827481Y1048146D01*
Y1049812D01*
X825815Y1051478D01*
X822482D01*
X820816Y1049812D01*
D11*
X575414Y793121D02*
G03*
X575414Y793121I-1270J0D01*
G01*
X1029970Y698497D02*
X1040127D01*
X1035048Y703576D02*
Y693419D01*
X394970Y971547D02*
X389892D01*
X392431D01*
Y958852D01*
X389892Y956312D01*
X387352D01*
X384813Y958852D01*
X400048Y956312D02*
X405127D01*
X402588D01*
Y971547D01*
X400048Y969008D01*
X1319233Y987000D02*
Y997157D01*
X1324311Y1002235D01*
X1329390Y997157D01*
Y987000D01*
Y994617D01*
X1319233D01*
X1334468Y987000D02*
Y1002235D01*
X1344625Y987000D01*
Y1002235D01*
X1349703D02*
X1359860D01*
X1354781D01*
Y987000D01*
X1364938D02*
X1370017D01*
X1367477D01*
Y1002235D01*
X1364938Y999696D01*
D12*
X651490Y1087446D02*
G03*
X651490Y1087446I-1250J0D01*
G01*
X671930Y896210D02*
G03*
X671930Y896210I-1250J0D01*
G01*
X855160Y1128960D02*
G03*
X855160Y1128960I-1250J0D01*
G01*
X803680Y893210D02*
G03*
X803680Y893210I-1250J0D01*
G01*
D13*
X561594Y1060958D02*
G03*
X561594Y1054862I0J-3048D01*
G01*
Y1060958D02*
Y1064260D01*
Y1054862D02*
Y1060958D01*
Y1051560D02*
Y1054862D01*
D14*
X661042Y794431D02*
G03*
X661042Y793181I0J-625D01*
G01*
D02*
G03*
X661042Y794431I0J625D01*
G01*
D15*
X557600Y884430D02*
G03*
X557600Y884430I-500J0D01*
G01*
X576484Y787801D02*
X578984D01*
Y785301D02*
Y787801D01*
X548984D02*
X551484D01*
X548984Y785301D02*
Y787801D01*
Y757801D02*
Y760301D01*
Y757801D02*
X551484D01*
X578984D02*
Y760301D01*
X576484Y757801D02*
X578984D01*
D16*
X939723Y653780D02*
X963243D01*
X981483Y662020D02*
Y705540D01*
X939723Y713780D02*
X963243D01*
X921483Y662020D02*
Y705540D01*
X807584Y662020D02*
Y705540D01*
X825824Y713780D02*
X849344D01*
X867584Y662020D02*
Y705540D01*
X825824Y653780D02*
X849344D01*
X466600Y1050580D02*
X498600D01*
X466100Y1029680D02*
X499100D01*
X930740Y1093500D02*
Y1125500D01*
X951640Y1093000D02*
Y1126000D01*
X725580Y1092230D02*
Y1124230D01*
X704680Y1091730D02*
Y1124730D01*
M02*
