G04*
G04 #@! TF.GenerationSoftware,Altium Limited,Altium Designer,23.2.1 (34)*
G04*
G04 Layer_Color=255*
%FSLAX44Y44*%
%MOMM*%
G71*
G04*
G04 #@! TF.SameCoordinates,8496A63A-E985-4FE9-BA7E-BC2AAF8C8172*
G04*
G04*
G04 #@! TF.FilePolarity,Positive*
G04*
G01*
G75*
%ADD19R,2.0000X2.0000*%
%ADD104C,1.6000*%
%ADD105R,1.6000X1.6000*%
%ADD106C,1.5080*%
%ADD107R,1.5080X1.5080*%
%ADD108R,1.2000X1.2000*%
%ADD109C,1.2000*%
%ADD110O,2.1000X1.0000*%
%ADD111C,0.6500*%
%ADD112O,1.8000X1.0000*%
%ADD113C,1.0000*%
%ADD114R,1.0000X1.0000*%
%ADD115R,1.5500X1.5500*%
%ADD116C,1.5500*%
D19*
X828040Y800100D02*
D03*
D104*
X1145540Y802640D02*
D03*
X1120140D02*
D03*
X1094740D02*
D03*
X944880D02*
D03*
X970280D02*
D03*
X995680D02*
D03*
D105*
X1069340D02*
D03*
X1021080D02*
D03*
D106*
X973983Y716280D02*
D03*
Y651280D02*
D03*
X928983Y716280D02*
D03*
X815084D02*
D03*
X860084Y651280D02*
D03*
Y716280D02*
D03*
D107*
X928983Y651280D02*
D03*
X815084D02*
D03*
D108*
X650080Y1105226D02*
D03*
D109*
X630080D02*
D03*
D110*
X432045Y852150D02*
D03*
Y938550D02*
D03*
D111*
X427045Y924250D02*
D03*
Y866450D02*
D03*
D112*
X390245Y938550D02*
D03*
Y852150D02*
D03*
D113*
X629019Y1049752D02*
D03*
D114*
Y1037052D02*
D03*
D115*
X1078230Y698500D02*
D03*
D116*
X1154430D02*
D03*
M02*
