M48
;Layer_Color=9474304
;FILE_FORMAT=4:4
METRIC,LZ
;TYPE=PLATED
T1F00S00C0.5000
T2F00S00C0.6000
T4F00S00C0.7000
T5F00S00C0.7112
T6F00S00C1.0000
T7F00S00C1.0500
T8F00S00C1.1000
;TYPE=NON_PLATED
T9F00S00C0.6500
%
T01
X0071247Y0088519
X006985Y0090043
X0071247Y0091948
Y0093218
X013081Y0096393
T02
X00629019Y01037052
Y01049752
X0080772Y0079883
T04
X012Y0064
X0124
X0126Y0068
X013
X0122
X0114
X011
X0106
X0104Y0072
X0108
X0112
X0114Y0076
X0102
X0104Y0064
X0108
X0112
X0116
X0076
X0072
X0068
X0052
X0046Y0068
Y0076
X0042
X0044Y008
X004Y0088
X0044Y0104
X0048Y0112
X0063008Y01105226
X0065008
X007Y0108
X0077216Y008636
X0098Y0092
X0108Y0088
X0116
X0124
X0128
X0122Y0092
X0128Y0104
Y0112
X0124
T05
X0056515Y0072644
X0069723Y0075692
X0072517
X0075438Y0075565
X0078359Y0077724
X007366Y0083312
Y0084836
X0064897Y0084455
X00630024Y00819791
X0063246Y0079756
X00614784Y00802011
X0058928Y0083439
X0055499Y0083058
X0054737Y0084836
X0056515Y008763
X0057531Y0091059
Y0094234
X005969Y0094488
X0058166Y0099441
X0058674Y010922
X0056515
X0058674Y011176
X0069088Y0112522
X0073025Y010668
X0073914Y0096139
X0077851Y009779
X0078232Y0100457
X0078359Y0092837
X0065151Y0089789
X0051181Y0092456
X0045466Y0095504
X004572Y0084074
X0049276Y0082931
X0047879Y0081153
X0080137Y0087249
X0081915Y0096139
X0083693
X0084836Y0098806
X0091694Y0098933
X0091313Y0104267
X0096393Y0109474
X0097917Y009652
X010287Y0089281
X0090678Y0090043
X00889
X01071185Y01007128
X0111633Y0098679
X0111506Y0096774
X0112014Y0106172
X0117729Y011176
X0106807Y0114173
X0120523Y0112141
X0128143Y0106807
X0128905Y0102616
Y0099949
X012319Y0097409
X0120269
X012192Y0089662
T06
X00815084Y0065128
X00860084
Y0071628
X00815084
X00928983
X00973983
Y0065128
X00928983
T07
X0107823Y006985
X0115443
T08
X0094488Y0080264
X0097028
X0099568
X0102108
X0106934
X0109474
X0112014
X0114554
T09
X00427045Y0086645
Y0092425
M30
