G04*
G04 #@! TF.GenerationSoftware,Altium Limited,Altium Designer,23.2.1 (34)*
G04*
G04 Layer_Color=32896*
%FSLAX44Y44*%
%MOMM*%
G71*
G04*
G04 #@! TF.SameCoordinates,8496A63A-E985-4FE9-BA7E-BC2AAF8C8172*
G04*
G04*
G04 #@! TF.FilePolarity,Positive*
G04*
G01*
G75*
%ADD10C,0.2000*%
%ADD11C,0.2540*%
D10*
X847637Y826688D02*
X840973Y816692D01*
Y826688D02*
X847637Y816692D01*
X837641Y826688D02*
X830976D01*
X834308D01*
Y816692D01*
X827644D02*
Y823356D01*
X824312Y826688D01*
X820979Y823356D01*
Y816692D01*
Y821690D01*
X827644D01*
X817647Y826688D02*
Y816692D01*
X810983D01*
D11*
X1165860Y688340D02*
Y1087120D01*
X1301750Y688340D02*
Y1087120D01*
X1165860Y688340D02*
X1301750D01*
X1165860Y1087120D02*
X1301750D01*
X1282705Y693420D02*
X1292862D01*
X1297940Y698498D01*
X1292862Y703577D01*
X1282705D01*
X1290323D01*
Y693420D01*
X1292862Y708655D02*
X1285244D01*
X1282705Y711194D01*
Y718812D01*
X1292862D01*
X1295401Y726429D02*
X1292862D01*
Y723890D01*
Y728969D01*
Y726429D01*
X1285244D01*
X1282705Y728969D01*
X1297940Y736586D02*
X1282705D01*
X1290323D01*
X1292862Y739125D01*
Y744204D01*
X1290323Y746743D01*
X1282705D01*
Y754360D02*
Y759439D01*
X1285244Y761978D01*
X1290323D01*
X1292862Y759439D01*
Y754360D01*
X1290323Y751821D01*
X1285244D01*
X1282705Y754360D01*
X1292862Y767056D02*
X1282705D01*
X1287783D01*
X1290323Y769595D01*
X1292862Y772134D01*
Y774674D01*
Y782291D02*
Y784830D01*
X1290323D01*
Y782291D01*
X1292862D01*
X1285244D02*
Y784830D01*
X1282705D01*
Y782291D01*
X1285244D01*
X1297940Y810222D02*
X1282705D01*
Y817840D01*
X1285244Y820379D01*
X1295401D01*
X1297940Y817840D01*
Y810222D01*
X1292862Y827997D02*
Y833075D01*
X1290323Y835614D01*
X1282705D01*
Y827997D01*
X1285244Y825457D01*
X1287783Y827997D01*
Y835614D01*
X1292862Y843232D02*
Y848310D01*
X1290323Y850849D01*
X1282705D01*
Y843232D01*
X1285244Y840692D01*
X1287783Y843232D01*
Y850849D01*
X1282705Y855927D02*
X1292862D01*
Y863545D01*
X1290323Y866084D01*
X1282705D01*
Y896554D02*
X1285244Y894015D01*
X1282705Y891476D01*
Y888937D01*
X1285244Y886398D01*
X1287783D01*
X1290323Y888937D01*
X1292862Y886398D01*
X1295401D01*
X1297940Y888937D01*
Y891476D01*
X1295401Y894015D01*
X1292862D01*
X1290323Y891476D01*
X1287783Y894015D01*
X1285244D01*
X1290323Y896554D02*
X1287783Y894015D01*
X1290323Y888937D02*
Y891476D01*
X1297940Y927024D02*
Y916868D01*
X1282705D01*
Y927024D01*
X1290323Y916868D02*
Y921946D01*
X1282705Y932103D02*
X1292862D01*
Y934642D01*
X1290323Y937181D01*
X1282705D01*
X1290323D01*
X1292862Y939720D01*
X1290323Y942260D01*
X1282705D01*
X1292862Y947338D02*
X1282705D01*
X1287783D01*
X1290323Y949877D01*
X1292862Y952416D01*
Y954955D01*
Y965112D02*
Y970191D01*
X1290323Y972730D01*
X1282705D01*
Y965112D01*
X1285244Y962573D01*
X1287783Y965112D01*
Y972730D01*
X1282705Y977808D02*
X1292862D01*
Y985425D01*
X1290323Y987965D01*
X1282705D01*
X1258327Y693420D02*
X1273562D01*
Y701038D01*
X1271023Y703577D01*
X1265944D01*
X1263405Y701038D01*
Y693420D01*
X1268484Y708655D02*
X1258327D01*
X1263405D01*
X1265944Y711194D01*
X1268484Y713733D01*
Y716273D01*
X1258327Y726429D02*
Y731508D01*
X1260866Y734047D01*
X1265944D01*
X1268484Y731508D01*
Y726429D01*
X1265944Y723890D01*
X1260866D01*
X1258327Y726429D01*
X1253249Y739125D02*
Y741664D01*
X1255788Y744204D01*
X1268484D01*
X1258327Y761978D02*
Y756899D01*
X1260866Y754360D01*
X1265944D01*
X1268484Y756899D01*
Y761978D01*
X1265944Y764517D01*
X1263405D01*
Y754360D01*
X1268484Y779752D02*
Y772134D01*
X1265944Y769595D01*
X1260866D01*
X1258327Y772134D01*
Y779752D01*
X1271023Y787370D02*
X1268484D01*
Y784830D01*
Y789909D01*
Y787370D01*
X1260866D01*
X1258327Y789909D01*
X1268484Y797526D02*
Y800066D01*
X1265944D01*
Y797526D01*
X1268484D01*
X1260866D02*
Y800066D01*
X1258327D01*
Y797526D01*
X1260866D01*
X1273562Y835614D02*
Y825457D01*
X1258327D01*
Y835614D01*
X1265944Y825457D02*
Y830536D01*
X1271023Y850849D02*
X1273562Y848310D01*
Y843232D01*
X1271023Y840692D01*
X1268484D01*
X1265944Y843232D01*
Y848310D01*
X1263405Y850849D01*
X1260866D01*
X1258327Y848310D01*
Y843232D01*
X1260866Y840692D01*
X1258327Y855927D02*
X1273562D01*
Y863545D01*
X1271023Y866084D01*
X1265944D01*
X1263405Y863545D01*
Y855927D01*
X1271023Y871162D02*
X1273562Y873702D01*
Y878780D01*
X1271023Y881319D01*
X1268484D01*
X1265944Y878780D01*
Y876241D01*
Y878780D01*
X1263405Y881319D01*
X1260866D01*
X1258327Y878780D01*
Y873702D01*
X1260866Y871162D01*
X1258327Y896554D02*
Y886398D01*
X1268484Y896554D01*
X1271023D01*
X1273562Y894015D01*
Y888937D01*
X1271023Y886398D01*
X1265944Y901633D02*
Y911789D01*
X1271023Y927024D02*
X1273562Y924485D01*
Y919407D01*
X1271023Y916868D01*
X1260866D01*
X1258327Y919407D01*
Y924485D01*
X1260866Y927024D01*
X1271023Y932103D02*
X1273562Y934642D01*
Y939720D01*
X1271023Y942260D01*
X1268484D01*
X1265944Y939720D01*
Y937181D01*
Y939720D01*
X1263405Y942260D01*
X1260866D01*
X1258327Y939720D01*
Y934642D01*
X1260866Y932103D01*
X1273562Y962573D02*
X1258327D01*
Y970191D01*
X1260866Y972730D01*
X1263405D01*
X1265944Y970191D01*
Y962573D01*
Y970191D01*
X1268484Y972730D01*
X1271023D01*
X1273562Y970191D01*
Y962573D01*
X1268484Y977808D02*
X1258327D01*
X1263405D01*
X1265944Y980347D01*
X1268484Y982886D01*
Y985425D01*
X1258327Y1000661D02*
Y995582D01*
X1260866Y993043D01*
X1265944D01*
X1268484Y995582D01*
Y1000661D01*
X1265944Y1003200D01*
X1263405D01*
Y993043D01*
X1268484Y1010817D02*
Y1015896D01*
X1265944Y1018435D01*
X1258327D01*
Y1010817D01*
X1260866Y1008278D01*
X1263405Y1010817D01*
Y1018435D01*
X1258327Y1023513D02*
X1273562D01*
X1263405D02*
X1268484Y1031131D01*
X1263405Y1023513D02*
X1258327Y1031131D01*
Y1041288D02*
Y1046366D01*
X1260866Y1048905D01*
X1265944D01*
X1268484Y1046366D01*
Y1041288D01*
X1265944Y1038748D01*
X1260866D01*
X1258327Y1041288D01*
X1268484Y1053983D02*
X1260866D01*
X1258327Y1056523D01*
Y1064140D01*
X1268484D01*
X1271023Y1071758D02*
X1268484D01*
Y1069218D01*
Y1074297D01*
Y1071758D01*
X1260866D01*
X1258327Y1074297D01*
X1244106Y693420D02*
X1228870D01*
Y701038D01*
X1231410Y703577D01*
X1241566D01*
X1244106Y701038D01*
Y693420D01*
X1239027Y711194D02*
Y716273D01*
X1236488Y718812D01*
X1228870D01*
Y711194D01*
X1231410Y708655D01*
X1233949Y711194D01*
Y718812D01*
X1241566Y726429D02*
X1239027D01*
Y723890D01*
Y728969D01*
Y726429D01*
X1231410D01*
X1228870Y728969D01*
Y744204D02*
Y739125D01*
X1231410Y736586D01*
X1236488D01*
X1239027Y739125D01*
Y744204D01*
X1236488Y746743D01*
X1233949D01*
Y736586D01*
X1239027Y751821D02*
Y754360D01*
X1236488D01*
Y751821D01*
X1239027D01*
X1231410D02*
Y754360D01*
X1228870D01*
Y751821D01*
X1231410D01*
X1241566Y779752D02*
X1244106Y782291D01*
Y787370D01*
X1241566Y789909D01*
X1239027D01*
X1236488Y787370D01*
X1233949Y789909D01*
X1231410D01*
X1228870Y787370D01*
Y782291D01*
X1231410Y779752D01*
X1233949D01*
X1236488Y782291D01*
X1239027Y779752D01*
X1241566D01*
X1236488Y782291D02*
Y787370D01*
Y794987D02*
Y805144D01*
X1241566Y810222D02*
X1244106Y812761D01*
Y817840D01*
X1241566Y820379D01*
X1239027D01*
X1236488Y817840D01*
Y815301D01*
Y817840D01*
X1233949Y820379D01*
X1231410D01*
X1228870Y817840D01*
Y812761D01*
X1231410Y810222D01*
X1236488Y825457D02*
Y835614D01*
X1228870Y850849D02*
Y840692D01*
X1239027Y850849D01*
X1241566D01*
X1244106Y848310D01*
Y843232D01*
X1241566Y840692D01*
Y855927D02*
X1244106Y858467D01*
Y863545D01*
X1241566Y866084D01*
X1239027D01*
X1236488Y863545D01*
Y861006D01*
Y863545D01*
X1233949Y866084D01*
X1231410D01*
X1228870Y863545D01*
Y858467D01*
X1231410Y855927D01*
X1219727Y693420D02*
X1209571D01*
X1204492Y698498D01*
X1209571Y703577D01*
X1219727D01*
X1204492Y716273D02*
Y711194D01*
X1207031Y708655D01*
X1212110D01*
X1214649Y711194D01*
Y716273D01*
X1212110Y718812D01*
X1209571D01*
Y708655D01*
X1214649Y723890D02*
X1204492D01*
X1209571D01*
X1212110Y726429D01*
X1214649Y728969D01*
Y731508D01*
X1204492Y739125D02*
Y746743D01*
X1207031Y749282D01*
X1209571Y746743D01*
Y741664D01*
X1212110Y739125D01*
X1214649Y741664D01*
Y749282D01*
X1204492Y754360D02*
Y759439D01*
Y756899D01*
X1214649D01*
Y754360D01*
X1204492Y769595D02*
Y774674D01*
X1207031Y777213D01*
X1212110D01*
X1214649Y774674D01*
Y769595D01*
X1212110Y767056D01*
X1207031D01*
X1204492Y769595D01*
Y782291D02*
X1214649D01*
Y789909D01*
X1212110Y792448D01*
X1204492D01*
X1214649Y797526D02*
Y800066D01*
X1212110D01*
Y797526D01*
X1214649D01*
X1207031D02*
Y800066D01*
X1204492D01*
Y797526D01*
X1207031D01*
X1204492Y825457D02*
Y830536D01*
Y827997D01*
X1219727D01*
X1217188Y825457D01*
X1204492Y838153D02*
X1207031D01*
Y840692D01*
X1204492D01*
Y838153D01*
X1217188Y850849D02*
X1219727Y853388D01*
Y858467D01*
X1217188Y861006D01*
X1207031D01*
X1204492Y858467D01*
Y853388D01*
X1207031Y850849D01*
X1217188D01*
X1192810Y703577D02*
X1195349Y701038D01*
Y695959D01*
X1192810Y693420D01*
X1182653D01*
X1180114Y695959D01*
Y701038D01*
X1182653Y703577D01*
X1180114Y711194D02*
Y716273D01*
X1182653Y718812D01*
X1187732D01*
X1190271Y716273D01*
Y711194D01*
X1187732Y708655D01*
X1182653D01*
X1180114Y711194D01*
Y723890D02*
X1190271D01*
Y726429D01*
X1187732Y728969D01*
X1180114D01*
X1187732D01*
X1190271Y731508D01*
X1187732Y734047D01*
X1180114D01*
X1175036Y739125D02*
X1190271D01*
Y746743D01*
X1187732Y749282D01*
X1182653D01*
X1180114Y746743D01*
Y739125D01*
X1190271Y756899D02*
Y761978D01*
X1187732Y764517D01*
X1180114D01*
Y756899D01*
X1182653Y754360D01*
X1185193Y756899D01*
Y764517D01*
X1180114Y769595D02*
X1190271D01*
Y777213D01*
X1187732Y779752D01*
X1180114D01*
X1190271Y784830D02*
X1182653D01*
X1180114Y787370D01*
Y794987D01*
X1177575D01*
X1175036Y792448D01*
Y789909D01*
X1180114Y794987D02*
X1190271D01*
Y800066D02*
Y802605D01*
X1187732D01*
Y800066D01*
X1190271D01*
X1182653D02*
Y802605D01*
X1180114D01*
Y800066D01*
X1182653D01*
X1192810Y838153D02*
X1195349Y835614D01*
Y830536D01*
X1192810Y827997D01*
X1190271D01*
X1187732Y830536D01*
Y835614D01*
X1185193Y838153D01*
X1182653D01*
X1180114Y835614D01*
Y830536D01*
X1182653Y827997D01*
X1190271Y845771D02*
Y850849D01*
X1187732Y853388D01*
X1180114D01*
Y845771D01*
X1182653Y843232D01*
X1185193Y845771D01*
Y853388D01*
X1190271Y858467D02*
X1180114Y868623D01*
X1185193Y863545D01*
X1190271Y868623D01*
X1180114Y858467D01*
Y873702D02*
Y878780D01*
Y876241D01*
X1190271D01*
Y873702D01*
X1180114Y888937D02*
Y894015D01*
X1182653Y896554D01*
X1187732D01*
X1190271Y894015D01*
Y888937D01*
X1187732Y886398D01*
X1182653D01*
X1180114Y888937D01*
Y901633D02*
X1190271D01*
Y909250D01*
X1187732Y911789D01*
X1180114D01*
X1195349Y932103D02*
X1182653D01*
X1180114Y934642D01*
Y939720D01*
X1182653Y942260D01*
X1195349D01*
X1180114Y947338D02*
X1190271D01*
Y954955D01*
X1187732Y957495D01*
X1180114D01*
Y962573D02*
Y967651D01*
Y965112D01*
X1190271D01*
Y962573D01*
Y975269D02*
X1180114Y980347D01*
X1190271Y985425D01*
X1180114Y998121D02*
Y993043D01*
X1182653Y990504D01*
X1187732D01*
X1190271Y993043D01*
Y998121D01*
X1187732Y1000661D01*
X1185193D01*
Y990504D01*
X1190271Y1005739D02*
X1180114D01*
X1185193D01*
X1187732Y1008278D01*
X1190271Y1010817D01*
Y1013356D01*
X1180114Y1020974D02*
Y1028592D01*
X1182653Y1031131D01*
X1185193Y1028592D01*
Y1023513D01*
X1187732Y1020974D01*
X1190271Y1023513D01*
Y1031131D01*
X1180114Y1036209D02*
Y1041288D01*
Y1038748D01*
X1190271D01*
Y1036209D01*
X1192810Y1051444D02*
X1190271D01*
Y1048905D01*
Y1053983D01*
Y1051444D01*
X1182653D01*
X1180114Y1053983D01*
X1190271Y1061601D02*
X1182653D01*
X1180114Y1064140D01*
Y1071758D01*
X1177575D01*
X1175036Y1069218D01*
Y1066679D01*
X1180114Y1071758D02*
X1190271D01*
M02*
