G04*
G04 #@! TF.GenerationSoftware,Altium Limited,Altium Designer,23.4.1 (23)*
G04*
G04 Layer_Color=32768*
%FSLAX44Y44*%
%MOMM*%
G71*
G04*
G04 #@! TF.SameCoordinates,89D196A3-88CA-4BC0-B6F8-5B7F0D742441*
G04*
G04*
G04 #@! TF.FilePolarity,Positive*
G04*
G01*
G75*
%ADD12C,0.1000*%
%ADD13C,0.1270*%
%ADD79C,0.0500*%
D12*
X345000Y354000D02*
X355000D01*
X350000Y349000D02*
Y359000D01*
X317000Y354000D02*
X327000D01*
X322000Y349000D02*
Y359000D01*
X311000Y300000D02*
Y310000D01*
X306000Y305000D02*
X316000D01*
X311000Y254000D02*
Y264000D01*
X306000Y259000D02*
X316000D01*
X218000Y135000D02*
Y145000D01*
X213000Y140000D02*
X223000D01*
D13*
X73500Y63000D02*
Y108000D01*
X146500D01*
Y63000D02*
Y108000D01*
X73500Y63000D02*
X146500D01*
X388500Y247500D02*
X433500D01*
X388500Y174500D02*
Y247500D01*
Y174500D02*
X433500D01*
Y247500D01*
D79*
X363700Y354000D02*
G03*
X363700Y354000I-13700J0D01*
G01*
X335700D02*
G03*
X335700Y354000I-13700J0D01*
G01*
X307450Y330600D02*
Y401000D01*
Y330600D02*
X312450D01*
Y136000D02*
Y330600D01*
X117450Y136000D02*
X312450D01*
X117450D02*
Y330600D01*
X122450D01*
Y401000D01*
X307450D01*
X22550Y144400D02*
Y278400D01*
X78850D01*
Y144400D02*
Y278400D01*
X22550Y144400D02*
X78850D01*
X45700Y211400D02*
X55700D01*
X50700Y206400D02*
Y216400D01*
X207900Y170000D02*
X254100D01*
X207900D02*
Y192000D01*
X254100D01*
Y170000D02*
Y192000D01*
X207900Y302000D02*
X254100D01*
X207900D02*
Y324000D01*
X254100D01*
Y302000D02*
Y324000D01*
X287250Y325000D02*
X334750D01*
X287250Y285000D02*
X334750D01*
X287250D02*
Y325000D01*
X334750Y285000D02*
Y325000D01*
X287250Y279000D02*
X334750D01*
X287250Y239000D02*
X334750D01*
X287250D02*
Y279000D01*
X334750Y239000D02*
Y279000D01*
X201500Y158500D02*
X234500D01*
X201500Y121500D02*
X234500D01*
Y158500D01*
X201500Y121500D02*
Y158500D01*
M02*
