G04*
G04 #@! TF.GenerationSoftware,Altium Limited,Altium Designer,23.4.1 (23)*
G04*
G04 Layer_Color=255*
%FSLAX44Y44*%
%MOMM*%
G71*
G04*
G04 #@! TF.SameCoordinates,89D196A3-88CA-4BC0-B6F8-5B7F0D742441*
G04*
G04*
G04 #@! TF.FilePolarity,Positive*
G04*
G01*
G75*
%ADD22R,1.8000X1.8400*%
%ADD31R,1.8400X1.8000*%
%ADD34R,1.0000X1.8000*%
%ADD59C,0.3000*%
%ADD60C,1.5000*%
%ADD61O,1.0000X1.8000*%
%ADD62C,0.6500*%
%ADD63O,1.0000X2.1000*%
%ADD64C,1.6500*%
%ADD65R,1.6500X1.6500*%
%ADD68R,0.9000X0.9000*%
%ADD69R,1.5000X0.9000*%
%ADD70R,0.9000X1.5000*%
%ADD71R,2.0000X2.0000*%
%ADD72R,1.0000X1.2000*%
D22*
X121000Y123000D02*
D03*
X151000D02*
D03*
D31*
X234020Y63000D02*
D03*
Y33000D02*
D03*
X204000Y63000D02*
D03*
Y33000D02*
D03*
D34*
X375500Y160000D02*
D03*
X406500D02*
D03*
D59*
X222950Y232400D02*
D03*
X236950D02*
D03*
X215950Y239400D02*
D03*
X229950D02*
D03*
X243950D02*
D03*
X222950Y246400D02*
D03*
X236950D02*
D03*
X215950Y253400D02*
D03*
X229950D02*
D03*
X243950D02*
D03*
X222950Y260400D02*
D03*
X236950D02*
D03*
D60*
X350000Y354000D02*
D03*
X322000D02*
D03*
D61*
X261200Y39725D02*
D03*
X174800D02*
D03*
D62*
X246900Y76525D02*
D03*
X189100D02*
D03*
D63*
X174800Y81525D02*
D03*
X261200D02*
D03*
D64*
X38000Y186000D02*
D03*
X63400D02*
D03*
X38000Y160600D02*
D03*
X63400Y211400D02*
D03*
X38000D02*
D03*
X63400Y236800D02*
D03*
Y262200D02*
D03*
X38000Y236800D02*
D03*
Y262200D02*
D03*
D65*
X63400Y160600D02*
D03*
D68*
X215950Y232400D02*
D03*
X229950D02*
D03*
X243950D02*
D03*
X215950Y246400D02*
D03*
X229950D02*
D03*
X243950D02*
D03*
X215950Y260400D02*
D03*
X229950D02*
D03*
X243950D02*
D03*
D69*
X127450Y323600D02*
D03*
Y310900D02*
D03*
Y298200D02*
D03*
Y285500D02*
D03*
Y272800D02*
D03*
Y260100D02*
D03*
Y247400D02*
D03*
Y234700D02*
D03*
Y222000D02*
D03*
Y209300D02*
D03*
Y196600D02*
D03*
Y183900D02*
D03*
Y171200D02*
D03*
Y158500D02*
D03*
X302450D02*
D03*
Y171200D02*
D03*
Y183900D02*
D03*
Y196600D02*
D03*
Y209300D02*
D03*
Y222000D02*
D03*
Y234700D02*
D03*
Y247400D02*
D03*
Y260100D02*
D03*
Y272800D02*
D03*
Y285500D02*
D03*
Y298200D02*
D03*
Y310900D02*
D03*
Y323600D02*
D03*
D70*
X157800Y146000D02*
D03*
X170500D02*
D03*
X183200D02*
D03*
X195900D02*
D03*
X208600D02*
D03*
X221300D02*
D03*
X234000D02*
D03*
X246700D02*
D03*
X259400D02*
D03*
X272100D02*
D03*
D71*
X335000Y285000D02*
D03*
D72*
X414500Y239000D02*
D03*
X397500D02*
D03*
X414500Y183000D02*
D03*
X397500D02*
D03*
M02*
