G04*
G04 #@! TF.GenerationSoftware,Altium Limited,Altium Designer,23.4.1 (23)*
G04*
G04 Layer_Color=65535*
%FSLAX44Y44*%
%MOMM*%
G71*
G04*
G04 #@! TF.SameCoordinates,89D196A3-88CA-4BC0-B6F8-5B7F0D742441*
G04*
G04*
G04 #@! TF.FilePolarity,Positive*
G04*
G01*
G75*
%ADD10C,0.2000*%
%ADD11C,0.2500*%
%ADD12C,0.1000*%
%ADD13C,0.1270*%
%ADD14C,0.1600*%
%ADD15C,0.1500*%
%ADD16C,0.1524*%
%ADD17C,0.1800*%
D10*
X362700Y354000D02*
G03*
X362700Y354000I-12700J0D01*
G01*
X334700D02*
G03*
X334700Y354000I-12700J0D01*
G01*
X260500Y18500D02*
Y26000D01*
X175500Y18500D02*
X260500D01*
X175500D02*
Y26000D01*
X260500Y53500D02*
Y66000D01*
X175500Y53500D02*
Y66000D01*
X24550Y146400D02*
X76850D01*
Y276400D01*
X24550Y146400D02*
Y276400D01*
X76850D01*
X294250Y154250D02*
X297500D01*
X332500D02*
X335750D01*
Y192500D02*
Y195750D01*
Y154250D02*
Y157500D01*
X294250Y195750D02*
X297500D01*
X332500D02*
X335750D01*
X294250Y192500D02*
Y195750D01*
Y154250D02*
Y157500D01*
X304000Y312000D02*
Y320000D01*
X312000D01*
X304000Y290000D02*
Y298000D01*
Y290000D02*
X312000D01*
X304000Y266000D02*
Y274000D01*
X312000D01*
X304000Y244000D02*
Y252000D01*
Y244000D02*
X312000D01*
X233000Y138000D02*
Y142000D01*
X203000Y138000D02*
Y142000D01*
X216000Y147000D02*
X217000D01*
X216000Y133000D02*
X220000D01*
X319000Y76997D02*
Y70332D01*
X322332Y67000D01*
X325664Y70332D01*
Y76997D01*
X328997D02*
Y67000D01*
X333995D01*
X335661Y68666D01*
Y70332D01*
X333995Y71998D01*
X328997D01*
X333995D01*
X335661Y73664D01*
Y75331D01*
X333995Y76997D01*
X328997D01*
X338994D02*
Y68666D01*
X340660Y67000D01*
X343992D01*
X345658Y68666D01*
Y76997D01*
X355655Y75331D02*
X353989Y76997D01*
X350657D01*
X348990Y75331D01*
Y73664D01*
X350657Y71998D01*
X353989D01*
X355655Y70332D01*
Y68666D01*
X353989Y67000D01*
X350657D01*
X348990Y68666D01*
X291846Y217261D02*
Y208930D01*
X293512Y207264D01*
X296844D01*
X298510Y208930D01*
Y217261D01*
X306841Y207264D02*
Y217261D01*
X301843Y212262D01*
X308507D01*
X93339Y58332D02*
X91673Y59998D01*
X88340D01*
X86674Y58332D01*
Y56666D01*
X88340Y55000D01*
X91673D01*
X93339Y53334D01*
Y51668D01*
X91673Y50002D01*
X88340D01*
X86674Y51668D01*
X96671Y59998D02*
Y50002D01*
X100003Y53334D01*
X103336Y50002D01*
Y59998D01*
X106668Y55000D02*
X113332D01*
X123329Y59998D02*
X116664D01*
Y50002D01*
X123329D01*
X116664Y55000D02*
X119997D01*
X126661Y50002D02*
Y59998D01*
X133326Y50002D01*
Y59998D01*
X258504Y279425D02*
Y289422D01*
X263502D01*
X265168Y287756D01*
Y284424D01*
X263502Y282757D01*
X258504D01*
X261836D02*
X265168Y279425D01*
X268501D02*
X271833D01*
X270167D01*
Y289422D01*
X268501Y287756D01*
X276831D02*
X278498Y289422D01*
X281830D01*
X283496Y287756D01*
Y286090D01*
X281830Y284424D01*
X283496Y282757D01*
Y281091D01*
X281830Y279425D01*
X278498D01*
X276831Y281091D01*
Y282757D01*
X278498Y284424D01*
X276831Y286090D01*
Y287756D01*
X278498Y284424D02*
X281830D01*
X256504Y202002D02*
Y211998D01*
X261502D01*
X263169Y210332D01*
Y207000D01*
X261502Y205334D01*
X256504D01*
X259836D02*
X263169Y202002D01*
X266501D02*
X269833D01*
X268167D01*
Y211998D01*
X266501Y210332D01*
X274832Y211998D02*
X281496D01*
Y210332D01*
X274832Y203668D01*
Y202002D01*
X339504Y305002D02*
Y314998D01*
X344502D01*
X346169Y313332D01*
Y310000D01*
X344502Y308334D01*
X339504D01*
X342836D02*
X346169Y305002D01*
X349501D02*
X352833D01*
X351167D01*
Y314998D01*
X349501Y313332D01*
X364496Y314998D02*
X361164Y313332D01*
X357831Y310000D01*
Y306668D01*
X359498Y305002D01*
X362830D01*
X364496Y306668D01*
Y308334D01*
X362830Y310000D01*
X357831D01*
X353504Y87002D02*
Y96998D01*
X358502D01*
X360168Y95332D01*
Y92000D01*
X358502Y90334D01*
X353504D01*
X356836D02*
X360168Y87002D01*
X363501D02*
X366833D01*
X365167D01*
Y96998D01*
X363501Y95332D01*
X378496Y96998D02*
X371832D01*
Y92000D01*
X375164Y93666D01*
X376830D01*
X378496Y92000D01*
Y88668D01*
X376830Y87002D01*
X373498D01*
X371832Y88668D01*
X369504Y305002D02*
Y314998D01*
X374502D01*
X376169Y313332D01*
Y310000D01*
X374502Y308334D01*
X369504D01*
X372836D02*
X376169Y305002D01*
X379501D02*
X382833D01*
X381167D01*
Y314998D01*
X379501Y313332D01*
X392830Y305002D02*
Y314998D01*
X387831Y310000D01*
X394496D01*
X360504Y162002D02*
Y171998D01*
X365502D01*
X367169Y170332D01*
Y167000D01*
X365502Y165334D01*
X360504D01*
X363836D02*
X367169Y162002D01*
X370501D02*
X373833D01*
X372167D01*
Y171998D01*
X370501Y170332D01*
X378831D02*
X380498Y171998D01*
X383830D01*
X385496Y170332D01*
Y168666D01*
X383830Y167000D01*
X382164D01*
X383830D01*
X385496Y165334D01*
Y163668D01*
X383830Y162002D01*
X380498D01*
X378831Y163668D01*
X359504Y232002D02*
Y241998D01*
X364502D01*
X366169Y240332D01*
Y237000D01*
X364502Y235334D01*
X359504D01*
X362836D02*
X366169Y232002D01*
X369501D02*
X372833D01*
X371167D01*
Y241998D01*
X369501Y240332D01*
X384496Y232002D02*
X377831D01*
X384496Y238666D01*
Y240332D01*
X382830Y241998D01*
X379498D01*
X377831Y240332D01*
X128669Y140002D02*
Y149998D01*
X133668D01*
X135334Y148332D01*
Y145000D01*
X133668Y143334D01*
X128669D01*
X132002D02*
X135334Y140002D01*
X138666Y141668D02*
X140332Y140002D01*
X143665D01*
X145331Y141668D01*
Y148332D01*
X143665Y149998D01*
X140332D01*
X138666Y148332D01*
Y146666D01*
X140332Y145000D01*
X145331D01*
X153669Y319002D02*
Y328998D01*
X158668D01*
X160334Y327332D01*
Y324000D01*
X158668Y322334D01*
X153669D01*
X157002D02*
X160334Y319002D01*
X170331D02*
X163666D01*
X170331Y325666D01*
Y327332D01*
X168664Y328998D01*
X165332D01*
X163666Y327332D01*
X155336Y271002D02*
Y280998D01*
X160334D01*
X162000Y279332D01*
Y276000D01*
X160334Y274334D01*
X155336D01*
X158668D02*
X162000Y271002D01*
X165332D02*
X168664D01*
X166998D01*
Y280998D01*
X165332Y279332D01*
X309334Y330668D02*
Y337332D01*
X307668Y338998D01*
X304335D01*
X302669Y337332D01*
Y330668D01*
X304335Y329002D01*
X307668D01*
X306002Y332334D02*
X309334Y329002D01*
X307668D02*
X309334Y330668D01*
X319331Y329002D02*
X312666D01*
X319331Y335666D01*
Y337332D01*
X317665Y338998D01*
X314332D01*
X312666Y337332D01*
X311000Y228668D02*
Y235332D01*
X309334Y236998D01*
X306002D01*
X304335Y235332D01*
Y228668D01*
X306002Y227002D01*
X309334D01*
X307668Y230334D02*
X311000Y227002D01*
X309334D02*
X311000Y228668D01*
X314332Y227002D02*
X317665D01*
X315998D01*
Y236998D01*
X314332Y235332D01*
X58335Y291002D02*
Y300998D01*
X63334D01*
X65000Y299332D01*
Y296000D01*
X63334Y294334D01*
X58335D01*
X68332Y291002D02*
X71665D01*
X69998D01*
Y300998D01*
X68332Y299332D01*
X257976Y316426D02*
Y306429D01*
X262974D01*
X264640Y308095D01*
Y314760D01*
X262974Y316426D01*
X257976D01*
X274637D02*
X271305Y314760D01*
X267972Y311428D01*
Y308095D01*
X269639Y306429D01*
X272971D01*
X274637Y308095D01*
Y309762D01*
X272971Y311428D01*
X267972D01*
X256044Y185010D02*
Y175014D01*
X261043D01*
X262709Y176680D01*
Y183344D01*
X261043Y185010D01*
X256044D01*
X272706D02*
X266041D01*
Y180012D01*
X269373Y181678D01*
X271040D01*
X272706Y180012D01*
Y176680D01*
X271040Y175014D01*
X267707D01*
X266041Y176680D01*
X308334Y102332D02*
X306668Y103998D01*
X303335D01*
X301669Y102332D01*
Y95668D01*
X303335Y94002D01*
X306668D01*
X308334Y95668D01*
X311666Y103998D02*
X318331D01*
Y102332D01*
X311666Y95668D01*
Y94002D01*
X88334Y149332D02*
X86668Y150998D01*
X83336D01*
X81669Y149332D01*
Y142668D01*
X83336Y141002D01*
X86668D01*
X88334Y142668D01*
X96664Y141002D02*
Y150998D01*
X91666Y146000D01*
X98331D01*
X157000Y56998D02*
X153668D01*
X155334D01*
Y48668D01*
X153668Y47002D01*
X152002D01*
X150336Y48668D01*
X160332Y47002D02*
X163664D01*
X161998D01*
Y56998D01*
X160332Y55332D01*
X211336Y118998D02*
Y109002D01*
X216334D01*
X218000Y110668D01*
Y117332D01*
X216334Y118998D01*
X211336D01*
X221332Y109002D02*
X224664D01*
X222998D01*
Y118998D01*
X221332Y117332D01*
D11*
X303750Y146000D02*
G03*
X303750Y146000I-1250J0D01*
G01*
X324250Y287000D02*
G03*
X324250Y287000I-1250J0D01*
G01*
Y241000D02*
G03*
X324250Y241000I-1250J0D01*
G01*
D12*
X234500Y151000D02*
G03*
X234500Y151000I-500J0D01*
G01*
X81000Y155999D02*
Y161997D01*
X83999D01*
X84999Y160998D01*
Y158998D01*
X83999Y157999D01*
X81000D01*
X82999D02*
X84999Y155999D01*
X90997Y160998D02*
X89997Y161997D01*
X87998D01*
X86998Y160998D01*
Y159998D01*
X87998Y158998D01*
X89997D01*
X90997Y157999D01*
Y156999D01*
X89997Y155999D01*
X87998D01*
X86998Y156999D01*
X92996Y161997D02*
X96995D01*
X94995D01*
Y155999D01*
X99994Y155000D02*
X100993Y155999D01*
Y156999D01*
X99994D01*
Y155999D01*
X100993D01*
X99994Y155000D01*
X98994Y154000D01*
X110990Y161997D02*
Y155999D01*
X113989D01*
X114989Y156999D01*
Y157999D01*
X113989Y158998D01*
X110990D01*
X113989D01*
X114989Y159998D01*
Y160998D01*
X113989Y161997D01*
X110990D01*
X116988D02*
Y155999D01*
X120987D01*
X84999Y187998D02*
X83999Y188997D01*
X82000D01*
X81000Y187998D01*
Y183999D01*
X82000Y182999D01*
X83999D01*
X84999Y183999D01*
X90997Y187998D02*
X89997Y188997D01*
X87998D01*
X86998Y187998D01*
Y186998D01*
X87998Y185998D01*
X89997D01*
X90997Y184999D01*
Y183999D01*
X89997Y182999D01*
X87998D01*
X86998Y183999D01*
X93996Y182000D02*
X94995Y182999D01*
Y183999D01*
X93996D01*
Y182999D01*
X94995D01*
X93996Y182000D01*
X92996Y181000D01*
X104992Y188997D02*
Y182999D01*
X107991D01*
X108991Y183999D01*
Y187998D01*
X107991Y188997D01*
X104992D01*
X110990Y182999D02*
X114989Y186998D01*
X116988Y182999D02*
Y188997D01*
X118988Y186998D01*
X120987Y188997D01*
Y182999D01*
X122986Y188997D02*
Y182999D01*
X125985D01*
X126985Y183999D01*
Y187998D01*
X125985Y188997D01*
X122986D01*
X81000Y208999D02*
Y214997D01*
X82999Y212998D01*
X84999Y214997D01*
Y208999D01*
X89997Y214997D02*
X87998D01*
X86998Y213998D01*
Y209999D01*
X87998Y208999D01*
X89997D01*
X90997Y209999D01*
Y213998D01*
X89997Y214997D01*
X96995Y213998D02*
X95995Y214997D01*
X93996D01*
X92996Y213998D01*
Y212998D01*
X93996Y211998D01*
X95995D01*
X96995Y210999D01*
Y209999D01*
X95995Y208999D01*
X93996D01*
X92996Y209999D01*
X98994Y214997D02*
X100993D01*
X99994D01*
Y208999D01*
X98994D01*
X100993D01*
X104992Y208000D02*
X105992Y208999D01*
Y209999D01*
X104992D01*
Y208999D01*
X105992D01*
X104992Y208000D01*
X103993Y207000D01*
X119987Y213998D02*
X118988Y214997D01*
X116988D01*
X115989Y213998D01*
Y209999D01*
X116988Y208999D01*
X118988D01*
X119987Y209999D01*
X121987Y214997D02*
Y208999D01*
X125985D01*
X127985Y214997D02*
Y208999D01*
Y210999D01*
X131983Y214997D01*
X128984Y211998D01*
X131983Y208999D01*
X84999Y238998D02*
X83999Y239997D01*
X82000D01*
X81000Y238998D01*
Y237998D01*
X82000Y236998D01*
X83999D01*
X84999Y235999D01*
Y234999D01*
X83999Y233999D01*
X82000D01*
X81000Y234999D01*
X90997Y238998D02*
X89997Y239997D01*
X87998D01*
X86998Y238998D01*
Y234999D01*
X87998Y233999D01*
X89997D01*
X90997Y234999D01*
X92996Y239997D02*
Y233999D01*
X96995D01*
X99994Y233000D02*
X100993Y233999D01*
Y234999D01*
X99994D01*
Y233999D01*
X100993D01*
X99994Y233000D01*
X98994Y232000D01*
X114989Y238998D02*
X113989Y239997D01*
X111990D01*
X110990Y238998D01*
Y237998D01*
X111990Y236998D01*
X113989D01*
X114989Y235999D01*
Y234999D01*
X113989Y233999D01*
X111990D01*
X110990Y234999D01*
X116988Y239997D02*
Y233999D01*
X119987D01*
X120987Y234999D01*
Y238998D01*
X119987Y239997D01*
X116988D01*
X122986Y233999D02*
Y237998D01*
X124986Y239997D01*
X126985Y237998D01*
Y233999D01*
Y236998D01*
X122986D01*
X81000Y263998D02*
X82000Y264997D01*
X83999D01*
X84999Y263998D01*
Y262998D01*
X83999Y261998D01*
X82999D01*
X83999D01*
X84999Y260999D01*
Y259999D01*
X83999Y258999D01*
X82000D01*
X81000Y259999D01*
X86998Y258999D02*
Y259999D01*
X87998D01*
Y258999D01*
X86998D01*
X91996Y263998D02*
X92996Y264997D01*
X94995D01*
X95995Y263998D01*
Y262998D01*
X94995Y261998D01*
X93996D01*
X94995D01*
X95995Y260999D01*
Y259999D01*
X94995Y258999D01*
X92996D01*
X91996Y259999D01*
X97994Y264997D02*
Y260999D01*
X99994Y258999D01*
X101993Y260999D01*
Y264997D01*
X104992Y258000D02*
X105992Y258999D01*
Y259999D01*
X104992D01*
Y258999D01*
X105992D01*
X104992Y258000D01*
X103993Y257000D01*
X119987Y263998D02*
X118988Y264997D01*
X116988D01*
X115989Y263998D01*
Y259999D01*
X116988Y258999D01*
X118988D01*
X119987Y259999D01*
Y261998D01*
X117988D01*
X121987Y258999D02*
Y264997D01*
X125985Y258999D01*
Y264997D01*
X127985D02*
Y258999D01*
X130984D01*
X131983Y259999D01*
Y263998D01*
X130984Y264997D01*
X127985D01*
D13*
X99500Y63000D02*
Y73000D01*
X120500D01*
Y63000D02*
Y73000D01*
X99500Y63000D02*
X120500D01*
X86500Y73000D02*
Y108000D01*
X133500D01*
Y73000D02*
Y108000D01*
X120500Y73000D02*
X133500D01*
X86500D02*
X120500D01*
X215000Y170550D02*
X247000D01*
X214500Y191450D02*
X247500D01*
X215000Y302550D02*
X247000D01*
X214500Y323450D02*
X247500D01*
D14*
X128600Y392574D02*
X133932D01*
X131266D01*
Y384576D01*
X136597D02*
X139263D01*
X137930D01*
Y389908D01*
X136597D01*
X144595Y391241D02*
Y389908D01*
X143262D01*
X145928D01*
X144595D01*
Y385909D01*
X145928Y384576D01*
X149927D02*
X152592D01*
X151259D01*
Y392574D01*
X149927D01*
X160590Y384576D02*
X157924D01*
X156591Y385909D01*
Y388575D01*
X157924Y389908D01*
X160590D01*
X161923Y388575D01*
Y387242D01*
X156591D01*
X164588Y389908D02*
X165921D01*
Y388575D01*
X164588D01*
Y389908D01*
Y385909D02*
X165921D01*
Y384576D01*
X164588D01*
Y385909D01*
X184582Y391241D02*
X183249Y392574D01*
X180583D01*
X179250Y391241D01*
Y385909D01*
X180583Y384576D01*
X183249D01*
X184582Y385909D01*
X187248Y384576D02*
Y392574D01*
X191246D01*
X192579Y391241D01*
Y388575D01*
X191246Y387242D01*
X187248D01*
X195245Y392574D02*
Y385909D01*
X196578Y384576D01*
X199244D01*
X200577Y385909D01*
Y392574D01*
X211240D02*
Y384576D01*
X215239D01*
X216572Y385909D01*
Y387242D01*
X215239Y388575D01*
X211240D01*
X215239D01*
X216572Y389908D01*
Y391241D01*
X215239Y392574D01*
X211240D01*
X220570Y384576D02*
X223236D01*
X224569Y385909D01*
Y388575D01*
X223236Y389908D01*
X220570D01*
X219237Y388575D01*
Y385909D01*
X220570Y384576D01*
X228568Y389908D02*
X231234D01*
X232567Y388575D01*
Y384576D01*
X228568D01*
X227235Y385909D01*
X228568Y387242D01*
X232567D01*
X235232Y389908D02*
Y384576D01*
Y387242D01*
X236565Y388575D01*
X237898Y389908D01*
X239231D01*
X248561Y392574D02*
Y384576D01*
X244563D01*
X243230Y385909D01*
Y388575D01*
X244563Y389908D01*
X248561D01*
X128600Y371140D02*
Y376471D01*
X131266Y379137D01*
X133932Y376471D01*
Y371140D01*
Y375138D01*
X128600D01*
X136597Y376471D02*
Y372472D01*
X137930Y371140D01*
X141929D01*
Y376471D01*
X145928Y377804D02*
Y376471D01*
X144595D01*
X147261D01*
X145928D01*
Y372472D01*
X147261Y371140D01*
X151259Y379137D02*
Y371140D01*
Y375138D01*
X152592Y376471D01*
X155258D01*
X156591Y375138D01*
Y371140D01*
X160590D02*
X163256D01*
X164588Y372472D01*
Y375138D01*
X163256Y376471D01*
X160590D01*
X159257Y375138D01*
Y372472D01*
X160590Y371140D01*
X167254Y376471D02*
Y371140D01*
Y373805D01*
X168587Y375138D01*
X169920Y376471D01*
X171253D01*
X175252D02*
X176584D01*
Y375138D01*
X175252D01*
Y376471D01*
Y372472D02*
X176584D01*
Y371140D01*
X175252D01*
Y372472D01*
X189914Y379137D02*
Y371140D01*
X193912D01*
X195245Y372472D01*
Y377804D01*
X193912Y379137D01*
X189914D01*
X199244Y376471D02*
X201910D01*
X203243Y375138D01*
Y371140D01*
X199244D01*
X197911Y372472D01*
X199244Y373805D01*
X203243D01*
X207241Y376471D02*
X209907D01*
X211240Y375138D01*
Y371140D01*
X207241D01*
X205908Y372472D01*
X207241Y373805D01*
X211240D01*
X213906Y371140D02*
Y376471D01*
X217904D01*
X219237Y375138D01*
Y371140D01*
X235232D02*
X233899Y372472D01*
X232567Y371140D01*
X231234D01*
X229901Y372472D01*
Y373805D01*
X231234Y375138D01*
X229901Y376471D01*
Y377804D01*
X231234Y379137D01*
X232567D01*
X233899Y377804D01*
Y376471D01*
X232567Y375138D01*
X233899Y373805D01*
Y372472D01*
X235232Y375138D02*
X233899Y373805D01*
X231234Y375138D02*
X232567D01*
X251227Y379137D02*
X245896D01*
Y371140D01*
X251227D01*
X245896Y375138D02*
X248561D01*
X253893Y371140D02*
Y376471D01*
X255226D01*
X256559Y375138D01*
Y371140D01*
Y375138D01*
X257892Y376471D01*
X259224Y375138D01*
Y371140D01*
X261890Y376471D02*
Y371140D01*
Y373805D01*
X263223Y375138D01*
X264556Y376471D01*
X265889D01*
X271221D02*
X273887D01*
X275219Y375138D01*
Y371140D01*
X271221D01*
X269888Y372472D01*
X271221Y373805D01*
X275219D01*
X277885Y371140D02*
Y376471D01*
X281884D01*
X283217Y375138D01*
Y371140D01*
X128600Y365700D02*
Y357703D01*
X132599D01*
X133932Y359036D01*
Y364367D01*
X132599Y365700D01*
X128600D01*
X137930Y363034D02*
X140596D01*
X141929Y361701D01*
Y357703D01*
X137930D01*
X136597Y359036D01*
X137930Y360368D01*
X141929D01*
X145928Y364367D02*
Y363034D01*
X144595D01*
X147261D01*
X145928D01*
Y359036D01*
X147261Y357703D01*
X155258D02*
X152592D01*
X151259Y359036D01*
Y361701D01*
X152592Y363034D01*
X155258D01*
X156591Y361701D01*
Y360368D01*
X151259D01*
X159257Y363034D02*
X160590D01*
Y361701D01*
X159257D01*
Y363034D01*
Y359036D02*
X160590D01*
Y357703D01*
X159257D01*
Y359036D01*
X173919Y364367D02*
X175252Y365700D01*
X177917D01*
X179250Y364367D01*
Y363034D01*
X177917Y361701D01*
X179250Y360368D01*
Y359036D01*
X177917Y357703D01*
X175252D01*
X173919Y359036D01*
Y360368D01*
X175252Y361701D01*
X173919Y363034D01*
Y364367D01*
X175252Y361701D02*
X177917D01*
X181916D02*
X187248D01*
X195245Y365700D02*
X189914D01*
Y361701D01*
X192579Y363034D01*
X193912D01*
X195245Y361701D01*
Y359036D01*
X193912Y357703D01*
X191246D01*
X189914Y359036D01*
X197911Y361701D02*
X203243D01*
X211240Y357703D02*
X205908D01*
X211240Y363034D01*
Y364367D01*
X209907Y365700D01*
X207241D01*
X205908Y364367D01*
X213906D02*
X215239Y365700D01*
X217904D01*
X219237Y364367D01*
Y363034D01*
X217904Y361701D01*
X216572D01*
X217904D01*
X219237Y360368D01*
Y359036D01*
X217904Y357703D01*
X215239D01*
X213906Y359036D01*
X133932Y350930D02*
X132599Y352263D01*
X129933D01*
X128600Y350930D01*
Y349597D01*
X129933Y348265D01*
X132599D01*
X133932Y346932D01*
Y345599D01*
X132599Y344266D01*
X129933D01*
X128600Y345599D01*
X137930Y349597D02*
X140596D01*
X141929Y348265D01*
Y344266D01*
X137930D01*
X136597Y345599D01*
X137930Y346932D01*
X141929D01*
X144595Y349597D02*
X149926Y344266D01*
X147261Y346932D01*
X149926Y349597D01*
X144595Y344266D01*
X152592D02*
X155258D01*
X153925D01*
Y349597D01*
X152592D01*
X160590Y344266D02*
X163256D01*
X164588Y345599D01*
Y348265D01*
X163256Y349597D01*
X160590D01*
X159257Y348265D01*
Y345599D01*
X160590Y344266D01*
X167254D02*
Y349597D01*
X171253D01*
X172586Y348265D01*
Y344266D01*
X183249Y352263D02*
Y345599D01*
X184582Y344266D01*
X187248D01*
X188581Y345599D01*
Y352263D01*
X191246Y344266D02*
Y349597D01*
X195245D01*
X196578Y348265D01*
Y344266D01*
X199244D02*
X201910D01*
X200577D01*
Y349597D01*
X199244D01*
X205908D02*
X208574Y344266D01*
X211240Y349597D01*
X217904Y344266D02*
X215239D01*
X213906Y345599D01*
Y348265D01*
X215239Y349597D01*
X217904D01*
X219237Y348265D01*
Y346932D01*
X213906D01*
X221903Y349597D02*
Y344266D01*
Y346932D01*
X223236Y348265D01*
X224569Y349597D01*
X225902D01*
X229901Y344266D02*
X233899D01*
X235232Y345599D01*
X233899Y346932D01*
X231234D01*
X229901Y348265D01*
X231234Y349597D01*
X235232D01*
X237898Y344266D02*
X240564D01*
X239231D01*
Y349597D01*
X237898D01*
X245896Y350930D02*
Y349597D01*
X244563D01*
X247228D01*
X245896D01*
Y345599D01*
X247228Y344266D01*
X251227Y349597D02*
Y345599D01*
X252560Y344266D01*
X256559D01*
Y342933D01*
X255226Y341600D01*
X253893D01*
X256559Y344266D02*
Y349597D01*
X269888Y344266D02*
X267222Y346932D01*
Y349597D01*
X269888Y352263D01*
X279218Y344266D02*
X273887D01*
X279218Y349597D01*
Y350930D01*
X277885Y352263D01*
X275219D01*
X273887Y350930D01*
X281884Y344266D02*
X287215Y349597D01*
X289881Y350930D02*
X291214Y352263D01*
X293880D01*
X295213Y350930D01*
Y349597D01*
X293880Y348265D01*
X292547D01*
X293880D01*
X295213Y346932D01*
Y345599D01*
X293880Y344266D01*
X291214D01*
X289881Y345599D01*
X297879Y344266D02*
X300545Y346932D01*
Y349597D01*
X297879Y352263D01*
D15*
X336462Y336815D02*
X339128D01*
X337795D01*
Y328817D01*
X336462D01*
X339128D01*
X347125Y336815D02*
X344460D01*
X343127Y335482D01*
Y330150D01*
X344460Y328817D01*
X347125D01*
X348458Y330150D01*
Y335482D01*
X347125Y336815D01*
X351124Y335482D02*
X352457Y336815D01*
X355123D01*
X356456Y335482D01*
Y334149D01*
X355123Y332816D01*
X353790D01*
X355123D01*
X356456Y331483D01*
Y330150D01*
X355123Y328817D01*
X352457D01*
X351124Y330150D01*
X364453Y336815D02*
X359122D01*
Y332816D01*
X361787Y334149D01*
X363120D01*
X364453Y332816D01*
Y330150D01*
X363120Y328817D01*
X360454D01*
X359122Y330150D01*
X309500Y378497D02*
X312166D01*
X310833D01*
Y370500D01*
X309500D01*
X312166D01*
X320163Y378497D02*
X317497D01*
X316164Y377164D01*
Y371833D01*
X317497Y370500D01*
X320163D01*
X321496Y371833D01*
Y377164D01*
X320163Y378497D01*
X324162Y377164D02*
X325495Y378497D01*
X328161D01*
X329493Y377164D01*
Y375832D01*
X328161Y374499D01*
X326828D01*
X328161D01*
X329493Y373166D01*
Y371833D01*
X328161Y370500D01*
X325495D01*
X324162Y371833D01*
X336158Y370500D02*
Y378497D01*
X332159Y374499D01*
X337491D01*
D16*
X67007Y279500D02*
X68700Y281193D01*
Y284578D01*
X67007Y286271D01*
X60236D01*
X58543Y284578D01*
Y281193D01*
X60236Y279500D01*
X61929D01*
X63622Y281193D01*
Y286271D01*
X41700Y279500D02*
Y282886D01*
Y281193D01*
X31543D01*
X33236Y279500D01*
Y287964D02*
X31543Y289657D01*
Y293042D01*
X33236Y294735D01*
X40007D01*
X41700Y293042D01*
Y289657D01*
X40007Y287964D01*
X33236D01*
X68700Y139300D02*
Y142686D01*
Y140993D01*
X58543D01*
X60236Y139300D01*
X41700Y143071D02*
Y136300D01*
X34929Y143071D01*
X33236D01*
X31543Y141378D01*
Y137993D01*
X33236Y136300D01*
D17*
X137800Y222800D02*
Y230797D01*
X141799D01*
X143132Y229464D01*
Y226799D01*
X141799Y225466D01*
X137800D01*
X140466D02*
X143132Y222800D01*
X145797Y230797D02*
X151129Y222800D01*
Y230797D02*
X145797Y222800D01*
X171800Y230797D02*
X177132D01*
X174466D01*
Y222800D01*
X179797Y230797D02*
X185129Y222800D01*
Y230797D02*
X179797Y222800D01*
M02*
