G04*
G04 #@! TF.GenerationSoftware,Altium Limited,Altium Designer,23.4.1 (23)*
G04*
G04 Layer_Physical_Order=1*
G04 Layer_Color=255*
%FSLAX44Y44*%
%MOMM*%
G71*
G04*
G04 #@! TF.SameCoordinates,89D196A3-88CA-4BC0-B6F8-5B7F0D742441*
G04*
G04*
G04 #@! TF.FilePolarity,Positive*
G04*
G01*
G75*
%ADD22R,1.8000X1.8400*%
%ADD23R,0.6000X1.1500*%
%ADD24R,0.3000X1.1500*%
%ADD25R,1.2000X1.0000*%
G04:AMPARAMS|DCode=26|XSize=1.1mm|YSize=1.73mm|CornerRadius=0.11mm|HoleSize=0mm|Usage=FLASHONLY|Rotation=180.000|XOffset=0mm|YOffset=0mm|HoleType=Round|Shape=RoundedRectangle|*
%AMROUNDEDRECTD26*
21,1,1.1000,1.5100,0,0,180.0*
21,1,0.8800,1.7300,0,0,180.0*
1,1,0.2200,-0.4400,0.7550*
1,1,0.2200,0.4400,0.7550*
1,1,0.2200,0.4400,-0.7550*
1,1,0.2200,-0.4400,-0.7550*
%
%ADD26ROUNDEDRECTD26*%
%ADD27R,1.8000X1.0000*%
%ADD28R,0.7000X0.2500*%
%ADD29R,0.2500X0.7000*%
%ADD30R,1.3500X0.6000*%
%ADD31R,1.8400X1.8000*%
%ADD32R,1.1000X1.4000*%
%ADD33R,0.9000X1.4000*%
%ADD34R,1.0000X1.8000*%
%ADD41R,2.7500X2.7500*%
%ADD55C,0.2540*%
%ADD56C,0.5000*%
%ADD57C,0.2300*%
%ADD58C,0.3000*%
%ADD59C,0.3000*%
%ADD60C,1.5000*%
%ADD61O,1.0000X1.8000*%
%ADD62C,0.6500*%
%ADD63O,1.0000X2.1000*%
%ADD64C,1.6500*%
%ADD65R,1.6500X1.6500*%
%ADD66C,0.6000*%
%ADD67C,0.8000*%
G36*
X237528Y416954D02*
X257591Y413978D01*
X277266Y409049D01*
X292315Y403665D01*
X291794Y400665D01*
X142746D01*
X142225Y403665D01*
X157274Y409049D01*
X176949Y413978D01*
X197012Y416954D01*
X217270Y417949D01*
X237528Y416954D01*
D02*
G37*
G36*
X314698Y393545D02*
X332095Y383117D01*
X348386Y371035D01*
X354149Y365811D01*
X352520Y363239D01*
X351890Y363500D01*
X348110D01*
X344619Y362054D01*
X341946Y359381D01*
X340500Y355890D01*
Y352110D01*
X341946Y348619D01*
X344619Y345946D01*
X348110Y344500D01*
X351890D01*
X355381Y345946D01*
X358054Y348619D01*
X359500Y352110D01*
Y355890D01*
X358821Y357528D01*
X361335Y359298D01*
X363414Y357414D01*
X377035Y342386D01*
X377374Y341928D01*
X375500Y339527D01*
Y333000D01*
Y326543D01*
X377705Y327456D01*
X379544Y329295D01*
X380540Y331699D01*
Y332624D01*
X383540Y333615D01*
X389117Y326095D01*
X399545Y308698D01*
X408217Y290363D01*
X415049Y271266D01*
X419978Y251591D01*
X422954Y231528D01*
X423144Y227655D01*
X420173Y226988D01*
X419697Y228138D01*
X418138Y229697D01*
X416500Y230375D01*
Y225000D01*
Y219625D01*
X418138Y220303D01*
X419697Y221862D01*
X422998Y221994D01*
X423434Y221748D01*
X423949Y211270D01*
X423415Y200403D01*
X420540Y200102D01*
X419697Y202138D01*
X418138Y203697D01*
X416500Y204375D01*
Y199000D01*
Y193625D01*
X418138Y194303D01*
X419697Y195862D01*
X420255Y197209D01*
X423225Y196542D01*
X422954Y191012D01*
X419978Y170949D01*
X415049Y151274D01*
X408217Y132177D01*
X402088Y119220D01*
X399088Y119894D01*
Y179500D01*
X399000Y179943D01*
Y192057D01*
X399088Y192500D01*
Y210174D01*
X399000Y210618D01*
Y227874D01*
X377000D01*
Y205474D01*
X389912D01*
Y197200D01*
X377000D01*
Y174800D01*
X389912D01*
Y114401D01*
X380512Y105000D01*
X377740Y106148D01*
Y110500D01*
X367500D01*
Y100460D01*
X372052D01*
X373200Y97688D01*
X340683Y65171D01*
X339890Y65500D01*
X336110D01*
X332619Y64054D01*
X329946Y61381D01*
X328500Y57890D01*
Y54110D01*
X328829Y53317D01*
X314100Y38588D01*
X301902D01*
X301089Y39849D01*
X300413Y41588D01*
X301000Y43005D01*
Y44995D01*
X300588Y45989D01*
Y98099D01*
X327401Y124912D01*
X332500D01*
X332943Y125000D01*
X346000D01*
Y134711D01*
X347050Y137436D01*
X347526Y137784D01*
X348071Y138009D01*
X348173Y138256D01*
X348388Y138413D01*
X349849Y140808D01*
X349939Y141391D01*
X350165Y141935D01*
Y155000D01*
X349999Y155401D01*
X352542Y157101D01*
X355340Y154303D01*
X354800Y153000D01*
X354800D01*
Y131000D01*
X377200D01*
Y153000D01*
X367817D01*
X365046Y153743D01*
X363936Y156421D01*
X363936D01*
X352817Y167540D01*
X352641Y167861D01*
X352057Y170699D01*
X353179Y171821D01*
X354288Y174500D01*
X357060Y174800D01*
X369000D01*
Y197200D01*
X348247D01*
Y201716D01*
X352006Y205474D01*
X369000D01*
Y227874D01*
X347000D01*
Y210480D01*
X342205Y205684D01*
X341168Y203181D01*
Y193370D01*
X340250Y190750D01*
X334066D01*
X331290Y191290D01*
X330849Y194290D01*
X331039Y194750D01*
Y219500D01*
X330003Y222003D01*
X327277Y224728D01*
X327742Y228506D01*
X328168Y228761D01*
X330005Y228000D01*
X331995D01*
X333832Y228761D01*
X335239Y230168D01*
X336000Y232005D01*
Y233995D01*
X335496Y235212D01*
X336390Y237303D01*
X337102Y238212D01*
X379000D01*
X379000Y238212D01*
X381679Y239321D01*
X384679Y242321D01*
X384679Y242321D01*
X385788Y245000D01*
Y249000D01*
X393200D01*
Y271000D01*
X370800D01*
Y249000D01*
X373276D01*
X374756Y246000D01*
X374593Y245788D01*
X335819D01*
X331750Y249858D01*
Y254500D01*
X314250D01*
Y247998D01*
X311250Y246756D01*
X308019Y249986D01*
Y257270D01*
X307750Y257920D01*
Y263212D01*
X321500D01*
X321500Y263212D01*
X322196Y263500D01*
X331750D01*
Y264712D01*
X340800D01*
Y249000D01*
X363200D01*
Y271000D01*
X346158D01*
X345979Y271179D01*
X343300Y272288D01*
X343300Y272288D01*
X331750D01*
Y273500D01*
X314250D01*
Y270788D01*
X290757D01*
X288079Y269679D01*
X288079Y269679D01*
X285000Y266600D01*
X282000Y267843D01*
Y267995D01*
X281239Y269832D01*
X280789Y270282D01*
Y270387D01*
X284966Y274564D01*
X284966Y274564D01*
X284966Y274564D01*
X285614Y275212D01*
X302000D01*
X302000Y275212D01*
X304679Y276321D01*
X313679Y285321D01*
X313679Y285321D01*
X314788Y288000D01*
Y290500D01*
X331750D01*
Y291712D01*
X340800D01*
Y279000D01*
X363200D01*
Y301000D01*
X340800D01*
Y299288D01*
X331750D01*
Y300500D01*
X314788D01*
Y309173D01*
X315115Y309500D01*
X331750D01*
Y310712D01*
X371931D01*
X378212Y304431D01*
Y301000D01*
X370800D01*
Y279000D01*
X393200D01*
Y301000D01*
X385788D01*
Y306000D01*
X385788Y306000D01*
X384679Y308679D01*
X384679D01*
X376179Y317179D01*
X373500Y318288D01*
X373500Y318288D01*
X342045D01*
X342042Y318291D01*
X340288Y321288D01*
X340375Y321500D01*
X329086D01*
X327206Y319500D01*
X314250D01*
Y318078D01*
X312079Y317179D01*
X312079Y317179D01*
X308321Y313421D01*
X307212Y310743D01*
X304440Y310000D01*
X290250D01*
Y308539D01*
X290000D01*
X287497Y307503D01*
X282994Y303000D01*
X282005D01*
X280168Y302239D01*
X278761Y300832D01*
X278000Y298995D01*
Y297005D01*
X278761Y295168D01*
X280168Y293761D01*
X282005Y293000D01*
X283995D01*
X285832Y293761D01*
X287239Y295168D01*
X288000Y297005D01*
Y297994D01*
X288157Y298151D01*
X290250Y300000D01*
Y300000D01*
X290250Y300000D01*
X307212D01*
Y289569D01*
X300431Y282788D01*
X284044D01*
X284044Y282788D01*
X281366Y281679D01*
Y281679D01*
X279608Y279921D01*
X279608Y279921D01*
X274322Y274635D01*
X273212Y271956D01*
X273212Y271956D01*
Y270283D01*
X272761Y269832D01*
X272000Y267995D01*
Y266005D01*
X272761Y264168D01*
X274168Y262761D01*
X276005Y262000D01*
X276157D01*
X277400Y259000D01*
X272821Y254421D01*
X272821Y254421D01*
X266321Y247921D01*
X265212Y245243D01*
X265212Y245243D01*
Y224779D01*
X262212Y222910D01*
X261995Y223000D01*
X260005D01*
X258168Y222239D01*
X256761Y220832D01*
X256000Y218995D01*
Y217005D01*
X256761Y215168D01*
X257461Y214468D01*
Y194393D01*
X255392Y192323D01*
X252873Y190923D01*
X250500Y191905D01*
X241700D01*
X241103Y191658D01*
X238103Y193618D01*
Y196567D01*
X252694D01*
Y218967D01*
X230694D01*
Y196567D01*
X231284D01*
Y189529D01*
X226655Y184901D01*
X223655Y185924D01*
Y188550D01*
X222673Y190923D01*
X220300Y191905D01*
X211500D01*
X209127Y190923D01*
X208145Y188550D01*
Y173450D01*
X209127Y171077D01*
X211500Y170095D01*
X220300D01*
X222673Y171077D01*
X223655Y173450D01*
Y177358D01*
X227344D01*
X229755Y178356D01*
X235345Y183946D01*
X238345Y182704D01*
Y173450D01*
X239327Y171077D01*
X241700Y170095D01*
X250500D01*
X252873Y171077D01*
X253855Y173450D01*
Y183797D01*
X255410D01*
X257913Y184834D01*
X262212Y189133D01*
X265212Y187890D01*
Y173000D01*
X265212Y173000D01*
X266321Y170321D01*
X271821Y164821D01*
Y164821D01*
X274500Y163712D01*
X274500Y163712D01*
X286500D01*
X286750Y163815D01*
X289750Y162690D01*
Y159250D01*
X298710D01*
Y158710D01*
X299250D01*
Y149750D01*
X303710D01*
Y149210D01*
X304962D01*
X306205Y146210D01*
X297874Y137879D01*
X295840Y138068D01*
X294040Y139500D01*
X282584D01*
X280706Y136539D01*
X234000D01*
Y138000D01*
X221000D01*
Y120000D01*
X221961D01*
Y105965D01*
X219189Y104817D01*
X214039Y109966D01*
Y120000D01*
X215000D01*
Y138000D01*
X202000D01*
Y133823D01*
X199000Y133071D01*
X198832Y133239D01*
X196995Y134000D01*
X195005D01*
X193588Y133413D01*
X191849Y134089D01*
X190588Y134902D01*
Y143099D01*
X193901Y146412D01*
X202000D01*
Y142000D01*
X214684Y142000D01*
X217460Y141460D01*
X217776Y141460D01*
X224000D01*
Y151000D01*
Y160540D01*
X217776D01*
X217460Y160540D01*
X214684Y160000D01*
X214460Y160000D01*
X202000D01*
Y155588D01*
X192000D01*
X190244Y155239D01*
X188756Y154244D01*
X182756Y148244D01*
X181761Y146756D01*
X181412Y145000D01*
Y112588D01*
X169393D01*
X167638Y112239D01*
X166149Y111244D01*
X160588Y105683D01*
X159219Y105898D01*
X157588Y106758D01*
Y112802D01*
X161721D01*
Y135202D01*
X141990D01*
Y145984D01*
X184006Y188000D01*
X184995D01*
X186832Y188761D01*
X188239Y190168D01*
X189000Y192005D01*
Y193995D01*
X188239Y195832D01*
X186832Y197239D01*
X184995Y198000D01*
X183005D01*
X181168Y197239D01*
X179761Y195832D01*
X179000Y193995D01*
Y193006D01*
X135948Y149953D01*
X134911Y147451D01*
Y134894D01*
X134720Y134767D01*
X131721Y135202D01*
Y135202D01*
X109721D01*
Y127539D01*
X103500D01*
Y135000D01*
X89500D01*
Y127539D01*
X88000D01*
X85497Y126503D01*
X81497Y122503D01*
X80461Y120000D01*
Y106000D01*
X74000D01*
Y92000D01*
X74000Y92000D01*
X73460Y89540D01*
X73460Y89540D01*
X73460Y89222D01*
Y83500D01*
X82000D01*
Y82000D01*
X83500D01*
Y74460D01*
X90540D01*
Y77495D01*
X93083Y78193D01*
X93540Y78211D01*
X95295Y76456D01*
X97500Y75542D01*
Y82000D01*
Y88457D01*
X95295Y87544D01*
X93540Y85789D01*
X93083Y85807D01*
X90540Y86505D01*
Y89222D01*
X90540Y89540D01*
X90540Y89540D01*
X90000Y92000D01*
X90000Y92000D01*
Y106000D01*
X87539D01*
Y110812D01*
X89500Y113000D01*
X103500D01*
Y120461D01*
X109721D01*
Y112802D01*
X131721D01*
X132461Y110109D01*
Y106000D01*
X130000D01*
X130000Y92316D01*
X129460Y89540D01*
X129460Y89224D01*
Y86505D01*
X126918Y85807D01*
X126460Y85789D01*
X124705Y87544D01*
X122500Y88457D01*
Y82000D01*
Y75542D01*
X124705Y76456D01*
X126460Y78211D01*
X126918Y78193D01*
X129460Y77495D01*
Y74460D01*
X136500D01*
Y82000D01*
X139500D01*
Y74460D01*
X145412D01*
X146540Y74460D01*
X148412Y72235D01*
Y69900D01*
X135099Y56588D01*
X93900D01*
X78800Y71688D01*
X79948Y74460D01*
X80500D01*
Y80500D01*
X72377D01*
X70688Y79800D01*
X66144Y84345D01*
X47756Y115688D01*
X48205Y116778D01*
X48500Y117132D01*
Y124000D01*
Y129375D01*
X46862Y128697D01*
X45303Y127138D01*
X44978Y126352D01*
X41688Y126030D01*
X27792Y149718D01*
X26625Y153560D01*
X29311Y154794D01*
X32194Y151910D01*
X35961Y150350D01*
X40039D01*
X43806Y151910D01*
X46690Y154794D01*
X48250Y158561D01*
Y162639D01*
X46690Y166406D01*
X43806Y169289D01*
X40039Y170850D01*
X35961D01*
X32194Y169289D01*
X29311Y166406D01*
X27750Y162639D01*
Y160180D01*
X24750Y159734D01*
X22921Y165758D01*
Y252432D01*
X26303Y255815D01*
X29311Y256394D01*
X32194Y253510D01*
X35961Y251950D01*
X40039D01*
X43806Y253510D01*
X46690Y256394D01*
X48250Y260161D01*
Y264239D01*
X46690Y268006D01*
X43806Y270889D01*
X40388Y272306D01*
Y295899D01*
X71901Y327412D01*
X100170D01*
X102065Y325500D01*
X113935D01*
X115830Y327412D01*
X179100D01*
X180608Y325904D01*
Y314200D01*
X168000D01*
Y291800D01*
X180412D01*
Y265735D01*
X168000D01*
Y243335D01*
X180412D01*
Y217000D01*
X180761Y215244D01*
X181756Y213756D01*
X190989Y204523D01*
X192477Y203528D01*
X194233Y203179D01*
X200694D01*
Y196567D01*
X222694D01*
Y218967D01*
X200694D01*
Y212355D01*
X196133D01*
X189588Y218901D01*
Y243335D01*
X190000D01*
Y265735D01*
X189588D01*
Y282003D01*
X192360Y283152D01*
X193756Y281756D01*
X195244Y280761D01*
X197000Y280412D01*
X202000D01*
Y273800D01*
X224000D01*
Y296200D01*
X202000D01*
Y289588D01*
X198901D01*
X190000Y298489D01*
Y314200D01*
X189784D01*
Y325295D01*
X191901Y327412D01*
X272099D01*
X275349Y324162D01*
X275761Y323168D01*
X277168Y321761D01*
X279005Y321000D01*
X280995D01*
X282832Y321761D01*
X284239Y323168D01*
X285000Y325005D01*
Y326995D01*
X284239Y328832D01*
X282832Y330239D01*
X282352Y331435D01*
X284380Y334435D01*
X304950D01*
X306481Y335069D01*
X307115Y336600D01*
Y394327D01*
X309649Y395932D01*
X314698Y393545D01*
D02*
G37*
G36*
X122785Y392133D02*
Y336600D01*
X122777Y336588D01*
X70000D01*
X68244Y336239D01*
X66756Y335244D01*
X36613Y305102D01*
X34124Y306855D01*
X34995Y308698D01*
X45423Y326095D01*
X57505Y342386D01*
X71126Y357414D01*
X86154Y371035D01*
X102445Y383117D01*
X119842Y393545D01*
X120251Y393738D01*
X122785Y392133D01*
D02*
G37*
G36*
X290250Y257215D02*
Y254000D01*
X300941D01*
Y248520D01*
X301977Y246017D01*
X314683Y233311D01*
X313535Y230539D01*
X288532D01*
X287832Y231239D01*
X285995Y232000D01*
X284005D01*
X283539Y231807D01*
X280579Y233507D01*
X280539Y233564D01*
Y236468D01*
X281239Y237168D01*
X282000Y239005D01*
Y240995D01*
X281239Y242832D01*
X279832Y244239D01*
X278251Y244894D01*
X277660Y246140D01*
X277115Y248000D01*
X278179Y249064D01*
X278179Y249064D01*
X278179Y249064D01*
X287478Y258363D01*
X290250Y257215D01*
D02*
G37*
G36*
X318941Y209054D02*
Y200250D01*
X299250D01*
Y194066D01*
X298710Y191290D01*
X295710Y190849D01*
X295250Y191039D01*
X289833D01*
X280539Y200333D01*
Y210436D01*
X280579Y210493D01*
X283539Y212193D01*
X284005Y212000D01*
X285995D01*
X287832Y212761D01*
X288532Y213461D01*
X314534D01*
X318941Y209054D01*
D02*
G37*
G36*
X336250Y158710D02*
X340790D01*
Y158710D01*
X343265Y159735D01*
X348000Y155000D01*
Y141935D01*
X346540Y139540D01*
X336500D01*
Y132000D01*
X333500D01*
Y139540D01*
X323460D01*
X321000Y140844D01*
Y143036D01*
X321039Y143131D01*
Y149210D01*
X326000D01*
Y155250D01*
X327500D01*
Y156750D01*
X331290D01*
Y158710D01*
X333250D01*
Y162500D01*
X336250D01*
Y158710D01*
D02*
G37*
G36*
X202000Y124177D02*
Y120000D01*
X206961D01*
Y108500D01*
Y95025D01*
X198588D01*
Y100000D01*
X198239Y101756D01*
X197244Y103244D01*
X190588Y109901D01*
Y123098D01*
X191849Y123911D01*
X193588Y124587D01*
X195005Y124000D01*
X196995D01*
X198832Y124761D01*
X199000Y124929D01*
X202000Y124177D01*
D02*
G37*
G36*
X322446Y137627D02*
X322972Y137577D01*
X323460Y137375D01*
X324000D01*
Y133790D01*
X323744Y133739D01*
X322256Y132744D01*
X292756Y103244D01*
X291761Y101756D01*
X291412Y100000D01*
Y45989D01*
X291000Y44995D01*
Y43005D01*
X289957Y40584D01*
X289356Y39899D01*
X287530Y39958D01*
X285588Y41901D01*
Y70000D01*
Y100000D01*
X285239Y101756D01*
X284244Y103244D01*
X275244Y112244D01*
X273756Y113239D01*
X272000Y113588D01*
X249000D01*
X247244Y113239D01*
X245756Y112244D01*
X238756Y105244D01*
X237761Y103756D01*
X237412Y102000D01*
Y95025D01*
X229039D01*
Y120000D01*
X234000D01*
Y129461D01*
X248774D01*
X251000Y126994D01*
Y125005D01*
X251761Y123168D01*
X253168Y121761D01*
X255005Y121000D01*
X256995D01*
X258832Y121761D01*
X259532Y122461D01*
X300369D01*
X302872Y123497D01*
X317119Y137744D01*
X317450Y137965D01*
X319986Y138931D01*
X322446Y137627D01*
D02*
G37*
G36*
X275807Y97211D02*
X276412Y96326D01*
Y71901D01*
X265100Y60588D01*
X257564D01*
X255808Y60239D01*
X254320Y59244D01*
X248664Y53588D01*
X190291D01*
X177775Y66103D01*
X178615Y69506D01*
X180236Y70589D01*
X181713Y72800D01*
X183001Y73129D01*
X184987Y73213D01*
X186126Y72074D01*
X188056Y71275D01*
X190144D01*
X192074Y72074D01*
X193551Y73551D01*
X194350Y75481D01*
Y77569D01*
X196787Y79525D01*
X201961D01*
Y68032D01*
X200761Y66832D01*
X200000Y64995D01*
Y63005D01*
X200761Y61168D01*
X202168Y59761D01*
X204005Y59000D01*
X205995D01*
X207832Y59761D01*
X209239Y61168D01*
X210000Y63005D01*
Y64995D01*
X209239Y66832D01*
X209039Y67032D01*
Y76310D01*
X211961Y76500D01*
X212997Y73997D01*
X215497Y71497D01*
X218000Y70461D01*
X224035D01*
X226538Y71497D01*
X228003Y72962D01*
X229039Y75465D01*
X231961Y75274D01*
Y67559D01*
X231187Y67239D01*
X229781Y65832D01*
X229020Y63995D01*
Y62005D01*
X229781Y60168D01*
X231187Y58761D01*
X233025Y58000D01*
X235014D01*
X236852Y58761D01*
X238258Y60168D01*
X239020Y62005D01*
Y63995D01*
X238735Y64682D01*
X239039Y65417D01*
Y73944D01*
X242039Y74541D01*
X242449Y73551D01*
X243926Y72074D01*
X245856Y71275D01*
X247944D01*
X249874Y72074D01*
X251013Y73213D01*
X252999Y73129D01*
X254287Y72800D01*
X255764Y70589D01*
X258258Y68923D01*
X259700Y68636D01*
Y81525D01*
X261200D01*
Y83025D01*
X268888D01*
Y87025D01*
X268302Y89967D01*
X267305Y91460D01*
X267692Y92916D01*
X268372Y94463D01*
X268519Y94633D01*
X270138Y95303D01*
X271697Y96862D01*
X274969Y97735D01*
X275807Y97211D01*
D02*
G37*
G36*
X388947Y96216D02*
X377035Y80154D01*
X363414Y65126D01*
X350272Y53214D01*
X349267Y53539D01*
X347500Y54751D01*
Y57890D01*
X347171Y58683D01*
X386669Y98181D01*
X388947Y96216D01*
D02*
G37*
G36*
X176835Y54067D02*
X175357Y51302D01*
X174800Y51413D01*
X171858Y50827D01*
X169364Y49161D01*
X167698Y46667D01*
X167112Y43725D01*
Y41225D01*
X182488D01*
Y43725D01*
X182377Y44282D01*
X185142Y45760D01*
X185146Y45756D01*
X186634Y44761D01*
X188390Y44412D01*
X250564D01*
X250591Y44417D01*
X250984Y44324D01*
X253473Y42257D01*
X253512Y42172D01*
Y41225D01*
X268888D01*
Y43725D01*
X268302Y46667D01*
X267107Y48456D01*
X267094Y48808D01*
X267719Y50807D01*
X268285Y51667D01*
X268756Y51761D01*
X270244Y52756D01*
X273640Y56152D01*
X276412Y55003D01*
Y40000D01*
X276761Y38244D01*
X277756Y36756D01*
X281656Y32855D01*
X281688Y32595D01*
X280777Y29491D01*
X280168Y29239D01*
X278761Y27832D01*
X278349Y26838D01*
X272099Y20588D01*
X174900D01*
X143489Y52000D01*
X156244Y64756D01*
X157239Y66244D01*
X157588Y68000D01*
Y69238D01*
X159219Y70099D01*
X160588Y70313D01*
X176835Y54067D01*
D02*
G37*
G36*
X168820Y13691D02*
X167286Y10983D01*
X157274Y13491D01*
X138177Y20324D01*
X119842Y28995D01*
X102445Y39423D01*
X95718Y44412D01*
X96709Y47412D01*
X135099D01*
X168820Y13691D01*
D02*
G37*
G36*
X256576Y8412D02*
X237528Y5586D01*
X217270Y4591D01*
X197012Y5586D01*
X177964Y8412D01*
X178185Y11412D01*
X256355D01*
X256576Y8412D01*
D02*
G37*
%LPC*%
G36*
X323890Y363500D02*
X320110D01*
X316619Y362054D01*
X313946Y359381D01*
X312500Y355890D01*
Y352110D01*
X313946Y348619D01*
X316619Y345946D01*
X320110Y344500D01*
X323890D01*
X327381Y345946D01*
X330054Y348619D01*
X331500Y352110D01*
Y355890D01*
X330054Y359381D01*
X327381Y362054D01*
X323890Y363500D01*
D02*
G37*
G36*
X372500Y339458D02*
X370295Y338544D01*
X368456Y336705D01*
X367542Y334500D01*
X372500D01*
Y339458D01*
D02*
G37*
G36*
X323500D02*
Y334500D01*
X328457D01*
X327544Y336705D01*
X325705Y338544D01*
X323500Y339458D01*
D02*
G37*
G36*
X320500D02*
X318295Y338544D01*
X316456Y336705D01*
X315543Y334500D01*
X320500D01*
Y339458D01*
D02*
G37*
G36*
X372500Y331500D02*
X367542D01*
X368456Y329295D01*
X370295Y327456D01*
X372500Y326543D01*
Y331500D01*
D02*
G37*
G36*
X328457D02*
X323500D01*
Y326543D01*
X325705Y327456D01*
X327544Y329295D01*
X328457Y331500D01*
D02*
G37*
G36*
X320500D02*
X315543D01*
X316456Y329295D01*
X318295Y327456D01*
X320500Y326543D01*
Y331500D01*
D02*
G37*
G36*
X336500Y328375D02*
Y324500D01*
X340375D01*
X339697Y326138D01*
X338138Y327697D01*
X336500Y328375D01*
D02*
G37*
G36*
X333500D02*
X331862Y327697D01*
X330303Y326138D01*
X329625Y324500D01*
X333500D01*
Y328375D01*
D02*
G37*
G36*
X113375Y322500D02*
X109500D01*
Y318625D01*
X111138Y319303D01*
X112697Y320862D01*
X113375Y322500D01*
D02*
G37*
G36*
X106500D02*
X102625D01*
X103303Y320862D01*
X104862Y319303D01*
X106500Y318625D01*
Y322500D01*
D02*
G37*
G36*
X250500Y323905D02*
X241700D01*
X239327Y322923D01*
X238345Y320550D01*
Y305450D01*
X238482Y305118D01*
X235939Y303419D01*
X229821Y309536D01*
X227143Y310646D01*
X227143Y310646D01*
X223655D01*
Y320550D01*
X222673Y322923D01*
X220300Y323905D01*
X211500D01*
X209127Y322923D01*
X208145Y320550D01*
Y305450D01*
X209127Y303077D01*
X211500Y302095D01*
X220300D01*
X222652Y303069D01*
X225573D01*
X230269Y298374D01*
X232000Y296200D01*
X232000D01*
X232000Y296200D01*
Y273800D01*
X254000D01*
Y296200D01*
X242870D01*
X240614Y297344D01*
X239760Y299885D01*
X240243Y300435D01*
X241759Y302095D01*
X247574D01*
X247827Y301483D01*
X248521Y300790D01*
X251024Y299753D01*
X255242D01*
X261461Y293534D01*
Y261532D01*
X260761Y260832D01*
X260000Y258995D01*
Y257005D01*
X260761Y255168D01*
X262168Y253761D01*
X264005Y253000D01*
X265995D01*
X267832Y253761D01*
X269239Y255168D01*
X270000Y257005D01*
Y258995D01*
X269239Y260832D01*
X268539Y261532D01*
Y295000D01*
X267503Y297503D01*
X259210Y305795D01*
X256708Y306832D01*
X253869D01*
Y308770D01*
X253855Y308804D01*
Y320550D01*
X252873Y322923D01*
X250500Y323905D01*
D02*
G37*
G36*
X160000Y314200D02*
X138000D01*
Y291800D01*
X160000D01*
Y314200D01*
D02*
G37*
G36*
X65546Y272990D02*
X64900D01*
Y263700D01*
X74190D01*
Y264346D01*
X72547Y268312D01*
X69512Y271347D01*
X65546Y272990D01*
D02*
G37*
G36*
X61900D02*
X61254D01*
X57288Y271347D01*
X54253Y268312D01*
X52610Y264346D01*
Y263700D01*
X61900D01*
Y272990D01*
D02*
G37*
G36*
X238400Y263900D02*
X235500D01*
X233450Y261850D01*
Y259051D01*
X232400Y257950D01*
X231299Y256900D01*
X228601D01*
X227500Y257950D01*
X226450Y259051D01*
Y261850D01*
X224400Y263900D01*
X221500D01*
X219450Y261850D01*
Y259051D01*
X218400Y257950D01*
X217299Y256900D01*
X214500D01*
X212450Y254850D01*
Y251950D01*
X214500Y249900D01*
X217299D01*
X218400Y248850D01*
X219450Y247749D01*
Y245051D01*
X218400Y243950D01*
X217299Y242900D01*
X214500D01*
X212450Y240850D01*
Y237950D01*
X214500Y235900D01*
X217299D01*
X218400Y234850D01*
X219450Y233749D01*
Y230950D01*
X221500Y228900D01*
X224400D01*
X226450Y230950D01*
Y233749D01*
X227500Y234850D01*
X228601Y235900D01*
X231299D01*
X232400Y234850D01*
X233450Y233749D01*
Y230950D01*
X235500Y228900D01*
X238400D01*
X240450Y230950D01*
Y233749D01*
X241500Y234850D01*
X242601Y235900D01*
X245400D01*
X247450Y237950D01*
Y240850D01*
X245400Y242900D01*
X242601D01*
X241500Y243950D01*
X240450Y245051D01*
Y247749D01*
X241500Y248850D01*
X242601Y249900D01*
X245400D01*
X247450Y251950D01*
Y254850D01*
X245400Y256900D01*
X242601D01*
X241500Y257950D01*
X240450Y259051D01*
Y261850D01*
X238400Y263900D01*
D02*
G37*
G36*
X74190Y260700D02*
X64900D01*
Y251410D01*
X65546D01*
X69512Y253053D01*
X72547Y256088D01*
X74190Y260054D01*
Y260700D01*
D02*
G37*
G36*
X61900D02*
X52610D01*
Y260054D01*
X54253Y256088D01*
X57288Y253053D01*
X61254Y251410D01*
X61900D01*
Y260700D01*
D02*
G37*
G36*
X160000Y265735D02*
X138000D01*
Y243335D01*
X141804D01*
X142401Y240335D01*
X142168Y240239D01*
X140761Y238832D01*
X140000Y236995D01*
Y235005D01*
X140761Y233168D01*
X142168Y231761D01*
X144005Y231000D01*
X145995D01*
X147832Y231761D01*
X149239Y233168D01*
X150000Y235005D01*
Y236995D01*
X149239Y238832D01*
X147832Y240239D01*
X147599Y240335D01*
X148196Y243335D01*
X160000D01*
Y265735D01*
D02*
G37*
G36*
X65439Y247050D02*
X61361D01*
X57594Y245490D01*
X54710Y242606D01*
X53150Y238839D01*
Y234761D01*
X54710Y230994D01*
X57594Y228111D01*
X61361Y226550D01*
X65439D01*
X69206Y228111D01*
X72090Y230994D01*
X73650Y234761D01*
Y238839D01*
X72090Y242606D01*
X69206Y245490D01*
X65439Y247050D01*
D02*
G37*
G36*
X40039D02*
X35961D01*
X32194Y245490D01*
X29311Y242606D01*
X27750Y238839D01*
Y234761D01*
X29311Y230994D01*
X32194Y228111D01*
X35961Y226550D01*
X40039D01*
X43806Y228111D01*
X46690Y230994D01*
X48250Y234761D01*
Y238839D01*
X46690Y242606D01*
X43806Y245490D01*
X40039Y247050D01*
D02*
G37*
G36*
X413500Y230375D02*
X411862Y229697D01*
X410303Y228138D01*
X409625Y226500D01*
X413500D01*
Y230375D01*
D02*
G37*
G36*
X165464Y232000D02*
X163076D01*
X160871Y231087D01*
X159184Y229399D01*
X158270Y227194D01*
Y224806D01*
X158745Y223660D01*
X156391Y221504D01*
X155194Y222000D01*
X152807D01*
X150601Y221087D01*
X148913Y219399D01*
X148000Y217194D01*
Y214806D01*
X148913Y212601D01*
X150601Y210913D01*
X152807Y210000D01*
X155194D01*
X157399Y210913D01*
X159087Y212601D01*
X160000Y214806D01*
Y217194D01*
X159525Y218340D01*
X161879Y220496D01*
X163076Y220000D01*
X165464D01*
X167669Y220914D01*
X169357Y222601D01*
X170270Y224806D01*
Y227194D01*
X169357Y229399D01*
X167669Y231087D01*
X165464Y232000D01*
D02*
G37*
G36*
X413500Y223500D02*
X409625D01*
X410303Y221862D01*
X411862Y220303D01*
X413500Y219625D01*
Y223500D01*
D02*
G37*
G36*
X65439Y221650D02*
X61361D01*
X57594Y220089D01*
X54710Y217206D01*
X53150Y213439D01*
Y209361D01*
X54710Y205594D01*
X57594Y202710D01*
X61361Y201150D01*
X65439D01*
X69206Y202710D01*
X72090Y205594D01*
X73650Y209361D01*
Y213439D01*
X72090Y217206D01*
X69206Y220089D01*
X65439Y221650D01*
D02*
G37*
G36*
X40039D02*
X35961D01*
X32194Y220089D01*
X29311Y217206D01*
X27750Y213439D01*
Y209361D01*
X29311Y205594D01*
X32194Y202710D01*
X35961Y201150D01*
X40039D01*
X43806Y202710D01*
X46690Y205594D01*
X48250Y209361D01*
Y213439D01*
X46690Y217206D01*
X43806Y220089D01*
X40039Y221650D01*
D02*
G37*
G36*
X413500Y204375D02*
X411862Y203697D01*
X410303Y202138D01*
X409625Y200500D01*
X413500D01*
Y204375D01*
D02*
G37*
G36*
Y197500D02*
X409625D01*
X410303Y195862D01*
X411862Y194303D01*
X413500Y193625D01*
Y197500D01*
D02*
G37*
G36*
X65439Y196250D02*
X61361D01*
X57594Y194690D01*
X54710Y191806D01*
X53150Y188039D01*
Y183961D01*
X54710Y180194D01*
X57594Y177311D01*
X61361Y175750D01*
X65439D01*
X69206Y177311D01*
X72090Y180194D01*
X73650Y183961D01*
Y188039D01*
X72090Y191806D01*
X69206Y194690D01*
X65439Y196250D01*
D02*
G37*
G36*
X40039D02*
X35961D01*
X32194Y194690D01*
X29311Y191806D01*
X27750Y188039D01*
Y183961D01*
X29311Y180194D01*
X32194Y177311D01*
X35961Y175750D01*
X40039D01*
X43806Y177311D01*
X46690Y180194D01*
X48250Y183961D01*
Y188039D01*
X46690Y191806D01*
X43806Y194690D01*
X40039Y196250D01*
D02*
G37*
G36*
X227000Y160540D02*
Y152500D01*
X233540D01*
Y160540D01*
X227000D01*
D02*
G37*
G36*
X73650Y170850D02*
X53150D01*
Y150350D01*
X73650D01*
Y170850D01*
D02*
G37*
G36*
X289500Y146375D02*
Y142500D01*
X293375D01*
X292697Y144138D01*
X291138Y145697D01*
X289500Y146375D01*
D02*
G37*
G36*
X286500D02*
X284862Y145697D01*
X283303Y144138D01*
X282625Y142500D01*
X286500D01*
Y146375D01*
D02*
G37*
G36*
X233540Y149500D02*
X227000D01*
Y141460D01*
X233540D01*
Y149500D01*
D02*
G37*
G36*
X64000Y135540D02*
X57960D01*
Y127099D01*
X54960Y126502D01*
X54697Y127138D01*
X53138Y128697D01*
X51500Y129375D01*
Y124000D01*
Y118625D01*
X53138Y119303D01*
X54697Y120862D01*
X54960Y121498D01*
X57960Y120901D01*
Y112460D01*
X64000D01*
Y124000D01*
Y135540D01*
D02*
G37*
G36*
X73040D02*
X67000D01*
Y125500D01*
X73040D01*
Y135540D01*
D02*
G37*
G36*
X377740Y123540D02*
X367500D01*
Y113500D01*
X377740D01*
Y123540D01*
D02*
G37*
G36*
X364500D02*
X354260D01*
Y113500D01*
X364500D01*
Y123540D01*
D02*
G37*
G36*
X73040Y122500D02*
X67000D01*
Y112460D01*
X73040D01*
Y122500D01*
D02*
G37*
G36*
X346540Y108540D02*
X336500D01*
Y102500D01*
X346540D01*
Y108540D01*
D02*
G37*
G36*
X333500D02*
X323460D01*
Y102500D01*
X333500D01*
Y108540D01*
D02*
G37*
G36*
X364500Y110500D02*
X354260D01*
Y100460D01*
X364500D01*
Y110500D01*
D02*
G37*
G36*
X346540Y99500D02*
X335000D01*
X323460D01*
Y93460D01*
X333506D01*
X333699Y90540D01*
X333414Y90422D01*
X331295Y89544D01*
X329456Y87705D01*
X328543Y85500D01*
X341457D01*
X340544Y87705D01*
X338705Y89544D01*
X336586Y90422D01*
X336301Y90540D01*
X336494Y93460D01*
X346540D01*
Y99500D01*
D02*
G37*
G36*
X119500Y88457D02*
X117295Y87544D01*
X115456Y85705D01*
X114543Y83500D01*
X119500D01*
Y88457D01*
D02*
G37*
G36*
X100500D02*
Y83500D01*
X105457D01*
X104544Y85705D01*
X102705Y87544D01*
X100500Y88457D01*
D02*
G37*
G36*
X341457Y82500D02*
X336500D01*
Y77543D01*
X338705Y78456D01*
X340544Y80295D01*
X341457Y82500D01*
D02*
G37*
G36*
X333500D02*
X328543D01*
X329456Y80295D01*
X331295Y78456D01*
X333500Y77543D01*
Y82500D01*
D02*
G37*
G36*
X119500Y80500D02*
X114543D01*
X115456Y78295D01*
X117295Y76456D01*
X119500Y75542D01*
Y80500D01*
D02*
G37*
G36*
X105457D02*
X100500D01*
Y75542D01*
X102705Y76456D01*
X104544Y78295D01*
X105457Y80500D01*
D02*
G37*
G36*
X331290Y153750D02*
X329000D01*
Y149210D01*
X331290D01*
Y153750D01*
D02*
G37*
G36*
X268888Y80025D02*
X262700D01*
Y68636D01*
X264142Y68923D01*
X266636Y70589D01*
X268302Y73083D01*
X268888Y76025D01*
Y80025D01*
D02*
G37*
G36*
X182488Y38225D02*
X176300D01*
Y28336D01*
X177742Y28623D01*
X180236Y30289D01*
X181903Y32783D01*
X182488Y35725D01*
Y38225D01*
D02*
G37*
G36*
X268888D02*
X262700D01*
Y28336D01*
X264142Y28623D01*
X266636Y30289D01*
X268302Y32783D01*
X268888Y35725D01*
Y38225D01*
D02*
G37*
G36*
X259700D02*
X253512D01*
Y35725D01*
X254097Y32783D01*
X255764Y30289D01*
X258258Y28623D01*
X259700Y28336D01*
Y38225D01*
D02*
G37*
G36*
X173300D02*
X167112D01*
Y35725D01*
X167698Y32783D01*
X169364Y30289D01*
X171858Y28623D01*
X173300Y28336D01*
Y38225D01*
D02*
G37*
%LPD*%
D22*
X149000Y303000D02*
D03*
X179000D02*
D03*
X149000Y254535D02*
D03*
X179000D02*
D03*
X241694Y207767D02*
D03*
X211694D02*
D03*
X243000Y285000D02*
D03*
X213000D02*
D03*
X358000Y216674D02*
D03*
X388000D02*
D03*
X358000Y186000D02*
D03*
X388000D02*
D03*
X120721Y124002D02*
D03*
X150721D02*
D03*
D23*
X250000Y87275D02*
D03*
X242000D02*
D03*
X186000D02*
D03*
X194000D02*
D03*
D24*
X235500D02*
D03*
X230500D02*
D03*
X200500D02*
D03*
X205500D02*
D03*
X210500D02*
D03*
X225500D02*
D03*
X220500D02*
D03*
X215500D02*
D03*
D25*
X82000Y82000D02*
D03*
Y99000D02*
D03*
X138000Y82000D02*
D03*
Y99000D02*
D03*
D26*
X246100Y181000D02*
D03*
X215900D02*
D03*
X246100Y313000D02*
D03*
X215900D02*
D03*
D27*
X335000Y132000D02*
D03*
Y101000D02*
D03*
D28*
X295250Y162500D02*
D03*
Y167500D02*
D03*
Y172500D02*
D03*
Y177500D02*
D03*
Y182500D02*
D03*
Y187500D02*
D03*
X334750D02*
D03*
Y182500D02*
D03*
Y177500D02*
D03*
Y172500D02*
D03*
Y167500D02*
D03*
Y162500D02*
D03*
D29*
X302500Y194750D02*
D03*
X307500D02*
D03*
X312500D02*
D03*
X317500D02*
D03*
X322500D02*
D03*
X327500D02*
D03*
Y155250D02*
D03*
X322500D02*
D03*
X317500D02*
D03*
X312500D02*
D03*
X307500D02*
D03*
X302500D02*
D03*
D30*
X299000Y305000D02*
D03*
X323000Y314500D02*
D03*
Y295500D02*
D03*
X299000Y259000D02*
D03*
X323000Y268500D02*
D03*
Y249500D02*
D03*
D31*
X366000Y142000D02*
D03*
Y112000D02*
D03*
X382000Y260000D02*
D03*
Y290000D02*
D03*
X352000D02*
D03*
Y260000D02*
D03*
D32*
X225500Y151000D02*
D03*
D33*
X208500D02*
D03*
Y129000D02*
D03*
X227500D02*
D03*
D34*
X96500Y124000D02*
D03*
X65500D02*
D03*
D41*
X315000Y175000D02*
D03*
D55*
X427270Y211270D02*
G03*
X427270Y211270I-210000J0D01*
G01*
X322500Y155250D02*
X327500D01*
X265000Y258000D02*
Y295000D01*
X256708Y303292D02*
X265000Y295000D01*
X261000Y192927D02*
Y218000D01*
X255410Y187337D02*
X261000Y192927D01*
X138450Y147451D02*
X184000Y193000D01*
X250330Y303986D02*
X251024Y303292D01*
X250330Y303986D02*
Y308770D01*
X246100Y313000D02*
X250330Y308770D01*
X251024Y303292D02*
X256708D01*
X136000Y128000D02*
X138450Y130450D01*
Y147451D01*
X136000Y127598D02*
Y128000D01*
X132404Y124002D02*
X136000Y127598D01*
X120721Y124002D02*
X132404D01*
X320000Y233000D02*
X331000D01*
X299000Y259000D02*
X302750D01*
X304480Y257270D01*
Y248520D02*
Y257270D01*
Y248520D02*
X320000Y233000D01*
X300369Y126000D02*
X317500Y143131D01*
X256000Y126000D02*
X300369D01*
X298000Y133000D02*
X312500Y147500D01*
X317500Y143131D02*
Y155250D01*
X230730Y133000D02*
X298000D01*
X227500Y129770D02*
X230730Y133000D01*
X227500Y129000D02*
Y129770D01*
X225500Y127000D02*
X227500Y129000D01*
X303000Y147000D02*
X303624D01*
X307480Y150856D01*
X288000Y141000D02*
X297000D01*
X303000Y147000D01*
X312500Y147500D02*
Y155250D01*
X196000Y129000D02*
X208500D01*
X210500Y127000D01*
Y108500D02*
Y127000D01*
X82000Y99000D02*
X84000Y101000D01*
Y120000D02*
X88000Y124000D01*
X84000Y101000D02*
Y120000D01*
X136000Y101000D02*
Y120406D01*
X132404Y124002D02*
X136000Y120406D01*
Y101000D02*
X138000Y99000D01*
X96500Y124000D02*
X120718D01*
X120721Y124002D01*
X88000Y124000D02*
X96500D01*
X235500Y65417D02*
Y87275D01*
X234020Y63936D02*
X235500Y65417D01*
X234020Y63000D02*
Y63936D01*
X205500Y64500D02*
Y87275D01*
X205000Y64000D02*
X205500Y64500D01*
X220500Y87275D02*
Y98500D01*
X210500Y87275D02*
Y108500D01*
X220500Y98500D01*
X225500Y87275D02*
Y127000D01*
X215500Y76500D02*
Y87275D01*
X225500Y75465D02*
Y87275D01*
X218000Y74000D02*
X224035D01*
X215500Y76500D02*
X218000Y74000D01*
X224035D02*
X225500Y75465D01*
X283000Y298000D02*
X290000Y305000D01*
X299000D01*
X358000Y216474D02*
Y216674D01*
X344707Y203181D02*
X358000Y216474D01*
X344707Y178083D02*
Y203181D01*
X339145Y172520D02*
X344707Y178083D01*
X334770Y172520D02*
X339145D01*
X334750Y172500D02*
X334770Y172520D01*
X246100Y181000D02*
Y183106D01*
X250330Y187337D01*
X255410D01*
X285000Y217000D02*
X316000D01*
X285000Y227000D02*
X320000D01*
X277000Y198867D02*
X288367Y187500D01*
X277000Y198867D02*
Y240000D01*
X316000Y217000D02*
X322480Y210520D01*
Y194770D02*
Y210520D01*
X327500Y194750D02*
Y219500D01*
X320000Y227000D02*
X327500Y219500D01*
X322480Y194770D02*
X322500Y194750D01*
X283436Y182500D02*
X295250D01*
X280936Y185000D02*
X283436Y182500D01*
X280000Y185000D02*
X280936D01*
X283436Y177500D02*
X295250D01*
X280936Y175000D02*
X283436Y177500D01*
X280000Y175000D02*
X280936D01*
X288367Y187500D02*
X295250D01*
X286500Y167500D02*
X295250D01*
X307480Y155230D02*
X307500Y155250D01*
X307480Y150856D02*
Y155230D01*
X334750Y167500D02*
X343500D01*
X307500Y155250D02*
Y167500D01*
X315000Y175000D01*
X347500Y167500D02*
X350000Y165000D01*
X343500Y167500D02*
X348750Y172750D01*
X343500Y167500D02*
X347500D01*
D56*
X153000Y88000D02*
Y121723D01*
Y68000D02*
Y88000D01*
X25963Y261963D02*
X37763D01*
X185000Y217000D02*
X194233Y207767D01*
X179000Y254535D02*
X185000Y248535D01*
Y217000D02*
Y248535D01*
Y296800D02*
Y297000D01*
Y296800D02*
X185500Y296300D01*
X185700D01*
X197000Y285000D01*
X179000Y303000D02*
X185000Y297000D01*
X197000Y285000D02*
X213000D01*
X185000Y260535D02*
Y297000D01*
X194233Y207767D02*
X211694D01*
X137000Y52000D02*
X173000Y16000D01*
X274000D02*
X283000Y25000D01*
X173000Y16000D02*
X274000D01*
X137000Y52000D02*
X153000Y68000D01*
X92000Y52000D02*
X137000D01*
X296000Y44000D02*
Y100000D01*
X181000Y332000D02*
X190000D01*
X62484Y81516D02*
X92000Y52000D01*
X281000Y40000D02*
Y70000D01*
Y40000D02*
X287000Y34000D01*
X316000D01*
X332500Y129500D02*
X335000Y132000D01*
X325500Y129500D02*
X332500D01*
X296000Y100000D02*
X325500Y129500D01*
X23560Y147865D02*
X62484Y81516D01*
X18333Y165077D02*
X23560Y147865D01*
X18333Y165077D02*
Y254333D01*
X37763Y261963D02*
X38000Y262200D01*
X18333Y254333D02*
X25963Y261963D01*
X35800Y264400D02*
Y297800D01*
X70000Y332000D01*
X35800Y264400D02*
X38000Y262200D01*
X70000Y332000D02*
X181000D01*
X50000Y124000D02*
X65500D01*
X150721Y124002D02*
X153000Y121723D01*
X179000Y254535D02*
X185000Y260535D01*
X185196Y309196D02*
Y327196D01*
X179000Y303000D02*
X185196Y309196D01*
Y327196D02*
Y327804D01*
Y327196D02*
X190000Y332000D01*
X181000D02*
X185196Y327804D01*
X190000Y332000D02*
X274000D01*
X280000Y326000D01*
X253429Y100000D02*
X267000D01*
X250000Y87275D02*
X250500Y87775D01*
Y97071D02*
X253429Y100000D01*
X250500Y87775D02*
Y97071D01*
X171000Y99000D02*
X182571D01*
X163500Y73890D02*
Y102107D01*
X82000Y82000D02*
X99000D01*
X121000D02*
X138000D01*
X188390Y49000D02*
X250564D01*
X169393Y108000D02*
X186000D01*
X163500Y102107D02*
X169393Y108000D01*
X163500Y73890D02*
X188390Y49000D01*
X186000Y145000D02*
X192000Y151000D01*
X186000Y108000D02*
Y145000D01*
X192000Y151000D02*
X208500D01*
X250564Y49000D02*
X257564Y56000D01*
X185500Y87775D02*
X186000Y87275D01*
X182571Y99000D02*
X185500Y96071D01*
Y87775D02*
Y96071D01*
X242000Y87275D02*
Y102000D01*
X249000Y109000D01*
X186000Y108000D02*
X194000Y100000D01*
Y87275D02*
Y100000D01*
X281000Y70000D02*
Y100000D01*
X272000Y109000D02*
X281000Y100000D01*
X249000Y109000D02*
X272000D01*
X257564Y56000D02*
X267000D01*
X208429Y151071D02*
X208500Y151000D01*
X316000Y34000D02*
X394500Y112500D01*
Y179500D01*
X388000Y186000D02*
X394500Y192500D01*
Y210174D01*
X388000Y216674D02*
X394500Y210174D01*
X388000Y186000D02*
X394500Y179500D01*
X267000Y56000D02*
X281000Y70000D01*
D57*
X215900Y181000D02*
X216133Y180767D01*
X216594D01*
X234694Y200767D02*
X241694Y207767D01*
X234694Y188117D02*
Y200767D01*
X227344Y180767D02*
X234694Y188117D01*
X216594Y180767D02*
X227344D01*
D58*
X236481Y291519D02*
Y297519D01*
Y291519D02*
X243000Y285000D01*
X215900Y310000D02*
Y313000D01*
Y310000D02*
X216461Y309439D01*
X219043Y306857D01*
X227143D01*
X236481Y297519D01*
X275500Y251742D02*
Y251742D01*
X269000Y173000D02*
Y245243D01*
X275500Y251742D01*
Y251742D02*
X290757Y267000D01*
X321500D01*
X269000Y173000D02*
X274500Y167500D01*
X348750Y172750D02*
X350500Y174500D01*
Y178500D01*
X358000Y186000D01*
X282287Y277243D02*
Y277243D01*
X277001Y267033D02*
Y271956D01*
X282287Y277243D01*
Y277243D02*
X284044Y279000D01*
X302000D01*
X323000Y268500D02*
X343300D01*
X321500Y267000D02*
X323000Y268500D01*
X361257Y146743D02*
Y153743D01*
Y146743D02*
X366000Y142000D01*
X350000Y165000D02*
X361257Y153743D01*
X274500Y167500D02*
X286500D01*
X311000Y288000D02*
Y310743D01*
X302000Y279000D02*
X311000Y288000D01*
X314757Y314500D02*
X323000D01*
X311000Y310743D02*
X314757Y314500D01*
X382000Y245000D02*
Y260000D01*
X379000Y242000D02*
X382000Y245000D01*
X334250Y242000D02*
X379000D01*
X323000Y249500D02*
X326750D01*
X334250Y242000D01*
X343300Y268500D02*
X351800Y260000D01*
X352000D01*
X382000Y290000D02*
Y306000D01*
X323000Y314500D02*
X373500D01*
X382000Y306000D01*
X323000Y295500D02*
X346500D01*
X352000Y290000D01*
D59*
X222950Y232400D02*
D03*
X236950D02*
D03*
X215950Y239400D02*
D03*
X229950D02*
D03*
X243950D02*
D03*
X222950Y246400D02*
D03*
X236950D02*
D03*
X215950Y253400D02*
D03*
X229950D02*
D03*
X243950D02*
D03*
X222950Y260400D02*
D03*
X236950D02*
D03*
D60*
X350000Y354000D02*
D03*
X322000D02*
D03*
X338000Y56000D02*
D03*
D61*
X261200Y39725D02*
D03*
X174800D02*
D03*
D62*
X246900Y76525D02*
D03*
X189100D02*
D03*
D63*
X174800Y81525D02*
D03*
X261200D02*
D03*
D64*
X38000Y186000D02*
D03*
X63400D02*
D03*
X38000Y160600D02*
D03*
X63400Y211400D02*
D03*
X38000D02*
D03*
X63400Y236800D02*
D03*
Y262200D02*
D03*
X38000Y236800D02*
D03*
Y262200D02*
D03*
D65*
X63400Y160600D02*
D03*
D66*
X153000Y88000D02*
D03*
X265000Y258000D02*
D03*
X261000Y218000D02*
D03*
X184000Y193000D02*
D03*
X335000Y323000D02*
D03*
X145000Y236000D02*
D03*
X146000Y254000D02*
D03*
X283000Y25000D02*
D03*
X296000Y44000D02*
D03*
X50000Y124000D02*
D03*
X280000Y326000D02*
D03*
X331000Y233000D02*
D03*
X256000Y126000D02*
D03*
X288000Y141000D02*
D03*
X196000Y129000D02*
D03*
X267000Y100000D02*
D03*
X171000Y99000D02*
D03*
X415000Y199000D02*
D03*
Y225000D02*
D03*
X108000Y324000D02*
D03*
X149000Y303000D02*
D03*
X234020Y63000D02*
D03*
X205000Y64000D02*
D03*
X283000Y298000D02*
D03*
X285000Y217000D02*
D03*
Y227000D02*
D03*
X277000Y267000D02*
D03*
Y240000D02*
D03*
X280000Y185000D02*
D03*
Y175000D02*
D03*
D67*
X335000Y84000D02*
D03*
X374000Y333000D02*
D03*
X322000D02*
D03*
X323000Y182000D02*
D03*
X164270Y226000D02*
D03*
X154000Y216000D02*
D03*
X121000Y82000D02*
D03*
X99000D02*
D03*
M02*
