G04*
G04 #@! TF.GenerationSoftware,Altium Limited,Altium Designer,23.4.1 (23)*
G04*
G04 Layer_Color=2752767*
%FSLAX44Y44*%
%MOMM*%
G71*
G04*
G04 #@! TF.SameCoordinates,89D196A3-88CA-4BC0-B6F8-5B7F0D742441*
G04*
G04*
G04 #@! TF.FilePolarity,Positive*
G04*
G01*
G75*
%ADD13C,0.1270*%
%ADD80C,0.1693*%
D13*
X217870Y227320D02*
Y237480D01*
X228030D01*
Y227320D01*
X217870D01*
X231870D02*
Y237480D01*
X242030D01*
Y227320D01*
X231870D01*
X210870Y234320D02*
Y244480D01*
X221030D01*
Y234320D01*
X210870D01*
X224870D02*
Y244480D01*
X235030D01*
Y234320D01*
X224870D01*
X238870D02*
Y244480D01*
X249030D01*
Y234320D01*
X238870D01*
X217870Y241320D02*
Y251480D01*
X228030D01*
Y241320D01*
X217870D01*
X231870D02*
Y251480D01*
X242030D01*
Y241320D01*
X231870D01*
X210870Y248320D02*
Y258480D01*
X221030D01*
Y248320D01*
X210870D01*
X224870D02*
Y258480D01*
X235030D01*
Y248320D01*
X224870D01*
X238870D02*
Y258480D01*
X249030D01*
Y248320D01*
X238870D01*
X217870Y255320D02*
Y265480D01*
X228030D01*
Y255320D01*
X217870D01*
X231870D02*
Y265480D01*
X242030D01*
Y255320D01*
X231870D01*
X350000Y348920D02*
X352540Y351460D01*
X355080D01*
X352540Y354000D01*
X355080Y356540D01*
X352540D01*
X350000Y359080D01*
X347460Y356540D01*
X344920D01*
X347460Y354000D01*
X344920Y351460D01*
X347460D01*
X350000Y348920D01*
X322000D02*
X324540Y351460D01*
X327080D01*
X324540Y354000D01*
X327080Y356540D01*
X324540D01*
X322000Y359080D01*
X319460Y356540D01*
X316920D01*
X319460Y354000D01*
X316920Y351460D01*
X319460D01*
X322000Y348920D01*
X256120Y34645D02*
X258660Y39725D01*
X256120Y44805D01*
X261200Y42265D01*
X266280Y44805D01*
X263740Y39725D01*
X266280Y34645D01*
X261200Y37185D01*
X256120Y34645D01*
X169720D02*
X172260Y39725D01*
X169720Y44805D01*
X174800Y42265D01*
X179880Y44805D01*
X177340Y39725D01*
X179880Y34645D01*
X174800Y37185D01*
X169720Y34645D01*
X244360Y73985D02*
Y71445D01*
X249440D01*
Y73985D01*
X251980D01*
Y79065D01*
X249440D01*
Y81605D01*
X244360D01*
Y79065D01*
X241820D01*
Y73985D01*
X244360D01*
X186560D02*
Y71445D01*
X191640D01*
Y73985D01*
X194180D01*
Y79065D01*
X191640D01*
Y81605D01*
X186560D01*
Y79065D01*
X184020D01*
Y73985D01*
X186560D01*
X169720Y76445D02*
X172260D01*
X174800Y78985D01*
X177340Y76445D01*
X179880D01*
Y78985D01*
X177340Y81525D01*
X179880Y84065D01*
Y86605D01*
X177340D01*
X174800Y84065D01*
X172260Y86605D01*
X169720D01*
Y84065D01*
X172260Y81525D01*
X169720Y78985D01*
Y76445D01*
X256120D02*
X258660D01*
X261200Y78985D01*
X263740Y76445D01*
X266280D01*
Y78985D01*
X263740Y81525D01*
X266280Y84065D01*
Y86605D01*
X263740D01*
X261200Y84065D01*
X258660Y86605D01*
X256120D01*
Y84065D01*
X258660Y81525D01*
X256120Y78985D01*
Y76445D01*
X38000Y180920D02*
X32920Y191080D01*
X43080D01*
X38000Y180920D01*
X63400D02*
X58320Y191080D01*
X68480D01*
X63400Y180920D01*
X38000Y155520D02*
X32920Y165680D01*
X43080D01*
X38000Y155520D01*
X63400D02*
X58320Y165680D01*
X68480D01*
X63400Y155520D01*
Y206320D02*
X58320Y216480D01*
X68480D01*
X63400Y206320D01*
X38000D02*
X32920Y216480D01*
X43080D01*
X38000Y206320D01*
X63400Y231720D02*
X58320Y241880D01*
X68480D01*
X63400Y231720D01*
Y257120D02*
X58320Y267280D01*
X68480D01*
X63400Y257120D01*
X38000Y231720D02*
X32920Y241880D01*
X43080D01*
X38000Y231720D01*
Y257120D02*
X32920Y267280D01*
X43080D01*
X38000Y257120D01*
X147920Y88000D02*
X153000Y93080D01*
X158080Y88000D01*
X153000Y82920D01*
X147920Y88000D01*
X259920Y258000D02*
X265000Y263080D01*
X270080Y258000D01*
X265000Y252920D01*
X259920Y258000D01*
X255920Y218000D02*
X261000Y223080D01*
X266080Y218000D01*
X261000Y212920D01*
X255920Y218000D01*
X178920Y193000D02*
X184000Y198080D01*
X189080Y193000D01*
X184000Y187920D01*
X178920Y193000D01*
X329920Y323000D02*
X335000Y328080D01*
X340080Y323000D01*
X335000Y317920D01*
X329920Y323000D01*
X139920Y236000D02*
X145000Y241080D01*
X150080Y236000D01*
X145000Y230920D01*
X139920Y236000D01*
X140920Y254000D02*
X146000Y259080D01*
X151080Y254000D01*
X146000Y248920D01*
X140920Y254000D01*
X338000Y50920D02*
X332920Y61080D01*
X343080D01*
X338000Y50920D01*
X277920Y25000D02*
X283000Y30080D01*
X288080Y25000D01*
X283000Y19920D01*
X277920Y25000D01*
X290920Y44000D02*
X296000Y49080D01*
X301080Y44000D01*
X296000Y38920D01*
X290920Y44000D01*
X44920Y124000D02*
X50000Y129080D01*
X55080Y124000D01*
X50000Y118920D01*
X44920Y124000D01*
X274920Y326000D02*
X280000Y331080D01*
X285080Y326000D01*
X280000Y320920D01*
X274920Y326000D01*
X325920Y233000D02*
X331000Y238080D01*
X336080Y233000D01*
X331000Y227920D01*
X325920Y233000D01*
X250920Y126000D02*
X256000Y131080D01*
X261080Y126000D01*
X256000Y120920D01*
X250920Y126000D01*
X282920Y141000D02*
X288000Y146080D01*
X293080Y141000D01*
X288000Y135920D01*
X282920Y141000D01*
X190920Y129000D02*
X196000Y134080D01*
X201080Y129000D01*
X196000Y123920D01*
X190920Y129000D01*
X261920Y100000D02*
X267000Y105080D01*
X272080Y100000D01*
X267000Y94920D01*
X261920Y100000D01*
X165920Y99000D02*
X171000Y104080D01*
X176080Y99000D01*
X171000Y93920D01*
X165920Y99000D01*
X409920Y199000D02*
X415000Y204080D01*
X420080Y199000D01*
X415000Y193920D01*
X409920Y199000D01*
Y225000D02*
X415000Y230080D01*
X420080Y225000D01*
X415000Y219920D01*
X409920Y225000D01*
X102920Y324000D02*
X108000Y329080D01*
X113080Y324000D01*
X108000Y318920D01*
X102920Y324000D01*
X143920Y303000D02*
X149000Y308080D01*
X154080Y303000D01*
X149000Y297920D01*
X143920Y303000D01*
X228940Y63000D02*
X234020Y68080D01*
X239100Y63000D01*
X234020Y57920D01*
X228940Y63000D01*
X199920Y64000D02*
X205000Y69080D01*
X210080Y64000D01*
X205000Y58920D01*
X199920Y64000D01*
X277920Y298000D02*
X283000Y303080D01*
X288080Y298000D01*
X283000Y292920D01*
X277920Y298000D01*
X279920Y217000D02*
X285000Y222080D01*
X290080Y217000D01*
X285000Y211920D01*
X279920Y217000D01*
Y227000D02*
X285000Y232080D01*
X290080Y227000D01*
X285000Y221920D01*
X279920Y227000D01*
X271920Y267000D02*
X277000Y272080D01*
X282080Y267000D01*
X277000Y261920D01*
X271920Y267000D01*
Y240000D02*
X277000Y245080D01*
X282080Y240000D01*
X277000Y234920D01*
X271920Y240000D01*
X274920Y185000D02*
X280000Y190080D01*
X285080Y185000D01*
X280000Y179920D01*
X274920Y185000D01*
Y175000D02*
X280000Y180080D01*
X285080Y175000D01*
X280000Y169920D01*
X274920Y175000D01*
D80*
X340080Y84000D02*
G03*
X340080Y84000I-5080J0D01*
G01*
X379080Y333000D02*
G03*
X379080Y333000I-5080J0D01*
G01*
X327080D02*
G03*
X327080Y333000I-5080J0D01*
G01*
X328080Y182000D02*
G03*
X328080Y182000I-5080J0D01*
G01*
X169350Y226000D02*
G03*
X169350Y226000I-5080J0D01*
G01*
X159080Y216000D02*
G03*
X159080Y216000I-5080J0D01*
G01*
X126080Y82000D02*
G03*
X126080Y82000I-5080J0D01*
G01*
X104080D02*
G03*
X104080Y82000I-5080J0D01*
G01*
M02*
