M48
;Layer_Color=9474304
;FILE_FORMAT=4:4
METRIC,LZ
;TYPE=PLATED
T1F00S00C0.2000
T2F00S00C0.4000
T3F00S00C0.6000
T5F00S00C1.0000
T6F00S00C1.1000
;TYPE=NON_PLATED
T7F00S00C0.6500
%
T01
X0022295Y002324
X0023695
X0024395Y002394
X0023695Y002464
X0022995Y002394
X0022295Y002464
X0021595Y002394
Y002534
X0022995
X0022295Y002604
X0023695
X0024395Y002534
T02
X0005Y00124
X00153Y00088
X00171Y00099
X00196Y00129
X00256Y00126
X00267Y001
X00288Y00141
X0028Y00175
Y00185
X00285Y00217
Y00227
X00277Y0024
Y00267
X00265Y00258
X00261Y00218
X00331Y00233
X00335Y00323
X0028Y00326
X00283Y00298
X00149Y00303
X00146Y00254
X00145Y00236
X00184Y00193
X00205Y00064
X0023402Y00063
X00296Y00044
X00283Y00025
X00108Y00324
X00415Y00225
Y00199
T03
X00099Y00082
X00121
X00154Y00216
X0016427Y00226
X00323Y00182
X00335Y00084
X00322Y00333
X00374
T05
X00322Y00354
X0035
T06
X00038Y001606
Y00186
X000634
Y001606
Y002114
X00038
Y002368
X000634
Y002622
X00038
X00338Y00056
T07
X001891Y00076525
X002469
M30
