G04*
G04 #@! TF.GenerationSoftware,Altium Limited,Altium Designer,23.4.1 (23)*
G04*
G04 Layer_Color=32896*
%FSLAX44Y44*%
%MOMM*%
G71*
G04*
G04 #@! TF.SameCoordinates,89D196A3-88CA-4BC0-B6F8-5B7F0D742441*
G04*
G04*
G04 #@! TF.FilePolarity,Positive*
G04*
G01*
G75*
%ADD10C,0.2000*%
%ADD13C,0.1270*%
%ADD15C,0.1500*%
%ADD55C,0.2540*%
D10*
X317950Y323600D02*
G03*
X317950Y323600I-1000J0D01*
G01*
X326000Y60997D02*
Y54332D01*
X322668Y51000D01*
X319335Y54332D01*
Y60997D01*
X316003D02*
Y51000D01*
X311005D01*
X309339Y52666D01*
Y54332D01*
X311005Y55998D01*
X316003D01*
X311005D01*
X309339Y57664D01*
Y59331D01*
X311005Y60997D01*
X316003D01*
X306006D02*
Y52666D01*
X304340Y51000D01*
X301008D01*
X299342Y52666D01*
Y60997D01*
X289345Y59331D02*
X291011Y60997D01*
X294343D01*
X296010Y59331D01*
Y57664D01*
X294343Y55998D01*
X291011D01*
X289345Y54332D01*
Y52666D01*
X291011Y51000D01*
X294343D01*
X296010Y52666D01*
X147496Y97002D02*
Y106998D01*
X142498D01*
X140831Y105332D01*
Y102000D01*
X142498Y100334D01*
X147496D01*
X144164D02*
X140831Y97002D01*
X137499D02*
X134167D01*
X135833D01*
Y106998D01*
X137499Y105332D01*
X129169Y98668D02*
X127502Y97002D01*
X124170D01*
X122504Y98668D01*
Y105332D01*
X124170Y106998D01*
X127502D01*
X129169Y105332D01*
Y103666D01*
X127502Y102000D01*
X122504D01*
X360998Y234347D02*
X351002D01*
Y239345D01*
X352668Y241011D01*
X354334D01*
X356000Y239345D01*
Y234347D01*
Y239345D01*
X357666Y241011D01*
X359332D01*
X360998Y239345D01*
Y234347D01*
X357666Y246010D02*
Y249342D01*
X356000Y251008D01*
X351002D01*
Y246010D01*
X352668Y244343D01*
X354334Y246010D01*
Y251008D01*
X359332Y256006D02*
X357666D01*
Y254340D01*
Y257673D01*
Y256006D01*
X352668D01*
X351002Y257673D01*
Y262671D02*
X360998D01*
X357666Y266003D01*
X360998Y269335D01*
X351002D01*
Y274334D02*
Y277666D01*
X352668Y279332D01*
X356000D01*
X357666Y277666D01*
Y274334D01*
X356000Y272668D01*
X352668D01*
X351002Y274334D01*
Y282665D02*
X357666D01*
Y287663D01*
X356000Y289329D01*
X351002D01*
Y292661D02*
X360998D01*
Y297660D01*
X359332Y299326D01*
X356000D01*
X354334Y297660D01*
Y292661D01*
X351002Y302658D02*
Y305990D01*
Y304324D01*
X357666D01*
Y302658D01*
X351002Y310989D02*
X357666D01*
Y315987D01*
X356000Y317653D01*
X351002D01*
X380332Y188173D02*
X381998Y186507D01*
Y183175D01*
X380332Y181509D01*
X378666D01*
X377000Y183175D01*
Y186507D01*
X375334Y188173D01*
X373668D01*
X372002Y186507D01*
Y183175D01*
X373668Y181509D01*
X381998Y191506D02*
X372002D01*
X375334Y194838D01*
X372002Y198170D01*
X381998D01*
X377000Y201502D02*
Y208167D01*
X381998Y211499D02*
Y214831D01*
Y213165D01*
X372002D01*
Y211499D01*
Y214831D01*
X381998Y224828D02*
Y221496D01*
X380332Y219830D01*
X373668D01*
X372002Y221496D01*
Y224828D01*
X373668Y226494D01*
X380332D01*
X381998Y224828D01*
X380332Y229827D02*
X381998Y231493D01*
Y234825D01*
X380332Y236491D01*
X373668D01*
X372002Y234825D01*
Y231493D01*
X373668Y229827D01*
X380332D01*
X359332Y157334D02*
X360998Y155668D01*
Y152336D01*
X359332Y150669D01*
X352668D01*
X351002Y152336D01*
Y155668D01*
X352668Y157334D01*
X359332Y160666D02*
X360998Y162332D01*
Y165665D01*
X359332Y167331D01*
X357666D01*
X356000Y165665D01*
Y163998D01*
Y165665D01*
X354334Y167331D01*
X352668D01*
X351002Y165665D01*
Y162332D01*
X352668Y160666D01*
X213331Y9002D02*
Y18998D01*
X208332D01*
X206666Y17332D01*
Y14000D01*
X208332Y12334D01*
X213331D01*
X209998D02*
X206666Y9002D01*
X198335D02*
Y18998D01*
X203334Y14000D01*
X196669D01*
X242331Y9002D02*
Y18998D01*
X237332D01*
X235666Y17332D01*
Y14000D01*
X237332Y12334D01*
X242331D01*
X238998D02*
X235666Y9002D01*
X232334Y17332D02*
X230668Y18998D01*
X227335D01*
X225669Y17332D01*
Y15666D01*
X227335Y14000D01*
X229002D01*
X227335D01*
X225669Y12334D01*
Y10668D01*
X227335Y9002D01*
X230668D01*
X232334Y10668D01*
D13*
X124950Y333500D02*
Y398500D01*
X304950D01*
Y333500D02*
Y398500D01*
X124950Y143500D02*
Y150000D01*
Y143500D02*
X149450D01*
X280450D02*
X304950D01*
Y150000D01*
X423500Y221500D02*
X433500D01*
X423500Y200500D02*
Y221500D01*
Y200500D02*
X433500D01*
Y221500D01*
X388500Y234500D02*
X423500D01*
X388500Y187500D02*
Y234500D01*
Y187500D02*
X423500D01*
Y200500D01*
Y234500D01*
D15*
X363996Y336999D02*
X361330D01*
X362663D01*
Y329001D01*
X363996D01*
X361330D01*
X353332Y336999D02*
X355998D01*
X357331Y335666D01*
Y330334D01*
X355998Y329001D01*
X353332D01*
X351999Y330334D01*
Y335666D01*
X353332Y336999D01*
X349333Y335666D02*
X348001Y336999D01*
X345335D01*
X344002Y335666D01*
Y334333D01*
X345335Y333000D01*
X346668D01*
X345335D01*
X344002Y331667D01*
Y330334D01*
X345335Y329001D01*
X348001D01*
X349333Y330334D01*
X336004Y336999D02*
X341336D01*
Y333000D01*
X338670Y334333D01*
X337337D01*
X336004Y333000D01*
Y330334D01*
X337337Y329001D01*
X340003D01*
X341336Y330334D01*
X336996Y377999D02*
X334330D01*
X335662D01*
Y370001D01*
X336996D01*
X334330D01*
X326332Y377999D02*
X328998D01*
X330331Y376666D01*
Y371334D01*
X328998Y370001D01*
X326332D01*
X324999Y371334D01*
Y376666D01*
X326332Y377999D01*
X322333Y376666D02*
X321001Y377999D01*
X318335D01*
X317002Y376666D01*
Y375333D01*
X318335Y374000D01*
X319668D01*
X318335D01*
X317002Y372667D01*
Y371334D01*
X318335Y370001D01*
X321001D01*
X322333Y371334D01*
X310337Y370001D02*
Y377999D01*
X314336Y374000D01*
X309004D01*
D55*
X205832Y393957D02*
X218528D01*
X221068Y391418D01*
Y386339D01*
X218528Y383800D01*
X205832D01*
X221068Y378722D02*
Y373643D01*
Y376182D01*
X205832D01*
X208372Y378722D01*
M02*
