G04*
G04 #@! TF.GenerationSoftware,Altium Limited,Altium Designer,23.4.1 (23)*
G04*
G04 Layer_Physical_Order=2*
G04 Layer_Color=16711680*
%FSLAX44Y44*%
%MOMM*%
G71*
G04*
G04 #@! TF.SameCoordinates,89D196A3-88CA-4BC0-B6F8-5B7F0D742441*
G04*
G04*
G04 #@! TF.FilePolarity,Positive*
G04*
G01*
G75*
%ADD22R,1.8000X1.8400*%
%ADD31R,1.8400X1.8000*%
%ADD34R,1.0000X1.8000*%
%ADD55C,0.2540*%
%ADD56C,0.5000*%
%ADD58C,0.3000*%
%ADD59C,0.3000*%
%ADD60C,1.5000*%
%ADD61O,1.0000X1.8000*%
%ADD62C,0.6500*%
%ADD63O,1.0000X2.1000*%
%ADD64C,1.6500*%
%ADD65R,1.6500X1.6500*%
%ADD66C,0.6000*%
%ADD67C,0.8000*%
%ADD68R,0.9000X0.9000*%
%ADD69R,1.5000X0.9000*%
%ADD70R,0.9000X1.5000*%
%ADD71R,2.0000X2.0000*%
%ADD72R,1.0000X1.2000*%
G36*
X248121Y419248D02*
X268357Y415222D01*
X288102Y409233D01*
X301544Y403665D01*
X300948Y400665D01*
X133592D01*
X132996Y403665D01*
X146438Y409233D01*
X166183Y415222D01*
X186419Y419248D01*
X206953Y421270D01*
X227587D01*
X248121Y419248D01*
D02*
G37*
G36*
X325362Y391610D02*
X342518Y380147D01*
X358467Y367057D01*
X373057Y352467D01*
X386147Y336518D01*
X397610Y319362D01*
X407337Y301165D01*
X415233Y282102D01*
X421222Y262357D01*
X423711Y249848D01*
X421111Y247540D01*
X416000D01*
Y240500D01*
X422040D01*
Y242869D01*
X425040Y243164D01*
X425248Y242121D01*
X427270Y221587D01*
Y211270D01*
X427270Y200953D01*
X425434Y182308D01*
X425040Y181935D01*
X422040Y183225D01*
Y191540D01*
X419294D01*
X418497Y193447D01*
X418375Y194540D01*
X419697Y195862D01*
X420375Y197500D01*
X409625D01*
X410303Y195862D01*
X411625Y194540D01*
X411503Y193447D01*
X410706Y191540D01*
X407539D01*
X406960Y191540D01*
X404539Y192939D01*
Y227919D01*
X407260Y229735D01*
X408089Y229447D01*
X409406Y226500D01*
X420375D01*
X419977Y227460D01*
X420929Y229628D01*
X421617Y230460D01*
X422040D01*
Y237500D01*
X414500D01*
Y239000D01*
X413000D01*
Y247540D01*
X407276D01*
X406960Y247540D01*
X404184Y247000D01*
X403960Y247000D01*
X390500D01*
Y236869D01*
X390267Y236773D01*
X390034Y236539D01*
X334532D01*
X333832Y237239D01*
X331995Y238000D01*
X330005D01*
X328168Y237239D01*
X326761Y235832D01*
X326000Y233995D01*
Y232005D01*
X326761Y230168D01*
X328168Y228761D01*
X330005Y228000D01*
X331995D01*
X333832Y228761D01*
X334532Y229461D01*
X391500D01*
X394003Y230497D01*
X394461Y230955D01*
X397461Y230892D01*
Y191000D01*
X390500D01*
Y186539D01*
X385000D01*
X382497Y185503D01*
X372497Y175503D01*
X371461Y173000D01*
Y171269D01*
X363652D01*
X363000Y171539D01*
X323000D01*
X320497Y170503D01*
X314950Y164955D01*
X311950Y166198D01*
Y177400D01*
Y190100D01*
Y202800D01*
Y215500D01*
Y228200D01*
Y243812D01*
X347671D01*
X347671Y243812D01*
X350350Y244921D01*
X370679Y265250D01*
X371788Y267929D01*
X371788Y267929D01*
Y315071D01*
X371788Y315071D01*
X370679Y317750D01*
X353788Y334640D01*
Y345286D01*
X355381Y345946D01*
X358054Y348619D01*
X359500Y352110D01*
Y355890D01*
X358054Y359381D01*
X355381Y362054D01*
X351890Y363500D01*
X348110D01*
X344619Y362054D01*
X341946Y359381D01*
X340500Y355890D01*
Y352110D01*
X341946Y348619D01*
X344619Y345946D01*
X346212Y345286D01*
Y339066D01*
X343440Y337918D01*
X330840Y350517D01*
X331500Y352110D01*
Y355890D01*
X330054Y359381D01*
X327381Y362054D01*
X323890Y363500D01*
X320110D01*
X316619Y362054D01*
X313946Y359381D01*
X312500Y355890D01*
Y352110D01*
X313946Y348619D01*
X316619Y345946D01*
X320110Y344500D01*
X323890D01*
X325483Y345160D01*
X359212Y311431D01*
Y271569D01*
X351731Y264088D01*
X311950D01*
Y280912D01*
X323000D01*
Y273000D01*
X347000D01*
Y297000D01*
X323000D01*
Y290088D01*
X311950D01*
Y304400D01*
Y316560D01*
X312490D01*
Y322100D01*
X302450D01*
Y323600D01*
X300950D01*
Y330640D01*
X292410D01*
Y323998D01*
X289638Y322850D01*
X284651Y327838D01*
X284239Y328832D01*
X282832Y330239D01*
X280995Y331000D01*
X279005D01*
X277168Y330239D01*
X275761Y328832D01*
X275000Y326995D01*
Y325005D01*
X275761Y323168D01*
X277168Y321761D01*
X278162Y321349D01*
X289856Y309656D01*
X291344Y308661D01*
X292950Y308342D01*
Y301739D01*
X286332D01*
X285832Y302239D01*
X283995Y303000D01*
X282005D01*
X280168Y302239D01*
X278761Y300832D01*
X278000Y298995D01*
Y298006D01*
X254497Y274503D01*
X253461Y272000D01*
Y268718D01*
X250990Y267440D01*
X245450D01*
Y260400D01*
X243950D01*
X242450D01*
Y267440D01*
X231450D01*
Y260400D01*
X229950D01*
X228450D01*
Y267440D01*
X217450D01*
Y260400D01*
X215950D01*
Y258900D01*
D01*
D01*
D01*
X208910D01*
Y253360D01*
Y247900D01*
X215950D01*
D01*
D01*
D01*
Y246400D01*
Y244900D01*
D01*
D01*
D01*
X208910D01*
Y239360D01*
Y233900D01*
X215950D01*
D01*
D01*
D01*
Y232400D01*
X217450D01*
Y225360D01*
X227435D01*
X228583Y222588D01*
X224497Y218503D01*
X223461Y216000D01*
Y199466D01*
X220534Y196539D01*
X187532D01*
X186832Y197239D01*
X184995Y198000D01*
X183005D01*
X181168Y197239D01*
X179761Y195832D01*
X179000Y193995D01*
Y193248D01*
X176000Y192006D01*
X167539Y200466D01*
Y220860D01*
X167669Y220914D01*
X169357Y222601D01*
X170270Y224806D01*
Y227194D01*
X169357Y229399D01*
X167669Y231087D01*
X167539Y231140D01*
Y272000D01*
X166503Y274503D01*
X152803Y288203D01*
X150300Y289239D01*
X136950D01*
Y294661D01*
X144169D01*
X146672Y295697D01*
X148975Y298000D01*
X149995D01*
X151832Y298761D01*
X153239Y300168D01*
X154000Y302005D01*
Y303995D01*
X153239Y305832D01*
X151832Y307239D01*
X149995Y308000D01*
X148005D01*
X146168Y307239D01*
X144761Y305832D01*
X144000Y303995D01*
Y303036D01*
X142703Y301739D01*
X136950D01*
Y316560D01*
X137490D01*
Y322100D01*
X117410D01*
Y316560D01*
X115288Y314439D01*
X74900D01*
X72397Y313403D01*
X48497Y289503D01*
X47461Y287000D01*
Y271478D01*
X44461Y270235D01*
X43806Y270889D01*
X40039Y272450D01*
X35961D01*
X32194Y270889D01*
X29311Y268006D01*
X27750Y264239D01*
Y260161D01*
X29311Y256394D01*
X30028Y255677D01*
X29324Y252138D01*
X28997Y252003D01*
X23977Y246983D01*
X22941Y244480D01*
Y222920D01*
X23977Y220417D01*
X28689Y215706D01*
X27750Y213439D01*
Y209361D01*
X29311Y205594D01*
X32194Y202710D01*
X35961Y201150D01*
X40039D01*
X42871Y202323D01*
X44570Y199780D01*
X40747Y195957D01*
X40039Y196250D01*
X35961D01*
X32194Y194690D01*
X29311Y191806D01*
X27750Y188039D01*
Y183961D01*
X29311Y180194D01*
X32194Y177311D01*
X35961Y175750D01*
X40039D01*
X43806Y177311D01*
X46690Y180194D01*
X48250Y183961D01*
Y188039D01*
X46690Y191806D01*
X46649Y191847D01*
X50262Y195461D01*
X54122D01*
X55365Y192461D01*
X54710Y191806D01*
X53150Y188039D01*
Y183961D01*
X54567Y180539D01*
X53445Y177539D01*
X51400D01*
X48897Y176503D01*
X42306Y169911D01*
X40039Y170850D01*
X35961D01*
X32194Y169289D01*
X29311Y166406D01*
X27750Y162639D01*
Y158561D01*
X29311Y154794D01*
X32194Y151910D01*
X35961Y150350D01*
X40039D01*
X43806Y151910D01*
X46690Y154794D01*
X48250Y158561D01*
Y162639D01*
X47311Y164906D01*
X50150Y167745D01*
X53150Y166502D01*
Y150350D01*
X73650D01*
Y156261D01*
X95800D01*
X98303Y157297D01*
X108666Y167661D01*
X117950D01*
Y156231D01*
X117461Y155050D01*
Y134200D01*
X110000D01*
Y111800D01*
X132000D01*
Y134200D01*
X124539D01*
Y152000D01*
X136950D01*
Y157461D01*
X149112D01*
X151300Y155500D01*
Y137200D01*
X151300Y136500D01*
X149610Y134200D01*
X140000D01*
Y111800D01*
X148412D01*
Y89989D01*
X148000Y88995D01*
Y87005D01*
X148761Y85168D01*
X150168Y83761D01*
X152005Y83000D01*
X153995D01*
X155832Y83761D01*
X157239Y85168D01*
X158000Y87005D01*
Y88995D01*
X157588Y89989D01*
Y111800D01*
X162000D01*
Y133500D01*
X162000Y134200D01*
X163690Y136500D01*
X193202D01*
X193798Y133500D01*
X193168Y133239D01*
X191761Y131832D01*
X191000Y129995D01*
Y128005D01*
X191761Y126168D01*
X193168Y124761D01*
X193402Y124664D01*
X194159Y122835D01*
X202497Y114497D01*
X205000Y113461D01*
X241000D01*
X243503Y114497D01*
X251967Y122962D01*
X253168Y121761D01*
X255005Y121000D01*
X256995D01*
X258832Y121761D01*
X260239Y123168D01*
X261000Y125005D01*
Y126995D01*
X260239Y128832D01*
X258832Y130239D01*
X256995Y131000D01*
X255005D01*
X253168Y130239D01*
X253130Y130201D01*
X250662D01*
X248159Y129165D01*
X239534Y120539D01*
X206466D01*
X200414Y126591D01*
X201000Y128005D01*
Y129995D01*
X200239Y131832D01*
X198832Y133239D01*
X198202Y133500D01*
X198798Y136500D01*
X265060D01*
Y135960D01*
X270600D01*
Y146000D01*
X272100D01*
Y147500D01*
X279140D01*
Y151935D01*
X281912Y153083D01*
X285702Y149292D01*
X284999Y145753D01*
X284862Y145697D01*
X283303Y144138D01*
X282625Y142500D01*
X293417D01*
X295294Y145461D01*
X312000D01*
X314503Y146497D01*
X318503Y150497D01*
X319539Y153000D01*
Y159534D01*
X324466Y164461D01*
X362618D01*
X363270Y164191D01*
X368500D01*
Y149000D01*
X382500D01*
Y171000D01*
X382248D01*
X381006Y174000D01*
X386466Y179461D01*
X390500D01*
Y175000D01*
X403655Y175000D01*
X406428Y173293D01*
X406259Y171540D01*
X398960D01*
Y161500D01*
X414040D01*
Y171460D01*
X414040Y171540D01*
X414233Y174460D01*
X421003D01*
X423593Y172103D01*
X421222Y160183D01*
X415233Y140438D01*
X407337Y121375D01*
X397610Y103178D01*
X386147Y86022D01*
X373057Y70072D01*
X358467Y55483D01*
X342518Y42393D01*
X325362Y30930D01*
X307165Y21203D01*
X288102Y13307D01*
X268357Y7318D01*
X248121Y3292D01*
X227587Y1270D01*
X206953D01*
X186419Y3292D01*
X166183Y7318D01*
X146438Y13307D01*
X127375Y21203D01*
X109178Y30930D01*
X92022Y42393D01*
X76073Y55483D01*
X61483Y70072D01*
X48393Y86022D01*
X36930Y103178D01*
X27203Y121375D01*
X19307Y140438D01*
X13318Y160183D01*
X9292Y180419D01*
X7270Y200953D01*
Y211270D01*
Y221587D01*
X9292Y242121D01*
X13318Y262357D01*
X19307Y282102D01*
X27203Y301165D01*
X36930Y319362D01*
X48393Y336518D01*
X61483Y352467D01*
X76073Y367057D01*
X92022Y380147D01*
X109178Y391610D01*
X119785Y397280D01*
X122785Y395482D01*
Y336600D01*
X123419Y335069D01*
X124950Y334435D01*
X304950D01*
X306481Y335069D01*
X307115Y336600D01*
Y397962D01*
X308537Y399278D01*
X309762Y399949D01*
X325362Y391610D01*
D02*
G37*
G36*
X117950Y300967D02*
X115675Y300024D01*
X77190Y261539D01*
X74190Y262782D01*
Y264346D01*
X72547Y268312D01*
X69512Y271347D01*
X65546Y272990D01*
X64900D01*
Y262200D01*
X61900D01*
Y272990D01*
X61254D01*
X57539Y271451D01*
X54539Y272519D01*
Y285534D01*
X76366Y307361D01*
X117950D01*
Y300967D01*
D02*
G37*
G36*
Y288046D02*
Y279000D01*
Y263639D01*
X115100D01*
X112597Y262603D01*
X89534Y239539D01*
X73360D01*
X72090Y242606D01*
X71066Y243630D01*
X71040Y243806D01*
X71944Y246994D01*
X73159Y247497D01*
X114950Y289288D01*
X117950Y288046D01*
D02*
G37*
G36*
X292950Y279000D02*
Y266300D01*
Y253600D01*
Y240900D01*
Y228115D01*
X290000Y227995D01*
X289239Y229832D01*
X287832Y231239D01*
X285995Y232000D01*
X284005D01*
X282168Y231239D01*
X281468Y230539D01*
X272466D01*
X268539Y234466D01*
Y254468D01*
X269239Y255168D01*
X270000Y257005D01*
Y258995D01*
X269239Y260832D01*
X267832Y262239D01*
X265995Y263000D01*
X264005D01*
X263539Y262807D01*
X260579Y264507D01*
X260539Y264564D01*
Y270534D01*
X283006Y293000D01*
X283995D01*
X285832Y293761D01*
X286732Y294661D01*
X292950D01*
Y279000D01*
D02*
G37*
G36*
X117950Y253702D02*
Y240900D01*
Y225539D01*
X106000D01*
X103497Y224503D01*
X92534Y213539D01*
X73608D01*
X72090Y217206D01*
X69206Y220089D01*
X65439Y221650D01*
X61361D01*
X57594Y220089D01*
X54710Y217206D01*
X53150Y213439D01*
Y209361D01*
X54710Y205594D01*
X54765Y205539D01*
X53522Y202539D01*
X48796D01*
X47228Y201890D01*
X45529Y204433D01*
X46690Y205594D01*
X48250Y209361D01*
Y213439D01*
X46690Y217206D01*
X43806Y220089D01*
X40039Y221650D01*
X35961D01*
X33694Y220711D01*
X30781Y223625D01*
X31046Y225822D01*
X33918Y227396D01*
X35961Y226550D01*
X40039D01*
X43806Y228111D01*
X46690Y230994D01*
X48250Y234761D01*
Y238839D01*
X48131Y239126D01*
X51358Y242353D01*
X53902Y240653D01*
X53150Y238839D01*
Y234761D01*
X54710Y230994D01*
X57594Y228111D01*
X61361Y226550D01*
X65439D01*
X69206Y228111D01*
X72090Y230994D01*
X72697Y232461D01*
X91000D01*
X93503Y233497D01*
X114950Y254944D01*
X117950Y253702D01*
D02*
G37*
G36*
X142168Y231761D02*
X144005Y231000D01*
X145995D01*
X147461Y231607D01*
X149087Y230991D01*
X150461Y230147D01*
Y220946D01*
X148913Y219399D01*
X148000Y217194D01*
Y214806D01*
X148913Y212601D01*
X150461Y211054D01*
Y196000D01*
X151497Y193497D01*
X177684Y167311D01*
X176535Y164539D01*
X136950D01*
Y177400D01*
Y190100D01*
Y202800D01*
Y215500D01*
Y228200D01*
Y232461D01*
X141468D01*
X142168Y231761D01*
D02*
G37*
G36*
X253824Y219760D02*
X256000Y218075D01*
Y217005D01*
X256761Y215168D01*
X258168Y213761D01*
X260005Y213000D01*
X261995D01*
X263832Y213761D01*
X264032Y213961D01*
X280968D01*
X282168Y212761D01*
X284005Y212000D01*
X285995D01*
X287832Y212761D01*
X289239Y214168D01*
X290000Y216005D01*
X292950Y215885D01*
Y202800D01*
Y190100D01*
Y177400D01*
Y164700D01*
Y156298D01*
X289950Y155056D01*
X281503Y163503D01*
X279000Y164539D01*
X278465D01*
X277316Y167311D01*
X280005Y170000D01*
X280995D01*
X282832Y170761D01*
X284239Y172168D01*
X285000Y174005D01*
Y175995D01*
X284239Y177832D01*
X284031Y178040D01*
X283168Y180000D01*
X284031Y181960D01*
X284239Y182168D01*
X285000Y184005D01*
Y185995D01*
X284239Y187832D01*
X282832Y189239D01*
X280995Y190000D01*
X279005D01*
X277168Y189239D01*
X275761Y187832D01*
X275000Y185995D01*
Y185005D01*
X266534Y176539D01*
X191466D01*
X183006Y185000D01*
X184248Y188000D01*
X184995D01*
X186832Y188761D01*
X187532Y189461D01*
X222000D01*
X224503Y190497D01*
X229503Y195497D01*
X230539Y198000D01*
Y214534D01*
X235466Y219461D01*
X252000D01*
X253228Y219969D01*
X253824Y219760D01*
D02*
G37*
%LPC*%
G36*
X375500Y339458D02*
Y334500D01*
X380457D01*
X379544Y336705D01*
X377705Y338544D01*
X375500Y339458D01*
D02*
G37*
G36*
X372500D02*
X370295Y338544D01*
X368456Y336705D01*
X367542Y334500D01*
X372500D01*
Y339458D01*
D02*
G37*
G36*
X323500D02*
Y334500D01*
X328457D01*
X327544Y336705D01*
X325705Y338544D01*
X323500Y339458D01*
D02*
G37*
G36*
X320500D02*
X318295Y338544D01*
X316456Y336705D01*
X315543Y334500D01*
X320500D01*
Y339458D01*
D02*
G37*
G36*
X380457Y331500D02*
X375500D01*
Y326543D01*
X377705Y327456D01*
X379544Y329295D01*
X380457Y331500D01*
D02*
G37*
G36*
X372500D02*
X367542D01*
X368456Y329295D01*
X370295Y327456D01*
X372500Y326543D01*
Y331500D01*
D02*
G37*
G36*
X328457D02*
X323500D01*
Y326543D01*
X325705Y327456D01*
X327544Y329295D01*
X328457Y331500D01*
D02*
G37*
G36*
X320500D02*
X315543D01*
X316456Y329295D01*
X318295Y327456D01*
X320500Y326543D01*
Y331500D01*
D02*
G37*
G36*
X109500Y329375D02*
Y325500D01*
X113375D01*
X112697Y327138D01*
X111138Y328697D01*
X109500Y329375D01*
D02*
G37*
G36*
X106500D02*
X104862Y328697D01*
X103303Y327138D01*
X102625Y325500D01*
X106500D01*
Y329375D01*
D02*
G37*
G36*
X312490Y330640D02*
X303950D01*
Y325100D01*
X312490D01*
Y330640D01*
D02*
G37*
G36*
X137490D02*
X128950D01*
Y325100D01*
X137490D01*
Y330640D01*
D02*
G37*
G36*
X125950D02*
X117410D01*
Y325100D01*
X125950D01*
Y330640D01*
D02*
G37*
G36*
X336500Y328375D02*
Y324500D01*
X340375D01*
X339697Y326138D01*
X338138Y327697D01*
X336500Y328375D01*
D02*
G37*
G36*
X333500D02*
X331862Y327697D01*
X330303Y326138D01*
X329625Y324500D01*
X333500D01*
Y328375D01*
D02*
G37*
G36*
X113375Y322500D02*
X109500D01*
Y318625D01*
X111138Y319303D01*
X112697Y320862D01*
X113375Y322500D01*
D02*
G37*
G36*
X106500D02*
X102625D01*
X103303Y320862D01*
X104862Y319303D01*
X106500Y318625D01*
Y322500D01*
D02*
G37*
G36*
X340375Y321500D02*
X336500D01*
Y317625D01*
X338138Y318303D01*
X339697Y319862D01*
X340375Y321500D01*
D02*
G37*
G36*
X333500D02*
X329625D01*
X330303Y319862D01*
X331862Y318303D01*
X333500Y317625D01*
Y321500D01*
D02*
G37*
G36*
X214450Y267440D02*
X208910D01*
Y261900D01*
X214450D01*
Y267440D01*
D02*
G37*
G36*
Y230900D02*
X208910D01*
Y225360D01*
X214450D01*
Y230900D01*
D02*
G37*
G36*
X420375Y223500D02*
X416500D01*
Y219625D01*
X418138Y220303D01*
X419697Y221862D01*
X420375Y223500D01*
D02*
G37*
G36*
X413500D02*
X409625D01*
X410303Y221862D01*
X411862Y220303D01*
X413500Y219625D01*
Y223500D01*
D02*
G37*
G36*
X416500Y204375D02*
Y200500D01*
X420375D01*
X419697Y202138D01*
X418138Y203697D01*
X416500Y204375D01*
D02*
G37*
G36*
X413500D02*
X411862Y203697D01*
X410303Y202138D01*
X409625Y200500D01*
X413500D01*
Y204375D01*
D02*
G37*
G36*
X324500Y188458D02*
Y183500D01*
X329458D01*
X328544Y185705D01*
X326705Y187544D01*
X324500Y188458D01*
D02*
G37*
G36*
X321500D02*
X319295Y187544D01*
X317456Y185705D01*
X316542Y183500D01*
X321500D01*
Y188458D01*
D02*
G37*
G36*
X329458Y180500D02*
X324500D01*
Y175543D01*
X326705Y176456D01*
X328544Y178295D01*
X329458Y180500D01*
D02*
G37*
G36*
X321500D02*
X316542D01*
X317456Y178295D01*
X319295Y176456D01*
X321500Y175543D01*
Y180500D01*
D02*
G37*
G36*
X414040Y158500D02*
X408000D01*
Y148460D01*
X414040D01*
Y158500D01*
D02*
G37*
G36*
X405000D02*
X398960D01*
Y148460D01*
X405000D01*
Y158500D01*
D02*
G37*
G36*
X279140Y144500D02*
X273600D01*
Y135960D01*
X279140D01*
Y144500D01*
D02*
G37*
G36*
X293375Y139500D02*
X289500D01*
Y135625D01*
X291138Y136303D01*
X292697Y137862D01*
X293375Y139500D01*
D02*
G37*
G36*
X286500D02*
X282625D01*
X283303Y137862D01*
X284862Y136303D01*
X286500Y135625D01*
Y139500D01*
D02*
G37*
G36*
X51500Y129375D02*
Y125500D01*
X55375D01*
X54697Y127138D01*
X53138Y128697D01*
X51500Y129375D01*
D02*
G37*
G36*
X48500D02*
X46862Y128697D01*
X45303Y127138D01*
X44625Y125500D01*
X48500D01*
Y129375D01*
D02*
G37*
G36*
X55375Y122500D02*
X51500D01*
Y118625D01*
X53138Y119303D01*
X54697Y120862D01*
X55375Y122500D01*
D02*
G37*
G36*
X48500D02*
X44625D01*
X45303Y120862D01*
X46862Y119303D01*
X48500Y118625D01*
Y122500D01*
D02*
G37*
G36*
X268500Y105375D02*
Y101500D01*
X272375D01*
X271697Y103138D01*
X270138Y104697D01*
X268500Y105375D01*
D02*
G37*
G36*
X265500D02*
X263862Y104697D01*
X262303Y103138D01*
X261625Y101500D01*
X265500D01*
Y105375D01*
D02*
G37*
G36*
X172500Y104375D02*
Y100500D01*
X176375D01*
X175697Y102138D01*
X174138Y103697D01*
X172500Y104375D01*
D02*
G37*
G36*
X169500D02*
X167862Y103697D01*
X166303Y102138D01*
X165625Y100500D01*
X169500D01*
Y104375D01*
D02*
G37*
G36*
X336500Y90457D02*
Y85500D01*
X341457D01*
X340544Y87705D01*
X338705Y89544D01*
X336500Y90457D01*
D02*
G37*
G36*
X333500D02*
X331295Y89544D01*
X329456Y87705D01*
X328543Y85500D01*
X333500D01*
Y90457D01*
D02*
G37*
G36*
X122500Y88457D02*
Y83500D01*
X127458D01*
X126544Y85705D01*
X124705Y87544D01*
X122500Y88457D01*
D02*
G37*
G36*
X119500D02*
X117295Y87544D01*
X115456Y85705D01*
X114543Y83500D01*
X119500D01*
Y88457D01*
D02*
G37*
G36*
X100500D02*
Y83500D01*
X105457D01*
X104544Y85705D01*
X102705Y87544D01*
X100500Y88457D01*
D02*
G37*
G36*
X97500D02*
X95295Y87544D01*
X93456Y85705D01*
X92542Y83500D01*
X97500D01*
Y88457D01*
D02*
G37*
G36*
X272375Y98500D02*
X261625D01*
X261992Y97614D01*
X261735Y96674D01*
X261029Y95334D01*
X260374Y94549D01*
X258258Y94128D01*
X255764Y92461D01*
X254097Y89967D01*
X253512Y87025D01*
Y81523D01*
X250512Y80337D01*
X249874Y80976D01*
X247944Y81775D01*
X245856D01*
X243926Y80976D01*
X242449Y79499D01*
X241650Y77569D01*
Y75481D01*
X240661Y74000D01*
X222820D01*
Y52000D01*
X245220D01*
Y70850D01*
X245856Y71275D01*
X247944D01*
X249874Y72074D01*
X251013Y73213D01*
X252999Y73129D01*
X254287Y72800D01*
X255764Y70589D01*
X258258Y68923D01*
X259700Y68636D01*
Y81525D01*
X261200D01*
Y83025D01*
X268888D01*
Y87025D01*
X268302Y89967D01*
X267305Y91460D01*
X267692Y92916D01*
X268372Y94463D01*
X268519Y94633D01*
X270138Y95303D01*
X271697Y96862D01*
X272375Y98500D01*
D02*
G37*
G36*
X341457Y82500D02*
X336500D01*
Y77543D01*
X338705Y78456D01*
X340544Y80295D01*
X341457Y82500D01*
D02*
G37*
G36*
X333500D02*
X328543D01*
X329456Y80295D01*
X331295Y78456D01*
X333500Y77543D01*
Y82500D01*
D02*
G37*
G36*
X127458Y80500D02*
X122500D01*
Y75542D01*
X124705Y76456D01*
X126544Y78295D01*
X127458Y80500D01*
D02*
G37*
G36*
X119500D02*
X114543D01*
X115456Y78295D01*
X117295Y76456D01*
X119500Y75542D01*
Y80500D01*
D02*
G37*
G36*
X105457D02*
X100500D01*
Y75542D01*
X102705Y76456D01*
X104544Y78295D01*
X105457Y80500D01*
D02*
G37*
G36*
X97500D02*
X92542D01*
X93456Y78295D01*
X95295Y76456D01*
X97500Y75542D01*
Y80500D01*
D02*
G37*
G36*
X268888Y80025D02*
X262700D01*
Y68636D01*
X264142Y68923D01*
X266636Y70589D01*
X268302Y73083D01*
X268888Y76025D01*
Y80025D01*
D02*
G37*
G36*
X173300D02*
X167112D01*
Y76025D01*
X167698Y73083D01*
X169364Y70589D01*
X171858Y68923D01*
X173300Y68636D01*
Y80025D01*
D02*
G37*
G36*
X176375Y97500D02*
X165625D01*
X166303Y95862D01*
X167502Y94663D01*
X167872Y94226D01*
X168303Y90873D01*
X167698Y89967D01*
X167112Y87025D01*
Y83025D01*
X174800D01*
Y81525D01*
X176300D01*
Y68636D01*
X177742Y68923D01*
X180236Y70589D01*
X181713Y72800D01*
X183001Y73129D01*
X184987Y73213D01*
X186126Y72074D01*
X188056Y71275D01*
X190144D01*
X192800Y69128D01*
Y52000D01*
X215200D01*
Y74000D01*
X195339D01*
X194350Y75481D01*
Y77569D01*
X193551Y79499D01*
X192074Y80976D01*
X190144Y81775D01*
X188056D01*
X186126Y80976D01*
X185488Y80337D01*
X182488Y81523D01*
Y87025D01*
X181903Y89967D01*
X180236Y92461D01*
X177927Y94004D01*
X177723Y94174D01*
X176359Y97461D01*
X176375Y97500D01*
D02*
G37*
G36*
X339890Y65500D02*
X336110D01*
X332619Y64054D01*
X329946Y61381D01*
X328500Y57890D01*
Y54110D01*
X329946Y50619D01*
X332619Y47946D01*
X336110Y46500D01*
X339890D01*
X343381Y47946D01*
X346054Y50619D01*
X347500Y54110D01*
Y57890D01*
X346054Y61381D01*
X343381Y64054D01*
X339890Y65500D01*
D02*
G37*
G36*
X262700Y51114D02*
Y41225D01*
X268888D01*
Y43725D01*
X268302Y46667D01*
X266636Y49161D01*
X264142Y50827D01*
X262700Y51114D01*
D02*
G37*
G36*
X176300D02*
Y41225D01*
X182488D01*
Y43725D01*
X181903Y46667D01*
X180236Y49161D01*
X177742Y50827D01*
X176300Y51114D01*
D02*
G37*
G36*
X259700D02*
X258258Y50827D01*
X255764Y49161D01*
X254097Y46667D01*
X253512Y43725D01*
Y41225D01*
X259700D01*
Y51114D01*
D02*
G37*
G36*
X173300D02*
X171858Y50827D01*
X169364Y49161D01*
X167698Y46667D01*
X167112Y43725D01*
Y41225D01*
X173300D01*
Y51114D01*
D02*
G37*
G36*
X245760Y44540D02*
X235520D01*
Y34500D01*
X245760D01*
Y44540D01*
D02*
G37*
G36*
X215740D02*
X205500D01*
Y34500D01*
X215740D01*
Y44540D01*
D02*
G37*
G36*
X232520D02*
X222280D01*
Y34500D01*
X232520D01*
Y44540D01*
D02*
G37*
G36*
X202500D02*
X192260D01*
Y34500D01*
X202500D01*
Y44540D01*
D02*
G37*
G36*
X182488Y38225D02*
X176300D01*
Y28336D01*
X177742Y28623D01*
X180236Y30289D01*
X181903Y32783D01*
X182488Y35725D01*
Y38225D01*
D02*
G37*
G36*
X268888D02*
X262700D01*
Y28336D01*
X264142Y28623D01*
X266636Y30289D01*
X268302Y32783D01*
X268888Y35725D01*
Y38225D01*
D02*
G37*
G36*
X259700D02*
X253512D01*
Y35725D01*
X254097Y32783D01*
X255764Y30289D01*
X258258Y28623D01*
X259700Y28336D01*
Y38225D01*
D02*
G37*
G36*
X173300D02*
X167112D01*
Y35725D01*
X167698Y32783D01*
X169364Y30289D01*
X171858Y28623D01*
X173300Y28336D01*
Y38225D01*
D02*
G37*
G36*
X245760Y31500D02*
X235520D01*
Y21460D01*
X245760D01*
Y31500D01*
D02*
G37*
G36*
X232520D02*
X222280D01*
Y21460D01*
X232520D01*
Y31500D01*
D02*
G37*
G36*
X215740D02*
X205500D01*
Y21460D01*
X215740D01*
Y31500D01*
D02*
G37*
G36*
X202500D02*
X192260D01*
Y21460D01*
X202500D01*
Y31500D01*
D02*
G37*
G36*
X296995Y49000D02*
X295005D01*
X293168Y48239D01*
X291761Y46832D01*
X291000Y44995D01*
Y43005D01*
X291220Y42473D01*
Y39709D01*
X281162Y29651D01*
X280168Y29239D01*
X278761Y27832D01*
X278000Y25995D01*
Y24005D01*
X278761Y22168D01*
X280168Y20761D01*
X282005Y20000D01*
X283995D01*
X285832Y20761D01*
X287239Y22168D01*
X287651Y23162D01*
X299053Y34564D01*
X300048Y36053D01*
X300397Y37809D01*
Y41549D01*
X301000Y43005D01*
Y44995D01*
X300239Y46832D01*
X298832Y48239D01*
X296995Y49000D01*
D02*
G37*
G36*
X277995Y272000D02*
X276005D01*
X274168Y271239D01*
X272761Y269832D01*
X272000Y267995D01*
Y266005D01*
X272761Y264168D01*
X273212Y263717D01*
Y243283D01*
X272761Y242832D01*
X272000Y240995D01*
Y239005D01*
X272761Y237168D01*
X274168Y235761D01*
X276005Y235000D01*
X277995D01*
X279832Y235761D01*
X281239Y237168D01*
X282000Y239005D01*
Y240995D01*
X281239Y242832D01*
X280788Y243283D01*
Y263717D01*
X281239Y264168D01*
X282000Y266005D01*
Y267995D01*
X281239Y269832D01*
X279832Y271239D01*
X277995Y272000D01*
D02*
G37*
%LPD*%
D22*
X121000Y123000D02*
D03*
X151000D02*
D03*
D31*
X234020Y63000D02*
D03*
Y33000D02*
D03*
X204000Y63000D02*
D03*
Y33000D02*
D03*
D34*
X375500Y160000D02*
D03*
X406500D02*
D03*
D55*
X121000Y123000D02*
Y155050D01*
X124450Y158500D01*
X127450D01*
X215950Y225488D02*
Y232400D01*
Y225488D02*
X217438Y224000D01*
X226775D02*
X229135Y226360D01*
X217438Y224000D02*
X226775D01*
X229135Y226360D02*
Y231585D01*
X229950Y232400D01*
X250000Y249000D02*
Y258912D01*
X243950Y260400D02*
X245438Y258912D01*
X250000D01*
X244550Y247000D02*
X248000D01*
X250000Y249000D01*
X243950Y246400D02*
X244550Y247000D01*
X243950Y246400D02*
X246350Y244000D01*
X249000D01*
X244350Y232000D02*
X248512D01*
X250000Y233488D01*
Y243000D01*
X249000Y244000D02*
X250000Y243000D01*
X243950Y232400D02*
X244350Y232000D01*
X215950Y260400D02*
X229950Y246400D01*
X252000Y223000D02*
X257000Y228000D01*
X234000Y223000D02*
X252000D01*
X257000Y228000D02*
Y272000D01*
X283000Y298000D01*
X265000Y233000D02*
X271000Y227000D01*
X265000Y233000D02*
Y258000D01*
X227000Y216000D02*
X234000Y223000D01*
X227000Y198000D02*
Y216000D01*
X222000Y193000D02*
X227000Y198000D01*
X284500Y217500D02*
X285000Y217000D01*
X261500Y217500D02*
X284500D01*
X261000Y218000D02*
X261500Y217500D01*
X107200Y171200D02*
X127450D01*
X95800Y159800D02*
X107200Y171200D01*
X64200Y159800D02*
X95800D01*
X63400Y160600D02*
X64200Y159800D01*
X106900Y183900D02*
X127450D01*
X97000Y174000D02*
X106900Y183900D01*
X51400Y174000D02*
X97000D01*
X38000Y160600D02*
X51400Y174000D01*
X128750Y236000D02*
X145000D01*
X127450Y234700D02*
X128750Y236000D01*
X106300Y209300D02*
X127450D01*
X96000Y199000D02*
X106300Y209300D01*
X48796Y199000D02*
X96000D01*
X39574Y189778D02*
X48796Y199000D01*
X38000Y189778D02*
X39574D01*
X38000Y186000D02*
Y189778D01*
X74900Y310900D02*
X127450D01*
X51000Y287000D02*
X74900Y310900D01*
X51000Y256000D02*
Y287000D01*
X44500Y249500D02*
X51000Y256000D01*
X31500Y249500D02*
X44500D01*
X26480Y244480D02*
X31500Y249500D01*
X26480Y222920D02*
Y244480D01*
Y222920D02*
X38000Y211400D01*
X303050Y323000D02*
X335000D01*
X302450Y323600D02*
X303050Y323000D01*
X129950Y161000D02*
X279000D01*
X127450Y158500D02*
X129950Y161000D01*
X371770Y167730D02*
X375000Y164500D01*
X363270Y167730D02*
X371770D01*
X363000Y168000D02*
X363270Y167730D01*
X323000Y168000D02*
X363000D01*
X316000Y161000D02*
X323000Y168000D01*
X316000Y153000D02*
Y161000D01*
X312000Y149000D02*
X316000Y153000D01*
X291000Y149000D02*
X312000D01*
X279000Y161000D02*
X291000Y149000D01*
X115100Y260100D02*
X127450D01*
X91000Y236000D02*
X115100Y260100D01*
X64200Y236000D02*
X91000D01*
X63400Y236800D02*
X64200Y236000D01*
X127450Y260100D02*
X128000D01*
X146000Y254000D02*
Y254773D01*
X140673Y260100D02*
X146000Y254773D01*
X128200Y260100D02*
X140673D01*
X127650Y273000D02*
X148000D01*
X127450Y272800D02*
X127650Y273000D01*
X154000Y216000D02*
Y267000D01*
X148000Y273000D02*
X154000Y267000D01*
X283200Y298200D02*
X302450D01*
X283000Y298000D02*
X283200Y298200D01*
X105600Y196600D02*
X127450D01*
X94200Y185200D02*
X105600Y196600D01*
X64200Y185200D02*
X94200D01*
X63400Y186000D02*
X64200Y185200D01*
X118178Y297522D02*
X126772D01*
X127450Y298200D01*
X70656Y250000D02*
X118178Y297522D01*
X54000Y250000D02*
X70656D01*
X40800Y236800D02*
X54000Y250000D01*
X38000Y236800D02*
X40800D01*
X127650Y285700D02*
X150300D01*
X127450Y285500D02*
X127650Y285700D01*
X164000Y226270D02*
X164270Y226000D01*
X164000Y226270D02*
Y272000D01*
X150300Y285700D02*
X164000Y272000D01*
X127450Y298200D02*
X128000D01*
X148969Y303000D02*
X149000D01*
X144169Y298200D02*
X148969Y303000D01*
X128000Y298200D02*
X144169D01*
X106000Y222000D02*
X127450D01*
X94000Y210000D02*
X106000Y222000D01*
X64800Y210000D02*
X94000D01*
X63400Y211400D02*
X64800Y210000D01*
X272000Y167000D02*
X280000Y175000D01*
X154000Y196000D02*
X183000Y167000D01*
X272000D01*
X268000Y173000D02*
X280000Y185000D01*
X164000Y199000D02*
X190000Y173000D01*
X268000D01*
X184000Y193000D02*
X222000D01*
X154000Y196000D02*
Y216000D01*
X164000Y199000D02*
Y226000D01*
X331000Y233000D02*
X391500D01*
X397500Y238000D02*
Y239000D01*
X393770Y234270D02*
X397500Y238000D01*
X392770Y234270D02*
X393770D01*
X391500Y233000D02*
X392770Y234270D01*
X375000Y160000D02*
Y164500D01*
Y173000D01*
X205000Y117000D02*
X241000D01*
X250662Y126662D01*
X255338D01*
X256000Y126000D01*
X196662Y125338D02*
Y128338D01*
X196000Y129000D02*
X196662Y128338D01*
Y125338D02*
X205000Y117000D01*
X397500Y183000D02*
X401000Y186500D01*
X397500Y239000D02*
X401000Y235500D01*
Y186500D02*
Y235500D01*
X385000Y183000D02*
X397500D01*
X375000Y173000D02*
X385000Y183000D01*
X271000Y227000D02*
X285000D01*
D56*
X153000Y88000D02*
Y121000D01*
X151000Y123000D02*
X153000Y121000D01*
X280000Y326000D02*
X293100Y312900D01*
X300450D01*
X302450Y310900D01*
Y285500D02*
X334500D01*
X335000Y285000D01*
X283000Y25000D02*
X295809Y37809D01*
Y43809D01*
X296000Y44000D01*
X414500Y169429D02*
Y183000D01*
X409000Y166500D02*
X411571D01*
X414500Y169429D01*
X406500Y160000D02*
Y164000D01*
X409000Y166500D01*
X414500Y183000D02*
X414809Y183309D01*
Y198809D01*
X415000Y199000D01*
X414500Y239000D02*
X415000Y238500D01*
Y225000D02*
Y238500D01*
D58*
X302650Y247600D02*
X347671D01*
X302450Y247400D02*
X302650Y247600D01*
X350000Y333071D02*
Y354000D01*
Y333071D02*
X368000Y315071D01*
Y267929D02*
Y315071D01*
X347671Y247600D02*
X368000Y267929D01*
X302650Y260300D02*
X353300D01*
X302450Y260100D02*
X302650Y260300D01*
X322000Y354000D02*
X363000Y313000D01*
Y270000D02*
Y313000D01*
X353300Y260300D02*
X363000Y270000D01*
X108000Y324000D02*
X127050D01*
X127450Y323600D01*
X277000Y240000D02*
Y267000D01*
D59*
X222950Y232400D02*
D03*
X236950D02*
D03*
X215950Y239400D02*
D03*
X229950D02*
D03*
X243950D02*
D03*
X222950Y246400D02*
D03*
X236950D02*
D03*
X215950Y253400D02*
D03*
X229950D02*
D03*
X243950D02*
D03*
X222950Y260400D02*
D03*
X236950D02*
D03*
D60*
X350000Y354000D02*
D03*
X322000D02*
D03*
X338000Y56000D02*
D03*
D61*
X261200Y39725D02*
D03*
X174800D02*
D03*
D62*
X246900Y76525D02*
D03*
X189100D02*
D03*
D63*
X174800Y81525D02*
D03*
X261200D02*
D03*
D64*
X38000Y186000D02*
D03*
X63400D02*
D03*
X38000Y160600D02*
D03*
X63400Y211400D02*
D03*
X38000D02*
D03*
X63400Y236800D02*
D03*
Y262200D02*
D03*
X38000Y236800D02*
D03*
Y262200D02*
D03*
D65*
X63400Y160600D02*
D03*
D66*
X153000Y88000D02*
D03*
X265000Y258000D02*
D03*
X261000Y218000D02*
D03*
X184000Y193000D02*
D03*
X335000Y323000D02*
D03*
X145000Y236000D02*
D03*
X146000Y254000D02*
D03*
X283000Y25000D02*
D03*
X296000Y44000D02*
D03*
X50000Y124000D02*
D03*
X280000Y326000D02*
D03*
X331000Y233000D02*
D03*
X256000Y126000D02*
D03*
X288000Y141000D02*
D03*
X196000Y129000D02*
D03*
X267000Y100000D02*
D03*
X171000Y99000D02*
D03*
X415000Y199000D02*
D03*
Y225000D02*
D03*
X108000Y324000D02*
D03*
X149000Y303000D02*
D03*
X234020Y63000D02*
D03*
X205000Y64000D02*
D03*
X283000Y298000D02*
D03*
X285000Y217000D02*
D03*
Y227000D02*
D03*
X277000Y267000D02*
D03*
Y240000D02*
D03*
X280000Y185000D02*
D03*
Y175000D02*
D03*
D67*
X335000Y84000D02*
D03*
X374000Y333000D02*
D03*
X322000D02*
D03*
X323000Y182000D02*
D03*
X164270Y226000D02*
D03*
X154000Y216000D02*
D03*
X121000Y82000D02*
D03*
X99000D02*
D03*
D68*
X215950Y232400D02*
D03*
X229950D02*
D03*
X243950D02*
D03*
X215950Y246400D02*
D03*
X229950D02*
D03*
X243950D02*
D03*
X215950Y260400D02*
D03*
X229950D02*
D03*
X243950D02*
D03*
D69*
X127450Y323600D02*
D03*
Y310900D02*
D03*
Y298200D02*
D03*
Y285500D02*
D03*
Y272800D02*
D03*
Y260100D02*
D03*
Y247400D02*
D03*
Y234700D02*
D03*
Y222000D02*
D03*
Y209300D02*
D03*
Y196600D02*
D03*
Y183900D02*
D03*
Y171200D02*
D03*
Y158500D02*
D03*
X302450D02*
D03*
Y171200D02*
D03*
Y183900D02*
D03*
Y196600D02*
D03*
Y209300D02*
D03*
Y222000D02*
D03*
Y234700D02*
D03*
Y247400D02*
D03*
Y260100D02*
D03*
Y272800D02*
D03*
Y285500D02*
D03*
Y298200D02*
D03*
Y310900D02*
D03*
Y323600D02*
D03*
D70*
X157800Y146000D02*
D03*
X170500D02*
D03*
X183200D02*
D03*
X195900D02*
D03*
X208600D02*
D03*
X221300D02*
D03*
X234000D02*
D03*
X246700D02*
D03*
X259400D02*
D03*
X272100D02*
D03*
D71*
X335000Y285000D02*
D03*
D72*
X414500Y239000D02*
D03*
X397500D02*
D03*
X414500Y183000D02*
D03*
X397500D02*
D03*
M02*
