G04*
G04 #@! TF.GenerationSoftware,Altium Limited,Altium Designer,23.4.1 (23)*
G04*
G04 Layer_Color=255*
%FSLAX44Y44*%
%MOMM*%
G71*
G04*
G04 #@! TF.SameCoordinates,89D196A3-88CA-4BC0-B6F8-5B7F0D742441*
G04*
G04*
G04 #@! TF.FilePolarity,Positive*
G04*
G01*
G75*
%ADD22R,1.8000X1.8400*%
%ADD23R,0.6000X1.1500*%
%ADD24R,0.3000X1.1500*%
%ADD25R,1.2000X1.0000*%
G04:AMPARAMS|DCode=26|XSize=1.1mm|YSize=1.73mm|CornerRadius=0.11mm|HoleSize=0mm|Usage=FLASHONLY|Rotation=180.000|XOffset=0mm|YOffset=0mm|HoleType=Round|Shape=RoundedRectangle|*
%AMROUNDEDRECTD26*
21,1,1.1000,1.5100,0,0,180.0*
21,1,0.8800,1.7300,0,0,180.0*
1,1,0.2200,-0.4400,0.7550*
1,1,0.2200,0.4400,0.7550*
1,1,0.2200,0.4400,-0.7550*
1,1,0.2200,-0.4400,-0.7550*
%
%ADD26ROUNDEDRECTD26*%
%ADD27R,1.8000X1.0000*%
%ADD28R,0.7000X0.2500*%
%ADD29R,0.2500X0.7000*%
%ADD30R,1.3500X0.6000*%
%ADD31R,1.8400X1.8000*%
%ADD32R,1.1000X1.4000*%
%ADD33R,0.9000X1.4000*%
%ADD34R,1.0000X1.8000*%
%ADD41R,2.7500X2.7500*%
%ADD59C,0.3000*%
%ADD60C,1.5000*%
%ADD61O,1.0000X1.8000*%
%ADD62C,0.6500*%
%ADD63O,1.0000X2.1000*%
%ADD64C,1.6500*%
%ADD65R,1.6500X1.6500*%
D22*
X149000Y303000D02*
D03*
X179000D02*
D03*
X149000Y254535D02*
D03*
X179000D02*
D03*
X241694Y207767D02*
D03*
X211694D02*
D03*
X243000Y285000D02*
D03*
X213000D02*
D03*
X358000Y216674D02*
D03*
X388000D02*
D03*
X358000Y186000D02*
D03*
X388000D02*
D03*
X120721Y124002D02*
D03*
X150721D02*
D03*
D23*
X250000Y87275D02*
D03*
X242000D02*
D03*
X186000D02*
D03*
X194000D02*
D03*
D24*
X235500D02*
D03*
X230500D02*
D03*
X200500D02*
D03*
X205500D02*
D03*
X210500D02*
D03*
X225500D02*
D03*
X220500D02*
D03*
X215500D02*
D03*
D25*
X82000Y82000D02*
D03*
Y99000D02*
D03*
X138000Y82000D02*
D03*
Y99000D02*
D03*
D26*
X246100Y181000D02*
D03*
X215900D02*
D03*
X246100Y313000D02*
D03*
X215900D02*
D03*
D27*
X335000Y132000D02*
D03*
Y101000D02*
D03*
D28*
X295250Y162500D02*
D03*
Y167500D02*
D03*
Y172500D02*
D03*
Y177500D02*
D03*
Y182500D02*
D03*
Y187500D02*
D03*
X334750D02*
D03*
Y182500D02*
D03*
Y177500D02*
D03*
Y172500D02*
D03*
Y167500D02*
D03*
Y162500D02*
D03*
D29*
X302500Y194750D02*
D03*
X307500D02*
D03*
X312500D02*
D03*
X317500D02*
D03*
X322500D02*
D03*
X327500D02*
D03*
Y155250D02*
D03*
X322500D02*
D03*
X317500D02*
D03*
X312500D02*
D03*
X307500D02*
D03*
X302500D02*
D03*
D30*
X299000Y305000D02*
D03*
X323000Y314500D02*
D03*
Y295500D02*
D03*
X299000Y259000D02*
D03*
X323000Y268500D02*
D03*
Y249500D02*
D03*
D31*
X366000Y142000D02*
D03*
Y112000D02*
D03*
X382000Y260000D02*
D03*
Y290000D02*
D03*
X352000D02*
D03*
Y260000D02*
D03*
D32*
X225500Y151000D02*
D03*
D33*
X208500D02*
D03*
Y129000D02*
D03*
X227500D02*
D03*
D34*
X96500Y124000D02*
D03*
X65500D02*
D03*
D41*
X315000Y175000D02*
D03*
D59*
X222950Y232400D02*
D03*
X236950D02*
D03*
X215950Y239400D02*
D03*
X229950D02*
D03*
X243950D02*
D03*
X222950Y246400D02*
D03*
X236950D02*
D03*
X215950Y253400D02*
D03*
X229950D02*
D03*
X243950D02*
D03*
X222950Y260400D02*
D03*
X236950D02*
D03*
D60*
X350000Y354000D02*
D03*
X322000D02*
D03*
D61*
X261200Y39725D02*
D03*
X174800D02*
D03*
D62*
X246900Y76525D02*
D03*
X189100D02*
D03*
D63*
X174800Y81525D02*
D03*
X261200D02*
D03*
D64*
X38000Y186000D02*
D03*
X63400D02*
D03*
X38000Y160600D02*
D03*
X63400Y211400D02*
D03*
X38000D02*
D03*
X63400Y236800D02*
D03*
Y262200D02*
D03*
X38000Y236800D02*
D03*
Y262200D02*
D03*
D65*
X63400Y160600D02*
D03*
M02*
