G04*
G04 #@! TF.GenerationSoftware,Altium Limited,Altium Designer,23.4.1 (23)*
G04*
G04 Layer_Color=8388736*
%FSLAX44Y44*%
%MOMM*%
G71*
G04*
G04 #@! TF.SameCoordinates,89D196A3-88CA-4BC0-B6F8-5B7F0D742441*
G04*
G04*
G04 #@! TF.FilePolarity,Negative*
G04*
G01*
G75*
%ADD28R,0.7000X0.2500*%
%ADD29R,0.2500X0.7000*%
%ADD35R,2.0032X2.0432*%
%ADD36R,0.7000X1.2500*%
%ADD37R,0.4000X1.2500*%
%ADD38R,1.4032X1.2032*%
G04:AMPARAMS|DCode=39|XSize=1.3032mm|YSize=1.9332mm|CornerRadius=0.2116mm|HoleSize=0mm|Usage=FLASHONLY|Rotation=180.000|XOffset=0mm|YOffset=0mm|HoleType=Round|Shape=RoundedRectangle|*
%AMROUNDEDRECTD39*
21,1,1.3032,1.5100,0,0,180.0*
21,1,0.8800,1.9332,0,0,180.0*
1,1,0.4232,-0.4400,0.7550*
1,1,0.4232,0.4400,0.7550*
1,1,0.4232,0.4400,-0.7550*
1,1,0.4232,-0.4400,-0.7550*
%
%ADD39ROUNDEDRECTD39*%
%ADD40R,2.0032X1.2032*%
%ADD41R,2.7500X2.7500*%
%ADD42R,1.5532X0.8032*%
%ADD43R,2.0432X2.0032*%
%ADD44R,1.3032X1.6032*%
%ADD45R,1.1032X1.6032*%
%ADD46R,1.2032X2.0032*%
%ADD47C,1.7032*%
%ADD48O,1.2032X2.0032*%
%ADD49C,0.7500*%
%ADD50O,1.2032X2.3032*%
%ADD51C,1.8532*%
%ADD52R,1.8532X1.8532*%
%ADD53C,0.8032*%
%ADD54C,1.0032*%
D28*
X295250Y162500D02*
D03*
Y167500D02*
D03*
Y172500D02*
D03*
Y177500D02*
D03*
Y182500D02*
D03*
Y187500D02*
D03*
X334750D02*
D03*
Y182500D02*
D03*
Y177500D02*
D03*
Y172500D02*
D03*
Y167500D02*
D03*
Y162500D02*
D03*
D29*
X302500Y194750D02*
D03*
X307500D02*
D03*
X312500D02*
D03*
X317500D02*
D03*
X322500D02*
D03*
X327500D02*
D03*
Y155250D02*
D03*
X322500D02*
D03*
X317500D02*
D03*
X312500D02*
D03*
X307500D02*
D03*
X302500D02*
D03*
D35*
X149000Y303000D02*
D03*
X179000D02*
D03*
X149000Y254535D02*
D03*
X179000D02*
D03*
X241694Y207767D02*
D03*
X211694D02*
D03*
X243000Y285000D02*
D03*
X213000D02*
D03*
X358000Y216674D02*
D03*
X388000D02*
D03*
X358000Y186000D02*
D03*
X388000D02*
D03*
X120721Y124002D02*
D03*
X150721D02*
D03*
D36*
X250000Y87275D02*
D03*
X242000D02*
D03*
X186000D02*
D03*
X194000D02*
D03*
D37*
X235500D02*
D03*
X230500D02*
D03*
X200500D02*
D03*
X205500D02*
D03*
X210500D02*
D03*
X225500D02*
D03*
X220500D02*
D03*
X215500D02*
D03*
D38*
X82000Y82000D02*
D03*
Y99000D02*
D03*
X138000Y82000D02*
D03*
Y99000D02*
D03*
D39*
X246100Y181000D02*
D03*
X215900D02*
D03*
X246100Y313000D02*
D03*
X215900D02*
D03*
D40*
X335000Y132000D02*
D03*
Y101000D02*
D03*
D41*
X315000Y175000D02*
D03*
D42*
X299000Y305000D02*
D03*
X323000Y314500D02*
D03*
Y295500D02*
D03*
X299000Y259000D02*
D03*
X323000Y268500D02*
D03*
Y249500D02*
D03*
D43*
X366000Y142000D02*
D03*
Y112000D02*
D03*
X382000Y260000D02*
D03*
Y290000D02*
D03*
X352000D02*
D03*
Y260000D02*
D03*
D44*
X225500Y151000D02*
D03*
D45*
X208500D02*
D03*
Y129000D02*
D03*
X227500D02*
D03*
D46*
X96500Y124000D02*
D03*
X65500D02*
D03*
D47*
X350000Y354000D02*
D03*
X322000D02*
D03*
X338000Y56000D02*
D03*
D48*
X261200Y39725D02*
D03*
X174800D02*
D03*
D49*
X246900Y76525D02*
D03*
X189100D02*
D03*
D50*
X174800Y81525D02*
D03*
X261200D02*
D03*
D51*
X38000Y186000D02*
D03*
X63400D02*
D03*
X38000Y160600D02*
D03*
X63400Y211400D02*
D03*
X38000D02*
D03*
X63400Y236800D02*
D03*
Y262200D02*
D03*
X38000Y236800D02*
D03*
Y262200D02*
D03*
D52*
X63400Y160600D02*
D03*
D53*
X153000Y88000D02*
D03*
X265000Y258000D02*
D03*
X261000Y218000D02*
D03*
X184000Y193000D02*
D03*
X335000Y323000D02*
D03*
X145000Y236000D02*
D03*
X146000Y254000D02*
D03*
X283000Y25000D02*
D03*
X296000Y44000D02*
D03*
X50000Y124000D02*
D03*
X280000Y326000D02*
D03*
X331000Y233000D02*
D03*
X256000Y126000D02*
D03*
X288000Y141000D02*
D03*
X196000Y129000D02*
D03*
X267000Y100000D02*
D03*
X171000Y99000D02*
D03*
X415000Y199000D02*
D03*
Y225000D02*
D03*
X108000Y324000D02*
D03*
X149000Y303000D02*
D03*
X234020Y63000D02*
D03*
X205000Y64000D02*
D03*
X283000Y298000D02*
D03*
X285000Y217000D02*
D03*
Y227000D02*
D03*
X277000Y267000D02*
D03*
Y240000D02*
D03*
X280000Y185000D02*
D03*
Y175000D02*
D03*
D54*
X335000Y84000D02*
D03*
X374000Y333000D02*
D03*
X322000D02*
D03*
X323000Y182000D02*
D03*
X164270Y226000D02*
D03*
X154000Y216000D02*
D03*
X121000Y82000D02*
D03*
X99000D02*
D03*
M02*
